# 3ds Max Wavefront OBJ Exporter v0.97b - (c)2007 guruware
# File Created: 16.02.2019 11:59:25

#
# object Object014
#

v  -3.6207 0.0910 -30.4286
v  -5.1068 0.0628 -32.0000
v  -5.0867 0.0634 -25.4535
v  -3.5926 0.0915 -25.3646
v  -1.5000 0.0791 -5.0833
v  -1.5000 0.0791 -0.0000
v  0.0000 0.0500 -0.0000
v  0.0000 0.0500 -5.3333
v  -5.0000 0.0500 32.0000
v  0.0000 0.0500 32.0000
v  -1.5000 0.0790 30.5000
v  -3.5265 0.0780 30.5000
v  -5.1590 0.0508 25.8813
v  -3.6663 0.0788 25.8364
v  -4.1563 0.0795 20.6418
v  -5.6441 0.0514 20.7463
v  -4.9472 0.0801 15.4496
v  -6.4282 0.0521 15.6062
v  -5.9784 0.0810 10.2731
v  -7.4550 0.0530 10.4588
v  -7.1021 0.0630 5.0897
v  -8.5743 0.0349 5.3029
v  -8.4106 0.0645 -0.0997
v  -9.8787 0.0365 0.1380
v  -9.7340 0.0662 -5.2718
v  -11.2048 0.0382 -5.0363
v  -10.9949 0.0682 -10.4381
v  -12.4718 0.0401 -10.2195
v  -12.1165 0.0705 -15.5990
v  -13.6014 0.0424 -15.4111
v  -13.0277 0.0730 -20.7545
v  -14.5208 0.0450 -20.6098
v  -13.6630 0.0755 -25.9050
v  -15.1623 0.0474 -25.8154
v  -13.9348 0.0781 -30.5000
v  -15.5000 0.0500 -32.0000
v  -8.7693 0.0333 -25.0417
v  -9.3730 0.0350 -32.0000
v  -10.7467 0.0640 -30.4951
v  -10.2496 0.0623 -24.9089
v  -8.9649 0.0598 -17.5619
v  -7.5297 0.0307 -17.8823
v  -5.7167 0.0276 -10.4361
v  -7.0943 0.0567 -9.9231
v  -5.0981 0.0457 -8.5777
v  -3.7811 0.0742 -1.2392
v  -3.6718 0.0838 -5.5486
v  -3.5713 0.0927 -15.1201
v  -5.0651 0.0646 -15.3085
v  -5.0561 0.0653 -10.0774
v  -3.5626 0.0934 -9.8580
v  -5.0741 0.0640 -20.5396
v  -3.5800 0.0920 -20.3822
v  0.0000 0.0500 26.6667
v  -1.5000 0.0790 25.4167
v  0.0000 0.0500 21.3333
v  -1.5000 0.0790 20.3333
v  0.0000 0.0500 16.0000
v  -1.5000 0.0790 15.2500
v  0.0000 0.0500 10.6667
v  -1.5000 0.0791 10.1667
v  0.0000 0.0500 5.3333
v  -1.5000 0.0791 5.0833
v  0.0000 0.0500 -26.6667
v  0.0000 0.0500 -32.0000
v  -1.5000 0.0791 -30.5000
v  -1.5000 0.0791 -25.4167
v  0.0000 0.0500 -21.3333
v  -1.5000 0.0791 -20.3333
v  0.0000 0.0500 -16.0000
v  -1.5000 0.0791 -15.2500
v  0.0000 0.0500 -10.6667
v  -1.5000 0.0791 -10.1667
v  3.6207 0.0910 -30.4286
v  3.5926 0.0915 -25.3646
v  5.0867 0.0634 -25.4535
v  5.1068 0.0628 -32.0000
v  1.5000 0.0791 -5.0833
v  1.5000 0.0791 -0.0000
v  1.5000 0.0790 30.5000
v  5.0000 0.0500 32.0000
v  3.5265 0.0780 30.5000
v  5.1590 0.0508 25.8813
v  3.6663 0.0788 25.8364
v  4.1563 0.0795 20.6418
v  5.6441 0.0514 20.7463
v  4.9472 0.0801 15.4496
v  6.4282 0.0521 15.6062
v  5.9784 0.0810 10.2731
v  7.4550 0.0530 10.4588
v  7.1021 0.0630 5.0897
v  8.5743 0.0349 5.3029
v  8.4106 0.0645 -0.0997
v  9.8787 0.0365 0.1380
v  9.7340 0.0662 -5.2718
v  11.2048 0.0382 -5.0363
v  10.9949 0.0682 -10.4381
v  12.4718 0.0401 -10.2195
v  12.1165 0.0705 -15.5990
v  13.6014 0.0424 -15.4111
v  13.0277 0.0730 -20.7545
v  14.5208 0.0450 -20.6098
v  13.6630 0.0755 -25.9050
v  15.1623 0.0474 -25.8154
v  13.9348 0.0781 -30.5000
v  15.5000 0.0500 -32.0000
v  10.7467 0.0640 -30.4951
v  9.3730 0.0350 -32.0000
v  8.7693 0.0333 -25.0417
v  10.2496 0.0623 -24.9089
v  8.9649 0.0598 -17.5619
v  7.5297 0.0307 -17.8823
v  5.7167 0.0276 -10.4361
v  7.0943 0.0567 -9.9231
v  5.0981 0.0457 -8.5777
v  3.7811 0.0742 -1.2392
v  3.6718 0.0838 -5.5486
v  3.5713 0.0927 -15.1201
v  3.5626 0.0934 -9.8580
v  5.0561 0.0653 -10.0774
v  5.0651 0.0646 -15.3085
v  3.5800 0.0920 -20.3822
v  5.0741 0.0640 -20.5396
v  1.5000 0.0790 25.4167
v  1.5000 0.0790 20.3333
v  1.5000 0.0790 15.2500
v  1.5000 0.0791 10.1667
v  1.5000 0.0791 5.0833
v  1.5000 0.0791 -25.4167
v  1.5000 0.0791 -30.5000
v  1.5000 0.0791 -20.3333
v  1.5000 0.0791 -15.2500
v  1.5000 0.0791 -10.1667
# 133 vertices

vn -0.0188 0.9998 -0.0000
vn 0.0194 0.9998 -0.0000
vn -0.0001 0.9998 0.0190
vn -0.0186 0.9998 0.0007
vn -0.0187 0.9998 0.0019
vn -0.0186 0.9998 0.0030
vn -0.0185 0.9998 0.0039
vn -0.0189 0.9998 0.0006
vn -0.0183 0.9998 0.0049
vn -0.0183 0.9998 0.0050
vn -0.0183 0.9998 0.0044
vn -0.0184 0.9998 0.0038
vn -0.0185 0.9998 0.0028
vn -0.0190 0.9998 0.0016
vn 0.0195 0.9998 -0.0014
vn 0.0195 0.9998 -0.0030
vn 0.0194 0.9998 -0.0043
vn 0.0104 0.9999 -0.0072
vn -0.0298 0.9996 0.0015
vn -0.0188 0.9998 -0.0001
vn 0.0193 0.9998 -0.0000
vn -0.0001 1.0000 0.0001
vn -0.0003 1.0000 0.0001
vn 0.0002 1.0000 0.0001
vn 0.0003 1.0000 -0.0000
vn 0.0004 1.0000 -0.0000
vn -0.0274 0.9996 0.0043
vn 0.0032 0.9998 -0.0186
vn 0.0031 0.9998 -0.0192
vn -0.0007 1.0000 -0.0009
vn 0.0020 1.0000 -0.0005
vn 0.0002 1.0000 -0.0008
vn 0.0032 1.0000 -0.0003
vn 0.0030 1.0000 -0.0003
vn 0.0037 1.0000 -0.0001
vn 0.0033 1.0000 -0.0002
vn 0.0042 1.0000 0.0002
vn 0.0040 1.0000 0.0001
vn 0.0044 1.0000 0.0003
vn 0.0057 1.0000 -0.0001
vn 0.0059 1.0000 -0.0001
vn 0.0062 1.0000 -0.0001
vn 0.0066 1.0000 -0.0001
vn 0.0055 1.0000 0.0006
vn 0.0057 1.0000 0.0004
vn 0.0023 1.0000 0.0010
vn 0.0017 1.0000 0.0010
vn -0.0004 1.0000 0.0010
vn -0.0014 1.0000 -0.0016
vn -0.0024 1.0000 0.0004
vn 0.0188 0.9998 -0.0000
vn -0.0194 0.9998 -0.0000
vn 0.0001 0.9998 0.0190
vn 0.0186 0.9998 0.0007
vn 0.0187 0.9998 0.0019
vn 0.0186 0.9998 0.0030
vn 0.0185 0.9998 0.0039
vn 0.0189 0.9998 0.0006
vn 0.0183 0.9998 0.0049
vn 0.0183 0.9998 0.0050
vn 0.0183 0.9998 0.0044
vn 0.0184 0.9998 0.0038
vn 0.0185 0.9998 0.0028
vn 0.0190 0.9998 0.0016
vn -0.0195 0.9998 -0.0014
vn -0.0195 0.9998 -0.0030
vn -0.0194 0.9998 -0.0043
vn -0.0104 0.9999 -0.0072
vn 0.0298 0.9996 0.0015
vn 0.0188 0.9998 -0.0001
vn -0.0193 0.9998 -0.0000
vn 0.0001 1.0000 0.0001
vn 0.0003 1.0000 0.0001
vn -0.0002 1.0000 0.0001
vn -0.0003 1.0000 -0.0000
vn -0.0004 1.0000 -0.0000
vn 0.0274 0.9996 0.0043
vn -0.0032 0.9998 -0.0186
vn -0.0031 0.9998 -0.0192
vn 0.0007 1.0000 -0.0009
vn -0.0002 1.0000 -0.0008
vn -0.0020 1.0000 -0.0005
vn -0.0030 1.0000 -0.0003
vn -0.0032 1.0000 -0.0003
vn -0.0033 1.0000 -0.0002
vn -0.0037 1.0000 -0.0001
vn -0.0042 1.0000 0.0002
vn -0.0040 1.0000 0.0001
vn -0.0044 1.0000 0.0003
vn -0.0057 1.0000 -0.0001
vn -0.0059 1.0000 -0.0001
vn -0.0062 1.0000 -0.0001
vn -0.0066 1.0000 -0.0001
vn -0.0057 1.0000 0.0004
vn -0.0055 1.0000 0.0006
vn -0.0023 1.0000 0.0010
vn -0.0017 1.0000 0.0010
vn 0.0004 1.0000 0.0010
vn 0.0014 1.0000 -0.0016
vn 0.0024 1.0000 0.0004
# 100 vertex normals

vt 0.2336 0.9754 0.0000
vt 0.3295 1.0000 0.0000
vt 0.3282 0.8977 0.0000
vt 0.2318 0.8963 0.0000
vt 0.1578 0.5794 0.0000
vt 0.1578 0.5000 0.0000
vt 0.0610 0.5000 0.0000
vt 0.0610 0.5833 0.0000
vt 0.3836 0.0000 0.0000
vt 0.0610 0.0000 0.0000
vt 0.1578 0.0234 0.0000
vt 0.2885 0.0234 0.0000
vt 1.0013 0.0956 0.0000
vt 1.0013 0.0000 0.0000
vt 0.9432 0.0234 0.0000
vt 0.9432 0.0963 0.0000
vt 0.9432 0.1775 0.0000
vt 1.0013 0.1758 0.0000
vt 0.9432 0.2586 0.0000
vt 1.0013 0.2562 0.0000
vt 0.9432 0.3395 0.0000
vt 1.0013 0.3366 0.0000
vt 0.9432 0.4205 0.0000
vt 1.0013 0.4171 0.0000
vt 0.9432 0.5016 0.0000
vt 1.0013 0.4978 0.0000
vt 0.9432 0.5824 0.0000
vt 1.0013 0.5787 0.0000
vt 0.9432 0.6631 0.0000
vt 1.0013 0.6597 0.0000
vt 0.9432 0.7437 0.0000
vt 1.0013 0.7408 0.0000
vt 0.9432 0.8243 0.0000
vt 1.0013 0.8220 0.0000
vt 0.9432 0.9048 0.0000
vt 1.0013 0.9034 0.0000
vt 0.9432 0.9766 0.0000
vt 1.0013 1.0000 0.0000
vt 0.5658 0.8913 0.0000
vt 0.6047 1.0000 0.0000
vt 0.6933 0.9765 0.0000
vt 0.6613 0.8892 0.0000
vt 0.5784 0.7744 0.0000
vt 0.4858 0.7794 0.0000
vt 0.3688 0.6631 0.0000
vt 0.4577 0.6550 0.0000
vt 0.3289 0.6340 0.0000
vt 0.2439 0.5194 0.0000
vt 0.2369 0.5867 0.0000
vt 0.2304 0.7363 0.0000
vt 0.3268 0.7392 0.0000
vt 0.3262 0.6575 0.0000
vt 0.2298 0.6540 0.0000
vt 0.3274 0.8209 0.0000
vt 0.2310 0.8185 0.0000
vt 0.0610 0.0833 0.0000
vt 0.1578 0.1029 0.0000
vt 0.0610 0.1667 0.0000
vt 0.1578 0.1823 0.0000
vt 0.0610 0.2500 0.0000
vt 0.1578 0.2617 0.0000
vt 0.0610 0.3333 0.0000
vt 0.1578 0.3411 0.0000
vt 0.0610 0.4167 0.0000
vt 0.1578 0.4206 0.0000
vt 0.0610 0.9167 0.0000
vt 0.0610 1.0000 0.0000
vt 0.1578 0.9766 0.0000
vt 0.1578 0.8971 0.0000
vt 0.0610 0.8333 0.0000
vt 0.1578 0.8177 0.0000
vt 0.0610 0.7500 0.0000
vt 0.1578 0.7383 0.0000
vt 0.0610 0.6667 0.0000
vt 0.1578 0.6589 0.0000
vt 0.2365 0.0963 0.0000
vt 0.2275 0.0234 0.0000
vt 0.0968 0.0234 0.0000
vt 0.0968 0.1029 0.0000
vt 0.2681 0.1775 0.0000
vt 0.0968 0.1823 0.0000
vt 0.0968 0.2617 0.0000
vt 0.3192 0.2586 0.0000
vt 0.0968 0.3411 0.0000
vt 0.3857 0.3395 0.0000
vt 0.3905 1.0000 0.0000
vt 0.2946 0.9754 0.0000
vt 0.8990 0.9766 0.0000
vt 1.0000 1.0000 0.0000
vt 0.6280 0.5824 0.0000
vt 0.5426 0.5016 0.0000
vt 0.7093 0.6631 0.0000
vt 0.7817 0.7437 0.0000
vt 0.8405 0.8243 0.0000
vt 0.8815 0.9048 0.0000
vt 0.0968 0.8971 0.0000
vt 0.0968 0.9766 0.0000
vt 0.0968 0.8177 0.0000
vt 0.0968 0.7383 0.0000
vt 0.0968 0.6589 0.0000
vt 0.0968 0.5794 0.0000
vt 0.0968 0.5000 0.0000
vt 0.0968 0.4206 0.0000
vt 0.4582 0.4205 0.0000
# 104 texture coords

g Object014
s off
f 1/1/1 2/2/1 3/3/1 4/4/1 
f 5/5/2 6/6/2 7/7/2 8/8/2 
f 9/9/3 10/10/3 11/11/3 12/12/3 
f 13/13/4 9/14/4 12/15/4 14/16/4 
f 15/17/5 16/18/5 13/13/5 14/16/5 
f 17/19/6 18/20/6 16/18/6 15/17/6 
f 19/21/7 20/22/7 18/20/7 17/19/7 
f 21/23/8 22/24/8 20/22/8 19/21/8 
f 23/25/9 24/26/9 22/24/9 21/23/9 
f 25/27/10 26/28/10 24/26/10 23/25/10 
f 27/29/9 28/30/9 26/28/9 25/27/9 
f 29/31/11 30/32/11 28/30/11 27/29/11 
f 31/33/12 32/34/12 30/32/12 29/31/12 
f 33/35/13 34/36/13 32/34/13 31/33/13 
f 35/37/14 36/38/14 34/36/14 33/35/14 
f 37/39/15 38/40/15 39/41/15 40/42/15 
f 41/43/16 42/44/16 37/39/16 40/42/16 
f 43/45/17 42/44/17 41/43/17 44/46/17 
f 45/47/18 43/45/18 44/46/18 46/48/18 
f 45/47/19 46/48/19 47/49/19 
f 48/50/20 49/51/20 50/52/20 51/53/20 
f 4/4/20 3/3/20 52/54/20 53/55/20 
f 11/11/21 10/10/21 54/56/21 55/57/21 
f 55/57/21 54/56/21 56/58/21 57/59/21 
f 57/59/2 56/58/2 58/60/2 59/61/2 
f 59/61/2 58/60/2 60/62/2 61/63/2 
f 61/63/2 60/62/2 62/64/2 63/65/2 
f 63/65/2 62/64/2 7/7/2 6/6/2 
f 64/66/2 65/67/2 66/68/2 67/69/2 
f 68/70/2 64/66/2 67/69/2 69/71/2 
f 70/72/2 68/70/2 69/71/2 71/73/2 
f 72/74/2 70/72/2 71/73/2 73/75/2 
f 8/8/2 72/74/2 73/75/2 5/5/2 
s 2
f 14/76/22 12/77/23 11/78/23 55/79/22 
f 15/80/24 14/76/22 55/79/22 57/81/24 
f 57/81/24 59/82/25 17/83/25 15/80/24 
f 17/83/25 59/82/25 61/84/26 19/85/26 
s off
f 49/51/20 48/50/20 53/55/20 52/54/20 
f 51/53/27 50/52/27 45/47/27 47/49/27 
s 1
f 2/86/28 1/87/28 66/68/28 65/67/28 
s off
f 35/88/29 39/41/29 38/40/29 36/89/29 
s 1
f 46/48/30 44/46/31 25/90/32 23/91/30 
f 44/46/31 41/43/33 27/92/34 25/90/32 
f 41/43/33 40/42/35 29/93/36 27/92/34 
f 40/42/35 39/41/37 31/94/35 29/93/36 
f 33/95/38 31/94/35 39/41/37 
f 35/88/39 33/95/38 39/41/37 
s 2
f 1/1/40 4/4/41 67/96/41 66/97/40 
f 69/98/42 67/96/41 4/4/41 53/55/42 
f 53/55/42 48/50/43 71/99/43 69/98/42 
f 48/50/43 51/53/44 73/100/45 71/99/43 
f 47/49/46 5/101/47 73/100/45 51/53/44 
f 46/48/48 6/102/48 5/101/47 47/49/46 
s 1
f 19/85/49 61/84/49 63/103/49 21/104/49 
s off
f 23/91/50 21/104/50 6/102/50 46/48/50 
f 63/103/50 6/102/50 21/104/50 
f 74/1/51 75/4/51 76/3/51 77/2/51 
f 78/5/52 8/8/52 7/7/52 79/6/52 
f 80/11/53 10/10/53 81/9/53 82/12/53 
f 82/15/54 81/14/54 83/13/54 84/16/54 
f 85/17/55 84/16/55 83/13/55 86/18/55 
f 87/19/56 85/17/56 86/18/56 88/20/56 
f 89/21/57 87/19/57 88/20/57 90/22/57 
f 91/23/58 89/21/58 90/22/58 92/24/58 
f 93/25/59 91/23/59 92/24/59 94/26/59 
f 95/27/60 93/25/60 94/26/60 96/28/60 
f 97/29/59 95/27/59 96/28/59 98/30/59 
f 99/31/61 97/29/61 98/30/61 100/32/61 
f 101/33/62 99/31/62 100/32/62 102/34/62 
f 103/35/63 101/33/63 102/34/63 104/36/63 
f 105/37/64 103/35/64 104/36/64 106/38/64 
f 107/41/65 108/40/65 109/39/65 110/42/65 
f 111/43/66 110/42/66 109/39/66 112/44/66 
f 111/43/67 112/44/67 113/45/67 114/46/67 
f 114/46/68 113/45/68 115/47/68 116/48/68 
f 115/47/69 117/49/69 116/48/69 
f 118/50/70 119/53/70 120/52/70 121/51/70 
f 75/4/70 122/55/70 123/54/70 76/3/70 
f 80/11/71 124/57/71 54/56/71 10/10/71 
f 124/57/71 125/59/71 56/58/71 54/56/71 
f 125/59/52 126/61/52 58/60/52 56/58/52 
f 126/61/52 127/63/52 60/62/52 58/60/52 
f 127/63/52 128/65/52 62/64/52 60/62/52 
f 128/65/52 79/6/52 7/7/52 62/64/52 
f 64/66/52 129/69/52 130/68/52 65/67/52 
f 68/70/52 131/71/52 129/69/52 64/66/52 
f 70/72/52 132/73/52 131/71/52 68/70/52 
f 72/74/52 133/75/52 132/73/52 70/72/52 
f 8/8/52 78/5/52 133/75/52 72/74/52 
s 2
f 84/76/72 124/79/72 80/78/73 82/77/73 
f 85/80/74 125/81/74 124/79/72 84/76/72 
f 87/83/75 126/82/75 125/81/74 85/80/74 
f 87/83/75 89/85/76 127/84/76 126/82/75 
s off
f 121/51/70 123/54/70 122/55/70 118/50/70 
f 119/53/77 117/49/77 115/47/77 120/52/77 
s 1
f 77/86/78 65/67/78 130/68/78 74/87/78 
s off
f 105/88/79 106/89/79 108/40/79 107/41/79 
s 1
f 116/48/80 93/91/80 95/90/81 114/46/82 
f 114/46/82 95/90/81 97/92/83 111/43/84 
f 111/43/84 97/92/83 99/93/85 110/42/86 
f 110/42/86 99/93/85 101/94/86 107/41/87 
f 103/95/88 107/41/87 101/94/86 
f 105/88/89 107/41/87 103/95/88 
s 2
f 74/1/90 130/97/90 129/96/91 75/4/91 
f 75/4/91 129/96/91 131/98/92 122/55/92 
f 122/55/92 131/98/92 132/99/93 118/50/93 
f 118/50/93 132/99/93 133/100/94 119/53/95 
f 117/49/96 119/53/95 133/100/94 78/101/97 
f 116/48/98 117/49/96 78/101/97 79/102/98 
s 1
f 89/85/99 91/104/99 128/103/99 127/84/99 
s off
f 79/102/100 91/104/100 93/91/100 116/48/100 
f 128/103/100 91/104/100 79/102/100 
# 104 polygons - 8 triangles

