# 3ds Max Wavefront OBJ Exporter v0.97b - (c)2007 guruware
# File Created: 16.02.2019 22:28:10

#
# object Object015
#

v  -3.6155 0.0914 -30.4204
v  -5.1068 0.0628 -32.0000
v  -4.9622 0.0810 -25.0844
v  -3.4626 0.1107 -24.9586
v  -1.5000 0.0791 -5.0833
v  -1.5000 0.0791 -0.0000
v  0.0000 0.0500 -0.0000
v  0.0000 0.0500 -5.3333
v  -3.0000 0.0500 32.0000
v  0.0000 0.0500 32.0000
v  -1.5328 0.0780 30.5000
v  -1.7207 0.0788 25.8364
v  -3.2104 0.0508 25.8813
v  -2.3237 0.0795 20.6418
v  -3.8083 0.0514 20.7463
v  -3.2793 0.0801 15.4496
v  -4.7569 0.0521 15.6062
v  -4.5143 0.0810 10.2731
v  -5.9881 0.0530 10.4588
v  -5.8693 0.0630 5.0897
v  -7.3388 0.0349 5.3029
v  -7.4238 0.0645 -0.0997
v  -8.8896 0.0365 0.1380
v  -8.9925 0.0662 -5.2718
v  -10.4624 0.0382 -5.0363
v  -10.4844 0.0682 -10.4381
v  -11.9620 0.0401 -10.2195
v  -11.8085 0.0705 -15.5990
v  -13.2954 0.0424 -15.4111
v  -12.8802 0.0730 -20.7545
v  -14.3761 0.0450 -20.6098
v  -13.6220 0.0755 -25.9050
v  -15.1234 0.0474 -25.8154
v  -13.9337 0.0781 -30.5000
v  -15.5000 0.0500 -32.0000
v  -10.7445 0.0640 -30.4951
v  -10.1271 0.0773 -24.5986
v  -8.6414 0.0501 -24.6896
v  -9.3730 0.0350 -32.0000
v  -9.3391 0.1053 -20.1792
v  -7.8816 0.0778 -20.3683
v  -8.5511 0.1332 -15.7599
v  -7.4414 0.1686 -10.9233
v  -6.0479 0.1399 -11.3318
v  -7.1218 0.1055 -16.0469
v  -4.4602 0.2353 -1.1249
v  -2.5887 0.2666 3.8369
v  -4.2654 0.2079 -4.3282
v  -2.6900 0.2654 -0.7637
v  -3.1356 0.1790 -15.1778
v  -4.6381 0.1475 -15.4637
v  -4.4475 0.1856 -10.2769
v  -2.9441 0.2171 -9.9689
v  -4.8135 0.1097 -20.5967
v  -3.3117 0.1406 -20.3609
v  0.0000 0.0500 26.6667
v  -1.5000 0.0790 25.4167
v  0.0000 0.0500 21.3333
v  -1.5000 0.0790 20.3333
v  0.0000 0.0500 16.0000
v  -1.5000 0.0790 15.2500
v  0.0000 0.0500 10.6667
v  -1.5000 0.0791 10.1667
v  0.0000 0.0500 5.3333
v  -1.5000 0.0791 5.0833
v  0.0000 0.0500 -26.6667
v  0.0000 0.0500 -32.0000
v  -1.5000 0.0791 -30.5000
v  -1.5000 0.0791 -25.4167
v  0.0000 0.0500 -21.3333
v  -1.5000 0.0791 -20.3333
v  0.0000 0.0500 -16.0000
v  -1.5000 0.0791 -15.2500
v  0.0000 0.0500 -10.6667
v  -1.5000 0.0791 -10.1667
v  -2.8171 0.2412 -5.3663
v  -4.3565 0.1968 -7.3026
v  -4.9740 0.1743 -6.6167
v  -6.3317 0.2039 -6.0868
v  3.6155 0.0914 -30.4204
v  3.4626 0.1107 -24.9586
v  4.9622 0.0810 -25.0844
v  5.1068 0.0628 -32.0000
v  1.5000 0.0791 -5.0833
v  1.5000 0.0791 -0.0000
v  1.5328 0.0780 30.5000
v  3.0000 0.0500 32.0000
v  3.2104 0.0508 25.8813
v  1.7207 0.0788 25.8364
v  2.3237 0.0795 20.6418
v  3.8083 0.0514 20.7463
v  3.2793 0.0801 15.4496
v  4.7569 0.0521 15.6062
v  4.5143 0.0810 10.2731
v  5.9881 0.0530 10.4588
v  5.8693 0.0630 5.0897
v  7.3388 0.0349 5.3029
v  7.4238 0.0645 -0.0997
v  8.8896 0.0365 0.1380
v  8.9925 0.0662 -5.2718
v  10.4624 0.0382 -5.0363
v  10.4844 0.0682 -10.4381
v  11.9620 0.0401 -10.2195
v  11.8085 0.0705 -15.5990
v  13.2954 0.0424 -15.4111
v  12.8802 0.0730 -20.7545
v  14.3761 0.0450 -20.6098
v  13.6220 0.0755 -25.9050
v  15.1234 0.0474 -25.8154
v  13.9337 0.0781 -30.5000
v  15.5000 0.0500 -32.0000
v  8.6414 0.0501 -24.6896
v  10.1271 0.0773 -24.5986
v  10.7445 0.0640 -30.4951
v  9.3730 0.0350 -32.0000
v  9.3391 0.1053 -20.1792
v  7.8816 0.0778 -20.3683
v  8.5511 0.1332 -15.7599
v  7.1218 0.1055 -16.0469
v  6.0479 0.1399 -11.3318
v  7.4414 0.1686 -10.9233
v  2.5887 0.2666 3.8369
v  4.4602 0.2353 -1.1249
v  4.2654 0.2079 -4.3282
v  2.6900 0.2654 -0.7637
v  3.1356 0.1790 -15.1778
v  2.9441 0.2171 -9.9689
v  4.4475 0.1856 -10.2769
v  4.6381 0.1475 -15.4637
v  3.3117 0.1406 -20.3609
v  4.8135 0.1097 -20.5967
v  1.5000 0.0790 25.4167
v  1.5000 0.0790 20.3333
v  1.5000 0.0790 15.2500
v  1.5000 0.0791 10.1667
v  1.5000 0.0791 5.0833
v  1.5000 0.0791 -25.4167
v  1.5000 0.0791 -30.5000
v  1.5000 0.0791 -20.3333
v  1.5000 0.0791 -15.2500
v  1.5000 0.0791 -10.1667
v  2.8171 0.2412 -5.3663
v  4.3565 0.1968 -7.3026
v  6.3317 0.2039 -6.0868
v  4.9740 0.1743 -6.6167
# 145 vertices

vn -0.0180 0.9998 -0.0026
vn 0.0194 0.9998 -0.0000
vn 0.0000 0.9998 0.0187
vn -0.0185 0.9998 0.0008
vn -0.0188 0.9998 0.0023
vn -0.0186 0.9998 0.0036
vn -0.0185 0.9998 0.0046
vn -0.0189 0.9998 0.0015
vn -0.0182 0.9998 0.0058
vn -0.0182 0.9998 0.0056
vn -0.0182 0.9998 0.0051
vn -0.0183 0.9998 0.0043
vn -0.0185 0.9998 0.0031
vn -0.0191 0.9998 0.0017
vn 0.0175 0.9998 -0.0039
vn 0.0177 0.9998 -0.0095
vn 0.0172 0.9998 -0.0112
vn 0.0051 1.0000 -0.0082
vn -0.0378 0.9993 0.0006
vn -0.0196 0.9998 -0.0066
vn -0.0195 0.9998 -0.0058
vn 0.0187 0.9998 0.0002
vn 0.0193 0.9998 -0.0000
vn -0.0006 1.0000 0.0002
vn 0.0002 1.0000 0.0001
vn -0.0004 1.0000 0.0002
vn 0.0004 1.0000 -0.0000
vn 0.0005 1.0000 -0.0000
vn 0.0006 1.0000 -0.0000
vn -0.0196 0.9998 -0.0067
vn -0.0258 0.9997 -0.0039
vn -0.0220 0.9998 -0.0040
vn 0.0033 0.9998 -0.0187
vn 0.0031 0.9998 -0.0192
vn 0.0082 0.9999 -0.0119
vn 0.0176 0.9998 -0.0095
vn 0.0173 0.9998 -0.0113
vn -0.0523 0.9985 0.0148
vn -0.0543 0.9984 0.0154
vn -0.0522 0.9985 0.0148
vn -0.0451 0.9989 0.0106
vn -0.0452 0.9989 0.0106
vn -0.0331 0.9994 0.0051
vn -0.0323 0.9995 0.0049
vn -0.0203 0.9998 0.0016
vn -0.0191 0.9998 0.0013
vn -0.0102 0.9999 -0.0007
vn -0.0081 1.0000 -0.0012
vn -0.0021 1.0000 -0.0017
vn -0.0002 1.0000 -0.0015
vn 0.0021 1.0000 -0.0012
vn 0.1635 0.9865 -0.0018
vn 0.1558 0.9878 -0.0026
vn 0.1470 0.9891 -0.0035
vn 0.1259 0.9920 -0.0041
vn 0.1215 0.9926 -0.0041
vn 0.0910 0.9958 -0.0046
vn 0.0934 0.9956 -0.0045
vn 0.0617 0.9981 -0.0048
vn 0.0612 0.9981 -0.0048
vn 0.0351 0.9994 -0.0040
vn 0.0356 0.9994 -0.0040
vn 0.0182 0.9998 -0.0028
vn 0.0164 0.9999 -0.0026
vn 0.0105 0.9999 -0.0020
vn -0.0021 0.9998 0.0180
vn 0.0180 0.9998 -0.0026
vn -0.0194 0.9998 -0.0000
vn 0.0185 0.9998 0.0008
vn 0.0188 0.9998 0.0023
vn 0.0186 0.9998 0.0036
vn 0.0185 0.9998 0.0046
vn 0.0189 0.9998 0.0015
vn 0.0182 0.9998 0.0058
vn 0.0182 0.9998 0.0056
vn 0.0182 0.9998 0.0051
vn 0.0183 0.9998 0.0043
vn 0.0185 0.9998 0.0031
vn 0.0191 0.9998 0.0017
vn -0.0175 0.9998 -0.0039
vn -0.0177 0.9998 -0.0095
vn -0.0172 0.9998 -0.0112
vn -0.0051 1.0000 -0.0082
vn 0.0378 0.9993 0.0006
vn 0.0196 0.9998 -0.0066
vn 0.0195 0.9998 -0.0058
vn -0.0187 0.9998 0.0002
vn -0.0193 0.9998 -0.0000
vn -0.0002 1.0000 0.0001
vn 0.0006 1.0000 0.0002
vn 0.0004 1.0000 0.0002
vn -0.0004 1.0000 -0.0000
vn -0.0005 1.0000 -0.0000
vn -0.0006 1.0000 -0.0000
vn 0.0196 0.9998 -0.0067
vn 0.0258 0.9997 -0.0039
vn 0.0220 0.9998 -0.0040
vn -0.0033 0.9998 -0.0187
vn -0.0031 0.9998 -0.0192
vn -0.0082 0.9999 -0.0119
vn -0.0176 0.9998 -0.0095
vn -0.0173 0.9998 -0.0113
vn 0.0523 0.9985 0.0148
vn 0.0522 0.9985 0.0148
vn 0.0543 0.9984 0.0154
vn 0.0452 0.9989 0.0106
vn 0.0451 0.9989 0.0106
vn 0.0323 0.9995 0.0049
vn 0.0331 0.9994 0.0051
vn 0.0191 0.9998 0.0013
vn 0.0203 0.9998 0.0016
vn 0.0081 1.0000 -0.0012
vn 0.0102 0.9999 -0.0007
vn 0.0002 1.0000 -0.0015
vn 0.0021 1.0000 -0.0017
vn -0.0021 1.0000 -0.0012
vn -0.1635 0.9865 -0.0018
vn -0.1470 0.9891 -0.0035
vn -0.1558 0.9878 -0.0026
vn -0.1215 0.9926 -0.0041
vn -0.1259 0.9920 -0.0041
vn -0.0934 0.9956 -0.0045
vn -0.0910 0.9958 -0.0046
vn -0.0617 0.9981 -0.0048
vn -0.0612 0.9981 -0.0048
vn -0.0351 0.9994 -0.0040
vn -0.0356 0.9994 -0.0040
vn -0.0182 0.9998 -0.0028
vn -0.0164 0.9999 -0.0026
vn -0.0105 0.9999 -0.0020
vn 0.0021 0.9998 0.0180
# 131 vertex normals

vt 0.2333 0.9753 0.0000
vt 0.3295 1.0000 0.0000
vt 0.3201 0.8919 0.0000
vt 0.2234 0.8900 0.0000
vt 0.3681 0.5794 0.0000
vt 0.3681 0.5000 0.0000
vt 0.2713 0.5000 0.0000
vt 0.2713 0.5833 0.0000
vt 0.4032 0.0000 0.0000
vt 0.5000 0.0000 0.0000
vt 0.4506 0.0234 0.0000
vt 0.0989 0.0234 0.0000
vt 0.1935 0.0000 0.0000
vt 0.9189 0.0234 0.0000
vt 0.9189 0.0963 0.0000
vt 1.0000 0.0956 0.0000
vt 1.0000 0.0000 0.0000
vt 0.9189 0.1775 0.0000
vt 1.0000 0.1758 0.0000
vt 0.9189 0.2586 0.0000
vt 1.0000 0.2562 0.0000
vt 0.9189 0.3395 0.0000
vt 1.0000 0.3366 0.0000
vt 0.9189 0.4205 0.0000
vt 1.0000 0.4171 0.0000
vt 0.9189 0.5016 0.0000
vt 1.0000 0.4978 0.0000
vt 0.9189 0.5824 0.0000
vt 1.0000 0.5787 0.0000
vt 0.9189 0.6631 0.0000
vt 1.0000 0.6597 0.0000
vt 0.9189 0.7437 0.0000
vt 1.0000 0.7408 0.0000
vt 0.9189 0.8243 0.0000
vt 1.0000 0.8220 0.0000
vt 0.9189 0.9048 0.0000
vt 1.0000 0.9034 0.0000
vt 0.9189 0.9766 0.0000
vt 1.0000 1.0000 0.0000
vt 0.6932 0.9765 0.0000
vt 0.6534 0.8844 0.0000
vt 0.5575 0.8858 0.0000
vt 0.6047 1.0000 0.0000
vt 0.6025 0.8153 0.0000
vt 0.5085 0.8183 0.0000
vt 0.5517 0.7462 0.0000
vt 0.4801 0.6707 0.0000
vt 0.3902 0.6771 0.0000
vt 0.4595 0.7507 0.0000
vt 0.2878 0.5176 0.0000
vt 0.1670 0.4400 0.0000
vt 0.2752 0.5676 0.0000
vt 0.1736 0.5119 0.0000
vt 0.2023 0.7372 0.0000
vt 0.2992 0.7416 0.0000
vt 0.2869 0.6606 0.0000
vt 0.1899 0.6558 0.0000
vt 0.3106 0.8218 0.0000
vt 0.2137 0.8181 0.0000
vt 0.3702 0.0234 0.0000
vt 0.2713 0.0000 0.0000
vt 0.2713 0.0833 0.0000
vt 0.3681 0.1029 0.0000
vt 0.2713 0.1667 0.0000
vt 0.3681 0.1823 0.0000
vt 0.2713 0.2500 0.0000
vt 0.3681 0.2617 0.0000
vt 0.2713 0.3333 0.0000
vt 0.3681 0.3411 0.0000
vt 0.2713 0.4167 0.0000
vt 0.3681 0.4206 0.0000
vt 0.2713 0.9167 0.0000
vt 0.2713 1.0000 0.0000
vt 0.3681 0.9766 0.0000
vt 0.3681 0.8971 0.0000
vt 0.2713 0.8333 0.0000
vt 0.3681 0.8177 0.0000
vt 0.2713 0.7500 0.0000
vt 0.3681 0.7383 0.0000
vt 0.2713 0.6667 0.0000
vt 0.3681 0.6589 0.0000
vt 0.0968 0.1029 0.0000
vt 0.1110 0.0963 0.0000
vt 0.1499 0.1775 0.0000
vt 0.0968 0.1823 0.0000
vt 0.2116 0.2586 0.0000
vt 0.0968 0.2617 0.0000
vt 0.0968 0.3411 0.0000
vt 0.2912 0.3395 0.0000
vt 0.1817 0.5838 0.0000
vt 0.2811 0.6141 0.0000
vt 0.0968 0.9766 0.0000
vt 0.0000 1.0000 0.0000
vt 0.8990 0.9766 0.0000
vt 0.3209 0.6034 0.0000
vt 0.4085 0.5951 0.0000
vt 0.4790 0.5016 0.0000
vt 0.3787 0.4205 0.0000
vt 0.5802 0.5824 0.0000
vt 0.6764 0.6631 0.0000
vt 0.7618 0.7437 0.0000
vt 0.8310 0.8243 0.0000
vt 0.8788 0.9048 0.0000
vt 0.0968 0.4206 0.0000
vt 0.0968 0.5000 0.0000
vt 0.0968 0.5794 0.0000
vt 0.0968 0.6589 0.0000
vt 0.0968 0.7383 0.0000
vt 0.0968 0.8177 0.0000
vt 0.0968 0.8971 0.0000
vt 0.5494 0.0234 0.0000
vt 0.5968 0.0000 0.0000
# 112 texture coords

g Object015
s off
f 1/1/1 2/2/1 3/3/1 4/4/1 
f 5/5/2 6/6/2 7/7/2 8/8/2 
f 9/9/3 10/10/3 11/11/3 
f 11/12/3 11/12/3 9/13/3 
f 11/14/4 12/15/4 13/16/4 9/17/4 
f 14/18/5 15/19/5 13/16/5 12/15/5 
f 16/20/6 17/21/6 15/19/6 14/18/6 
f 18/22/7 19/23/7 17/21/7 16/20/7 
f 20/24/8 21/25/8 19/23/8 18/22/8 
f 22/26/9 23/27/9 21/25/9 20/24/9 
f 24/28/9 25/29/9 23/27/9 22/26/9 
f 26/30/10 27/31/10 25/29/10 24/28/10 
f 28/32/11 29/33/11 27/31/11 26/30/11 
f 30/34/12 31/35/12 29/33/12 28/32/12 
f 32/36/13 33/37/13 31/35/13 30/34/13 
f 34/38/14 35/39/14 33/37/14 32/36/14 
f 36/40/15 37/41/15 38/42/15 39/43/15 
f 40/44/16 41/45/16 38/42/16 37/41/16 
f 42/46/17 43/47/17 44/48/17 45/49/17 
f 46/50/18 47/51/18 48/52/18 
f 47/51/19 49/53/19 48/52/19 
f 50/54/20 51/55/20 52/56/20 53/57/20 
f 4/4/21 3/3/21 54/58/21 55/59/21 
f 11/60/22 10/61/22 56/62/22 57/63/22 
f 57/63/23 56/62/23 58/64/23 59/65/23 
f 59/65/2 58/64/2 60/66/2 61/67/2 
f 61/67/2 60/66/2 62/68/2 63/69/2 
f 63/69/2 62/68/2 64/70/2 65/71/2 
f 65/71/2 64/70/2 7/7/2 6/6/2 
f 66/72/2 67/73/2 68/74/2 69/75/2 
f 70/76/2 66/72/2 69/75/2 71/77/2 
f 72/78/2 70/76/2 71/77/2 73/79/2 
f 74/80/2 72/78/2 73/79/2 75/81/2 
f 8/8/2 74/80/2 75/81/2 5/5/2 
s 2
f 11/12/24 11/12/24 57/82/25 
f 57/82/25 12/83/26 11/12/24 
f 14/84/27 12/83/26 57/82/25 59/85/28 
f 16/86/29 14/84/27 59/85/28 61/87/29 
f 16/86/29 61/87/29 63/88/29 18/89/29 
s off
f 51/55/30 50/54/30 55/59/30 54/58/30 
f 76/90/31 77/91/31 48/52/31 49/53/31 
f 53/57/32 52/56/32 77/91/32 76/90/32 
s 1
f 2/2/33 1/1/33 68/92/33 67/93/33 
f 34/94/34 36/40/34 39/43/34 35/39/34 
s off
f 48/52/35 78/95/35 79/96/35 46/50/35 
f 42/46/36 45/49/36 41/45/36 40/44/36 
f 43/47/37 79/96/37 78/95/37 44/48/37 
s 2
f 22/97/38 20/98/39 47/51/39 46/50/40 
f 22/97/38 46/50/40 79/96/41 24/99/42 
f 24/99/42 79/96/41 43/47/43 26/100/44 
f 26/100/44 43/47/43 42/46/45 28/101/46 
f 28/101/46 42/46/45 40/44/47 30/102/48 
f 30/102/48 40/44/47 37/41/49 32/103/50 
f 32/103/50 37/41/49 36/40/51 34/94/51 
s 4
f 47/51/52 65/104/52 6/105/53 49/53/54 
f 49/53/54 6/105/53 5/106/55 76/90/56 
f 76/90/56 5/106/55 75/107/57 53/57/58 
f 50/54/59 53/57/58 75/107/57 73/108/60 
f 55/59/61 50/54/59 73/108/60 71/109/62 
f 4/4/63 55/59/61 71/109/62 69/110/64 
f 1/1/65 4/4/63 69/110/64 68/92/65 
s off
f 18/89/66 63/88/66 65/104/66 47/51/66 
f 18/89/66 47/51/66 20/98/66 
f 80/1/67 81/4/67 82/3/67 83/2/67 
f 84/5/68 8/8/68 7/7/68 85/6/68 
f 86/111/3 10/10/3 87/112/3 
f 87/13/3 86/12/3 86/12/3 
f 88/16/69 89/15/69 86/14/69 87/17/69 
f 90/18/70 89/15/70 88/16/70 91/19/70 
f 92/20/71 90/18/71 91/19/71 93/21/71 
f 94/22/72 92/20/72 93/21/72 95/23/72 
f 96/24/73 94/22/73 95/23/73 97/25/73 
f 98/26/74 96/24/74 97/25/74 99/27/74 
f 100/28/74 98/26/74 99/27/74 101/29/74 
f 102/30/75 100/28/75 101/29/75 103/31/75 
f 104/32/76 102/30/76 103/31/76 105/33/76 
f 106/34/77 104/32/77 105/33/77 107/35/77 
f 108/36/78 106/34/78 107/35/78 109/37/78 
f 110/38/79 108/36/79 109/37/79 111/39/79 
f 112/42/80 113/41/80 114/40/80 115/43/80 
f 116/44/81 113/41/81 112/42/81 117/45/81 
f 118/46/82 119/49/82 120/48/82 121/47/82 
f 122/51/83 123/50/83 124/52/83 
f 125/53/84 122/51/84 124/52/84 
f 126/54/85 127/57/85 128/56/85 129/55/85 
f 81/4/86 130/59/86 131/58/86 82/3/86 
f 86/60/87 132/63/87 56/62/87 10/61/87 
f 132/63/88 133/65/88 58/64/88 56/62/88 
f 133/65/68 134/67/68 60/66/68 58/64/68 
f 134/67/68 135/69/68 62/68/68 60/66/68 
f 135/69/68 136/71/68 64/70/68 62/68/68 
f 136/71/68 85/6/68 7/7/68 64/70/68 
f 66/72/68 137/75/68 138/74/68 67/73/68 
f 70/76/68 139/77/68 137/75/68 66/72/68 
f 72/78/68 140/79/68 139/77/68 70/76/68 
f 74/80/68 141/81/68 140/79/68 72/78/68 
f 8/8/68 84/5/68 141/81/68 74/80/68 
s 2
f 132/82/89 86/12/90 86/12/90 
f 86/12/90 89/83/91 132/82/89 
f 90/84/92 133/85/93 132/82/89 89/83/91 
f 133/85/93 90/84/92 92/86/94 134/87/94 
f 92/86/94 94/89/94 135/88/94 134/87/94 
s off
f 129/55/95 131/58/95 130/59/95 126/54/95 
f 142/90/96 125/53/96 124/52/96 143/91/96 
f 127/57/97 142/90/97 143/91/97 128/56/97 
s 1
f 83/2/98 67/93/98 138/92/98 80/1/98 
f 110/94/99 111/39/99 115/43/99 114/40/99 
s off
f 124/52/100 123/50/100 144/96/100 145/95/100 
f 118/46/101 116/44/101 117/45/101 119/49/101 
f 121/47/102 120/48/102 145/95/102 144/96/102 
s 2
f 98/97/103 123/50/104 122/51/105 96/98/105 
f 98/97/103 100/99/106 144/96/107 123/50/104 
f 100/99/106 102/100/108 121/47/109 144/96/107 
f 102/100/108 104/101/110 118/46/111 121/47/109 
f 104/101/110 106/102/112 116/44/113 118/46/111 
f 106/102/112 108/103/114 113/41/115 116/44/113 
f 108/103/114 110/94/116 114/40/116 113/41/115 
s 4
f 122/51/117 125/53/118 85/105/119 136/104/117 
f 125/53/118 142/90/120 84/106/121 85/105/119 
f 142/90/120 127/57/122 141/107/123 84/106/121 
f 126/54/124 140/108/125 141/107/123 127/57/122 
f 130/59/126 139/109/127 140/108/125 126/54/124 
f 81/4/128 137/110/129 139/109/127 130/59/126 
f 80/1/130 138/92/130 137/110/129 81/4/128 
s off
f 136/104/131 135/88/131 94/89/131 122/51/131 
f 122/51/131 94/89/131 96/98/131 
# 112 polygons - 14 triangles

