# 3ds Max Wavefront OBJ Exporter v0.97b - (c)2007 guruware
# File Created: 17.02.2019 09:09:38

#
# object Object002
#

v  -3.5289 0.0780 30.5000
v  -5.0000 0.0500 32.0000
v  -5.3093 0.0508 25.8813
v  -3.8040 0.0788 25.8364
v  -4.6053 0.0795 20.6418
v  -6.1110 0.0514 20.7463
v  -5.7998 0.0801 15.4496
v  -7.2999 0.0521 15.6062
v  -7.2378 0.0810 10.2731
v  -8.7330 0.0530 10.4588
v  -8.6780 0.0630 5.0897
v  -10.1662 0.0349 5.3029
v  -10.1188 0.0645 -0.0997
v  -11.5977 0.0365 0.1380
v  -11.3221 0.0662 -5.2718
v  -12.7961 0.0382 -5.0363
v  -12.2705 0.0682 -10.4381
v  -13.7444 0.0401 -10.2195
v  -14.4618 0.0424 -15.4111
v  -12.9844 0.0705 -15.5990
v  -14.9717 0.0450 -20.6098
v  -13.4881 0.0730 -20.7545
v  -15.2978 0.0474 -25.8154
v  -13.8064 0.0755 -25.9050
v  -13.9377 0.0781 -30.5000
v  -15.5000 0.0500 -32.0000
v  -3.6207 0.0910 -30.4286
v  -3.5926 0.0915 -25.3646
v  -5.0867 0.0634 -25.4535
v  -5.1068 0.0628 -32.0000
v  -1.5000 0.0791 -5.0833
v  0.0000 0.0500 -5.3333
v  0.0000 0.0500 0.0000
v  -1.5000 0.0791 0.0000
v  -1.5000 0.0790 30.5000
v  -0.0000 0.0500 32.0000
v  -10.7467 0.0640 -30.4951
v  -9.3730 0.0350 -32.0000
v  -8.7693 0.0333 -25.0417
v  -10.2496 0.0623 -24.9089
v  -8.1495 0.0320 -21.4620
v  -9.6073 0.0610 -21.2354
v  -8.9649 0.0598 -17.5619
v  -7.5297 0.0307 -17.8823
v  -5.7167 0.0276 -10.4361
v  -7.0943 0.0567 -9.9231
v  -5.0981 0.0457 -8.5777
v  -5.4377 0.0654 -5.5812
v  -3.6718 0.0838 -5.5486
v  -3.7811 0.0742 -1.2392
v  -3.5713 0.0927 -15.1201
v  -3.5626 0.0934 -9.8580
v  -5.0561 0.0653 -10.0774
v  -5.0651 0.0646 -15.3085
v  -3.5800 0.0920 -20.3822
v  -5.0741 0.0640 -20.5396
v  -1.5000 0.0790 25.4167
v  -0.0000 0.0500 26.6667
v  -1.5000 0.0790 20.3333
v  -0.0000 0.0500 21.3333
v  -1.5000 0.0790 15.2500
v  -0.0000 0.0500 16.0000
v  -1.5000 0.0791 10.1667
v  -0.0000 0.0500 10.6667
v  -1.5000 0.0791 5.0833
v  -0.0000 0.0500 5.3333
v  0.0000 0.0500 -26.6667
v  -1.5000 0.0791 -25.4167
v  -1.5000 0.0791 -30.5000
v  0.0000 0.0500 -32.0000
v  0.0000 0.0500 -21.3333
v  -1.5000 0.0791 -20.3333
v  0.0000 0.0500 -16.0000
v  -1.5000 0.0791 -15.2500
v  0.0000 0.0500 -10.6667
v  -1.5000 0.0791 -10.1667
v  3.5289 0.0780 30.5000
v  3.8040 0.0788 25.8364
v  5.3093 0.0508 25.8813
v  5.0000 0.0500 32.0000
v  4.6053 0.0795 20.6418
v  6.1110 0.0514 20.7463
v  5.7998 0.0801 15.4496
v  7.2999 0.0521 15.6062
v  7.2378 0.0810 10.2731
v  8.7330 0.0530 10.4588
v  8.6780 0.0630 5.0897
v  10.1662 0.0349 5.3029
v  10.1188 0.0645 -0.0997
v  11.5977 0.0365 0.1380
v  11.3221 0.0662 -5.2718
v  12.7961 0.0382 -5.0363
v  12.2705 0.0682 -10.4381
v  13.7444 0.0401 -10.2195
v  12.9844 0.0705 -15.5990
v  14.4618 0.0424 -15.4111
v  13.4881 0.0730 -20.7545
v  14.9717 0.0450 -20.6098
v  13.8064 0.0755 -25.9050
v  15.2978 0.0474 -25.8154
v  13.9377 0.0781 -30.5000
v  15.5000 0.0500 -32.0000
v  3.6207 0.0910 -30.4286
v  5.1068 0.0628 -32.0000
v  5.0867 0.0634 -25.4535
v  3.5926 0.0915 -25.3646
v  1.5000 0.0791 -5.0833
v  1.5000 0.0791 -0.0000
v  0.0000 0.0500 -0.0000
v  -0.0000 0.0500 -5.3333
v  1.5000 0.0790 30.5000
v  0.0000 0.0500 32.0000
v  10.7467 0.0640 -30.4951
v  10.2496 0.0623 -24.9089
v  8.7693 0.0333 -25.0417
v  9.3730 0.0350 -32.0000
v  9.6073 0.0610 -21.2354
v  8.1495 0.0320 -21.4620
v  8.9649 0.0598 -17.5619
v  7.0943 0.0567 -9.9231
v  5.7167 0.0276 -10.4361
v  7.5297 0.0307 -17.8823
v  5.4377 0.0654 -5.5812
v  5.0981 0.0457 -8.5777
v  3.7811 0.0742 -1.2392
v  3.6718 0.0838 -5.5486
v  3.5713 0.0927 -15.1201
v  5.0651 0.0646 -15.3085
v  5.0561 0.0653 -10.0774
v  3.5626 0.0934 -9.8580
v  5.0741 0.0640 -20.5396
v  3.5800 0.0920 -20.3822
v  0.0000 0.0500 26.6667
v  1.5000 0.0790 25.4167
v  0.0000 0.0500 21.3333
v  1.5000 0.0790 20.3333
v  0.0000 0.0500 16.0000
v  1.5000 0.0790 15.2500
v  0.0000 0.0500 10.6667
v  1.5000 0.0791 10.1667
v  0.0000 0.0500 5.3333
v  1.5000 0.0791 5.0833
v  -0.0000 0.0500 -26.6667
v  -0.0000 0.0500 -32.0000
v  1.5000 0.0791 -30.5000
v  1.5000 0.0791 -25.4167
v  -0.0000 0.0500 -21.3333
v  1.5000 0.0791 -20.3333
v  -0.0000 0.0500 -16.0000
v  1.5000 0.0791 -15.2500
v  -0.0000 0.0500 -10.6667
v  1.5000 0.0791 -10.1667
# 152 vertices

vn -0.0182 0.9998 0.0011
vn -0.0185 0.9998 0.0030
vn -0.0183 0.9998 0.0043
vn -0.0181 0.9998 0.0052
vn -0.0186 0.9998 0.0017
vn -0.0181 0.9998 0.0053
vn -0.0182 0.9998 0.0046
vn -0.0184 0.9998 0.0038
vn -0.0186 0.9998 0.0030
vn -0.0187 0.9998 0.0023
vn -0.0187 0.9998 0.0016
vn -0.0189 0.9998 0.0011
vn -0.0188 0.9998 0.0000
vn 0.0194 0.9998 0.0000
vn -0.0001 0.9998 0.0190
vn 0.0195 0.9998 -0.0014
vn 0.0195 0.9998 -0.0030
vn 0.0194 0.9998 -0.0043
vn 0.0104 0.9999 -0.0072
vn -0.0298 0.9996 0.0015
vn -0.0188 0.9998 -0.0001
vn 0.0193 0.9998 0.0000
vn -0.0274 0.9996 0.0043
vn 0.0032 0.9998 -0.0186
vn 0.0031 0.9998 -0.0192
vn 0.0057 1.0000 -0.0001
vn 0.0059 1.0000 -0.0001
vn 0.0062 1.0000 -0.0001
vn 0.0066 1.0000 -0.0001
vn 0.0057 1.0000 0.0004
vn 0.0055 1.0000 0.0006
vn 0.0023 1.0000 0.0010
vn 0.0017 1.0000 0.0010
vn -0.0004 1.0000 0.0010
vn -0.0019 1.0000 0.0003
vn -0.0001 1.0000 0.0001
vn -0.0003 1.0000 0.0001
vn 0.0001 1.0000 0.0000
vn 0.0003 1.0000 0.0000
vn -0.0005 1.0000 -0.0009
vn -0.0004 1.0000 -0.0008
vn -0.0011 1.0000 -0.0016
vn 0.0092 0.9999 -0.0055
vn -0.0008 1.0000 -0.0005
vn 0.0003 1.0000 -0.0008
vn 0.0000 1.0000 -0.0007
vn 0.0019 1.0000 -0.0005
vn 0.0016 1.0000 -0.0007
vn 0.0026 1.0000 0.0000
vn 0.0027 1.0000 0.0000
vn 0.0031 1.0000 0.0001
vn 0.0038 1.0000 0.0001
vn 0.0036 1.0000 0.0001
vn 0.0040 1.0000 0.0002
# 54 vertex normals

vt 0.9432 0.0234 0.0000
vt 1.0013 0.0000 0.0000
vt 1.0013 0.0956 0.0000
vt 0.9432 0.0963 0.0000
vt 0.9432 0.1775 0.0000
vt 1.0013 0.1758 0.0000
vt 0.9432 0.2586 0.0000
vt 1.0013 0.2562 0.0000
vt 0.9432 0.3395 0.0000
vt 1.0013 0.3366 0.0000
vt 0.9432 0.4205 0.0000
vt 1.0013 0.4171 0.0000
vt 0.9432 0.5016 0.0000
vt 1.0013 0.4978 0.0000
vt 0.9432 0.5824 0.0000
vt 1.0013 0.5787 0.0000
vt 0.9432 0.6631 0.0000
vt 1.0013 0.6597 0.0000
vt 1.0013 0.7408 0.0000
vt 0.9432 0.7437 0.0000
vt 1.0013 0.8220 0.0000
vt 0.9432 0.8243 0.0000
vt 1.0013 0.9034 0.0000
vt 0.9432 0.9048 0.0000
vt 0.9432 0.9766 0.0000
vt 1.0013 1.0000 0.0000
vt 0.2336 0.9754 0.0000
vt 0.2318 0.8963 0.0000
vt 0.3282 0.8977 0.0000
vt 0.3295 1.0000 0.0000
vt 0.1578 0.5794 0.0000
vt 0.0610 0.5833 0.0000
vt 0.0610 0.5000 0.0000
vt 0.1578 0.5000 0.0000
vt 0.1578 0.0234 0.0000
vt 0.0610 0.0000 0.0000
vt 0.3836 0.0000 0.0000
vt 0.2885 0.0234 0.0000
vt 0.6933 0.9765 0.0000
vt 0.6047 1.0000 0.0000
vt 0.5658 0.8913 0.0000
vt 0.6613 0.8892 0.0000
vt 0.5258 0.8354 0.0000
vt 0.6199 0.8318 0.0000
vt 0.5784 0.7744 0.0000
vt 0.4858 0.7794 0.0000
vt 0.3688 0.6631 0.0000
vt 0.4577 0.6550 0.0000
vt 0.3289 0.6340 0.0000
vt 0.3508 0.5872 0.0000
vt 0.2369 0.5867 0.0000
vt 0.2439 0.5194 0.0000
vt 0.2304 0.7363 0.0000
vt 0.2298 0.6540 0.0000
vt 0.3262 0.6575 0.0000
vt 0.3268 0.7392 0.0000
vt 0.2310 0.8185 0.0000
vt 0.3274 0.8209 0.0000
vt 0.1578 0.1029 0.0000
vt 0.0610 0.0833 0.0000
vt 0.1578 0.1823 0.0000
vt 0.0610 0.1667 0.0000
vt 0.1578 0.2617 0.0000
vt 0.0610 0.2500 0.0000
vt 0.1578 0.3411 0.0000
vt 0.0610 0.3333 0.0000
vt 0.1578 0.4206 0.0000
vt 0.0610 0.4167 0.0000
vt 0.0610 0.9167 0.0000
vt 0.1578 0.8971 0.0000
vt 0.1578 0.9766 0.0000
vt 0.0610 1.0000 0.0000
vt 0.0610 0.8333 0.0000
vt 0.1578 0.8177 0.0000
vt 0.0610 0.7500 0.0000
vt 0.1578 0.7383 0.0000
vt 0.0610 0.6667 0.0000
vt 0.1578 0.6589 0.0000
vt 0.3905 1.0000 0.0000
vt 0.2946 0.9754 0.0000
vt 0.8990 0.9766 0.0000
vt 1.0000 1.0000 0.0000
vt 0.0968 0.9766 0.0000
vt 0.0968 0.8971 0.0000
vt 0.0968 0.8177 0.0000
vt 0.0968 0.7383 0.0000
vt 0.0968 0.6589 0.0000
vt 0.0968 0.5794 0.0000
vt 0.0968 0.5000 0.0000
vt 0.5484 0.4206 0.0000
vt 0.8264 0.5016 0.0000
vt 0.6220 0.5194 0.0000
vt 0.5484 0.5000 0.0000
vt 0.7799 0.4205 0.0000
vt 0.6227 0.0963 0.0000
vt 0.5484 0.1029 0.0000
vt 0.5484 0.0234 0.0000
vt 0.6138 0.0234 0.0000
vt 0.6486 0.1775 0.0000
vt 0.5484 0.1823 0.0000
vt 0.6871 0.2586 0.0000
vt 0.5484 0.2617 0.0000
vt 0.7335 0.3395 0.0000
vt 0.5484 0.3411 0.0000
vt 0.8652 0.5824 0.0000
vt 0.6754 0.5872 0.0000
vt 0.8958 0.6631 0.0000
vt 0.7288 0.6550 0.0000
vt 0.9189 0.7437 0.0000
vt 0.7892 0.7744 0.0000
vt 0.9351 0.8243 0.0000
vt 0.8099 0.8318 0.0000
vt 0.9454 0.9048 0.0000
vt 0.8306 0.8892 0.0000
vt 0.9496 0.9766 0.0000
vt 0.8467 0.9765 0.0000
# 116 texture coords

g Object002
s off
f 4/4/1 3/3/1 2/2/1 1/1/1 
f 6/6/2 3/3/2 4/4/2 5/5/2 
f 8/8/3 6/6/3 5/5/3 7/7/3 
f 10/10/4 8/8/4 7/7/4 9/9/4 
f 12/12/5 10/10/5 9/9/5 11/11/5 
f 14/14/6 12/12/6 11/11/6 13/13/6 
f 16/16/7 14/14/7 13/13/7 15/15/7 
f 18/18/8 16/16/8 15/15/8 17/17/8 
f 17/17/9 20/20/9 19/19/9 18/18/9 
f 22/22/10 21/21/10 19/19/10 20/20/10 
f 24/24/11 23/23/11 21/21/11 22/22/11 
f 26/26/12 23/23/12 24/24/12 25/25/12 
f 30/30/13 29/29/13 28/28/13 27/27/13 
f 34/34/14 33/33/14 32/32/14 31/31/14 
f 1/38/15 2/37/15 36/36/15 35/35/15 
f 40/42/16 39/41/16 38/40/16 37/39/16 
f 40/42/17 42/44/17 41/43/17 39/41/17 
f 46/48/18 45/47/18 44/46/18 43/45/18 
f 48/50/19 47/49/19 45/47/19 46/48/19 
f 50/52/20 49/51/20 47/49/20 
f 54/56/21 53/55/21 52/54/21 51/53/21 
f 29/29/21 56/58/21 55/57/21 28/28/21 
f 36/36/22 58/60/22 57/59/22 35/35/22 
f 58/60/22 60/62/22 59/61/22 57/59/22 
f 60/62/14 62/64/14 61/63/14 59/61/14 
f 62/64/14 64/66/14 63/65/14 61/63/14 
f 64/66/14 66/68/14 65/67/14 63/65/14 
f 66/68/14 33/33/14 34/34/14 65/67/14 
f 70/72/14 69/71/14 68/70/14 67/69/14 
f 67/69/14 68/70/14 72/74/14 71/73/14 
f 71/73/14 72/74/14 74/76/14 73/75/14 
f 73/75/14 74/76/14 76/78/14 75/77/14 
f 75/77/14 76/78/14 31/31/14 32/32/14 
f 51/53/21 55/57/21 56/58/21 54/56/21 
f 53/55/23 47/49/23 49/51/23 52/54/23 
s 1
f 27/80/24 69/71/24 70/72/24 30/79/24 
s off
f 37/39/25 38/40/25 26/82/25 25/81/25 
s 2
f 28/28/27 68/84/27 69/83/26 27/27/26 
f 72/85/28 68/84/27 28/28/27 55/57/28 
f 51/53/29 74/86/29 72/85/28 55/57/28 
f 52/54/31 76/87/30 74/86/29 51/53/29 
f 31/88/33 76/87/30 52/54/31 49/51/32 
f 34/89/34 31/88/33 49/51/32 50/52/34 
s off
f 34/93/35 50/92/35 13/91/35 65/90/35 
f 65/90/35 13/91/35 11/94/35 
s 1
f 1/98/37 35/97/37 57/96/36 4/95/36 
f 4/95/36 57/96/36 59/100/38 5/99/38 
f 59/100/38 61/102/39 7/101/39 5/99/38 
f 61/102/39 63/104/41 9/103/40 7/101/39 
f 63/104/41 65/90/42 11/94/42 9/103/40 
s off
f 48/50/43 50/52/43 47/49/43 
f 43/45/17 44/46/17 41/43/17 42/44/17 
s 1
f 50/92/44 48/106/46 15/105/45 13/91/44 
f 48/106/46 46/108/48 17/107/47 15/105/45 
f 46/108/48 43/110/50 20/109/49 17/107/47 
f 20/109/49 43/110/50 42/112/51 22/111/51 
f 42/112/51 40/114/53 24/113/52 22/111/51 
f 40/114/53 37/116/54 25/115/54 24/113/52 
s off
f 80/2/1 79/3/1 78/4/1 77/1/1 
f 78/4/2 79/3/2 82/6/2 81/5/2 
f 81/5/3 82/6/3 84/8/3 83/7/3 
f 83/7/4 84/8/4 86/10/4 85/9/4 
f 85/9/5 86/10/5 88/12/5 87/11/5 
f 87/11/6 88/12/6 90/14/6 89/13/6 
f 89/13/7 90/14/7 92/16/7 91/15/7 
f 91/15/8 92/16/8 94/18/8 93/17/8 
f 96/19/9 95/20/9 93/17/9 94/18/9 
f 96/19/10 98/21/10 97/22/10 95/20/10 
f 98/21/11 100/23/11 99/24/11 97/22/11 
f 99/24/12 100/23/12 102/26/12 101/25/12 
f 106/28/13 105/29/13 104/30/13 103/27/13 
f 110/32/14 109/33/14 108/34/14 107/31/14 
f 112/36/15 80/37/15 77/38/15 111/35/15 
f 116/40/16 115/41/16 114/42/16 113/39/16 
f 118/43/17 117/44/17 114/42/17 115/41/17 
f 122/46/18 121/47/18 120/48/18 119/45/18 
f 121/47/19 124/49/19 123/50/19 120/48/19 
f 126/51/20 125/52/20 124/49/20 
f 130/54/21 129/55/21 128/56/21 127/53/21 
f 132/57/21 131/58/21 105/29/21 106/28/21 
f 134/59/22 133/60/22 112/36/22 111/35/22 
f 136/61/22 135/62/22 133/60/22 134/59/22 
f 138/63/14 137/64/14 135/62/14 136/61/14 
f 140/65/14 139/66/14 137/64/14 138/63/14 
f 142/67/14 141/68/14 139/66/14 140/65/14 
f 108/34/14 109/33/14 141/68/14 142/67/14 
f 146/70/14 145/71/14 144/72/14 143/69/14 
f 148/74/14 146/70/14 143/69/14 147/73/14 
f 150/76/14 148/74/14 147/73/14 149/75/14 
f 152/78/14 150/76/14 149/75/14 151/77/14 
f 107/31/14 152/78/14 151/77/14 110/32/14 
f 131/58/21 132/57/21 127/53/21 128/56/21 
f 126/51/23 124/49/23 129/55/23 130/54/23 
s 1
f 144/72/24 145/71/24 103/80/24 104/79/24 
s off
f 102/82/25 116/40/25 113/39/25 101/81/25 
s 2
f 145/83/26 146/84/27 106/28/27 103/27/26 
f 106/28/27 146/84/27 148/85/28 132/57/28 
f 148/85/28 150/86/29 127/53/29 132/57/28 
f 150/86/29 152/87/30 130/54/31 127/53/29 
f 130/54/31 152/87/30 107/88/33 126/51/32 
f 126/51/32 107/88/33 108/89/34 125/52/34 
s off
f 89/91/35 125/92/35 108/93/35 142/90/35 
f 89/91/35 142/90/35 87/94/35 
s 1
f 134/96/36 111/97/37 77/98/37 78/95/36 
f 136/100/38 134/96/36 78/95/36 81/99/38 
f 83/101/39 138/102/39 136/100/38 81/99/38 
f 85/103/40 140/104/41 138/102/39 83/101/39 
f 87/94/42 142/90/42 140/104/41 85/103/40 
s off
f 125/52/43 123/50/43 124/49/43 
f 118/43/17 122/46/17 119/45/17 117/44/17 
s 1
f 91/105/45 123/106/46 125/92/44 89/91/44 
f 93/107/47 120/108/48 123/106/46 91/105/45 
f 95/109/49 119/110/50 120/108/48 93/107/47 
f 117/112/51 119/110/50 95/109/49 97/111/51 
f 99/113/52 114/114/53 117/112/51 97/111/51 
f 101/115/54 113/116/54 114/114/53 99/113/52 
# 110 polygons - 6 triangles

