# 3ds Max Wavefront OBJ Exporter v0.97b - (c)2007 guruware
# File Created: 16.02.2019 11:50:58

#
# object Object013
#

v  -3.6250 0.0910 -30.5000
v  -5.1068 0.0628 -32.0000
v  -5.1816 0.0635 -25.8803
v  -3.6819 0.0916 -25.8419
v  -1.5000 0.0791 -30.5000
v  0.0000 0.0500 -32.0000
v  -1.5000 0.0791 -5.0833
v  -1.5000 0.0791 -0.0000
v  0.0000 0.0500 -0.0000
v  0.0000 0.0500 -5.3333
v  -7.5137 0.0780 30.5000
v  -9.0000 0.0500 32.0000
v  0.0000 0.0500 32.0000
v  -1.5000 0.0790 30.5000
v  -7.5566 0.0788 25.8364
v  -9.0563 0.0508 25.8813
v  -7.8197 0.0795 20.6418
v  -9.3163 0.0514 20.7463
v  -8.2820 0.0801 15.4496
v  -9.7740 0.0521 15.6062
v  -8.9084 0.0810 10.2731
v  -10.3969 0.0530 10.4588
v  -9.5747 0.0630 5.0897
v  -11.0596 0.0349 5.3029
v  -10.3984 0.0645 -0.0997
v  -11.8794 0.0365 0.1380
v  -11.2381 0.0662 -5.2718
v  -12.7195 0.0382 -5.0363
v  -12.0419 0.0682 -10.4381
v  -13.5260 0.0401 -10.2195
v  -12.7593 0.0705 -15.5990
v  -14.2476 0.0424 -15.4111
v  -13.3451 0.0730 -20.7545
v  -14.8383 0.0450 -20.6098
v  -13.7587 0.0755 -25.9050
v  -15.2564 0.0474 -25.8154
v  -13.9397 0.0781 -30.5000
v  -15.5000 0.0500 -32.0000
v  -10.7534 0.0640 -30.5000
v  -9.3730 0.0350 -32.0000
v  -10.3604 0.0623 -25.7745
v  -8.8728 0.0333 -25.9858
v  -9.3052 0.0598 -20.5452
v  -7.8480 0.0307 -20.9073
v  -7.7589 0.0567 -15.3242
v  -6.3406 0.0276 -15.8177
v  -4.9797 0.0742 -8.4020
v  -5.8126 0.0457 -14.5025
v  -4.1967 0.0934 -15.4648
v  -5.6917 0.0653 -15.5926
v  -3.8840 0.0924 -20.6567
v  -5.3822 0.0643 -20.7310
v  0.0000 0.0500 26.6667
v  -1.5000 0.0790 25.4167
v  0.0000 0.0500 21.3333
v  -1.5000 0.0790 20.3333
v  0.0000 0.0500 16.0000
v  -1.5000 0.0790 15.2500
v  0.0000 0.0500 10.6667
v  -1.5000 0.0791 10.1667
v  0.0000 0.0500 5.3333
v  -1.5000 0.0791 5.0833
v  0.0000 0.0500 -26.6667
v  -1.5000 0.0791 -25.4167
v  0.0000 0.0500 -21.3333
v  -1.5000 0.0791 -20.3333
v  0.0000 0.0500 -16.0000
v  -1.5000 0.0791 -15.2500
v  0.0000 0.0500 -10.6667
v  -1.5000 0.0791 -10.1667
v  -12.0419 0.0768 -10.3982
v  3.6250 0.0910 -30.5000
v  3.6819 0.0916 -25.8419
v  5.1816 0.0635 -25.8803
v  5.1068 0.0628 -32.0000
v  1.5000 0.0791 -30.5000
v  1.5000 0.0791 -5.0833
v  1.5000 0.0791 -0.0000
v  7.5137 0.0780 30.5000
v  1.5000 0.0790 30.5000
v  9.0000 0.0500 32.0000
v  9.0563 0.0508 25.8813
v  7.5566 0.0788 25.8364
v  7.8197 0.0795 20.6418
v  9.3163 0.0514 20.7463
v  8.2820 0.0801 15.4496
v  9.7740 0.0521 15.6062
v  8.9084 0.0810 10.2731
v  10.3969 0.0530 10.4588
v  9.5747 0.0630 5.0897
v  11.0596 0.0349 5.3029
v  10.3984 0.0645 -0.0997
v  11.8794 0.0365 0.1380
v  11.2381 0.0662 -5.2718
v  12.7195 0.0382 -5.0363
v  12.0419 0.0682 -10.4381
v  13.5260 0.0401 -10.2195
v  12.7593 0.0705 -15.5990
v  14.2476 0.0424 -15.4111
v  13.3451 0.0730 -20.7545
v  14.8383 0.0450 -20.6098
v  13.7587 0.0755 -25.9050
v  15.2564 0.0474 -25.8154
v  13.9397 0.0781 -30.5000
v  15.5000 0.0500 -32.0000
v  9.3730 0.0350 -32.0000
v  10.7534 0.0640 -30.5000
v  8.8728 0.0333 -25.9858
v  10.3604 0.0623 -25.7745
v  9.3052 0.0598 -20.5452
v  7.8480 0.0307 -20.9073
v  7.7589 0.0567 -15.3242
v  6.3406 0.0276 -15.8177
v  5.8126 0.0457 -14.5025
v  4.9797 0.0742 -8.4020
v  4.1967 0.0934 -15.4648
v  5.6917 0.0653 -15.5926
v  3.8840 0.0924 -20.6567
v  5.3822 0.0643 -20.7310
v  1.5000 0.0790 25.4167
v  1.5000 0.0790 20.3333
v  1.5000 0.0790 15.2500
v  1.5000 0.0791 10.1667
v  1.5000 0.0791 5.0833
v  1.5000 0.0791 -25.4167
v  1.5000 0.0791 -20.3333
v  1.5000 0.0791 -15.2500
v  1.5000 0.0791 -10.1667
v  12.0419 0.0768 -10.3982
# 129 vertices

vn -0.0187 0.9998 -0.0003
vn 0.0034 0.9998 -0.0191
vn 0.0194 0.9998 -0.0000
vn -0.0001 0.9998 0.0190
vn -0.0186 0.9998 0.0003
vn -0.0187 0.9998 0.0011
vn -0.0186 0.9998 0.0018
vn -0.0185 0.9998 0.0024
vn -0.0190 0.9998 -0.0010
vn -0.0184 0.9998 0.0032
vn -0.0184 0.9998 0.0033
vn -0.0185 0.9998 0.0030
vn -0.0185 0.9998 0.0026
vn -0.0186 0.9998 0.0020
vn -0.0189 0.9998 0.0012
vn 0.0031 0.9998 -0.0192
vn 0.0195 0.9998 -0.0013
vn 0.0191 0.9998 -0.0034
vn 0.0187 0.9998 -0.0050
vn 0.0090 0.9999 -0.0079
vn -0.0285 0.9996 0.0016
vn -0.0187 0.9998 -0.0013
vn -0.0187 0.9998 -0.0009
vn 0.0193 0.9998 -0.0000
vn 0.0037 1.0000 0.0009
vn 0.0019 1.0000 0.0017
vn 0.0036 1.0000 0.0009
vn 0.0055 1.0000 0.0001
vn 0.0056 1.0000 -0.0000
vn 0.0018 1.0000 -0.0025
vn 0.0023 1.0000 -0.0016
vn 0.0025 1.0000 -0.0011
vn 0.0032 1.0000 -0.0000
vn 0.0033 1.0000 -0.0000
vn 0.0038 1.0000 0.0001
vn 0.0039 1.0000 0.0001
vn 0.0041 1.0000 0.0002
vn 0.0000 1.0000 0.0001
vn -0.0001 1.0000 0.0001
vn 0.0001 1.0000 0.0001
vn 0.0002 1.0000 0.0001
vn -0.0004 1.0000 -0.0008
vn -0.0004 1.0000 -0.0009
vn -0.0014 1.0000 -0.0007
vn -0.0014 1.0000 -0.0006
vn -0.0016 1.0000 0.0003
vn -0.0013 1.0000 0.0002
vn -0.0012 1.0000 0.0002
vn 0.0187 0.9998 -0.0003
vn -0.0034 0.9998 -0.0191
vn -0.0194 0.9998 -0.0000
vn 0.0001 0.9998 0.0190
vn 0.0186 0.9998 0.0003
vn 0.0187 0.9998 0.0011
vn 0.0186 0.9998 0.0018
vn 0.0185 0.9998 0.0024
vn 0.0190 0.9998 -0.0010
vn 0.0184 0.9998 0.0032
vn 0.0184 0.9998 0.0033
vn 0.0185 0.9998 0.0030
vn 0.0185 0.9998 0.0026
vn 0.0186 0.9998 0.0020
vn 0.0189 0.9998 0.0012
vn -0.0031 0.9998 -0.0192
vn -0.0195 0.9998 -0.0013
vn -0.0191 0.9998 -0.0034
vn -0.0187 0.9998 -0.0050
vn -0.0090 0.9999 -0.0079
vn 0.0285 0.9996 0.0016
vn 0.0187 0.9998 -0.0013
vn 0.0187 0.9998 -0.0009
vn -0.0193 0.9998 -0.0000
vn -0.0037 1.0000 0.0009
vn -0.0036 1.0000 0.0009
vn -0.0019 1.0000 0.0017
vn -0.0055 1.0000 0.0001
vn -0.0056 1.0000 -0.0000
vn -0.0018 1.0000 -0.0025
vn -0.0025 1.0000 -0.0011
vn -0.0023 1.0000 -0.0016
vn -0.0033 1.0000 -0.0000
vn -0.0032 1.0000 -0.0000
vn -0.0039 1.0000 0.0001
vn -0.0038 1.0000 0.0001
vn -0.0041 1.0000 0.0002
vn -0.0002 1.0000 0.0001
vn 0.0004 1.0000 -0.0009
vn 0.0004 1.0000 -0.0008
vn 0.0014 1.0000 -0.0006
vn 0.0014 1.0000 -0.0007
vn 0.0016 1.0000 0.0003
vn 0.0013 1.0000 0.0002
vn 0.0012 1.0000 0.0002
# 93 vertex normals

vt 0.2339 0.9766 0.0000
vt 0.3295 1.0000 0.0000
vt 0.3343 0.9044 0.0000
vt 0.2375 0.9038 0.0000
vt 0.1746 0.9766 0.0000
vt 0.0778 1.0000 0.0000
vt 0.4073 1.0000 0.0000
vt 0.3117 0.9766 0.0000
vt 0.1746 0.5794 0.0000
vt 0.1746 0.5000 0.0000
vt 0.0778 0.5000 0.0000
vt 0.0778 0.5833 0.0000
vt 0.5626 0.0234 0.0000
vt 0.6584 0.0000 0.0000
vt 0.0778 0.0000 0.0000
vt 0.1746 0.0234 0.0000
vt 0.9520 0.0234 0.0000
vt 0.9520 0.0963 0.0000
vt 1.0003 0.0956 0.0000
vt 1.0003 0.0000 0.0000
vt 0.9520 0.1775 0.0000
vt 1.0003 0.1758 0.0000
vt 0.9520 0.2586 0.0000
vt 1.0003 0.2562 0.0000
vt 0.9520 0.3395 0.0000
vt 1.0003 0.3366 0.0000
vt 0.9520 0.4205 0.0000
vt 1.0003 0.4171 0.0000
vt 0.9520 0.5016 0.0000
vt 1.0003 0.4978 0.0000
vt 0.9520 0.5824 0.0000
vt 1.0003 0.5787 0.0000
vt 0.9520 0.6631 0.0000
vt 1.0003 0.6597 0.0000
vt 0.9520 0.7437 0.0000
vt 1.0003 0.7408 0.0000
vt 0.9520 0.8243 0.0000
vt 1.0003 0.8220 0.0000
vt 0.9520 0.9048 0.0000
vt 1.0003 0.9034 0.0000
vt 0.9520 0.9766 0.0000
vt 1.0003 1.0000 0.0000
vt 0.8993 0.9766 0.0000
vt 0.6938 0.9766 0.0000
vt 0.6047 1.0000 0.0000
vt 1.0000 1.0000 0.0000
vt 0.6684 0.9027 0.0000
vt 0.5724 0.9060 0.0000
vt 0.6003 0.8210 0.0000
vt 0.5063 0.8267 0.0000
vt 0.5006 0.7394 0.0000
vt 0.4091 0.7472 0.0000
vt 0.3213 0.6313 0.0000
vt 0.3750 0.7266 0.0000
vt 0.2708 0.7416 0.0000
vt 0.3672 0.7436 0.0000
vt 0.2506 0.8228 0.0000
vt 0.3472 0.8239 0.0000
vt 0.0778 0.0833 0.0000
vt 0.1746 0.1029 0.0000
vt 0.0778 0.1667 0.0000
vt 0.1746 0.1823 0.0000
vt 0.0778 0.2500 0.0000
vt 0.1746 0.2617 0.0000
vt 0.0778 0.3333 0.0000
vt 0.1746 0.3411 0.0000
vt 0.0778 0.4167 0.0000
vt 0.1746 0.4206 0.0000
vt 0.0778 0.9167 0.0000
vt 0.1746 0.8971 0.0000
vt 0.0778 0.8333 0.0000
vt 0.1746 0.8177 0.0000
vt 0.0778 0.7500 0.0000
vt 0.1746 0.7383 0.0000
vt 0.0778 0.6667 0.0000
vt 0.1746 0.6589 0.0000
vt 0.0968 0.6589 0.0000
vt 0.0968 0.7383 0.0000
vt 0.0968 0.8177 0.0000
vt 0.0968 0.8971 0.0000
vt 0.0968 0.9766 0.0000
vt 0.7769 0.6625 0.0000
vt 0.8232 0.7437 0.0000
vt 0.8610 0.8243 0.0000
vt 0.8877 0.9048 0.0000
vt 0.4875 0.0963 0.0000
vt 0.4848 0.0234 0.0000
vt 0.0968 0.0234 0.0000
vt 0.0968 0.1029 0.0000
vt 0.5045 0.1775 0.0000
vt 0.0968 0.1823 0.0000
vt 0.0968 0.2617 0.0000
vt 0.5343 0.2586 0.0000
vt 0.0968 0.3411 0.0000
vt 0.5747 0.3395 0.0000
vt 0.0968 0.4206 0.0000
vt 0.6177 0.4205 0.0000
vt 0.0968 0.5000 0.0000
vt 0.6709 0.5016 0.0000
vt 0.0968 0.5794 0.0000
vt 0.7250 0.5824 0.0000
vt 0.7769 0.6631 0.0000
vt 1.0000 0.0956 0.0000
vt 1.0000 0.0000 0.0000
vt 1.0000 0.1758 0.0000
# 105 texture coords

g Object013
s off
f 1/1/1 2/2/1 3/3/1 4/4/1 
f 5/5/2 6/6/2 2/7/2 1/8/2 
f 7/9/3 8/10/3 9/11/3 10/12/3 
f 11/13/4 12/14/4 13/15/4 14/16/4 
f 11/17/5 15/18/5 16/19/5 12/20/5 
f 17/21/6 18/22/6 16/19/6 15/18/6 
f 19/23/7 20/24/7 18/22/7 17/21/7 
f 21/25/8 22/26/8 20/24/8 19/23/8 
f 23/27/9 24/28/9 22/26/9 21/25/9 
f 25/29/10 26/30/10 24/28/10 23/27/10 
f 27/31/11 28/32/11 26/30/11 25/29/11 
f 29/33/11 30/34/11 28/32/11 27/31/11 
f 31/35/12 32/36/12 30/34/12 29/33/12 
f 33/37/13 34/38/13 32/36/13 31/35/13 
f 35/39/14 36/40/14 34/38/14 33/37/14 
f 37/41/15 38/42/15 36/40/15 35/39/15 
f 37/43/16 39/44/16 40/45/16 38/46/16 
f 39/44/17 41/47/17 42/48/17 40/45/17 
f 43/49/18 44/50/18 42/48/18 41/47/18 
f 45/51/19 46/52/19 44/50/19 43/49/19 
f 45/51/20 47/53/20 48/54/20 46/52/20 
f 49/55/21 50/56/21 48/54/21 47/53/21 
f 51/57/22 52/58/22 50/56/22 49/55/22 
f 4/4/23 3/3/23 52/58/23 51/57/23 
f 14/16/24 13/15/24 53/59/24 54/60/24 
f 54/60/24 53/59/24 55/61/24 56/62/24 
f 56/62/3 55/61/3 57/63/3 58/64/3 
f 58/64/3 57/63/3 59/65/3 60/66/3 
f 60/66/3 59/65/3 61/67/3 62/68/3 
f 62/68/3 61/67/3 9/11/3 8/10/3 
f 63/69/3 6/6/3 5/5/3 64/70/3 
f 65/71/3 63/69/3 64/70/3 66/72/3 
f 67/73/3 65/71/3 66/72/3 68/74/3 
f 69/75/3 67/73/3 68/74/3 70/76/3 
f 10/12/3 69/75/3 70/76/3 7/9/3 
s 1
f 49/55/25 47/53/26 70/77/26 68/78/27 
f 49/55/25 68/78/27 66/79/28 51/57/28 
f 51/57/28 66/79/28 64/80/29 4/4/29 
f 4/4/29 64/80/29 5/81/29 1/1/29 
s 2
f 71/82/30 47/53/30 45/51/31 31/83/32 
f 31/83/32 45/51/31 43/49/33 33/84/34 
f 33/84/34 43/49/33 41/47/35 35/85/36 
f 35/85/36 41/47/35 39/44/37 37/43/37 
f 15/86/38 11/87/39 14/88/39 54/89/38 
f 17/90/40 15/86/38 54/89/38 56/91/40 
f 17/90/40 56/91/40 58/92/41 19/93/41 
f 19/93/41 58/92/41 60/94/42 21/95/43 
f 21/95/43 60/94/42 62/96/44 23/97/45 
f 23/97/45 62/96/44 8/98/46 25/99/46 
f 25/99/46 8/98/46 7/100/47 27/101/47 
f 47/53/48 29/102/48 27/101/47 7/100/47 
f 47/53/48 7/100/47 70/77/48 
s off
f 72/1/49 73/4/49 74/3/49 75/2/49 
f 76/5/50 72/8/50 75/7/50 6/6/50 
f 77/9/51 10/12/51 9/11/51 78/10/51 
f 79/13/52 80/16/52 13/15/52 81/14/52 
f 82/103/53 83/18/53 79/17/53 81/104/53 
f 84/21/54 83/18/54 82/103/54 85/105/54 
f 86/23/55 84/21/55 85/22/55 87/24/55 
f 88/25/56 86/23/56 87/24/56 89/26/56 
f 90/27/57 88/25/57 89/26/57 91/28/57 
f 92/29/58 90/27/58 91/28/58 93/30/58 
f 94/31/59 92/29/59 93/30/59 95/32/59 
f 96/33/59 94/31/59 95/32/59 97/34/59 
f 98/35/60 96/33/60 97/34/60 99/36/60 
f 100/37/61 98/35/61 99/36/61 101/38/61 
f 102/39/62 100/37/62 101/38/62 103/40/62 
f 104/41/63 102/39/63 103/40/63 105/42/63 
f 106/45/64 107/44/64 104/43/64 105/46/64 
f 108/48/65 109/47/65 107/44/65 106/45/65 
f 110/49/66 109/47/66 108/48/66 111/50/66 
f 112/51/67 110/49/67 111/50/67 113/52/67 
f 114/54/68 115/53/68 112/51/68 113/52/68 
f 116/55/69 115/53/69 114/54/69 117/56/69 
f 118/57/70 116/55/70 117/56/70 119/58/70 
f 73/4/71 118/57/71 119/58/71 74/3/71 
f 80/16/72 120/60/72 53/59/72 13/15/72 
f 120/60/72 121/62/72 55/61/72 53/59/72 
f 121/62/51 122/64/51 57/63/51 55/61/51 
f 122/64/51 123/66/51 59/65/51 57/63/51 
f 123/66/51 124/68/51 61/67/51 59/65/51 
f 124/68/51 78/10/51 9/11/51 61/67/51 
f 63/69/51 125/70/51 76/5/51 6/6/51 
f 65/71/51 126/72/51 125/70/51 63/69/51 
f 67/73/51 127/74/51 126/72/51 65/71/51 
f 69/75/51 128/76/51 127/74/51 67/73/51 
f 10/12/51 77/9/51 128/76/51 69/75/51 
s 1
f 116/55/73 127/78/74 128/77/75 115/53/75 
f 116/55/73 118/57/76 126/79/76 127/78/74 
f 118/57/76 73/4/77 125/80/77 126/79/76 
f 73/4/77 72/1/77 76/81/77 125/80/77 
s 2
f 129/82/78 98/83/79 112/51/80 115/53/78 
f 98/83/79 100/84/81 110/49/82 112/51/80 
f 100/84/81 102/85/83 109/47/84 110/49/82 
f 102/85/83 104/43/85 107/44/85 109/47/84 
f 83/86/38 120/89/38 80/88/40 79/87/40 
f 84/90/39 121/91/39 120/89/38 83/86/38 
f 84/90/39 86/93/86 122/92/86 121/91/39 
f 86/93/86 88/95/87 123/94/88 122/92/86 
f 88/95/87 90/97/89 124/96/90 123/94/88 
f 90/97/89 92/99/91 78/98/91 124/96/90 
f 92/99/91 94/101/92 77/100/92 78/98/91 
f 94/101/92 96/102/93 115/53/93 77/100/92 
f 77/100/92 115/53/93 128/77/93 
# 102 polygons - 2 triangles

