# 3ds Max Wavefront OBJ Exporter v0.97b - (c)2007 guruware
# File Created: 26.02.2019 11:36:59

#
# object Ground_Pavement_LOD001
#

v  -14.9630 0.0000 32.0000
v  -8.9630 0.0000 32.0000
v  -8.9630 0.0000 16.0000
v  -14.9630 0.0000 16.0000
v  -8.9630 0.0000 -0.0000
v  -14.9630 0.0000 -0.0000
v  -8.9630 0.0000 -16.0000
v  -14.9630 0.0000 -16.0000
v  -8.9630 0.0000 -32.0000
v  -14.9630 0.0000 -32.0000
v  -5.0000 0.0000 32.0000
v  5.0000 0.0000 32.0000
v  5.0000 0.0000 16.0000
v  -5.0000 0.0000 16.0000
v  5.0000 0.0000 -0.0000
v  -5.0000 0.0000 -0.0000
v  5.0000 0.0000 -16.0000
v  -5.0000 0.0000 -16.0000
v  5.0000 0.0000 -32.0000
v  -5.0000 0.0000 -32.0000
v  8.9630 0.0000 32.0000
v  14.9630 0.0000 32.0000
v  14.9630 0.0000 16.0000
v  8.9630 0.0000 16.0000
v  14.9630 0.0000 0.0000
v  8.9630 0.0000 0.0000
v  14.9630 0.0000 -16.0000
v  8.9630 0.0000 -16.0000
v  14.9630 0.0000 -32.0000
v  8.9630 0.0000 -32.0000
# 30 vertices

vn 0.0000 1.0000 -0.0000
# 1 vertex normals

vt 0.4278 0.1358 0.0000
vt 0.9467 0.1358 0.0000
vt 0.9467 0.2500 0.0000
vt 0.4278 0.2500 0.0000
vt 0.9467 0.5000 0.0000
vt 0.4278 0.5000 0.0000
vt 0.9467 0.7500 0.0000
vt 0.4278 0.7500 0.0000
vt 0.9467 0.8677 0.0000
vt 0.4278 0.8677 0.0000
vt 0.0066 0.0001 0.0000
vt 1.0004 0.0001 0.0000
vt 1.0004 0.2500 0.0000
vt 0.0066 0.2500 0.0000
vt 1.0004 0.5000 0.0000
vt 0.0066 0.5000 0.0000
vt 1.0004 0.7500 0.0000
vt 0.0066 0.7500 0.0000
vt 1.0004 0.9999 0.0000
vt 0.0066 0.9999 0.0000
# 20 texture coords

g Ground_Pavement_LOD001
s 1
f 1/1/1 2/2/1 3/3/1 
f 3/3/1 4/4/1 1/1/1 
f 4/4/1 3/3/1 5/5/1 
f 5/5/1 6/6/1 4/4/1 
f 6/6/1 5/5/1 7/7/1 
f 7/7/1 8/8/1 6/6/1 
f 8/8/1 7/7/1 9/9/1 
f 9/9/1 10/10/1 8/8/1 
s off
f 11/11/1 12/12/1 13/13/1 
f 13/13/1 14/14/1 11/11/1 
f 14/14/1 13/13/1 15/15/1 
f 15/15/1 16/16/1 14/14/1 
f 16/16/1 15/15/1 17/17/1 
f 17/17/1 18/18/1 16/16/1 
f 18/18/1 17/17/1 19/19/1 
f 19/19/1 20/20/1 18/18/1 
s 1
f 21/1/1 22/2/1 23/3/1 
f 23/3/1 24/4/1 21/1/1 
f 24/4/1 23/3/1 25/5/1 
f 25/5/1 26/6/1 24/4/1 
f 26/6/1 25/5/1 27/7/1 
f 27/7/1 28/8/1 26/6/1 
f 28/8/1 27/7/1 29/9/1 
f 29/9/1 30/10/1 28/8/1 
# 0 polygons - 24 triangles

