# 3ds Max Wavefront OBJ Exporter v0.97b - (c)2007 guruware
# File Created: 13.02.2019 06:40:09

#
# object Ground_Station_Pavement002
#

v  4.1430 0.0500 32.0000
v  4.1430 0.0500 26.6667
v  0.0000 0.0500 26.6667
v  0.0000 0.0500 32.0000
v  4.1430 0.0500 21.3333
v  0.0000 0.0500 21.3333
v  4.1430 0.0500 16.0000
v  0.0000 0.0500 16.0000
v  4.1430 0.0500 10.6667
v  0.0000 0.0500 10.6667
v  4.1430 0.0500 5.3333
v  0.0000 0.0500 5.3333
v  4.1430 0.0500 -0.0000
v  0.0000 0.0500 -0.0000
v  4.1430 0.0500 -5.3333
v  0.0000 0.0500 -5.3333
v  4.1430 0.0500 -10.6667
v  0.0000 0.0500 -10.6667
v  4.1430 0.0500 -16.0000
v  0.0000 0.0500 -16.0000
v  4.1430 0.0500 -21.3333
v  0.0000 0.0500 -21.3333
v  4.1430 0.0500 -26.6667
v  0.0000 0.0500 -26.6667
v  4.1430 0.0500 -32.0000
v  0.0000 0.0500 -32.0000
v  15.5000 0.0500 32.0000
v  15.5000 0.0500 26.6667
v  10.1690 0.0500 26.6667
v  10.1690 0.0500 32.0000
v  15.5000 0.0500 21.3333
v  10.1690 0.0500 21.3333
v  15.5000 0.0500 16.0000
v  10.1690 0.0500 16.0000
v  15.5000 0.0500 10.6667
v  10.1690 0.0500 10.6667
v  15.5000 0.0500 5.3333
v  10.1690 0.0500 5.3333
v  15.5000 0.0500 -0.0000
v  10.1690 0.0500 -0.0000
v  15.5000 0.0500 -5.3333
v  10.1690 0.0500 -5.3333
v  15.5000 0.0500 -10.6667
v  10.1690 0.0500 -10.6667
v  15.5000 0.0500 -16.0000
v  10.1690 0.0500 -16.0000
v  15.5000 0.0500 -21.3333
v  10.1690 0.0500 -21.3333
v  15.5000 0.0500 -26.6667
v  10.1690 0.0500 -26.6667
v  15.5000 0.0500 -32.0000
v  10.1690 0.0500 -32.0000
v  -4.1430 0.0500 32.0000
v  -4.1430 0.0500 26.6667
v  -4.1430 0.0500 21.3333
v  -4.1430 0.0500 16.0000
v  -4.1430 0.0500 10.6667
v  -4.1430 0.0500 5.3333
v  -4.1430 0.0500 -0.0000
v  -4.1430 0.0500 -5.3333
v  -4.1430 0.0500 -10.6667
v  -4.1430 0.0500 -16.0000
v  -4.1430 0.0500 -21.3333
v  -4.1430 0.0500 -26.6667
v  -4.1430 0.0500 -32.0000
v  -15.5000 0.0500 32.0000
v  -10.1690 0.0500 26.6667
v  -15.5000 0.0500 26.6667
v  -10.1690 0.0500 32.0000
v  -10.1690 0.0500 21.3333
v  -15.5000 0.0500 21.3333
v  -10.1690 0.0500 16.0000
v  -15.5000 0.0500 16.0000
v  -10.1690 0.0500 10.6667
v  -15.5000 0.0500 10.6667
v  -10.1690 0.0500 5.3333
v  -15.5000 0.0500 5.3333
v  -10.1690 0.0500 -0.0000
v  -15.5000 0.0500 -0.0000
v  -10.1690 0.0500 -5.3333
v  -15.5000 0.0500 -5.3333
v  -10.1690 0.0500 -10.6667
v  -15.5000 0.0500 -10.6667
v  -10.1690 0.0500 -16.0000
v  -15.5000 0.0500 -16.0000
v  -10.1690 0.0500 -21.3333
v  -15.5000 0.0500 -21.3333
v  -10.1690 0.0500 -26.6667
v  -15.5000 0.0500 -26.6667
v  -10.1690 0.0500 -32.0000
v  -15.5000 0.0500 -32.0000
v  10.1690 0.0500 21.3334
v  4.1430 0.0500 21.3334
v  -10.1690 0.0500 21.3334
v  -4.1430 0.0500 21.3334
v  4.1430 0.0500 -21.3334
v  10.1690 0.0500 -21.3334
v  -10.1690 0.0500 -21.3334
v  -4.1430 0.0500 -21.3334
v  -10.1690 0.0500 16.0001
v  -4.1430 0.0500 16.0001
v  10.1690 0.0500 16.0001
v  4.1430 0.0500 16.0001
v  4.1430 0.0500 -16.0001
v  10.1690 0.0500 -16.0001
# 105 vertices

vn 0.0000 1.0000 -0.0000
# 1 vertex normals

vt 0.8381 0.0000 0.0000
vt 0.8381 0.0833 0.0000
vt 0.1917 0.0833 0.0000
vt 0.1917 0.0000 0.0000
vt 0.8381 0.1667 0.0000
vt 0.1917 0.1667 0.0000
vt 0.8381 0.2500 0.0000
vt 0.1917 0.2500 0.0000
vt 0.8381 0.3333 0.0000
vt 0.1917 0.3333 0.0000
vt 0.8381 0.4167 0.0000
vt 0.1917 0.4167 0.0000
vt 0.8381 0.5000 0.0000
vt 0.1917 0.5000 0.0000
vt 0.8381 0.5833 0.0000
vt 0.1917 0.5833 0.0000
vt 0.8381 0.6667 0.0000
vt 0.1917 0.6667 0.0000
vt 0.8381 0.7500 0.0000
vt 0.1917 0.7500 0.0000
vt 0.8381 0.8333 0.0000
vt 0.1917 0.8333 0.0000
vt 0.8381 0.9167 0.0000
vt 0.1917 0.9167 0.0000
vt 0.8381 1.0000 0.0000
vt 0.1917 1.0000 0.0000
vt 1.0366 0.0000 0.0000
vt 1.0366 0.0833 0.0000
vt 0.2234 0.0833 0.0000
vt 0.2234 0.0000 0.0000
vt 1.0366 0.1667 0.0000
vt 0.2234 0.1667 0.0000
vt 1.0366 0.2500 0.0000
vt 0.2234 0.2500 0.0000
vt 1.0366 0.3333 0.0000
vt 0.2234 0.3333 0.0000
vt 1.0366 0.4167 0.0000
vt 0.2234 0.4167 0.0000
vt 1.0366 0.5000 0.0000
vt 0.2234 0.5000 0.0000
vt 1.0366 0.5833 0.0000
vt 0.2234 0.5833 0.0000
vt 1.0366 0.6667 0.0000
vt 0.2234 0.6667 0.0000
vt 1.0366 0.7500 0.0000
vt 0.2234 0.7500 0.0000
vt 1.0366 0.8333 0.0000
vt 0.2234 0.8333 0.0000
vt 1.0366 0.9167 0.0000
vt 0.2234 0.9167 0.0000
vt 1.0366 1.0000 0.0000
vt 0.2234 1.0000 0.0000
vt 0.7078 0.0833 0.0000
vt 0.9929 0.0833 0.0000
vt 0.9929 0.0000 0.0000
vt 0.7078 0.0000 0.0000
vt 0.7078 1.0000 0.0000
vt 0.9929 1.0000 0.0000
vt 0.9929 0.9167 0.0000
vt 0.7078 0.9167 0.0000
# 60 texture coords

g Ground_Station_Pavement002
s 1
f 1/1/1 2/2/1 3/3/1 
f 3/3/1 4/4/1 1/1/1 
f 2/2/1 5/5/1 6/6/1 
f 6/6/1 3/3/1 2/2/1 
f 5/5/1 7/7/1 8/8/1 
f 8/8/1 6/6/1 5/5/1 
f 7/7/1 9/9/1 10/10/1 
f 10/10/1 8/8/1 7/7/1 
f 9/9/1 11/11/1 12/12/1 
f 12/12/1 10/10/1 9/9/1 
f 11/11/1 13/13/1 14/14/1 
f 14/14/1 12/12/1 11/11/1 
f 13/13/1 15/15/1 16/16/1 
f 16/16/1 14/14/1 13/13/1 
f 15/15/1 17/17/1 18/18/1 
f 18/18/1 16/16/1 15/15/1 
f 17/17/1 19/19/1 20/20/1 
f 20/20/1 18/18/1 17/17/1 
f 19/19/1 21/21/1 22/22/1 
f 22/22/1 20/20/1 19/19/1 
f 21/21/1 23/23/1 24/24/1 
f 24/24/1 22/22/1 21/21/1 
f 23/23/1 25/25/1 26/26/1 
f 26/26/1 24/24/1 23/23/1 
f 27/27/1 28/28/1 29/29/1 
f 29/29/1 30/30/1 27/27/1 
f 28/28/1 31/31/1 32/32/1 
f 32/32/1 29/29/1 28/28/1 
f 31/31/1 33/33/1 34/34/1 
f 34/34/1 32/32/1 31/31/1 
f 33/33/1 35/35/1 36/36/1 
f 36/36/1 34/34/1 33/33/1 
f 35/35/1 37/37/1 38/38/1 
f 38/38/1 36/36/1 35/35/1 
f 37/37/1 39/39/1 40/40/1 
f 40/40/1 38/38/1 37/37/1 
f 39/39/1 41/41/1 42/42/1 
f 42/42/1 40/40/1 39/39/1 
f 41/41/1 43/43/1 44/44/1 
f 44/44/1 42/42/1 41/41/1 
f 43/43/1 45/45/1 46/46/1 
f 46/46/1 44/44/1 43/43/1 
f 45/45/1 47/47/1 48/48/1 
f 48/48/1 46/46/1 45/45/1 
f 47/47/1 49/49/1 50/50/1 
f 50/50/1 48/48/1 47/47/1 
f 49/49/1 51/51/1 52/52/1 
f 52/52/1 50/50/1 49/49/1 
f 29/53/1 2/54/1 1/55/1 30/56/1 
f 52/57/1 25/58/1 23/59/1 50/60/1 
f 53/1/1 3/3/1 54/2/1 
f 3/3/1 53/1/1 4/4/1 
f 54/2/1 6/6/1 55/5/1 
f 6/6/1 54/2/1 3/3/1 
f 55/5/1 8/8/1 56/7/1 
f 8/8/1 55/5/1 6/6/1 
f 56/7/1 10/10/1 57/9/1 
f 10/10/1 56/7/1 8/8/1 
f 57/9/1 12/12/1 58/11/1 
f 12/12/1 57/9/1 10/10/1 
f 58/11/1 14/14/1 59/13/1 
f 14/14/1 58/11/1 12/12/1 
f 59/13/1 16/16/1 60/15/1 
f 16/16/1 59/13/1 14/14/1 
f 60/15/1 18/18/1 61/17/1 
f 18/18/1 60/15/1 16/16/1 
f 61/17/1 20/20/1 62/19/1 
f 20/20/1 61/17/1 18/18/1 
f 62/19/1 22/22/1 63/21/1 
f 22/22/1 62/19/1 20/20/1 
f 63/21/1 24/24/1 64/23/1 
f 24/24/1 63/21/1 22/22/1 
f 64/23/1 26/26/1 65/25/1 
f 26/26/1 64/23/1 24/24/1 
f 66/27/1 67/29/1 68/28/1 
f 67/29/1 66/27/1 69/30/1 
f 68/28/1 70/32/1 71/31/1 
f 70/32/1 68/28/1 67/29/1 
f 71/31/1 72/34/1 73/33/1 
f 72/34/1 71/31/1 70/32/1 
f 73/33/1 74/36/1 75/35/1 
f 74/36/1 73/33/1 72/34/1 
f 75/35/1 76/38/1 77/37/1 
f 76/38/1 75/35/1 74/36/1 
f 77/37/1 78/40/1 79/39/1 
f 78/40/1 77/37/1 76/38/1 
f 79/39/1 80/42/1 81/41/1 
f 80/42/1 79/39/1 78/40/1 
f 81/41/1 82/44/1 83/43/1 
f 82/44/1 81/41/1 80/42/1 
f 83/43/1 84/46/1 85/45/1 
f 84/46/1 83/43/1 82/44/1 
f 85/45/1 86/48/1 87/47/1 
f 86/48/1 85/45/1 84/46/1 
f 87/47/1 88/50/1 89/49/1 
f 88/50/1 87/47/1 86/48/1 
f 89/49/1 90/52/1 91/51/1 
f 90/52/1 89/49/1 88/50/1 
f 67/53/1 69/56/1 53/55/1 54/54/1 
f 90/57/1 88/60/1 64/59/1 65/58/1 
f 92/53/1 93/54/1 2/55/1 29/56/1 
f 94/53/1 67/56/1 54/55/1 95/54/1 
f 50/57/1 23/58/1 96/59/1 97/60/1 
f 88/57/1 98/60/1 99/59/1 64/58/1 
f 100/53/1 94/56/1 95/55/1 101/54/1 
f 102/53/1 103/54/1 93/55/1 92/56/1 
f 86/57/1 84/60/1 62/59/1 63/58/1 
f 97/57/1 96/58/1 104/59/1 105/60/1 
# 12 polygons - 96 triangles

