# 3ds Max Wavefront OBJ Exporter v0.97b - (c)2007 guruware
# File Created: 17.02.2019 09:00:15

#
# object Object015
#

v  4.9622 0.0810 -25.0844
v  5.1068 0.0628 -32.0000
v  3.6155 0.0914 -30.4204
v  3.4626 0.1107 -24.9586
v  0.0000 0.0500 -0.0000
v  1.5000 0.0791 -0.0000
v  1.5000 0.0791 -5.0833
v  -0.0000 0.0500 -5.3333
v  1.5342 0.0780 30.5000
v  0.0000 0.0500 32.0000
v  3.0000 0.0500 32.0000
v  10.7445 0.0640 -30.4951
v  9.3730 0.0350 -32.0000
v  8.6414 0.0501 -24.6896
v  10.1271 0.0773 -24.5986
v  7.8816 0.0778 -20.3683
v  9.3391 0.1053 -20.1792
v  6.0479 0.1399 -11.3318
v  7.4414 0.1686 -10.9233
v  8.5511 0.1332 -15.7599
v  7.1218 0.1055 -16.0469
v  2.5887 0.2666 3.8369
v  4.4602 0.2353 -1.1249
v  4.2654 0.2079 -4.3282
v  2.6900 0.2654 -0.7637
v  4.4475 0.1856 -10.2769
v  4.6381 0.1475 -15.4637
v  3.1356 0.1790 -15.1778
v  2.9441 0.2171 -9.9689
v  4.8135 0.1097 -20.5967
v  3.3117 0.1406 -20.3609
v  0.0000 0.0500 26.6667
v  1.5000 0.0790 25.4167
v  0.0000 0.0500 21.3333
v  1.5000 0.0790 20.3333
v  0.0000 0.0500 16.0000
v  1.5000 0.0790 15.2500
v  0.0000 0.0500 10.6667
v  1.5000 0.0791 10.1667
v  0.0000 0.0500 5.3333
v  1.5000 0.0791 5.0833
v  1.5000 0.0791 -30.5000
v  -0.0000 0.0500 -32.0000
v  -0.0000 0.0500 -26.6667
v  1.5000 0.0791 -25.4167
v  -0.0000 0.0500 -21.3333
v  1.5000 0.0791 -20.3333
v  -0.0000 0.0500 -16.0000
v  1.5000 0.0791 -15.2500
v  -0.0000 0.0500 -10.6667
v  1.5000 0.0791 -10.1667
v  4.3565 0.1968 -7.3026
v  2.8171 0.2412 -5.3663
v  13.9359 0.0781 -30.5000
v  15.5000 0.0500 -32.0000
v  6.3317 0.2039 -6.0868
v  4.9740 0.1743 -6.6167
v  3.3517 0.0508 25.8813
v  1.8475 0.0788 25.8364
v  4.2617 0.0514 20.7463
v  2.7554 0.0795 20.6418
v  5.6155 0.0521 15.6062
v  4.1141 0.0801 15.4496
v  7.2575 0.0530 10.4588
v  5.7607 0.0810 10.2731
v  8.9278 0.0349 5.3029
v  7.4393 0.0630 5.0897
v  10.6086 0.0365 0.1380
v  9.1320 0.0645 -0.0997
v  12.0507 0.0382 -5.0363
v  10.5807 0.0662 -5.2718
v  13.2255 0.0401 -10.2195
v  11.7557 0.0682 -10.4381
v  14.1419 0.0424 -15.4111
v  12.6676 0.0705 -15.5990
v  14.8127 0.0450 -20.6098
v  13.3304 0.0730 -20.7545
v  15.2496 0.0474 -25.8154
v  13.7583 0.0755 -25.9050
v  -4.9622 0.0810 -25.0844
v  -3.4626 0.1107 -24.9586
v  -3.6155 0.0914 -30.4204
v  -5.1068 0.0628 -32.0000
v  0.0000 0.0500 0.0000
v  0.0000 0.0500 -5.3333
v  -1.5000 0.0791 -5.0833
v  -1.5000 0.0791 0.0000
v  -1.5342 0.0780 30.5000
v  -3.0000 0.0500 32.0000
v  -0.0000 0.0500 32.0000
v  -10.7445 0.0640 -30.4951
v  -10.1271 0.0773 -24.5986
v  -8.6414 0.0501 -24.6896
v  -9.3730 0.0350 -32.0000
v  -9.3391 0.1053 -20.1792
v  -7.8816 0.0778 -20.3683
v  -6.0479 0.1399 -11.3318
v  -7.1218 0.1055 -16.0469
v  -8.5511 0.1332 -15.7599
v  -7.4414 0.1686 -10.9233
v  -2.5887 0.2666 3.8369
v  -4.2654 0.2079 -4.3282
v  -4.4602 0.2353 -1.1249
v  -2.6900 0.2654 -0.7637
v  -4.4475 0.1856 -10.2769
v  -2.9441 0.2171 -9.9689
v  -3.1356 0.1790 -15.1778
v  -4.6381 0.1475 -15.4637
v  -4.8135 0.1097 -20.5967
v  -3.3117 0.1406 -20.3609
v  -0.0000 0.0500 26.6667
v  -1.5000 0.0790 25.4167
v  -0.0000 0.0500 21.3333
v  -1.5000 0.0790 20.3333
v  -0.0000 0.0500 16.0000
v  -1.5000 0.0790 15.2500
v  -0.0000 0.0500 10.6667
v  -1.5000 0.0791 10.1667
v  -0.0000 0.0500 5.3333
v  -1.5000 0.0791 5.0833
v  -1.5000 0.0791 -30.5000
v  -1.5000 0.0791 -25.4167
v  0.0000 0.0500 -26.6667
v  0.0000 0.0500 -32.0000
v  -1.5000 0.0791 -20.3333
v  0.0000 0.0500 -21.3333
v  -1.5000 0.0791 -15.2500
v  0.0000 0.0500 -16.0000
v  -1.5000 0.0791 -10.1667
v  0.0000 0.0500 -10.6667
v  -2.8171 0.2412 -5.3663
v  -4.3565 0.1968 -7.3026
v  -15.5000 0.0500 -32.0000
v  -13.9359 0.0781 -30.5000
v  -6.3317 0.2039 -6.0868
v  -4.9740 0.1743 -6.6167
v  -1.8475 0.0788 25.8364
v  -3.3517 0.0508 25.8813
v  -2.7554 0.0795 20.6418
v  -4.2617 0.0514 20.7463
v  -4.1141 0.0801 15.4496
v  -5.6155 0.0521 15.6062
v  -5.7607 0.0810 10.2731
v  -7.2575 0.0530 10.4588
v  -7.4393 0.0630 5.0897
v  -8.9278 0.0349 5.3029
v  -9.1320 0.0645 -0.0997
v  -10.6086 0.0365 0.1380
v  -10.5807 0.0662 -5.2718
v  -12.0507 0.0382 -5.0363
v  -11.7557 0.0682 -10.4381
v  -13.2255 0.0401 -10.2195
v  -12.6676 0.0705 -15.5990
v  -14.1419 0.0424 -15.4111
v  -13.3304 0.0730 -20.7545
v  -14.8127 0.0450 -20.6098
v  -13.7583 0.0755 -25.9050
v  -15.2496 0.0474 -25.8154
# 158 vertices

vn 0.0180 0.9998 -0.0026
vn -0.0194 0.9998 0.0000
vn 0.0000 0.9998 0.0187
vn -0.0175 0.9998 -0.0039
vn -0.0177 0.9998 -0.0095
vn -0.0172 0.9998 -0.0112
vn -0.0051 1.0000 -0.0082
vn 0.0378 0.9993 0.0006
vn 0.0196 0.9998 -0.0066
vn 0.0195 0.9998 -0.0058
vn -0.0187 0.9998 0.0002
vn -0.0193 0.9998 0.0000
vn 0.0196 0.9998 -0.0067
vn 0.0258 0.9997 -0.0039
vn 0.0220 0.9998 -0.0040
vn -0.0033 0.9998 -0.0187
vn -0.0031 0.9998 -0.0192
vn -0.0082 0.9999 -0.0119
vn -0.0176 0.9998 -0.0095
vn -0.0173 0.9998 -0.0113
vn -0.1558 0.9878 -0.0026
vn -0.1635 0.9865 -0.0018
vn -0.1470 0.9891 -0.0035
vn -0.1259 0.9920 -0.0041
vn -0.1215 0.9926 -0.0041
vn -0.0910 0.9958 -0.0046
vn -0.0934 0.9956 -0.0045
vn -0.0617 0.9981 -0.0048
vn -0.0612 0.9981 -0.0048
vn -0.0351 0.9994 -0.0040
vn -0.0356 0.9994 -0.0040
vn -0.0182 0.9998 -0.0028
vn -0.0164 0.9999 -0.0026
vn -0.0105 0.9999 -0.0020
vn 0.0183 0.9998 0.0021
vn 0.0184 0.9998 0.0041
vn 0.0183 0.9998 0.0042
vn 0.0181 0.9998 0.0053
vn 0.0181 0.9998 0.0055
vn 0.0180 0.9998 0.0059
vn 0.0185 0.9998 0.0025
vn 0.0180 0.9998 0.0062
vn 0.0181 0.9998 0.0054
vn 0.0184 0.9998 0.0045
vn 0.0186 0.9998 0.0037
vn 0.0186 0.9998 0.0029
vn 0.0187 0.9998 0.0020
vn 0.0105 0.9999 0.0092
vn 0.0015 0.9998 0.0176
vn 0.0002 1.0000 -0.0015
vn -0.0020 1.0000 -0.0012
vn 0.0019 1.0000 -0.0018
vn 0.0072 1.0000 -0.0016
vn 0.0086 1.0000 -0.0014
vn 0.0152 0.9999 -0.0002
vn 0.0159 0.9999 -0.0001
vn 0.0231 0.9997 0.0017
vn 0.0236 0.9997 0.0018
vn 0.0300 0.9995 0.0053
vn 0.0303 0.9995 0.0055
vn 0.0348 0.9994 0.0089
vn 0.0351 0.9993 0.0090
vn 0.0369 0.9993 0.0100
vn 0.0003 1.0000 0.0002
vn 0.0002 1.0000 0.0002
vn -0.0001 1.0000 0.0001
vn -0.0003 1.0000 0.0000
vn -0.0004 1.0000 0.0000
vn -0.0183 0.9998 0.0021
vn -0.0184 0.9998 0.0041
vn -0.0183 0.9998 0.0042
vn -0.0181 0.9998 0.0053
vn -0.0181 0.9998 0.0055
vn -0.0180 0.9998 0.0059
vn -0.0185 0.9998 0.0025
vn -0.0180 0.9998 0.0062
vn -0.0181 0.9998 0.0054
vn -0.0184 0.9998 0.0045
vn -0.0186 0.9998 0.0037
vn -0.0186 0.9998 0.0029
vn -0.0187 0.9998 0.0020
vn -0.0105 0.9999 0.0092
vn -0.0015 0.9998 0.0176
vn -0.0002 1.0000 -0.0015
vn -0.0019 1.0000 -0.0018
vn 0.0020 1.0000 -0.0012
vn -0.0072 1.0000 -0.0016
vn -0.0086 1.0000 -0.0014
vn -0.0152 0.9999 -0.0002
vn -0.0159 0.9999 -0.0001
vn -0.0231 0.9997 0.0017
vn -0.0236 0.9997 0.0018
vn -0.0300 0.9995 0.0053
vn -0.0303 0.9995 0.0055
vn -0.0348 0.9994 0.0089
vn -0.0351 0.9993 0.0090
vn -0.0369 0.9993 0.0100
vn -0.0003 1.0000 0.0002
vn 0.0001 1.0000 0.0001
vn -0.0002 1.0000 0.0002
vn 0.0003 1.0000 0.0000
vn 0.0004 1.0000 0.0000
# 102 vertex normals

vt 0.3201 0.8919 0.0000
vt 0.3295 1.0000 0.0000
vt 0.2333 0.9753 0.0000
vt 0.2234 0.8900 0.0000
vt 0.8726 0.5000 0.0000
vt 0.9379 0.5000 0.0000
vt 0.9379 0.5794 0.0000
vt 0.8726 0.5833 0.0000
vt 0.9379 0.0234 0.0000
vt 0.8726 0.0000 0.0000
vt 0.9968 0.0000 0.0000
vt 0.6932 0.9765 0.0000
vt 0.6047 1.0000 0.0000
vt 0.5575 0.8858 0.0000
vt 0.6534 0.8844 0.0000
vt 0.5085 0.8183 0.0000
vt 0.6025 0.8153 0.0000
vt 0.3902 0.6771 0.0000
vt 0.4801 0.6707 0.0000
vt 0.5517 0.7462 0.0000
vt 0.4595 0.7507 0.0000
vt 0.1670 0.4400 0.0000
vt 0.2878 0.5176 0.0000
vt 0.2752 0.5676 0.0000
vt 0.1735 0.5119 0.0000
vt 0.2869 0.6606 0.0000
vt 0.2992 0.7416 0.0000
vt 0.2023 0.7372 0.0000
vt 0.1899 0.6558 0.0000
vt 0.3105 0.8218 0.0000
vt 0.2137 0.8181 0.0000
vt 0.8726 0.0833 0.0000
vt 0.9379 0.1029 0.0000
vt 0.8726 0.1667 0.0000
vt 0.9379 0.1823 0.0000
vt 0.8726 0.2500 0.0000
vt 0.9379 0.2617 0.0000
vt 0.8726 0.3333 0.0000
vt 0.9379 0.3411 0.0000
vt 0.8726 0.4167 0.0000
vt 0.9379 0.4206 0.0000
vt 0.9379 0.9766 0.0000
vt 0.8726 1.0000 0.0000
vt 0.8726 0.9167 0.0000
vt 0.9379 0.8971 0.0000
vt 0.8726 0.8333 0.0000
vt 0.9379 0.8177 0.0000
vt 0.8726 0.7500 0.0000
vt 0.9379 0.7383 0.0000
vt 0.8726 0.6667 0.0000
vt 0.9379 0.6589 0.0000
vt 0.2811 0.6141 0.0000
vt 0.1817 0.5838 0.0000
vt 0.0968 0.9766 0.0000
vt 0.0000 1.0000 0.0000
vt 0.8991 0.9766 0.0000
vt 1.0000 1.0000 0.0000
vt 0.4085 0.5951 0.0000
vt 0.3209 0.6034 0.0000
vt 0.0968 0.5000 0.0000
vt 0.0968 0.4206 0.0000
vt 0.0968 0.5794 0.0000
vt 0.0968 0.6589 0.0000
vt 0.0968 0.7383 0.0000
vt 0.0968 0.8177 0.0000
vt 0.0968 0.8971 0.0000
vt 0.9968 0.0956 0.0000
vt 0.9379 0.0963 0.0000
vt 0.9968 0.1758 0.0000
vt 0.9379 0.1775 0.0000
vt 0.9968 0.2562 0.0000
vt 0.9379 0.2586 0.0000
vt 0.9968 0.3366 0.0000
vt 0.9379 0.3395 0.0000
vt 0.9968 0.4171 0.0000
vt 0.9379 0.4205 0.0000
vt 0.9968 0.4978 0.0000
vt 0.9379 0.5016 0.0000
vt 0.9968 0.5787 0.0000
vt 0.9379 0.5824 0.0000
vt 0.9968 0.6597 0.0000
vt 0.9379 0.6631 0.0000
vt 0.9968 0.7408 0.0000
vt 0.9379 0.7437 0.0000
vt 0.9968 0.8220 0.0000
vt 0.9379 0.8243 0.0000
vt 0.9968 0.9034 0.0000
vt 0.9379 0.9048 0.0000
vt 0.9968 1.0000 0.0000
vt 0.0968 0.3411 0.0000
vt 0.3717 0.3395 0.0000
vt 0.4800 0.4205 0.0000
vt 0.8876 0.9048 0.0000
vt 0.8600 0.8243 0.0000
vt 0.8173 0.7437 0.0000
vt 0.7584 0.6631 0.0000
vt 0.6826 0.5824 0.0000
vt 0.5892 0.5016 0.0000
vt 0.0990 0.0234 0.0000
vt 0.1192 0.0963 0.0000
vt 0.0968 0.1029 0.0000
vt 0.1778 0.1775 0.0000
vt 0.0968 0.1823 0.0000
vt 0.2654 0.2586 0.0000
vt 0.0968 0.2617 0.0000
# 105 texture coords

g Object015
s off
f 1/1/1 2/2/1 3/3/1 4/4/1 
f 5/5/2 6/6/2 7/7/2 8/8/2 
f 9/9/3 10/10/3 11/11/3 
f 12/12/4 13/13/4 14/14/4 15/15/4 
f 14/14/5 16/16/5 17/17/5 15/15/5 
f 18/18/6 19/19/6 20/20/6 21/21/6 
f 22/22/7 23/23/7 24/24/7 
f 25/25/8 22/22/8 24/24/8 
f 26/26/9 27/27/9 28/28/9 29/29/9 
f 30/30/10 1/1/10 4/4/10 31/31/10 
f 32/32/11 10/10/11 9/9/11 33/33/11 
f 34/34/12 32/32/12 33/33/12 35/35/12 
f 36/36/2 34/34/2 35/35/2 37/37/2 
f 38/38/2 36/36/2 37/37/2 39/39/2 
f 40/40/2 38/38/2 39/39/2 41/41/2 
f 5/5/2 40/40/2 41/41/2 6/6/2 
f 42/42/2 43/43/2 44/44/2 45/45/2 
f 45/45/2 44/44/2 46/46/2 47/47/2 
f 47/47/2 46/46/2 48/48/2 49/49/2 
f 49/49/2 48/48/2 50/50/2 51/51/2 
f 51/51/2 50/50/2 8/8/2 7/7/2 
f 31/31/13 28/28/13 27/27/13 30/30/13 
f 24/24/14 52/52/14 53/53/14 25/25/14 
f 52/52/15 26/26/15 29/29/15 53/53/15 
s 1
f 42/54/16 3/3/16 2/2/16 43/55/16 
f 13/13/17 12/12/17 54/56/17 55/57/17 
s off
f 56/58/18 57/59/18 24/24/18 23/23/18 
f 16/16/19 21/21/19 20/20/19 17/17/19 
f 57/59/20 56/58/20 19/19/20 18/18/20 
s 4
f 6/60/21 41/61/22 22/22/22 25/25/23 
f 7/62/24 6/60/21 25/25/23 53/53/25 
f 51/63/26 7/62/24 53/53/25 29/29/27 
f 51/63/26 29/29/27 28/28/28 49/64/29 
f 28/28/28 31/31/30 47/65/31 49/64/29 
f 47/65/31 31/31/30 4/4/32 45/66/33 
f 45/66/33 4/4/32 3/3/34 42/54/34 
s off
f 9/9/35 11/11/33 58/67/32 59/68/34 
f 58/67/36 60/69/35 61/70/34 59/68/37 
f 60/69/38 62/71/36 63/72/37 61/70/39 
f 62/71/40 64/73/38 65/74/39 63/72/40 
f 64/73/41 66/75/41 67/76/41 65/74/41 
f 66/75/42 68/77/42 69/78/42 67/76/42 
f 68/77/43 70/79/43 71/80/43 69/78/43 
f 70/79/44 72/81/44 73/82/44 71/80/44 
f 72/81/45 74/83/45 75/84/45 73/82/45 
f 74/83/46 76/85/46 77/86/46 75/84/46 
f 76/85/47 78/87/47 79/88/47 77/86/47 
f 78/87/48 55/89/48 54/42/48 79/88/48 
f 22/22/48 41/61/48 39/90/49 65/91/49 
f 67/92/48 22/22/48 65/91/49 
s 2
f 79/93/50 54/56/51 12/12/51 15/15/52 
f 77/94/53 79/93/50 15/15/52 17/17/54 
f 75/95/55 77/94/53 17/17/54 20/20/56 
f 73/96/57 75/95/55 20/20/56 19/19/58 
f 71/97/59 73/96/57 19/19/58 56/58/60 
f 69/98/61 71/97/59 56/58/60 23/23/62 
f 67/92/63 69/98/61 23/23/62 22/22/63 
s 1
f 9/99/64 59/100/65 33/101/66 
f 33/101/66 59/100/65 61/102/67 35/103/67 
f 35/103/67 61/102/67 63/104/68 37/105/68 
f 39/90/68 37/105/68 63/104/68 65/91/68 
s off
f 80/1/1 81/4/1 82/3/1 83/2/1 
f 84/5/2 85/8/2 86/7/2 87/6/2 
f 88/9/3 89/11/3 90/10/3 
f 91/12/4 92/15/4 93/14/4 94/13/4 
f 93/14/5 92/15/5 95/17/5 96/16/5 
f 97/18/6 98/21/6 99/20/6 100/19/6 
f 101/22/7 102/24/7 103/23/7 
f 104/25/8 102/24/8 101/22/8 
f 105/26/9 106/29/9 107/28/9 108/27/9 
f 109/30/10 110/31/10 81/4/10 80/1/10 
f 111/32/11 112/33/11 88/9/11 90/10/11 
f 113/34/12 114/35/12 112/33/12 111/32/12 
f 115/36/2 116/37/2 114/35/2 113/34/2 
f 117/38/2 118/39/2 116/37/2 115/36/2 
f 119/40/2 120/41/2 118/39/2 117/38/2 
f 84/5/2 87/6/2 120/41/2 119/40/2 
f 121/42/2 122/45/2 123/44/2 124/43/2 
f 122/45/2 125/47/2 126/46/2 123/44/2 
f 125/47/2 127/49/2 128/48/2 126/46/2 
f 127/49/2 129/51/2 130/50/2 128/48/2 
f 129/51/2 86/7/2 85/8/2 130/50/2 
f 110/31/13 109/30/13 108/27/13 107/28/13 
f 102/24/14 104/25/14 131/53/14 132/52/14 
f 132/52/15 131/53/15 106/29/15 105/26/15 
s 1
f 121/54/16 124/55/16 83/2/16 82/3/16 
f 94/13/17 133/57/17 134/56/17 91/12/17 
s off
f 135/58/18 103/23/18 102/24/18 136/59/18 
f 96/16/19 95/17/19 99/20/19 98/21/19 
f 136/59/20 97/18/20 100/19/20 135/58/20 
s 4
f 87/60/21 104/25/23 101/22/22 120/61/22 
f 86/62/24 131/53/25 104/25/23 87/60/21 
f 129/63/26 106/29/27 131/53/25 86/62/24 
f 129/63/26 127/64/29 107/28/28 106/29/27 
f 107/28/28 127/64/29 125/65/31 110/31/30 
f 125/65/31 122/66/33 81/4/32 110/31/30 
f 122/66/33 121/54/34 82/3/34 81/4/32 
s off
f 88/9/69 137/68/34 138/67/32 89/11/33 
f 138/67/70 137/68/71 139/70/34 140/69/69 
f 140/69/72 139/70/73 141/72/71 142/71/70 
f 142/71/74 141/72/74 143/74/73 144/73/72 
f 144/73/75 143/74/75 145/76/75 146/75/75 
f 146/75/76 145/76/76 147/78/76 148/77/76 
f 148/77/77 147/78/77 149/80/77 150/79/77 
f 150/79/78 149/80/78 151/82/78 152/81/78 
f 152/81/79 151/82/79 153/84/79 154/83/79 
f 154/83/80 153/84/80 155/86/80 156/85/80 
f 156/85/81 155/86/81 157/88/81 158/87/81 
f 158/87/82 157/88/82 134/42/82 133/89/82 
f 118/90/83 120/61/82 101/22/82 143/91/83 
f 145/92/82 143/91/83 101/22/82 
s 2
f 157/93/84 92/15/85 91/12/86 134/56/86 
f 155/94/87 95/17/88 92/15/85 157/93/84 
f 153/95/89 99/20/90 95/17/88 155/94/87 
f 151/96/91 100/19/92 99/20/90 153/95/89 
f 149/97/93 135/58/94 100/19/92 151/96/91 
f 147/98/95 103/23/96 135/58/94 149/97/93 
f 145/92/97 101/22/97 103/23/96 147/98/95 
s 1
f 88/99/98 112/101/99 137/100/100 
f 112/101/99 114/103/101 139/102/101 137/100/100 
f 114/103/101 116/105/102 141/104/102 139/102/101 
f 118/90/102 143/91/102 141/104/102 116/105/102 
# 112 polygons - 10 triangles

