# 3ds Max Wavefront OBJ Exporter v0.97b - (c)2007 guruware
# File Created: 07.02.2019 18:25:13

#
# object Elevated_LevelCrossing_Pavement001
#

v  0.0048 0.2000 -0.0000
v  0.0068 0.2000 -5.3333
v  -13.5000 -0.1500 -5.3333
v  -13.5000 -0.1500 -0.0000
v  16.0000 -0.6500 0.0000
v  16.0000 -0.6500 -5.3333
v  13.5000 -0.1500 -5.3333
v  13.5000 -0.1500 0.0000
v  -15.9999 -0.6500 -0.0000
v  -15.9999 -0.6500 5.3333
v  -13.5000 -0.1500 5.3333
v  -0.0070 0.2000 32.0000
v  -0.0050 0.2000 26.6667
v  -13.5000 -0.1500 26.6667
v  -13.5000 -0.1500 32.0000
v  -0.0030 0.2000 21.3333
v  -13.5000 -0.1500 21.3333
v  -0.0010 0.2000 16.0000
v  -13.5000 -0.1500 16.0000
v  0.0008 0.2000 10.6667
v  -13.5000 -0.1500 10.6667
v  0.0028 0.2000 5.3333
v  -13.5000 -0.1500 -21.3333
v  -13.5000 -0.1500 -16.0000
v  0.0106 0.2000 -16.0000
v  0.0126 0.2000 -21.3333
v  -13.5000 -0.1500 -10.6667
v  0.0088 0.2000 -10.6667
v  16.0000 -0.6500 32.0000
v  16.0000 -0.6500 26.6667
v  13.5000 -0.1500 26.6667
v  13.5000 -0.1500 32.0000
v  16.0000 -0.6500 21.3333
v  13.5000 -0.1500 21.3333
v  16.0000 -0.6500 16.0000
v  13.5000 -0.1500 16.0000
v  16.0000 -0.6500 10.6667
v  13.5000 -0.1500 10.6667
v  16.0000 -0.6500 5.3333
v  13.5000 -0.1500 5.3333
v  13.5000 -0.1500 -21.3333
v  13.5000 -0.1500 -16.0000
v  16.0000 -0.6500 -16.0000
v  16.0000 -0.6500 -21.3333
v  13.5000 -0.1500 -10.6667
v  16.0000 -0.6500 -10.6667
v  -15.9999 -0.6500 -16.0000
v  -16.0006 -0.6500 -21.3333
v  -15.9078 -0.6500 -21.3333
v  -15.9999 -0.6500 -10.6667
v  -15.9999 -0.6500 -5.3333
v  -15.9999 -0.6500 26.6667
v  -15.9999 -0.6500 32.0000
v  -15.9999 -0.6500 21.3333
v  -15.9999 -0.6500 16.0000
v  -15.9999 -0.6500 10.6667
v  -0.6006 -0.3000 -21.3333
v  0.5906 -0.3000 -21.3333
v  -0.0025 -0.3002 -21.3334
v  -14.8679 -0.6500 -21.3333
v  -4.3199 -0.3000 -21.3333
v  -3.7666 -0.3000 -21.3333
v  -3.2079 -0.3000 -21.3333
v  -2.6630 -0.3000 -21.3333
v  -1.1318 -0.3000 -21.3333
v  1.1218 -0.3000 -21.3333
v  1.6530 -0.3000 -21.3333
v  3.1979 -0.3000 -21.3333
v  3.7566 -0.3000 -21.3333
v  4.3099 -0.3000 -21.3333
v  14.8580 -0.6500 -21.3333
v  15.3978 -0.6500 -21.3333
v  -13.5000 -0.1500 -26.6667
v  0.0088 0.2000 -26.6667
v  0.0106 0.2000 -32.0000
v  -13.5000 -0.1500 -32.0000
v  0.0068 0.2000 -21.3333
v  13.5000 -0.1500 -32.0000
v  13.5000 -0.1500 -26.6667
v  16.0000 -0.6500 -26.6667
v  16.0000 -0.6500 -32.0000
v  -15.9999 -0.6500 -32.0000
v  -15.9999 -0.6500 -26.6667
v  -15.9999 -0.6500 -21.3333
# 84 vertices

vn 0.0000 1.0000 -0.0000
vn -0.0985 0.9951 -0.0000
vn 0.1961 0.9806 -0.0000
vn 0.0985 0.9951 -0.0000
vn -0.1961 0.9806 -0.0000
vn -0.0985 0.9951 -0.0024
vn -0.1945 0.9729 -0.1246
vn 0.0000 0.0000 -1.0000
vn 0.0000 0.0002 -1.0000
vn 0.1199 0.9928 -0.0000
vn -0.0088 1.0000 -0.0000
vn -0.0665 0.9978 -0.0000
vn 0.0259 0.9997 0.0000
# 13 vertex normals

vt 0.7423 0.9711 0.0000
vt 0.7422 0.7230 0.0000
vt 0.3911 0.7230 0.0000
vt 0.3911 0.9711 0.0000
vt 0.1761 0.9943 0.0000
vt 0.1761 0.7460 0.0000
vt 0.4224 0.7460 0.0000
vt 0.4224 0.9943 0.0000
vt 0.1745 0.0016 0.0000
vt 0.1745 0.2498 0.0000
vt 0.4208 0.2498 0.0000
vt 0.4208 0.0016 0.0000
vt 0.7429 1.0000 0.0000
vt 0.7428 0.9002 0.0000
vt 0.3911 0.9002 0.0000
vt 0.3911 1.0000 0.0000
vt 0.7427 0.8003 0.0000
vt 0.3911 0.8003 0.0000
vt 0.7411 0.9631 0.0000
vt 0.7410 0.7150 0.0000
vt 0.3894 0.7150 0.0000
vt 0.3894 0.9631 0.0000
vt 0.7410 0.7873 0.0000
vt 0.7409 0.5392 0.0000
vt 0.3894 0.5392 0.0000
vt 0.3894 0.7873 0.0000
vt 0.7409 0.4722 0.0000
vt 0.7408 0.2238 0.0000
vt 0.3894 0.2238 0.0000
vt 0.3894 0.4722 0.0000
vt 0.3894 0.2908 0.0000
vt 0.7408 0.2908 0.0000
vt 0.7407 0.0427 0.0000
vt 0.3894 0.0427 0.0000
vt 0.3911 0.0025 0.0000
vt 0.3911 0.2506 0.0000
vt 0.7420 0.2506 0.0000
vt 0.7419 0.0025 0.0000
vt 0.3911 0.4987 0.0000
vt 0.7421 0.4987 0.0000
vt 0.3911 0.7471 0.0000
vt 0.7422 0.7471 0.0000
vt 0.1761 1.0000 0.0000
vt 0.1761 0.9001 0.0000
vt 0.4224 0.9001 0.0000
vt 0.4224 1.0000 0.0000
vt 0.1761 0.8001 0.0000
vt 0.4224 0.8001 0.0000
vt 0.1745 0.9949 0.0000
vt 0.1745 0.7466 0.0000
vt 0.4208 0.7466 0.0000
vt 0.4208 0.9949 0.0000
vt 0.1745 0.4984 0.0000
vt 0.4208 0.4984 0.0000
vt 0.4224 0.0009 0.0000
vt 0.4224 0.2492 0.0000
vt 0.1761 0.2492 0.0000
vt 0.1761 0.0009 0.0000
vt 0.4224 0.4975 0.0000
vt 0.1761 0.4975 0.0000
vt 0.1849 0.0009 0.0000
vt 0.3891 0.9002 0.0000
vt 0.7440 0.9002 0.0000
vt 0.7441 1.0000 0.0000
vt 0.3891 1.0000 0.0000
vt 0.3891 0.8003 0.0000
vt 0.7439 0.8003 0.0000
vt 0.3875 0.7150 0.0000
vt 0.7422 0.7150 0.0000
vt 0.7423 0.9631 0.0000
vt 0.3875 0.9631 0.0000
vt 0.3875 0.5392 0.0000
vt 0.7421 0.5392 0.0000
vt 0.7422 0.7873 0.0000
vt 0.3875 0.7873 0.0000
vt 0.3875 0.2238 0.0000
vt 0.7420 0.2238 0.0000
vt 0.7421 0.4722 0.0000
vt 0.3875 0.4722 0.0000
vt 0.3875 0.0427 0.0000
vt 0.7419 0.0427 0.0000
vt 0.7420 0.2908 0.0000
vt 0.3875 0.2908 0.0000
vt 0.3891 0.7242 0.0000
vt 0.7434 0.7242 0.0000
vt 0.7435 0.9711 0.0000
vt 0.3891 0.9711 0.0000
vt 0.3891 0.4999 0.0000
vt 0.7433 0.4999 0.0000
vt 0.7434 0.7483 0.0000
vt 0.3891 0.7483 0.0000
vt 0.3891 0.2506 0.0000
vt 0.7432 0.2506 0.0000
vt 0.3891 0.0025 0.0000
vt 0.7431 0.0025 0.0000
vt 0.9782 0.0833 0.0000
vt 0.3928 0.1667 0.0000
vt 0.8451 0.0833 0.0000
vt 0.9166 0.0833 0.0000
vt 0.9315 0.0833 0.0000
vt 0.8642 0.0833 0.0000
vt 0.9301 0.0833 0.0000
vt 0.8577 0.0833 0.0000
vt 0.9212 0.0833 0.0000
vt 0.8222 0.1667 0.0000
vt 0.5018 0.1667 0.0000
vt 0.8237 0.1667 0.0000
vt 0.6088 0.1667 0.0000
vt 0.3923 0.4980 0.0000
vt 0.9581 0.4980 0.0000
vt 0.9579 0.0267 0.0000
vt 0.3923 0.0267 0.0000
vt 0.3923 0.9699 0.0000
vt 0.9583 0.9699 0.0000
vt 0.3891 0.5003 0.0000
vt 0.9600 0.5003 0.0000
vt 0.9602 0.9722 0.0000
vt 0.3891 0.9722 0.0000
vt 0.3891 0.0267 0.0000
vt 0.9599 0.0267 0.0000
# 120 texture coords

g Elevated_LevelCrossing_Pavement001
s 1
f 1/1/1 2/2/1 3/3/2 4/4/2 
f 5/5/3 6/6/3 7/7/4 8/8/4 
f 9/9/5 10/10/5 11/11/2 4/12/2 
f 12/13/1 13/14/1 14/15/2 15/16/2 
f 13/14/1 16/17/1 17/18/2 14/15/2 
f 16/19/1 18/20/1 19/21/2 17/22/2 
f 18/23/1 20/24/1 21/25/2 19/26/2 
f 20/27/1 22/28/1 11/29/2 21/30/2 
f 11/31/2 22/32/1 1/33/1 4/34/2 
f 23/35/6 24/36/2 25/37/1 26/38/1 
f 27/39/2 28/40/1 25/37/1 24/36/2 
f 3/41/2 2/42/1 28/40/1 27/39/2 
f 29/43/3 30/44/3 31/45/4 32/46/4 
f 30/44/3 33/47/3 34/48/4 31/45/4 
f 33/49/3 35/50/3 36/51/4 34/52/4 
f 35/50/3 37/53/3 38/54/4 36/51/4 
f 37/53/3 39/10/3 40/11/4 38/54/4 
f 39/10/3 5/9/3 8/12/4 40/11/4 
f 41/55/4 42/56/4 43/57/3 44/58/3 
f 42/56/4 45/59/4 46/60/3 43/57/3 
f 45/59/4 7/7/4 6/6/3 46/60/3 
f 24/56/2 23/55/6 47/57/5 
f 48/58/7 47/57/5 23/55/6 49/61/8 
f 47/57/5 50/60/5 27/59/2 24/56/2 
f 50/60/5 51/6/5 3/7/2 27/59/2 
f 51/6/5 9/5/5 4/8/2 3/7/2 
f 15/46/2 14/45/2 52/44/5 53/43/5 
f 14/45/2 17/48/2 54/47/5 52/44/5 
f 17/52/2 19/51/2 55/50/5 54/49/5 
f 19/51/2 21/54/2 56/53/5 55/50/5 
f 21/54/2 11/11/2 10/10/5 56/53/5 
f 31/62/4 13/63/1 12/64/1 32/65/4 
f 34/66/4 16/67/1 13/63/1 31/62/4 
f 36/68/4 18/69/1 16/70/1 34/71/4 
f 38/72/4 20/73/1 18/74/1 36/75/4 
f 40/76/4 22/77/1 20/78/1 38/79/4 
f 8/80/4 1/81/1 22/82/1 40/83/4 
f 7/84/4 2/85/1 1/86/1 8/87/4 
f 45/88/4 28/89/1 2/90/1 7/91/4 
f 42/92/4 25/93/1 28/89/1 45/88/4 
f 41/94/4 26/95/1 25/93/1 42/92/4 
s off
f 57/96/9 23/97/9 58/96/9 59/96/9 
f 60/98/8 49/99/8 23/97/8 
f 61/100/8 60/98/8 23/97/8 62/101/8 
f 63/102/8 62/101/8 23/97/8 64/103/8 
f 65/104/8 64/103/8 23/97/8 57/96/8 
f 66/104/8 58/96/8 23/97/8 67/103/8 
f 68/102/8 67/103/8 23/97/8 
f 69/101/8 68/102/8 23/97/8 70/100/8 
f 71/98/8 70/100/8 23/97/8 72/99/8 
f 72/105/8 23/97/8 26/106/8 44/107/8 
f 44/107/8 26/106/8 41/108/8 
s 1
f 73/109/1 74/110/10 75/111/1 76/112/10 
f 23/113/1 77/114/11 74/110/1 73/109/1 
f 78/56/1 79/59/10 80/60/10 81/57/10 
f 79/59/10 41/7/10 44/6/11 80/60/12 
f 82/57/1 83/60/12 73/59/1 76/56/1 
f 83/60/11 84/6/5 23/7/1 73/59/12 
f 79/115/1 74/116/10 77/117/1 41/118/1 
f 78/119/1 75/120/13 74/116/1 79/115/1 
# 56 polygons - 4 triangles

