# 3ds Max Wavefront OBJ Exporter v0.97b - (c)2007 guruware
# File Created: 26.02.2019 10:08:12

#
# object Object011
#

v  -3.3792 0.2078 -16.0024
v  0.6110 0.2078 -16.0024
v  1.9058 0.2252 -0.0105
v  -2.0823 0.2252 -0.0099
v  -4.0000 0.2000 -32.0000
v  -0.0000 0.2000 -32.0000
v  -0.7383 0.2424 15.9885
v  3.2463 0.2425 15.9855
v  4.0000 0.2500 32.0000
v  0.0000 0.2500 32.0000
v  3.3932 0.2078 -16.0000
v  2.1387 0.2250 -0.0000
v  -1.8458 0.2250 -0.0000
v  -0.5970 0.2078 -16.0000
v  4.0000 0.2000 -32.0000
v  0.0000 0.2000 -32.0000
v  0.8044 0.2422 16.0000
v  -4.0000 0.2500 32.0000
v  -3.1632 0.2422 16.0000
v  -0.0111 0.2078 -16.0000
v  -0.0909 0.2250 -0.0000
v  -4.0838 0.2250 -0.0000
v  -4.0012 0.2078 -16.0000
v  -0.1216 0.2422 16.0000
v  -4.1215 0.2422 16.0000
v  0.0111 0.2078 -16.0000
v  4.0012 0.2078 -16.0000
v  4.0838 0.2250 -0.0000
v  0.0909 0.2250 -0.0000
v  0.1216 0.2422 16.0000
v  4.1215 0.2422 16.0000
v  11.7733 0.2078 -16.0000
v  6.9171 0.2250 -0.0000
v  2.9333 0.2250 -0.0000
v  7.7833 0.2078 -16.0000
v  13.9630 0.2000 -32.0000
v  9.9630 0.2000 -32.0000
v  2.0937 0.2422 16.0000
v  -1.8726 0.2422 16.0000
v  8.4040 0.2078 -16.0000
v  12.3940 0.2078 -16.0000
v  8.9625 0.2250 -0.0000
v  4.9697 0.2250 -0.0000
v  1.5400 0.2422 16.0000
v  5.5401 0.2422 16.0000
v  -11.7594 0.2078 -16.0024
v  -7.7694 0.2078 -16.0024
v  -2.8721 0.2252 -0.0105
v  -6.8596 0.2252 -0.0099
v  -13.9630 0.2000 -32.0000
v  -9.9630 0.2000 -32.0000
v  -2.0265 0.2424 15.9885
v  1.9571 0.2425 15.9855
v  -8.4040 0.2078 -16.0000
v  -4.9697 0.2250 -0.0000
v  -8.9625 0.2250 -0.0000
v  -12.3940 0.2078 -16.0000
v  -1.5400 0.2422 16.0000
v  -5.5401 0.2422 16.0000
# 59 vertices

vn 0.0000 1.0000 -0.0008
vn 0.0000 1.0000 -0.0011
vn 0.0000 1.0000 -0.0005
vn 0.0000 1.0000 -0.0007
vn -0.0000 1.0000 -0.0007
vn -0.0000 1.0000 -0.0008
vn -0.0000 1.0000 -0.0011
vn -0.0000 1.0000 -0.0005
# 8 vertex normals

vt 0.5000 0.2500 0.0000
vt 0.0000 0.2500 0.0000
vt 0.0000 0.5000 0.0000
vt 0.5000 0.5000 0.0000
vt 0.5000 0.0000 0.0000
vt 0.0000 0.0000 0.0000
vt 0.5000 0.7500 0.0000
vt 0.0000 0.7500 0.0000
vt 0.0000 1.0000 0.0000
vt 0.5000 1.0000 0.0000
# 10 texture coords

g Object011
s 1
f 4/4/2 3/3/2 2/2/1 1/1/1 
f 1/1/1 2/2/1 6/6/3 5/5/3 
f 10/10/3 9/9/3 8/8/1 7/7/1 
f 3/3/2 4/4/2 7/7/1 8/8/1 
f 14/2/1 13/3/2 12/4/2 11/1/1 
f 16/6/3 14/2/1 11/1/1 15/5/3 
f 19/8/1 18/9/3 10/10/3 17/7/1 
f 17/7/1 12/4/2 13/3/2 19/8/1 
f 23/2/1 22/3/2 21/4/2 20/1/1 
f 5/6/3 23/2/1 20/1/1 6/5/3 
f 25/8/1 18/9/3 10/10/3 24/7/1 
f 24/7/1 21/4/2 22/3/2 25/8/1 
f 29/4/2 28/3/2 27/2/1 26/1/1 
f 26/1/1 27/2/1 15/6/3 16/5/3 
f 10/10/3 9/9/3 31/8/1 30/7/1 
f 28/3/2 29/4/2 30/7/1 31/8/1 
f 35/2/1 34/3/2 33/4/2 32/1/4 
f 37/6/3 35/2/1 32/1/4 36/5/3 
f 39/8/4 18/9/3 10/10/3 38/7/1 
f 38/7/1 33/4/2 34/3/2 39/8/4 
f 43/4/2 42/3/2 41/2/1 40/1/1 
f 40/1/1 41/2/1 36/6/3 37/5/3 
f 10/10/3 9/9/3 45/8/1 44/7/1 
f 42/3/2 43/4/2 44/7/1 45/8/1 
f 49/4/7 48/3/7 47/2/6 46/1/5 
f 46/1/5 47/2/6 51/6/3 50/5/3 
f 10/10/8 9/9/8 53/8/5 52/7/6 
f 48/3/7 49/4/7 52/7/6 53/8/5 
f 57/2/1 56/3/2 55/4/2 54/1/1 
f 50/6/3 57/2/1 54/1/1 51/5/3 
f 59/8/1 18/9/3 10/10/3 58/7/1 
f 58/7/1 55/4/2 56/3/2 59/8/1 
# 32 polygons

