# 3ds Max Wavefront OBJ Exporter v0.97b - (c)2007 guruware
# File Created: 26.02.2019 10:08:56

#
# object Object011
#

v  3.7013 0.2078 -16.0000
v  3.1351 0.2250 -0.0000
v  -0.8494 0.2250 -0.0000
v  -0.2889 0.2078 -16.0000
v  4.0000 0.2000 -32.0000
v  0.0000 0.2000 -32.0000
v  2.4912 0.2422 16.0000
v  2.0000 0.2500 32.0000
v  -2.0000 0.2500 32.0000
v  -1.4765 0.2422 16.0000
v  0.3014 0.2078 -16.0000
v  0.9090 0.2250 -0.0000
v  -3.0839 0.2250 -0.0000
v  -3.6887 0.2078 -16.0000
v  -0.0000 0.2000 -32.0000
v  -4.0000 0.2000 -32.0000
v  1.5658 0.2422 16.0000
v  -2.4340 0.2422 16.0000
v  12.0325 0.2078 -16.0000
v  7.8774 0.2250 -0.0000
v  3.8936 0.2250 -0.0000
v  8.0426 0.2078 -16.0000
v  13.9630 0.2000 -32.0000
v  9.9630 0.2000 -32.0000
v  3.7764 0.2422 16.0000
v  -0.1901 0.2422 16.0000
v  -8.1193 0.2078 -16.0000
v  -3.9902 0.2250 -0.0000
v  -7.9829 0.2250 -0.0000
v  -12.1091 0.2078 -16.0000
v  -9.9630 0.2000 -32.0000
v  -13.9630 0.2000 -32.0000
v  0.1449 0.2422 16.0000
v  -3.8552 0.2422 16.0000
# 34 vertices

vn 0.0000 1.0000 -0.0008
vn 0.0000 1.0000 -0.0011
vn 0.0000 1.0000 -0.0005
vn 0.0000 1.0000 -0.0007
# 4 vertex normals

vt 0.5000 0.2500 0.0000
vt 0.5000 0.5000 0.0000
vt 0.0000 0.5000 0.0000
vt 0.0000 0.2500 0.0000
vt 0.5000 0.0000 0.0000
vt 0.0000 0.0000 0.0000
vt 0.5000 0.7500 0.0000
vt 0.5000 1.0000 0.0000
vt 0.0000 1.0000 0.0000
vt 0.0000 0.7500 0.0000
# 10 texture coords

g Object011
s 1
f 4/4/1 3/3/2 2/2/2 1/1/1 
f 6/6/3 4/4/1 1/1/1 5/5/3 
f 10/10/1 9/9/3 8/8/3 7/7/1 
f 7/7/1 2/2/2 3/3/2 10/10/1 
f 14/4/1 13/3/2 12/2/2 11/1/1 
f 16/6/3 14/4/1 11/1/1 15/5/3 
f 18/10/1 9/9/3 8/8/3 17/7/1 
f 17/7/1 12/2/2 13/3/2 18/10/1 
f 22/4/1 21/3/2 20/2/2 19/1/4 
f 24/6/3 22/4/1 19/1/4 23/5/3 
f 26/10/4 9/9/3 8/8/3 25/7/1 
f 25/7/1 20/2/2 21/3/2 26/10/4 
f 30/4/4 29/3/2 28/2/2 27/1/1 
f 32/6/3 30/4/4 27/1/1 31/5/3 
f 34/10/1 9/9/3 8/8/3 33/7/4 
f 33/7/4 28/2/2 29/3/2 34/10/1 
# 16 polygons

