# 3ds Max Wavefront OBJ Exporter v0.97b - (c)2007 guruware
# File Created: 26.02.2019 11:32:08

#
# object Plane02_005
#

v  4.0000 0.1500 -0.0000
v  -4.0000 0.1500 -0.0000
v  4.0000 0.1500 16.0000
v  -4.0000 0.1500 -16.0000
v  -4.0000 0.1500 16.0000
v  4.0000 0.1500 32.0000
v  -4.0000 0.1500 32.0000
v  4.0000 0.1500 -16.0000
v  -4.0000 0.1500 -32.0000
v  4.0000 0.1500 -32.0000
v  13.9630 0.1250 -0.0000
v  13.9630 0.1078 -16.0000
v  9.9630 0.1078 -16.0000
v  9.9630 0.1250 -0.0000
v  13.9630 0.1000 -32.0000
v  9.9630 0.1000 -32.0000
v  13.9630 0.1500 32.0000
v  13.9630 0.1422 16.0000
v  9.9630 0.1422 16.0000
v  9.9630 0.1500 32.0000
v  -9.9630 0.1250 -0.0000
v  -9.9630 0.1078 -16.0000
v  -13.9630 0.1078 -16.0000
v  -13.9630 0.1250 -0.0000
v  -9.9630 0.1000 -32.0000
v  -13.9630 0.1000 -32.0000
v  -9.9630 0.1500 32.0000
v  -9.9630 0.1422 16.0000
v  -13.9630 0.1422 16.0000
v  -13.9630 0.1500 32.0000
# 30 vertices

vn 0.0000 1.0000 -0.0000
vn 0.0000 1.0000 -0.0011
vn 0.0000 1.0000 -0.0008
vn 0.0000 1.0000 -0.0005
# 4 vertex normals

vt 0.0000 0.5000 0.0000
vt 1.0000 0.5000 0.0000
vt 0.0000 0.2500 0.0000
vt 1.0000 0.7500 0.0000
vt 1.0000 0.2500 0.0000
vt 0.0000 0.0000 0.0000
vt 1.0000 0.0000 0.0000
vt 0.0000 0.7500 0.0000
vt 1.0000 1.0000 0.0000
vt 0.0000 1.0000 0.0000
vt 0.5000 0.2500 0.0000
vt 0.5000 0.5000 0.0000
vt 0.5000 0.0000 0.0000
vt 0.5000 0.7500 0.0000
vt 0.5000 1.0000 0.0000
# 15 texture coords

g Plane02_005
s 1
f 1/1/1 2/2/1 3/3/1 
f 2/2/1 1/1/1 4/4/1 
f 3/3/1 2/2/1 5/5/1 
f 3/3/1 5/5/1 6/6/1 
f 7/7/1 6/6/1 5/5/1 
f 8/8/1 4/4/1 1/1/1 
f 8/8/1 9/9/1 4/4/1 
f 10/10/1 9/9/1 8/8/1 
f 11/1/2 12/3/3 13/11/3 14/12/2 
f 12/3/3 15/6/4 16/13/4 13/11/3 
f 17/10/4 18/8/3 19/14/3 20/15/4 
f 14/12/2 19/14/3 18/8/3 11/1/2 
f 21/1/2 22/3/3 23/11/3 24/12/2 
f 22/3/3 25/6/4 26/13/4 23/11/3 
f 27/10/4 28/8/3 29/14/3 30/15/4 
f 24/12/2 29/14/3 28/8/3 21/1/2 
# 8 polygons - 8 triangles

