# 3ds Max Wavefront OBJ Exporter v0.97b - (c)2007 guruware
# File Created: 27.07.2017 02:12:25

#
# object Box004
#

v  -5.1546 -2.2500 0.2332
v  -5.1546 -2.2250 16.2316
v  -5.1546 0.0250 16.2316
v  -5.1546 0.0000 0.2332
v  -5.3622 0.0250 16.2285
v  -6.8623 0.0250 16.2285
v  -6.8623 0.0500 32.2269
v  -5.3622 0.0500 32.2269
v  0.1378 -2.2500 -15.7684
v  -5.1546 -2.2500 -15.7684
v  -5.1546 -2.2500 -31.7700
v  0.1378 -2.2500 -31.7700
v  0.1378 -2.2250 16.2316
v  0.1378 -2.2500 0.2332
v  5.4302 -2.2500 0.2332
v  5.4302 -2.2500 -15.7684
v  5.4302 0.0000 -15.7684
v  5.4302 0.0000 0.2332
v  5.4302 -2.2000 32.2300
v  5.4302 -2.2250 16.2316
v  5.4302 0.0250 16.2316
v  5.4302 0.0500 32.2300
v  -5.1546 0.0000 -15.7684
v  5.6378 0.0000 -15.7715
v  7.1379 0.0000 -15.7715
v  7.1379 0.0000 -31.7731
v  5.6378 0.0000 -31.7731
v  5.6378 0.0250 16.2285
v  0.1378 0.0250 16.2285
v  0.1378 0.0500 32.2269
v  5.6378 0.0500 32.2269
v  5.4302 -2.2500 -31.7700
v  -5.3622 0.0000 -15.7715
v  0.1378 0.0000 -15.7715
v  0.1378 0.0000 -31.7731
v  -5.3622 0.0000 -31.7731
v  7.1379 0.0250 16.2285
v  7.1379 0.0500 32.2269
v  -6.8623 0.0000 -15.7715
v  -6.8623 0.0000 -31.7731
v  -5.1546 -2.2000 32.2300
v  -5.1546 0.0500 32.2300
v  -5.3622 0.0000 0.2301
v  -6.8623 0.0000 0.2301
v  0.1378 -2.2000 32.2300
v  5.4302 0.0000 -31.7700
v  -5.1546 0.0000 -31.7700
v  5.6378 0.0000 0.2301
v  7.1379 0.0000 0.2301
v  0.1378 0.0000 0.2301
# 50 vertices

vn -1.0000 0.0000 -0.0000
vn 0.0000 1.0000 -0.0016
vn 0.0000 -1.0000 -0.0000
vn 0.0000 -1.0000 0.0016
vn 0.0000 -1.0000 0.0008
vn 1.0000 0.0000 -0.0000
vn 0.0000 1.0000 -0.0000
vn 0.0000 1.0000 -0.0008
# 8 vertex normals

vt 0.9535 -0.0000 0.0000
vt 0.9535 0.5000 0.0000
vt 0.7331 0.5000 0.0000
vt 0.7331 -0.0000 0.0000
vt 0.1093 0.5000 0.0000
vt 0.0037 0.5000 0.0000
vt 0.0037 0.0000 0.0000
vt 0.1093 0.0000 0.0000
vt 0.8205 0.4999 0.0000
vt 0.7331 1.0000 0.0000
vt 0.8205 1.0000 0.0000
vt 0.7331 0.4999 0.0000
vt 0.9535 1.0000 0.0000
vt 0.0330 0.5000 0.0000
vt 0.1386 0.5000 0.0000
vt 0.1386 1.0000 0.0000
vt 0.0330 1.0000 0.0000
vt 0.4272 0.5000 0.0000
vt -0.0109 0.5000 0.0000
vt -0.0109 1.0000 0.0000
vt 0.4272 1.0000 0.0000
vt 0.9079 0.5000 0.0000
vt 0.9079 1.0000 0.0000
vt 0.4292 0.5000 0.0000
vt -0.0109 -0.0000 0.0000
vt 0.4292 -0.0000 0.0000
vt 0.4272 -0.0000 0.0000
vt 0.0330 0.0000 0.0000
vt 0.1386 0.0000 0.0000
vt 0.4292 1.0000 0.0000
vt 0.1093 1.0000 0.0000
vt 0.0037 1.0000 0.0000
vt 0.8205 -0.0001 0.0000
vt 0.7331 -0.0001 0.0000
vt 0.9535 0.0000 0.0000
vt 0.7331 0.0000 0.0000
vt 0.9079 -0.0001 0.0000
# 37 texture coords

g Box004
s 64
f 1/1/1 2/2/1 3/3/1 
f 3/3/1 4/4/1 1/1/1 
s 1
f 5/5/2 6/6/2 7/7/2 
f 7/7/2 8/8/2 5/5/2 
s 2
f 9/9/3 10/3/3 11/10/3 
f 11/10/3 12/11/3 9/9/3 
f 13/9/4 2/12/4 1/10/5 
f 1/10/5 14/11/5 13/9/4 
s 16
f 15/13/6 16/2/6 17/3/6 
f 17/3/6 18/10/6 15/13/6 
f 19/13/6 20/2/6 21/3/6 
f 21/3/6 22/10/6 19/13/6 
s 64
f 4/10/1 23/3/1 10/2/1 
f 10/2/1 1/13/1 4/10/1 
s 1
f 24/14/7 25/15/7 26/16/7 
f 26/16/7 27/17/7 24/14/7 
f 28/18/2 29/19/2 30/20/2 
f 30/20/2 31/21/2 28/18/2 
s 2
f 16/22/3 9/9/3 12/11/3 
f 12/11/3 32/23/3 16/22/3 
f 20/22/4 13/9/4 14/11/5 
f 14/11/5 15/23/5 20/22/4 
s 1
f 33/24/7 34/19/7 35/25/7 
f 35/25/7 36/26/7 33/24/7 
f 34/19/7 24/18/7 27/27/7 
f 27/27/7 35/25/7 34/19/7 
f 37/15/2 28/14/2 31/28/2 
f 31/28/2 38/29/2 37/15/2 
f 29/19/2 5/24/2 8/30/2 
f 8/30/2 30/20/2 29/19/2 
f 39/6/7 33/5/7 36/31/7 
f 36/31/7 40/32/7 39/6/7 
s 64
f 41/13/1 42/10/1 3/3/1 
f 3/3/1 2/2/1 41/13/1 
s 1
f 43/31/8 44/32/8 6/6/2 
f 6/6/2 5/5/2 43/31/8 
s 2
f 14/33/5 1/34/5 10/3/3 
f 10/3/3 9/9/3 14/33/5 
f 45/33/4 41/34/4 2/12/4 
f 2/12/4 13/9/4 45/33/4 
s 16
f 32/35/6 46/36/6 17/3/6 
f 17/3/6 16/2/6 32/35/6 
f 15/1/6 18/4/6 21/3/6 
f 21/3/6 20/2/6 15/1/6 
s 64
f 47/36/1 11/35/1 10/2/1 
f 10/2/1 23/3/1 47/36/1 
s 1
f 48/28/8 49/29/8 25/15/7 
f 25/15/7 24/14/7 48/28/8 
f 48/27/8 50/25/8 29/19/2 
f 29/19/2 28/18/2 48/27/8 
s 2
f 15/37/5 14/33/5 9/9/3 
f 9/9/3 16/22/3 15/37/5 
f 19/37/4 45/33/4 13/9/4 
f 13/9/4 20/22/4 19/37/4 
s 1
f 43/30/8 50/20/8 34/19/7 
f 34/19/7 33/24/7 43/30/8 
f 50/20/8 48/21/8 24/18/7 
f 24/18/7 34/19/7 50/20/8 
f 49/16/8 48/17/8 28/14/2 
f 28/14/2 37/15/2 49/16/8 
f 50/25/8 43/26/8 5/24/2 
f 5/24/2 29/19/2 50/25/8 
f 44/7/8 43/8/8 33/5/7 
f 33/5/7 39/6/7 44/7/8 
# 64 faces

