# 3ds Max Wavefront OBJ Exporter v0.97b - (c)2007 guruware
# File Created: 25.07.2017 23:08:08

#
# object Box001
#

v  6.7500 -1.1500 0.0005
v  7.0000 0.0000 0.0005
v  7.0000 0.0000 16.0005
v  6.7500 -1.1500 16.0005
v  -6.7500 -1.1500 0.0005
v  -7.0000 0.0000 0.0005
v  -7.0000 0.0000 -15.9995
v  -6.7500 -1.1500 -15.9995
v  6.7500 -1.1500 -15.9995
v  7.0000 0.0000 -15.9995
v  -6.7500 -1.1500 16.0005
v  -7.0000 0.0000 16.0005
v  7.0000 0.0000 -31.9995
v  -7.0000 0.0000 -31.9995
v  -5.5000 -2.7000 0.0005
v  5.5000 -2.7000 0.0005
v  5.5000 -2.7000 16.0005
v  -5.5000 -2.7000 16.0005
v  -5.5000 -2.7000 -31.9995
v  5.5000 -2.7000 -31.9995
v  5.5000 -2.7000 -15.9995
v  -5.5000 -2.7000 -15.9995
v  5.5000 -2.7000 32.0005
v  6.1250 -1.1500 16.0005
v  6.1250 -1.1500 32.0005
v  6.1250 -1.1500 -15.9995
v  6.1250 -1.1500 0.0005
v  -6.1250 -1.1500 -15.9995
v  -6.1250 -1.1500 -31.9995
v  -6.1250 -1.1500 16.0005
v  -6.1250 -1.1500 0.0005
v  -7.0000 0.0000 32.0005
v  7.0000 0.0000 32.0005
v  6.7500 -1.1500 32.0005
v  -6.7500 -1.1500 -31.9995
v  6.7500 -1.1500 -31.9995
v  -6.7500 -1.1500 32.0005
v  -5.5000 -2.7000 32.0005
v  6.1250 -1.1500 -31.9995
v  -6.1250 -1.1500 32.0005
# 40 vertices

vn 0.9869 -0.1611 -0.0000
vn 0.9772 -0.2124 -0.0000
vn -0.9869 -0.1611 -0.0000
vn -0.9772 -0.2124 -0.0000
vn 0.0000 1.0000 -0.0000
vn 0.0000 -1.0000 -0.0000
vn 0.9274 -0.3740 -0.0000
vn -0.9274 -0.3740 -0.0000
vn 0.9954 -0.0957 -0.0000
vn -0.9954 -0.0957 -0.0000
# 10 vertex normals

vt 0.6570 0.5000 0.0000
vt 0.3673 0.5000 0.0000
vt 0.3673 0.7500 0.0000
vt 0.6570 0.7500 0.0000
vt 0.3673 0.2500 0.0000
vt 0.6570 0.2500 0.0000
vt 0.1400 0.5000 0.0000
vt 0.1400 0.7500 0.0000
vt 0.0000 0.7500 0.0000
vt 0.0000 0.5000 0.0000
vt 0.0000 0.2500 0.0000
vt 0.1400 0.2500 0.0000
vt 0.1400 1.0000 0.0000
vt 0.0000 1.0000 0.0000
vt 0.0268 0.5000 0.0000
vt 0.1200 0.5000 0.0000
vt 0.1200 0.2500 0.0000
vt 0.0268 0.2500 0.0000
vt 0.0268 1.0000 0.0000
vt 0.1200 1.0000 0.0000
vt 0.1200 0.7499 0.0000
vt 0.0268 0.7499 0.0000
vt 0.7038 0.0000 0.0000
vt 0.7038 0.2500 0.0000
vt 0.7645 0.2500 0.0000
vt 0.7645 0.0000 0.0000
vt 0.7038 0.4999 0.0000
vt 0.7038 0.7499 0.0000
vt 0.7645 0.7499 0.0000
vt 0.7645 0.4999 0.0000
vt 0.7645 1.0000 0.0000
vt 0.7038 1.0000 0.0000
vt 0.0000 0.0000 0.0000
vt 0.1400 0.0000 0.0000
vt 0.3673 1.0000 0.0000
vt 0.6570 1.0000 0.0000
vt 0.3673 0.0000 0.0000
vt 0.6570 0.0000 0.0000
vt 0.0268 0.0000 0.0000
vt 0.1200 0.0000 0.0000
vt 0.7038 -0.0000 0.0000
# 41 texture coords

g Box001
s off
f 1/1/1 2/2/2 3/3/2 
f 3/3/2 4/4/1 1/1/1 
f 5/1/3 6/2/4 7/5/4 
f 7/5/4 8/6/3 5/1/3 
f 2/2/2 1/1/1 9/6/1 
f 9/6/1 10/5/2 2/2/2 
f 2/7/5 10/8/5 7/9/5 
f 7/9/5 6/10/5 2/7/5 
f 5/1/3 11/4/3 12/3/4 
f 12/3/4 6/2/4 5/1/3 
f 2/7/5 6/10/5 12/11/5 
f 12/11/5 3/12/5 2/7/5 
f 10/8/5 13/13/5 14/14/5 
f 14/14/5 7/9/5 10/8/5 
f 15/15/6 16/16/6 17/17/6 
f 17/17/6 18/18/6 15/15/6 
f 19/19/6 20/20/6 21/21/6 
f 21/21/6 22/22/6 19/19/6 
f 23/23/7 17/24/7 24/25/7 
f 24/25/7 25/26/7 23/23/7 
f 16/27/7 21/28/7 26/29/7 
f 26/29/7 27/30/7 16/27/7 
f 19/31/8 22/29/8 28/28/8 
f 28/28/8 29/32/8 19/31/8 
f 15/30/8 18/25/8 30/24/8 
f 30/24/8 31/27/8 15/30/8 
f 12/11/5 32/33/5 33/34/5 
f 33/34/5 3/12/5 12/11/5 
f 3/3/2 33/35/2 34/36/9 
f 34/36/9 4/4/2 3/3/2 
f 7/5/4 14/37/4 35/38/3 
f 35/38/3 8/6/10 7/5/4 
f 9/6/1 36/38/1 13/37/2 
f 13/37/2 10/5/2 9/6/1 
f 11/4/3 37/36/3 32/35/4 
f 32/35/4 12/3/4 11/4/3 
f 38/39/6 18/18/6 17/17/6 
f 17/17/6 23/40/6 38/39/6 
f 15/15/6 22/22/6 21/21/6 
f 21/21/6 16/16/6 15/15/6 
f 17/24/7 16/27/7 27/30/7 
f 27/30/7 24/25/7 17/24/7 
f 21/28/7 20/32/7 39/31/7 
f 39/31/7 26/29/7 21/28/7 
f 22/29/8 15/30/8 31/27/8 
f 31/27/8 28/28/8 22/29/8 
f 18/25/8 38/26/8 40/41/8 
f 40/41/8 30/24/8 18/25/8 
# 48 faces

