# 3ds Max Wavefront OBJ Exporter v0.97b - (c)2007 guruware
# File Created: 25.07.2017 23:00:02

#
# object Box003
#

v  -5.2924 0.0000 0.0042
v  -5.2924 -2.2500 0.0042
v  -5.2924 -2.2000 32.0010
v  -5.2924 0.0500 32.0010
v  -5.5000 0.0500 31.9979
v  -5.5000 0.0000 0.0011
v  -7.0001 0.0000 0.0011
v  -7.0001 0.0500 31.9979
v  0.0000 -2.2500 -31.9990
v  0.0000 -2.2500 0.0042
v  -5.2924 -2.2500 -31.9990
v  0.0000 -2.2000 32.0010
v  5.2924 0.0000 0.0042
v  5.2924 -2.2500 0.0042
v  5.2924 -2.2500 -31.9990
v  5.2924 0.0000 -31.9990
v  5.2924 0.0500 32.0010
v  5.2924 -2.2000 32.0010
v  -5.2924 0.0000 -31.9990
v  5.5000 0.0000 -32.0021
v  5.5000 0.0000 0.0011
v  7.0001 0.0000 0.0011
v  7.0001 0.0000 -32.0021
v  5.5000 0.0500 31.9979
v  0.0000 0.0000 0.0011
v  0.0000 0.0500 31.9979
v  -5.5000 0.0000 -32.0021
v  0.0000 0.0000 -32.0021
v  7.0001 0.0500 31.9979
v  -7.0001 0.0000 -32.0021
# 30 vertices

vn -1.0000 0.0000 -0.0000
vn 0.0000 1.0000 -0.0016
vn 0.0000 1.0000 -0.0008
vn 0.0000 -1.0000 -0.0000
vn 0.0000 -1.0000 0.0008
vn 0.0000 -1.0000 0.0016
vn 1.0000 0.0000 -0.0000
vn 0.0000 1.0000 -0.0000
vn -0.0000 1.0000 -0.0016
vn -0.0000 1.0000 -0.0008
# 10 vertex normals

vt 0.7331 -0.0000 0.0000
vt 0.9535 -0.0000 0.0000
vt 0.9535 1.0000 0.0000
vt 0.7331 1.0000 0.0000
vt -0.0511 0.0000 0.0000
vt -0.0511 1.0000 0.0000
vt -0.1567 1.0000 0.0000
vt -0.1567 0.0000 0.0000
vt 0.8205 1.0000 0.0000
vt 0.8205 -0.0001 0.0000
vt 0.7331 -0.0001 0.0000
vt 0.9535 0.0000 0.0000
vt 0.7331 0.0000 0.0000
vt 0.4416 1.0000 0.0000
vt 0.4416 0.0000 0.0000
vt 0.5472 0.0000 0.0000
vt 0.5472 1.0000 0.0000
vt 0.1953 1.0000 0.0000
vt 0.1953 0.0000 0.0000
vt 0.9079 1.0000 0.0000
vt 0.9079 -0.0001 0.0000
# 21 texture coords

g Box003
s 64
f 1/1/1 2/2/1 3/3/1 
f 3/3/1 4/4/1 1/1/1 
s 1
f 5/5/2 6/6/3 7/7/3 
f 7/7/3 8/8/2 5/5/2 
s 2
f 9/9/4 10/10/5 2/11/5 
f 2/11/5 11/4/4 9/9/4 
f 10/9/5 12/10/6 3/11/6 
f 3/11/6 2/4/5 10/9/5 
s 16
f 13/4/7 14/3/7 15/12/7 
f 15/12/7 16/13/7 13/4/7 
f 17/4/7 18/3/7 14/2/7 
f 14/2/7 13/1/7 17/4/7 
s 64
f 2/3/1 1/4/1 19/13/1 
f 19/13/1 11/12/1 2/3/1 
s 1
f 20/14/8 21/15/3 22/16/3 
f 22/16/3 23/17/8 20/14/8 
f 24/15/9 21/14/3 25/18/10 
f 25/18/10 26/19/9 24/15/9 
s 2
f 15/20/4 14/21/5 10/10/5 
f 10/10/5 9/9/4 15/20/4 
f 14/20/5 18/21/6 12/10/6 
f 12/10/6 10/9/5 14/20/5 
s 1
f 27/6/8 6/5/3 25/19/10 
f 25/19/10 28/18/8 27/6/8 
f 28/18/8 25/19/10 21/15/3 
f 21/15/3 20/14/8 28/18/8 
f 29/16/2 22/17/3 21/14/3 
f 21/14/3 24/15/9 29/16/2 
f 26/19/9 25/18/10 6/6/3 
f 6/6/3 5/5/2 26/19/9 
f 30/7/8 7/8/3 6/5/3 
f 6/5/3 27/6/8 30/7/8 
# 32 faces

