# 3ds Max Wavefront OBJ Exporter v0.97b - (c)2007 guruware
# File Created: 22.08.2017 20:59:10

#
# object Object006
#

v  0.1442 0.0765 20.8372
v  0.0380 0.0765 26.1706
v  0.4419 0.0683 26.1706
v  0.5478 0.0683 20.8372
v  0.7365 0.0765 4.8372
v  0.5071 0.0765 10.1706
v  0.9103 0.0683 10.1706
v  1.1397 0.0683 4.8372
v  1.4518 0.0765 -11.1628
v  1.2225 0.0765 -5.8294
v  1.6260 0.0683 -5.8294
v  1.8556 0.0683 -11.1628
v  1.9214 0.0765 -27.1628
v  1.8148 0.0765 -21.8294
v  2.2190 0.0683 -21.8294
v  2.3256 0.0683 -27.1628
v  0.3051 0.0765 15.5039
v  0.7085 0.0683 15.5039
v  0.0000 0.0765 31.5039
v  -0.3657 0.0684 26.1706
v  -0.4040 0.0684 31.5039
v  0.9795 0.0765 -0.4961
v  1.3828 0.0683 -0.4961
v  0.1038 0.0684 10.1706
v  -0.0983 0.0684 15.5039
v  1.6537 0.0765 -16.4961
v  2.0577 0.0683 -16.4961
v  0.8187 0.0684 -5.8294
v  0.5760 0.0684 -0.4961
v  1.9600 0.0765 -32.4961
v  2.3642 0.0683 -32.4961
v  1.4108 0.0684 -21.8294
v  1.2497 0.0684 -16.4961
v  0.0000 0.0265 31.5039
v  0.0368 0.0265 26.2555
v  -1.9623 0.0000 26.2555
v  -2.0000 0.0000 31.5039
v  0.1399 0.0265 21.0071
v  -1.8585 0.0000 21.0071
v  0.2964 0.0265 15.7588
v  -1.7016 0.0000 15.7588
v  0.4933 0.0265 10.5104
v  -1.5045 0.0000 10.5104
v  0.7175 0.0265 5.2620
v  -1.2803 0.0000 5.2620
v  0.9561 0.0265 0.0136
v  -1.0421 0.0000 0.0136
v  1.1959 0.0265 -5.2347
v  -0.8030 0.0000 -5.2347
v  1.4238 0.0265 -10.4831
v  -0.5758 0.0000 -10.4831
v  1.6270 0.0265 -15.7315
v  -0.3737 0.0000 -15.7315
v  1.7924 0.0265 -20.9799
v  -0.2093 0.0000 -20.9799
v  1.9073 0.0265 -26.2282
v  -0.0956 0.0000 -26.2282
v  1.9585 0.0265 -31.4766
v  -0.0450 0.0000 -31.4766
v  0.0000 -0.3000 31.5039
v  -2.0000 -0.3000 31.5039
v  2.0348 0.0000 26.2555
v  2.0000 0.0000 31.5039
v  2.0000 -0.3000 31.5039
v  2.0348 -0.3000 26.2555
v  2.1360 0.0000 21.0071
v  2.1360 -0.3000 21.0071
v  2.2909 0.0000 15.7588
v  2.2909 -0.3000 15.7588
v  2.4867 0.0000 10.5104
v  2.4867 -0.3000 10.5104
v  2.7104 0.0000 5.2620
v  2.7103 -0.3000 5.2620
v  2.9488 0.0000 0.0136
v  2.9487 -0.3000 0.0136
v  3.1890 0.0000 -5.2347
v  3.1889 -0.3000 -5.2347
v  3.4177 0.0000 -10.4831
v  3.4176 -0.3000 -10.4831
v  3.6218 0.0000 -15.7315
v  3.6216 -0.3000 -15.7315
v  3.7881 0.0000 -20.9799
v  3.7880 -0.3000 -20.9799
v  3.9035 0.0000 -26.2282
v  3.9033 -0.3000 -26.2282
v  3.9549 0.0000 -31.4766
v  3.9547 -0.3000 -31.4766
v  1.9583 -0.3000 -31.4766
v  -0.0452 -0.3000 -31.4766
v  -0.0957 -0.3000 -26.2282
v  -0.2095 -0.3000 -20.9799
v  -0.3738 -0.3000 -15.7315
v  -0.5760 -0.3000 -10.4831
v  -0.8031 -0.3000 -5.2347
v  -1.0422 -0.3000 0.0136
v  -1.2804 -0.3000 5.2620
v  -1.5046 -0.3000 10.5104
v  -1.7016 -0.3000 15.7588
v  -1.8586 -0.3000 21.0071
v  -1.9623 -0.3000 26.2555
v  -1.8586 -0.3000 21.0072
v  -1.8585 0.0000 21.0072
v  -1.0422 -0.3000 0.0137
v  -1.0421 0.0000 0.0137
v  -0.2095 -0.3000 -20.9798
v  -0.2093 0.0000 -20.9798
v  -0.2593 0.0684 20.8372
v  0.3331 0.0684 4.8372
v  1.0478 0.0684 -11.1628
v  1.5174 0.0684 -27.1628
v  0.4042 0.0683 31.5039
v  1.5560 0.0684 -32.4961
v  0.0000 -0.2735 31.5039
v  0.0368 -0.2735 26.2555
v  0.1399 -0.2735 21.0071
v  0.2964 -0.2735 15.7588
v  0.4932 -0.2735 10.5104
v  0.7175 -0.2735 5.2620
v  0.9560 -0.2735 0.0136
v  1.1958 -0.2735 -5.2347
v  1.4237 -0.2735 -10.4831
v  1.6269 -0.2735 -15.7315
v  1.7922 -0.2735 -20.9799
v  1.9071 -0.2735 -26.2282
v  1.9584 -0.2735 -31.4766
# 125 vertices

vn 0.0001 1.0000 -0.0000
vn 0.0000 1.0000 -0.0000
vn 0.0203 0.9998 0.0003
vn 0.0203 0.9998 0.0005
vn 0.0001 1.0000 0.0000
vn 0.0203 0.9998 0.0008
vn 0.0203 0.9998 0.0009
vn 0.0002 1.0000 0.0000
vn 0.0203 0.9998 0.0007
vn -0.0201 0.9998 -0.0003
vn -0.0200 0.9998 -0.0001
vn -0.0201 0.9998 -0.0008
vn -0.0201 0.9998 -0.0007
vn -0.0201 0.9998 -0.0009
vn 0.0203 0.9998 0.0001
vn -0.0200 0.9998 -0.0005
vn -0.0200 0.9998 -0.0007
vn -0.0001 1.0000 -0.0000
vn -0.0133 0.9999 -0.0002
vn -0.0132 0.9999 -0.0001
vn -0.0000 1.0000 -0.0000
vn -0.0133 0.9999 -0.0003
vn -0.0133 0.9999 -0.0004
vn -0.0133 0.9999 -0.0005
vn -0.0133 0.9999 -0.0006
vn 0.0000 1.0000 0.0000
vn -0.0132 0.9999 -0.0005
vn -0.0132 0.9999 -0.0004
vn -0.0132 0.9999 -0.0002
vn 0.0000 0.0000 1.0000
vn 0.9999 -0.0000 0.0130
vn 1.0000 0.0000 0.0066
vn 1.0000 -0.0000 0.0066
vn 0.9999 -0.0001 0.0130
vn 0.9997 -0.0001 0.0244
vn 0.9994 -0.0002 0.0334
vn 0.9992 -0.0002 0.0399
vn 0.9990 -0.0003 0.0440
vn 0.9990 -0.0003 0.0455
vn 0.9990 -0.0004 0.0446
vn 0.9992 -0.0004 0.0412
vn 0.9994 -0.0005 0.0353
vn 0.9996 -0.0005 0.0268
vn 0.9999 -0.0006 0.0159
vn 1.0000 -0.0006 0.0098
vn 0.0000 0.0000 -1.0000
vn -0.9999 0.0006 -0.0157
vn -1.0000 0.0006 -0.0097
vn 0.2137 -0.5389 -0.8148
vn -0.9999 0.0006 -0.0158
vn -0.9996 0.0005 -0.0265
vn -0.9994 0.0005 -0.0349
vn -0.9992 0.0004 -0.0409
vn -0.9990 0.0004 -0.0444
vn -0.9990 0.0003 -0.0454
vn -0.9990 0.0003 -0.0440
vn -0.9992 0.0002 -0.0401
vn -0.9994 0.0002 -0.0337
vn -0.9997 0.0001 -0.0248
vn -0.9999 0.0001 -0.0135
vn -1.0000 0.0000 -0.0072
vn 1.0000 -0.0001 0.0072
vn 1.0000 0.0000 0.0072
vn 0.9997 -0.0001 0.0247
vn 0.9996 -0.0001 0.0299
vn 0.9997 -0.0001 0.0249
vn 0.9998 -0.0001 0.0198
vn 0.9996 -0.0002 0.0299
vn 0.9993 -0.0002 0.0375
vn 0.9991 -0.0003 0.0427
vn 0.9991 -0.0002 0.0427
vn 0.9990 -0.0003 0.0454
vn 0.9990 -0.0003 0.0453
vn 0.9990 -0.0004 0.0455
vn 0.9991 -0.0004 0.0432
vn 0.9993 -0.0005 0.0385
vn 0.9993 -0.0004 0.0385
vn 0.9996 -0.0005 0.0266
vn 0.9998 -0.0005 0.0217
vn 0.9997 -0.0005 0.0264
vn 0.9995 -0.0005 0.0313
vn 0.9998 -0.0006 0.0217
vn 1.0000 -0.0006 0.0096
vn 0.0133 0.9999 0.0001
vn 0.0133 0.9999 0.0002
vn 0.0133 0.9999 0.0003
vn 0.0133 0.9999 0.0004
vn 0.0133 0.9999 0.0005
vn 0.0133 0.9999 0.0006
vn -0.0201 0.9998 -0.0005
vn -0.0200 0.9998 -0.0008
vn -0.0200 0.9998 -0.0003
vn 0.0001 -1.0000 0.0000
vn 0.0133 -0.9999 0.0002
vn 0.0132 -0.9999 0.0001
vn 0.0133 -0.9999 0.0003
vn 0.0000 -1.0000 0.0000
vn 0.0133 -0.9999 0.0004
vn 0.0133 -0.9999 0.0005
vn 0.0133 -0.9999 0.0006
vn -0.0000 -1.0000 0.0000
vn -0.0000 -1.0000 -0.0000
vn 0.0132 -0.9999 0.0005
vn -0.0001 -1.0000 -0.0000
vn 0.0132 -0.9999 0.0004
vn 0.0132 -0.9999 0.0002
vn -0.0133 -0.9999 -0.0001
vn -0.0133 -0.9999 -0.0002
vn -0.0133 -0.9999 -0.0003
vn -0.0133 -0.9999 -0.0004
vn -0.0133 -0.9999 -0.0005
vn -0.0133 -0.9999 -0.0006
# 112 vertex normals

vt 0.8557 0.3398 0.0000
vt 0.8557 0.6699 0.0000
vt 0.7340 0.6699 0.0000
vt 0.7340 0.3398 0.0000
vt 0.8557 0.6648 0.0000
vt 0.8557 0.3347 0.0000
vt 0.7340 0.3347 0.0000
vt 0.7340 0.6648 0.0000
vt 0.8557 0.0097 0.0000
vt 0.7340 0.0097 0.0000
vt 0.8557 1.0000 0.0000
vt 1.0019 0.6699 0.0000
vt 1.0019 1.0000 0.0000
vt 0.8557 0.9949 0.0000
vt 0.7340 0.9949 0.0000
vt 0.8557 0.0046 0.0000
vt 1.0019 0.3347 0.0000
vt 1.0019 0.0046 0.0000
vt 0.7340 0.0046 0.0000
vt 1.0019 0.6648 0.0000
vt 1.0019 0.9949 0.0000
vt 0.7340 1.0000 0.0000
vt 1.0019 0.3398 0.0000
vt 1.0019 0.0097 0.0000
vt 0.3533 1.0000 0.0000
vt 0.3533 0.0003 0.0000
vt 0.7249 0.0003 0.0000
vt 0.7249 1.0000 0.0000
vt 0.3526 1.0000 0.0000
vt 0.0833 1.0000 0.0000
vt 0.0000 1.0000 0.0000
vt 0.0000 0.0000 0.0000
vt 0.0833 0.0000 0.0000
vt 0.1667 1.0000 0.0000
vt 0.1667 0.0000 0.0000
vt 0.2500 1.0000 0.0000
vt 0.2500 0.0000 0.0000
vt -0.0010 1.0000 0.0000
vt -0.0010 0.0000 0.0000
vt 0.0823 1.0000 0.0000
vt 0.0823 0.0000 0.0000
vt 0.1657 1.0000 0.0000
vt 0.1657 0.0000 0.0000
vt 0.2490 1.0000 0.0000
vt 0.2490 0.0000 0.0000
vt 0.3323 1.0000 0.0000
vt 0.3323 0.0000 0.0000
vt 0.4157 1.0000 0.0000
vt 0.4157 0.0000 0.0000
vt 0.4990 1.0000 0.0000
vt 0.4990 0.0000 0.0000
vt 0.5823 1.0000 0.0000
vt 0.5823 0.0000 0.0000
vt 0.6657 1.0000 0.0000
vt 0.6657 0.0000 0.0000
vt 0.3526 0.0003 0.0000
vt -0.0192 0.0003 0.0000
vt -0.0192 1.0000 0.0000
vt 0.6280 1.0000 0.0000
vt 0.9996 0.0003 0.0000
vt 0.6280 0.0003 0.0000
vt 0.9996 1.0000 0.0000
vt 0.9998 0.0003 0.0000
vt 0.6273 1.0000 0.0000
vt 0.9998 1.0000 0.0000
vt 0.6273 0.0003 0.0000
# 66 texture coords

g Object006
s 4
f 1/1/1 2/2/2 3/3/3 
f 3/3/3 4/4/4 1/1/1 
f 5/5/5 6/6/5 7/7/6 
f 7/7/6 8/8/7 5/5/5 
f 9/6/8 10/5/5 11/8/7 
f 11/8/7 12/7/6 9/6/8 
f 13/2/8 14/1/8 15/4/4 
f 15/4/4 16/3/3 13/2/8 
f 17/9/5 1/1/1 4/4/4 
f 4/4/4 18/10/9 17/9/5 
f 19/11/2 2/2/2 20/12/10 
f 20/12/10 21/13/11 19/11/2 
f 22/14/5 5/5/5 8/8/7 
f 8/8/7 23/15/7 22/14/5 
f 17/16/5 6/6/5 24/17/12 
f 24/17/12 25/18/13 17/16/5 
f 26/16/8 9/6/8 12/7/6 
f 12/7/6 27/19/9 26/16/8 
f 22/14/5 10/5/5 28/20/14 
f 28/20/14 29/21/14 22/14/5 
f 30/11/8 13/2/8 16/3/3 
f 16/3/3 31/22/15 30/11/8 
f 26/9/8 14/1/8 32/23/16 
f 32/23/16 33/24/17 26/9/8 
f 34/25/18 35/26/18 36/27/19 
f 36/27/19 37/28/20 34/25/18 
f 35/25/18 38/26/21 39/27/22 
f 39/27/22 36/28/19 35/25/18 
f 38/25/21 40/26/21 41/27/23 
f 41/27/23 39/28/22 38/25/21 
f 40/25/21 42/26/21 43/27/24 
f 43/27/24 41/28/23 40/25/21 
f 42/25/21 44/26/2 45/27/25 
f 45/27/25 43/28/24 42/25/21 
f 44/25/2 46/26/26 47/27/25 
f 47/27/25 45/28/25 44/25/2 
f 46/25/26 48/26/26 49/27/25 
f 49/27/25 47/28/25 46/25/26 
f 48/25/26 50/26/26 51/27/24 
f 51/27/24 49/28/25 48/25/26 
f 50/25/26 52/26/5 53/27/27 
f 53/27/27 51/28/24 50/25/26 
f 52/25/5 54/26/5 55/27/28 
f 55/27/28 53/28/27 52/25/5 
f 54/25/5 56/26/5 57/27/29 
f 57/27/29 55/28/28 54/25/5 
f 56/25/5 58/26/5 59/27/20 
f 59/27/20 57/28/29 56/25/5 
s 8
f 60/29/30 34/25/30 37/28/30 
f 37/28/30 61/28/30 60/29/30 
s 16
f 62/30/31 63/31/32 64/32/33 
f 64/32/33 65/33/34 62/30/31 
f 66/34/35 62/30/31 65/33/34 
f 65/33/34 67/35/35 66/34/35 
f 68/36/36 66/34/35 67/35/35 
f 67/35/35 69/37/36 68/36/36 
f 70/38/37 68/36/36 69/37/36 
f 69/37/36 71/39/37 70/38/37 
f 72/40/38 70/38/37 71/39/37 
f 71/39/37 73/41/38 72/40/38 
f 74/42/39 72/40/38 73/41/38 
f 73/41/38 75/43/39 74/42/39 
f 76/44/40 74/42/39 75/43/39 
f 75/43/39 77/45/40 76/44/40 
f 78/46/41 76/44/40 77/45/40 
f 77/45/40 79/47/41 78/46/41 
f 80/48/42 78/46/41 79/47/41 
f 79/47/41 81/49/42 80/48/42 
f 82/50/43 80/48/42 81/49/42 
f 81/49/42 83/51/43 82/50/43 
f 84/52/44 82/50/43 83/51/43 
f 83/51/43 85/53/44 84/52/44 
f 86/54/45 84/52/44 85/53/44 
f 85/53/44 87/55/45 86/54/45 
s 32
f 88/56/46 58/26/46 86/57/46 
f 86/57/46 87/57/46 88/56/46 
s 64
f 57/30/47 59/31/48 89/32/49 
f 89/32/49 90/33/50 57/30/47 
f 55/34/51 57/30/47 90/33/50 
f 90/33/50 91/35/51 55/34/51 
f 53/36/52 55/34/51 91/35/51 
f 91/35/51 92/37/52 53/36/52 
f 51/38/53 53/36/52 92/37/52 
f 92/37/52 93/39/53 51/38/53 
f 49/40/54 51/38/53 93/39/53 
f 93/39/53 94/41/54 49/40/54 
f 47/42/55 49/40/54 94/41/54 
f 94/41/54 95/43/55 47/42/55 
f 45/44/56 47/42/55 95/43/55 
f 95/43/55 96/45/56 45/44/56 
f 43/46/57 45/44/56 96/45/56 
f 96/45/56 97/47/57 43/46/57 
f 41/48/58 43/46/57 97/47/57 
f 97/47/57 98/49/58 41/48/58 
f 39/50/59 41/48/58 98/49/58 
f 98/49/58 99/51/59 39/50/59 
f 36/52/60 39/50/59 99/51/59 
f 99/51/59 100/53/60 36/52/60 
f 37/54/61 36/52/60 100/53/60 
f 100/53/60 61/55/61 37/54/61 
f 61/32/62 100/33/62 36/30/62 
f 36/30/63 37/31/63 61/32/63 
f 101/35/64 41/36/65 102/34/66 
f 102/34/66 100/33/67 101/35/64 
f 102/34/67 36/30/67 100/33/67 
f 101/35/68 98/37/68 41/36/68 
f 98/37/69 97/39/69 43/38/69 
f 43/38/69 41/36/69 98/37/69 
f 97/39/70 96/41/70 45/40/70 
f 45/40/71 43/38/71 97/39/71 
f 103/43/72 49/44/39 104/42/72 
f 104/42/72 96/41/73 103/43/72 
f 104/42/73 45/40/73 96/41/73 
f 103/43/74 94/45/74 49/44/74 
f 94/45/75 93/47/75 51/46/75 
f 51/46/75 49/44/75 94/45/75 
f 93/47/76 92/49/76 53/48/76 
f 53/48/77 51/46/77 93/47/77 
f 105/51/78 57/52/79 106/50/80 
f 106/50/80 92/49/81 105/51/78 
f 106/50/81 53/48/81 92/49/81 
f 105/51/82 90/53/82 57/52/82 
f 90/53/50 89/55/49 59/54/48 
f 59/54/83 57/52/83 90/53/83 
s 4
f 63/58/84 62/57/85 35/26/18 
f 35/26/18 34/25/18 63/58/84 
f 62/58/85 66/57/86 38/26/21 
f 38/26/21 35/25/18 62/58/85 
f 66/58/86 68/57/87 40/26/21 
f 40/26/21 38/25/21 66/58/86 
f 68/58/87 70/57/88 42/26/21 
f 42/26/21 40/25/21 68/58/87 
f 70/58/88 72/57/89 44/26/2 
f 44/26/2 42/25/21 70/58/88 
f 72/58/89 74/57/89 46/26/26 
f 46/26/26 44/25/2 72/58/89 
f 74/58/89 76/57/89 48/26/26 
f 48/26/26 46/25/26 74/58/89 
f 76/58/89 78/57/88 50/26/26 
f 50/26/26 48/25/26 76/58/89 
f 78/58/88 80/57/88 52/26/5 
f 52/26/5 50/25/26 78/58/88 
f 80/58/88 82/57/87 54/26/5 
f 54/26/5 52/25/5 80/58/88 
f 82/58/87 84/57/85 56/26/5 
f 56/26/5 54/25/5 82/58/87 
f 84/58/85 86/57/84 58/26/5 
f 58/26/5 56/25/5 84/58/85 
s 8
f 64/58/30 63/58/30 34/25/30 
f 34/25/30 60/29/30 64/58/30 
s 32
f 89/27/46 59/27/46 58/26/46 
f 58/26/46 88/56/46 89/27/46 
s 4
f 107/23/90 20/12/10 2/2/2 
f 2/2/2 1/1/1 107/23/90 
f 108/20/14 24/17/12 6/6/5 
f 6/6/5 5/5/5 108/20/14 
f 109/17/91 28/20/14 10/5/5 
f 10/5/5 9/6/8 109/17/91 
f 110/12/92 32/23/16 14/1/8 
f 14/1/8 13/2/8 110/12/92 
f 25/24/13 107/23/90 1/1/1 
f 1/1/1 17/9/5 25/24/13 
f 111/22/15 3/3/3 2/2/2 
f 2/2/2 19/11/2 111/22/15 
f 29/21/14 108/20/14 5/5/5 
f 5/5/5 22/14/5 29/21/14 
f 18/19/9 7/7/6 6/6/5 
f 6/6/5 17/16/5 18/19/9 
f 33/18/17 109/17/91 9/6/8 
f 9/6/8 26/16/8 33/18/17 
f 23/15/7 11/8/7 10/5/5 
f 10/5/5 22/14/5 23/15/7 
f 112/13/11 110/12/92 13/2/8 
f 13/2/8 30/11/8 112/13/11 
f 27/10/9 15/4/4 14/1/8 
f 14/1/8 26/9/8 27/10/9 
f 113/59/93 100/60/94 114/61/93 
f 100/60/94 113/59/93 61/62/95 
f 114/59/93 99/60/96 115/61/97 
f 99/60/96 114/59/93 100/62/94 
f 115/59/97 98/60/98 116/61/97 
f 98/60/98 115/59/97 99/62/96 
f 116/59/97 97/60/99 117/61/97 
f 97/60/99 116/59/97 98/62/98 
f 117/59/97 96/60/100 118/61/101 
f 96/60/100 117/59/97 97/62/99 
f 118/59/101 95/60/100 119/61/102 
f 95/60/100 118/59/101 96/62/100 
f 119/59/102 94/60/100 120/61/102 
f 94/60/100 119/59/102 95/62/100 
f 120/59/102 93/60/99 121/61/102 
f 93/60/99 120/59/102 94/62/100 
f 121/59/102 92/60/103 122/61/104 
f 92/60/103 121/59/102 93/62/99 
f 122/59/104 91/60/105 123/61/104 
f 91/60/105 122/59/104 92/62/103 
f 123/59/104 90/60/106 124/61/104 
f 90/60/106 123/59/104 91/62/105 
f 124/59/104 89/60/95 125/61/104 
f 89/60/95 124/59/104 90/62/106 
f 64/63/107 114/64/93 65/65/108 
f 114/64/93 64/63/107 113/66/93 
f 65/63/108 115/64/97 67/65/109 
f 115/64/97 65/63/108 114/66/93 
f 67/63/109 116/64/97 69/65/110 
f 116/64/97 67/63/109 115/66/97 
f 69/63/110 117/64/97 71/65/111 
f 117/64/97 69/63/110 116/66/97 
f 71/63/111 118/64/101 73/65/112 
f 118/64/101 71/63/111 117/66/97 
f 73/63/112 119/64/102 75/65/112 
f 119/64/102 73/63/112 118/66/101 
f 75/63/112 120/64/102 77/65/112 
f 120/64/102 75/63/112 119/66/102 
f 77/63/112 121/64/102 79/65/111 
f 121/64/102 77/63/112 120/66/102 
f 79/63/111 122/64/104 81/65/111 
f 122/64/104 79/63/111 121/66/102 
f 81/63/111 123/64/104 83/65/110 
f 123/64/104 81/63/111 122/66/104 
f 83/63/110 124/64/104 85/65/108 
f 124/64/104 83/63/110 123/66/104 
f 85/63/108 125/64/104 87/65/107 
f 125/64/104 85/63/108 124/66/104 
# 224 faces

