# 3ds Max Wavefront OBJ Exporter v0.97b - (c)2007 guruware
# File Created: 19.12.2018 22:07:53

#
# object Boosted_Rail_Start
#

v  -1.4347 0.0800 26.6605
v  -1.4729 0.0800 31.4936
v  -0.7234 0.0600 31.4936
v  -0.6852 0.0600 26.6605
v  -1.4729 -0.3000 31.4936
v  -0.7234 -0.3000 31.4936
v  -0.6851 -0.3000 26.6605
v  -0.9852 0.0800 11.1696
v  -0.2357 0.0600 11.1696
v  -0.2357 -0.3000 11.1696
v  -0.9852 -0.3000 11.1696
v  -1.1667 -0.3000 15.9954
v  -1.1667 0.0800 15.9954
v  -3.1605 0.0600 26.6605
v  -3.1987 0.0600 31.4936
v  -2.4492 0.0800 31.4936
v  -2.4110 0.0800 26.6605
v  -3.1987 -0.3000 31.4936
v  -2.4492 -0.3000 31.4936
v  -2.4109 -0.3000 26.6605
v  -2.7111 0.0600 11.1696
v  -1.9616 0.0800 11.1696
v  -1.9616 -0.3000 11.1696
v  -2.7111 -0.3000 11.1696
v  -2.8926 -0.3000 15.9954
v  -2.8926 0.0600 15.9954
v  -0.7354 0.0800 5.3312
v  -0.9444 0.0800 10.1699
v  -0.1949 0.0600 10.1699
v  0.0141 0.0600 5.3312
v  -0.9443 -0.3000 10.1699
v  -0.1948 -0.3000 10.1699
v  0.0142 -0.3000 5.3312
v  -0.0413 0.0800 -10.1517
v  0.7082 0.0600 -10.1517
v  0.7082 -0.3000 -10.1517
v  -0.0413 -0.3000 -10.1517
v  -0.2495 -0.3000 -5.3326
v  -0.2495 0.0800 -5.3326
v  -2.4613 0.0600 5.3312
v  -2.6703 0.0600 10.1699
v  -1.9208 0.0800 10.1699
v  -1.7118 0.0800 5.3312
v  -2.6702 -0.3000 10.1699
v  -1.9207 -0.3000 10.1699
v  -1.7117 -0.3000 5.3312
v  -1.7672 0.0600 -10.1517
v  -1.0177 0.0800 -10.1517
v  -1.0177 -0.3000 -10.1517
v  -1.7672 -0.3000 -10.1517
v  -1.9754 -0.3000 -5.3326
v  -1.9754 0.0600 -5.3326
v  0.1818 0.0800 -15.9967
v  -0.0004 0.0800 -11.1514
v  0.7491 0.0600 -11.1514
v  0.9313 0.0600 -15.9967
v  -0.0004 -0.3000 -11.1514
v  0.7491 -0.3000 -11.1514
v  0.9313 -0.3000 -15.9967
v  0.4878 0.0800 -31.4755
v  1.2373 0.0600 -31.4755
v  1.2373 -0.3000 -31.4755
v  0.4878 -0.3000 -31.4755
v  0.4497 -0.3000 -26.6619
v  0.4496 0.0800 -26.6619
v  -1.5442 0.0600 -15.9967
v  -1.7264 0.0600 -11.1515
v  -0.9769 0.0800 -11.1515
v  -0.7947 0.0800 -15.9967
v  -1.7264 -0.3000 -11.1515
v  -0.9769 -0.3000 -11.1515
v  -0.7947 -0.3000 -15.9967
v  -1.2381 0.0600 -31.4755
v  -0.4886 0.0800 -31.4755
v  -0.4886 -0.3000 -31.4755
v  -1.2381 -0.3000 -31.4755
v  -1.2763 -0.3000 -26.6619
v  -1.2763 0.0600 -26.6619
v  0.5000 0.0600 -5.3326
v  -0.4924 0.0800 -0.0007
v  0.2571 0.0600 -0.0007
v  0.2571 -0.3000 -0.0007
v  0.5000 -0.3000 -5.3326
v  -0.4924 -0.3000 -0.0007
v  -0.7353 -0.3000 5.3312
v  -1.2259 0.0800 -5.3326
v  -2.2183 0.0600 -0.0007
v  -1.4688 0.0800 -0.0007
v  -1.4688 -0.3000 -0.0007
v  -1.2259 -0.3000 -5.3326
v  -2.2183 -0.3000 -0.0007
v  -2.4612 -0.3000 5.3312
v  1.0925 0.0600 -21.3291
v  0.3430 0.0800 -21.3291
v  1.0925 -0.3000 -21.3291
v  0.1818 -0.3000 -15.9967
v  -0.6335 0.0800 -21.3291
v  -1.3830 0.0600 -21.3291
v  -0.6335 -0.3000 -21.3291
v  -1.5442 -0.3000 -15.9967
v  0.3430 -0.3000 -21.3291
v  -1.3830 -0.3000 -21.3291
v  1.1991 0.0600 -26.6619
v  1.1992 -0.3000 -26.6619
v  -0.5268 0.0800 -26.6619
v  -0.5268 -0.3000 -26.6619
v  -0.4172 0.0600 15.9954
v  -0.4172 -0.3000 15.9954
v  -1.3279 -0.3000 21.3277
v  -1.3280 0.0800 21.3277
v  -2.1431 0.0800 15.9954
v  -2.1431 -0.3000 15.9954
v  -3.0537 -0.3000 21.3277
v  -3.0538 0.0600 21.3277
v  -0.5785 0.0600 21.3277
v  -0.5784 -0.3000 21.3277
v  -2.3043 0.0800 21.3277
v  -2.3042 -0.3000 21.3277
v  -1.4346 -0.3000 26.6605
v  -3.1604 -0.3000 26.6605
# 120 vertices

vn 0.0267 0.9996 0.0004
vn 0.0267 0.9996 0.0002
vn 0.0000 0.0000 1.0000
vn 0.9999 0.0003 0.0140
vn 1.0000 0.0000 0.0079
vn 0.0000 0.0000 -1.0000
vn -0.9993 0.0000 -0.0376
vn -0.9994 0.0000 -0.0339
vn -0.9994 -0.0000 -0.0339
vn -0.0267 0.9996 -0.0004
vn -0.0267 0.9996 -0.0002
vn 0.0267 0.9996 0.0012
vn 0.9991 0.0003 0.0432
vn 0.9990 0.0003 0.0443
vn -0.9991 0.0000 -0.0432
vn -0.9990 0.0000 -0.0443
vn -0.0267 0.9996 -0.0012
vn 0.0267 0.9996 0.0009
vn 0.0267 0.9996 0.0010
vn 0.9993 0.0000 0.0376
vn 0.9994 0.0000 0.0339
vn -1.0000 -0.0000 -0.0079
vn -1.0000 0.0000 -0.0079
vn -0.9999 -0.0003 -0.0140
vn -0.0267 0.9996 -0.0009
vn -0.0267 0.9996 -0.0010
vn -0.9999 0.0000 -0.0140
vn 0.9990 0.0000 0.0455
vn 0.9990 0.0000 0.0443
vn -0.9990 -0.0000 -0.0455
vn -0.9990 0.0000 -0.0455
vn -0.9990 -0.0003 -0.0443
vn 0.9991 0.0000 0.0432
vn 0.0267 0.9996 0.0007
vn 0.9997 0.0000 0.0251
vn -0.0267 0.9996 -0.0007
vn -0.9997 0.0000 -0.0251
vn -0.9997 -0.0000 -0.0251
vn 0.9999 0.0000 0.0140
vn -0.9991 -0.0003 -0.0432
vn -0.9997 -0.0003 -0.0251
vn 0.9997 0.0003 0.0251
# 42 vertex normals

vt 0.0003 0.9994 0.0000
vt 0.0003 0.0000 0.0000
vt 0.2568 0.0000 0.0000
vt 0.2568 0.9994 0.0000
vt 0.2532 0.0000 0.0000
vt 0.0000 0.0000 0.0000
vt 0.0000 0.0345 0.0000
vt 0.2532 0.0345 0.0000
vt -0.0000 1.0000 0.0000
vt 0.0388 1.0000 0.0000
vt 0.0388 0.0000 0.0000
vt 0.0356 1.0000 0.0000
vt 0.0000 1.0000 0.0000
vt 0.0356 0.0000 0.0000
vt 0.0003 0.9997 0.0000
vt 0.2568 0.9997 0.0000
vt 0.0003 1.0000 0.0000
vt 0.2568 1.0000 0.0000
vt 0.2568 1.0003 0.0000
vt 0.0003 1.0003 0.0000
# 20 texture coords

g Boosted_Rail_Start
s 4
f 1/1/1 2/2/2 3/3/2 
f 3/3/2 4/4/1 1/1/1 
s 8
f 3/5/3 2/6/3 5/7/3 
f 5/7/3 6/8/3 3/5/3 
s 16
f 7/9/4 4/10/4 3/11/5 
f 3/11/5 6/6/5 7/9/4 
s 32
f 8/6/6 9/5/6 10/8/6 
f 10/8/6 11/7/6 8/6/6 
s 64
f 8/12/7 11/13/7 12/6/8 
f 12/6/8 13/14/9 8/12/7 
s 4
f 14/1/10 15/2/11 16/3/11 
f 16/3/11 17/4/10 14/1/10 
s 8
f 16/6/3 15/5/3 18/8/3 
f 18/8/3 19/7/3 16/6/3 
s 16
f 20/9/4 17/10/4 16/11/5 
f 16/11/5 19/6/5 20/9/4 
s 32
f 21/5/6 22/6/6 23/7/6 
f 23/7/6 24/8/6 21/5/6 
s 64
f 21/12/7 24/13/7 25/6/8 
f 25/6/8 26/14/9 21/12/7 
s 4
f 27/15/12 28/2/12 29/3/12 
f 29/3/12 30/16/12 27/15/12 
s 8
f 29/5/3 28/6/3 31/7/3 
f 31/7/3 32/8/3 29/5/3 
s 16
f 29/11/13 32/6/13 33/9/14 
f 33/9/14 30/10/14 29/11/13 
s 32
f 34/6/6 35/5/6 36/8/6 
f 36/8/6 37/7/6 34/6/6 
s 64
f 34/12/15 37/13/15 38/6/16 
f 38/6/16 39/14/16 34/12/15 
s 4
f 40/15/17 41/2/17 42/3/17 
f 42/3/17 43/16/17 40/15/17 
s 8
f 42/6/3 41/5/3 44/8/3 
f 44/8/3 45/7/3 42/6/3 
s 16
f 42/11/13 45/6/13 46/9/14 
f 46/9/14 43/10/14 42/11/13 
s 32
f 47/5/6 48/6/6 49/7/6 
f 49/7/6 50/8/6 47/5/6 
s 64
f 47/12/15 50/13/15 51/6/16 
f 51/6/16 52/14/16 47/12/15 
s 4
f 53/17/18 54/2/19 55/3/19 
f 55/3/19 56/18/18 53/17/18 
s 8
f 55/5/3 54/6/3 57/7/3 
f 57/7/3 58/8/3 55/5/3 
s 16
f 55/11/20 58/6/20 59/9/21 
f 59/9/21 56/10/21 55/11/20 
s 32
f 60/6/6 61/5/6 62/8/6 
f 62/8/6 63/7/6 60/6/6 
s 64
f 60/12/22 63/13/23 64/6/24 
f 64/6/24 65/14/24 60/12/22 
s 4
f 66/17/25 67/2/26 68/3/26 
f 68/3/26 69/18/25 66/17/25 
s 8
f 68/6/3 67/5/3 70/8/3 
f 70/8/3 71/7/3 68/6/3 
s 16
f 68/11/20 71/6/20 72/9/21 
f 72/9/21 69/10/21 68/11/20 
s 32
f 73/5/6 74/6/6 75/7/6 
f 75/7/6 76/8/6 73/5/6 
s 64
f 73/12/23 76/13/23 77/6/27 
f 77/6/27 78/14/27 73/12/23 
s 4
f 79/18/12 39/17/12 80/2/12 
f 80/2/12 81/3/12 79/18/12 
s 16
f 81/11/28 82/6/28 83/9/29 
f 83/9/29 79/10/29 81/11/28 
s 64
f 80/12/30 84/13/31 85/6/32 
f 85/6/32 27/14/32 80/12/30 
s 4
f 86/18/17 52/17/17 87/2/17 
f 87/2/17 88/3/17 86/18/17 
s 16
f 88/11/28 89/6/28 90/9/29 
f 90/9/29 86/10/29 88/11/28 
s 64
f 87/12/30 91/13/31 92/6/32 
f 92/6/32 40/14/32 87/12/30 
f 39/12/16 38/13/16 84/6/31 
f 84/6/31 80/14/30 39/12/16 
f 52/12/16 51/13/16 91/6/31 
f 91/6/31 87/14/30 52/12/16 
s 4
f 39/2/12 79/3/12 35/18/12 
f 35/18/12 34/17/12 39/2/12 
s 16
f 79/11/29 83/6/29 36/9/33 
f 36/9/33 35/10/33 79/11/29 
s 4
f 52/2/17 86/3/17 48/18/17 
f 48/18/17 47/17/17 52/2/17 
s 16
f 86/11/29 90/6/29 49/9/33 
f 49/9/33 48/10/33 86/11/29 
s 4
f 93/18/34 94/17/34 53/2/18 
f 53/2/18 56/3/18 93/18/34 
s 16
f 56/11/21 59/6/21 95/9/35 
f 95/9/35 93/10/35 56/11/21 
s 64
f 53/12/8 96/13/8 57/6/7 
f 57/6/7 54/14/7 53/12/8 
s 4
f 97/18/36 98/17/36 66/2/25 
f 66/2/25 69/3/25 97/18/36 
s 16
f 69/11/21 72/6/21 99/9/35 
f 99/9/35 97/10/35 69/11/21 
s 64
f 66/12/8 100/13/8 70/6/7 
f 70/6/7 67/14/7 66/12/8 
f 94/12/37 101/13/38 96/6/8 
f 96/6/8 53/14/8 94/12/37 
f 98/12/37 102/13/37 100/6/8 
f 100/6/8 66/14/8 98/12/37 
s 4
f 103/19/1 65/20/1 94/2/34 
f 94/2/34 93/3/34 103/19/1 
s 16
f 93/11/35 95/6/35 104/9/4 
f 104/9/4 103/10/4 93/11/35 
s 4
f 105/19/10 78/20/10 98/2/36 
f 98/2/36 97/3/36 105/19/10 
s 16
f 97/11/35 99/6/35 106/9/39 
f 106/9/39 105/10/39 97/11/35 
s 64
f 65/12/24 64/13/24 101/6/38 
f 101/6/38 94/14/37 65/12/24 
f 78/12/27 77/13/27 102/6/37 
f 102/6/37 98/14/37 78/12/27 
s 4
f 65/2/1 103/3/1 61/18/2 
f 61/18/2 60/17/2 65/2/1 
s 16
f 103/11/4 104/6/4 62/9/5 
f 62/9/5 61/10/5 103/11/4 
s 4
f 78/2/10 105/3/10 74/18/11 
f 74/18/11 73/17/11 78/2/10 
s 16
f 105/11/39 106/6/39 75/9/5 
f 75/9/5 74/10/5 105/11/39 
s 4
f 81/16/12 80/15/12 27/2/12 
f 27/2/12 30/3/12 81/16/12 
s 16
f 30/11/14 33/6/14 82/9/28 
f 82/9/28 81/10/28 30/11/14 
s 4
f 88/16/17 87/15/17 40/2/17 
f 40/2/17 43/3/17 88/16/17 
s 16
f 43/11/14 46/6/14 89/9/28 
f 89/9/28 88/10/28 43/11/14 
s 64
f 27/12/32 85/13/32 31/6/40 
f 31/6/40 28/14/40 27/12/32 
f 40/12/32 92/13/32 44/6/40 
f 44/6/40 41/14/40 40/12/32 
s 4
f 13/2/18 107/3/18 9/18/19 
f 9/18/19 8/17/19 13/2/18 
s 16
f 107/11/21 108/6/21 10/9/20 
f 10/9/20 9/10/20 107/11/21 
s 64
f 13/12/9 12/13/8 109/6/41 
f 109/6/41 110/14/41 13/12/9 
s 4
f 26/2/25 111/3/25 22/18/26 
f 22/18/26 21/17/26 26/2/25 
s 16
f 23/9/20 22/10/20 111/11/21 
f 111/11/21 112/6/21 23/9/20 
s 64
f 26/12/9 25/13/8 113/6/41 
f 113/6/41 114/14/41 26/12/9 
s 4
f 107/16/18 13/15/18 110/2/34 
f 110/2/34 115/3/34 107/16/18 
s 16
f 115/11/42 116/6/42 108/9/21 
f 108/9/21 107/10/21 115/11/42 
s 4
f 111/16/25 26/15/25 114/2/36 
f 114/2/36 117/3/36 111/16/25 
s 16
f 117/11/42 118/6/42 112/9/21 
f 112/9/21 111/10/21 117/11/42 
s 64
f 110/12/41 109/13/41 119/6/24 
f 119/6/24 1/14/24 110/12/41 
f 114/12/41 113/13/41 120/6/24 
f 120/6/24 14/14/24 114/12/41 
s 4
f 115/4/34 110/1/34 1/2/1 
f 1/2/1 4/3/1 115/4/34 
s 16
f 116/9/42 115/10/42 4/11/4 
f 4/11/4 7/6/4 116/9/42 
s 4
f 117/4/36 114/1/36 14/2/10 
f 14/2/10 17/3/10 117/4/36 
s 16
f 118/9/42 117/10/42 17/11/4 
f 17/11/4 20/6/4 118/9/42 
s 64
f 1/12/24 119/13/24 5/6/22 
f 5/6/22 2/14/23 1/12/24 
f 14/12/24 120/13/24 18/6/22 
f 18/6/22 15/14/23 14/12/24 
# 0 polygons - 168 triangles

