# 3ds Max Wavefront OBJ Exporter v0.97b - (c)2007 guruware
# File Created: 19.12.2018 22:07:52

#
# object Boosted_Rail
#

v  0.4877 0.0915 26.6779
v  0.4877 0.0915 31.5112
v  1.2372 0.0715 31.5112
v  1.2372 0.0715 26.6779
v  0.4877 -0.2885 31.5112
v  1.2372 -0.2885 31.5112
v  1.2372 -0.2885 26.6779
v  0.4877 0.0915 11.1844
v  1.2372 0.0715 11.1844
v  1.2372 -0.2885 11.1844
v  0.4877 -0.2885 11.1844
v  0.4877 -0.2885 16.0112
v  0.4877 0.0915 16.0112
v  -1.2381 0.0715 26.6779
v  -1.2381 0.0715 31.5112
v  -0.4886 0.0915 31.5112
v  -0.4886 0.0915 26.6779
v  -1.2381 -0.2885 31.5112
v  -0.4886 -0.2885 31.5112
v  -0.4886 -0.2885 26.6779
v  -1.2381 0.0715 11.1844
v  -0.4886 0.0915 11.1844
v  -0.4886 -0.2885 11.1844
v  -1.2381 -0.2885 11.1844
v  -1.2381 -0.2885 16.0112
v  -1.2381 0.0715 16.0112
v  0.4877 0.0915 5.3445
v  0.4877 0.0915 10.1844
v  1.2372 0.0715 10.1844
v  1.2372 0.0715 5.3445
v  0.4877 -0.2885 10.1844
v  1.2372 -0.2885 10.1844
v  1.2372 -0.2885 5.3445
v  0.4877 0.0915 -10.1425
v  1.2372 0.0715 -10.1425
v  1.2372 -0.2885 -10.1425
v  0.4877 -0.2885 -10.1425
v  0.4877 -0.2885 -5.3221
v  0.4877 0.0915 -5.3221
v  -1.2381 0.0715 5.3445
v  -1.2381 0.0715 10.1844
v  -0.4886 0.0915 10.1844
v  -0.4886 0.0915 5.3445
v  -1.2381 -0.2885 10.1844
v  -0.4886 -0.2885 10.1844
v  -0.4886 -0.2885 5.3445
v  -1.2381 0.0715 -10.1425
v  -0.4886 0.0915 -10.1425
v  -0.4886 -0.2885 -10.1425
v  -1.2381 -0.2885 -10.1425
v  -1.2381 -0.2885 -5.3221
v  -1.2381 0.0715 -5.3221
v  0.4877 0.0915 -15.9888
v  0.4877 0.0915 -11.1424
v  1.2372 0.0715 -11.1424
v  1.2372 0.0715 -15.9888
v  0.4877 -0.2885 -11.1424
v  1.2372 -0.2885 -11.1424
v  1.2372 -0.2885 -15.9888
v  0.4877 0.0915 -31.4693
v  1.2372 0.0715 -31.4693
v  1.2372 -0.2885 -31.4693
v  0.4877 -0.2885 -31.4693
v  0.4877 -0.2885 -26.6555
v  0.4877 0.0915 -26.6555
v  -1.2382 0.0715 -15.9888
v  -1.2382 0.0715 -11.1425
v  -0.4887 0.0915 -11.1425
v  -0.4887 0.0915 -15.9888
v  -1.2382 -0.2885 -11.1425
v  -0.4887 -0.2885 -11.1425
v  -0.4887 -0.2885 -15.9888
v  -1.2382 0.0715 -31.4693
v  -0.4887 0.0915 -31.4693
v  -0.4887 -0.2885 -31.4693
v  -1.2382 -0.2885 -31.4693
v  -1.2382 -0.2885 -26.6555
v  -1.2382 0.0715 -26.6555
v  1.2372 0.0715 -5.3221
v  0.4877 0.0915 0.0112
v  1.2372 0.0715 0.0112
v  1.2372 -0.2885 0.0112
v  1.2372 -0.2885 -5.3221
v  0.4877 -0.2885 0.0112
v  0.4877 -0.2885 5.3445
v  -0.4886 0.0915 -5.3221
v  -1.2381 0.0715 0.0112
v  -0.4886 0.0915 0.0112
v  -0.4886 -0.2885 0.0112
v  -0.4886 -0.2885 -5.3221
v  -1.2381 -0.2885 0.0112
v  -1.2381 -0.2885 5.3445
v  1.2372 0.0715 -21.3221
v  0.4877 0.0915 -21.3221
v  1.2372 -0.2885 -21.3221
v  0.4877 -0.2885 -15.9888
v  -0.4887 0.0915 -21.3221
v  -1.2382 0.0715 -21.3221
v  -0.4887 -0.2885 -21.3221
v  -1.2382 -0.2885 -15.9888
v  0.4877 -0.2885 -21.3221
v  -1.2382 -0.2885 -21.3221
v  1.2372 0.0715 -26.6555
v  1.2372 -0.2885 -26.6555
v  -0.4887 0.0915 -26.6555
v  -0.4887 -0.2885 -26.6555
v  1.2372 0.0715 16.0112
v  1.2372 -0.2885 16.0112
v  0.4877 -0.2885 21.3445
v  0.4877 0.0915 21.3445
v  -0.4886 0.0915 16.0112
v  -0.4886 -0.2885 16.0112
v  -1.2381 -0.2885 21.3445
v  -1.2381 0.0715 21.3445
v  1.2372 0.0715 21.3445
v  1.2372 -0.2885 21.3445
v  -0.4886 0.0915 21.3445
v  -0.4886 -0.2885 21.3445
v  0.4877 -0.2885 26.6779
v  -1.2381 -0.2885 26.6779
# 120 vertices

vn 0.0267 0.9996 -0.0000
vn 0.0000 0.0000 1.0000
vn 1.0000 0.0000 -0.0000
vn 0.0000 0.0000 -1.0000
vn -1.0000 0.0000 -0.0000
vn -0.0267 0.9996 -0.0000
# 6 vertex normals

vt 0.0003 0.9994 0.0000
vt 0.0003 0.0000 0.0000
vt 0.2568 0.0000 0.0000
vt 0.2568 0.9994 0.0000
vt 0.2532 0.0000 0.0000
vt 0.0000 0.0000 0.0000
vt 0.0000 0.0345 0.0000
vt 0.2532 0.0345 0.0000
vt -0.0000 1.0000 0.0000
vt 0.0388 1.0000 0.0000
vt 0.0388 0.0000 0.0000
vt 0.0356 1.0000 0.0000
vt 0.0000 1.0000 0.0000
vt 0.0356 0.0000 0.0000
vt 0.0003 0.9997 0.0000
vt 0.2568 0.9997 0.0000
vt 0.0003 1.0000 0.0000
vt 0.2568 1.0000 0.0000
vt 0.2568 1.0003 0.0000
vt 0.0003 1.0003 0.0000
# 20 texture coords

g Boosted_Rail
s 4
f 1/1/1 2/2/1 3/3/1 
f 3/3/1 4/4/1 1/1/1 
s 8
f 3/5/2 2/6/2 5/7/2 
f 5/7/2 6/8/2 3/5/2 
s 16
f 7/9/3 4/10/3 3/11/3 
f 3/11/3 6/6/3 7/9/3 
s 32
f 8/6/4 9/5/4 10/8/4 
f 10/8/4 11/7/4 8/6/4 
s 64
f 8/12/5 11/13/5 12/6/5 
f 12/6/5 13/14/5 8/12/5 
s 4
f 14/1/6 15/2/6 16/3/6 
f 16/3/6 17/4/6 14/1/6 
s 8
f 16/6/2 15/5/2 18/8/2 
f 18/8/2 19/7/2 16/6/2 
s 16
f 20/9/3 17/10/3 16/11/3 
f 16/11/3 19/6/3 20/9/3 
s 32
f 21/5/4 22/6/4 23/7/4 
f 23/7/4 24/8/4 21/5/4 
s 64
f 21/12/5 24/13/5 25/6/5 
f 25/6/5 26/14/5 21/12/5 
s 4
f 27/15/1 28/2/1 29/3/1 
f 29/3/1 30/16/1 27/15/1 
s 8
f 29/5/2 28/6/2 31/7/2 
f 31/7/2 32/8/2 29/5/2 
s 16
f 29/11/3 32/6/3 33/9/3 
f 33/9/3 30/10/3 29/11/3 
s 32
f 34/6/4 35/5/4 36/8/4 
f 36/8/4 37/7/4 34/6/4 
s 64
f 34/12/5 37/13/5 38/6/5 
f 38/6/5 39/14/5 34/12/5 
s 4
f 40/15/6 41/2/6 42/3/6 
f 42/3/6 43/16/6 40/15/6 
s 8
f 42/6/2 41/5/2 44/8/2 
f 44/8/2 45/7/2 42/6/2 
s 16
f 42/11/3 45/6/3 46/9/3 
f 46/9/3 43/10/3 42/11/3 
s 32
f 47/5/4 48/6/4 49/7/4 
f 49/7/4 50/8/4 47/5/4 
s 64
f 47/12/5 50/13/5 51/6/5 
f 51/6/5 52/14/5 47/12/5 
s 4
f 53/17/1 54/2/1 55/3/1 
f 55/3/1 56/18/1 53/17/1 
s 8
f 55/5/2 54/6/2 57/7/2 
f 57/7/2 58/8/2 55/5/2 
s 16
f 55/11/3 58/6/3 59/9/3 
f 59/9/3 56/10/3 55/11/3 
s 32
f 60/6/4 61/5/4 62/8/4 
f 62/8/4 63/7/4 60/6/4 
s 64
f 60/12/5 63/13/5 64/6/5 
f 64/6/5 65/14/5 60/12/5 
s 4
f 66/17/6 67/2/6 68/3/6 
f 68/3/6 69/18/6 66/17/6 
s 8
f 68/6/2 67/5/2 70/8/2 
f 70/8/2 71/7/2 68/6/2 
s 16
f 68/11/3 71/6/3 72/9/3 
f 72/9/3 69/10/3 68/11/3 
s 32
f 73/5/4 74/6/4 75/7/4 
f 75/7/4 76/8/4 73/5/4 
s 64
f 73/12/5 76/13/5 77/6/5 
f 77/6/5 78/14/5 73/12/5 
s 4
f 79/18/1 39/17/1 80/2/1 
f 80/2/1 81/3/1 79/18/1 
s 16
f 81/11/3 82/6/3 83/9/3 
f 83/9/3 79/10/3 81/11/3 
s 64
f 80/12/5 84/13/5 85/6/5 
f 85/6/5 27/14/5 80/12/5 
s 4
f 86/18/6 52/17/6 87/2/6 
f 87/2/6 88/3/6 86/18/6 
s 16
f 88/11/3 89/6/3 90/9/3 
f 90/9/3 86/10/3 88/11/3 
s 64
f 87/12/5 91/13/5 92/6/5 
f 92/6/5 40/14/5 87/12/5 
f 39/12/5 38/13/5 84/6/5 
f 84/6/5 80/14/5 39/12/5 
f 52/12/5 51/13/5 91/6/5 
f 91/6/5 87/14/5 52/12/5 
s 4
f 39/2/1 79/3/1 35/18/1 
f 35/18/1 34/17/1 39/2/1 
s 16
f 79/11/3 83/6/3 36/9/3 
f 36/9/3 35/10/3 79/11/3 
s 4
f 52/2/6 86/3/6 48/18/6 
f 48/18/6 47/17/6 52/2/6 
s 16
f 86/11/3 90/6/3 49/9/3 
f 49/9/3 48/10/3 86/11/3 
s 4
f 93/18/1 94/17/1 53/2/1 
f 53/2/1 56/3/1 93/18/1 
s 16
f 56/11/3 59/6/3 95/9/3 
f 95/9/3 93/10/3 56/11/3 
s 64
f 53/12/5 96/13/5 57/6/5 
f 57/6/5 54/14/5 53/12/5 
s 4
f 97/18/6 98/17/6 66/2/6 
f 66/2/6 69/3/6 97/18/6 
s 16
f 69/11/3 72/6/3 99/9/3 
f 99/9/3 97/10/3 69/11/3 
s 64
f 66/12/5 100/13/5 70/6/5 
f 70/6/5 67/14/5 66/12/5 
f 94/12/5 101/13/5 96/6/5 
f 96/6/5 53/14/5 94/12/5 
f 98/12/5 102/13/5 100/6/5 
f 100/6/5 66/14/5 98/12/5 
s 4
f 103/19/1 65/20/1 94/2/1 
f 94/2/1 93/3/1 103/19/1 
s 16
f 93/11/3 95/6/3 104/9/3 
f 104/9/3 103/10/3 93/11/3 
s 4
f 105/19/6 78/20/6 98/2/6 
f 98/2/6 97/3/6 105/19/6 
s 16
f 97/11/3 99/6/3 106/9/3 
f 106/9/3 105/10/3 97/11/3 
s 64
f 65/12/5 64/13/5 101/6/5 
f 101/6/5 94/14/5 65/12/5 
f 78/12/5 77/13/5 102/6/5 
f 102/6/5 98/14/5 78/12/5 
s 4
f 65/2/1 103/3/1 61/18/1 
f 61/18/1 60/17/1 65/2/1 
s 16
f 103/11/3 104/6/3 62/9/3 
f 62/9/3 61/10/3 103/11/3 
s 4
f 78/2/6 105/3/6 74/18/6 
f 74/18/6 73/17/6 78/2/6 
s 16
f 105/11/3 106/6/3 75/9/3 
f 75/9/3 74/10/3 105/11/3 
s 4
f 81/16/1 80/15/1 27/2/1 
f 27/2/1 30/3/1 81/16/1 
s 16
f 30/11/3 33/6/3 82/9/3 
f 82/9/3 81/10/3 30/11/3 
s 4
f 88/16/6 87/15/6 40/2/6 
f 40/2/6 43/3/6 88/16/6 
s 16
f 43/11/3 46/6/3 89/9/3 
f 89/9/3 88/10/3 43/11/3 
s 64
f 27/12/5 85/13/5 31/6/5 
f 31/6/5 28/14/5 27/12/5 
f 40/12/5 92/13/5 44/6/5 
f 44/6/5 41/14/5 40/12/5 
s 4
f 13/2/1 107/3/1 9/18/1 
f 9/18/1 8/17/1 13/2/1 
s 16
f 107/11/3 108/6/3 10/9/3 
f 10/9/3 9/10/3 107/11/3 
s 64
f 13/12/5 12/13/5 109/6/5 
f 109/6/5 110/14/5 13/12/5 
s 4
f 26/2/6 111/3/6 22/18/6 
f 22/18/6 21/17/6 26/2/6 
s 16
f 23/9/3 22/10/3 111/11/3 
f 111/11/3 112/6/3 23/9/3 
s 64
f 26/12/5 25/13/5 113/6/5 
f 113/6/5 114/14/5 26/12/5 
s 4
f 107/16/1 13/15/1 110/2/1 
f 110/2/1 115/3/1 107/16/1 
s 16
f 115/11/3 116/6/3 108/9/3 
f 108/9/3 107/10/3 115/11/3 
s 4
f 111/16/6 26/15/6 114/2/6 
f 114/2/6 117/3/6 111/16/6 
s 16
f 117/11/3 118/6/3 112/9/3 
f 112/9/3 111/10/3 117/11/3 
s 64
f 110/12/5 109/13/5 119/6/5 
f 119/6/5 1/14/5 110/12/5 
f 114/12/5 113/13/5 120/6/5 
f 120/6/5 14/14/5 114/12/5 
s 4
f 115/4/1 110/1/1 1/2/1 
f 1/2/1 4/3/1 115/4/1 
s 16
f 116/9/3 115/10/3 4/11/3 
f 4/11/3 7/6/3 116/9/3 
s 4
f 117/4/6 114/1/6 14/2/6 
f 14/2/6 17/3/6 117/4/6 
s 16
f 118/9/3 117/10/3 17/11/3 
f 17/11/3 20/6/3 118/9/3 
s 64
f 1/12/5 119/13/5 5/6/5 
f 5/6/5 2/14/5 1/12/5 
f 14/12/5 120/13/5 18/6/5 
f 18/6/5 15/14/5 14/12/5 
# 0 polygons - 168 triangles

