# 3ds Max Wavefront OBJ Exporter v0.97b - (c)2007 guruware
# File Created: 30.06.2017 19:45:48

#
# object Box001
#

v  -3.0037 0.0000 32.0005
v  -2.1026 0.0000 32.0005
v  -2.1026 -0.0500 0.0005
v  -3.0037 -0.0500 0.0005
v  3.0037 0.0000 32.0005
v  2.8535 -1.1500 32.0005
v  2.8535 -1.2000 0.0005
v  3.0037 -0.0500 0.0005
v  -3.0037 -0.0500 -31.9995
v  -2.8535 -1.2000 -31.9995
v  -2.8535 -1.2000 0.0005
v  2.7033 -0.0000 32.0005
v  2.7033 -0.0500 0.0005
v  3.0938 1.3000 32.0005
v  3.0938 1.2500 0.0005
v  2.6282 1.2500 0.0005
v  2.6282 1.3000 32.0005
v  3.0037 -0.0500 -31.9995
v  3.0938 1.2500 -31.9995
v  -2.7033 -0.0500 0.0005
v  -2.7033 0.0000 32.0005
v  -2.6282 1.3000 32.0005
v  -2.6282 1.2500 0.0005
v  -3.0938 1.2500 0.0005
v  -3.0938 1.3000 32.0005
v  -3.0938 1.2500 -31.9995
v  -2.1026 -0.0500 -31.9995
v  2.8535 -1.2000 -31.9995
v  -2.8535 -1.1500 32.0005
v  2.7033 -0.0500 -31.9995
v  2.6282 1.2500 -31.9995
v  -2.7033 -0.0500 -31.9995
v  -2.6282 1.2500 -31.9995
v  -2.8535 -65.2000 -31.9995
v  -2.8535 -65.2000 0.0005
v  -2.8535 -65.1500 32.0005
v  2.8535 -65.1500 32.0005
v  2.8535 -65.2000 0.0005
v  2.8535 -65.2000 -31.9995
v  0.0000 0.0000 32.0005
v  2.1026 0.0000 32.0005
v  2.1026 -0.0500 0.0005
v  -0.0000 -0.0500 0.0005
v  2.1026 -0.0500 -31.9995
v  -0.0000 -0.0500 -31.9995
# 45 vertices

vn -0.0000 1.0000 0.0000
vn 0.9404 -0.3401 -0.0000
vn -0.9403 -0.3405 0.0002
vn -0.0000 -1.0000 -0.0000
vn -0.9875 -0.1574 -0.0000
vn 0.9821 -0.1885 -0.0000
vn 0.9874 -0.1580 -0.0000
vn -0.9820 -0.1890 0.0003
vn -1.0000 -0.0005 -0.0000
vn -0.0001 -0.0004 1.0000
vn 1.0000 0.0000 -0.0000
vn 0.0000 -0.0001 -1.0000
# 12 vertex normals

vt 0.0000 0.0000 0.0000
vt 0.0210 0.0000 0.0000
vt 0.0210 0.5000 0.0000
vt 0.0000 0.5000 0.0000
vt 0.2123 0.0000 0.0000
vt 0.3158 -0.0000 0.0000
vt 0.3158 0.5000 0.0000
vt 0.2123 0.5000 0.0000
vt 1.0000 0.5000 0.0000
vt 1.0000 0.0000 0.0000
vt 0.7728 0.0000 0.0000
vt 0.7728 0.5000 0.0000
vt 0.8187 0.5000 0.0000
vt 0.8187 0.0000 0.0000
vt 0.7000 1.0000 0.0000
vt 0.7562 1.0000 0.0000
vt 0.7562 0.5000 0.0000
vt 0.7000 0.5000 0.0000
vt 0.0210 1.0000 0.0000
vt 0.0000 1.0000 0.0000
vt 0.3158 1.0000 0.0000
vt 0.2123 1.0000 0.0000
vt 1.0000 1.0000 0.0000
vt 0.7728 1.0000 0.0000
vt 0.8187 1.0000 0.0000
vt 0.7562 0.0000 0.0000
vt 0.7000 0.0000 0.0000
vt 0.0700 0.0000 0.0000
vt 0.1190 0.0000 0.0000
vt 0.1190 0.5000 0.0000
vt 0.0700 0.5000 0.0000
vt 0.1190 1.0000 0.0000
vt 0.0700 1.0000 0.0000
vt 0.1400 0.0000 0.0000
vt 0.1400 0.5000 0.0000
vt 0.1400 1.0000 0.0000
# 36 texture coords

g Box001
s 4
f 1/1/1 2/2/1 3/3/1 
f 3/3/1 4/4/1 1/1/1 
s 16
f 5/5/2 6/6/2 7/7/2 
f 7/7/2 8/8/2 5/5/2 
s 64
f 9/5/3 10/6/3 11/7/3 
f 11/7/3 4/8/3 9/5/3 
s 2
f 12/1/4 13/4/4 8/9/4 
f 8/9/4 5/10/4 12/1/4 
s 4
f 14/11/1 15/12/1 16/13/1 
f 16/13/1 17/14/1 14/11/1 
s 16
f 12/15/5 17/16/5 16/17/5 
f 16/17/5 13/18/5 12/15/5 
s 64
f 18/6/6 19/5/6 15/8/6 
f 15/8/6 8/7/6 18/6/6 
s 2
f 1/10/4 4/9/4 20/4/4 
f 20/4/4 21/1/4 1/10/4 
s 4
f 22/14/1 23/13/1 24/12/1 
f 24/12/1 25/11/1 22/14/1 
s 16
f 22/16/7 21/15/7 20/18/7 
f 20/18/7 23/17/7 22/16/7 
s 64
f 26/5/8 9/6/8 4/7/8 
f 4/7/8 24/8/8 26/5/8 
s 4
f 3/3/1 27/19/1 9/20/1 
f 9/20/1 4/4/1 3/3/1 
s 16
f 28/21/2 18/22/2 8/8/2 
f 8/8/2 7/7/2 28/21/2 
s 64
f 29/21/3 1/22/3 4/8/3 
f 4/8/3 11/7/3 29/21/3 
s 2
f 13/4/4 30/20/4 18/23/4 
f 18/23/4 8/9/4 13/4/4 
s 4
f 15/12/1 19/24/1 31/25/1 
f 31/25/1 16/13/1 15/12/1 
s 16
f 31/26/5 30/27/5 13/18/5 
f 13/18/5 16/17/5 31/26/5 
s 64
f 14/22/6 5/21/6 8/7/6 
f 8/7/6 15/8/6 14/22/6 
s 2
f 4/9/4 9/23/4 32/20/4 
f 32/20/4 20/4/4 4/9/4 
s 4
f 23/13/1 33/25/1 26/24/1 
f 26/24/1 24/12/1 23/13/1 
s 16
f 32/27/7 33/26/7 23/17/7 
f 23/17/7 20/18/7 32/27/7 
s 64
f 1/21/8 25/22/8 24/8/8 
f 24/8/8 4/7/8 1/21/8 
s off
f 34/23/9 35/9/9 11/9/9 
f 11/9/9 10/23/9 34/23/9 
f 35/9/9 36/10/9 29/10/9 
f 29/10/9 11/9/9 35/9/9 
f 37/1/10 6/1/10 29/10/10 
f 29/10/10 36/10/10 37/1/10 
f 37/1/11 38/4/11 7/4/11 
f 7/4/11 6/1/11 37/1/11 
f 38/4/11 39/20/11 28/20/11 
f 28/20/11 7/4/11 38/4/11 
f 34/23/12 10/23/12 28/20/12 
f 28/20/12 39/20/12 34/23/12 
s 4
f 40/28/1 41/29/1 42/30/1 
f 42/30/1 43/31/1 40/28/1 
f 43/31/1 42/30/1 44/32/1 
f 44/32/1 45/33/1 43/31/1 
f 41/29/1 5/34/1 8/35/1 
f 8/35/1 42/30/1 41/29/1 
f 42/30/1 8/35/1 18/36/1 
f 18/36/1 44/32/1 42/30/1 
f 2/2/1 40/28/1 43/31/1 
f 43/31/1 3/3/1 2/2/1 
f 3/3/1 43/31/1 45/33/1 
f 45/33/1 27/19/1 3/3/1 
# 68 faces

