# 3ds Max Wavefront OBJ Exporter v0.97b - (c)2007 guruware
# File Created: 30.06.2017 19:38:53

#
# object Box001
#

v  1.5018 -3.3678 -16.1585
v  1.9524 -1.1500 -15.9995
v  1.9524 -1.1500 0.0005
v  1.5018 -2.2107 0.0005
v  -1.5018 -3.3678 -16.1585
v  -1.5018 -2.2107 0.0005
v  -1.9524 -1.1500 0.0005
v  -1.9524 -1.1500 -15.9995
v  -2.8535 -1.1500 16.0005
v  -2.8535 -1.1500 0.0005
v  2.8535 -1.1500 0.0005
v  2.8535 -1.1500 16.0005
v  3.0037 0.0000 16.0005
v  3.0037 0.0000 0.0005
v  -3.0037 0.0000 0.0005
v  -3.0037 0.0000 16.0005
v  -2.8535 -1.1500 -15.9995
v  -3.0037 0.0000 -15.9995
v  2.7033 0.0000 16.0005
v  2.7033 0.0000 0.0005
v  3.0938 1.3000 16.0005
v  3.0938 1.3000 0.0005
v  2.6282 1.3000 0.0005
v  2.6282 1.3000 16.0005
v  3.0938 1.3000 -15.9995
v  3.0037 0.0000 -15.9995
v  -2.7033 0.0000 0.0005
v  -2.7033 0.0000 16.0005
v  -2.6282 1.3000 16.0005
v  -2.6282 1.3000 0.0005
v  -3.0938 1.3000 0.0005
v  -3.0938 1.3000 16.0005
v  -3.0938 1.3000 -15.9995
v  1.9524 -1.1500 16.0006
v  1.9524 -1.1500 32.0006
v  1.5018 -5.9000 32.0006
v  1.5018 -3.3678 16.1595
v  1.5018 -5.9000 -31.9995
v  1.9524 -1.1500 -31.9995
v  -1.5018 -3.3678 16.1594
v  -1.5018 -5.9000 32.0005
v  -1.9524 -1.1500 32.0005
v  -1.9524 -1.1500 16.0005
v  -1.9524 -1.1500 -31.9995
v  -1.5018 -5.9000 -31.9995
v  -2.8535 -1.1500 -31.9995
v  2.8535 -1.1500 -31.9995
v  2.8535 -1.1500 -15.9995
v  2.8535 -1.1500 32.0005
v  -2.8535 -1.1500 32.0005
v  3.0037 0.0000 -31.9995
v  -3.0037 0.0000 -31.9995
v  -3.0037 0.0000 32.0005
v  3.0037 0.0000 32.0005
v  2.7033 0.0000 -15.9995
v  2.7033 0.0000 -31.9995
v  2.7033 0.0000 32.0005
v  3.0938 1.3000 -31.9995
v  2.6282 1.3000 -31.9995
v  2.6282 1.3000 -15.9995
v  2.6282 1.3000 32.0005
v  3.0938 1.3000 32.0005
v  -2.7033 0.0000 -31.9995
v  -2.7033 0.0000 -15.9995
v  -2.7033 0.0000 32.0005
v  -2.6282 1.3000 -15.9995
v  -2.6282 1.3000 -31.9995
v  -3.0938 1.3000 -31.9995
v  -3.0938 1.3000 32.0005
v  -2.6282 1.3000 32.0005
# 70 vertices

vn 0.9804 -0.1894 0.0537
vn 0.9580 -0.2851 0.0303
vn 0.8394 -0.5427 0.0297
vn 0.9367 -0.3482 0.0364
vn -0.9805 -0.1895 0.0530
vn -0.9368 -0.3482 0.0358
vn -0.8394 -0.5427 0.0306
vn -0.9580 -0.2851 0.0297
vn 0.0000 -0.9772 0.2124
vn -0.0000 -1.0000 -0.0000
vn 0.0000 1.0000 -0.0000
vn 0.9403 -0.3402 -0.0000
vn -0.9403 -0.3403 0.0003
vn -0.9874 -0.1580 -0.0001
vn 0.9821 -0.1885 -0.0000
vn 0.9874 -0.1580 -0.0001
vn -0.9820 -0.1886 0.0003
vn 0.9538 -0.2968 -0.0475
vn 0.9888 -0.1491 -0.0000
vn 0.9947 -0.1020 -0.0146
vn 0.9807 -0.1832 -0.0682
vn 0.9947 -0.1020 0.0154
vn -0.9856 -0.1674 -0.0235
vn -0.9954 -0.0861 -0.0419
vn -0.9841 -0.1741 -0.0351
vn -0.9476 -0.3189 -0.0177
vn -0.9888 -0.1491 -0.0000
vn -0.9947 -0.1020 0.0146
vn 0.0000 -0.9744 -0.2247
vn -0.0000 -0.9770 -0.2130
vn 0.0000 -0.9746 0.2241
# 31 vertex normals

vt 0.6892 0.7500 0.0000
vt 0.3268 0.7500 0.0000
vt 0.3268 0.5000 0.0000
vt 0.6892 0.5000 0.0000
vt 0.6892 0.7524 0.0000
vt 0.6892 0.4999 0.0000
vt 0.2800 0.4999 0.0000
vt 0.2800 0.7524 0.0000
vt 1.0000 0.2500 0.0000
vt 1.0000 0.5000 0.0000
vt 0.0000 0.5000 0.0000
vt 0.0000 0.2500 0.0000
vt 0.1400 0.2500 0.0000
vt 0.1400 0.5000 0.0000
vt 0.3158 0.2500 0.0000
vt 0.3158 0.5000 0.0000
vt 0.2123 0.5000 0.0000
vt 0.2123 0.2500 0.0000
vt 0.7728 0.2500 0.0000
vt 0.7728 0.5000 0.0000
vt 0.8187 0.5000 0.0000
vt 0.8187 0.2500 0.0000
vt 0.7562 0.7500 0.0000
vt 0.7562 0.5000 0.0000
vt 0.7000 0.5000 0.0000
vt 0.7000 0.7500 0.0000
vt 0.3268 0.2500 0.0000
vt 0.3268 -0.0000 0.0000
vt 0.6892 -0.0000 0.0000
vt 0.6892 0.2500 0.0000
vt 0.6892 1.0000 0.0000
vt 0.3268 1.0000 0.0000
vt 0.6892 0.2475 0.0000
vt 0.2800 0.0000 0.0000
vt 0.2800 0.2475 0.0000
vt 0.2800 0.9999 0.0000
vt 0.6892 0.9999 0.0000
vt 1.0000 0.7500 0.0000
vt 1.0000 1.0000 0.0000
vt 0.0000 1.0000 0.0000
vt 0.0000 0.7500 0.0000
vt 0.0000 0.0000 0.0000
vt 1.0000 0.0000 0.0000
vt 0.1400 0.7500 0.0000
vt 0.1400 1.0000 0.0000
vt 0.1400 0.0000 0.0000
vt 0.3158 0.7500 0.0000
vt 0.3158 1.0000 0.0000
vt 0.2123 1.0000 0.0000
vt 0.2123 0.7500 0.0000
vt 0.2123 0.0000 0.0000
vt 0.3158 -0.0000 0.0000
vt 0.7728 0.7500 0.0000
vt 0.7728 1.0000 0.0000
vt 0.8187 1.0000 0.0000
vt 0.8187 0.7500 0.0000
vt 0.8187 0.0000 0.0000
vt 0.7728 0.0000 0.0000
vt 0.7562 0.2500 0.0000
vt 0.7562 0.0000 0.0000
vt 0.7000 0.0000 0.0000
vt 0.7000 0.2500 0.0000
vt 0.7000 1.0000 0.0000
vt 0.7562 1.0000 0.0000
# 64 texture coords

g Box001
s 16
f 1/1/1 2/2/2 3/3/3 
f 3/3/3 4/4/4 1/1/1 
s 64
f 5/1/5 6/4/6 7/3/7 
f 7/3/7 8/2/8 5/1/5 
s off
f 1/5/9 4/6/9 6/7/9 
f 6/7/9 5/8/9 1/5/9 
s 2
f 9/9/10 10/10/10 11/11/10 
f 11/11/10 12/12/10 9/9/10 
s 4
f 13/13/11 14/14/11 15/11/11 
f 15/11/11 16/12/11 13/13/11 
s 16
f 12/15/12 11/16/12 14/17/12 
f 14/17/12 13/18/12 12/15/12 
s 64
f 17/15/13 10/16/13 15/17/13 
f 15/17/13 18/18/13 17/15/13 
s 2
f 19/12/10 20/11/10 14/10/10 
f 14/10/10 13/9/10 19/12/10 
s 4
f 21/19/11 22/20/11 23/21/11 
f 23/21/11 24/22/11 21/19/11 
s 16
f 24/23/14 23/24/14 20/25/14 
f 20/25/14 19/26/14 24/23/14 
s 64
f 25/18/15 22/17/15 14/16/15 
f 14/16/15 26/15/15 25/18/15 
s 2
f 16/9/10 15/10/10 27/11/10 
f 27/11/10 28/12/10 16/9/10 
s 4
f 29/22/11 30/21/11 31/20/11 
f 31/20/11 32/19/11 29/22/11 
s 16
f 28/26/16 27/25/16 30/24/16 
f 30/24/16 29/23/16 28/26/16 
s 64
f 18/15/17 15/16/17 31/17/17 
f 31/17/17 33/18/17 18/15/17 
s 16
f 34/27/18 35/28/19 36/29/20 
f 36/29/20 37/30/21 34/27/18 
f 34/27/18 37/30/21 4/4/4 
f 4/4/4 3/3/3 34/27/18 
f 2/2/2 1/1/1 38/31/22 
f 38/31/22 39/32/19 2/2/2 
s 64
f 40/30/23 41/29/24 42/28/25 
f 42/28/25 43/27/26 40/30/23 
f 6/4/6 40/30/23 43/27/26 
f 43/27/26 7/3/7 6/4/6 
f 8/2/8 44/32/27 45/31/28 
f 45/31/28 5/1/5 8/2/8 
s off
f 37/33/29 36/29/29 41/34/29 
f 41/34/29 40/35/29 37/33/29 
f 4/6/30 37/33/30 40/35/30 
f 40/35/30 6/7/30 4/6/30 
f 5/8/31 45/36/31 38/37/31 
f 38/37/31 1/5/31 5/8/31 
s 2
f 17/38/10 46/39/10 47/40/10 
f 47/40/10 48/41/10 17/38/10 
f 10/10/10 17/38/10 48/41/10 
f 48/41/10 11/11/10 10/10/10 
f 12/12/10 49/42/10 50/43/10 
f 50/43/10 9/9/10 12/12/10 
s 4
f 26/44/11 51/45/11 52/40/11 
f 52/40/11 18/41/11 26/44/11 
f 14/14/11 26/44/11 18/41/11 
f 18/41/11 15/11/11 14/14/11 
f 16/12/11 53/42/11 54/46/11 
f 54/46/11 13/13/11 16/12/11 
s 16
f 48/47/12 47/48/12 51/49/12 
f 51/49/12 26/50/12 48/47/12 
f 11/16/12 48/47/12 26/50/12 
f 26/50/12 14/17/12 11/16/12 
f 13/18/12 54/51/12 49/52/12 
f 49/52/12 12/15/12 13/18/12 
s 64
f 9/47/13 50/48/13 53/49/13 
f 53/49/13 16/50/13 9/47/13 
f 10/16/13 9/47/13 16/50/13 
f 16/50/13 15/17/13 10/16/13 
f 18/18/13 52/51/13 46/52/13 
f 46/52/13 17/15/13 18/18/13 
s 2
f 55/41/10 56/40/10 51/39/10 
f 51/39/10 26/38/10 55/41/10 
f 20/11/10 55/41/10 26/38/10 
f 26/38/10 14/10/10 20/11/10 
f 13/9/10 54/43/10 57/42/10 
f 57/42/10 19/12/10 13/9/10 
s 4
f 25/53/11 58/54/11 59/55/11 
f 59/55/11 60/56/11 25/53/11 
f 22/20/11 25/53/11 60/56/11 
f 60/56/11 23/21/11 22/20/11 
f 24/22/11 61/57/11 62/58/11 
f 62/58/11 21/19/11 24/22/11 
s 16
f 60/59/14 59/60/14 56/61/14 
f 56/61/14 55/62/14 60/59/14 
f 23/24/14 60/59/14 55/62/14 
f 55/62/14 20/25/14 23/24/14 
f 19/26/14 57/63/14 61/64/14 
f 61/64/14 24/23/14 19/26/14 
s 64
f 21/50/15 62/49/15 54/48/15 
f 54/48/15 13/47/15 21/50/15 
f 22/17/15 21/50/15 13/47/15 
f 13/47/15 14/16/15 22/17/15 
f 26/15/15 51/52/15 58/51/15 
f 58/51/15 25/18/15 26/15/15 
s 2
f 18/38/10 52/39/10 63/40/10 
f 63/40/10 64/41/10 18/38/10 
f 15/10/10 18/38/10 64/41/10 
f 64/41/10 27/11/10 15/10/10 
f 28/12/10 65/42/10 53/43/10 
f 53/43/10 16/9/10 28/12/10 
s 4
f 66/56/11 67/55/11 68/54/11 
f 68/54/11 33/53/11 66/56/11 
f 30/21/11 66/56/11 33/53/11 
f 33/53/11 31/20/11 30/21/11 
f 32/19/11 69/58/11 70/57/11 
f 70/57/11 29/22/11 32/19/11 
s 16
f 64/62/16 63/61/16 67/60/16 
f 67/60/16 66/59/16 64/62/16 
f 27/25/16 64/62/16 66/59/16 
f 66/59/16 30/24/16 27/25/16 
f 29/23/16 70/64/16 65/63/16 
f 65/63/16 28/26/16 29/23/16 
s 64
f 16/47/17 53/48/17 69/49/17 
f 69/49/17 32/50/17 16/47/17 
f 15/16/17 16/47/17 32/50/17 
f 32/50/17 31/17/17 15/16/17 
f 33/18/17 68/51/17 52/52/17 
f 52/52/17 18/15/17 33/18/17 
# 120 faces

