# 3ds Max Wavefront OBJ Exporter v0.97b - (c)2007 guruware
# File Created: 20.08.2017 08:31:39

#
# object Box002
#

v  -1.3400 -2.2500 -34.5634
v  -1.3400 -2.2500 -2.5634
v  -2.6324 -2.2500 -2.5634
v  -2.6324 -2.2500 -34.5634
v  -1.3400 -2.2500 29.4366
v  -0.0476 -2.2500 -2.5634
v  -0.0476 -2.2500 29.4366
v  -0.0476 0.0000 -2.5634
v  -0.0476 -2.2500 -34.5634
v  -0.0476 0.0000 -34.5634
v  -0.0476 0.0000 29.4366
v  -2.6324 0.0000 -2.5634
v  -2.6324 -2.2500 29.4366
v  -2.6324 0.0000 29.4366
v  -2.6324 0.0000 -34.5634
v  -1.3400 0.0000 29.4335
v  -1.3400 0.0000 -2.5665
v  -4.3401 0.0000 -2.5665
v  -4.3401 0.0000 29.4335
v  -1.3400 0.0000 -34.5665
v  1.6601 0.0000 -2.5665
v  1.6601 0.0000 -34.5665
v  1.6601 0.0000 29.4335
v  -4.3401 0.0000 -34.5665
# 24 vertices

vn 0.0000 -1.0000 -0.0000
vn -0.5313 0.0000 0.8472
vn -0.1611 0.9816 -0.1021
vn -0.0000 -0.0313 -0.9995
vn 1.0000 0.0000 -0.0000
vn -1.0000 -0.0000 -0.0000
vn 1.0000 -0.0000 0.0000
vn 1.0000 0.0000 0.0000
vn -1.0000 0.0000 0.0000
vn -1.0000 0.0000 -0.0000
vn -0.0000 1.0000 0.0000
vn 0.0000 1.0000 0.0000
vn -0.0000 1.0000 -0.0000
vn 0.0000 1.0000 -0.0000
vn 0.0000 -1.0000 0.0000
vn 0.0000 -0.0313 -0.9995
# 16 vertex normals

vt 0.9427 0.5833 0.0000
vt 0.8205 -0.0001 0.0000
vt 0.7331 -0.0001 0.0000
vt 0.9775 0.6666 0.0000
vt 0.9427 0.3333 0.0000
vt 0.8205 0.0000 0.0000
vt 0.9079 0.5000 0.0000
vt 0.9079 0.0000 0.0000
vt 0.9535 1.0000 0.0000
vt 0.9535 0.0000 0.0000
vt 0.7331 0.0000 0.0000
vt 0.6759 0.5000 0.0000
vt 0.7331 -0.0000 0.0000
vt 0.9535 -0.0001 0.0000
vt 0.1169 0.2500 0.0000
vt 0.1952 1.0000 0.0000
vt -0.1567 1.0000 0.0000
vt -0.3134 0.0000 0.0000
vt 0.1953 1.0000 0.0000
vt 0.5472 0.5000 0.0000
vt 0.5472 1.0000 0.0000
vt 0.9079 -0.0001 0.0000
# 22 texture coords

g Box002
s 2
f 1/1/1 2/2/2 3/3/1 
f 3/3/1 4/4/1 1/1/1 
f 3/4/1 2/1/2 2/5/3 
f 5/6/1 2/1/3 6/7/4 
f 6/7/4 7/8/1 5/6/1 
s 16
f 8/4/5 6/9/6 9/10/5 
f 9/10/5 10/11/5 8/4/5 
f 6/12/6 8/13/5 6/9/7 
f 6/14/7 8/3/5 11/4/8 
f 11/4/8 7/9/8 6/14/7 
s 64
f 12/3/9 3/14/6 13/9/6 
f 13/9/6 14/4/10 12/3/9 
f 3/9/6 12/3/9 15/11/9 
f 15/11/9 4/10/9 3/9/6 
s 1
f 16/15/11 17/16/11 18/17/11 
f 18/17/11 19/18/12 16/15/11 
f 20/19/13 17/15/11 21/20/11 
f 21/20/11 22/21/14 20/19/13 
s 2
f 9/7/15 6/22/16 2/2/2 
f 2/2/2 1/1/1 9/7/15 
f 2/5/3 2/1/2 6/7/16 
f 6/7/16 6/22/4 2/5/3 
f 13/11/1 3/4/1 2/1/3 
f 2/1/3 5/6/1 13/11/1 
s 1
f 23/20/11 21/21/11 17/16/11 
f 17/16/11 16/15/11 23/20/11 
f 24/17/13 18/18/11 17/15/11 
f 17/15/11 20/19/13 24/17/13 
# 28 faces

