# 3ds Max Wavefront OBJ Exporter v0.97b - (c)2007 guruware
# File Created: 02.05.2017 23:59:31

#
# object Elevated_RailGuards
#

v  -0.3520 0.4001 15.9653
v  -0.3520 0.4001 11.0884
v  -0.6244 0.4001 11.0884
v  -0.6244 0.4001 15.9653
v  -0.3520 -0.3820 11.0884
v  -0.6244 -0.3820 11.0884
v  -0.6244 -0.3820 15.9653
v  -0.3520 0.4001 31.5653
v  -0.6244 0.4001 31.5653
v  -0.6244 -0.3820 31.5653
v  -0.3520 -0.3820 31.5653
v  -0.3520 -0.3820 26.6320
v  -0.3520 0.4001 26.6320
v  -0.3520 0.4001 -5.3681
v  -0.3520 0.4001 -10.2385
v  -0.6244 0.4001 -10.2385
v  -0.6244 0.4001 -5.3681
v  -0.3520 -0.3820 -10.2385
v  -0.6244 -0.3820 -10.2385
v  -0.6244 -0.3820 -5.3681
v  -0.3520 0.4001 10.1884
v  -0.6244 0.4001 10.1884
v  -0.6244 -0.3820 10.1884
v  -0.3520 -0.3820 10.1884
v  -0.3520 -0.3820 5.2985
v  -0.3520 0.4001 5.2985
v  -0.3520 0.4001 -26.7015
v  -0.3520 0.4001 -31.5653
v  -0.6244 0.4001 -31.5653
v  -0.6244 0.4001 -26.7015
v  -0.3520 -0.3820 -31.5653
v  -0.6244 -0.3820 -31.5653
v  -0.6244 -0.3820 -26.7015
v  -0.3520 0.4001 -11.1384
v  -0.6244 0.4001 -11.1384
v  -0.6244 -0.3820 -11.1384
v  -0.3520 -0.3820 -11.1384
v  -0.3520 -0.3820 -16.0348
v  -0.3520 0.4001 -16.0348
v  -0.6244 0.4001 5.2985
v  -0.3520 0.4001 -0.0348
v  -0.6244 0.4001 -0.0348
v  -0.6244 -0.3820 -0.0348
v  -0.6244 -0.3820 5.2985
v  -0.3520 -0.3820 -0.0348
v  -0.3520 -0.3820 -5.3681
v  -0.6244 0.4001 -16.0348
v  -0.6244 -0.3820 -16.0348
v  -0.3520 -0.3820 -21.3680
v  -0.3520 0.4001 -21.3680
v  -0.6244 0.4001 -21.3680
v  -0.6244 -0.3820 -21.3680
v  -0.3520 -0.3820 -26.7015
v  -0.6244 0.4001 21.2985
v  -0.3520 0.4001 21.2985
v  -0.6244 -0.3820 21.2985
v  -0.3520 -0.3820 15.9653
v  -0.3520 -0.3820 21.2985
v  -0.6244 0.4001 26.6320
v  -0.6244 -0.3820 26.6320
v  0.6244 0.4001 15.9653
v  0.6244 0.4001 11.0884
v  0.3520 0.4001 11.0884
v  0.3520 0.4001 15.9653
v  0.6244 -0.3820 11.0884
v  0.3520 -0.3820 11.0884
v  0.3520 -0.3820 15.9653
v  0.6244 0.4001 31.5653
v  0.3520 0.4001 31.5653
v  0.3520 -0.3820 31.5653
v  0.6244 -0.3820 31.5653
v  0.6244 -0.3820 26.6320
v  0.6244 0.4001 26.6320
v  0.6244 0.4001 -5.3681
v  0.6244 0.4001 -10.2385
v  0.3520 0.4001 -10.2385
v  0.3520 0.4001 -5.3681
v  0.6244 -0.3820 -10.2385
v  0.3520 -0.3820 -10.2385
v  0.3520 -0.3820 -5.3681
v  0.6244 0.4001 10.1884
v  0.3520 0.4001 10.1884
v  0.3520 -0.3820 10.1884
v  0.6244 -0.3820 10.1884
v  0.6244 -0.3820 5.2985
v  0.6244 0.4001 5.2985
v  0.6244 0.4001 -26.7015
v  0.6244 0.4001 -31.5653
v  0.3520 0.4001 -31.5653
v  0.3520 0.4001 -26.7015
v  0.6244 -0.3820 -31.5653
v  0.3520 -0.3820 -31.5653
v  0.3520 -0.3820 -26.7015
v  0.6244 0.4001 -11.1384
v  0.3520 0.4001 -11.1384
v  0.3520 -0.3820 -11.1384
v  0.6244 -0.3820 -11.1384
v  0.6244 -0.3820 -16.0348
v  0.6244 0.4001 -16.0348
v  0.3520 0.4001 5.2985
v  0.6244 0.4001 -0.0348
v  0.3520 0.4001 -0.0348
v  0.3520 -0.3820 -0.0348
v  0.3520 -0.3820 5.2985
v  0.6244 -0.3820 -0.0348
v  0.6244 -0.3820 -5.3681
v  0.3520 0.4001 -16.0348
v  0.3520 -0.3820 -16.0348
v  0.6244 -0.3820 -21.3680
v  0.6244 0.4001 -21.3680
v  0.3520 0.4001 -21.3680
v  0.3520 -0.3820 -21.3680
v  0.6244 -0.3820 -26.7015
v  0.3520 0.4001 21.2985
v  0.6244 0.4001 21.2985
v  0.3520 -0.3820 21.2985
v  0.6244 -0.3820 15.9653
v  0.6244 -0.3820 21.2985
v  0.3520 0.4001 26.6320
v  0.3520 -0.3820 26.6320
# 120 vertices

vn 0.0000 1.0000 -0.0000
vn 0.0000 0.0000 -1.0000
vn -1.0000 0.0000 -0.0000
vn 0.0000 0.0000 1.0000
vn 1.0000 0.0000 -0.0000
# 5 vertex normals

vt 0.3636 0.0000 0.0000
vt 0.3636 1.0000 0.0000
vt 0.2809 1.0000 0.0000
vt 0.2809 0.0000 0.0000
vt 0.2806 0.1345 0.0000
vt 0.3600 0.0720 0.0000
vt 0.3600 0.0000 0.0000
vt 0.2806 0.0000 0.0000
vt 0.3162 1.0000 0.0000
vt 0.2806 1.0000 0.0000
vt 0.3162 0.0000 0.0000
vt 0.3600 0.9283 0.0000
vt 0.2806 0.8658 0.0000
vt 0.2806 1.0003 0.0000
vt 0.3600 1.0003 0.0000
vt 0.2806 0.0003 0.0000
vt 0.3194 0.0003 0.0000
vt 0.3194 1.0003 0.0000
vt 0.3636 0.9997 0.0000
vt 0.2809 0.9997 0.0000
vt 0.2809 1.0003 0.0000
vt 0.3636 1.0003 0.0000
vt 0.3636 0.0003 0.0000
vt 0.2809 0.0003 0.0000
vt 0.3162 0.0003 0.0000
vt 0.3162 1.0003 0.0000
vt 0.3194 0.0000 0.0000
vt 0.3194 1.0000 0.0000
vt 0.3636 0.0006 0.0000
vt 0.2809 0.0006 0.0000
vt 0.3636 0.9994 0.0000
vt 0.2809 0.9994 0.0000
vt 0.3636 0.0009 0.0000
vt 0.2809 0.0009 0.0000
# 34 texture coords

g Elevated_RailGuards
s 4
f 1/1/1 2/2/1 3/3/1 
f 3/3/1 4/4/1 1/1/1 
s 8
f 3/5/2 2/6/2 5/7/2 
f 5/7/2 6/8/2 3/5/2 
s 16
f 3/9/3 6/10/3 7/8/3 
f 7/8/3 4/11/3 3/9/3 
s 32
f 8/12/4 9/13/4 10/14/4 
f 10/14/4 11/15/4 8/12/4 
s 64
f 12/16/5 13/17/5 8/18/5 
f 8/18/5 11/14/5 12/16/5 
s 4
f 14/1/1 15/2/1 16/3/1 
f 16/3/1 17/4/1 14/1/1 
s 8
f 16/5/2 15/6/2 18/7/2 
f 18/7/2 19/8/2 16/5/2 
s 16
f 16/9/3 19/10/3 20/8/3 
f 20/8/3 17/11/3 16/9/3 
s 32
f 21/6/4 22/5/4 23/8/4 
f 23/8/4 24/7/4 21/6/4 
s 64
f 21/18/5 24/14/5 25/16/5 
f 25/16/5 26/17/5 21/18/5 
s 4
f 27/1/1 28/2/1 29/3/1 
f 29/3/1 30/4/1 27/1/1 
s 8
f 29/5/2 28/6/2 31/7/2 
f 31/7/2 32/8/2 29/5/2 
s 16
f 29/9/3 32/10/3 33/8/3 
f 33/8/3 30/11/3 29/9/3 
s 32
f 34/6/4 35/5/4 36/8/4 
f 36/8/4 37/7/4 34/6/4 
s 64
f 34/18/5 37/14/5 38/16/5 
f 38/16/5 39/17/5 34/18/5 
s 4
f 40/4/1 26/1/1 41/19/1 
f 41/19/1 42/20/1 40/4/1 
s 16
f 42/9/3 43/10/3 44/8/3 
f 44/8/3 40/11/3 42/9/3 
s 64
f 41/18/5 45/14/5 46/16/5 
f 46/16/5 14/17/5 41/18/5 
s 4
f 42/21/1 41/22/1 14/23/1 
f 14/23/1 17/24/1 42/21/1 
s 16
f 17/25/3 20/16/3 43/14/3 
f 43/14/3 42/26/3 17/25/3 
s 64
f 14/27/5 46/8/5 18/10/5 
f 18/10/5 15/28/5 14/27/5 
s 4
f 39/23/1 47/24/1 35/21/1 
f 35/21/1 34/22/1 39/23/1 
s 16
f 47/25/3 48/16/3 36/14/3 
f 36/14/3 35/26/3 47/25/3 
s 64
f 39/27/5 38/8/5 49/10/5 
f 49/10/5 50/28/5 39/27/5 
s 4
f 47/4/1 39/1/1 50/2/1 
f 50/2/1 51/3/1 47/4/1 
s 16
f 51/9/3 52/10/3 48/8/3 
f 48/8/3 47/11/3 51/9/3 
s 64
f 50/18/5 49/14/5 53/16/5 
f 53/16/5 27/17/5 50/18/5 
s 4
f 51/21/1 50/22/1 27/1/1 
f 27/1/1 30/4/1 51/21/1 
s 16
f 30/25/3 33/16/3 52/14/3 
f 52/14/3 51/26/3 30/25/3 
s 64
f 27/27/5 53/8/5 31/10/5 
f 31/10/5 28/28/5 27/27/5 
f 26/27/5 25/8/5 45/10/5 
f 45/10/5 41/28/5 26/27/5 
s 4
f 26/29/1 40/30/1 22/21/1 
f 22/21/1 21/22/1 26/29/1 
s 16
f 40/25/3 44/16/3 23/14/3 
f 23/14/3 22/26/3 40/25/3 
s 4
f 54/21/1 55/22/1 1/29/1 
f 1/29/1 4/30/1 54/21/1 
s 16
f 4/25/3 7/16/3 56/14/3 
f 56/14/3 54/26/3 4/25/3 
s 64
f 1/27/5 57/8/5 5/10/5 
f 5/10/5 2/28/5 1/27/5 
f 55/18/5 58/14/5 57/16/5 
f 57/16/5 1/17/5 55/18/5 
s 4
f 59/4/1 13/1/1 55/31/1 
f 55/31/1 54/32/1 59/4/1 
s 16
f 54/9/3 56/10/3 60/8/3 
f 60/8/3 59/11/3 54/9/3 
s 64
f 58/10/5 55/28/5 13/27/5 
f 13/27/5 12/8/5 58/10/5 
s 4
f 13/33/1 59/34/1 9/21/1 
f 9/21/1 8/22/1 13/33/1 
s 16
f 59/25/3 60/16/3 10/14/3 
f 10/14/3 9/26/3 59/25/3 
s 4
f 61/1/1 62/2/1 63/3/1 
f 63/3/1 64/4/1 61/1/1 
s 8
f 63/5/2 62/6/2 65/7/2 
f 65/7/2 66/8/2 63/5/2 
s 16
f 63/9/3 66/10/3 67/8/3 
f 67/8/3 64/11/3 63/9/3 
s 32
f 68/12/4 69/13/4 70/14/4 
f 70/14/4 71/15/4 68/12/4 
s 64
f 72/16/5 73/17/5 68/18/5 
f 68/18/5 71/14/5 72/16/5 
s 4
f 74/1/1 75/2/1 76/3/1 
f 76/3/1 77/4/1 74/1/1 
s 8
f 76/5/2 75/6/2 78/7/2 
f 78/7/2 79/8/2 76/5/2 
s 16
f 76/9/3 79/10/3 80/8/3 
f 80/8/3 77/11/3 76/9/3 
s 32
f 81/6/4 82/5/4 83/8/4 
f 83/8/4 84/7/4 81/6/4 
s 64
f 81/18/5 84/14/5 85/16/5 
f 85/16/5 86/17/5 81/18/5 
s 4
f 87/1/1 88/2/1 89/3/1 
f 89/3/1 90/4/1 87/1/1 
s 8
f 89/5/2 88/6/2 91/7/2 
f 91/7/2 92/8/2 89/5/2 
s 16
f 89/9/3 92/10/3 93/8/3 
f 93/8/3 90/11/3 89/9/3 
s 32
f 94/6/4 95/5/4 96/8/4 
f 96/8/4 97/7/4 94/6/4 
s 64
f 94/18/5 97/14/5 98/16/5 
f 98/16/5 99/17/5 94/18/5 
s 4
f 100/4/1 86/1/1 101/19/1 
f 101/19/1 102/20/1 100/4/1 
s 16
f 102/9/3 103/10/3 104/8/3 
f 104/8/3 100/11/3 102/9/3 
s 64
f 101/18/5 105/14/5 106/16/5 
f 106/16/5 74/17/5 101/18/5 
s 4
f 102/21/1 101/22/1 74/23/1 
f 74/23/1 77/24/1 102/21/1 
s 16
f 77/25/3 80/16/3 103/14/3 
f 103/14/3 102/26/3 77/25/3 
s 64
f 74/27/5 106/8/5 78/10/5 
f 78/10/5 75/28/5 74/27/5 
s 4
f 99/23/1 107/24/1 95/21/1 
f 95/21/1 94/22/1 99/23/1 
s 16
f 107/25/3 108/16/3 96/14/3 
f 96/14/3 95/26/3 107/25/3 
s 64
f 99/27/5 98/8/5 109/10/5 
f 109/10/5 110/28/5 99/27/5 
s 4
f 107/4/1 99/1/1 110/2/1 
f 110/2/1 111/3/1 107/4/1 
s 16
f 111/9/3 112/10/3 108/8/3 
f 108/8/3 107/11/3 111/9/3 
s 64
f 110/18/5 109/14/5 113/16/5 
f 113/16/5 87/17/5 110/18/5 
s 4
f 111/21/1 110/22/1 87/1/1 
f 87/1/1 90/4/1 111/21/1 
s 16
f 90/25/3 93/16/3 112/14/3 
f 112/14/3 111/26/3 90/25/3 
s 64
f 87/27/5 113/8/5 91/10/5 
f 91/10/5 88/28/5 87/27/5 
f 86/27/5 85/8/5 105/10/5 
f 105/10/5 101/28/5 86/27/5 
s 4
f 86/29/1 100/30/1 82/21/1 
f 82/21/1 81/22/1 86/29/1 
s 16
f 100/25/3 104/16/3 83/14/3 
f 83/14/3 82/26/3 100/25/3 
s 4
f 114/21/1 115/22/1 61/29/1 
f 61/29/1 64/30/1 114/21/1 
s 16
f 64/25/3 67/16/3 116/14/3 
f 116/14/3 114/26/3 64/25/3 
s 64
f 61/27/5 117/8/5 65/10/5 
f 65/10/5 62/28/5 61/27/5 
f 115/18/5 118/14/5 117/16/5 
f 117/16/5 61/17/5 115/18/5 
s 4
f 119/4/1 73/1/1 115/31/1 
f 115/31/1 114/32/1 119/4/1 
s 16
f 114/9/3 116/10/3 120/8/3 
f 120/8/3 119/11/3 114/9/3 
s 64
f 118/10/5 115/28/5 73/27/5 
f 73/27/5 72/8/5 118/10/5 
s 4
f 73/33/1 119/34/1 69/21/1 
f 69/21/1 68/22/1 73/33/1 
s 16
f 119/25/3 120/16/3 70/14/3 
f 70/14/3 69/26/3 119/25/3 
# 168 faces

