# 3ds Max Wavefront OBJ Exporter v0.97b - (c)2007 guruware
# File Created: 16.08.2017 07:47:07

#
# object Elevated_Station_Node_Fence
#

v  -2.6501 2.5000 5.3333
v  -2.8001 2.5750 5.3333
v  -2.6501 2.5000 0.0000
v  -2.8001 2.5750 0.0000
v  -2.6501 2.5000 10.6667
v  -2.8001 2.5750 10.6667
v  -2.6501 2.5000 16.0000
v  -2.8001 2.5750 16.0000
v  -2.6501 2.5000 21.3333
v  -2.8001 2.5750 21.3333
v  -2.6501 2.5000 26.6667
v  -2.8001 2.5750 26.6667
v  -2.6501 2.5000 32.0000
v  -2.8001 2.5750 32.0000
v  -2.6501 2.6500 0.0000
v  -2.6501 2.6500 5.3333
v  -2.6501 2.6500 10.6667
v  -2.6501 2.6500 16.0000
v  -2.6501 2.6500 21.3333
v  -2.6501 2.6500 26.6667
v  -2.6501 2.6500 32.0000
v  -2.6949 2.1000 5.3333
v  -2.7553 2.1451 5.3333
v  -2.6949 2.1000 0.0000
v  -2.7553 2.1451 0.0000
v  -2.6949 2.1000 10.6667
v  -2.7553 2.1451 10.6667
v  -2.6949 2.1000 16.0000
v  -2.7553 2.1451 16.0000
v  -2.6949 2.1000 21.3333
v  -2.7553 2.1451 21.3333
v  -2.6949 2.1000 26.6667
v  -2.7553 2.1451 26.6667
v  -2.6949 2.1000 32.0000
v  -2.7553 2.1451 32.0000
v  -2.6949 2.1902 0.0000
v  -2.6949 2.1902 5.3333
v  -2.6949 2.1902 10.6667
v  -2.6949 2.1902 16.0000
v  -2.6949 2.1902 21.3333
v  -2.6949 2.1902 26.6667
v  -2.6949 2.1902 32.0000
v  2.7999 2.5750 5.3333
v  2.6499 2.5000 5.3333
v  2.7999 2.5750 -0.0000
v  2.6499 2.5000 -0.0000
v  2.7999 2.5750 10.6667
v  2.6499 2.5000 10.6667
v  2.7999 2.5750 16.0000
v  2.6499 2.5000 16.0000
v  2.7999 2.5750 21.3333
v  2.6499 2.5000 21.3333
v  2.7999 2.5750 26.6667
v  2.6499 2.5000 26.6667
v  2.7999 2.5750 32.0000
v  2.6499 2.5000 32.0000
v  2.6499 2.6500 -0.0000
v  2.6499 2.6500 5.3333
v  2.6499 2.6500 10.6667
v  2.6499 2.6500 16.0000
v  2.6499 2.6500 21.3333
v  2.6499 2.6500 26.6667
v  2.6499 2.6500 32.0000
v  2.7551 2.1451 5.3333
v  2.6947 2.1000 5.3333
v  2.7551 2.1451 -0.0000
v  2.6947 2.1000 -0.0000
v  2.7551 2.1451 10.6667
v  2.6947 2.1000 10.6667
v  2.7551 2.1451 16.0000
v  2.6947 2.1000 16.0000
v  2.7551 2.1451 21.3333
v  2.6947 2.1000 21.3333
v  2.7551 2.1451 26.6667
v  2.6947 2.1000 26.6667
v  2.7551 2.1451 32.0000
v  2.6947 2.1000 32.0000
v  2.6947 2.1902 -0.0000
v  2.6947 2.1902 5.3333
v  2.6947 2.1902 10.6667
v  2.6947 2.1902 16.0000
v  2.6947 2.1902 21.3333
v  2.6947 2.1902 26.6667
v  2.6947 2.1902 32.0000
v  2.6749 2.5749 -0.0000
v  2.7749 1.2580 0.1998
v  2.6749 1.2580 -0.0000
v  2.7749 2.5749 0.1998
v  2.6749 2.5749 0.3996
v  2.6749 1.2580 0.3996
v  -2.7751 1.2580 0.1998
v  -2.7751 2.5749 0.1998
v  -2.6751 1.2580 0.0000
v  -2.6751 2.5749 0.0000
v  -2.6751 1.2580 0.3996
v  -2.6751 2.5749 0.3996
v  2.6749 2.5749 10.4666
v  2.7749 1.2580 10.6664
v  2.6749 1.2580 10.4666
v  2.7749 2.5749 10.6664
v  2.6749 2.5749 10.8662
v  2.6749 1.2580 10.8662
v  -2.7751 1.2580 10.6664
v  -2.7751 2.5749 10.6664
v  -2.6751 1.2580 10.4666
v  -2.6751 2.5749 10.4666
v  -2.6751 1.2580 10.8662
v  -2.6751 2.5749 10.8662
v  2.6749 2.5749 21.1332
v  2.7749 1.2580 21.3330
v  2.6749 1.2580 21.1332
v  2.7749 2.5749 21.3330
v  2.6749 2.5749 21.5328
v  2.6749 1.2580 21.5328
v  -2.7751 1.2580 21.3330
v  -2.7751 2.5749 21.3330
v  -2.6751 1.2580 21.1332
v  -2.6751 2.5749 21.1332
v  -2.6751 1.2580 21.5328
v  -2.6751 2.5749 21.5328
v  2.6749 2.5749 31.7998
v  2.7749 1.2580 31.9996
v  2.6749 1.2580 31.7998
v  2.7749 2.5749 31.9996
v  2.6749 2.5749 32.1994
v  2.6749 1.2580 32.1994
v  -2.7751 1.2580 31.9996
v  -2.7751 2.5749 31.9996
v  -2.6751 1.2580 31.7998
v  -2.6751 2.5749 31.7998
v  -2.6751 1.2580 32.1994
v  -2.6751 2.5749 32.1994
# 132 vertices

vn 0.5257 -0.8507 -0.0000
vn -1.0000 0.0000 0.0000
vn 0.4367 -0.7066 0.5568
vn -0.8346 0.0000 0.5509
vn 0.5257 0.8507 -0.0000
vn 0.4367 0.7066 0.5568
vn 0.4482 -0.8940 -0.0000
vn 0.3740 -0.7461 0.5509
vn -0.8260 0.0000 0.5637
vn 0.4482 0.8940 -0.0000
vn 0.3740 0.7461 0.5509
vn 1.0000 -0.0000 -0.0000
vn -0.5257 -0.8507 0.0000
vn 0.8346 -0.0000 0.5509
vn -0.4367 -0.7066 0.5568
vn -0.5257 0.8507 0.0000
vn -0.4367 0.7066 0.5568
vn -0.4482 -0.8940 0.0000
vn 0.8260 -0.0000 0.5637
vn -0.3740 -0.7461 0.5509
vn -0.4482 0.8940 0.0000
vn -0.3740 0.7461 0.5509
vn -0.2299 0.0000 -0.9732
vn -0.2299 0.0000 0.9732
vn 0.2299 -0.0000 -0.9732
vn 0.2299 -0.0000 0.9732
# 26 vertex normals

vt 1.0081 0.0632 0.0000
vt 0.9890 0.0632 0.0000
vt 0.9988 0.9998 0.0000
vt 0.9805 0.9998 0.0000
vt 1.0018 0.0632 0.0000
vt 0.9803 1.0013 0.0000
vt 0.9805 0.9999 0.0000
vt 1.0083 0.0632 0.0000
vt 0.9891 0.0632 0.0000
vt 0.9991 1.0006 0.0000
vt 0.9808 1.0006 0.0000
vt 0.9991 1.0010 0.0000
vt 0.9808 1.0010 0.0000
vt 0.9991 1.0012 0.0000
vt 0.9808 1.0012 0.0000
vt 0.9991 1.0013 0.0000
vt 0.9808 1.0013 0.0000
vt 0.9967 0.8873 0.0000
vt 0.9892 0.8873 0.0000
vt 0.9967 0.0034 0.0000
vt 0.9892 0.0034 0.0000
vt 0.9964 0.8866 0.0000
vt 0.9890 0.8866 0.0000
vt 0.9964 0.0027 0.0000
vt 0.9890 0.0027 0.0000
vt 0.9896 0.9999 0.0000
vt 0.9887 0.0632 0.0000
vt 0.9803 0.9998 0.0000
vt 0.9991 1.0003 0.0000
vt 0.9805 1.0003 0.0000
vt 0.9985 0.0632 0.0000
vt 0.9988 0.9999 0.0000
# 32 texture coords

g Elevated_Station_Node_Fence
s 1
f 1/1/1 2/2/2 3/3/1 
f 4/4/2 3/3/1 2/2/2 
f 5/5/1 6/2/2 1/6/1 
f 2/7/2 1/6/1 6/2/2 
f 7/8/1 8/9/2 5/10/1 
f 6/11/2 5/10/1 8/9/2 
f 9/8/1 10/9/2 7/12/1 
f 8/13/2 7/12/1 10/9/2 
f 11/8/1 12/9/2 9/14/1 
f 10/15/2 9/14/1 12/9/2 
f 13/8/3 14/9/4 11/16/1 
f 12/17/2 11/16/1 14/9/4 
f 4/4/2 2/2/2 15/3/5 
f 16/1/5 15/3/5 2/2/2 
f 2/7/2 6/2/2 16/6/5 
f 17/5/5 16/6/5 6/2/2 
f 6/11/2 8/9/2 17/10/5 
f 18/8/5 17/10/5 8/9/2 
f 8/13/2 10/9/2 18/12/5 
f 19/8/5 18/12/5 10/9/2 
f 10/15/2 12/9/2 19/14/5 
f 20/8/5 19/14/5 12/9/2 
f 12/17/2 14/9/4 20/16/5 
f 21/8/6 20/16/5 14/9/4 
f 13/2/3 21/5/6 14/6/4 
f 11/18/1 20/19/5 13/20/3 
f 21/21/6 13/20/3 20/19/5 
f 9/18/1 19/19/5 11/20/1 
f 20/21/5 11/20/1 19/19/5 
f 7/18/1 18/19/5 9/20/1 
f 19/21/5 9/20/1 18/19/5 
f 5/18/1 17/19/5 7/20/1 
f 18/21/5 7/20/1 17/19/5 
f 1/22/1 16/23/5 5/24/1 
f 17/25/5 5/24/1 16/23/5 
f 3/22/1 15/23/5 1/24/1 
f 16/25/5 1/24/1 15/23/5 
f 22/1/7 23/2/2 24/3/7 
f 25/4/2 24/3/7 23/2/2 
f 26/5/7 27/2/2 22/26/7 
f 23/7/2 22/26/7 27/2/2 
f 28/8/7 29/9/2 26/10/7 
f 27/11/2 26/10/7 29/9/2 
f 30/8/7 31/9/2 28/12/7 
f 29/13/2 28/12/7 31/9/2 
f 32/8/7 33/9/2 30/14/7 
f 31/15/2 30/14/7 33/9/2 
f 34/8/8 35/9/9 32/16/7 
f 33/17/2 32/16/7 35/9/9 
f 25/4/2 23/2/2 36/3/10 
f 37/1/10 36/3/10 23/2/2 
f 23/7/2 27/2/2 37/26/10 
f 38/5/10 37/26/10 27/2/2 
f 27/11/2 29/9/2 38/10/10 
f 39/8/10 38/10/10 29/9/2 
f 29/13/2 31/9/2 39/12/10 
f 40/8/10 39/12/10 31/9/2 
f 31/15/2 33/9/2 40/14/10 
f 41/8/10 40/14/10 33/9/2 
f 33/17/2 35/9/9 41/16/10 
f 42/8/11 41/16/10 35/9/9 
f 34/2/8 42/5/11 35/26/9 
f 32/18/7 41/19/10 34/20/8 
f 42/21/11 34/20/8 41/19/10 
f 30/18/7 40/19/10 32/20/7 
f 41/21/10 32/20/7 40/19/10 
f 28/18/7 39/19/10 30/20/7 
f 40/21/10 30/20/7 39/19/10 
f 26/18/7 38/19/10 28/20/7 
f 39/21/10 28/20/7 38/19/10 
f 22/22/7 37/23/10 26/24/7 
f 38/25/10 26/24/7 37/23/10 
f 24/22/7 36/23/10 22/24/7 
f 37/25/10 22/24/7 36/23/10 
f 43/1/12 44/2/13 45/3/12 
f 46/4/13 45/3/12 44/2/13 
f 47/1/12 48/27/13 43/6/12 
f 44/7/13 43/6/12 48/27/13 
f 49/8/12 50/9/13 47/10/12 
f 48/11/13 47/10/12 50/9/13 
f 51/8/12 52/9/13 49/12/12 
f 50/13/13 49/12/12 52/9/13 
f 53/8/12 54/9/13 51/14/12 
f 52/15/13 51/14/12 54/9/13 
f 55/8/14 56/9/15 53/16/12 
f 54/17/13 53/16/12 56/9/15 
f 57/4/16 58/2/16 45/3/12 
f 43/1/12 45/3/12 58/2/16 
f 58/7/16 59/27/16 43/6/12 
f 47/1/12 43/6/12 59/27/16 
f 59/11/16 60/9/16 47/10/12 
f 49/8/12 47/10/12 60/9/16 
f 60/13/16 61/9/16 49/12/12 
f 51/8/12 49/12/12 61/9/16 
f 61/15/16 62/9/16 51/14/12 
f 53/8/12 51/14/12 62/9/16 
f 62/17/16 63/9/17 53/16/12 
f 55/8/14 53/16/12 63/9/17 
f 44/1/13 58/27/16 46/3/13 
f 57/28/16 46/3/13 58/27/16 
f 48/1/13 59/27/16 44/3/13 
f 58/28/16 44/3/13 59/27/16 
f 50/8/13 60/27/16 48/29/13 
f 59/30/16 48/29/13 60/27/16 
f 52/8/13 61/27/16 50/29/13 
f 60/30/16 50/29/13 61/27/16 
f 54/8/13 62/27/16 52/29/13 
f 61/30/16 52/29/13 62/27/16 
f 56/8/15 63/27/17 54/29/13 
f 62/30/16 54/29/13 63/27/17 
f 63/6/17 56/7/15 55/1/14 
f 64/1/12 65/2/18 66/3/12 
f 67/4/18 66/3/12 65/2/18 
f 68/31/12 69/2/18 64/32/12 
f 65/26/18 64/32/12 69/2/18 
f 70/8/12 71/9/18 68/10/12 
f 69/11/18 68/10/12 71/9/18 
f 72/8/12 73/9/18 70/12/12 
f 71/13/18 70/12/12 73/9/18 
f 74/8/12 75/9/18 72/14/12 
f 73/15/18 72/14/12 75/9/18 
f 76/8/19 77/9/20 74/16/12 
f 75/17/18 74/16/12 77/9/20 
f 78/4/21 79/2/21 66/3/12 
f 64/1/12 66/3/12 79/2/21 
f 79/26/21 80/2/21 64/32/12 
f 68/31/12 64/32/12 80/2/21 
f 80/11/21 81/9/21 68/10/12 
f 70/8/12 68/10/12 81/9/21 
f 81/13/21 82/9/21 70/12/12 
f 72/8/12 70/12/12 82/9/21 
f 82/15/21 83/9/21 72/14/12 
f 74/8/12 72/14/12 83/9/21 
f 83/17/21 84/9/22 74/16/12 
f 76/8/19 74/16/12 84/9/22 
f 65/1/18 79/27/21 67/3/18 
f 78/28/21 67/3/18 79/27/21 
f 69/1/18 80/27/21 65/3/18 
f 79/28/21 65/3/18 80/27/21 
f 71/8/18 81/2/21 69/29/18 
f 80/30/21 69/29/18 81/2/21 
f 73/8/18 82/2/21 71/29/18 
f 81/30/21 71/29/18 82/2/21 
f 75/8/18 83/2/21 73/29/18 
f 82/30/21 73/29/18 83/2/21 
f 77/8/20 84/2/22 75/29/18 
f 83/30/21 75/29/18 84/2/22 
f 84/32/22 77/26/20 76/31/19 
f 85/31/23 86/26/12 87/7/23 
f 86/26/12 85/31/23 88/1/12 
f 89/31/24 87/26/23 90/7/24 
f 87/26/23 89/31/24 85/1/23 
f 88/31/12 90/26/24 86/7/12 
f 90/26/24 88/31/12 89/1/24 
f 91/26/2 92/2/2 93/32/25 
f 94/31/25 93/32/25 92/2/2 
f 95/26/26 96/2/26 91/32/2 
f 92/31/2 91/32/2 96/2/26 
f 93/31/25 94/32/25 95/2/26 
f 96/26/26 95/2/26 94/32/25 
f 97/31/23 98/26/12 99/7/23 
f 98/26/12 97/31/23 100/1/12 
f 101/31/24 99/26/23 102/7/24 
f 99/26/23 101/31/24 97/1/23 
f 100/31/12 102/26/24 98/7/12 
f 102/26/24 100/31/12 101/1/24 
f 103/26/2 104/2/2 105/32/25 
f 106/31/25 105/32/25 104/2/2 
f 107/26/26 108/2/26 103/32/2 
f 104/31/2 103/32/2 108/2/26 
f 105/31/25 106/32/25 107/2/26 
f 108/26/26 107/2/26 106/32/25 
f 109/31/23 110/26/12 111/7/23 
f 110/26/12 109/31/23 112/1/12 
f 113/31/24 111/26/23 114/7/24 
f 111/26/23 113/31/24 109/1/23 
f 112/31/12 114/26/24 110/7/12 
f 114/26/24 112/31/12 113/1/24 
f 115/26/2 116/2/2 117/32/25 
f 118/31/25 117/32/25 116/2/2 
f 119/26/26 120/2/26 115/32/2 
f 116/31/2 115/32/2 120/2/26 
f 117/31/25 118/32/25 119/2/26 
f 120/26/26 119/2/26 118/32/25 
f 121/31/23 122/26/12 123/7/23 
f 122/26/12 121/31/23 124/1/12 
f 125/31/24 123/26/23 126/7/24 
f 123/26/23 125/31/24 121/1/23 
f 124/31/12 126/26/24 122/7/12 
f 126/26/24 124/31/12 125/1/24 
f 127/26/2 128/2/2 129/32/25 
f 130/31/25 129/32/25 128/2/2 
f 131/26/26 132/2/26 127/32/2 
f 128/31/2 127/32/2 132/2/26 
f 129/31/25 130/32/25 131/2/26 
f 132/26/26 131/2/26 130/32/25 
# 196 faces

