# 3ds Max Wavefront OBJ Exporter v0.97b - (c)2007 guruware
# File Created: 19.08.2017 23:32:24

#
# object Box001
#

v  -1.2924 -2.2500 0.0042
v  1.2924 -2.2500 0.0042
v  1.2924 -2.2500 16.0042
v  -1.2924 -2.2500 16.0042
v  1.2924 0.0000 0.0042
v  1.2924 0.0000 16.0042
v  -1.2924 0.0000 0.0042
v  -1.2924 0.0000 -15.9958
v  -1.2924 -2.2500 -15.9958
v  -3.0001 0.0000 0.0011
v  3.0001 0.0000 0.0011
v  3.0001 0.0000 -15.9989
v  -3.0001 0.0000 -15.9989
v  -1.2924 -2.2500 -31.9958
v  1.2924 -2.2500 -31.9958
v  1.2924 -2.2500 -15.9958
v  1.2924 -2.2500 32.0042
v  -1.2924 -2.2500 32.0042
v  1.2924 0.0000 -31.9958
v  1.2924 0.0000 -15.9958
v  1.2924 0.0000 32.0042
v  -1.2924 0.0000 32.0042
v  -1.2924 0.0000 16.0042
v  -1.2924 0.0000 -31.9958
v  -3.0001 0.0000 32.0011
v  3.0001 0.0000 32.0011
v  3.0001 0.0000 16.0011
v  -3.0001 0.0000 16.0011
v  3.0001 0.0000 -31.9989
v  -3.0001 0.0000 -31.9989
# 30 vertices

vn 0.0000 -1.0000 -0.0000
vn 1.0000 0.0000 -0.0000
vn -1.0000 0.0000 -0.0000
vn 0.0000 1.0000 -0.0000
# 4 vertex normals

vt 0.7331 1.0000 0.0000
vt 0.9079 1.0000 0.0000
vt 0.9079 -0.0000 0.0000
vt 0.7331 -0.0000 0.0000
vt 0.9535 -0.0001 0.0000
vt 0.7331 -0.0001 0.0000
vt 0.9535 1.0000 0.0000
vt 0.9535 -0.0000 0.0000
vt -0.1567 0.0000 0.0000
vt 0.5472 0.0000 0.0000
vt 0.5472 1.0000 0.0000
vt -0.1567 1.0000 0.0000
vt 0.9079 -0.0001 0.0000
vt 0.9079 0.0000 0.0000
vt 0.7331 0.0000 0.0000
vt 0.9535 0.0000 0.0000
# 16 texture coords

g Box001
s 2
f 1/1/1 2/2/1 3/3/1 
f 3/3/1 4/4/1 1/1/1 
s 16
f 2/5/2 5/6/2 6/1/2 
f 6/1/2 3/7/2 2/5/2 
s 64
f 1/7/3 7/1/3 8/4/3 
f 8/4/3 9/8/3 1/7/3 
s 1
f 10/9/4 11/10/4 12/11/4 
f 12/11/4 13/12/4 10/9/4 
s 2
f 14/1/1 15/2/1 16/13/1 
f 16/13/1 9/6/1 14/1/1 
f 9/1/1 16/2/1 2/13/1 
f 2/13/1 1/6/1 9/1/1 
f 17/14/1 18/15/1 4/1/1 
f 4/1/1 3/2/1 17/14/1 
s 16
f 15/16/2 19/15/2 20/1/2 
f 20/1/2 16/7/2 15/16/2 
f 16/8/2 20/4/2 5/1/2 
f 5/1/2 2/7/2 16/8/2 
f 21/1/1 17/7/1 3/5/2 
f 3/5/2 6/6/1 21/1/1 
s 64
f 18/7/3 22/1/3 23/6/3 
f 23/6/3 4/5/3 18/7/3 
f 4/7/1 23/1/1 7/6/3 
f 7/6/3 1/5/1 4/7/1 
f 24/15/3 14/16/3 9/7/3 
f 9/7/3 8/1/3 24/15/3 
s 1
f 25/9/4 26/10/4 27/11/4 
f 27/11/4 28/12/4 25/9/4 
f 28/9/4 27/10/4 11/11/4 
f 11/11/4 10/12/4 28/9/4 
f 29/11/4 30/12/4 13/9/4 
f 13/9/4 12/10/4 29/11/4 
# 32 faces

