# 3ds Max Wavefront OBJ Exporter v0.97b - (c)2007 guruware
# File Created: 16.08.2017 07:48:04

#
# object Elevated_Station_Node_Fence_Steel
#

v  2.8550 1.2676 26.6669
v  2.8044 1.2970 32.0003
v  2.8550 1.2676 32.0003
v  2.8044 1.2970 26.6669
v  2.8044 1.2384 26.6669
v  2.8044 1.2384 32.0003
v  2.8550 1.2676 21.3336
v  2.8044 1.2970 21.3336
v  2.8044 1.2384 21.3336
v  2.8550 1.2676 16.0003
v  2.8044 1.2970 16.0003
v  2.8044 1.2384 16.0003
v  2.8550 1.2676 10.6669
v  2.8044 1.2970 10.6669
v  2.8044 1.2384 10.6669
v  2.8550 1.2676 5.3336
v  2.8044 1.2970 5.3336
v  2.8044 1.2384 5.3336
v  2.8550 1.2676 0.0003
v  2.8044 1.2970 0.0003
v  2.8044 1.2384 0.0003
v  2.8550 0.6628 26.6669
v  2.8044 0.6920 32.0003
v  2.8550 0.6628 32.0003
v  2.8044 0.6920 26.6669
v  2.8044 0.6334 26.6669
v  2.8044 0.6334 32.0003
v  2.8550 0.6628 21.3336
v  2.8044 0.6920 21.3336
v  2.8044 0.6334 21.3336
v  2.8550 0.6628 16.0003
v  2.8044 0.6920 16.0003
v  2.8044 0.6334 16.0003
v  2.8550 0.6628 10.6669
v  2.8044 0.6920 10.6669
v  2.8044 0.6334 10.6669
v  2.8550 0.6628 5.3336
v  2.8044 0.6920 5.3336
v  2.8044 0.6334 5.3336
v  2.8550 0.6628 0.0003
v  2.8044 0.6920 0.0003
v  2.8044 0.6334 0.0003
v  -2.8554 1.2677 5.3336
v  -2.8048 1.2969 0.0003
v  -2.8554 1.2677 0.0003
v  -2.8048 1.2969 5.3336
v  -2.8048 1.2385 5.3336
v  -2.8048 1.2385 0.0003
v  -2.8554 1.2677 10.6670
v  -2.8048 1.2969 10.6670
v  -2.8048 1.2385 10.6670
v  -2.8554 1.2677 16.0003
v  -2.8048 1.2969 16.0003
v  -2.8048 1.2385 16.0003
v  -2.8554 1.2677 21.3337
v  -2.8048 1.2969 21.3337
v  -2.8048 1.2385 21.3337
v  -2.8554 1.2677 26.6670
v  -2.8048 1.2969 26.6670
v  -2.8048 1.2385 26.6670
v  -2.8554 1.2677 32.0003
v  -2.8048 1.2969 32.0003
v  -2.8048 1.2385 32.0003
v  -2.8554 0.6624 5.3336
v  -2.8048 0.6918 0.0003
v  -2.8554 0.6624 0.0003
v  -2.8048 0.6918 5.3336
v  -2.8048 0.6332 5.3336
v  -2.8048 0.6332 0.0003
v  -2.8554 0.6624 10.6670
v  -2.8048 0.6918 10.6670
v  -2.8048 0.6332 10.6670
v  -2.8554 0.6624 16.0003
v  -2.8048 0.6918 16.0003
v  -2.8048 0.6332 16.0003
v  -2.8554 0.6624 21.3337
v  -2.8048 0.6918 21.3337
v  -2.8048 0.6332 21.3337
v  -2.8554 0.6624 26.6670
v  -2.8048 0.6918 26.6670
v  -2.8048 0.6332 26.6670
v  -2.8554 0.6624 32.0003
v  -2.8048 0.6918 32.0003
v  -2.8048 0.6332 32.0003
v  2.8210 1.2685 19.9417
v  2.9226 -0.2558 19.9999
v  2.8210 -0.2558 19.9417
v  2.9226 1.2685 19.9999
v  2.8210 1.2685 20.0581
v  2.8210 -0.2558 20.0581
v  2.8210 1.2685 9.2750
v  2.9226 -0.2558 9.3332
v  2.8210 -0.2558 9.2750
v  2.9226 1.2685 9.3332
v  2.8210 1.2685 9.3914
v  2.8210 -0.2558 9.3914
v  2.8210 1.2685 30.6083
v  2.9226 -0.2558 30.6665
v  2.8210 -0.2558 30.6083
v  2.9226 1.2685 30.6665
v  2.8210 1.2685 30.7247
v  2.8210 -0.2558 30.7247
v  2.8210 1.2685 -0.0577
v  2.9226 -0.2558 0.0005
v  2.8210 -0.2558 -0.0577
v  2.9226 1.2685 0.0005
v  2.8210 1.2685 0.0587
v  2.8210 -0.2558 0.0587
v  -2.8215 1.2689 20.0581
v  -2.9231 -0.2563 19.9999
v  -2.8215 -0.2563 20.0581
v  -2.9231 1.2689 19.9999
v  -2.8215 1.2689 19.9417
v  -2.8215 -0.2563 19.9417
v  -2.8215 1.2689 9.3914
v  -2.9231 -0.2563 9.3332
v  -2.8215 -0.2563 9.3914
v  -2.9231 1.2689 9.3332
v  -2.8215 1.2689 9.2750
v  -2.8215 -0.2563 9.2750
v  -2.8215 1.2689 30.7247
v  -2.9231 -0.2563 30.6665
v  -2.8215 -0.2563 30.7247
v  -2.9231 1.2689 30.6665
v  -2.8215 1.2689 30.6083
v  -2.8215 -0.2563 30.6083
v  -2.8215 1.2689 0.0587
v  -2.9231 -0.2563 0.0005
v  -2.8215 -0.2563 0.0587
v  -2.9231 1.2689 0.0005
v  -2.8215 1.2689 -0.0577
v  -2.8215 -0.2563 -0.0577
# 132 vertices

vn 1.0000 -0.0015 -0.0000
vn -0.4988 0.8667 0.0000
vn -0.5001 -0.8660 0.0000
vn 0.0000 0.0000 1.0000
vn 1.0000 0.0015 -0.0000
vn -0.5001 0.8660 0.0000
vn -0.4988 -0.8667 0.0000
vn -1.0000 0.0000 0.0000
vn 0.5001 0.8660 -0.0000
vn 0.5001 -0.8660 -0.0000
vn -1.0000 -0.0015 0.0000
vn 0.4988 0.8667 -0.0000
vn -0.5015 0.0000 -0.8652
vn 1.0000 -0.0000 -0.0000
vn -0.5015 0.0000 0.8652
vn 0.5015 -0.0000 0.8652
vn 0.5015 -0.0000 -0.8652
vn 0.0000 1.0000 -0.0000
# 18 vertex normals

vt 0.9650 0.0833 1.0000
vt 0.9532 0.0000 1.0000
vt 0.9650 0.0000 1.0000
vt 0.9532 0.0833 1.0000
vt 0.9413 0.0833 1.0000
vt 0.9295 0.0000 1.0000
vt 0.9413 0.0000 1.0000
vt 0.9295 0.0833 1.0000
vt 0.9650 0.1667 1.0000
vt 0.9532 0.1667 1.0000
vt 0.9413 0.1667 1.0000
vt 0.9295 0.1667 1.0000
vt 0.9650 0.2500 1.0000
vt 0.9532 0.2500 1.0000
vt 0.9413 0.2500 1.0000
vt 0.9295 0.2500 1.0000
vt 0.9650 0.3333 1.0000
vt 0.9532 0.3333 1.0000
vt 0.9413 0.3333 1.0000
vt 0.9295 0.3333 1.0000
vt 0.9650 0.4167 1.0000
vt 0.9532 0.4167 1.0000
vt 0.9413 0.4167 1.0000
vt 0.9295 0.4167 1.0000
vt 0.9650 0.5000 1.0000
vt 0.9532 0.5000 1.0000
vt 0.9413 0.5000 1.0000
vt 0.9295 0.5000 1.0000
vt 0.9443 1.0000 -0.2500
vt 0.9596 0.2500 -0.2500
vt 0.9289 0.2500 -0.2500
vt 0.9650 0.5833 1.0000
vt 0.9532 0.5833 1.0000
vt 0.9413 0.5833 1.0000
vt 0.9295 0.5833 1.0000
vt 0.9650 0.6667 1.0000
vt 0.9532 0.6667 1.0000
vt 0.9413 0.6667 1.0000
vt 0.9295 0.6667 1.0000
vt 0.9650 0.7500 1.0000
vt 0.9532 0.7500 1.0000
vt 0.9413 0.7500 1.0000
vt 0.9295 0.7500 1.0000
vt 0.9650 0.8333 1.0000
vt 0.9532 0.8333 1.0000
vt 0.9413 0.8333 1.0000
vt 0.9295 0.8333 1.0000
vt 0.9650 0.9167 1.0000
vt 0.9532 0.9167 1.0000
vt 0.9413 0.9167 1.0000
vt 0.9295 0.9167 1.0000
vt 0.9650 1.0000 1.0000
vt 0.9532 1.0000 1.0000
vt 0.9413 1.0000 1.0000
vt 0.9295 1.0000 1.0000
vt 0.9596 0.2500 0.2500
vt 0.9443 1.0000 0.2500
vt 0.9289 0.2500 0.2500
# 58 texture coords

g Elevated_Station_Node_Fence_Steel
s 8
f 1/1/1 2/2/2 3/3/1 
f 2/2/2 1/1/1 4/4/2 
f 5/5/3 3/6/1 6/7/3 
f 3/6/1 5/5/3 1/8/1 
f 4/4/2 6/7/3 2/2/2 
f 6/7/3 4/4/2 5/5/3 
f 7/9/1 4/4/2 1/1/1 
f 4/4/2 7/9/1 8/10/2 
f 9/11/3 1/8/1 5/5/3 
f 1/8/1 9/11/3 7/12/1 
f 8/10/2 5/5/3 4/4/2 
f 5/5/3 8/10/2 9/11/3 
f 10/13/1 8/10/2 7/9/1 
f 8/10/2 10/13/1 11/14/2 
f 12/15/3 7/12/1 9/11/3 
f 7/12/1 12/15/3 10/16/1 
f 11/14/2 9/11/3 8/10/2 
f 9/11/3 11/14/2 12/15/3 
f 13/17/1 11/14/2 10/13/1 
f 11/14/2 13/17/1 14/18/2 
f 15/19/3 10/16/1 12/15/3 
f 10/16/1 15/19/3 13/20/1 
f 14/18/2 12/15/3 11/14/2 
f 12/15/3 14/18/2 15/19/3 
f 16/21/1 14/18/2 13/17/1 
f 14/18/2 16/21/1 17/22/2 
f 18/23/3 13/20/1 15/19/3 
f 13/20/1 18/23/3 16/24/1 
f 17/22/2 15/19/3 14/18/2 
f 15/19/3 17/22/2 18/23/3 
f 19/25/1 17/22/2 16/21/1 
f 17/22/2 19/25/1 20/26/2 
f 21/27/3 16/24/1 18/23/3 
f 16/24/1 21/27/3 19/28/1 
f 20/26/2 18/23/3 17/22/2 
f 18/23/3 20/26/2 21/27/3 
s 1
f 2/29/4 6/30/4 3/31/4 
s 8
f 22/1/5 23/2/6 24/3/5 
f 23/2/6 22/1/5 25/4/6 
f 26/5/7 24/6/5 27/7/7 
f 24/6/5 26/5/7 22/8/5 
f 25/4/6 27/7/7 23/2/6 
f 27/7/7 25/4/6 26/5/7 
f 28/9/5 25/4/6 22/1/5 
f 25/4/6 28/9/5 29/10/6 
f 30/11/7 22/8/5 26/5/7 
f 22/8/5 30/11/7 28/12/5 
f 29/10/6 26/5/7 25/4/6 
f 26/5/7 29/10/6 30/11/7 
f 31/13/5 29/10/6 28/9/5 
f 29/10/6 31/13/5 32/14/6 
f 33/15/7 28/12/5 30/11/7 
f 28/12/5 33/15/7 31/16/5 
f 32/14/6 30/11/7 29/10/6 
f 30/11/7 32/14/6 33/15/7 
f 34/17/5 32/14/6 31/13/5 
f 32/14/6 34/17/5 35/18/6 
f 36/19/7 31/16/5 33/15/7 
f 31/16/5 36/19/7 34/20/5 
f 35/18/6 33/15/7 32/14/6 
f 33/15/7 35/18/6 36/19/7 
f 37/21/5 35/18/6 34/17/5 
f 35/18/6 37/21/5 38/22/6 
f 39/23/7 34/20/5 36/19/7 
f 34/20/5 39/23/7 37/24/5 
f 38/22/6 36/19/7 35/18/6 
f 36/19/7 38/22/6 39/23/7 
f 40/25/5 38/22/6 37/21/5 
f 38/22/6 40/25/5 41/26/6 
f 42/27/7 37/24/5 39/23/7 
f 37/24/5 42/27/7 40/28/5 
f 41/26/6 39/23/7 38/22/6 
f 39/23/7 41/26/6 42/27/7 
s 1
f 23/29/4 27/30/4 24/31/4 
s 8
f 43/32/8 44/26/9 45/25/8 
f 44/26/9 43/32/8 46/33/9 
f 47/34/10 45/28/8 48/27/10 
f 45/28/8 47/34/10 43/35/8 
f 46/33/9 48/27/10 44/26/9 
f 48/27/10 46/33/9 47/34/10 
f 49/36/8 46/33/9 43/32/8 
f 46/33/9 49/36/8 50/37/9 
f 51/38/10 43/35/8 47/34/10 
f 43/35/8 51/38/10 49/39/8 
f 50/37/9 47/34/10 46/33/9 
f 47/34/10 50/37/9 51/38/10 
f 52/40/8 50/37/9 49/36/8 
f 50/37/9 52/40/8 53/41/9 
f 54/42/10 49/39/8 51/38/10 
f 49/39/8 54/42/10 52/43/8 
f 53/41/9 51/38/10 50/37/9 
f 51/38/10 53/41/9 54/42/10 
f 55/44/8 53/41/9 52/40/8 
f 53/41/9 55/44/8 56/45/9 
f 57/46/10 52/43/8 54/42/10 
f 52/43/8 57/46/10 55/47/8 
f 56/45/9 54/42/10 53/41/9 
f 54/42/10 56/45/9 57/46/10 
f 58/48/8 56/45/9 55/44/8 
f 56/45/9 58/48/8 59/49/9 
f 60/50/10 55/47/8 57/46/10 
f 55/47/8 60/50/10 58/51/8 
f 59/49/9 57/46/10 56/45/9 
f 57/46/10 59/49/9 60/50/10 
f 61/52/8 59/49/9 58/48/8 
f 59/49/9 61/52/8 62/53/9 
f 63/54/10 58/51/8 60/50/10 
f 58/51/8 63/54/10 61/55/8 
f 62/53/9 60/50/10 59/49/9 
f 60/50/10 62/53/9 63/54/10 
s 1
f 63/56/4 62/57/4 61/58/4 
s 8
f 64/32/11 65/26/12 66/25/11 
f 65/26/12 64/32/11 67/33/12 
f 68/34/10 66/28/11 69/27/10 
f 66/28/11 68/34/10 64/35/11 
f 67/33/12 69/27/10 65/26/12 
f 69/27/10 67/33/12 68/34/10 
f 70/36/11 67/33/12 64/32/11 
f 67/33/12 70/36/11 71/37/12 
f 72/38/10 64/35/11 68/34/10 
f 64/35/11 72/38/10 70/39/11 
f 71/37/12 68/34/10 67/33/12 
f 68/34/10 71/37/12 72/38/10 
f 73/40/11 71/37/12 70/36/11 
f 71/37/12 73/40/11 74/41/12 
f 75/42/10 70/39/11 72/38/10 
f 70/39/11 75/42/10 73/43/11 
f 74/41/12 72/38/10 71/37/12 
f 72/38/10 74/41/12 75/42/10 
f 76/44/11 74/41/12 73/40/11 
f 74/41/12 76/44/11 77/45/12 
f 78/46/10 73/43/11 75/42/10 
f 73/43/11 78/46/10 76/47/11 
f 77/45/12 75/42/10 74/41/12 
f 75/42/10 77/45/12 78/46/10 
f 79/48/11 77/45/12 76/44/11 
f 77/45/12 79/48/11 80/49/12 
f 81/50/10 76/47/11 78/46/10 
f 76/47/11 81/50/10 79/51/11 
f 80/49/12 78/46/10 77/45/12 
f 78/46/10 80/49/12 81/50/10 
f 82/52/11 80/49/12 79/48/11 
f 80/49/12 82/52/11 83/53/12 
f 84/54/10 79/51/11 81/50/10 
f 79/51/11 84/54/10 82/55/11 
f 83/53/12 81/50/10 80/49/12 
f 81/50/10 83/53/12 84/54/10 
s 1
f 84/56/4 83/57/4 82/58/4 
s 2097152
f 85/52/13 86/2/14 87/3/13 
f 86/2/14 85/52/13 88/53/14 
f 89/54/15 87/6/13 90/7/15 
f 87/6/13 89/54/15 85/55/13 
f 88/53/14 90/7/15 86/2/14 
f 90/7/15 88/53/14 89/54/15 
f 91/52/13 92/2/14 93/3/13 
f 92/2/14 91/52/13 94/53/14 
f 95/54/15 93/6/13 96/7/15 
f 93/6/13 95/54/15 91/55/13 
f 94/53/14 96/7/15 92/2/14 
f 96/7/15 94/53/14 95/54/15 
f 97/52/13 98/2/14 99/3/13 
f 98/2/14 97/52/13 100/53/14 
f 101/54/15 99/6/13 102/7/15 
f 99/6/13 101/54/15 97/55/13 
f 100/53/14 102/7/15 98/2/14 
f 102/7/15 100/53/14 101/54/15 
f 103/52/13 104/2/14 105/3/13 
f 104/2/14 103/52/13 106/53/14 
f 107/54/15 105/6/13 108/7/15 
f 105/6/13 107/54/15 103/55/13 
f 106/53/14 108/7/15 104/2/14 
f 108/7/15 106/53/14 107/54/15 
s 8
f 109/52/16 110/2/8 111/3/16 
f 110/2/8 109/52/16 112/53/8 
f 113/54/17 111/6/16 114/7/17 
f 111/6/16 113/54/17 109/55/16 
f 112/53/8 114/7/17 110/2/8 
f 114/7/17 112/53/8 113/54/17 
f 115/52/16 116/2/8 117/3/16 
f 116/2/8 115/52/16 118/53/8 
f 119/54/17 117/6/16 120/7/17 
f 117/6/16 119/54/17 115/55/16 
f 118/53/8 120/7/17 116/2/8 
f 120/7/17 118/53/8 119/54/17 
f 121/52/16 122/2/8 123/3/16 
f 122/2/8 121/52/16 124/53/8 
f 125/54/17 123/6/16 126/7/17 
f 123/6/16 125/54/17 121/55/16 
f 124/53/8 126/7/17 122/2/8 
f 126/7/17 124/53/8 125/54/17 
f 127/52/16 128/2/8 129/3/16 
f 128/2/8 127/52/16 130/53/8 
f 131/54/17 129/6/16 132/7/17 
f 129/6/16 131/54/17 127/55/16 
f 130/53/8 132/7/17 128/2/8 
f 132/7/17 130/53/8 131/54/17 
s off
f 89/54/18 88/53/18 85/52/18 
f 95/54/18 94/53/18 91/52/18 
f 101/54/18 100/53/18 97/52/18 
f 107/54/18 106/53/18 103/52/18 
f 113/54/18 112/53/18 109/52/18 
f 119/54/18 118/53/18 115/52/18 
f 125/54/18 124/53/18 121/52/18 
f 131/54/18 130/53/18 127/52/18 
# 204 faces

