# 3ds Max Wavefront OBJ Exporter v0.97b - (c)2007 guruware
# File Created: 16.08.2017 07:42:55

#
# object Elevated_Node_Fence_Steel
#

v  2.8550 1.2676 26.6669
v  2.8044 1.2970 32.0003
v  2.8550 1.2676 32.0003
v  2.8044 1.2970 26.6669
v  2.8044 1.2384 26.6669
v  2.8044 1.2384 32.0003
v  2.8550 1.2676 21.3336
v  2.8044 1.2970 21.3336
v  2.8044 1.2384 21.3336
v  2.8550 1.2676 16.0003
v  2.8044 1.2970 16.0003
v  2.8044 1.2384 16.0003
v  2.8550 1.2676 10.6669
v  2.8044 1.2970 10.6669
v  2.8044 1.2384 10.6669
v  2.8550 1.2676 5.3336
v  2.8044 1.2970 5.3336
v  2.8044 1.2384 5.3336
v  2.8550 1.2676 0.0003
v  2.8044 1.2970 0.0003
v  2.8044 1.2384 0.0003
v  2.8550 1.2676 -5.3331
v  2.8044 1.2970 -5.3331
v  2.8044 1.2384 -5.3331
v  2.8550 1.2676 -10.6664
v  2.8044 1.2970 -10.6664
v  2.8044 1.2384 -10.6664
v  2.8550 1.2676 -15.9997
v  2.8044 1.2970 -15.9997
v  2.8044 1.2384 -15.9997
v  2.8550 1.2676 -21.3331
v  2.8044 1.2970 -21.3331
v  2.8044 1.2384 -21.3331
v  2.8550 1.2676 -26.6664
v  2.8044 1.2970 -26.6664
v  2.8044 1.2384 -26.6664
v  2.8550 1.2676 -31.9997
v  2.8044 1.2970 -31.9997
v  2.8044 1.2384 -31.9997
v  2.8550 0.6628 26.6669
v  2.8044 0.6920 32.0003
v  2.8550 0.6628 32.0003
v  2.8044 0.6920 26.6669
v  2.8044 0.6334 26.6669
v  2.8044 0.6334 32.0003
v  2.8550 0.6628 21.3336
v  2.8044 0.6920 21.3336
v  2.8044 0.6334 21.3336
v  2.8550 0.6628 16.0003
v  2.8044 0.6920 16.0003
v  2.8044 0.6334 16.0003
v  2.8550 0.6628 10.6669
v  2.8044 0.6920 10.6669
v  2.8044 0.6334 10.6669
v  2.8550 0.6628 5.3336
v  2.8044 0.6920 5.3336
v  2.8044 0.6334 5.3336
v  2.8550 0.6628 0.0003
v  2.8044 0.6920 0.0003
v  2.8044 0.6334 0.0003
v  2.8550 0.6628 -5.3331
v  2.8044 0.6920 -5.3331
v  2.8044 0.6334 -5.3331
v  2.8550 0.6628 -10.6664
v  2.8044 0.6920 -10.6664
v  2.8044 0.6334 -10.6664
v  2.8550 0.6628 -15.9997
v  2.8044 0.6920 -15.9997
v  2.8044 0.6334 -15.9997
v  2.8550 0.6628 -21.3331
v  2.8044 0.6920 -21.3331
v  2.8044 0.6334 -21.3331
v  2.8550 0.6628 -26.6664
v  2.8044 0.6920 -26.6664
v  2.8044 0.6334 -26.6664
v  2.8550 0.6628 -31.9997
v  2.8044 0.6920 -31.9997
v  2.8044 0.6334 -31.9997
v  -2.8554 1.2677 -26.6664
v  -2.8048 1.2969 -31.9997
v  -2.8554 1.2677 -31.9997
v  -2.8048 1.2969 -26.6664
v  -2.8048 1.2385 -26.6664
v  -2.8048 1.2385 -31.9997
v  -2.8554 1.2677 -21.3330
v  -2.8048 1.2969 -21.3330
v  -2.8048 1.2385 -21.3330
v  -2.8554 1.2677 -15.9997
v  -2.8048 1.2969 -15.9997
v  -2.8048 1.2385 -15.9997
v  -2.8554 1.2677 -10.6664
v  -2.8048 1.2969 -10.6664
v  -2.8048 1.2385 -10.6664
v  -2.8554 1.2677 -5.3330
v  -2.8048 1.2969 -5.3330
v  -2.8048 1.2385 -5.3330
v  -2.8554 1.2677 0.0003
v  -2.8048 1.2969 0.0003
v  -2.8048 1.2385 0.0003
v  -2.8554 1.2677 5.3336
v  -2.8048 1.2969 5.3336
v  -2.8048 1.2385 5.3336
v  -2.8554 1.2677 10.6670
v  -2.8048 1.2969 10.6670
v  -2.8048 1.2385 10.6670
v  -2.8554 1.2677 16.0003
v  -2.8048 1.2969 16.0003
v  -2.8048 1.2385 16.0003
v  -2.8554 1.2677 21.3337
v  -2.8048 1.2969 21.3337
v  -2.8048 1.2385 21.3337
v  -2.8554 1.2677 26.6670
v  -2.8048 1.2969 26.6670
v  -2.8048 1.2385 26.6670
v  -2.8554 1.2677 32.0003
v  -2.8048 1.2969 32.0003
v  -2.8048 1.2385 32.0003
v  -2.8554 0.6624 -26.6664
v  -2.8048 0.6918 -31.9997
v  -2.8554 0.6624 -31.9997
v  -2.8048 0.6918 -26.6664
v  -2.8048 0.6332 -26.6664
v  -2.8048 0.6332 -31.9997
v  -2.8554 0.6624 -21.3330
v  -2.8048 0.6918 -21.3330
v  -2.8048 0.6332 -21.3330
v  -2.8554 0.6624 -15.9997
v  -2.8048 0.6918 -15.9997
v  -2.8048 0.6332 -15.9997
v  -2.8554 0.6624 -10.6664
v  -2.8048 0.6918 -10.6664
v  -2.8048 0.6332 -10.6664
v  -2.8554 0.6624 -5.3330
v  -2.8048 0.6918 -5.3330
v  -2.8048 0.6332 -5.3330
v  -2.8554 0.6624 0.0003
v  -2.8048 0.6918 0.0003
v  -2.8048 0.6332 0.0003
v  -2.8554 0.6624 5.3336
v  -2.8048 0.6918 5.3336
v  -2.8048 0.6332 5.3336
v  -2.8554 0.6624 10.6670
v  -2.8048 0.6918 10.6670
v  -2.8048 0.6332 10.6670
v  -2.8554 0.6624 16.0003
v  -2.8048 0.6918 16.0003
v  -2.8048 0.6332 16.0003
v  -2.8554 0.6624 21.3337
v  -2.8048 0.6918 21.3337
v  -2.8048 0.6332 21.3337
v  -2.8554 0.6624 26.6670
v  -2.8048 0.6918 26.6670
v  -2.8048 0.6332 26.6670
v  -2.8554 0.6624 32.0003
v  -2.8048 0.6918 32.0003
v  -2.8048 0.6332 32.0003
v  2.8210 1.2685 19.9417
v  2.9226 -0.2558 19.9999
v  2.8210 -0.2558 19.9417
v  2.9226 1.2685 19.9999
v  2.8210 1.2685 20.0581
v  2.8210 -0.2558 20.0581
v  2.8210 1.2685 -22.7250
v  2.9226 -0.2558 -22.6668
v  2.8210 -0.2558 -22.7250
v  2.9226 1.2685 -22.6668
v  2.8210 1.2685 -22.6086
v  2.8210 -0.2558 -22.6086
v  2.8210 1.2685 9.2750
v  2.9226 -0.2558 9.3332
v  2.8210 -0.2558 9.2750
v  2.9226 1.2685 9.3332
v  2.8210 1.2685 9.3914
v  2.8210 -0.2558 9.3914
v  2.8210 1.2685 -12.0584
v  2.9226 -0.2558 -12.0002
v  2.8210 -0.2558 -12.0584
v  2.9226 1.2685 -12.0002
v  2.8210 1.2685 -11.9420
v  2.8210 -0.2558 -11.9420
v  2.8210 1.2685 30.6083
v  2.9226 -0.2558 30.6665
v  2.8210 -0.2558 30.6083
v  2.9226 1.2685 30.6665
v  2.8210 1.2685 30.7247
v  2.8210 -0.2558 30.7247
v  2.8210 1.2685 -1.3917
v  2.9226 -0.2558 -1.3335
v  2.8210 -0.2558 -1.3917
v  2.9226 1.2685 -1.3335
v  2.8210 1.2685 -1.2753
v  2.8210 -0.2558 -1.2753
v  -2.8215 1.2689 20.0581
v  -2.9231 -0.2563 19.9999
v  -2.8215 -0.2563 20.0581
v  -2.9231 1.2689 19.9999
v  -2.8215 1.2689 19.9417
v  -2.8215 -0.2563 19.9417
v  -2.8215 1.2689 -22.6086
v  -2.9231 -0.2563 -22.6668
v  -2.8215 -0.2563 -22.6086
v  -2.9231 1.2689 -22.6668
v  -2.8215 1.2689 -22.7250
v  -2.8215 -0.2563 -22.7250
v  -2.8215 1.2689 9.3914
v  -2.9231 -0.2563 9.3332
v  -2.8215 -0.2563 9.3914
v  -2.9231 1.2689 9.3332
v  -2.8215 1.2689 9.2750
v  -2.8215 -0.2563 9.2750
v  -2.8215 1.2689 -11.9420
v  -2.9231 -0.2563 -12.0002
v  -2.8215 -0.2563 -11.9420
v  -2.9231 1.2689 -12.0002
v  -2.8215 1.2689 -12.0584
v  -2.8215 -0.2563 -12.0584
v  -2.8215 1.2689 30.7247
v  -2.9231 -0.2563 30.6665
v  -2.8215 -0.2563 30.7247
v  -2.9231 1.2689 30.6665
v  -2.8215 1.2689 30.6083
v  -2.8215 -0.2563 30.6083
v  -2.8215 1.2689 -1.2753
v  -2.9231 -0.2563 -1.3335
v  -2.8215 -0.2563 -1.2753
v  -2.9231 1.2689 -1.3335
v  -2.8215 1.2689 -1.3917
v  -2.8215 -0.2563 -1.3917
# 228 vertices

vn 1.0000 -0.0015 -0.0000
vn -0.4988 0.8667 0.0000
vn -0.5001 -0.8660 0.0000
vn 0.0000 0.0000 1.0000
vn -0.0000 0.0000 -1.0000
vn 1.0000 0.0015 -0.0000
vn -0.5001 0.8660 0.0000
vn -0.4988 -0.8667 0.0000
vn -1.0000 0.0000 0.0000
vn 0.5001 0.8660 -0.0000
vn 0.5001 -0.8660 -0.0000
vn -1.0000 -0.0015 0.0000
vn 0.4988 0.8667 -0.0000
vn -0.5015 0.0000 -0.8652
vn 1.0000 -0.0000 -0.0000
vn -0.5015 0.0000 0.8652
vn 0.5015 -0.0000 0.8652
vn 0.5015 -0.0000 -0.8652
vn 0.0000 1.0000 -0.0000
# 19 vertex normals

vt 0.9650 0.0833 1.0000
vt 0.9532 0.0000 1.0000
vt 0.9650 0.0000 1.0000
vt 0.9532 0.0833 1.0000
vt 0.9413 0.0833 1.0000
vt 0.9295 0.0000 1.0000
vt 0.9413 0.0000 1.0000
vt 0.9295 0.0833 1.0000
vt 0.9650 0.1667 1.0000
vt 0.9532 0.1667 1.0000
vt 0.9413 0.1667 1.0000
vt 0.9295 0.1667 1.0000
vt 0.9650 0.2500 1.0000
vt 0.9532 0.2500 1.0000
vt 0.9413 0.2500 1.0000
vt 0.9295 0.2500 1.0000
vt 0.9650 0.3333 1.0000
vt 0.9532 0.3333 1.0000
vt 0.9413 0.3333 1.0000
vt 0.9295 0.3333 1.0000
vt 0.9650 0.4167 1.0000
vt 0.9532 0.4167 1.0000
vt 0.9413 0.4167 1.0000
vt 0.9295 0.4167 1.0000
vt 0.9650 0.5000 1.0000
vt 0.9532 0.5000 1.0000
vt 0.9413 0.5000 1.0000
vt 0.9295 0.5000 1.0000
vt 0.9650 0.5833 1.0000
vt 0.9532 0.5833 1.0000
vt 0.9413 0.5833 1.0000
vt 0.9295 0.5833 1.0000
vt 0.9650 0.6667 1.0000
vt 0.9532 0.6667 1.0000
vt 0.9413 0.6667 1.0000
vt 0.9295 0.6667 1.0000
vt 0.9650 0.7500 1.0000
vt 0.9532 0.7500 1.0000
vt 0.9413 0.7500 1.0000
vt 0.9295 0.7500 1.0000
vt 0.9650 0.8333 1.0000
vt 0.9532 0.8333 1.0000
vt 0.9413 0.8333 1.0000
vt 0.9295 0.8333 1.0000
vt 0.9650 0.9167 1.0000
vt 0.9532 0.9167 1.0000
vt 0.9413 0.9167 1.0000
vt 0.9295 0.9167 1.0000
vt 0.9650 1.0000 1.0000
vt 0.9532 1.0000 1.0000
vt 0.9413 1.0000 1.0000
vt 0.9295 1.0000 1.0000
vt 0.9443 1.0000 -0.2500
vt 0.9596 0.2500 -0.2500
vt 0.9289 0.2500 -0.2500
vt 0.9596 0.2500 0.2500
vt 0.9443 1.0000 0.2500
vt 0.9289 0.2500 0.2500
# 58 texture coords

g Elevated_Node_Fence_Steel
s 8
f 1/1/1 2/2/2 3/3/1 
f 2/2/2 1/1/1 4/4/2 
f 5/5/3 3/6/1 6/7/3 
f 3/6/1 5/5/3 1/8/1 
f 4/4/2 6/7/3 2/2/2 
f 6/7/3 4/4/2 5/5/3 
f 7/9/1 4/4/2 1/1/1 
f 4/4/2 7/9/1 8/10/2 
f 9/11/3 1/8/1 5/5/3 
f 1/8/1 9/11/3 7/12/1 
f 8/10/2 5/5/3 4/4/2 
f 5/5/3 8/10/2 9/11/3 
f 10/13/1 8/10/2 7/9/1 
f 8/10/2 10/13/1 11/14/2 
f 12/15/3 7/12/1 9/11/3 
f 7/12/1 12/15/3 10/16/1 
f 11/14/2 9/11/3 8/10/2 
f 9/11/3 11/14/2 12/15/3 
f 13/17/1 11/14/2 10/13/1 
f 11/14/2 13/17/1 14/18/2 
f 15/19/3 10/16/1 12/15/3 
f 10/16/1 15/19/3 13/20/1 
f 14/18/2 12/15/3 11/14/2 
f 12/15/3 14/18/2 15/19/3 
f 16/21/1 14/18/2 13/17/1 
f 14/18/2 16/21/1 17/22/2 
f 18/23/3 13/20/1 15/19/3 
f 13/20/1 18/23/3 16/24/1 
f 17/22/2 15/19/3 14/18/2 
f 15/19/3 17/22/2 18/23/3 
f 19/25/1 17/22/2 16/21/1 
f 17/22/2 19/25/1 20/26/2 
f 21/27/3 16/24/1 18/23/3 
f 16/24/1 21/27/3 19/28/1 
f 20/26/2 18/23/3 17/22/2 
f 18/23/3 20/26/2 21/27/3 
f 22/29/1 20/26/2 19/25/1 
f 20/26/2 22/29/1 23/30/2 
f 24/31/3 19/28/1 21/27/3 
f 19/28/1 24/31/3 22/32/1 
f 23/30/2 21/27/3 20/26/2 
f 21/27/3 23/30/2 24/31/3 
f 25/33/1 23/30/2 22/29/1 
f 23/30/2 25/33/1 26/34/2 
f 27/35/3 22/32/1 24/31/3 
f 22/32/1 27/35/3 25/36/1 
f 26/34/2 24/31/3 23/30/2 
f 24/31/3 26/34/2 27/35/3 
f 28/37/1 26/34/2 25/33/1 
f 26/34/2 28/37/1 29/38/2 
f 30/39/3 25/36/1 27/35/3 
f 25/36/1 30/39/3 28/40/1 
f 29/38/2 27/35/3 26/34/2 
f 27/35/3 29/38/2 30/39/3 
f 31/41/1 29/38/2 28/37/1 
f 29/38/2 31/41/1 32/42/2 
f 33/43/3 28/40/1 30/39/3 
f 28/40/1 33/43/3 31/44/1 
f 32/42/2 30/39/3 29/38/2 
f 30/39/3 32/42/2 33/43/3 
f 34/45/1 32/42/2 31/41/1 
f 32/42/2 34/45/1 35/46/2 
f 36/47/3 31/44/1 33/43/3 
f 31/44/1 36/47/3 34/48/1 
f 35/46/2 33/43/3 32/42/2 
f 33/43/3 35/46/2 36/47/3 
f 37/49/1 35/46/2 34/45/1 
f 35/46/2 37/49/1 38/50/2 
f 39/51/3 34/48/1 36/47/3 
f 34/48/1 39/51/3 37/52/1 
f 38/50/2 36/47/3 35/46/2 
f 36/47/3 38/50/2 39/51/3 
s 1
f 2/53/4 6/54/4 3/55/4 
f 39/56/5 38/57/5 37/58/5 
s 8
f 40/1/6 41/2/7 42/3/6 
f 41/2/7 40/1/6 43/4/7 
f 44/5/8 42/6/6 45/7/8 
f 42/6/6 44/5/8 40/8/6 
f 43/4/7 45/7/8 41/2/7 
f 45/7/8 43/4/7 44/5/8 
f 46/9/6 43/4/7 40/1/6 
f 43/4/7 46/9/6 47/10/7 
f 48/11/8 40/8/6 44/5/8 
f 40/8/6 48/11/8 46/12/6 
f 47/10/7 44/5/8 43/4/7 
f 44/5/8 47/10/7 48/11/8 
f 49/13/6 47/10/7 46/9/6 
f 47/10/7 49/13/6 50/14/7 
f 51/15/8 46/12/6 48/11/8 
f 46/12/6 51/15/8 49/16/6 
f 50/14/7 48/11/8 47/10/7 
f 48/11/8 50/14/7 51/15/8 
f 52/17/6 50/14/7 49/13/6 
f 50/14/7 52/17/6 53/18/7 
f 54/19/8 49/16/6 51/15/8 
f 49/16/6 54/19/8 52/20/6 
f 53/18/7 51/15/8 50/14/7 
f 51/15/8 53/18/7 54/19/8 
f 55/21/6 53/18/7 52/17/6 
f 53/18/7 55/21/6 56/22/7 
f 57/23/8 52/20/6 54/19/8 
f 52/20/6 57/23/8 55/24/6 
f 56/22/7 54/19/8 53/18/7 
f 54/19/8 56/22/7 57/23/8 
f 58/25/6 56/22/7 55/21/6 
f 56/22/7 58/25/6 59/26/7 
f 60/27/8 55/24/6 57/23/8 
f 55/24/6 60/27/8 58/28/6 
f 59/26/7 57/23/8 56/22/7 
f 57/23/8 59/26/7 60/27/8 
f 61/29/6 59/26/7 58/25/6 
f 59/26/7 61/29/6 62/30/7 
f 63/31/8 58/28/6 60/27/8 
f 58/28/6 63/31/8 61/32/6 
f 62/30/7 60/27/8 59/26/7 
f 60/27/8 62/30/7 63/31/8 
f 64/33/6 62/30/7 61/29/6 
f 62/30/7 64/33/6 65/34/7 
f 66/35/8 61/32/6 63/31/8 
f 61/32/6 66/35/8 64/36/6 
f 65/34/7 63/31/8 62/30/7 
f 63/31/8 65/34/7 66/35/8 
f 67/37/6 65/34/7 64/33/6 
f 65/34/7 67/37/6 68/38/7 
f 69/39/8 64/36/6 66/35/8 
f 64/36/6 69/39/8 67/40/6 
f 68/38/7 66/35/8 65/34/7 
f 66/35/8 68/38/7 69/39/8 
f 70/41/6 68/38/7 67/37/6 
f 68/38/7 70/41/6 71/42/7 
f 72/43/8 67/40/6 69/39/8 
f 67/40/6 72/43/8 70/44/6 
f 71/42/7 69/39/8 68/38/7 
f 69/39/8 71/42/7 72/43/8 
f 73/45/6 71/42/7 70/41/6 
f 71/42/7 73/45/6 74/46/7 
f 75/47/8 70/44/6 72/43/8 
f 70/44/6 75/47/8 73/48/6 
f 74/46/7 72/43/8 71/42/7 
f 72/43/8 74/46/7 75/47/8 
f 76/49/6 74/46/7 73/45/6 
f 74/46/7 76/49/6 77/50/7 
f 78/51/8 73/48/6 75/47/8 
f 73/48/6 78/51/8 76/52/6 
f 77/50/7 75/47/8 74/46/7 
f 75/47/8 77/50/7 78/51/8 
s 1
f 41/53/4 45/54/4 42/55/4 
f 78/56/5 77/57/5 76/58/5 
s 8
f 79/1/9 80/2/10 81/3/9 
f 80/2/10 79/1/9 82/4/10 
f 83/5/11 81/6/9 84/7/11 
f 81/6/9 83/5/11 79/8/9 
f 82/4/10 84/7/11 80/2/10 
f 84/7/11 82/4/10 83/5/11 
f 85/9/9 82/4/10 79/1/9 
f 82/4/10 85/9/9 86/10/10 
f 87/11/11 79/8/9 83/5/11 
f 79/8/9 87/11/11 85/12/9 
f 86/10/10 83/5/11 82/4/10 
f 83/5/11 86/10/10 87/11/11 
f 88/13/9 86/10/10 85/9/9 
f 86/10/10 88/13/9 89/14/10 
f 90/15/11 85/12/9 87/11/11 
f 85/12/9 90/15/11 88/16/9 
f 89/14/10 87/11/11 86/10/10 
f 87/11/11 89/14/10 90/15/11 
f 91/17/9 89/14/10 88/13/9 
f 89/14/10 91/17/9 92/18/10 
f 93/19/11 88/16/9 90/15/11 
f 88/16/9 93/19/11 91/20/9 
f 92/18/10 90/15/11 89/14/10 
f 90/15/11 92/18/10 93/19/11 
f 94/21/9 92/18/10 91/17/9 
f 92/18/10 94/21/9 95/22/10 
f 96/23/11 91/20/9 93/19/11 
f 91/20/9 96/23/11 94/24/9 
f 95/22/10 93/19/11 92/18/10 
f 93/19/11 95/22/10 96/23/11 
f 97/25/9 95/22/10 94/21/9 
f 95/22/10 97/25/9 98/26/10 
f 99/27/11 94/24/9 96/23/11 
f 94/24/9 99/27/11 97/28/9 
f 98/26/10 96/23/11 95/22/10 
f 96/23/11 98/26/10 99/27/11 
f 100/29/9 98/26/10 97/25/9 
f 98/26/10 100/29/9 101/30/10 
f 102/31/11 97/28/9 99/27/11 
f 97/28/9 102/31/11 100/32/9 
f 101/30/10 99/27/11 98/26/10 
f 99/27/11 101/30/10 102/31/11 
f 103/33/9 101/30/10 100/29/9 
f 101/30/10 103/33/9 104/34/10 
f 105/35/11 100/32/9 102/31/11 
f 100/32/9 105/35/11 103/36/9 
f 104/34/10 102/31/11 101/30/10 
f 102/31/11 104/34/10 105/35/11 
f 106/37/9 104/34/10 103/33/9 
f 104/34/10 106/37/9 107/38/10 
f 108/39/11 103/36/9 105/35/11 
f 103/36/9 108/39/11 106/40/9 
f 107/38/10 105/35/11 104/34/10 
f 105/35/11 107/38/10 108/39/11 
f 109/41/9 107/38/10 106/37/9 
f 107/38/10 109/41/9 110/42/10 
f 111/43/11 106/40/9 108/39/11 
f 106/40/9 111/43/11 109/44/9 
f 110/42/10 108/39/11 107/38/10 
f 108/39/11 110/42/10 111/43/11 
f 112/45/9 110/42/10 109/41/9 
f 110/42/10 112/45/9 113/46/10 
f 114/47/11 109/44/9 111/43/11 
f 109/44/9 114/47/11 112/48/9 
f 113/46/10 111/43/11 110/42/10 
f 111/43/11 113/46/10 114/47/11 
f 115/49/9 113/46/10 112/45/9 
f 113/46/10 115/49/9 116/50/10 
f 117/51/11 112/48/9 114/47/11 
f 112/48/9 117/51/11 115/52/9 
f 116/50/10 114/47/11 113/46/10 
f 114/47/11 116/50/10 117/51/11 
s 1
f 80/53/5 84/54/5 81/55/5 
f 117/56/4 116/57/4 115/58/4 
s 8
f 118/1/12 119/2/13 120/3/12 
f 119/2/13 118/1/12 121/4/13 
f 122/5/11 120/6/12 123/7/11 
f 120/6/12 122/5/11 118/8/12 
f 121/4/13 123/7/11 119/2/13 
f 123/7/11 121/4/13 122/5/11 
f 124/9/12 121/4/13 118/1/12 
f 121/4/13 124/9/12 125/10/13 
f 126/11/11 118/8/12 122/5/11 
f 118/8/12 126/11/11 124/12/12 
f 125/10/13 122/5/11 121/4/13 
f 122/5/11 125/10/13 126/11/11 
f 127/13/12 125/10/13 124/9/12 
f 125/10/13 127/13/12 128/14/13 
f 129/15/11 124/12/12 126/11/11 
f 124/12/12 129/15/11 127/16/12 
f 128/14/13 126/11/11 125/10/13 
f 126/11/11 128/14/13 129/15/11 
f 130/17/12 128/14/13 127/13/12 
f 128/14/13 130/17/12 131/18/13 
f 132/19/11 127/16/12 129/15/11 
f 127/16/12 132/19/11 130/20/12 
f 131/18/13 129/15/11 128/14/13 
f 129/15/11 131/18/13 132/19/11 
f 133/21/12 131/18/13 130/17/12 
f 131/18/13 133/21/12 134/22/13 
f 135/23/11 130/20/12 132/19/11 
f 130/20/12 135/23/11 133/24/12 
f 134/22/13 132/19/11 131/18/13 
f 132/19/11 134/22/13 135/23/11 
f 136/25/12 134/22/13 133/21/12 
f 134/22/13 136/25/12 137/26/13 
f 138/27/11 133/24/12 135/23/11 
f 133/24/12 138/27/11 136/28/12 
f 137/26/13 135/23/11 134/22/13 
f 135/23/11 137/26/13 138/27/11 
f 139/29/12 137/26/13 136/25/12 
f 137/26/13 139/29/12 140/30/13 
f 141/31/11 136/28/12 138/27/11 
f 136/28/12 141/31/11 139/32/12 
f 140/30/13 138/27/11 137/26/13 
f 138/27/11 140/30/13 141/31/11 
f 142/33/12 140/30/13 139/29/12 
f 140/30/13 142/33/12 143/34/13 
f 144/35/11 139/32/12 141/31/11 
f 139/32/12 144/35/11 142/36/12 
f 143/34/13 141/31/11 140/30/13 
f 141/31/11 143/34/13 144/35/11 
f 145/37/12 143/34/13 142/33/12 
f 143/34/13 145/37/12 146/38/13 
f 147/39/11 142/36/12 144/35/11 
f 142/36/12 147/39/11 145/40/12 
f 146/38/13 144/35/11 143/34/13 
f 144/35/11 146/38/13 147/39/11 
f 148/41/12 146/38/13 145/37/12 
f 146/38/13 148/41/12 149/42/13 
f 150/43/11 145/40/12 147/39/11 
f 145/40/12 150/43/11 148/44/12 
f 149/42/13 147/39/11 146/38/13 
f 147/39/11 149/42/13 150/43/11 
f 151/45/12 149/42/13 148/41/12 
f 149/42/13 151/45/12 152/46/13 
f 153/47/11 148/44/12 150/43/11 
f 148/44/12 153/47/11 151/48/12 
f 152/46/13 150/43/11 149/42/13 
f 150/43/11 152/46/13 153/47/11 
f 154/49/12 152/46/13 151/45/12 
f 152/46/13 154/49/12 155/50/13 
f 156/51/11 151/48/12 153/47/11 
f 151/48/12 156/51/11 154/52/12 
f 155/50/13 153/47/11 152/46/13 
f 153/47/11 155/50/13 156/51/11 
s 1
f 119/53/5 123/54/5 120/55/5 
f 156/56/4 155/57/4 154/58/4 
s 2097152
f 157/49/14 158/2/15 159/3/14 
f 158/2/15 157/49/14 160/50/15 
f 161/51/16 159/6/14 162/7/16 
f 159/6/14 161/51/16 157/52/14 
f 160/50/15 162/7/16 158/2/15 
f 162/7/16 160/50/15 161/51/16 
f 163/49/14 164/2/15 165/3/14 
f 164/2/15 163/49/14 166/50/15 
f 167/51/16 165/6/14 168/7/16 
f 165/6/14 167/51/16 163/52/14 
f 166/50/15 168/7/16 164/2/15 
f 168/7/16 166/50/15 167/51/16 
f 169/49/14 170/2/15 171/3/14 
f 170/2/15 169/49/14 172/50/15 
f 173/51/16 171/6/14 174/7/16 
f 171/6/14 173/51/16 169/52/14 
f 172/50/15 174/7/16 170/2/15 
f 174/7/16 172/50/15 173/51/16 
f 175/49/14 176/2/15 177/3/14 
f 176/2/15 175/49/14 178/50/15 
f 179/51/16 177/6/14 180/7/16 
f 177/6/14 179/51/16 175/52/14 
f 178/50/15 180/7/16 176/2/15 
f 180/7/16 178/50/15 179/51/16 
f 181/49/14 182/2/15 183/3/14 
f 182/2/15 181/49/14 184/50/15 
f 185/51/16 183/6/14 186/7/16 
f 183/6/14 185/51/16 181/52/14 
f 184/50/15 186/7/16 182/2/15 
f 186/7/16 184/50/15 185/51/16 
f 187/49/14 188/2/15 189/3/14 
f 188/2/15 187/49/14 190/50/15 
f 191/51/16 189/6/14 192/7/16 
f 189/6/14 191/51/16 187/52/14 
f 190/50/15 192/7/16 188/2/15 
f 192/7/16 190/50/15 191/51/16 
s 8
f 193/49/17 194/2/9 195/3/17 
f 194/2/9 193/49/17 196/50/9 
f 197/51/18 195/6/17 198/7/18 
f 195/6/17 197/51/18 193/52/17 
f 196/50/9 198/7/18 194/2/9 
f 198/7/18 196/50/9 197/51/18 
f 199/49/17 200/2/9 201/3/17 
f 200/2/9 199/49/17 202/50/9 
f 203/51/18 201/6/17 204/7/18 
f 201/6/17 203/51/18 199/52/17 
f 202/50/9 204/7/18 200/2/9 
f 204/7/18 202/50/9 203/51/18 
f 205/49/17 206/2/9 207/3/17 
f 206/2/9 205/49/17 208/50/9 
f 209/51/18 207/6/17 210/7/18 
f 207/6/17 209/51/18 205/52/17 
f 208/50/9 210/7/18 206/2/9 
f 210/7/18 208/50/9 209/51/18 
f 211/49/17 212/2/9 213/3/17 
f 212/2/9 211/49/17 214/50/9 
f 215/51/18 213/6/17 216/7/18 
f 213/6/17 215/51/18 211/52/17 
f 214/50/9 216/7/18 212/2/9 
f 216/7/18 214/50/9 215/51/18 
f 217/49/17 218/2/9 219/3/17 
f 218/2/9 217/49/17 220/50/9 
f 221/51/18 219/6/17 222/7/18 
f 219/6/17 221/51/18 217/52/17 
f 220/50/9 222/7/18 218/2/9 
f 222/7/18 220/50/9 221/51/18 
f 223/49/17 224/2/9 225/3/17 
f 224/2/9 223/49/17 226/50/9 
f 227/51/18 225/6/17 228/7/18 
f 225/6/17 227/51/18 223/52/17 
f 226/50/9 228/7/18 224/2/9 
f 228/7/18 226/50/9 227/51/18 
s off
f 161/51/19 160/50/19 157/49/19 
f 167/51/19 166/50/19 163/49/19 
f 173/51/19 172/50/19 169/49/19 
f 179/51/19 178/50/19 175/49/19 
f 185/51/19 184/50/19 181/49/19 
f 191/51/19 190/50/19 187/49/19 
f 197/51/19 196/50/19 193/49/19 
f 203/51/19 202/50/19 199/49/19 
f 209/51/19 208/50/19 205/49/19 
f 215/51/19 214/50/19 211/49/19 
f 221/51/19 220/50/19 217/49/19 
f 227/51/19 226/50/19 223/49/19 
# 380 faces

