# 3ds Max Wavefront OBJ Exporter v0.97b - (c)2007 guruware
# File Created: 13.08.2017 09:46:02

#
# object Elevated_Pavement
#

v  3.0000 -0.3000 -0.0000
v  1.5000 -0.3000 -0.0000
v  1.5000 -0.3000 5.3333
v  3.0000 -0.3000 5.3333
v  -1.5000 -0.3000 -0.0000
v  0.0000 -0.3000 -0.0000
v  0.0000 -0.3000 -5.3333
v  -1.5000 -0.3000 -5.3333
v  -3.0000 -0.3000 -0.0000
v  -3.0000 -0.3000 -5.3333
v  -1.5000 -0.3000 5.3333
v  3.0000 -0.3000 -32.0000
v  1.5000 -0.3000 -32.0000
v  1.5000 -0.3000 -26.6667
v  3.0000 -0.3000 -26.6667
v  1.5000 -0.3000 -21.3333
v  3.0000 -0.3000 -21.3333
v  1.5000 -0.3000 -16.0000
v  3.0000 -0.3000 -16.0000
v  1.5000 -0.3000 -10.6667
v  3.0000 -0.3000 -10.6667
v  1.5000 -0.3000 -5.3333
v  3.0000 -0.3000 -5.3333
v  1.5000 -0.3000 32.0000
v  3.0000 -0.3000 32.0000
v  3.0000 -0.3000 26.6667
v  1.5000 -0.3000 26.6667
v  3.0000 -0.3000 21.3333
v  1.5000 -0.3000 21.3333
v  3.0000 -0.3000 16.0000
v  1.5000 -0.3000 16.0000
v  3.0000 -0.3000 10.6667
v  1.5000 -0.3000 10.6667
v  -1.5000 -0.3000 32.0000
v  0.0000 -0.3000 32.0000
v  0.0000 -0.3000 26.6667
v  -1.5000 -0.3000 26.6667
v  0.0000 -0.3000 21.3333
v  -1.5000 -0.3000 21.3333
v  0.0000 -0.3000 16.0000
v  -1.5000 -0.3000 16.0000
v  0.0000 -0.3000 10.6667
v  -1.5000 -0.3000 10.6667
v  0.0000 -0.3000 5.3333
v  0.0000 -0.3000 -32.0000
v  0.0000 -0.3000 -26.6667
v  0.0000 -0.3000 -21.3333
v  0.0000 -0.3000 -16.0000
v  0.0000 -0.3000 -10.6667
v  -3.0000 -0.3000 32.0000
v  -3.0000 -0.3000 26.6667
v  -3.0000 -0.3000 21.3333
v  -3.0000 -0.3000 16.0000
v  -3.0000 -0.3000 10.6667
v  -3.0000 -0.3000 5.3333
v  -1.5000 -0.3000 -32.0000
v  -3.0000 -0.3000 -32.0000
v  -3.0000 -0.3000 -26.6667
v  -1.5000 -0.3000 -26.6667
v  -3.0000 -0.3000 -21.3333
v  -1.5000 -0.3000 -21.3333
v  -3.0000 -0.3000 -16.0000
v  -1.5000 -0.3000 -16.0000
v  -3.0000 -0.3000 -10.6667
v  -1.5000 -0.3000 -10.6667
v  -2.2500 -1.1500 -32.0000
v  -2.2500 -1.1500 -26.6667
v  -2.7500 -1.1500 -26.6667
v  -2.7500 -1.1500 -32.0000
v  -2.2500 -1.1500 -21.3333
v  -2.7500 -1.1500 -21.3333
v  -2.2500 -1.1500 -16.0000
v  -2.7500 -1.1500 -16.0000
v  -2.2500 -1.1500 -10.6667
v  -2.7500 -1.1500 -10.6667
v  -2.2500 -1.1500 -5.3333
v  -2.7500 -1.1500 -5.3333
v  -2.2500 -1.1500 -0.0000
v  -2.7500 -1.1500 -0.0000
v  -2.2500 -1.1500 5.3333
v  -2.7500 -1.1500 5.3333
v  -2.2500 -1.1500 10.6667
v  -2.7500 -1.1500 10.6667
v  -2.2500 -1.1500 16.0000
v  -2.7500 -1.1500 16.0000
v  -2.2500 -1.1500 21.3333
v  -2.7500 -1.1500 21.3333
v  -2.2500 -1.1500 26.6667
v  -2.7500 -1.1500 26.6667
v  -2.2500 -1.1500 32.0000
v  -2.7500 -1.1500 32.0000
v  -2.7500 -1.0000 -26.6667
v  -2.7500 -1.0000 -32.0000
v  -2.7500 -1.0000 -21.3333
v  -2.7500 -1.0000 -16.0000
v  -2.7500 -1.0000 -10.6667
v  -2.7500 -1.0000 -5.3333
v  -2.7500 -1.0000 -0.0000
v  -2.7500 -1.0000 5.3333
v  -2.7500 -1.0000 10.6667
v  -2.7500 -1.0000 16.0000
v  -2.7500 -1.0000 21.3333
v  -2.7500 -1.0000 26.6667
v  -2.7500 -1.0000 32.0000
v  2.2500 -1.1500 32.0000
v  2.2500 -1.1500 26.6667
v  2.7500 -1.1500 26.6667
v  2.7500 -1.1500 32.0000
v  2.2500 -1.1500 21.3333
v  2.7500 -1.1500 21.3333
v  2.2500 -1.1500 16.0000
v  2.7500 -1.1500 16.0000
v  2.2500 -1.1500 10.6667
v  2.7500 -1.1500 10.6667
v  2.2500 -1.1500 5.3333
v  2.7500 -1.1500 5.3333
v  2.2500 -1.1500 -0.0000
v  2.7500 -1.1500 -0.0000
v  2.2500 -1.1500 -5.3333
v  2.7500 -1.1500 -5.3333
v  2.2500 -1.1500 -10.6667
v  2.7500 -1.1500 -10.6667
v  2.2500 -1.1500 -16.0000
v  2.7500 -1.1500 -16.0000
v  2.2500 -1.1500 -21.3333
v  2.7500 -1.1500 -21.3333
v  2.2500 -1.1500 -26.6667
v  2.7500 -1.1500 -26.6667
v  2.2500 -1.1500 -32.0000
v  2.7500 -1.1500 -32.0000
v  2.7500 -1.0000 26.6667
v  2.7500 -1.0000 32.0000
v  2.7500 -1.0000 21.3333
v  2.7500 -1.0000 16.0000
v  2.7500 -1.0000 10.6667
v  2.7500 -1.0000 5.3333
v  2.7500 -1.0000 -0.0000
v  2.7500 -1.0000 -5.3333
v  2.7500 -1.0000 -10.6667
v  2.7500 -1.0000 -16.0000
v  2.7500 -1.0000 -21.3333
v  2.7500 -1.0000 -26.6667
v  2.7500 -1.0000 -32.0000
v  1.5000 -2.6300 26.6667
v  1.5000 -2.6300 32.0000
v  -1.5000 -2.6300 32.0000
v  -1.5000 -2.6300 26.6667
v  1.5000 -2.6300 21.3333
v  -1.5000 -2.6300 21.3333
v  1.5000 -2.6300 16.0000
v  -1.5000 -2.6300 16.0000
v  1.5000 -2.6300 10.6667
v  -1.5000 -2.6300 10.6667
v  1.5000 -2.6300 5.3333
v  -1.5000 -2.6300 5.3333
v  1.5000 -2.6300 -0.0000
v  -1.5000 -2.6300 -0.0000
v  1.5000 -2.6300 -5.3333
v  -1.5000 -2.6300 -5.3333
v  1.5000 -2.6300 -10.6667
v  -1.5000 -2.6300 -10.6667
v  1.5000 -2.6300 -16.0000
v  -1.5000 -2.6300 -16.0000
v  1.5000 -2.6300 -21.3333
v  -1.5000 -2.6300 -21.3333
v  1.5000 -2.6300 -26.6667
v  -1.5000 -2.6300 -26.6667
v  1.5000 -2.6300 -32.0000
v  -1.5000 -2.6300 -32.0000
# 169 vertices

vn 0.0000 1.0000 -0.0000
vn -1.0000 0.0000 -0.0000
vn 1.0000 0.0000 -0.0000
vn 0.0000 -1.0000 -0.0000
vn -0.9701 -0.2425 -0.0000
vn -0.9891 -0.1469 -0.0000
vn 0.9701 -0.2425 -0.0000
vn 0.9891 -0.1469 -0.0000
vn 0.9267 -0.3757 -0.0000
vn -0.9267 -0.3757 -0.0000
# 10 vertex normals

vt 0.8067 0.5000 0.0000
vt 1.0001 0.5000 0.0000
vt 1.0001 0.5833 0.0000
vt 0.8067 0.5833 0.0000
vt 0.0001 0.5000 0.0000
vt 0.1372 0.5000 0.0000
vt 0.1372 0.5833 0.0000
vt 0.0001 0.5833 0.0000
vt 0.9807 0.5000 0.0000
vt 0.9807 0.4167 0.0000
vt 1.0001 0.4167 0.0000
vt 0.8067 0.0000 0.0000
vt 1.0001 0.0000 0.0000
vt 1.0001 0.0833 0.0000
vt 0.8067 0.0833 0.0000
vt 1.0001 0.1667 0.0000
vt 0.8067 0.1667 0.0000
vt 1.0001 0.2500 0.0000
vt 0.8067 0.2500 0.0000
vt 1.0001 0.3333 0.0000
vt 0.8067 0.3333 0.0000
vt 0.8067 0.4167 0.0000
vt 1.0001 1.0000 0.0000
vt 0.8067 1.0000 0.0000
vt 0.8067 0.9167 0.0000
vt 1.0001 0.9167 0.0000
vt 0.8067 0.8333 0.0000
vt 1.0001 0.8333 0.0000
vt 0.8067 0.7500 0.0000
vt 1.0001 0.7500 0.0000
vt 0.8067 0.6667 0.0000
vt 1.0001 0.6667 0.0000
vt 0.0001 0.0000 0.0000
vt 0.1372 0.0000 0.0000
vt 0.1372 0.0833 0.0000
vt 0.0001 0.0833 0.0000
vt 0.1372 0.1667 0.0000
vt 0.0001 0.1667 0.0000
vt 0.1372 0.2500 0.0000
vt 0.0001 0.2500 0.0000
vt 0.1372 0.3333 0.0000
vt 0.0001 0.3333 0.0000
vt 0.1372 0.4167 0.0000
vt 0.0001 0.4167 0.0000
vt 0.0001 1.0000 0.0000
vt 0.1372 1.0000 0.0000
vt 0.1372 0.9167 0.0000
vt 0.0001 0.9167 0.0000
vt 0.1372 0.8333 0.0000
vt 0.0001 0.8333 0.0000
vt 0.1372 0.7500 0.0000
vt 0.0001 0.7500 0.0000
vt 0.1372 0.6667 0.0000
vt 0.0001 0.6667 0.0000
vt 0.9807 1.0000 0.0000
vt 0.9807 0.9167 0.0000
vt 0.9807 0.8333 0.0000
vt 0.9807 0.7500 0.0000
vt 0.9807 0.6667 0.0000
vt 0.9807 0.5833 0.0000
vt 0.9807 -0.0000 0.0000
vt 1.0001 -0.0000 0.0000
vt 0.9807 0.0833 0.0000
vt 0.9807 0.1667 0.0000
vt 0.9807 0.2500 0.0000
vt 0.9807 0.3333 0.0000
vt 0.8166 0.0000 0.0000
vt 0.8166 0.0833 0.0000
vt 0.7671 0.0833 0.0000
vt 0.7671 0.0000 0.0000
vt 0.8166 0.1667 0.0000
vt 0.7671 0.1667 0.0000
vt 0.8166 0.2500 0.0000
vt 0.7671 0.2500 0.0000
vt 0.8166 0.3333 0.0000
vt 0.7671 0.3333 0.0000
vt 0.8166 0.4167 0.0000
vt 0.7671 0.4167 0.0000
vt 0.8166 0.5000 0.0000
vt 0.7671 0.5000 0.0000
vt 0.8166 0.5833 0.0000
vt 0.7671 0.5833 0.0000
vt 0.8166 0.6667 0.0000
vt 0.7671 0.6667 0.0000
vt 0.8166 0.7500 0.0000
vt 0.7671 0.7500 0.0000
vt 0.8166 0.8333 0.0000
vt 0.7671 0.8333 0.0000
vt 0.8166 0.9167 0.0000
vt 0.7671 0.9167 0.0000
vt 0.8166 1.0000 0.0000
vt 0.7671 1.0000 0.0000
vt 0.6621 0.0020 0.0000
vt 0.6621 0.3353 0.0000
vt 0.5211 0.3353 0.0000
vt 0.5211 0.0020 0.0000
vt 0.6621 0.6686 0.0000
vt 0.5211 0.6686 0.0000
vt 0.6621 1.0019 0.0000
vt 0.5211 1.0019 0.0000
vt 0.9791 0.0833 0.0000
vt 0.9791 0.0000 0.0000
vt 0.8189 0.0000 0.0000
vt 0.8189 0.0833 0.0000
vt 0.9791 0.1667 0.0000
vt 0.8189 0.1667 0.0000
vt 0.9791 0.2500 0.0000
vt 0.8189 0.2500 0.0000
vt 0.9791 0.3333 0.0000
vt 0.8189 0.3333 0.0000
vt 0.9791 0.4167 0.0000
vt 0.8189 0.4167 0.0000
vt 0.9791 0.5000 0.0000
vt 0.8189 0.5000 0.0000
vt 0.9791 0.5833 0.0000
vt 0.8189 0.5833 0.0000
vt 0.9791 0.6667 0.0000
vt 0.8189 0.6667 0.0000
vt 0.9791 0.7500 0.0000
vt 0.8189 0.7500 0.0000
vt 0.9791 0.8333 0.0000
vt 0.8189 0.8333 0.0000
vt 0.9791 0.9167 0.0000
vt 0.8189 0.9167 0.0000
vt 0.9791 1.0000 0.0000
vt 0.8189 1.0000 0.0000
vt 0.7657 0.9167 0.0000
vt 0.6633 0.9167 0.0000
vt 0.6633 1.0000 0.0000
vt 0.7657 1.0000 0.0000
vt 0.7657 0.8333 0.0000
vt 0.6633 0.8333 0.0000
vt 0.7657 0.7500 0.0000
vt 0.6633 0.7500 0.0000
vt 0.7657 0.6667 0.0000
vt 0.6633 0.6667 0.0000
vt 0.7657 0.5833 0.0000
vt 0.6633 0.5833 0.0000
vt 0.7657 0.5000 0.0000
vt 0.6633 0.5000 0.0000
vt 0.7657 0.4167 0.0000
vt 0.6633 0.4167 0.0000
vt 0.7657 0.3333 0.0000
vt 0.6633 0.3333 0.0000
vt 0.7657 0.2500 0.0000
vt 0.6633 0.2500 0.0000
vt 0.7657 0.1667 0.0000
vt 0.6633 0.1667 0.0000
vt 0.7657 0.0833 0.0000
vt 0.6633 0.0833 0.0000
vt 0.7657 0.0000 0.0000
vt 0.6633 0.0000 0.0000
# 152 texture coords

g Elevated_Pavement
s 1
f 1/1/1 2/2/1 3/3/1 
f 3/3/1 4/4/1 1/1/1 
f 5/5/1 6/6/1 7/7/1 
f 7/7/1 8/8/1 5/5/1 
f 9/1/1 5/2/1 8/3/1 
f 8/3/1 10/4/1 9/1/1 
s off
f 2/2/2 2/9/2 3/10/2 
f 3/10/2 3/11/2 2/2/2 
f 5/9/3 5/2/3 11/11/3 
f 11/11/3 11/10/3 5/9/3 
s 1
f 12/12/1 13/13/1 14/14/1 
f 14/14/1 15/15/1 12/12/1 
f 15/15/1 14/14/1 16/16/1 
f 16/16/1 17/17/1 15/15/1 
f 17/17/1 16/16/1 18/18/1 
f 18/18/1 19/19/1 17/17/1 
f 19/19/1 18/18/1 20/20/1 
f 20/20/1 21/21/1 19/19/1 
f 21/21/1 20/20/1 22/11/1 
f 22/11/1 23/22/1 21/21/1 
f 23/22/1 22/11/1 2/2/1 
f 2/2/1 1/1/1 23/22/1 
f 24/23/1 25/24/1 26/25/1 
f 26/25/1 27/26/1 24/23/1 
f 27/26/1 26/25/1 28/27/1 
f 28/27/1 29/28/1 27/26/1 
f 29/28/1 28/27/1 30/29/1 
f 30/29/1 31/30/1 29/28/1 
f 31/30/1 30/29/1 32/31/1 
f 32/31/1 33/32/1 31/30/1 
f 33/32/1 32/31/1 4/4/1 
f 4/4/1 3/3/1 33/32/1 
f 34/33/1 35/34/1 36/35/1 
f 36/35/1 37/36/1 34/33/1 
f 37/36/1 36/35/1 38/37/1 
f 38/37/1 39/38/1 37/36/1 
f 39/38/1 38/37/1 40/39/1 
f 40/39/1 41/40/1 39/38/1 
f 41/40/1 40/39/1 42/41/1 
f 42/41/1 43/42/1 41/40/1 
f 43/42/1 42/41/1 44/43/1 
f 44/43/1 11/44/1 43/42/1 
f 11/44/1 44/43/1 6/6/1 
f 6/6/1 5/5/1 11/44/1 
f 13/45/1 45/46/1 46/47/1 
f 46/47/1 14/48/1 13/45/1 
f 14/48/1 46/47/1 47/49/1 
f 47/49/1 16/50/1 14/48/1 
f 16/50/1 47/49/1 48/51/1 
f 48/51/1 18/52/1 16/50/1 
f 18/52/1 48/51/1 49/53/1 
f 49/53/1 20/54/1 18/52/1 
f 20/54/1 49/53/1 7/7/1 
f 7/7/1 22/8/1 20/54/1 
f 50/12/1 34/13/1 37/14/1 
f 37/14/1 51/15/1 50/12/1 
f 51/15/1 37/14/1 39/16/1 
f 39/16/1 52/17/1 51/15/1 
f 52/17/1 39/16/1 41/18/1 
f 41/18/1 53/19/1 52/17/1 
f 53/19/1 41/18/1 43/20/1 
f 43/20/1 54/21/1 53/19/1 
f 54/21/1 43/20/1 11/11/1 
f 11/11/1 55/22/1 54/21/1 
f 55/22/1 11/11/1 5/2/1 
f 5/2/1 9/1/1 55/22/1 
f 56/23/1 57/24/1 58/25/1 
f 58/25/1 59/26/1 56/23/1 
f 59/26/1 58/25/1 60/27/1 
f 60/27/1 61/28/1 59/26/1 
f 61/28/1 60/27/1 62/29/1 
f 62/29/1 63/30/1 61/28/1 
f 63/30/1 62/29/1 64/31/1 
f 64/31/1 65/32/1 63/30/1 
f 65/32/1 64/31/1 10/4/1 
f 10/4/1 8/3/1 65/32/1 
s off
f 13/23/2 13/55/2 14/56/2 
f 14/56/2 14/26/2 13/23/2 
f 14/26/2 14/56/2 16/57/2 
f 16/57/2 16/28/2 14/26/2 
f 16/28/2 16/57/2 18/58/2 
f 18/58/2 18/30/2 16/28/2 
f 18/30/2 18/58/2 20/59/2 
f 20/59/2 20/32/2 18/30/2 
f 20/32/2 20/59/2 22/60/2 
f 22/60/2 22/3/2 20/32/2 
f 22/3/2 22/60/2 2/9/2 
f 2/9/2 2/2/2 22/3/2 
f 24/61/2 24/62/2 27/14/2 
f 27/14/2 27/63/2 24/61/2 
f 27/63/2 27/14/2 29/16/2 
f 29/16/2 29/64/2 27/63/2 
f 29/64/2 29/16/2 31/18/2 
f 31/18/2 31/65/2 29/64/2 
f 31/65/2 31/18/2 33/20/2 
f 33/20/2 33/66/2 31/65/2 
f 33/66/2 33/20/2 3/11/2 
f 3/11/2 3/10/2 33/66/2 
f 56/55/3 56/23/3 59/26/3 
f 59/26/3 59/56/3 56/55/3 
f 59/56/3 59/26/3 61/28/3 
f 61/28/3 61/57/3 59/56/3 
f 61/57/3 61/28/3 63/30/3 
f 63/30/3 63/58/3 61/57/3 
f 63/58/3 63/30/3 65/32/3 
f 65/32/3 65/59/3 63/58/3 
f 65/59/3 65/32/3 8/3/3 
f 8/3/3 8/60/3 65/59/3 
f 8/60/3 8/3/3 5/2/3 
f 5/2/3 5/9/3 8/60/3 
f 34/62/3 34/61/3 37/63/3 
f 37/63/3 37/14/3 34/62/3 
f 37/14/3 37/63/3 39/64/3 
f 39/64/3 39/16/3 37/14/3 
f 39/16/3 39/64/3 41/65/3 
f 41/65/3 41/18/3 39/16/3 
f 41/18/3 41/65/3 43/66/3 
f 43/66/3 43/20/3 41/18/3 
f 43/20/3 43/66/3 11/10/3 
f 11/10/3 11/11/3 43/20/3 
s 1
f 2/5/1 22/8/1 7/7/1 
f 7/7/1 6/6/1 2/5/1 
f 24/33/1 27/36/1 36/35/1 
f 36/35/1 35/34/1 24/33/1 
f 27/36/1 29/38/1 38/37/1 
f 38/37/1 36/35/1 27/36/1 
f 29/38/1 31/40/1 40/39/1 
f 40/39/1 38/37/1 29/38/1 
f 31/40/1 33/42/1 42/41/1 
f 42/41/1 40/39/1 31/40/1 
f 33/42/1 3/44/1 44/43/1 
f 44/43/1 42/41/1 33/42/1 
f 3/44/1 2/5/1 6/6/1 
f 6/6/1 44/43/1 3/44/1 
f 56/45/1 59/48/1 46/47/1 
f 46/47/1 45/46/1 56/45/1 
f 59/48/1 61/50/1 47/49/1 
f 47/49/1 46/47/1 59/48/1 
f 61/50/1 63/52/1 48/51/1 
f 48/51/1 47/49/1 61/50/1 
f 63/52/1 65/54/1 49/53/1 
f 49/53/1 48/51/1 63/52/1 
f 65/54/1 8/8/1 7/7/1 
f 7/7/1 49/53/1 65/54/1 
s 2
f 66/67/4 67/68/4 68/69/4 
f 68/69/4 69/70/4 66/67/4 
f 67/68/4 70/71/4 71/72/4 
f 71/72/4 68/69/4 67/68/4 
f 70/71/4 72/73/4 73/74/4 
f 73/74/4 71/72/4 70/71/4 
f 72/73/4 74/75/4 75/76/4 
f 75/76/4 73/74/4 72/73/4 
f 74/75/4 76/77/4 77/78/4 
f 77/78/4 75/76/4 74/75/4 
f 76/77/4 78/79/4 79/80/4 
f 79/80/4 77/78/4 76/77/4 
f 78/79/4 80/81/4 81/82/4 
f 81/82/4 79/80/4 78/79/4 
f 80/81/4 82/83/4 83/84/4 
f 83/84/4 81/82/4 80/81/4 
f 82/83/4 84/85/4 85/86/4 
f 85/86/4 83/84/4 82/83/4 
f 84/85/4 86/87/4 87/88/4 
f 87/88/4 85/86/4 84/85/4 
f 86/87/4 88/89/4 89/90/4 
f 89/90/4 87/88/4 86/87/4 
f 88/89/4 90/91/4 91/92/4 
f 91/92/4 89/90/4 88/89/4 
s off
f 69/92/2 68/90/2 92/89/2 
f 92/89/2 93/91/2 69/92/2 
f 68/90/2 71/88/2 94/87/2 
f 94/87/2 92/89/2 68/90/2 
f 71/88/2 73/86/2 95/85/2 
f 95/85/2 94/87/2 71/88/2 
f 73/86/2 75/84/2 96/83/2 
f 96/83/2 95/85/2 73/86/2 
f 75/84/2 77/82/2 97/81/2 
f 97/81/2 96/83/2 75/84/2 
f 77/82/2 79/80/2 98/79/2 
f 98/79/2 97/81/2 77/82/2 
f 79/80/2 81/78/2 99/77/2 
f 99/77/2 98/79/2 79/80/2 
f 81/78/2 83/76/2 100/75/2 
f 100/75/2 99/77/2 81/78/2 
f 83/76/2 85/74/2 101/73/2 
f 101/73/2 100/75/2 83/76/2 
f 85/74/2 87/72/2 102/71/2 
f 102/71/2 101/73/2 85/74/2 
f 87/72/2 89/69/2 103/68/2 
f 103/68/2 102/71/2 87/72/2 
f 89/69/2 91/70/2 104/67/2 
f 104/67/2 103/68/2 89/69/2 
s 16
f 93/93/5 92/94/5 58/95/5 
f 58/95/5 57/96/6 93/93/5 
f 92/94/5 94/97/5 60/98/5 
f 60/98/5 58/95/5 92/94/5 
f 94/97/5 95/99/5 62/100/5 
f 62/100/5 60/98/5 94/97/5 
f 95/93/5 96/94/5 64/95/5 
f 64/95/5 62/96/5 95/93/5 
f 96/94/5 97/97/5 10/98/5 
f 10/98/5 64/95/5 96/94/5 
f 97/97/5 98/99/5 9/100/5 
f 9/100/5 10/98/5 97/97/5 
f 98/93/5 99/94/5 55/95/5 
f 55/95/5 9/96/5 98/93/5 
f 99/94/5 100/97/5 54/98/5 
f 54/98/5 55/95/5 99/94/5 
f 100/97/5 101/99/5 53/100/5 
f 53/100/5 54/98/5 100/97/5 
f 101/93/5 102/94/5 52/95/5 
f 52/95/5 53/96/5 101/93/5 
f 102/94/5 103/97/5 51/98/5 
f 51/98/5 52/95/5 102/94/5 
f 103/97/5 104/99/5 50/100/6 
f 50/100/6 51/98/5 103/97/5 
s 2
f 105/67/4 106/68/4 107/69/4 
f 107/69/4 108/70/4 105/67/4 
f 106/68/4 109/71/4 110/72/4 
f 110/72/4 107/69/4 106/68/4 
f 109/71/4 111/73/4 112/74/4 
f 112/74/4 110/72/4 109/71/4 
f 111/73/4 113/75/4 114/76/4 
f 114/76/4 112/74/4 111/73/4 
f 113/75/4 115/77/4 116/78/4 
f 116/78/4 114/76/4 113/75/4 
f 115/77/4 117/79/4 118/80/4 
f 118/80/4 116/78/4 115/77/4 
f 117/79/4 119/81/4 120/82/4 
f 120/82/4 118/80/4 117/79/4 
f 119/81/4 121/83/4 122/84/4 
f 122/84/4 120/82/4 119/81/4 
f 121/83/4 123/85/4 124/86/4 
f 124/86/4 122/84/4 121/83/4 
f 123/85/4 125/87/4 126/88/4 
f 126/88/4 124/86/4 123/85/4 
f 125/87/4 127/89/4 128/90/4 
f 128/90/4 126/88/4 125/87/4 
f 127/89/4 129/91/4 130/92/4 
f 130/92/4 128/90/4 127/89/4 
s off
f 108/92/3 107/90/3 131/89/3 
f 131/89/3 132/91/3 108/92/3 
f 107/90/3 110/88/3 133/87/3 
f 133/87/3 131/89/3 107/90/3 
f 110/88/3 112/86/3 134/85/3 
f 134/85/3 133/87/3 110/88/3 
f 112/86/3 114/84/3 135/83/3 
f 135/83/3 134/85/3 112/86/3 
f 114/84/3 116/82/3 136/81/3 
f 136/81/3 135/83/3 114/84/3 
f 116/82/3 118/80/3 137/79/3 
f 137/79/3 136/81/3 116/82/3 
f 118/80/3 120/78/3 138/77/3 
f 138/77/3 137/79/3 118/80/3 
f 120/78/3 122/76/3 139/75/3 
f 139/75/3 138/77/3 120/78/3 
f 122/76/3 124/74/3 140/73/3 
f 140/73/3 139/75/3 122/76/3 
f 124/74/3 126/72/3 141/71/3 
f 141/71/3 140/73/3 124/74/3 
f 126/72/3 128/69/3 142/68/3 
f 142/68/3 141/71/3 126/72/3 
f 128/69/3 130/70/3 143/67/3 
f 143/67/3 142/68/3 128/69/3 
s 16
f 132/93/7 131/94/7 26/95/7 
f 26/95/7 25/96/8 132/93/7 
f 131/94/7 133/97/7 28/98/7 
f 28/98/7 26/95/7 131/94/7 
f 133/97/7 134/99/7 30/100/7 
f 30/100/7 28/98/7 133/97/7 
f 134/93/7 135/94/7 32/95/7 
f 32/95/7 30/96/7 134/93/7 
f 135/94/7 136/97/7 4/98/7 
f 4/98/7 32/95/7 135/94/7 
f 136/97/7 137/99/7 1/100/7 
f 1/100/7 4/98/7 136/97/7 
f 137/93/7 138/94/7 23/95/7 
f 23/95/7 1/96/7 137/93/7 
f 138/94/7 139/97/7 21/98/7 
f 21/98/7 23/95/7 138/94/7 
f 139/97/7 140/99/7 19/100/7 
f 19/100/7 21/98/7 139/97/7 
f 140/93/7 141/94/7 17/95/7 
f 17/95/7 19/96/7 140/93/7 
f 141/94/7 142/97/7 15/98/7 
f 15/98/7 17/95/7 141/94/7 
f 142/97/7 143/99/7 12/100/8 
f 12/100/8 15/98/7 142/97/7 
s off
f 144/101/4 145/102/4 146/103/4 
f 146/103/4 147/104/4 144/101/4 
f 148/105/4 144/101/4 147/104/4 
f 147/104/4 149/106/4 148/105/4 
f 150/107/4 148/105/4 149/106/4 
f 149/106/4 151/108/4 150/107/4 
f 152/109/4 150/107/4 151/108/4 
f 151/108/4 153/110/4 152/109/4 
f 154/111/4 152/109/4 153/110/4 
f 153/110/4 155/112/4 154/111/4 
f 156/113/4 154/111/4 155/112/4 
f 155/112/4 157/114/4 156/113/4 
f 158/115/4 156/113/4 157/114/4 
f 157/114/4 159/116/4 158/115/4 
f 160/117/4 158/115/4 159/116/4 
f 159/116/4 161/118/4 160/117/4 
f 162/119/4 160/117/4 161/118/4 
f 161/118/4 163/120/4 162/119/4 
f 164/121/4 162/119/4 163/120/4 
f 163/120/4 165/122/4 164/121/4 
f 166/123/4 164/121/4 165/122/4 
f 165/122/4 167/124/4 166/123/4 
f 168/125/4 166/123/4 167/124/4 
f 167/124/4 169/126/4 168/125/4 
f 144/127/9 106/128/9 105/129/9 
f 105/129/9 145/130/9 144/127/9 
f 148/131/9 109/132/9 106/128/9 
f 106/128/9 144/127/9 148/131/9 
f 150/133/9 111/134/9 109/132/9 
f 109/132/9 148/131/9 150/133/9 
f 152/135/9 113/136/9 111/134/9 
f 111/134/9 150/133/9 152/135/9 
f 154/137/9 115/138/9 113/136/9 
f 113/136/9 152/135/9 154/137/9 
f 156/139/9 117/140/9 115/138/9 
f 115/138/9 154/137/9 156/139/9 
f 158/141/9 119/142/9 117/140/9 
f 117/140/9 156/139/9 158/141/9 
f 160/143/9 121/144/9 119/142/9 
f 119/142/9 158/141/9 160/143/9 
f 162/145/9 123/146/9 121/144/9 
f 121/144/9 160/143/9 162/145/9 
f 164/147/9 125/148/9 123/146/9 
f 123/146/9 162/145/9 164/147/9 
f 166/149/9 127/150/9 125/148/9 
f 125/148/9 164/147/9 166/149/9 
f 168/151/9 129/152/9 127/150/9 
f 127/150/9 166/149/9 168/151/9 
f 167/127/10 67/128/10 66/129/10 
f 66/129/10 169/130/10 167/127/10 
f 165/131/10 70/132/10 67/128/10 
f 67/128/10 167/127/10 165/131/10 
f 163/133/10 72/134/10 70/132/10 
f 70/132/10 165/131/10 163/133/10 
f 161/135/10 74/136/10 72/134/10 
f 72/134/10 163/133/10 161/135/10 
f 159/137/10 76/138/10 74/136/10 
f 74/136/10 161/135/10 159/137/10 
f 157/139/10 78/140/10 76/138/10 
f 76/138/10 159/137/10 157/139/10 
f 155/141/10 80/142/10 78/140/10 
f 78/140/10 157/139/10 155/141/10 
f 153/143/10 82/144/10 80/142/10 
f 80/142/10 155/141/10 153/143/10 
f 151/145/10 84/146/10 82/144/10 
f 82/144/10 153/143/10 151/145/10 
f 149/147/10 86/148/10 84/146/10 
f 84/146/10 151/145/10 149/147/10 
f 147/149/10 88/150/10 86/148/10 
f 86/148/10 149/147/10 147/149/10 
f 146/151/10 90/152/10 88/150/10 
f 88/150/10 147/149/10 146/151/10 
# 360 faces

