# 3ds Max Wavefront OBJ Exporter v0.97b - (c)2007 guruware
# File Created: 10.09.2017 11:29:04

#
# object Object003
#

v  0.9402 0.2234 -26.6689
v  0.8183 0.2234 -20.7430
v  1.1504 0.1990 -20.7430
v  1.2723 0.1990 -26.6689
v  0.6311 0.2234 -14.8171
v  0.9632 0.1990 -14.8171
v  0.3973 0.2234 -8.8912
v  0.7294 0.1990 -8.8912
v  0.1354 0.2234 -2.9652
v  0.4676 0.1990 -2.9652
v  -0.1357 0.2234 2.9607
v  0.1965 0.1990 2.9607
v  -0.3976 0.2234 8.8866
v  -0.0654 0.1990 8.8866
v  -0.6314 0.2234 14.8125
v  -0.2992 0.1990 14.8125
v  -0.8187 0.2234 20.7384
v  -0.4864 0.1990 20.7384
v  -0.9406 0.2234 26.6644
v  -0.6084 0.1990 26.6644
v  -2.6741 0.2369 26.6644
v  -1.1654 0.2400 26.6644
v  -1.0435 0.2400 20.7384
v  -2.5522 0.2369 20.7384
v  -0.8562 0.2400 14.8125
v  -2.3649 0.2369 14.8125
v  -0.6224 0.2400 8.8866
v  -2.1311 0.2369 8.8866
v  -0.3605 0.2400 2.9607
v  -1.8692 0.2369 2.9607
v  -0.0894 0.2400 -2.9652
v  -1.5981 0.2369 -2.9652
v  0.1725 0.2400 -8.8912
v  -1.3362 0.2369 -8.8912
v  0.4063 0.2400 -14.8171
v  -1.1024 0.2369 -14.8171
v  0.5935 0.2400 -20.7430
v  -0.9152 0.2369 -20.7430
v  0.7154 0.2400 -26.6689
v  -0.7933 0.2369 -26.6689
v  -1.3493 0.2000 -26.6689
v  -1.4712 0.2000 -20.7430
v  -1.1396 0.2220 -20.7430
v  -1.0177 0.2220 -26.6689
v  -1.6584 0.2000 -14.8171
v  -1.3268 0.2220 -14.8171
v  -1.8922 0.2000 -8.8912
v  -1.5606 0.2220 -8.8912
v  -2.1540 0.2000 -2.9652
v  -1.8225 0.2220 -2.9652
v  -2.4251 0.2000 2.9607
v  -2.0936 0.2220 2.9607
v  -2.6870 0.2000 8.8866
v  -2.3555 0.2220 8.8866
v  -2.9208 0.2000 14.8125
v  -2.5893 0.2220 14.8125
v  -3.1080 0.2000 20.7385
v  -2.7766 0.2220 20.7385
v  -3.2300 0.2000 26.6644
v  -2.8985 0.2220 26.6644
v  -2.8985 0.0984 26.6644
v  -1.1654 0.1016 26.6644
v  -2.6741 0.0986 26.6644
v  -0.9406 0.0998 26.6644
v  -1.0177 0.0984 -26.6689
v  0.7154 0.1016 -26.6689
v  -0.7933 0.0986 -26.6689
v  0.9402 0.0998 -26.6689
v  0.9402 0.2235 -26.6689
v  0.8183 0.0998 -20.7430
v  0.6311 0.0998 -14.8171
v  0.3973 0.0998 -8.8912
v  0.1354 0.0998 -2.9652
v  -0.1357 0.0998 2.9607
v  -0.3976 0.0998 8.8866
v  -0.6314 0.0998 14.8125
v  -0.8187 0.0998 20.7384
v  -1.1396 0.0984 -20.7430
v  -1.3268 0.0984 -14.8171
v  -1.5606 0.0984 -8.8912
v  -1.8225 0.0984 -2.9652
v  -2.0936 0.0984 2.9607
v  -2.3555 0.0984 8.8866
v  -2.5893 0.0984 14.8125
v  -2.7766 0.0984 20.7384
v  -2.7766 0.2220 20.7384
v  -0.9152 0.0986 -20.7430
v  -1.1024 0.0986 -14.8171
v  -1.3362 0.0986 -8.8912
v  -1.5981 0.0986 -2.9652
v  -1.8692 0.0986 2.9607
v  -2.1311 0.0986 8.8866
v  -2.3649 0.0986 14.8125
v  -2.5522 0.0986 20.7384
v  0.5935 0.1016 -20.7430
v  0.4063 0.1016 -14.8171
v  0.1725 0.1016 -8.8912
v  -0.0894 0.1016 -2.9652
v  -0.3605 0.1016 2.9607
v  -0.6224 0.1016 8.8866
v  -0.8562 0.1016 14.8125
v  -1.0435 0.1016 20.7384
# 102 vertices

vn 0.0733 0.9973 -0.0000
vn -0.0021 1.0000 -0.0000
vn -0.0662 0.9978 -0.0000
vn 0.0000 0.0000 1.0000
vn 0.0000 0.0000 -1.0000
vn -0.9998 -0.0000 -0.0206
vn -0.9997 -0.0000 -0.0261
vn -0.9994 -0.0000 -0.0355
vn -0.9991 -0.0000 -0.0418
vn -0.9990 -0.0000 -0.0449
# 10 vertex normals

vt 0.0018 1.0000 0.0000
vt 0.0018 -0.0000 0.0000
vt 0.0584 -0.0000 0.0000
vt 0.0584 1.0000 0.0000
vt 0.0022 1.0000 0.0000
vt 0.0022 -0.0000 0.0000
vt 0.0587 -0.0000 0.0000
vt 0.0587 1.0000 0.0000
vt 0.0015 1.0000 0.0000
vt 0.0015 -0.0000 0.0000
vt 0.0580 -0.0000 0.0000
vt 0.0580 1.0000 0.0000
vt 0.0581 -0.0000 0.0000
vt 0.0581 1.0000 0.0000
vt 0.0019 1.0000 0.0000
vt 0.0019 -0.0000 0.0000
vt 0.2583 0.0000 0.0000
vt 0.2583 1.0000 0.0000
vt 0.0012 0.0000 0.0000
vt 0.2580 0.0000 0.0000
vt 0.2580 1.0000 0.0000
vt 0.0012 1.0000 0.0000
vt 0.0011 -0.0000 0.0000
vt 0.2579 -0.0000 0.0000
vt 0.2579 1.0000 0.0000
vt 0.0011 1.0000 0.0000
vt 0.2586 -0.0000 0.0000
vt 0.2586 1.0000 0.0000
vt 0.2583 -0.0000 0.0000
vt 0.2016 1.0000 0.0000
vt 0.2016 -0.0000 0.0000
vt 0.2581 -0.0000 0.0000
vt 0.2581 1.0000 0.0000
vt 0.2020 1.0000 0.0000
vt 0.2020 -0.0000 0.0000
vt 0.2584 -0.0000 0.0000
vt 0.2584 1.0000 0.0000
vt 0.2013 1.0000 0.0000
vt 0.2013 -0.0000 0.0000
vt 0.2577 -0.0000 0.0000
vt 0.2577 1.0000 0.0000
vt 0.2017 1.0000 0.0000
vt 0.2017 -0.0000 0.0000
vt 0.0329 0.0805 0.0000
vt 0.0000 0.0727 0.0000
vt 0.0329 0.0364 0.0000
vt 0.2048 0.0375 0.0000
vt 0.2048 0.0870 0.0000
vt 0.0551 0.0859 0.0000
vt 0.0551 0.0364 0.0000
vt 0.2271 0.0369 0.0000
vt 0.2600 0.0723 0.0000
vt 0.2271 0.0810 0.0000
vt 0.0016 1.0000 0.0000
vt 0.1153 1.0000 0.0000
vt 0.1153 -0.0000 0.0000
vt 0.0016 -0.0000 0.0000
vt 0.1446 0.0000 0.0000
vt 0.1446 1.0000 0.0000
vt 0.1446 -0.0000 0.0000
# 60 texture coords

g Object003
s 1
f 1/1/1 2/2/1 3/3/1 
f 3/3/1 4/4/1 1/1/1 
f 2/1/1 5/2/1 6/3/1 
f 6/3/1 3/4/1 2/1/1 
f 5/5/1 7/6/1 8/7/1 
f 8/7/1 6/8/1 5/5/1 
f 7/5/1 9/6/1 10/7/1 
f 10/7/1 8/8/1 7/5/1 
f 9/9/1 11/10/1 12/11/1 
f 12/11/1 10/12/1 9/9/1 
f 11/9/1 13/10/1 14/13/1 
f 14/13/1 12/14/1 11/9/1 
f 13/15/1 15/16/1 16/3/1 
f 16/3/1 14/4/1 13/15/1 
f 15/15/1 17/16/1 18/3/1 
f 18/3/1 16/4/1 15/15/1 
f 17/15/1 19/16/1 20/3/1 
f 20/3/1 18/4/1 17/15/1 
s 2
f 21/10/2 22/17/2 23/18/2 
f 23/18/2 24/9/2 21/10/2 
f 24/10/2 23/17/2 25/18/2 
f 25/18/2 26/9/2 24/10/2 
f 26/19/2 25/20/2 27/21/2 
f 27/21/2 28/22/2 26/19/2 
f 28/23/2 27/24/2 29/25/2 
f 29/25/2 30/26/2 28/23/2 
f 30/2/2 29/27/2 31/28/2 
f 31/28/2 32/1/2 30/2/2 
f 32/2/2 31/27/2 33/28/2 
f 33/28/2 34/1/2 32/2/2 
f 34/10/2 33/29/2 35/18/2 
f 35/18/2 36/9/2 34/10/2 
f 36/10/2 35/29/2 37/18/2 
f 37/18/2 38/9/2 36/10/2 
f 38/10/2 37/29/2 39/18/2 
f 39/18/2 40/9/2 38/10/2 
s 1
f 41/30/3 42/31/3 43/32/3 
f 43/32/3 44/33/3 41/30/3 
f 42/30/3 45/31/3 46/32/3 
f 46/32/3 43/33/3 42/30/3 
f 45/34/3 47/35/3 48/36/3 
f 48/36/3 46/37/3 45/34/3 
f 47/34/3 49/35/3 50/36/3 
f 50/36/3 48/37/3 47/34/3 
f 49/38/3 51/39/3 52/40/3 
f 52/40/3 50/41/3 49/38/3 
f 51/38/3 53/39/3 54/40/3 
f 54/40/3 52/41/3 51/38/3 
f 53/30/3 55/31/3 56/32/3 
f 56/32/3 54/33/3 53/30/3 
f 55/42/3 57/43/3 58/32/3 
f 58/32/3 56/33/3 55/42/3 
f 57/30/3 59/31/3 60/32/3 
f 60/32/3 58/33/3 57/30/3 
s off
f 60/44/4 59/45/4 61/46/4 
f 62/47/4 22/48/4 21/49/4 
f 21/49/4 63/50/4 62/47/4 
f 64/51/4 20/52/4 19/53/4 
f 44/44/5 65/46/5 41/45/5 
f 66/47/5 67/50/5 40/49/5 
f 40/49/5 39/48/5 66/47/5 
f 68/51/5 69/53/5 4/52/5 
s 1
f 1/54/6 68/55/6 70/56/7 
f 70/56/7 2/57/7 1/54/6 
f 2/54/7 70/55/7 71/56/8 
f 71/56/8 5/57/8 2/54/7 
f 5/54/8 71/55/8 72/56/9 
f 72/56/9 7/57/9 5/54/8 
f 7/54/9 72/55/9 73/56/10 
f 73/56/10 9/57/10 7/54/9 
f 9/54/10 73/55/10 74/56/10 
f 74/56/10 11/57/10 9/54/10 
f 11/54/10 74/55/10 75/56/9 
f 75/56/9 13/57/9 11/54/10 
f 13/54/9 75/55/9 76/56/8 
f 76/56/8 15/57/8 13/54/9 
f 15/54/8 76/55/8 77/56/7 
f 77/56/7 17/57/7 15/54/8 
f 17/54/7 77/55/7 64/56/6 
f 64/56/6 19/57/6 17/54/7 
f 44/54/6 65/55/6 78/56/7 
f 78/56/7 43/57/7 44/54/6 
f 43/54/7 78/55/7 79/56/8 
f 79/56/8 46/57/8 43/54/7 
f 46/54/8 79/55/8 80/56/9 
f 80/56/9 48/57/9 46/54/8 
f 48/54/9 80/55/9 81/56/10 
f 81/56/10 50/57/10 48/54/9 
f 50/54/10 81/55/10 82/56/10 
f 82/56/10 52/57/10 50/54/10 
f 52/54/10 82/55/10 83/56/9 
f 83/56/9 54/57/9 52/54/10 
f 54/54/9 83/55/9 84/56/8 
f 84/56/8 56/57/8 54/54/9 
f 56/54/8 84/55/8 85/56/7 
f 85/56/7 86/57/7 56/54/8 
f 86/54/7 85/55/7 61/56/6 
f 61/56/6 60/57/6 86/54/7 
f 40/17/6 67/58/6 87/59/7 
f 87/59/7 38/18/7 40/17/6 
f 38/17/7 87/60/7 88/59/8 
f 88/59/8 36/18/8 38/17/7 
f 36/29/8 88/60/8 89/59/9 
f 89/59/9 34/18/9 36/29/8 
f 34/29/9 89/60/9 90/59/10 
f 90/59/10 32/18/10 34/29/9 
f 32/29/10 90/60/10 91/59/10 
f 91/59/10 30/18/10 32/29/10 
f 30/29/10 91/60/10 92/59/9 
f 92/59/9 28/18/9 30/29/10 
f 28/29/9 92/60/9 93/59/8 
f 93/59/8 26/18/8 28/29/9 
f 26/29/8 93/60/8 94/59/7 
f 94/59/7 24/18/7 26/29/8 
f 24/29/7 94/58/7 63/59/6 
f 63/59/6 21/18/6 24/29/7 
f 39/17/6 66/58/6 95/59/7 
f 95/59/7 37/18/7 39/17/6 
f 37/17/7 95/60/7 96/59/8 
f 96/59/8 35/18/8 37/17/7 
f 35/29/8 96/60/8 97/59/9 
f 97/59/9 33/18/9 35/29/8 
f 33/29/9 97/60/9 98/59/10 
f 98/59/10 31/18/10 33/29/9 
f 31/29/10 98/60/10 99/59/10 
f 99/59/10 29/18/10 31/29/10 
f 29/29/10 99/60/10 100/59/9 
f 100/59/9 27/18/9 29/29/10 
f 27/29/9 100/60/9 101/59/8 
f 101/59/8 25/18/8 27/29/9 
f 25/29/8 101/60/8 102/59/7 
f 102/59/7 23/18/7 25/29/8 
f 23/29/7 102/58/7 62/59/6 
f 62/59/6 22/18/6 23/29/7 
# 0 polygons - 134 triangles

