# 3ds Max Wavefront OBJ Exporter v0.97b - (c)2007 guruware
# File Created: 23.09.2017 02:07:22

#
# object Ground_Node_Pavement
#

v  -1.5000 0.0500 -0.0000
v  -1.5000 0.0500 -5.3333
v  -3.0000 0.0500 -5.3333
v  -3.0000 0.0500 -0.0000
v  6.0000 -3.1150 -0.0000
v  3.0000 0.0500 -0.0000
v  3.0000 0.0500 5.3333
v  6.0000 -3.1150 5.3333
v  -6.0000 -3.1150 -0.0000
v  -6.0000 -3.1150 5.3333
v  -3.0000 0.0500 5.3333
v  -1.5000 0.0500 32.0000
v  -1.5000 0.0500 26.6667
v  -3.0000 0.0500 26.6667
v  -3.0000 0.0500 32.0000
v  -1.5000 0.0500 21.3333
v  -3.0000 0.0500 21.3333
v  -1.5000 0.0500 16.0000
v  -3.0000 0.0500 16.0000
v  -1.5000 0.0500 10.6667
v  -3.0000 0.0500 10.6667
v  -1.5000 0.0500 5.3333
v  1.5000 0.0500 -32.0000
v  1.5000 0.0500 -26.6667
v  3.0000 0.0500 -26.6667
v  3.0000 0.0500 -32.0000
v  1.5000 0.0500 -21.3333
v  3.0000 0.0500 -21.3333
v  1.5000 0.0500 -16.0000
v  3.0000 0.0500 -16.0000
v  1.5000 0.0500 -10.6667
v  3.0000 0.0500 -10.6667
v  1.5000 0.0500 -5.3333
v  3.0000 0.0500 -5.3333
v  6.0000 -3.1150 -32.0000
v  6.0000 -3.1150 -26.6667
v  6.0000 -3.1150 -21.3333
v  6.0000 -3.1150 -16.0000
v  6.0000 -3.1150 -10.6667
v  6.0000 -3.1150 -5.3333
v  3.0000 0.0500 32.0000
v  6.0000 -3.1150 32.0000
v  6.0000 -3.1150 26.6667
v  3.0000 0.0500 26.6667
v  6.0000 -3.1150 21.3333
v  3.0000 0.0500 21.3333
v  6.0000 -3.1150 16.0000
v  3.0000 0.0500 16.0000
v  6.0000 -3.1150 10.6667
v  3.0000 0.0500 10.6667
v  -3.0000 0.0500 -32.0000
v  -6.0000 -3.1150 -32.0000
v  -6.0000 -3.1150 -26.6667
v  -3.0000 0.0500 -26.6667
v  -6.0000 -3.1150 -21.3333
v  -3.0000 0.0500 -21.3333
v  -6.0000 -3.1150 -16.0000
v  -3.0000 0.0500 -16.0000
v  -6.0000 -3.1150 -10.6667
v  -3.0000 0.0500 -10.6667
v  -6.0000 -3.1150 -5.3333
v  -6.0000 -3.1150 32.0000
v  -6.0000 -3.1150 26.6667
v  -6.0000 -3.1150 21.3333
v  -6.0000 -3.1150 16.0000
v  -6.0000 -3.1150 10.6667
v  1.5000 0.0500 -0.0000
v  1.5000 0.0500 26.6667
v  1.5000 0.0500 32.0000
v  1.5000 0.0500 21.3333
v  1.5000 0.0500 16.0000
v  1.5000 0.0500 10.6667
v  1.5000 0.0500 5.3333
v  0.0000 0.0500 -32.0000
v  0.0000 0.0500 -26.6667
v  0.0000 0.0500 -21.3333
v  0.0000 0.0500 -16.0000
v  0.0000 0.0500 -10.6667
v  0.0000 0.0500 -5.3333
v  0.0000 0.0500 -0.0000
v  0.0000 0.0500 32.0000
v  0.0000 0.0500 26.6667
v  0.0000 0.0500 21.3333
v  0.0000 0.0500 16.0000
v  0.0000 0.0500 10.6667
v  0.0000 0.0500 5.3333
v  -1.5000 0.0500 -26.6667
v  -1.5000 0.0500 -32.0000
v  -1.5000 0.0500 -21.3333
v  -1.5000 0.0500 -16.0000
v  -1.5000 0.0500 -10.6667
v  -1.5001 -0.5250 32.0000
v  0.0000 -0.5250 32.0000
v  1.5001 0.0500 32.0000
v  1.5000 -0.5250 32.0000
v  3.0000 -0.5250 32.0000
v  -3.0000 -0.5250 32.0000
# 97 vertices

vn 0.0000 1.0000 -0.0000
vn 0.7258 0.6879 -0.0000
vn -0.7258 0.6879 -0.0000
vn 0.0000 0.0000 1.0000
# 4 vertex normals

vt 0.3129 0.5000 0.0000
vt 0.3129 0.5833 0.0000
vt 0.0972 0.5833 0.0000
vt 0.0972 0.5000 0.0000
vt 0.7221 0.5000 0.0000
vt 0.9978 0.5000 0.0000
vt 0.9978 0.5833 0.0000
vt 0.7221 0.5833 0.0000
vt 0.0608 0.5000 0.0000
vt 0.3349 0.5000 0.0000
vt 0.3349 0.5833 0.0000
vt 0.0608 0.5833 0.0000
vt 0.3129 0.0000 0.0000
vt 0.3129 0.0833 0.0000
vt 0.0972 0.0833 0.0000
vt 0.0972 0.0000 0.0000
vt 0.3129 0.1667 0.0000
vt 0.0972 0.1667 0.0000
vt 0.3129 0.2500 0.0000
vt 0.0972 0.2500 0.0000
vt 0.3129 0.3333 0.0000
vt 0.0972 0.3333 0.0000
vt 0.3129 0.4167 0.0000
vt 0.0972 0.4167 0.0000
vt 0.7443 1.0000 0.0000
vt 0.7443 0.9167 0.0000
vt 0.9600 0.9167 0.0000
vt 0.9600 1.0000 0.0000
vt 0.7443 0.8333 0.0000
vt 0.9600 0.8333 0.0000
vt 0.7443 0.7500 0.0000
vt 0.9600 0.7500 0.0000
vt 0.7443 0.6667 0.0000
vt 0.9600 0.6667 0.0000
vt 0.7443 0.5833 0.0000
vt 0.9600 0.5833 0.0000
vt 0.7221 -0.0000 0.0000
vt 0.9978 0.0000 0.0000
vt 0.9978 0.0833 0.0000
vt 0.7221 0.0833 0.0000
vt 0.9978 0.1667 0.0000
vt 0.7221 0.1667 0.0000
vt 0.9978 0.2500 0.0000
vt 0.7221 0.2500 0.0000
vt 0.9978 0.3333 0.0000
vt 0.7221 0.3333 0.0000
vt 0.9978 0.4167 0.0000
vt 0.7221 0.4167 0.0000
vt 0.9978 1.0000 0.0000
vt 0.7221 1.0000 0.0000
vt 0.7221 0.9167 0.0000
vt 0.9978 0.9167 0.0000
vt 0.7221 0.8333 0.0000
vt 0.9978 0.8333 0.0000
vt 0.7221 0.7500 0.0000
vt 0.9978 0.7500 0.0000
vt 0.7221 0.6667 0.0000
vt 0.9978 0.6667 0.0000
vt 0.0608 0.0000 0.0000
vt 0.3349 0.0000 0.0000
vt 0.3349 0.0833 0.0000
vt 0.0608 0.0833 0.0000
vt 0.3349 0.1667 0.0000
vt 0.0608 0.1667 0.0000
vt 0.3349 0.2500 0.0000
vt 0.0608 0.2500 0.0000
vt 0.3349 0.3333 0.0000
vt 0.0608 0.3333 0.0000
vt 0.3349 0.4167 0.0000
vt 0.0608 0.4167 0.0000
vt 0.3349 1.0000 0.0000
vt 0.0608 1.0000 0.0000
vt 0.0608 0.9167 0.0000
vt 0.3349 0.9167 0.0000
vt 0.0608 0.8333 0.0000
vt 0.3349 0.8333 0.0000
vt 0.0608 0.7500 0.0000
vt 0.3349 0.7500 0.0000
vt 0.0608 0.6667 0.0000
vt 0.3349 0.6667 0.0000
vt 0.9600 0.5000 0.0000
vt 0.7443 0.5000 0.0000
vt 0.9600 0.0000 0.0000
vt 0.9600 0.0833 0.0000
vt 0.7443 0.0833 0.0000
vt 0.7443 0.0000 0.0000
vt 0.9600 0.1667 0.0000
vt 0.7443 0.1667 0.0000
vt 0.9600 0.2500 0.0000
vt 0.7443 0.2500 0.0000
vt 0.9600 0.3333 0.0000
vt 0.7443 0.3333 0.0000
vt 0.9600 0.4167 0.0000
vt 0.7443 0.4167 0.0000
vt 0.5286 1.0000 0.0000
vt 0.5286 0.9167 0.0000
vt 0.5286 0.8333 0.0000
vt 0.5286 0.7500 0.0000
vt 0.5286 0.6667 0.0000
vt 0.5286 0.5833 0.0000
vt 0.5286 0.5000 0.0000
vt 0.5286 0.0000 0.0000
vt 0.5286 0.0833 0.0000
vt 0.5286 0.1667 0.0000
vt 0.5286 0.2500 0.0000
vt 0.5286 0.3333 0.0000
vt 0.5286 0.4167 0.0000
vt 0.0972 1.0000 0.0000
vt 0.0972 0.9167 0.0000
vt 0.3129 0.9167 0.0000
vt 0.3129 1.0000 0.0000
vt 0.0972 0.8333 0.0000
vt 0.3129 0.8333 0.0000
vt 0.0972 0.7500 0.0000
vt 0.3129 0.7500 0.0000
vt 0.0972 0.6667 0.0000
vt 0.3129 0.6667 0.0000
vt 0.0009 0.2499 0.0000
vt 0.0587 0.2499 0.0000
vt 0.0587 0.4998 0.0000
vt 0.0009 0.4998 0.0000
vt 0.0009 0.7497 0.0000
vt 0.0587 0.7497 0.0000
vt 0.0587 0.9996 0.0000
vt 0.0009 0.9996 0.0000
vt 0.0009 0.0000 0.0000
vt 0.0587 0.0000 0.0000
# 127 texture coords

g Ground_Node_Pavement
s 1
f 1/1/1 2/2/1 3/3/1 
f 3/3/1 4/4/1 1/1/1 
s off
f 5/5/2 6/6/2 7/7/2 
f 7/7/2 8/8/2 5/5/2 
f 4/9/3 9/10/3 10/11/3 
f 10/11/3 11/12/3 4/9/3 
s 1
f 12/13/1 13/14/1 14/15/1 
f 14/15/1 15/16/1 12/13/1 
f 13/14/1 16/17/1 17/18/1 
f 17/18/1 14/15/1 13/14/1 
f 16/17/1 18/19/1 19/20/1 
f 19/20/1 17/18/1 16/17/1 
f 18/19/1 20/21/1 21/22/1 
f 21/22/1 19/20/1 18/19/1 
f 20/21/1 22/23/1 11/24/1 
f 11/24/1 21/22/1 20/21/1 
f 22/23/1 1/1/1 4/4/1 
f 4/4/1 11/24/1 22/23/1 
f 23/25/1 24/26/1 25/27/1 
f 25/27/1 26/28/1 23/25/1 
f 24/26/1 27/29/1 28/30/1 
f 28/30/1 25/27/1 24/26/1 
f 27/29/1 29/31/1 30/32/1 
f 30/32/1 28/30/1 27/29/1 
f 29/31/1 31/33/1 32/34/1 
f 32/34/1 30/32/1 29/31/1 
f 31/33/1 33/35/1 34/36/1 
f 34/36/1 32/34/1 31/33/1 
s off
f 35/37/2 26/38/2 25/39/2 
f 25/39/2 36/40/2 35/37/2 
f 36/40/2 25/39/2 28/41/2 
f 28/41/2 37/42/2 36/40/2 
f 37/42/2 28/41/2 30/43/2 
f 30/43/2 38/44/2 37/42/2 
f 38/44/2 30/43/2 32/45/2 
f 32/45/2 39/46/2 38/44/2 
f 39/46/2 32/45/2 34/47/2 
f 34/47/2 40/48/2 39/46/2 
f 40/48/2 34/47/2 6/6/2 
f 6/6/2 5/5/2 40/48/2 
f 41/49/2 42/50/2 43/51/2 
f 43/51/2 44/52/2 41/49/2 
f 44/52/2 43/51/2 45/53/2 
f 45/53/2 46/54/2 44/52/2 
f 46/54/2 45/53/2 47/55/2 
f 47/55/2 48/56/2 46/54/2 
f 48/56/2 47/55/2 49/57/2 
f 49/57/2 50/58/2 48/56/2 
f 50/58/2 49/57/2 8/8/2 
f 8/8/2 7/7/2 50/58/2 
f 51/59/3 52/60/3 53/61/3 
f 53/61/3 54/62/3 51/59/3 
f 54/62/3 53/61/3 55/63/3 
f 55/63/3 56/64/3 54/62/3 
f 56/64/3 55/63/3 57/65/3 
f 57/65/3 58/66/3 56/64/3 
f 58/66/3 57/65/3 59/67/3 
f 59/67/3 60/68/3 58/66/3 
f 60/68/3 59/67/3 61/69/3 
f 61/69/3 3/70/3 60/68/3 
f 3/70/3 61/69/3 9/10/3 
f 9/10/3 4/9/3 3/70/3 
f 62/71/3 15/72/3 14/73/3 
f 14/73/3 63/74/3 62/71/3 
f 63/74/3 14/73/3 17/75/3 
f 17/75/3 64/76/3 63/74/3 
f 64/76/3 17/75/3 19/77/3 
f 19/77/3 65/78/3 64/76/3 
f 65/78/3 19/77/3 21/79/3 
f 21/79/3 66/80/3 65/78/3 
f 66/80/3 21/79/3 11/12/3 
f 11/12/3 10/11/3 66/80/3 
s 1
f 6/81/1 34/36/1 33/35/1 
f 33/35/1 67/82/1 6/81/1 
f 41/83/1 44/84/1 68/85/1 
f 68/85/1 69/86/1 41/83/1 
f 44/84/1 46/87/1 70/88/1 
f 70/88/1 68/85/1 44/84/1 
f 46/87/1 48/89/1 71/90/1 
f 71/90/1 70/88/1 46/87/1 
f 48/89/1 50/91/1 72/92/1 
f 72/92/1 71/90/1 48/89/1 
f 50/91/1 7/93/1 73/94/1 
f 73/94/1 72/92/1 50/91/1 
f 7/93/1 6/81/1 67/82/1 
f 67/82/1 73/94/1 7/93/1 
f 74/95/1 75/96/1 24/26/1 
f 24/26/1 23/25/1 74/95/1 
f 75/96/1 76/97/1 27/29/1 
f 27/29/1 24/26/1 75/96/1 
f 76/97/1 77/98/1 29/31/1 
f 29/31/1 27/29/1 76/97/1 
f 77/98/1 78/99/1 31/33/1 
f 31/33/1 29/31/1 77/98/1 
f 78/99/1 79/100/1 33/35/1 
f 33/35/1 31/33/1 78/99/1 
f 80/101/1 79/100/1 2/2/1 
f 2/2/1 1/1/1 80/101/1 
f 81/102/1 82/103/1 13/14/1 
f 13/14/1 12/13/1 81/102/1 
f 82/103/1 83/104/1 16/17/1 
f 16/17/1 13/14/1 82/103/1 
f 83/104/1 84/105/1 18/19/1 
f 18/19/1 16/17/1 83/104/1 
f 84/105/1 85/106/1 20/21/1 
f 20/21/1 18/19/1 84/105/1 
f 85/106/1 86/107/1 22/23/1 
f 22/23/1 20/21/1 85/106/1 
f 86/107/1 80/101/1 1/1/1 
f 1/1/1 22/23/1 86/107/1 
f 51/108/1 54/109/1 87/110/1 
f 87/110/1 88/111/1 51/108/1 
f 54/109/1 56/112/1 89/113/1 
f 89/113/1 87/110/1 54/109/1 
f 56/112/1 58/114/1 90/115/1 
f 90/115/1 89/113/1 56/112/1 
f 58/114/1 60/116/1 91/117/1 
f 91/117/1 90/115/1 58/114/1 
f 60/116/1 3/3/1 2/2/1 
f 2/2/1 91/117/1 60/116/1 
f 88/111/1 87/110/1 75/96/1 
f 75/96/1 74/95/1 88/111/1 
f 87/110/1 89/113/1 76/97/1 
f 76/97/1 75/96/1 87/110/1 
f 89/113/1 90/115/1 77/98/1 
f 77/98/1 76/97/1 89/113/1 
f 90/115/1 91/117/1 78/99/1 
f 78/99/1 77/98/1 90/115/1 
f 91/117/1 2/2/1 79/100/1 
f 79/100/1 78/99/1 91/117/1 
f 67/82/1 33/35/1 79/100/1 
f 79/100/1 80/101/1 67/82/1 
f 69/86/1 68/85/1 82/103/1 
f 82/103/1 81/102/1 69/86/1 
f 68/85/1 70/88/1 83/104/1 
f 83/104/1 82/103/1 68/85/1 
f 70/88/1 71/90/1 84/105/1 
f 84/105/1 83/104/1 70/88/1 
f 71/90/1 72/92/1 85/106/1 
f 85/106/1 84/105/1 71/90/1 
f 72/92/1 73/94/1 86/107/1 
f 86/107/1 85/106/1 72/92/1 
f 73/94/1 67/82/1 80/101/1 
f 80/101/1 86/107/1 73/94/1 
s off
f 12/118/4 92/119/4 93/120/4 
f 93/120/4 81/121/4 12/118/4 
f 94/122/4 95/123/4 96/124/4 
f 96/124/4 41/125/4 94/122/4 
f 95/123/4 94/122/4 81/121/4 
f 81/121/4 93/120/4 95/123/4 
f 92/119/4 12/118/4 15/126/4 
f 15/126/4 97/127/4 92/119/4 
# 0 polygons - 152 triangles

