# 3ds Max Wavefront OBJ Exporter v0.97b - (c)2007 guruware
# File Created: 28.04.2017 02:06:52

#
# object Plane001
#

v  -1.5000 0.0250 -0.0000
v  -1.5000 0.0250 -5.3333
v  -3.0000 -0.0000 -5.3333
v  -3.0000 -0.0000 -0.0000
v  6.0000 -3.1150 -0.0000
v  3.0000 -0.0000 -0.0000
v  3.0000 -0.0000 5.3333
v  6.0000 -3.1150 5.3333
v  -6.0000 -3.1150 -0.0000
v  -6.0000 -3.1150 5.3333
v  -3.0000 -0.0000 5.3333
v  -1.5000 0.0250 32.0000
v  -1.5000 0.0250 26.6667
v  -3.0000 -0.0000 26.6667
v  -3.0000 -0.0000 32.0000
v  -1.5000 0.0250 21.3333
v  -3.0000 -0.0000 21.3333
v  -1.5000 0.0250 16.0000
v  -3.0000 -0.0000 16.0000
v  -1.5000 0.0250 10.6667
v  -3.0000 -0.0000 10.6667
v  -1.5000 0.0250 5.3333
v  1.5000 0.0250 -32.0000
v  1.5000 0.0250 -26.6667
v  3.0000 -0.0000 -26.6667
v  3.0000 -0.0000 -32.0000
v  1.5000 0.0250 -21.3333
v  3.0000 -0.0000 -21.3333
v  1.5000 0.0250 -16.0000
v  3.0000 -0.0000 -16.0000
v  1.5000 0.0250 -10.6667
v  3.0000 -0.0000 -10.6667
v  1.5000 0.0250 -5.3333
v  3.0000 -0.0000 -5.3333
v  6.0000 -3.1150 -32.0000
v  6.0000 -3.1150 -26.6667
v  6.0000 -3.1150 -21.3333
v  6.0000 -3.1150 -16.0000
v  6.0000 -3.1150 -10.6667
v  6.0000 -3.1150 -5.3333
v  3.0000 -0.0000 32.0000
v  6.0000 -3.1150 32.0000
v  6.0000 -3.1150 26.6667
v  3.0000 -0.0000 26.6667
v  6.0000 -3.1150 21.3333
v  3.0000 -0.0000 21.3333
v  6.0000 -3.1150 16.0000
v  3.0000 -0.0000 16.0000
v  6.0000 -3.1150 10.6667
v  3.0000 -0.0000 10.6667
v  -3.0000 -0.0000 -32.0000
v  -6.0000 -3.1150 -32.0000
v  -6.0000 -3.1150 -26.6667
v  -3.0000 -0.0000 -26.6667
v  -6.0000 -3.1150 -21.3333
v  -3.0000 -0.0000 -21.3333
v  -6.0000 -3.1150 -16.0000
v  -3.0000 -0.0000 -16.0000
v  -6.0000 -3.1150 -10.6667
v  -3.0000 -0.0000 -10.6667
v  -6.0000 -3.1150 -5.3333
v  -6.0000 -3.1150 32.0000
v  -6.0000 -3.1150 26.6667
v  -6.0000 -3.1150 21.3333
v  -6.0000 -3.1150 16.0000
v  -6.0000 -3.1150 10.6667
v  1.5000 0.0250 -0.0000
v  1.5000 0.0250 26.6667
v  1.5000 0.0250 32.0000
v  1.5000 0.0250 21.3333
v  1.5000 0.0250 16.0000
v  1.5000 0.0250 10.6667
v  1.5000 0.0250 5.3333
v  0.0000 0.0250 -32.0000
v  0.0000 0.0250 -26.6667
v  0.0000 0.0250 -21.3333
v  0.0000 0.0250 -16.0000
v  0.0000 0.0250 -10.6667
v  0.0000 0.0250 -5.3333
v  0.0000 0.0250 -0.0000
v  0.0000 0.0250 32.0000
v  0.0000 0.0250 26.6667
v  0.0000 0.0250 21.3333
v  0.0000 0.0250 16.0000
v  0.0000 0.0250 10.6667
v  0.0000 0.0250 5.3333
v  -1.5000 0.0250 -26.6667
v  -1.5000 0.0250 -32.0000
v  -1.5000 0.0250 -21.3333
v  -1.5000 0.0250 -16.0000
v  -1.5000 0.0250 -10.6667
v  -1.5001 -0.5250 32.0000
v  -0.0000 -0.5250 32.0000
v  -0.0000 0.0250 32.0000
v  1.5001 0.0250 32.0000
v  1.5000 -0.5250 32.0000
v  3.0000 -0.5250 32.0000
v  3.0000 0.0000 32.0000
v  -3.0000 0.0000 32.0000
v  -3.0000 -0.5250 32.0000
# 100 vertices

vn -0.0083 1.0000 -0.0000
vn -0.0083 1.0000 0.0000
vn 0.0000 1.0000 -0.0000
vn 0.7258 0.6879 -0.0000
vn -0.7258 0.6879 -0.0000
vn 0.0083 1.0000 0.0000
vn 0.0083 1.0000 -0.0000
vn 0.0167 0.9999 -0.0000
vn -0.0000 1.0000 0.0000
vn -0.0000 1.0000 -0.0000
vn -0.0167 0.9999 0.0000
vn -0.0167 0.9999 -0.0000
vn 0.0000 0.0000 1.0000
# 13 vertex normals

vt 0.3129 0.5000 0.0000
vt 0.3129 0.5833 0.0000
vt 0.0972 0.5833 0.0000
vt 0.0972 0.5000 0.0000
vt 0.7221 0.5000 0.0000
vt 0.9978 0.5000 0.0000
vt 0.9978 0.5833 0.0000
vt 0.7221 0.5833 0.0000
vt 0.0608 0.5000 0.0000
vt 0.3349 0.5000 0.0000
vt 0.3349 0.5833 0.0000
vt 0.0608 0.5833 0.0000
vt 0.3129 0.0000 0.0000
vt 0.3129 0.0833 0.0000
vt 0.0972 0.0833 0.0000
vt 0.0972 0.0000 0.0000
vt 0.3129 0.1667 0.0000
vt 0.0972 0.1667 0.0000
vt 0.3129 0.2500 0.0000
vt 0.0972 0.2500 0.0000
vt 0.3129 0.3333 0.0000
vt 0.0972 0.3333 0.0000
vt 0.3129 0.4167 0.0000
vt 0.0972 0.4167 0.0000
vt 0.7443 1.0000 0.0000
vt 0.7443 0.9167 0.0000
vt 0.9600 0.9167 0.0000
vt 0.9600 1.0000 0.0000
vt 0.7443 0.8333 0.0000
vt 0.9600 0.8333 0.0000
vt 0.7443 0.7500 0.0000
vt 0.9600 0.7500 0.0000
vt 0.7443 0.6667 0.0000
vt 0.9600 0.6667 0.0000
vt 0.7443 0.5833 0.0000
vt 0.9600 0.5833 0.0000
vt 0.7221 -0.0000 0.0000
vt 0.9978 0.0000 0.0000
vt 0.9978 0.0833 0.0000
vt 0.7221 0.0833 0.0000
vt 0.9978 0.1667 0.0000
vt 0.7221 0.1667 0.0000
vt 0.9978 0.2500 0.0000
vt 0.7221 0.2500 0.0000
vt 0.9978 0.3333 0.0000
vt 0.7221 0.3333 0.0000
vt 0.9978 0.4167 0.0000
vt 0.7221 0.4167 0.0000
vt 0.9978 1.0000 0.0000
vt 0.7221 1.0000 0.0000
vt 0.7221 0.9167 0.0000
vt 0.9978 0.9167 0.0000
vt 0.7221 0.8333 0.0000
vt 0.9978 0.8333 0.0000
vt 0.7221 0.7500 0.0000
vt 0.9978 0.7500 0.0000
vt 0.7221 0.6667 0.0000
vt 0.9978 0.6667 0.0000
vt 0.0608 0.0000 0.0000
vt 0.3349 0.0000 0.0000
vt 0.3349 0.0833 0.0000
vt 0.0608 0.0833 0.0000
vt 0.3349 0.1667 0.0000
vt 0.0608 0.1667 0.0000
vt 0.3349 0.2500 0.0000
vt 0.0608 0.2500 0.0000
vt 0.3349 0.3333 0.0000
vt 0.0608 0.3333 0.0000
vt 0.3349 0.4167 0.0000
vt 0.0608 0.4167 0.0000
vt 0.3349 1.0000 0.0000
vt 0.0608 1.0000 0.0000
vt 0.0608 0.9167 0.0000
vt 0.3349 0.9167 0.0000
vt 0.0608 0.8333 0.0000
vt 0.3349 0.8333 0.0000
vt 0.0608 0.7500 0.0000
vt 0.3349 0.7500 0.0000
vt 0.0608 0.6667 0.0000
vt 0.3349 0.6667 0.0000
vt 0.9600 0.5000 0.0000
vt 0.7443 0.5000 0.0000
vt 0.9600 0.0000 0.0000
vt 0.9600 0.0833 0.0000
vt 0.7443 0.0833 0.0000
vt 0.7443 0.0000 0.0000
vt 0.9600 0.1667 0.0000
vt 0.7443 0.1667 0.0000
vt 0.9600 0.2500 0.0000
vt 0.7443 0.2500 0.0000
vt 0.9600 0.3333 0.0000
vt 0.7443 0.3333 0.0000
vt 0.9600 0.4167 0.0000
vt 0.7443 0.4167 0.0000
vt 0.5286 1.0000 0.0000
vt 0.5286 0.9167 0.0000
vt 0.5286 0.8333 0.0000
vt 0.5286 0.7500 0.0000
vt 0.5286 0.6667 0.0000
vt 0.5286 0.5833 0.0000
vt 0.5286 0.5000 0.0000
vt 0.5286 0.0000 0.0000
vt 0.5286 0.0833 0.0000
vt 0.5286 0.1667 0.0000
vt 0.5286 0.2500 0.0000
vt 0.5286 0.3333 0.0000
vt 0.5286 0.4167 0.0000
vt 0.0972 1.0000 0.0000
vt 0.0972 0.9167 0.0000
vt 0.3129 0.9167 0.0000
vt 0.3129 1.0000 0.0000
vt 0.0972 0.8333 0.0000
vt 0.3129 0.8333 0.0000
vt 0.0972 0.7500 0.0000
vt 0.3129 0.7500 0.0000
vt 0.0972 0.6667 0.0000
vt 0.3129 0.6667 0.0000
vt 0.0009 0.2499 0.0000
vt 0.0587 0.2499 0.0000
vt 0.0587 0.4998 0.0000
vt 0.0009 0.4998 0.0000
vt 0.0009 0.7497 0.0000
vt 0.0587 0.7497 0.0000
vt 0.0587 0.9996 0.0000
vt 0.0009 0.9996 0.0000
vt 0.0009 0.0000 0.0000
vt 0.0587 0.0000 0.0000
# 127 texture coords

g Plane001
s 1
f 1/1/1 2/2/2 3/3/3 
f 3/3/3 4/4/3 1/1/1 
s off
f 5/5/4 6/6/4 7/7/4 
f 7/7/4 8/8/4 5/5/4 
f 4/9/5 9/10/5 10/11/5 
f 10/11/5 11/12/5 4/9/5 
s 1
f 12/13/2 13/14/2 14/15/3 
f 14/15/3 15/16/3 12/13/2 
f 13/14/2 16/17/1 17/18/3 
f 17/18/3 14/15/3 13/14/2 
f 16/17/1 18/19/1 19/20/3 
f 19/20/3 17/18/3 16/17/1 
f 18/19/1 20/21/1 21/22/3 
f 21/22/3 19/20/3 18/19/1 
f 20/21/1 22/23/1 11/24/3 
f 11/24/3 21/22/3 20/21/1 
f 22/23/1 1/1/1 4/4/3 
f 4/4/3 11/24/3 22/23/1 
f 23/25/6 24/26/6 25/27/3 
f 25/27/3 26/28/3 23/25/6 
f 24/26/6 27/29/7 28/30/3 
f 28/30/3 25/27/3 24/26/6 
f 27/29/7 29/31/7 30/32/3 
f 30/32/3 28/30/3 27/29/7 
f 29/31/7 31/33/7 32/34/3 
f 32/34/3 30/32/3 29/31/7 
f 31/33/7 33/35/6 34/36/3 
f 34/36/3 32/34/3 31/33/7 
s off
f 35/37/4 26/38/4 25/39/4 
f 25/39/4 36/40/4 35/37/4 
f 36/40/4 25/39/4 28/41/4 
f 28/41/4 37/42/4 36/40/4 
f 37/42/4 28/41/4 30/43/4 
f 30/43/4 38/44/4 37/42/4 
f 38/44/4 30/43/4 32/45/4 
f 32/45/4 39/46/4 38/44/4 
f 39/46/4 32/45/4 34/47/4 
f 34/47/4 40/48/4 39/46/4 
f 40/48/4 34/47/4 6/6/4 
f 6/6/4 5/5/4 40/48/4 
f 41/49/4 42/50/4 43/51/4 
f 43/51/4 44/52/4 41/49/4 
f 44/52/4 43/51/4 45/53/4 
f 45/53/4 46/54/4 44/52/4 
f 46/54/4 45/53/4 47/55/4 
f 47/55/4 48/56/4 46/54/4 
f 48/56/4 47/55/4 49/57/4 
f 49/57/4 50/58/4 48/56/4 
f 50/58/4 49/57/4 8/8/4 
f 8/8/4 7/7/4 50/58/4 
f 51/59/5 52/60/5 53/61/5 
f 53/61/5 54/62/5 51/59/5 
f 54/62/5 53/61/5 55/63/5 
f 55/63/5 56/64/5 54/62/5 
f 56/64/5 55/63/5 57/65/5 
f 57/65/5 58/66/5 56/64/5 
f 58/66/5 57/65/5 59/67/5 
f 59/67/5 60/68/5 58/66/5 
f 60/68/5 59/67/5 61/69/5 
f 61/69/5 3/70/5 60/68/5 
f 3/70/5 61/69/5 9/10/5 
f 9/10/5 4/9/5 3/70/5 
f 62/71/5 15/72/5 14/73/5 
f 14/73/5 63/74/5 62/71/5 
f 63/74/5 14/73/5 17/75/5 
f 17/75/5 64/76/5 63/74/5 
f 64/76/5 17/75/5 19/77/5 
f 19/77/5 65/78/5 64/76/5 
f 65/78/5 19/77/5 21/79/5 
f 21/79/5 66/80/5 65/78/5 
f 66/80/5 21/79/5 11/12/5 
f 11/12/5 10/11/5 66/80/5 
s 1
f 6/81/8 34/36/8 33/35/6 
f 33/35/6 67/82/7 6/81/8 
f 41/83/8 44/84/8 68/85/6 
f 68/85/6 69/86/6 41/83/8 
f 44/84/8 46/87/8 70/88/7 
f 70/88/7 68/85/6 44/84/8 
f 46/87/8 48/89/8 71/90/7 
f 71/90/7 70/88/7 46/87/8 
f 48/89/8 50/91/8 72/92/7 
f 72/92/7 71/90/7 48/89/8 
f 50/91/8 7/93/8 73/94/7 
f 73/94/7 72/92/7 50/91/8 
f 7/93/8 6/81/8 67/82/7 
f 67/82/7 73/94/7 7/93/8 
f 74/95/9 75/96/9 24/26/6 
f 24/26/6 23/25/6 74/95/9 
f 75/96/9 76/97/10 27/29/7 
f 27/29/7 24/26/6 75/96/9 
f 76/97/10 77/98/10 29/31/7 
f 29/31/7 27/29/7 76/97/10 
f 77/98/10 78/99/10 31/33/7 
f 31/33/7 29/31/7 77/98/10 
f 78/99/10 79/100/9 33/35/6 
f 33/35/6 31/33/7 78/99/10 
f 80/101/10 79/100/9 2/2/2 
f 2/2/2 1/1/1 80/101/10 
f 81/102/9 82/103/9 13/14/2 
f 13/14/2 12/13/2 81/102/9 
f 82/103/9 83/104/3 16/17/1 
f 16/17/1 13/14/2 82/103/9 
f 83/104/3 84/105/3 18/19/1 
f 18/19/1 16/17/1 83/104/3 
f 84/105/3 85/106/3 20/21/1 
f 20/21/1 18/19/1 84/105/3 
f 85/106/3 86/107/10 22/23/1 
f 22/23/1 20/21/1 85/106/3 
f 86/107/10 80/101/10 1/1/1 
f 1/1/1 22/23/1 86/107/10 
f 51/108/11 54/109/11 87/110/2 
f 87/110/2 88/111/2 51/108/11 
f 54/109/11 56/112/12 89/113/1 
f 89/113/1 87/110/2 54/109/11 
f 56/112/12 58/114/12 90/115/1 
f 90/115/1 89/113/1 56/112/12 
f 58/114/12 60/116/12 91/117/1 
f 91/117/1 90/115/1 58/114/12 
f 60/116/12 3/3/12 2/2/2 
f 2/2/2 91/117/1 60/116/12 
f 88/111/2 87/110/2 75/96/9 
f 75/96/9 74/95/9 88/111/2 
f 87/110/2 89/113/1 76/97/10 
f 76/97/10 75/96/9 87/110/2 
f 89/113/1 90/115/1 77/98/10 
f 77/98/10 76/97/10 89/113/1 
f 90/115/1 91/117/1 78/99/10 
f 78/99/10 77/98/10 90/115/1 
f 91/117/1 2/2/2 79/100/9 
f 79/100/9 78/99/10 91/117/1 
f 67/82/7 33/35/6 79/100/9 
f 79/100/9 80/101/10 67/82/7 
f 69/86/6 68/85/6 82/103/9 
f 82/103/9 81/102/9 69/86/6 
f 68/85/6 70/88/7 83/104/3 
f 83/104/3 82/103/9 68/85/6 
f 70/88/7 71/90/7 84/105/3 
f 84/105/3 83/104/3 70/88/7 
f 71/90/7 72/92/7 85/106/3 
f 85/106/3 84/105/3 71/90/7 
f 72/92/7 73/94/7 86/107/10 
f 86/107/10 85/106/3 72/92/7 
f 73/94/7 67/82/7 80/101/10 
f 80/101/10 86/107/10 73/94/7 
s off
f 12/118/13 92/119/13 93/120/13 
f 93/120/13 94/121/13 12/118/13 
f 95/122/13 96/123/13 97/124/13 
f 97/124/13 98/125/13 95/122/13 
f 96/123/13 95/122/13 94/121/13 
f 94/121/13 93/120/13 96/123/13 
f 92/119/13 12/118/13 99/126/13 
f 99/126/13 100/127/13 92/119/13 
# 152 faces

