# 3ds Max Wavefront OBJ Exporter v0.97b - (c)2007 guruware
# File Created: 28.10.2017 10:03:18

#
# object Level_Crossing_Pavement001
#

v  -1.5000 0.2000 -5.3333
v  -1.5000 0.2000 -0.0000
v  0.0068 0.2000 -5.3333
v  0.0048 0.2000 -0.0000
v  1.5000 0.2000 -5.3333
v  1.5000 0.2000 -0.0000
v  3.9931 -0.3000 -5.3333
v  3.9931 -0.3000 -0.0000
v  -1.5000 0.2000 5.3333
v  -4.0031 -0.3000 5.3333
v  -4.0031 -0.3000 -0.0000
v  -1.5000 0.2000 26.6667
v  -1.5000 0.2000 32.0000
v  -0.0050 0.2000 26.6667
v  -0.0070 0.2000 32.0000
v  -1.5000 0.2000 21.3333
v  -0.0030 0.2000 21.3333
v  -1.5000 0.2000 16.0000
v  -0.0010 0.2000 16.0000
v  -1.5000 0.2000 10.6667
v  0.0008 0.2000 10.6667
v  0.0028 0.2000 5.3333
v  0.0126 0.2000 -21.3333
v  -1.5000 0.2000 -21.3333
v  0.0106 0.2000 -16.0000
v  -1.5000 0.2000 -16.0000
v  0.0088 0.2000 -10.6667
v  -1.5000 0.2000 -10.6667
v  1.5000 0.2000 26.6667
v  1.5000 0.2000 32.0000
v  3.9931 -0.3000 26.6667
v  3.9931 -0.3000 32.0000
v  1.5000 0.2000 21.3333
v  3.9931 -0.3000 21.3333
v  1.5000 0.2000 16.0000
v  3.9931 -0.3000 16.0000
v  1.5000 0.2000 10.6667
v  3.9931 -0.3000 10.6667
v  1.5000 0.2000 5.3333
v  3.9931 -0.3000 5.3333
v  3.9931 -0.3000 -16.0000
v  3.9931 -0.3000 -21.3333
v  1.5000 0.2000 -16.0000
v  1.5000 0.2000 -21.3333
v  3.9931 -0.3000 -10.6667
v  1.5000 0.2000 -10.6667
v  -4.0031 -0.3000 -16.0000
v  -4.0038 -0.3000 -21.3333
v  -4.0031 -0.3000 -10.6667
v  -4.0031 -0.3000 -5.3333
v  -4.0031 -0.3000 26.6667
v  -4.0031 -0.3000 32.0000
v  -4.0031 -0.3000 21.3333
v  -4.0031 -0.3000 16.0000
v  -4.0031 -0.3000 10.6667
v  -1.3173 0.5000 -26.6667
v  -1.1711 -0.3000 -26.6667
v  -1.1720 -0.3000 -32.0000
v  -1.3167 0.5000 -32.0000
v  -0.4622 0.5000 -32.0000
v  -0.6042 -0.3000 -32.0000
v  -0.6027 -0.3000 -26.6667
v  -0.4614 0.5000 -26.6667
v  -1.9019 0.5000 -32.0000
v  -2.0498 -0.3000 -32.0000
v  -2.0489 -0.3000 -26.6667
v  -1.9025 0.5000 -26.6667
v  -2.1945 0.5000 -32.0000
v  -2.3367 -0.3000 -32.0000
v  -2.3352 -0.3000 -26.6667
v  -2.1938 0.5000 -26.6667
v  -0.1853 0.4841 -31.9995
v  -0.3233 -0.3000 -32.0000
v  -0.3217 -0.3000 -26.6667
v  -0.1805 0.5000 -26.6667
v  -1.0233 0.5000 -26.6667
v  -0.8836 -0.3000 -26.6667
v  -0.8852 -0.3000 -32.0000
v  -1.0241 0.5000 -32.0000
v  -0.7424 0.5000 -26.6667
v  -0.7431 0.5000 -32.0000
v  -1.6113 0.5000 -26.6667
v  -1.4651 -0.3000 -26.6667
v  -1.4646 -0.3000 -32.0000
v  -1.6093 0.5000 -32.0000
v  -1.7572 -0.3000 -32.0000
v  -1.7578 -0.3000 -26.6667
v  0.1765 0.4841 -32.0016
v  -0.0049 -0.3003 -32.0001
v  -0.0034 -0.3003 -26.6668
v  0.1708 0.5000 -26.6667
v  1.3069 0.5000 -26.6667
v  1.3062 0.5000 -32.0000
v  1.1584 -0.3000 -32.0000
v  1.1591 -0.3000 -26.6667
v  0.4517 0.5000 -32.0000
v  0.4510 0.5000 -26.6667
v  0.5907 -0.3000 -26.6667
v  0.5907 -0.3000 -32.0000
v  1.8914 0.5000 -32.0000
v  1.8921 0.5000 -26.6667
v  2.0369 -0.3000 -26.6667
v  2.0362 -0.3000 -32.0000
v  2.1841 0.5000 -32.0000
v  2.1833 0.5000 -26.6667
v  2.3231 -0.3000 -26.6667
v  2.3231 -0.3000 -32.0000
v  0.3097 -0.3000 -26.6667
v  0.3097 -0.3000 -32.0000
v  1.0128 0.5000 -26.6667
v  1.0136 0.5000 -32.0000
v  0.8716 -0.3000 -32.0000
v  0.8716 -0.3000 -26.6667
v  0.7327 0.5000 -32.0000
v  0.7319 0.5000 -26.6667
v  1.6009 0.5000 -26.6667
v  1.5988 0.5000 -32.0000
v  1.4510 -0.3000 -32.0000
v  1.4531 -0.3000 -26.6667
v  1.7457 -0.3000 -26.6667
v  1.7436 -0.3000 -32.0000
v  -1.3179 0.5000 -21.3333
v  -1.1702 -0.3000 -21.3333
v  -0.6011 -0.3000 -21.3333
v  -0.4607 0.5000 -21.3333
v  -2.0481 -0.3000 -21.3333
v  -1.9032 0.5000 -21.3333
v  -2.3336 -0.3000 -21.3333
v  -2.1930 0.5000 -21.3333
v  -0.3202 -0.3000 -21.3333
v  -0.1798 0.5000 -21.3333
v  -1.0225 0.5000 -21.3333
v  -0.8820 -0.3000 -21.3333
v  -0.7416 0.5000 -21.3333
v  -1.6134 0.5000 -21.3333
v  -1.4657 -0.3000 -21.3333
v  -1.7583 -0.3000 -21.3333
v  -0.0039 -0.3002 -21.3334
v  0.1708 0.5000 -21.3333
v  1.3075 0.5000 -21.3333
v  1.1597 -0.3000 -21.3333
v  0.4502 0.5000 -21.3333
v  0.5907 -0.3000 -21.3333
v  1.8927 0.5000 -21.3333
v  2.0377 -0.3000 -21.3333
v  2.1826 0.5000 -21.3333
v  2.3231 -0.3000 -21.3333
v  0.3097 -0.3000 -21.3333
v  1.0120 0.5000 -21.3333
v  0.8716 -0.3000 -21.3333
v  0.7311 0.5000 -21.3333
v  1.6029 0.5000 -21.3333
v  1.4552 -0.3000 -21.3333
v  1.7478 -0.3000 -21.3333
v  -1.0063 -0.3000 -21.3333
v  -1.0063 -0.3000 -26.6667
v  -4.0060 -0.3000 -26.6667
v  -0.0025 -0.3002 -21.3334
v  -0.0065 -0.3000 -26.6667
v  0.9933 -0.3000 -21.3333
v  0.9933 -0.3000 -26.6667
v  3.9931 -0.3000 -26.6667
v  -1.0063 -0.3000 -32.0000
v  -4.0060 -0.3000 -32.0000
v  -0.0065 -0.3000 -32.0000
v  0.9933 -0.3000 -32.0000
v  3.9931 -0.3000 -32.0000
v  0.5906 -0.3000 -21.3333
v  -0.6006 -0.3000 -21.3333
v  -3.4713 -0.3000 -21.3333
v  -2.9396 -0.3000 -21.3333
v  -2.4078 -0.3000 -21.3333
v  -1.8679 -0.3000 -21.3333
v  -1.3199 -0.3000 -21.3333
v  -0.7666 -0.3000 -21.3333
v  -2.2079 -0.3000 -21.3333
v  -1.6630 -0.3000 -21.3333
v  -1.1318 -0.3000 -21.3333
v  1.1218 -0.3000 -21.3333
v  1.6530 -0.3000 -21.3333
v  2.1979 -0.3000 -21.3333
v  0.7566 -0.3000 -21.3333
v  1.3099 -0.3000 -21.3333
v  1.8580 -0.3000 -21.3333
v  2.3978 -0.3000 -21.3333
v  2.9296 -0.3000 -21.3333
v  3.4613 -0.3000 -21.3333
v  3.9931 0.0500 -32.0000
v  -4.0060 0.0500 -32.0000
v  -2.7741 0.5000 -32.0000
v  -2.9219 -0.3000 -32.0000
v  -2.9211 -0.3000 -26.6667
v  -2.7747 0.5000 -26.6667
v  -3.0667 0.5000 -32.0000
v  -3.2089 -0.3000 -32.0000
v  -3.2074 -0.3000 -26.6667
v  -3.0659 0.5000 -26.6667
v  -2.4835 0.5000 -26.6667
v  -2.3373 -0.3000 -26.6667
v  -2.4815 0.5000 -32.0000
v  -2.6293 -0.3000 -32.0000
v  -2.6299 -0.3000 -26.6667
v  -2.9202 -0.3000 -21.3333
v  -2.7753 0.5000 -21.3333
v  -3.2058 -0.3000 -21.3333
v  -3.0652 0.5000 -21.3333
v  -2.4855 0.5000 -21.3333
v  -2.3378 -0.3000 -21.3333
v  -2.6304 -0.3000 -21.3333
v  2.7579 0.5000 -32.0000
v  2.6101 -0.3000 -32.0000
v  2.6109 -0.3000 -26.6667
v  2.7573 0.5000 -26.6667
v  2.4653 0.5000 -32.0000
v  2.3247 -0.3000 -26.6667
v  2.4661 0.5000 -26.6667
v  3.0485 0.5000 -26.6667
v  3.1948 -0.3000 -26.6667
v  3.1953 -0.3000 -32.0000
v  3.0506 0.5000 -32.0000
v  2.9027 -0.3000 -32.0000
v  2.9021 -0.3000 -26.6667
v  2.6118 -0.3000 -21.3333
v  2.7567 0.5000 -21.3333
v  2.3263 -0.3000 -21.3333
v  2.4668 0.5000 -21.3333
v  3.0465 0.5000 -21.3333
v  3.1942 -0.3000 -21.3333
v  2.9016 -0.3000 -21.3333
# 229 vertices

vn -0.0984 0.9951 -0.0000
vn 0.0000 1.0000 -0.0000
vn 0.0988 0.9951 -0.0000
vn 0.1966 0.9805 -0.0000
vn -0.1959 0.9806 -0.0000
vn -0.1958 0.9806 -0.0000
vn 0.9451 0.3268 -0.0003
vn 0.9462 0.3237 0.0002
vn -0.9480 0.3183 0.0005
vn -0.9485 0.3167 0.0003
vn -0.9440 0.3299 0.0003
vn -0.9450 0.3270 -0.0002
vn -0.9479 0.3186 0.0005
vn -0.9484 0.3170 0.0002
vn -0.9488 0.3159 0.0005
vn -0.9485 0.3167 0.0007
vn 0.9501 0.3119 -0.0003
vn 0.9496 0.3135 -0.0005
vn 0.9496 0.3136 -0.0005
vn 0.9501 0.3120 -0.0003
vn -0.9486 0.3166 0.0002
vn 0.9501 0.3119 -0.0002
vn 0.9451 0.3267 0.0002
vn 0.9462 0.3237 0.0007
vn -0.9441 0.3297 -0.0002
vn -0.9440 0.3299 -0.0002
vn -0.9441 0.3297 0.0003
vn -0.9450 0.3271 -0.0007
vn 0.9461 0.3238 0.0002
vn 0.9461 0.3239 -0.0003
vn 0.9462 0.3237 -0.0002
vn -0.9162 0.4007 0.0005
vn -0.9247 0.3806 -0.0030
vn 0.9171 0.3987 -0.0027
vn 0.9225 0.3860 -0.0005
vn -0.9440 0.3299 0.0002
vn -0.9440 0.3298 0.0002
vn 0.9496 0.3135 0.0002
vn 0.9501 0.3120 -0.0000
vn 0.9461 0.3239 -0.0002
vn 0.9495 0.3138 0.0002
vn 0.9500 0.3123 -0.0000
vn 0.9501 0.3120 0.0010
vn 0.9521 0.3059 -0.0000
vn -0.9485 0.3167 -0.0000
vn -0.9480 0.3182 -0.0002
vn -0.9480 0.3183 -0.0003
vn -0.9440 0.3299 0.0007
vn -0.9440 0.3298 0.0007
vn 0.9462 0.3237 -0.0007
vn 0.9451 0.3267 -0.0002
vn 0.9451 0.3267 0.0003
vn 0.9461 0.3238 -0.0007
vn -0.9450 0.3270 0.0007
vn -0.9450 0.3270 0.0002
vn 0.9441 0.3296 -0.0003
vn 0.9451 0.3268 0.0002
vn -0.9485 0.3167 0.0005
vn -0.9491 0.3151 0.0002
vn -0.9450 0.3270 0.0003
vn -0.9460 0.3240 -0.0002
vn -0.9484 0.3170 0.0005
vn -0.9490 0.3153 0.0002
vn 0.9496 0.3135 -0.0002
vn 0.9491 0.3151 -0.0005
vn 0.9496 0.3136 -0.0003
vn -0.9491 0.3151 0.0003
vn -0.9486 0.3166 0.0005
vn 0.9441 0.3296 0.0002
vn 0.9451 0.3267 0.0007
vn -0.9441 0.3296 0.0003
vn -0.9450 0.3271 -0.0002
vn -0.9460 0.3240 -0.0007
vn 0.9460 0.3240 0.0002
vn 0.9460 0.3241 -0.0003
vn -0.9247 0.3806 -0.0002
vn -0.9243 0.3816 -0.0000
vn 0.9225 0.3860 -0.0002
vn 0.9235 0.3837 0.0002
vn -0.9441 0.3297 0.0002
vn 0.9491 0.3151 0.0003
vn 0.9496 0.3135 -0.0000
vn 0.9460 0.3241 -0.0002
vn 0.9490 0.3153 0.0002
vn 0.9495 0.3138 -0.0000
vn -0.9491 0.3151 -0.0000
vn -0.9485 0.3167 -0.0003
vn -0.9441 0.3296 0.0007
vn 0.9451 0.3267 -0.0007
vn 0.9441 0.3296 -0.0002
vn 0.9441 0.3296 0.0003
vn 0.9460 0.3240 -0.0007
vn -0.9460 0.3240 0.0007
vn -0.9460 0.3240 0.0002
vn -0.0001 1.0000 -0.0000
vn 0.0000 0.4511 -0.8925
vn 0.0000 0.0000 -1.0000
vn 0.0000 0.0000 1.0000
vn -0.9833 0.1818 0.0002
vn -0.9837 0.1800 -0.0001
vn -0.9846 0.1750 0.0003
vn -0.9847 0.1741 0.0001
vn 0.9837 0.1798 0.0001
vn 0.9840 0.1780 0.0004
vn -0.9833 0.1818 -0.0001
vn -0.9837 0.1801 -0.0004
vn 0.9840 0.1780 0.0001
vn 0.9840 0.1781 0.0001
vn 0.9840 0.1782 -0.0002
vn 0.9840 0.1780 -0.0001
vn -0.9837 0.1800 0.0002
vn -0.9840 0.1782 -0.0001
vn -0.9847 0.1741 0.0003
vn -0.9849 0.1731 0.0001
vn 0.9834 0.1816 0.0001
vn 0.9837 0.1798 0.0004
vn -0.9837 0.1801 -0.0001
vn -0.9840 0.1782 -0.0004
vn 0.9840 0.1782 0.0001
vn 0.9840 0.1783 -0.0002
vn 0.9840 0.1782 -0.0001
# 121 vertex normals

vt 0.3911 0.7230 0.0000
vt 0.3911 0.9711 0.0000
vt 0.7422 0.7230 0.0000
vt 0.7423 0.9711 0.0000
vt 0.4224 0.7460 0.0000
vt 0.4224 0.9943 0.0000
vt 0.1761 0.7460 0.0000
vt 0.1761 0.9943 0.0000
vt 0.4208 0.2498 0.0000
vt 0.4208 0.0016 0.0000
vt 0.1745 0.2498 0.0000
vt 0.1745 0.0016 0.0000
vt 0.3911 0.9002 0.0000
vt 0.3911 1.0000 0.0000
vt 0.7428 0.9002 0.0000
vt 0.7429 1.0000 0.0000
vt 0.3911 0.8003 0.0000
vt 0.7427 0.8003 0.0000
vt 0.3894 0.7150 0.0000
vt 0.3894 0.9631 0.0000
vt 0.7410 0.7150 0.0000
vt 0.7411 0.9631 0.0000
vt 0.3894 0.5392 0.0000
vt 0.3894 0.7873 0.0000
vt 0.7409 0.5392 0.0000
vt 0.7410 0.7873 0.0000
vt 0.3894 0.2238 0.0000
vt 0.3894 0.4722 0.0000
vt 0.7408 0.2238 0.0000
vt 0.7409 0.4722 0.0000
vt 0.3894 0.0427 0.0000
vt 0.3894 0.2908 0.0000
vt 0.7407 0.0427 0.0000
vt 0.7408 0.2908 0.0000
vt 0.7419 0.0025 0.0000
vt 0.3911 0.0025 0.0000
vt 0.7420 0.2506 0.0000
vt 0.3911 0.2506 0.0000
vt 0.7421 0.4987 0.0000
vt 0.3911 0.4987 0.0000
vt 0.7422 0.7471 0.0000
vt 0.3911 0.7471 0.0000
vt 0.4224 0.9001 0.0000
vt 0.4224 1.0000 0.0000
vt 0.1761 0.9001 0.0000
vt 0.1761 1.0000 0.0000
vt 0.4224 0.8001 0.0000
vt 0.1761 0.8001 0.0000
vt 0.4208 0.7466 0.0000
vt 0.4208 0.9949 0.0000
vt 0.1745 0.7466 0.0000
vt 0.1745 0.9949 0.0000
vt 0.4208 0.4984 0.0000
vt 0.1745 0.4984 0.0000
vt 0.1761 0.2492 0.0000
vt 0.1761 0.0009 0.0000
vt 0.4224 0.2492 0.0000
vt 0.4224 0.0009 0.0000
vt 0.1761 0.4975 0.0000
vt 0.4224 0.4975 0.0000
vt 0.7441 1.0000 0.0000
vt 0.3891 1.0000 0.0000
vt 0.7440 0.9002 0.0000
vt 0.3891 0.9002 0.0000
vt 0.7439 0.8003 0.0000
vt 0.3891 0.8003 0.0000
vt 0.7423 0.9631 0.0000
vt 0.3875 0.9631 0.0000
vt 0.7422 0.7150 0.0000
vt 0.3875 0.7150 0.0000
vt 0.7422 0.7873 0.0000
vt 0.3875 0.7873 0.0000
vt 0.7421 0.5392 0.0000
vt 0.3875 0.5392 0.0000
vt 0.7421 0.4722 0.0000
vt 0.3875 0.4722 0.0000
vt 0.7420 0.2238 0.0000
vt 0.3875 0.2238 0.0000
vt 0.7420 0.2908 0.0000
vt 0.3875 0.2908 0.0000
vt 0.7419 0.0427 0.0000
vt 0.3875 0.0427 0.0000
vt 0.7435 0.9711 0.0000
vt 0.3891 0.9711 0.0000
vt 0.7434 0.7242 0.0000
vt 0.3891 0.7242 0.0000
vt 0.7434 0.7483 0.0000
vt 0.3891 0.7483 0.0000
vt 0.7433 0.4999 0.0000
vt 0.3891 0.4999 0.0000
vt 0.7432 0.2506 0.0000
vt 0.3891 0.2506 0.0000
vt 0.7431 0.0025 0.0000
vt 0.3891 0.0025 0.0000
vt 0.9641 0.0833 0.0000
vt 0.9301 0.0833 0.0000
vt 0.9298 0.0000 0.0000
vt 0.9634 0.0000 0.0000
vt 0.8828 0.0000 0.0000
vt 0.9212 0.0000 0.0000
vt 0.9212 0.0833 0.0000
vt 0.8828 0.0833 0.0000
vt 0.9641 0.0000 0.0000
vt 0.9977 0.0000 0.0000
vt 0.9981 0.0833 0.0000
vt 0.9648 0.0833 0.0000
vt 0.8784 0.0000 0.0000
vt 0.9166 0.0000 0.0000
vt 0.9166 0.0833 0.0000
vt 0.8784 0.0833 0.0000
vt 0.9397 0.0000 0.0000
vt 0.9782 0.0000 0.0000
vt 0.9782 0.0833 0.0000
vt 0.9397 0.0833 0.0000
vt 0.8443 0.0000 0.0000
vt 0.8443 0.0833 0.0000
vt 0.8962 0.0833 0.0000
vt 0.8577 0.0833 0.0000
vt 0.8577 0.0000 0.0000
vt 0.8962 0.0000 0.0000
vt 0.9596 0.0833 0.0000
vt 0.9596 0.0000 0.0000
vt 0.9981 0.0000 0.0000
vt 0.8982 0.0833 0.0000
vt 0.8642 0.0833 0.0000
vt 0.8632 0.0000 0.0000
vt 0.8968 0.0000 0.0000
vt 0.9970 0.0000 0.0000
vt 0.9305 0.0000 0.0000
vt 0.9315 0.0833 0.0000
vt 0.8451 0.0833 0.0000
vt 0.8448 0.0000 0.0000
vt 0.3584 0.0000 0.0000
vt 0.4292 0.0000 0.0000
vt 0.4292 0.5000 0.0000
vt 0.3584 0.5000 0.0000
vt 0.5000 0.0000 0.0000
vt 0.5000 0.5000 0.0000
vt 0.5708 0.0000 0.0000
vt 0.5708 0.5000 0.0000
vt 0.6416 0.0000 0.0000
vt 0.6416 0.5000 0.0000
vt 0.4292 1.0000 0.0000
vt 0.3584 1.0000 0.0000
vt 0.5000 1.0000 0.0000
vt 0.5708 1.0000 0.0000
vt 0.6416 1.0000 0.0000
vt 0.9216 0.0833 0.0000
vt 0.3928 0.1667 0.0000
vt 0.9931 0.0833 0.0000
vt 0.8237 0.1667 0.0000
vt 0.5018 0.1667 0.0000
vt 0.6088 0.1667 0.0000
vt 0.9402 0.0181 0.0000
vt 0.9831 0.0181 0.0000
vt 0.9831 0.9939 0.0000
vt 0.9402 0.9939 0.0000
# 157 texture coords

g Level_Crossing_Pavement001
s 1
f 1/1/1 2/2/1 3/3/2 
f 4/4/2 3/3/2 2/2/1 
f 5/5/3 6/6/3 7/7/4 
f 8/8/4 7/7/4 6/6/3 
f 9/9/1 2/10/1 10/11/5 
f 11/12/5 10/11/5 2/10/1 
f 12/13/1 13/14/1 14/15/2 
f 15/16/2 14/15/2 13/14/1 
f 16/17/1 12/13/1 17/18/2 
f 14/15/2 17/18/2 12/13/1 
f 18/19/1 16/20/1 19/21/2 
f 17/22/2 19/21/2 16/20/1 
f 20/23/1 18/24/1 21/25/2 
f 19/26/2 21/25/2 18/24/1 
f 9/27/1 20/28/1 22/29/2 
f 21/30/2 22/29/2 20/28/1 
f 2/31/1 9/32/1 4/33/2 
f 22/34/2 4/33/2 9/32/1 
f 23/35/2 24/36/1 25/37/2 
f 26/38/1 25/37/2 24/36/1 
f 25/37/2 26/38/1 27/39/2 
f 28/40/1 27/39/2 26/38/1 
f 27/39/2 28/40/1 3/41/2 
f 1/42/1 3/41/2 28/40/1 
f 29/43/3 30/44/3 31/45/4 
f 32/46/4 31/45/4 30/44/3 
f 33/47/3 29/43/3 34/48/4 
f 31/45/4 34/48/4 29/43/3 
f 35/49/3 33/50/3 36/51/4 
f 34/52/4 36/51/4 33/50/3 
f 37/53/3 35/49/3 38/54/4 
f 36/51/4 38/54/4 35/49/3 
f 39/9/3 37/53/3 40/11/4 
f 38/54/4 40/11/4 37/53/3 
f 6/10/3 39/9/3 8/12/4 
f 40/11/4 8/12/4 39/9/3 
f 41/55/4 42/56/4 43/57/3 
f 44/58/3 43/57/3 42/56/4 
f 45/59/4 41/55/4 46/60/3 
f 43/57/3 46/60/3 41/55/4 
f 7/7/4 45/59/4 5/5/3 
f 46/60/3 5/5/3 45/59/4 
f 26/57/1 24/58/1 47/55/5 
f 48/56/6 47/55/5 24/58/1 
f 28/60/1 26/57/1 49/59/5 
f 47/55/5 49/59/5 26/57/1 
f 1/5/1 28/60/1 50/7/5 
f 49/59/5 50/7/5 28/60/1 
f 2/6/1 1/5/1 11/8/5 
f 50/7/5 11/8/5 1/5/1 
f 51/45/5 52/46/5 12/43/1 
f 13/44/1 12/43/1 52/46/5 
f 53/48/5 51/45/5 16/47/1 
f 12/43/1 16/47/1 51/45/5 
f 54/51/5 53/52/5 18/49/1 
f 16/50/1 18/49/1 53/52/5 
f 55/54/5 54/51/5 20/53/1 
f 18/49/1 20/53/1 54/51/5 
f 10/11/5 55/54/5 9/9/1 
f 20/53/1 9/9/1 55/54/5 
f 15/61/2 30/62/3 14/63/2 
f 29/64/3 14/63/2 30/62/3 
f 14/63/2 29/64/3 17/65/2 
f 33/66/3 17/65/2 29/64/3 
f 17/67/2 33/68/3 19/69/2 
f 35/70/3 19/69/2 33/68/3 
f 19/71/2 35/72/3 21/73/2 
f 37/74/3 21/73/2 35/72/3 
f 21/75/2 37/76/3 22/77/2 
f 39/78/3 22/77/2 37/76/3 
f 22/79/2 39/80/3 4/81/2 
f 6/82/3 4/81/2 39/80/3 
f 4/83/2 6/84/3 3/85/2 
f 5/86/3 3/85/2 6/84/3 
f 3/87/2 5/88/3 27/89/2 
f 46/90/3 27/89/2 5/88/3 
f 27/89/2 46/90/3 25/91/2 
f 43/92/3 25/91/2 46/90/3 
f 25/91/2 43/92/3 23/93/2 
f 44/94/3 23/93/2 43/92/3 
s off
f 56/95/7 57/96/7 58/97/7 
f 58/97/8 59/98/8 56/95/8 
f 60/99/9 61/100/9 62/101/9 
f 62/101/10 63/102/10 60/99/10 
f 64/103/11 65/104/11 66/105/11 
f 66/105/12 67/106/12 64/103/12 
f 68/107/13 69/108/13 70/109/13 
f 70/109/14 71/110/14 68/107/14 
f 72/111/15 73/112/15 74/113/15 
f 74/113/16 75/114/16 72/111/16 
f 73/115/17 60/99/17 63/102/17 
f 63/102/18 74/116/18 73/115/18 
f 76/117/19 77/118/19 78/119/19 
f 78/119/20 79/120/20 76/117/20 
f 77/105/21 80/121/21 81/122/21 
f 81/122/9 78/123/9 77/105/9 
f 80/121/19 62/101/19 61/100/19 
f 61/100/22 81/122/22 80/121/22 
f 82/124/23 83/125/23 84/126/23 
f 84/126/24 85/127/24 82/124/24 
f 83/105/25 56/95/25 59/98/25 
f 59/98/26 84/128/26 83/105/26 
f 79/120/11 58/97/11 57/96/11 
f 57/96/27 76/117/27 79/120/27 
f 85/127/26 86/129/26 87/130/26 
f 87/130/28 82/124/28 85/127/28 
f 86/129/8 64/103/8 67/106/8 
f 67/106/29 87/130/29 86/129/29 
f 71/110/30 66/131/30 65/132/30 
f 65/132/31 68/107/31 71/110/31 
f 88/111/32 89/112/32 90/113/32 
f 90/113/33 91/114/33 88/111/33 
f 89/115/34 72/99/34 75/102/34 
f 75/102/35 90/116/35 89/115/35 
f 92/95/36 93/98/36 94/97/36 
f 94/97/37 95/96/37 92/95/37 
f 96/99/38 97/102/38 98/101/38 
f 98/101/39 99/100/39 96/99/39 
f 100/103/40 101/106/40 102/105/40 
f 102/105/31 103/104/31 100/103/31 
f 104/107/41 105/110/41 106/109/41 
f 106/109/42 107/108/42 104/107/42 
f 88/111/43 91/114/43 108/113/43 
f 108/113/44 109/112/44 88/111/44 
f 109/115/45 108/116/45 97/102/45 
f 97/102/46 96/99/46 109/115/46 
f 110/117/47 111/120/47 112/119/47 
f 112/119/45 113/118/45 110/117/45 
f 113/105/39 112/123/39 114/122/39 
f 114/122/38 115/121/38 113/105/38 
f 115/121/46 114/122/46 99/100/46 
f 99/100/45 98/101/45 115/121/45 
f 116/124/48 117/127/48 118/126/48 
f 118/126/49 119/125/49 116/124/49 
f 119/105/50 118/128/50 93/98/50 
f 93/98/51 92/95/51 119/105/51 
f 111/120/52 110/117/52 95/96/52 
f 95/96/31 94/97/31 111/120/31 
f 117/127/53 116/124/53 120/130/53 
f 120/130/50 121/129/50 117/127/50 
f 121/129/54 120/130/54 101/106/54 
f 101/106/36 100/103/36 121/129/36 
f 105/110/26 104/107/26 103/132/26 
f 103/132/55 102/131/55 105/110/55 
f 122/95/56 123/96/56 57/97/56 
f 57/97/57 56/98/57 122/95/57 
f 63/99/58 62/100/58 124/101/58 
f 124/101/59 125/102/59 63/99/59 
f 67/103/60 66/104/60 126/105/60 
f 126/105/61 127/106/61 67/103/61 
f 71/107/62 70/108/62 128/109/62 
f 128/109/63 129/110/63 71/107/63 
f 75/111/58 74/112/58 130/113/58 
f 130/113/59 131/114/59 75/111/59 
f 74/115/64 63/99/64 125/102/64 
f 125/102/65 130/116/65 74/115/65 
f 132/117/65 133/118/65 77/119/65 
f 77/119/66 76/120/66 132/117/66 
f 133/105/67 134/121/67 80/122/67 
f 80/122/68 77/123/68 133/105/68 
f 134/121/65 124/101/65 62/100/65 
f 62/100/66 80/122/66 134/121/66 
f 135/124/69 136/125/69 83/126/69 
f 83/126/70 82/127/70 135/124/70 
f 136/105/25 122/95/25 56/98/25 
f 56/98/25 83/128/25 136/105/25 
f 76/120/27 57/97/27 123/96/27 
f 123/96/71 132/117/71 76/120/71 
f 82/127/72 87/129/72 137/130/72 
f 137/130/73 135/124/73 82/127/73 
f 87/129/29 67/103/29 127/106/29 
f 127/106/74 137/130/74 87/129/74 
f 129/110/75 126/131/75 66/132/75 
f 66/132/40 71/107/40 129/110/40 
f 91/111/76 90/112/76 138/113/76 
f 138/113/77 139/114/77 91/111/77 
f 90/115/78 75/99/78 131/102/78 
f 131/102/79 138/116/79 90/115/79 
f 140/95/37 92/98/37 95/97/37 
f 95/97/80 141/96/80 140/95/80 
f 97/99/81 142/102/81 143/101/81 
f 143/101/82 98/100/82 97/99/82 
f 101/103/83 144/106/83 145/105/83 
f 145/105/40 102/104/40 101/103/40 
f 105/107/84 146/110/84 147/109/84 
f 147/109/85 106/108/85 105/107/85 
f 91/111/39 139/114/39 148/113/39 
f 148/113/39 108/112/39 91/111/39 
f 108/115/86 148/116/86 142/102/86 
f 142/102/87 97/99/87 108/115/87 
f 149/117/87 110/120/87 113/119/87 
f 113/119/86 150/118/86 149/117/86 
f 150/105/82 113/123/82 115/122/82 
f 115/122/81 151/121/81 150/105/81 
f 151/121/87 115/122/87 98/100/87 
f 98/100/86 143/101/86 151/121/86 
f 152/124/49 116/127/49 119/126/49 
f 119/126/88 153/125/88 152/124/88 
f 153/105/89 119/128/89 92/98/89 
f 92/98/90 140/95/90 153/105/90 
f 110/120/91 149/117/91 141/96/91 
f 141/96/51 95/97/51 110/120/51 
f 116/127/92 152/124/92 154/130/92 
f 154/130/53 120/129/53 116/127/53 
f 120/129/93 154/130/93 144/106/93 
f 144/106/55 101/103/55 120/129/55 
f 146/110/12 105/107/12 102/132/12 
f 102/132/94 145/131/94 146/110/94 
s 1
f 48/133/2 155/134/2 156/135/2 
f 156/135/2 157/136/2 48/133/2 
f 155/134/2 158/137/2 159/138/2 
f 159/138/2 156/135/2 155/134/2 
f 158/137/2 160/139/95 161/140/2 
f 161/140/2 159/138/2 158/137/2 
f 160/139/2 42/141/2 162/142/2 
f 162/142/2 161/140/2 160/139/95 
f 157/136/2 156/135/2 163/143/2 
f 163/143/2 164/144/2 157/136/2 
f 156/135/2 159/138/2 165/145/2 
f 165/145/2 163/143/2 156/135/2 
f 159/138/2 161/140/2 166/146/2 
f 166/146/2 165/145/2 159/138/2 
f 161/140/2 162/142/2 167/147/2 
f 167/147/2 166/146/2 161/140/2 
s off
f 168/113/96 158/113/96 169/113/96 
f 170/148/97 48/133/97 24/149/97 
f 171/150/97 170/148/97 24/149/97 
f 172/109/97 171/150/97 24/149/97 
f 173/131/97 172/109/97 24/149/97 
f 174/130/97 173/131/97 24/149/97 
f 175/125/97 174/130/97 24/149/97 
f 176/96/97 175/125/97 24/149/97 
f 177/118/97 176/96/97 24/149/97 
f 178/101/97 177/118/97 24/149/97 
f 169/113/97 178/101/97 24/149/97 
f 168/113/97 169/113/97 24/149/97 
f 179/101/97 168/113/97 24/149/97 
f 180/118/97 179/101/97 24/149/97 
f 181/96/97 180/118/97 24/149/97 
f 182/125/97 181/96/97 24/149/97 
f 183/130/97 182/125/97 24/149/97 
f 184/131/97 183/130/97 24/149/97 
f 185/109/97 184/131/97 24/149/97 
f 186/150/97 185/109/97 24/149/97 
f 187/148/97 186/150/97 24/149/97 
f 42/151/97 187/148/97 24/149/97 
f 42/151/97 24/149/97 23/152/97 
f 42/151/97 23/152/97 44/153/97 
f 167/154/98 188/155/98 189/156/98 
f 189/156/98 164/157/98 167/154/98 
f 190/103/99 191/104/99 192/105/99 
f 192/105/100 193/106/100 190/103/100 
f 194/107/101 195/108/101 196/109/101 
f 196/109/102 197/110/102 194/107/102 
f 198/124/103 199/125/103 69/126/103 
f 69/126/104 200/127/104 198/124/104 
f 200/127/105 201/129/105 202/130/105 
f 202/130/106 198/124/106 200/127/106 
f 201/129/107 190/103/107 193/106/107 
f 193/106/108 202/130/108 201/129/108 
f 197/110/109 192/131/109 191/132/109 
f 191/132/110 194/107/110 197/110/110 
f 193/103/111 192/104/111 203/105/111 
f 203/105/112 204/106/112 193/103/112 
f 197/107/113 196/108/113 205/109/113 
f 205/109/114 206/110/114 197/107/114 
f 207/124/115 208/125/115 199/126/115 
f 199/126/116 198/127/116 207/124/116 
f 198/127/117 202/129/117 209/130/117 
f 209/130/118 207/124/118 198/127/118 
f 202/129/108 193/103/108 204/106/108 
f 204/106/119 209/130/119 202/129/119 
f 206/110/120 203/131/120 192/132/120 
f 192/132/121 197/107/121 206/110/121 
f 210/103/99 211/104/99 212/105/99 
f 212/105/100 213/106/100 210/103/100 
f 214/107/101 107/108/101 215/109/101 
f 215/109/102 216/110/102 214/107/102 
f 217/124/103 218/125/103 219/126/103 
f 219/126/104 220/127/104 217/124/104 
f 220/127/105 221/129/105 222/130/105 
f 222/130/106 217/124/106 220/127/106 
f 221/129/107 210/103/107 213/106/107 
f 213/106/108 222/130/108 221/129/108 
f 216/110/109 212/131/109 211/132/109 
f 211/132/110 214/107/110 216/110/110 
f 213/103/111 212/104/111 223/105/111 
f 223/105/112 224/106/112 213/103/112 
f 216/107/113 215/108/113 225/109/113 
f 225/109/114 226/110/114 216/107/114 
f 227/124/115 228/125/115 218/126/115 
f 218/126/116 217/127/116 227/124/116 
f 217/127/117 222/129/117 229/130/117 
f 229/130/118 227/124/118 217/127/118 
f 222/129/108 213/103/108 224/106/108 
f 224/106/119 229/130/119 222/129/119 
f 226/110/120 223/131/120 212/132/120 
f 212/132/121 216/107/121 226/110/121 
# 0 polygons - 298 triangles

