# 3ds Max Wavefront OBJ Exporter v0.97b - (c)2007 guruware
# File Created: 19.08.2017 20:46:37

#
# object Object001
#

v  0.9787 0.2234 -26.6689
v  0.9787 0.2234 -20.7430
v  1.3108 0.1990 -20.7430
v  1.3108 0.1990 -26.6689
v  0.9787 0.2234 -14.8171
v  1.3108 0.1990 -14.8171
v  0.9787 0.2234 -8.8912
v  1.3108 0.1990 -8.8912
v  0.9787 0.2234 -2.9652
v  1.3108 0.1990 -2.9652
v  0.9787 0.2234 2.9607
v  1.3108 0.1990 2.9607
v  0.9787 0.2234 8.8866
v  1.3108 0.1990 8.8866
v  0.9787 0.2234 14.8125
v  1.3108 0.1990 14.8125
v  0.9787 0.2234 20.7384
v  1.3108 0.1990 20.7384
v  0.9787 0.2234 26.6644
v  1.3108 0.1990 26.6644
v  -0.7548 0.2369 26.6644
v  0.7539 0.2400 26.6644
v  0.7539 0.2400 20.7384
v  -0.7548 0.2369 20.7384
v  0.7539 0.2400 14.8125
v  -0.7548 0.2369 14.8125
v  0.7539 0.2400 8.8866
v  -0.7548 0.2369 8.8866
v  0.7539 0.2400 2.9607
v  -0.7548 0.2369 2.9607
v  0.7539 0.2400 -2.9652
v  -0.7548 0.2369 -2.9652
v  0.7539 0.2400 -8.8912
v  -0.7548 0.2369 -8.8912
v  0.7539 0.2400 -14.8171
v  -0.7548 0.2369 -14.8171
v  0.7539 0.2400 -20.7430
v  -0.7548 0.2369 -20.7430
v  0.7539 0.2400 -26.6689
v  -0.7548 0.2369 -26.6689
v  -1.3108 0.2000 -26.6689
v  -1.3108 0.2000 -20.7430
v  -0.9792 0.2220 -20.7430
v  -0.9792 0.2220 -26.6689
v  -1.3108 0.2000 -14.8171
v  -0.9792 0.2220 -14.8171
v  -1.3108 0.2000 -8.8912
v  -0.9792 0.2220 -8.8912
v  -1.3108 0.2000 -2.9652
v  -0.9792 0.2220 -2.9652
v  -1.3108 0.2000 2.9607
v  -0.9792 0.2220 2.9607
v  -1.3108 0.2000 8.8866
v  -0.9792 0.2220 8.8866
v  -1.3108 0.2000 14.8125
v  -0.9792 0.2220 14.8125
v  -1.3108 0.2000 20.7385
v  -0.9792 0.2220 20.7385
v  -1.3108 0.2000 26.6644
v  -0.9792 0.2220 26.6644
v  -0.9792 0.0984 26.6644
v  0.7539 0.1016 26.6644
v  -0.7548 0.0986 26.6644
v  0.9787 0.0998 26.6644
v  -0.9792 0.0984 -26.6689
v  0.7539 0.1016 -26.6689
v  -0.7548 0.0986 -26.6689
v  0.9787 0.0998 -26.6689
v  0.9787 0.2235 -26.6689
# 69 vertices

vn 0.0733 0.9973 0.0000
vn -0.0021 1.0000 -0.0000
vn -0.0662 0.9978 -0.0000
vn -0.0000 0.0000 1.0000
vn 0.0000 0.0000 -1.0000
# 5 vertex normals

vt 0.0018 1.0000 0.0000
vt 0.0018 -0.0000 0.0000
vt 0.0584 -0.0000 0.0000
vt 0.0584 1.0000 0.0000
vt 0.0022 1.0000 0.0000
vt 0.0022 -0.0000 0.0000
vt 0.0587 -0.0000 0.0000
vt 0.0587 1.0000 0.0000
vt 0.0015 1.0000 0.0000
vt 0.0015 -0.0000 0.0000
vt 0.0580 -0.0000 0.0000
vt 0.0580 1.0000 0.0000
vt 0.0581 -0.0000 0.0000
vt 0.0581 1.0000 0.0000
vt 0.0019 1.0000 0.0000
vt 0.0019 -0.0000 0.0000
vt 0.2583 0.0000 0.0000
vt 0.2583 1.0000 0.0000
vt 0.0012 0.0000 0.0000
vt 0.2580 0.0000 0.0000
vt 0.2580 1.0000 0.0000
vt 0.0012 1.0000 0.0000
vt 0.0011 -0.0000 0.0000
vt 0.2579 -0.0000 0.0000
vt 0.2579 1.0000 0.0000
vt 0.0011 1.0000 0.0000
vt 0.2586 -0.0000 0.0000
vt 0.2586 1.0000 0.0000
vt 0.2583 -0.0000 0.0000
vt 0.2016 1.0000 0.0000
vt 0.2016 -0.0000 0.0000
vt 0.2581 -0.0000 0.0000
vt 0.2581 1.0000 0.0000
vt 0.2020 1.0000 0.0000
vt 0.2020 -0.0000 0.0000
vt 0.2584 -0.0000 0.0000
vt 0.2584 1.0000 0.0000
vt 0.2013 1.0000 0.0000
vt 0.2013 -0.0000 0.0000
vt 0.2577 -0.0000 0.0000
vt 0.2577 1.0000 0.0000
vt 0.2017 1.0000 0.0000
vt 0.2017 -0.0000 0.0000
vt 0.0329 0.0805 0.0000
vt 0.0000 0.0727 0.0000
vt 0.0329 0.0364 0.0000
vt 0.2048 0.0375 0.0000
vt 0.2048 0.0870 0.0000
vt 0.0551 0.0859 0.0000
vt 0.0551 0.0364 0.0000
vt 0.2271 0.0369 0.0000
vt 0.2600 0.0723 0.0000
vt 0.2271 0.0810 0.0000
# 53 texture coords

g Object001
s 1
f 1/1/1 2/2/1 3/3/1 
f 3/3/1 4/4/1 1/1/1 
f 2/1/1 5/2/1 6/3/1 
f 6/3/1 3/4/1 2/1/1 
f 5/5/1 7/6/1 8/7/1 
f 8/7/1 6/8/1 5/5/1 
f 7/5/1 9/6/1 10/7/1 
f 10/7/1 8/8/1 7/5/1 
f 9/9/1 11/10/1 12/11/1 
f 12/11/1 10/12/1 9/9/1 
f 11/9/1 13/10/1 14/13/1 
f 14/13/1 12/14/1 11/9/1 
f 13/15/1 15/16/1 16/3/1 
f 16/3/1 14/4/1 13/15/1 
f 15/15/1 17/16/1 18/3/1 
f 18/3/1 16/4/1 15/15/1 
f 17/15/1 19/16/1 20/3/1 
f 20/3/1 18/4/1 17/15/1 
s 2
f 21/10/2 22/17/2 23/18/2 
f 23/18/2 24/9/2 21/10/2 
f 24/10/2 23/17/2 25/18/2 
f 25/18/2 26/9/2 24/10/2 
f 26/19/2 25/20/2 27/21/2 
f 27/21/2 28/22/2 26/19/2 
f 28/23/2 27/24/2 29/25/2 
f 29/25/2 30/26/2 28/23/2 
f 30/2/2 29/27/2 31/28/2 
f 31/28/2 32/1/2 30/2/2 
f 32/2/2 31/27/2 33/28/2 
f 33/28/2 34/1/2 32/2/2 
f 34/10/2 33/29/2 35/18/2 
f 35/18/2 36/9/2 34/10/2 
f 36/10/2 35/29/2 37/18/2 
f 37/18/2 38/9/2 36/10/2 
f 38/10/2 37/29/2 39/18/2 
f 39/18/2 40/9/2 38/10/2 
s 1
f 41/30/3 42/31/3 43/32/3 
f 43/32/3 44/33/3 41/30/3 
f 42/30/3 45/31/3 46/32/3 
f 46/32/3 43/33/3 42/30/3 
f 45/34/3 47/35/3 48/36/3 
f 48/36/3 46/37/3 45/34/3 
f 47/34/3 49/35/3 50/36/3 
f 50/36/3 48/37/3 47/34/3 
f 49/38/3 51/39/3 52/40/3 
f 52/40/3 50/41/3 49/38/3 
f 51/38/3 53/39/3 54/40/3 
f 54/40/3 52/41/3 51/38/3 
f 53/30/3 55/31/3 56/32/3 
f 56/32/3 54/33/3 53/30/3 
f 55/42/3 57/43/3 58/32/3 
f 58/32/3 56/33/3 55/42/3 
f 57/30/3 59/31/3 60/32/3 
f 60/32/3 58/33/3 57/30/3 
s off
f 60/44/4 59/45/4 61/46/4 
f 62/47/4 22/48/4 21/49/4 
f 21/49/4 63/50/4 62/47/4 
f 64/51/4 20/52/4 19/53/4 
f 44/44/5 65/46/5 41/45/5 
f 66/47/5 67/50/5 40/49/5 
f 40/49/5 39/48/5 66/47/5 
f 68/51/5 69/53/5 4/52/5 
# 62 faces

