# 3ds Max Wavefront OBJ Exporter v0.97b - (c)2007 guruware
# File Created: 16.08.2017 19:21:21

#
# object Plane001
#

v  -1.0000 0.0500 32.0000
v  -1.0000 0.0500 -0.0000
v  -3.0000 0.0500 -0.0000
v  -3.0000 0.0500 32.0000
v  -1.0000 0.0500 -32.0000
v  -3.0000 0.0500 -32.0000
v  1.0000 0.0500 32.0000
v  1.0000 0.0500 -0.0000
v  0.0000 0.0500 -0.0000
v  0.0000 0.0500 32.0000
v  1.0000 0.0500 -32.0000
v  0.0000 0.0500 -32.0000
v  3.0000 0.0500 32.0000
v  3.0000 0.0500 -0.0000
v  3.0000 0.0500 -32.0000
# 15 vertices

vn 0.0000 1.0000 -0.0000
# 1 vertex normals

vt 0.2677 0.0000 0.0000
vt 0.2677 0.5000 0.0000
vt 0.1175 0.5000 0.0000
vt 0.1175 0.0000 0.0000
vt 0.2677 1.0000 0.0000
vt 0.1175 1.0000 0.0000
vt 0.7182 0.0000 0.0000
vt 0.7182 0.5000 0.0000
vt 0.4929 0.5000 0.0000
vt 0.4929 0.0000 0.0000
vt 0.7182 1.0000 0.0000
vt 0.4929 1.0000 0.0000
vt 0.8684 0.0000 0.0000
vt 0.8684 0.5000 0.0000
vt 0.8684 1.0000 0.0000
# 15 texture coords

g Plane001
s off
f 1/1/1 2/2/1 3/3/1 
f 3/3/1 4/4/1 1/1/1 
f 2/2/1 5/5/1 6/6/1 
f 6/6/1 3/3/1 2/2/1 
f 7/7/1 8/8/1 9/9/1 
f 9/9/1 10/10/1 7/7/1 
f 8/8/1 11/11/1 12/12/1 
f 12/12/1 9/9/1 8/8/1 
f 13/13/1 14/14/1 8/8/1 
f 8/8/1 7/7/1 13/13/1 
f 14/14/1 15/15/1 11/11/1 
f 11/11/1 8/8/1 14/14/1 
f 10/10/1 9/9/1 2/2/1 
f 2/2/1 1/1/1 10/10/1 
f 9/9/1 12/12/1 5/5/1 
f 5/5/1 2/2/1 9/9/1 
# 16 faces

