# 3ds Max Wavefront OBJ Exporter v0.97b - (c)2007 guruware
# File Created: 26.02.2019 10:28:47

#
# object Object003
#

v  -2.9971 0.2250 -0.0000
v  1.0029 0.2250 -0.0000
v  0.3126 0.2078 -16.0000
v  -3.6833 0.2078 -16.0000
v  0.0000 0.2000 -32.0000
v  -4.0000 0.2000 -32.0000
v  -2.0000 0.2500 32.0000
v  2.0000 0.2500 32.0000
v  1.6879 0.2422 16.0000
v  -2.3121 0.2422 16.0000
# 10 vertices

vn 0.0000 1.0000 -0.0011
vn 0.0000 1.0000 -0.0008
vn 0.0000 1.0000 -0.0005
# 3 vertex normals

vt 0.5000 0.5000 0.0000
vt 0.0000 0.5000 0.0000
vt 0.0000 0.2500 0.0000
vt 0.5000 0.2500 0.0000
vt 0.0000 0.0000 0.0000
vt 0.5000 0.0000 0.0000
vt 0.5000 1.0000 0.0000
vt 0.0000 1.0000 0.0000
vt 0.0000 0.7500 0.0000
vt 0.5000 0.7500 0.0000
# 10 texture coords

g Object003
s 1
f 1/1/1 2/2/1 3/3/2 4/4/2 
f 4/4/2 3/3/2 5/5/3 6/6/3 
f 7/7/3 8/8/3 9/9/2 10/10/2 
f 2/2/1 1/1/1 10/10/2 9/9/2 
# 4 polygons

