# 3ds Max Wavefront OBJ Exporter v0.97b - (c)2007 guruware
# File Created: 26.02.2019 10:38:19

#
# object Object004
#

v  -2.9374 0.2500 -16.0000
v  1.0626 0.2500 -16.0000
v  -0.9971 0.2500 -0.0000
v  -4.9971 0.2500 -0.0000
v  -2.0000 0.2500 -32.0000
v  2.0000 0.2500 -32.0000
v  -7.0621 0.2500 16.0000
v  -3.0621 0.2500 16.0000
v  -4.0000 0.2500 32.0000
v  -8.0000 0.2500 32.0000
v  0.3125 0.2500 16.0000
v  -3.6875 0.2500 16.0000
v  -3.0000 0.2500 -0.0000
v  1.0000 0.2500 -0.0000
v  -2.3125 0.2500 -16.0000
v  1.6875 0.2500 -16.0000
v  0.0000 0.2500 32.0000
# 17 vertices

vn 0.0000 1.0000 -0.0008
vn 0.0000 1.0000 -0.0011
vn 0.0000 1.0000 -0.0005
vn 0.0000 1.0000 -0.0000
# 4 vertex normals

vt 0.0000 0.2500 0.0000
vt 0.5000 0.2500 0.0000
vt 0.5000 0.5000 0.0000
vt 0.0000 0.5000 0.0000
vt 0.0000 0.0000 0.0000
vt 0.5000 0.0000 0.0000
vt 0.0000 0.7500 0.0000
vt 0.5000 0.7500 0.0000
vt 0.5000 1.0000 0.0000
vt 0.0000 1.0000 0.0000
vt 1.0000 0.7500 0.0000
vt 1.0000 0.5000 0.0000
vt 1.0000 0.2500 0.0000
vt 1.0000 0.0000 0.0000
vt 1.0000 1.0000 0.0000
# 15 texture coords

g Object004
s 1
f 4/4/2 3/3/2 2/2/1 1/1/1 
f 1/1/1 2/2/1 6/6/3 5/5/3 
f 10/10/3 9/9/3 8/8/1 7/7/1 
f 3/3/2 4/4/2 7/7/1 8/8/1 
f 14/12/4 13/3/4 12/8/4 11/11/4 
f 13/3/4 14/12/4 16/13/4 15/2/4 
f 16/13/4 6/14/4 5/6/4 
f 5/6/4 15/2/4 16/13/4 
f 9/9/4 17/15/4 11/11/4 12/8/4 
# 7 polygons - 2 triangles

