# 3ds Max Wavefront OBJ Exporter v0.97b - (c)2007 guruware
# File Created: 17.09.2017 02:19:23

#
# object Plane002
#

v  1.5000 0.0208 5.3333
v  3.5827 0.0207 5.3333
v  3.4994 0.0249 -0.0000
v  1.5000 0.0250 -0.0000
v  -1.5000 0.0250 -0.0000
v  0.0000 0.0250 -0.0000
v  0.0000 0.0292 -5.3333
v  -1.5000 0.0292 -5.3333
v  -3.4167 0.0292 -5.3333
v  -3.5000 0.0250 -0.0000
v  1.5000 0.0458 -26.6667
v  3.0827 0.0457 -26.6667
v  2.9994 0.0499 -32.0000
v  1.5000 0.0500 -32.0000
v  1.5000 0.0417 -21.3333
v  3.1661 0.0416 -21.3333
v  1.5000 0.0375 -16.0000
v  3.2494 0.0374 -16.0000
v  1.5000 0.0333 -10.6667
v  3.3327 0.0332 -10.6667
v  1.5000 0.0292 -5.3333
v  3.4161 0.0291 -5.3333
v  3.9161 0.0041 26.6667
v  1.5000 0.0042 26.6667
v  1.5000 0.0000 32.0000
v  3.9994 -0.0001 32.0000
v  3.8327 0.0082 21.3333
v  1.5000 0.0083 21.3333
v  3.7494 0.0124 16.0000
v  1.5000 0.0125 16.0000
v  3.6661 0.0166 10.6667
v  1.5000 0.0167 10.6667
v  -1.5000 0.0000 32.0000
v  0.0000 0.0000 32.0000
v  0.0000 0.0042 26.6667
v  -1.5000 0.0042 26.6667
v  0.0000 0.0083 21.3333
v  -1.5000 0.0083 21.3333
v  0.0000 0.0125 16.0000
v  -1.5000 0.0125 16.0000
v  0.0000 0.0167 10.6667
v  -1.5000 0.0167 10.6667
v  0.0000 0.0208 5.3333
v  -1.5000 0.0208 5.3333
v  0.0000 0.0500 -32.0000
v  0.0000 0.0458 -26.6667
v  0.0000 0.0417 -21.3333
v  0.0000 0.0375 -16.0000
v  0.0000 0.0333 -10.6667
v  -3.9167 0.0042 26.6667
v  -4.0000 -0.0000 32.0000
v  -3.8333 0.0083 21.3333
v  -3.7500 0.0125 16.0000
v  -3.6667 0.0167 10.6667
v  -3.5833 0.0208 5.3333
v  -3.0833 0.0458 -26.6667
v  -1.5000 0.0458 -26.6667
v  -1.5000 0.0500 -32.0000
v  -3.0000 0.0500 -32.0000
v  -3.1667 0.0417 -21.3333
v  -1.5000 0.0417 -21.3333
v  -3.2500 0.0375 -16.0000
v  -1.5000 0.0375 -16.0000
v  -3.3333 0.0333 -10.6667
v  -1.5000 0.0333 -10.6667
v  -6.5000 -3.1900 -0.0000
v  -6.4167 -3.1858 -5.3333
v  6.4994 -3.1901 -0.0000
v  6.5827 -3.1943 5.3333
v  -7.0000 -3.2150 32.0000
v  -6.9167 -3.2108 26.6667
v  -6.8333 -3.2067 21.3333
v  -6.7500 -3.2025 16.0000
v  -6.6667 -3.1983 10.6667
v  -6.5833 -3.1942 5.3333
v  -6.0000 -3.1650 -32.0000
v  -6.0833 -3.1692 -26.6667
v  -6.1667 -3.1733 -21.3333
v  -6.2500 -3.1775 -16.0000
v  -6.3333 -3.1817 -10.6667
v  5.9994 -3.1651 -32.0000
v  6.0827 -3.1693 -26.6667
v  6.1661 -3.1734 -21.3333
v  6.2494 -3.1776 -16.0000
v  6.3327 -3.1818 -10.6667
v  6.4161 -3.1859 -5.3333
v  6.9994 -3.2151 32.0000
v  6.9161 -3.2109 26.6667
v  6.8327 -3.2068 21.3333
v  6.7494 -3.2026 16.0000
v  6.6661 -3.1984 10.6667
# 91 vertices

vn -0.0888 0.9960 0.0008
vn 0.0889 0.9960 0.0008
vn 0.2914 0.9566 0.0009
vn -0.2261 0.9741 0.0008
# 4 vertex normals

vt 0.4517 0.4167 0.0000
vt 0.5767 0.4167 0.0000
vt 0.5767 0.5000 0.0000
vt 0.4517 0.5000 0.0000
vt 0.3879 0.5000 0.0000
vt 0.5754 0.5000 0.0000
vt 0.5754 0.5833 0.0000
vt 0.3879 0.5833 0.0000
vt 0.7623 0.5833 0.0000
vt 0.6373 0.5833 0.0000
vt 0.6373 0.5000 0.0000
vt 0.7623 0.5000 0.0000
vt 0.4517 0.9167 0.0000
vt 0.5767 0.9167 0.0000
vt 0.5767 1.0000 0.0000
vt 0.4517 1.0000 0.0000
vt 0.4517 0.8333 0.0000
vt 0.5767 0.8333 0.0000
vt 0.4517 0.7500 0.0000
vt 0.5767 0.7500 0.0000
vt 0.4517 0.6667 0.0000
vt 0.5767 0.6667 0.0000
vt 0.4517 0.5833 0.0000
vt 0.5767 0.5833 0.0000
vt 0.5767 0.0833 0.0000
vt 0.4517 0.0833 0.0000
vt 0.4517 0.0000 0.0000
vt 0.5767 0.0000 0.0000
vt 0.5767 0.1667 0.0000
vt 0.4517 0.1667 0.0000
vt 0.5767 0.2500 0.0000
vt 0.4517 0.2500 0.0000
vt 0.5767 0.3333 0.0000
vt 0.4517 0.3333 0.0000
vt 0.3879 0.0000 0.0000
vt 0.5754 0.0000 0.0000
vt 0.5754 0.0833 0.0000
vt 0.3879 0.0833 0.0000
vt 0.5754 0.1667 0.0000
vt 0.3879 0.1667 0.0000
vt 0.5754 0.2500 0.0000
vt 0.3879 0.2500 0.0000
vt 0.5754 0.3333 0.0000
vt 0.3879 0.3333 0.0000
vt 0.5754 0.4167 0.0000
vt 0.3879 0.4167 0.0000
vt 0.7629 1.0000 0.0000
vt 0.5754 1.0000 0.0000
vt 0.5754 0.9167 0.0000
vt 0.7629 0.9167 0.0000
vt 0.5754 0.8333 0.0000
vt 0.7629 0.8333 0.0000
vt 0.5754 0.7500 0.0000
vt 0.7629 0.7500 0.0000
vt 0.5754 0.6667 0.0000
vt 0.7629 0.6667 0.0000
vt 0.7629 0.5833 0.0000
vt 0.7623 0.0833 0.0000
vt 0.6373 0.0833 0.0000
vt 0.6373 0.0000 0.0000
vt 0.7623 0.0000 0.0000
vt 0.7623 0.1667 0.0000
vt 0.6373 0.1667 0.0000
vt 0.7623 0.2500 0.0000
vt 0.6373 0.2500 0.0000
vt 0.7623 0.3333 0.0000
vt 0.6373 0.3333 0.0000
vt 0.7623 0.4167 0.0000
vt 0.6373 0.4167 0.0000
vt 0.6373 0.9167 0.0000
vt 0.7623 0.9167 0.0000
vt 0.7623 1.0000 0.0000
vt 0.6373 1.0000 0.0000
vt 0.6373 0.8333 0.0000
vt 0.7623 0.8333 0.0000
vt 0.6373 0.7500 0.0000
vt 0.7623 0.7500 0.0000
vt 0.6373 0.6667 0.0000
vt 0.7623 0.6667 0.0000
vt 0.7629 0.5000 0.0000
vt 0.7629 0.0000 0.0000
vt 0.7629 0.0833 0.0000
vt 0.7629 0.1667 0.0000
vt 0.7629 0.2500 0.0000
vt 0.7629 0.3333 0.0000
vt 0.7629 0.4167 0.0000
vt 0.3879 1.0000 0.0000
vt 0.3879 0.9167 0.0000
vt 0.3879 0.8333 0.0000
vt 0.3879 0.7500 0.0000
vt 0.3879 0.6667 0.0000
vt 0.4498 0.5000 0.0000
vt 0.4498 0.5833 0.0000
vt 0.7642 0.5000 0.0000
vt 0.7642 0.4167 0.0000
vt 0.4498 0.0000 0.0000
vt 0.4498 0.0833 0.0000
vt 0.4498 0.1667 0.0000
vt 0.4498 0.2500 0.0000
vt 0.4498 0.3333 0.0000
vt 0.4498 0.4167 0.0000
vt 0.4498 1.0000 0.0000
vt 0.4498 0.9167 0.0000
vt 0.4498 0.8333 0.0000
vt 0.4498 0.7500 0.0000
vt 0.4498 0.6667 0.0000
vt 0.7642 1.0000 0.0000
vt 0.7642 0.9167 0.0000
vt 0.7642 0.8333 0.0000
vt 0.7642 0.7500 0.0000
vt 0.7642 0.6667 0.0000
vt 0.7642 0.5833 0.0000
vt 0.7642 0.0000 0.0000
vt 0.7642 0.0833 0.0000
vt 0.7642 0.1667 0.0000
vt 0.7642 0.2500 0.0000
vt 0.7642 0.3333 0.0000
# 117 texture coords

g Plane002
s off
f 1/1/1 2/2/1 3/3/1 
f 3/3/1 4/4/1 1/1/1 
f 5/5/2 6/6/2 7/7/2 
f 7/7/2 8/8/2 5/5/2 
f 8/9/2 9/10/2 10/11/2 
f 10/11/2 5/12/2 8/9/2 
f 11/13/1 12/14/1 13/15/1 
f 13/15/1 14/16/1 11/13/1 
f 15/17/1 16/18/1 12/14/1 
f 12/14/1 11/13/1 15/17/1 
f 17/19/1 18/20/1 16/18/1 
f 16/18/1 15/17/1 17/19/1 
f 19/21/1 20/22/1 18/20/1 
f 18/20/1 17/19/1 19/21/1 
f 21/23/1 22/24/1 20/22/1 
f 20/22/1 19/21/1 21/23/1 
f 4/4/1 3/3/1 22/24/1 
f 22/24/1 21/23/1 4/4/1 
f 23/25/1 24/26/1 25/27/1 
f 25/27/1 26/28/1 23/25/1 
f 27/29/1 28/30/1 24/26/1 
f 24/26/1 23/25/1 27/29/1 
f 29/31/1 30/32/1 28/30/1 
f 28/30/1 27/29/1 29/31/1 
f 31/33/1 32/34/1 30/32/1 
f 30/32/1 29/31/1 31/33/1 
f 2/2/1 1/1/1 32/34/1 
f 32/34/1 31/33/1 2/2/1 
f 33/35/2 34/36/2 35/37/2 
f 35/37/2 36/38/2 33/35/2 
f 36/38/2 35/37/2 37/39/2 
f 37/39/2 38/40/2 36/38/2 
f 38/40/2 37/39/2 39/41/2 
f 39/41/2 40/42/2 38/40/2 
f 40/42/2 39/41/2 41/43/2 
f 41/43/2 42/44/2 40/42/2 
f 42/44/2 41/43/2 43/45/2 
f 43/45/2 44/46/2 42/44/2 
f 44/46/2 43/45/2 6/6/2 
f 6/6/2 5/5/2 44/46/2 
f 14/47/2 45/48/2 46/49/2 
f 46/49/2 11/50/2 14/47/2 
f 11/50/2 46/49/2 47/51/2 
f 47/51/2 15/52/2 11/50/2 
f 15/52/2 47/51/2 48/53/2 
f 48/53/2 17/54/2 15/52/2 
f 17/54/2 48/53/2 49/55/2 
f 49/55/2 19/56/2 17/54/2 
f 19/56/2 49/55/2 7/7/2 
f 7/7/2 21/57/2 19/56/2 
f 36/58/2 50/59/2 51/60/2 
f 51/60/2 33/61/2 36/58/2 
f 38/62/2 52/63/2 50/59/2 
f 50/59/2 36/58/2 38/62/2 
f 40/64/2 53/65/2 52/63/2 
f 52/63/2 38/62/2 40/64/2 
f 42/66/2 54/67/2 53/65/2 
f 53/65/2 40/64/2 42/66/2 
f 44/68/2 55/69/2 54/67/2 
f 54/67/2 42/66/2 44/68/2 
f 5/12/2 10/11/2 55/69/2 
f 55/69/2 44/68/2 5/12/2 
f 56/70/2 57/71/2 58/72/2 
f 58/72/2 59/73/2 56/70/2 
f 60/74/2 61/75/2 57/71/2 
f 57/71/2 56/70/2 60/74/2 
f 62/76/2 63/77/2 61/75/2 
f 61/75/2 60/74/2 62/76/2 
f 64/78/2 65/79/2 63/77/2 
f 63/77/2 62/76/2 64/78/2 
f 9/10/2 8/9/2 65/79/2 
f 65/79/2 64/78/2 9/10/2 
f 4/80/2 21/57/2 7/7/2 
f 7/7/2 6/6/2 4/80/2 
f 25/81/2 24/82/2 35/37/2 
f 35/37/2 34/36/2 25/81/2 
f 24/82/2 28/83/2 37/39/2 
f 37/39/2 35/37/2 24/82/2 
f 28/83/2 30/84/2 39/41/2 
f 39/41/2 37/39/2 28/83/2 
f 30/84/2 32/85/2 41/43/2 
f 41/43/2 39/41/2 30/84/2 
f 32/85/2 1/86/2 43/45/2 
f 43/45/2 41/43/2 32/85/2 
f 1/86/2 4/80/2 6/6/2 
f 6/6/2 43/45/2 1/86/2 
f 58/87/2 57/88/2 46/49/2 
f 46/49/2 45/48/2 58/87/2 
f 57/88/2 61/89/2 47/51/2 
f 47/51/2 46/49/2 57/88/2 
f 61/89/2 63/90/2 48/53/2 
f 48/53/2 47/51/2 61/89/2 
f 63/90/2 65/91/2 49/55/2 
f 49/55/2 48/53/2 63/90/2 
f 65/91/2 8/8/2 7/7/2 
f 7/7/2 49/55/2 65/91/2 
f 66/92/3 10/11/3 9/10/3 
f 9/10/3 67/93/3 66/92/3 
f 68/94/4 3/3/4 2/2/4 
f 2/2/4 69/95/4 68/94/4 
f 70/96/3 51/60/3 50/59/3 
f 50/59/3 71/97/3 70/96/3 
f 71/97/3 50/59/3 52/63/3 
f 52/63/3 72/98/3 71/97/3 
f 72/98/3 52/63/3 53/65/3 
f 53/65/3 73/99/3 72/98/3 
f 73/99/3 53/65/3 54/67/3 
f 54/67/3 74/100/3 73/99/3 
f 74/100/3 54/67/3 55/69/3 
f 55/69/3 75/101/3 74/100/3 
f 75/101/3 55/69/3 10/11/3 
f 10/11/3 66/92/3 75/101/3 
f 59/73/3 76/102/3 77/103/3 
f 77/103/3 56/70/3 59/73/3 
f 56/70/3 77/103/3 78/104/3 
f 78/104/3 60/74/3 56/70/3 
f 60/74/3 78/104/3 79/105/3 
f 79/105/3 62/76/3 60/74/3 
f 62/76/3 79/105/3 80/106/3 
f 80/106/3 64/78/3 62/76/3 
f 64/78/3 80/106/3 67/93/3 
f 67/93/3 9/10/3 64/78/3 
f 81/107/4 13/15/4 12/14/4 
f 12/14/4 82/108/4 81/107/4 
f 82/108/4 12/14/4 16/18/4 
f 16/18/4 83/109/4 82/108/4 
f 83/109/4 16/18/4 18/20/4 
f 18/20/4 84/110/4 83/109/4 
f 84/110/4 18/20/4 20/22/4 
f 20/22/4 85/111/4 84/110/4 
f 85/111/4 20/22/4 22/24/4 
f 22/24/4 86/112/4 85/111/4 
f 86/112/4 22/24/4 3/3/4 
f 3/3/4 68/94/4 86/112/4 
f 26/28/4 87/113/4 88/114/4 
f 88/114/4 23/25/4 26/28/4 
f 23/25/4 88/114/4 89/115/4 
f 89/115/4 27/29/4 23/25/4 
f 27/29/4 89/115/4 90/116/4 
f 90/116/4 29/31/4 27/29/4 
f 29/31/4 90/116/4 91/117/4 
f 91/117/4 31/33/4 29/31/4 
f 31/33/4 91/117/4 69/95/4 
f 69/95/4 2/2/4 31/33/4 
# 0 polygons - 144 triangles

