# 3ds Max Wavefront OBJ Exporter v0.97b - (c)2007 guruware
# File Created: 17.09.2017 02:26:05

#
# object Object010
#

v  -2.4502 0.0500 32.0000
v  2.4498 0.0500 32.0000
v  2.4500 0.0459 26.6667
v  -2.4500 0.0459 26.6667
v  -2.4498 0.0167 -10.6667
v  -2.4498 0.0209 -5.3333
v  2.4502 0.0209 -5.3333
v  2.4501 0.0167 -10.6667
v  2.4503 0.0126 -16.0000
v  -2.4498 0.0126 -16.0000
v  2.4501 0.0084 -21.3333
v  -2.4498 0.0084 -21.3333
v  2.4501 0.0042 -26.6667
v  -2.4498 0.0042 -26.6667
v  2.4501 0.0251 -0.0000
v  -2.4498 0.0251 -0.0000
v  -2.4500 0.0292 5.3333
v  2.4500 0.0292 5.3333
v  -2.4498 0.0334 10.6699
v  2.4501 0.0334 10.6699
v  -2.4498 0.0376 16.0000
v  2.4501 0.0376 16.0000
v  -2.4499 0.0417 21.3301
v  2.4501 0.0417 21.3301
v  2.4501 0.0000 -32.0000
v  -2.4498 0.0000 -32.0000
# 26 vertices

vn 0.0000 1.0000 -0.0008
# 1 vertex normals

vt 0.4037 0.0000 0.0000
vt 0.5973 0.0000 0.0000
vt 0.5973 0.0833 0.0000
vt 0.4037 0.0833 0.0000
vt 0.4037 0.6666 0.0000
vt 0.4037 0.5833 0.0000
vt 0.5973 0.5833 0.0000
vt 0.5973 0.6666 0.0000
vt 0.5973 0.7499 0.0000
vt 0.4039 0.7499 0.0000
vt 0.5973 0.8333 0.0000
vt 0.4037 0.8333 0.0000
vt 0.5973 0.9166 0.0000
vt 0.4037 0.9166 0.0000
vt 0.5973 0.5000 0.0000
vt 0.4037 0.5000 0.0000
vt 0.4037 0.4166 0.0000
vt 0.5973 0.4166 0.0000
vt 0.4037 0.3333 0.0000
vt 0.5973 0.3333 0.0000
vt 0.4037 0.2500 0.0000
vt 0.5973 0.2500 0.0000
vt 0.4037 0.1667 0.0000
vt 0.5973 0.1667 0.0000
vt 0.5973 0.9999 0.0000
vt 0.4037 0.9999 0.0000
# 26 texture coords

g Object010
s off
f 1/1/1 2/2/1 3/3/1 4/4/1 
f 5/5/1 6/6/1 7/7/1 8/8/1 
f 5/5/1 8/8/1 9/9/1 10/10/1 
f 10/10/1 9/9/1 11/11/1 12/12/1 
f 12/12/1 11/11/1 13/13/1 14/14/1 
f 15/15/1 16/16/1 17/17/1 18/18/1 
f 18/18/1 17/17/1 19/19/1 20/20/1 
f 20/20/1 19/19/1 21/21/1 22/22/1 
f 22/22/1 21/21/1 23/23/1 24/24/1 
f 24/24/1 23/23/1 4/4/1 3/3/1 
f 7/7/1 6/6/1 16/16/1 15/15/1 
f 25/25/1 26/26/1 14/14/1 13/13/1 
# 12 polygons

