# 3ds Max Wavefront OBJ Exporter v0.97b - (c)2007 guruware
# File Created: 19.12.2018 22:07:53

#
# object Station_Boosted_Rail
#

v  -0.4881 0.0800 14.3950
v  -0.4881 0.0800 12.7860
v  -1.2376 0.0600 12.7860
v  -1.2376 0.0600 14.3950
v  -1.2376 0.0600 11.1771
v  -0.4881 0.0800 11.1771
v  -0.4881 -0.1900 11.1771
v  -1.2376 -0.1900 11.1771
v  -1.2376 -0.1900 12.7860
v  -1.2376 -0.1900 14.3950
v  -1.2376 0.0600 31.5039
v  -1.2376 -0.1900 31.5039
v  -0.4881 -0.1900 31.5039
v  -0.4881 0.0800 31.5039
v  -0.4881 0.0800 28.2817
v  -0.4881 0.0800 29.8928
v  -0.4881 -0.1900 29.8928
v  -0.4881 -0.1900 28.2817
v  1.2377 0.0600 14.3950
v  1.2377 0.0600 12.7860
v  0.4882 0.0800 12.7860
v  0.4882 0.0800 14.3950
v  1.2377 0.0600 11.1771
v  1.2377 -0.1900 11.1771
v  0.4882 -0.1900 11.1771
v  0.4882 0.0800 11.1771
v  0.4882 -0.1900 12.7860
v  0.4882 -0.1900 14.3950
v  1.2377 0.0600 31.5039
v  0.4882 0.0800 31.5039
v  0.4882 -0.1900 31.5039
v  1.2377 -0.1900 31.5039
v  1.2377 0.0600 28.2817
v  1.2377 0.0600 29.8928
v  1.2377 -0.1900 29.8928
v  1.2377 -0.1900 28.2817
v  -0.4881 0.0800 -6.9362
v  -0.4881 0.0800 -8.5430
v  -1.2376 0.0600 -8.5430
v  -1.2376 0.0600 -6.9362
v  -1.2376 0.0600 -10.1498
v  -0.4881 0.0800 -10.1498
v  -0.4881 -0.1900 -10.1498
v  -1.2376 -0.1900 -10.1498
v  -1.2376 -0.1900 -8.5430
v  -1.2376 -0.1900 -6.9362
v  -1.2376 0.0600 10.1771
v  -1.2376 -0.1900 10.1771
v  -0.4881 -0.1900 10.1771
v  -0.4881 0.0800 10.1771
v  -0.4881 -0.1900 8.5638
v  -0.4881 -0.1900 6.9505
v  -0.4881 0.0800 6.9505
v  -0.4881 0.0800 8.5638
v  1.2377 0.0600 -6.9362
v  1.2377 0.0600 -8.5430
v  0.4882 0.0800 -8.5430
v  0.4882 0.0800 -6.9362
v  1.2377 0.0600 -10.1498
v  1.2377 -0.1900 -10.1498
v  0.4882 -0.1900 -10.1498
v  0.4882 0.0800 -10.1498
v  0.4882 -0.1900 -8.5430
v  0.4882 -0.1900 -6.9362
v  1.2377 0.0600 10.1771
v  0.4882 0.0800 10.1771
v  0.4882 -0.1900 10.1771
v  1.2377 -0.1900 10.1771
v  1.2377 -0.1900 8.5638
v  1.2377 -0.1900 6.9505
v  1.2377 0.0600 6.9505
v  1.2377 0.0600 8.5638
v  -0.4882 0.0800 -28.2674
v  -0.4882 0.0800 -29.8720
v  -1.2377 0.0600 -29.8720
v  -1.2377 0.0600 -28.2674
v  -1.2377 0.0600 -31.4766
v  -0.4882 0.0800 -31.4766
v  -0.4882 -0.1900 -31.4766
v  -1.2377 -0.1900 -31.4766
v  -1.2377 -0.1900 -29.8720
v  -1.2377 -0.1900 -28.2674
v  -1.2377 0.0600 -11.1498
v  -1.2377 -0.1900 -11.1498
v  -0.4882 -0.1900 -11.1498
v  -0.4882 0.0800 -11.1498
v  -0.4882 -0.1900 -12.7652
v  -0.4882 -0.1900 -14.3807
v  -0.4882 0.0800 -14.3807
v  -0.4882 0.0800 -12.7652
v  1.2377 0.0600 -28.2674
v  1.2377 0.0600 -29.8720
v  0.4882 0.0800 -29.8720
v  0.4882 0.0800 -28.2674
v  1.2377 0.0600 -31.4766
v  1.2377 -0.1900 -31.4766
v  0.4882 -0.1900 -31.4766
v  0.4882 0.0800 -31.4766
v  0.4882 -0.1900 -29.8720
v  0.4882 -0.1900 -28.2674
v  1.2377 0.0600 -11.1497
v  0.4882 0.0800 -11.1497
v  0.4882 -0.1900 -11.1497
v  1.2377 -0.1900 -11.1497
v  1.2377 -0.1900 -12.7652
v  1.2377 -0.1900 -14.3806
v  1.2377 0.0600 -14.3806
v  1.2377 0.0600 -12.7652
v  -0.4881 0.0800 3.5594
v  -0.4881 0.0800 1.7817
v  -1.2376 0.0600 1.7817
v  -1.2376 0.0600 3.5594
v  -1.2376 -0.1900 1.7817
v  -1.2376 -0.1900 3.5594
v  -0.4881 -0.1900 -1.7739
v  -0.4881 -0.1900 -3.5516
v  -0.4881 0.0800 -3.5516
v  -0.4881 0.0800 -1.7739
v  1.2377 0.0600 3.5594
v  1.2377 0.0600 1.7817
v  0.4882 0.0800 1.7817
v  0.4882 0.0800 3.5594
v  0.4882 -0.1900 1.7817
v  0.4882 -0.1900 3.5594
v  1.2377 -0.1900 -1.7739
v  1.2377 -0.1900 -3.5516
v  1.2377 0.0600 -3.5516
v  1.2377 0.0600 -1.7739
v  -1.2376 0.0600 -3.5516
v  -1.2376 0.0600 -1.7739
v  -1.2376 -0.1900 -3.5516
v  -1.2376 -0.1900 -1.7739
v  0.4882 0.0800 -3.5516
v  0.4882 0.0800 -1.7739
v  0.4882 -0.1900 -3.5516
v  0.4882 -0.1900 -1.7739
v  -0.4881 -0.1900 -6.9362
v  -0.4881 -0.1900 -8.5430
v  1.2377 -0.1900 -6.9362
v  1.2377 -0.1900 -8.5430
v  -1.2377 0.0600 -14.3807
v  -1.2377 0.0600 -12.7652
v  -1.2377 -0.1900 -14.3807
v  -1.2377 -0.1900 -12.7652
v  -0.4882 -0.1900 -17.7739
v  -0.4882 -0.1900 -19.5516
v  -0.4882 0.0800 -19.5516
v  -0.4882 0.0800 -17.7739
v  0.4882 0.0800 -14.3806
v  0.4882 0.0800 -12.7652
v  0.4882 -0.1900 -14.3806
v  0.4882 -0.1900 -12.7652
v  1.2377 -0.1900 -17.7739
v  1.2377 -0.1900 -19.5516
v  1.2377 0.0600 -19.5516
v  1.2377 0.0600 -17.7739
v  -1.2377 0.0600 -19.5516
v  -1.2377 0.0600 -17.7739
v  -1.2377 -0.1900 -19.5516
v  -1.2377 -0.1900 -17.7739
v  0.4882 0.0800 -19.5516
v  0.4882 0.0800 -17.7739
v  0.4882 -0.1900 -19.5516
v  0.4882 -0.1900 -17.7739
v  -0.4882 -0.1900 -23.1072
v  -0.4882 -0.1900 -24.8850
v  -0.4882 0.0800 -24.8850
v  -0.4882 0.0800 -23.1072
v  1.2377 -0.1900 -23.1072
v  1.2377 -0.1900 -24.8850
v  1.2377 0.0600 -24.8850
v  1.2377 0.0600 -23.1072
v  -1.2377 0.0600 -24.8850
v  -1.2377 0.0600 -23.1072
v  -1.2377 -0.1900 -24.8850
v  -1.2377 -0.1900 -23.1072
v  0.4882 0.0800 -24.8850
v  0.4882 0.0800 -23.1072
v  0.4882 -0.1900 -24.8850
v  0.4882 -0.1900 -23.1072
v  -0.4882 -0.1900 -28.2674
v  -0.4882 -0.1900 -29.8720
v  1.2377 -0.1900 -28.2674
v  1.2377 -0.1900 -29.8720
v  -0.4881 -0.1900 3.5594
v  -0.4881 -0.1900 1.7817
v  1.2377 -0.1900 3.5594
v  1.2377 -0.1900 1.7817
v  -1.2376 0.0600 6.9505
v  -1.2376 0.0600 8.5638
v  -1.2376 -0.1900 6.9505
v  -1.2376 -0.1900 8.5638
v  0.4882 0.0800 6.9505
v  0.4882 0.0800 8.5638
v  0.4882 -0.1900 6.9505
v  0.4882 -0.1900 8.5638
v  -0.4881 0.0800 19.5594
v  -0.4881 0.0800 17.7817
v  -1.2376 0.0600 17.7817
v  -1.2376 0.0600 19.5594
v  -1.2376 -0.1900 17.7817
v  -1.2376 -0.1900 19.5594
v  -0.4881 -0.1900 14.3950
v  -0.4881 -0.1900 12.7860
v  1.2377 0.0600 19.5594
v  1.2377 0.0600 17.7817
v  0.4882 0.0800 17.7817
v  0.4882 0.0800 19.5594
v  0.4882 -0.1900 17.7817
v  0.4882 -0.1900 19.5594
v  1.2377 -0.1900 14.3950
v  1.2377 -0.1900 12.7860
v  -0.4881 -0.1900 19.5594
v  -0.4881 -0.1900 17.7817
v  1.2377 -0.1900 19.5594
v  1.2377 -0.1900 17.7817
v  -0.4881 0.0800 24.8928
v  -0.4881 0.0800 23.1150
v  -1.2376 0.0600 23.1150
v  -1.2376 0.0600 24.8928
v  -1.2376 -0.1900 23.1150
v  -1.2376 -0.1900 24.8928
v  1.2377 0.0600 24.8928
v  1.2377 0.0600 23.1150
v  0.4882 0.0800 23.1150
v  0.4882 0.0800 24.8928
v  0.4882 -0.1900 23.1150
v  0.4882 -0.1900 24.8928
v  -0.4881 -0.1900 24.8928
v  -0.4881 -0.1900 23.1150
v  1.2377 -0.1900 24.8928
v  1.2377 -0.1900 23.1150
v  -1.2376 0.0600 28.2817
v  -1.2376 0.0600 29.8928
v  -1.2376 -0.1900 28.2817
v  -1.2376 -0.1900 29.8928
v  0.4882 0.0800 28.2817
v  0.4882 0.0800 29.8928
v  0.4882 -0.1900 28.2817
v  0.4882 -0.1900 29.8928
v  -1.2376 0.0600 16.0039
v  -0.4881 0.0800 16.0039
v  -1.2376 -0.1900 16.0039
v  -0.4881 -0.1900 26.6706
v  -0.4881 0.0800 26.6706
v  0.4882 0.0800 16.0039
v  1.2377 0.0600 16.0039
v  0.4882 -0.1900 16.0039
v  1.2377 -0.1900 26.6706
v  1.2377 0.0600 26.6706
v  -1.2376 0.0600 -5.3294
v  -0.4881 0.0800 -5.3294
v  -1.2376 -0.1900 -5.3294
v  -0.4881 -0.1900 5.3372
v  -0.4881 0.0800 5.3372
v  0.4882 0.0800 -5.3294
v  1.2377 0.0600 -5.3294
v  0.4882 -0.1900 -5.3294
v  1.2377 -0.1900 5.3372
v  1.2377 0.0600 5.3372
v  -1.2377 0.0600 -26.6628
v  -0.4882 0.0800 -26.6628
v  -1.2377 -0.1900 -26.6628
v  -0.4882 -0.1900 -15.9961
v  -0.4882 0.0800 -15.9961
v  0.4882 0.0800 -26.6628
v  1.2377 0.0600 -26.6628
v  0.4882 -0.1900 -26.6628
v  1.2377 -0.1900 -15.9961
v  1.2377 0.0600 -15.9961
v  -0.4881 0.0800 0.0039
v  -1.2376 0.0600 0.0039
v  -1.2376 0.0600 5.3372
v  -1.2376 -0.1900 5.3372
v  -1.2376 -0.1900 0.0039
v  -0.4881 -0.1900 -5.3294
v  -0.4881 -0.1900 0.0039
v  1.2377 0.0600 0.0039
v  0.4882 0.0800 0.0039
v  0.4882 0.0800 5.3372
v  0.4882 -0.1900 5.3372
v  0.4882 -0.1900 0.0039
v  1.2377 -0.1900 -5.3294
v  1.2377 -0.1900 0.0039
v  -1.2377 0.0600 -15.9961
v  -1.2377 -0.1900 -15.9961
v  -0.4882 -0.1900 -21.3294
v  -0.4882 0.0800 -21.3294
v  0.4882 0.0800 -15.9961
v  0.4882 -0.1900 -15.9961
v  1.2377 -0.1900 -21.3294
v  1.2377 0.0600 -21.3294
v  -1.2377 0.0600 -21.3294
v  -1.2377 -0.1900 -21.3294
v  0.4882 0.0800 -21.3294
v  0.4882 -0.1900 -21.3294
v  -0.4882 -0.1900 -26.6628
v  1.2377 -0.1900 -26.6628
v  -1.2376 0.0600 21.3372
v  -0.4881 0.0800 21.3372
v  -1.2376 -0.1900 21.3372
v  -0.4881 -0.1900 16.0039
v  0.4882 0.0800 21.3372
v  1.2377 0.0600 21.3372
v  0.4882 -0.1900 21.3372
v  1.2377 -0.1900 16.0039
v  -0.4881 -0.1900 21.3372
v  1.2377 -0.1900 21.3372
v  -1.2376 0.0600 26.6706
v  -1.2376 -0.1900 26.6706
v  0.4882 0.0800 26.6706
v  0.4882 -0.1900 26.6706
# 312 vertices

vn -0.0267 0.9996 -0.0000
vn 0.0000 0.0000 -1.0000
vn -1.0000 0.0000 -0.0000
vn 0.0000 0.0000 1.0000
vn 1.0000 0.0000 -0.0000
vn 0.0267 0.9996 -0.0000
# 6 vertex normals

vt 0.2568 0.3333 0.0000
vt 0.2568 0.6667 0.0000
vt 0.0003 0.6667 0.0000
vt 0.0003 0.3333 0.0000
vt 0.2532 0.0000 0.0000
vt 0.0000 0.0000 0.0000
vt 0.0000 0.0345 0.0000
vt 0.2532 0.0345 0.0000
vt 0.0000 0.6667 0.0000
vt 0.0000 0.3333 0.0000
vt 0.0356 0.3333 0.0000
vt 0.0356 0.6667 0.0000
vt 0.0388 0.6667 0.0000
vt 0.0388 0.3333 0.0000
vt 0.2568 0.3332 0.0000
vt 0.2568 0.6665 0.0000
vt 0.0003 0.6665 0.0000
vt 0.0003 0.3332 0.0000
vt 0.2568 0.3334 0.0000
vt 0.2568 0.6669 0.0000
vt 0.0003 0.6669 0.0000
vt 0.0003 0.3334 0.0000
vt 0.2568 0.3331 0.0000
vt 0.2568 0.6663 0.0000
vt 0.0003 0.6663 0.0000
vt 0.0003 0.3331 0.0000
vt 0.2568 1.0000 0.0000
vt 0.0003 1.0000 0.0000
vt 0.0003 0.0000 0.0000
vt 0.2568 0.0000 0.0000
vt 0.0356 0.0000 0.0000
vt 0.0356 1.0000 0.0000
vt 0.0000 1.0000 0.0000
vt 0.0388 0.0000 0.0000
vt -0.0000 1.0000 0.0000
vt 0.0388 1.0000 0.0000
vt 0.2568 0.9997 0.0000
vt 0.0003 0.9997 0.0000
vt 0.2568 1.0003 0.0000
vt 0.0003 1.0003 0.0000
vt 0.2568 0.9994 0.0000
vt 0.0003 0.9994 0.0000
# 42 texture coords

g Station_Boosted_Rail
s 4
f 1/1/1 2/2/1 3/3/1 4/4/1 
s 8
f 5/5/2 6/6/2 7/7/2 8/8/2 
s 16
f 9/9/3 10/10/3 4/11/3 3/12/3 
s 32
f 11/5/4 12/8/4 13/7/4 14/6/4 
s 64
f 15/13/5 16/14/5 17/10/5 18/9/5 
s 4
f 19/1/6 20/2/6 21/3/6 22/4/6 
s 8
f 23/5/2 24/8/2 25/7/2 26/6/2 
s 16
f 27/9/3 28/10/3 22/11/3 21/12/3 
s 32
f 29/5/4 30/6/4 31/7/4 32/8/4 
s 64
f 33/13/5 34/14/5 35/10/5 36/9/5 
s 4
f 37/1/1 38/2/1 39/3/1 40/4/1 
s 8
f 41/5/2 42/6/2 43/7/2 44/8/2 
s 16
f 45/9/3 46/10/3 40/11/3 39/12/3 
s 32
f 47/5/4 48/8/4 49/7/4 50/6/4 
s 64
f 51/10/5 52/9/5 53/13/5 54/14/5 
s 4
f 55/1/6 56/2/6 57/3/6 58/4/6 
s 8
f 59/5/2 60/8/2 61/7/2 62/6/2 
s 16
f 63/9/3 64/10/3 58/11/3 57/12/3 
s 32
f 65/5/4 66/6/4 67/7/4 68/8/4 
s 64
f 69/10/5 70/9/5 71/13/5 72/14/5 
s 4
f 73/1/1 74/2/1 75/3/1 76/4/1 
s 8
f 77/5/2 78/6/2 79/7/2 80/8/2 
s 16
f 81/9/3 82/10/3 76/11/3 75/12/3 
s 32
f 83/5/4 84/8/4 85/7/4 86/6/4 
s 64
f 87/10/5 88/9/5 89/13/5 90/14/5 
s 4
f 91/1/6 92/2/6 93/3/6 94/4/6 
s 8
f 95/5/2 96/8/2 97/7/2 98/6/2 
s 16
f 99/9/3 100/10/3 94/11/3 93/12/3 
s 32
f 101/5/4 102/6/4 103/7/4 104/8/4 
s 64
f 105/10/5 106/9/5 107/13/5 108/14/5 
s 4
f 109/15/1 110/16/1 111/17/1 112/18/1 
s 16
f 113/9/3 114/10/3 112/11/3 111/12/3 
s 64
f 115/10/5 116/9/5 117/13/5 118/14/5 
s 4
f 119/15/6 120/16/6 121/17/6 122/18/6 
s 16
f 123/9/3 124/10/3 122/11/3 121/12/3 
s 64
f 125/10/5 126/9/5 127/13/5 128/14/5 
s 4
f 118/1/1 117/2/1 129/3/1 130/4/1 
s 16
f 131/9/3 132/10/3 130/11/3 129/12/3 
s 4
f 128/1/6 127/2/6 133/3/6 134/4/6 
s 16
f 135/9/3 136/10/3 134/11/3 133/12/3 
s 64
f 137/10/5 138/9/5 38/13/5 37/14/5 
f 139/10/5 140/9/5 56/13/5 55/14/5 
s 4
f 141/3/1 142/4/1 90/1/1 89/2/1 
s 16
f 143/9/3 144/10/3 142/11/3 141/12/3 
s 64
f 145/10/5 146/9/5 147/13/5 148/14/5 
s 4
f 149/3/6 150/4/6 108/1/6 107/2/6 
s 16
f 151/9/3 152/10/3 150/11/3 149/12/3 
s 64
f 153/10/5 154/9/5 155/13/5 156/14/5 
s 4
f 148/1/1 147/2/1 157/3/1 158/4/1 
s 16
f 159/9/3 160/10/3 158/11/3 157/12/3 
s 4
f 156/1/6 155/2/6 161/3/6 162/4/6 
s 16
f 163/9/3 164/10/3 162/11/3 161/12/3 
s 64
f 165/10/5 166/9/5 167/13/5 168/14/5 
f 169/10/5 170/9/5 171/13/5 172/14/5 
s 4
f 168/19/1 167/20/1 173/21/1 174/22/1 
s 16
f 175/9/3 176/10/3 174/11/3 173/12/3 
s 4
f 172/19/6 171/20/6 177/21/6 178/22/6 
s 16
f 179/9/3 180/10/3 178/11/3 177/12/3 
s 64
f 181/10/5 182/9/5 74/13/5 73/14/5 
f 183/10/5 184/9/5 92/13/5 91/14/5 
f 185/10/5 186/9/5 110/13/5 109/14/5 
f 187/10/5 188/9/5 120/13/5 119/14/5 
s 4
f 189/17/1 190/18/1 54/15/1 53/16/1 
s 16
f 191/9/3 192/10/3 190/11/3 189/12/3 
s 4
f 193/17/6 194/18/6 72/15/6 71/16/6 
s 16
f 195/9/3 196/10/3 194/11/3 193/12/3 
s 4
f 197/15/1 198/16/1 199/17/1 200/18/1 
s 16
f 201/9/3 202/10/3 200/11/3 199/12/3 
s 64
f 203/10/5 204/9/5 2/13/5 1/14/5 
s 4
f 205/15/6 206/16/6 207/17/6 208/18/6 
s 16
f 209/9/3 210/10/3 208/11/3 207/12/3 
s 64
f 211/10/5 212/9/5 20/13/5 19/14/5 
f 213/10/5 214/9/5 198/13/5 197/14/5 
f 215/10/5 216/9/5 206/13/5 205/14/5 
s 4
f 217/23/1 218/24/1 219/25/1 220/26/1 
s 16
f 221/9/3 222/10/3 220/11/3 219/12/3 
s 4
f 223/23/6 224/24/6 225/25/6 226/26/6 
s 16
f 227/9/3 228/10/3 226/11/3 225/12/3 
s 64
f 218/13/5 217/14/5 229/10/5 230/9/5 
f 224/13/5 223/14/5 231/10/5 232/9/5 
s 4
f 233/25/1 234/26/1 16/23/1 15/24/1 
s 16
f 235/9/3 236/10/3 234/11/3 233/12/3 
s 4
f 237/25/6 238/26/6 34/23/6 33/24/6 
s 16
f 239/9/3 240/10/3 238/11/3 237/12/3 
s 4
f 2/2/1 6/27/1 5/28/1 3/3/1 
f 4/4/1 241/29/1 242/30/1 1/1/1 
s 16
f 10/10/3 243/6/3 241/31/3 4/11/3 
f 3/12/3 5/32/3 8/33/3 9/9/3 
s 64
f 16/14/5 14/34/5 13/6/5 17/10/5 
f 18/9/5 244/35/5 245/36/5 15/13/5 
s 4
f 20/2/6 23/27/6 26/28/6 21/3/6 
f 22/4/6 246/29/6 247/30/6 19/1/6 
s 16
f 28/10/3 248/6/3 246/31/3 22/11/3 
f 21/12/3 26/32/3 25/33/3 27/9/3 
s 64
f 34/14/5 29/34/5 32/6/5 35/10/5 
f 36/9/5 249/35/5 250/36/5 33/13/5 
s 4
f 38/2/1 42/27/1 41/28/1 39/3/1 
f 40/4/1 251/29/1 252/30/1 37/1/1 
s 16
f 46/10/3 253/6/3 251/31/3 40/11/3 
f 39/12/3 41/32/3 44/33/3 45/9/3 
s 64
f 52/9/5 254/35/5 255/36/5 53/13/5 
f 54/14/5 50/34/5 49/6/5 51/10/5 
s 4
f 56/2/6 59/27/6 62/28/6 57/3/6 
f 58/4/6 256/29/6 257/30/6 55/1/6 
s 16
f 64/10/3 258/6/3 256/31/3 58/11/3 
f 57/12/3 62/32/3 61/33/3 63/9/3 
s 64
f 70/9/5 259/35/5 260/36/5 71/13/5 
f 72/14/5 65/34/5 68/6/5 69/10/5 
s 4
f 74/2/1 78/27/1 77/28/1 75/3/1 
f 76/4/1 261/29/1 262/30/1 73/1/1 
s 16
f 82/10/3 263/6/3 261/31/3 76/11/3 
f 75/12/3 77/32/3 80/33/3 81/9/3 
s 64
f 88/9/5 264/35/5 265/36/5 89/13/5 
f 90/14/5 86/34/5 85/6/5 87/10/5 
s 4
f 92/2/6 95/27/6 98/28/6 93/3/6 
f 94/4/6 266/29/6 267/30/6 91/1/6 
s 16
f 100/10/3 268/6/3 266/31/3 94/11/3 
f 93/12/3 98/32/3 97/33/3 99/9/3 
s 64
f 106/9/5 269/35/5 270/36/5 107/13/5 
f 108/14/5 101/34/5 104/6/5 105/10/5 
s 4
f 110/16/1 271/37/1 272/38/1 111/17/1 
f 112/18/1 273/29/1 255/30/1 109/15/1 
s 16
f 114/10/3 274/6/3 273/31/3 112/11/3 
f 111/12/3 272/32/3 275/33/3 113/9/3 
s 64
f 116/9/5 276/35/5 252/36/5 117/13/5 
f 118/14/5 271/34/5 277/6/5 115/10/5 
s 4
f 120/16/6 278/37/6 279/38/6 121/17/6 
f 122/18/6 280/29/6 260/30/6 119/15/6 
s 16
f 124/10/3 281/6/3 280/31/3 122/11/3 
f 121/12/3 279/32/3 282/33/3 123/9/3 
s 64
f 126/9/5 283/35/5 257/36/5 127/13/5 
f 128/14/5 278/34/5 284/6/5 125/10/5 
s 4
f 117/2/1 252/27/1 251/28/1 129/3/1 
f 130/4/1 272/29/1 271/30/1 118/1/1 
s 16
f 132/10/3 275/6/3 272/31/3 130/11/3 
f 129/12/3 251/32/3 253/33/3 131/9/3 
s 4
f 127/2/6 257/27/6 256/28/6 133/3/6 
f 134/4/6 279/29/6 278/30/6 128/1/6 
s 16
f 136/10/3 282/6/3 279/31/3 134/11/3 
f 133/12/3 256/32/3 258/33/3 135/9/3 
s 64
f 138/9/5 43/35/5 42/36/5 38/13/5 
f 37/14/5 252/34/5 276/6/5 137/10/5 
f 140/9/5 60/35/5 59/36/5 56/13/5 
f 55/14/5 257/34/5 283/6/5 139/10/5 
s 4
f 142/4/1 83/29/1 86/30/1 90/1/1 
f 89/2/1 265/27/1 285/28/1 141/3/1 
s 16
f 144/10/3 84/6/3 83/31/3 142/11/3 
f 141/12/3 285/32/3 286/33/3 143/9/3 
s 64
f 146/9/5 287/35/5 288/36/5 147/13/5 
f 148/14/5 265/34/5 264/6/5 145/10/5 
s 4
f 150/4/6 102/29/6 101/30/6 108/1/6 
f 107/2/6 270/27/6 289/28/6 149/3/6 
s 16
f 152/10/3 103/6/3 102/31/3 150/11/3 
f 149/12/3 289/32/3 290/33/3 151/9/3 
s 64
f 154/9/5 291/35/5 292/36/5 155/13/5 
f 156/14/5 270/34/5 269/6/5 153/10/5 
s 4
f 147/2/1 288/27/1 293/28/1 157/3/1 
f 158/4/1 285/29/1 265/30/1 148/1/1 
s 16
f 160/10/3 286/6/3 285/31/3 158/11/3 
f 157/12/3 293/32/3 294/33/3 159/9/3 
s 4
f 155/2/6 292/27/6 295/28/6 161/3/6 
f 162/4/6 289/29/6 270/30/6 156/1/6 
s 16
f 164/10/3 290/6/3 289/31/3 162/11/3 
f 161/12/3 295/32/3 296/33/3 163/9/3 
s 64
f 166/9/5 297/35/5 262/36/5 167/13/5 
f 168/14/5 288/34/5 287/6/5 165/10/5 
f 170/9/5 298/35/5 267/36/5 171/13/5 
f 172/14/5 292/34/5 291/6/5 169/10/5 
s 4
f 167/20/1 262/39/1 261/40/1 173/21/1 
f 174/22/1 293/29/1 288/30/1 168/19/1 
s 16
f 176/10/3 294/6/3 293/31/3 174/11/3 
f 173/12/3 261/32/3 263/33/3 175/9/3 
s 4
f 171/20/6 267/39/6 266/40/6 177/21/6 
f 178/22/6 295/29/6 292/30/6 172/19/6 
s 16
f 180/10/3 296/6/3 295/31/3 178/11/3 
f 177/12/3 266/32/3 268/33/3 179/9/3 
s 64
f 182/9/5 79/35/5 78/36/5 74/13/5 
f 73/14/5 262/34/5 297/6/5 181/10/5 
f 184/9/5 96/35/5 95/36/5 92/13/5 
f 91/14/5 267/34/5 298/6/5 183/10/5 
f 186/9/5 277/35/5 271/36/5 110/13/5 
f 109/14/5 255/34/5 254/6/5 185/10/5 
f 188/9/5 284/35/5 278/36/5 120/13/5 
f 119/14/5 260/34/5 259/6/5 187/10/5 
s 4
f 190/18/1 47/29/1 50/30/1 54/15/1 
f 53/16/1 255/37/1 273/38/1 189/17/1 
s 16
f 192/10/3 48/6/3 47/31/3 190/11/3 
f 189/12/3 273/32/3 274/33/3 191/9/3 
s 4
f 194/18/6 66/29/6 65/30/6 72/15/6 
f 71/16/6 260/37/6 280/38/6 193/17/6 
s 16
f 196/10/3 67/6/3 66/31/3 194/11/3 
f 193/12/3 280/32/3 281/33/3 195/9/3 
s 4
f 198/16/1 242/37/1 241/38/1 199/17/1 
f 200/18/1 299/29/1 300/30/1 197/15/1 
s 16
f 202/10/3 301/6/3 299/31/3 200/11/3 
f 199/12/3 241/32/3 243/33/3 201/9/3 
s 64
f 204/9/5 7/35/5 6/36/5 2/13/5 
f 1/14/5 242/34/5 302/6/5 203/10/5 
s 4
f 206/16/6 247/37/6 246/38/6 207/17/6 
f 208/18/6 303/29/6 304/30/6 205/15/6 
s 16
f 210/10/3 305/6/3 303/31/3 208/11/3 
f 207/12/3 246/32/3 248/33/3 209/9/3 
s 64
f 212/9/5 24/35/5 23/36/5 20/13/5 
f 19/14/5 247/34/5 306/6/5 211/10/5 
f 214/9/5 302/35/5 242/36/5 198/13/5 
f 197/14/5 300/34/5 307/6/5 213/10/5 
f 216/9/5 306/35/5 247/36/5 206/13/5 
f 205/14/5 304/34/5 308/6/5 215/10/5 
s 4
f 218/24/1 300/41/1 299/42/1 219/25/1 
f 220/26/1 309/29/1 245/30/1 217/23/1 
s 16
f 222/10/3 310/6/3 309/31/3 220/11/3 
f 219/12/3 299/32/3 301/33/3 221/9/3 
s 4
f 224/24/6 304/41/6 303/42/6 225/25/6 
f 226/26/6 311/29/6 250/30/6 223/23/6 
s 16
f 228/10/3 312/6/3 311/31/3 226/11/3 
f 225/12/3 303/32/3 305/33/3 227/9/3 
s 64
f 217/14/5 245/34/5 244/6/5 229/10/5 
f 230/9/5 307/35/5 300/36/5 218/13/5 
f 223/14/5 250/34/5 249/6/5 231/10/5 
f 232/9/5 308/35/5 304/36/5 224/13/5 
s 4
f 234/26/1 11/29/1 14/30/1 16/23/1 
f 15/24/1 245/41/1 309/42/1 233/25/1 
s 16
f 236/10/3 12/6/3 11/31/3 234/11/3 
f 233/12/3 309/32/3 310/33/3 235/9/3 
s 4
f 238/26/6 30/29/6 29/30/6 34/23/6 
f 33/24/6 250/41/6 311/42/6 237/25/6 
s 16
f 240/10/3 31/6/3 30/31/3 238/11/3 
f 237/12/3 311/32/3 312/33/3 239/9/3 
# 228 polygons

