# 3ds Max Wavefront OBJ Exporter v0.97b - (c)2007 guruware
# File Created: 04.04.2017 18:26:47

#
# object ThirdRail_Node
#

v  -1.3571 0.3524 -26.6660
v  -1.3592 0.3523 -31.9994
v  -1.3581 0.5052 -26.6660
v  -1.3571 0.3524 -21.3327
v  -1.5803 0.3522 -21.3327
v  -1.3581 0.5052 -31.9994
v  -1.5813 0.5049 -26.6661
v  -1.5803 0.3522 -21.3338
v  -1.5813 0.5049 -31.9994
v  -1.5803 0.3522 -26.6671
v  -1.5771 0.3522 -32.0004
v  -1.3788 -0.3000 -26.9646
v  -1.4010 0.3520 -26.9899
v  -1.5547 -0.3000 -26.9646
v  -1.5325 0.3520 -26.9899
v  -1.5547 -0.3000 -27.1646
v  -1.5325 0.3520 -27.1393
v  -1.3788 -0.3000 -27.1646
v  -1.4010 0.3520 -27.1393
v  -1.3571 0.5904 -26.6660
v  -1.3592 0.5903 -31.9994
v  -1.3581 0.6191 -26.6660
v  -1.3581 0.6191 -21.3327
v  -1.5813 0.6189 -21.3327
v  -1.3581 0.6191 -31.9994
v  -1.5814 0.6189 -26.6661
v  -1.5803 0.5902 -21.3338
v  -1.5814 0.6189 -31.9994
v  -1.5803 0.5902 -26.6671
v  -1.3571 0.5904 -21.3327
v  -1.5771 0.5902 -32.0004
v  -1.6040 0.2520 -27.1646
v  -1.3290 0.2520 -27.1646
v  -1.6040 0.2520 -26.9646
v  -1.3290 0.2520 -26.9646
v  -1.3290 0.3520 -26.9646
v  -1.3290 0.3520 -27.1646
v  -1.6040 0.3520 -26.9646
v  -1.6040 0.3520 -27.1646
# 39 vertices

vn 1.0000 0.0065 -0.0002
vn 1.0000 -0.0069 -0.0000
vn 1.0000 0.0064 -0.0002
vn -0.0009 0.9996 0.0286
vn -0.0013 0.9999 0.0143
vn -0.0013 1.0000 -0.0000
vn -0.0014 0.9999 0.0143
vn -1.0000 -0.0065 -0.0000
vn -0.9996 -0.0271 -0.0006
vn -1.0000 -0.0067 -0.0000
vn 1.0000 -0.0072 -0.0000
vn -0.9996 -0.0275 -0.0006
vn 1.0000 0.0065 -0.0000
vn 0.0000 0.0388 0.9992
vn 0.0000 0.0388 -0.9992
vn 0.9994 0.0340 -0.0000
vn -0.9994 0.0340 -0.0000
vn 0.9994 0.0348 -0.0002
vn 0.9993 -0.0379 -0.0000
vn 0.9994 0.0347 -0.0002
vn -0.0009 1.0000 -0.0000
vn -0.9994 -0.0348 -0.0000
vn -0.9993 -0.0383 -0.0000
vn -0.9890 -0.1478 -0.0006
vn -0.9993 -0.0385 -0.0000
vn 0.9994 0.0348 -0.0000
vn 0.9993 -0.0382 -0.0000
vn -0.9890 -0.1482 -0.0006
vn 0.0000 -1.0000 -0.0000
vn 0.0000 1.0000 -0.0000
vn 0.0000 0.0000 1.0000
vn 1.0000 0.0000 -0.0000
vn 0.0000 0.0000 -1.0000
vn -1.0000 0.0000 -0.0000
vn 0.0000 -0.0383 0.9993
vn -0.0049 -0.0002 1.0000
# 36 vertex normals

vt 0.8504 0.9981 0.0000
vt 0.8504 0.0002 0.0000
vt 0.5638 0.9980 0.0000
vt 0.7806 0.9982 0.0000
vt 0.7806 0.0002 0.0000
vt 0.6153 0.9981 0.0000
vt 0.7806 0.9981 0.0000
vt 0.6153 0.9980 0.0000
vt 0.5638 -0.0000 0.0000
vt 0.8504 0.0001 0.0000
vt 0.5638 0.0001 0.0000
vt 0.6153 0.0001 0.0000
vt 0.5638 0.9981 0.0000
vt 0.7689 0.0002 0.0000
vt 0.7689 0.9978 0.0000
vt 0.8504 0.9978 0.0000
vt 0.2167 0.9978 0.0000
vt 0.2167 -0.0001 0.0000
vt 0.0531 0.9979 0.0000
vt 0.2167 0.9980 0.0000
vt 0.2167 0.0000 0.0000
vt 0.0531 0.9980 0.0000
vt 0.2167 0.9979 0.0000
vt 0.0531 -0.0001 0.0000
vt 0.0531 0.0000 0.0000
vt 0.8555 0.8490 0.0000
vt 0.9971 0.8490 0.0000
vt 1.0000 0.1000 0.0000
vt 0.8518 0.0999 0.0000
vt 0.9971 0.9490 0.0000
vt 0.8555 0.9490 0.0000
vt 0.9627 0.9000 0.0000
vt 0.9627 1.0000 0.0000
vt 0.9820 0.9000 0.0000
vt 0.9820 1.0000 0.0000
vt 0.8518 -0.0001 0.0000
# 36 texture coords

g ThirdRail_Node
s 2
f 1/1/1 2/2/2 3/3/3 
s 1
f 4/4/4 3/5/5 5/6/4 
f 3/7/5 6/5/6 7/8/7 
s 2
f 5/9/8 7/3/8 8/10/8 
f 7/11/8 9/3/9 10/2/10 
f 3/3/3 2/2/2 6/11/11 
s 1
f 7/8/7 6/5/6 9/12/6 
s 2
f 10/2/10 9/3/9 11/1/12 
s 1
f 5/6/4 3/5/5 7/12/7 
s 2
f 8/10/8 7/3/8 10/1/10 
f 4/13/13 1/2/1 3/11/3 
s 1
f 12/14/14 13/15/14 14/2/14 
f 15/16/14 14/2/14 13/15/14 
f 16/14/15 17/15/15 18/2/15 
f 19/16/15 18/2/15 17/15/15 
s 2
f 19/15/16 13/16/16 18/14/16 
f 12/2/16 18/14/16 13/16/16 
f 15/15/17 17/16/17 14/14/17 
f 16/2/17 14/14/17 17/16/17 
f 20/17/18 21/18/19 22/19/20 
s 1
f 23/20/21 22/21/21 24/22/21 
f 22/23/21 25/21/21 26/19/21 
s 2
f 24/24/22 26/19/23 27/18/22 
f 26/25/23 28/19/24 29/21/25 
f 30/23/26 20/18/18 23/22/26 
f 22/19/20 21/21/19 25/25/27 
s 1
f 26/19/21 25/21/21 28/25/21 
s 2
f 29/18/25 28/22/24 31/17/28 
s 1
f 24/22/21 22/18/21 26/25/21 
s 2
f 27/18/22 26/19/23 29/23/25 
f 23/22/26 20/18/18 22/25/20 
f 32/26/29 33/27/29 34/26/29 
f 35/27/29 34/26/29 33/27/29 
s 4
f 36/28/30 37/28/30 38/29/30 
f 39/29/30 38/29/30 37/28/30 
s 8
f 35/27/31 36/30/31 34/26/31 
f 38/31/31 34/26/31 36/30/31 
s 16
f 33/32/32 37/33/32 35/34/32 
f 36/35/32 35/34/32 37/33/32 
s 32
f 32/26/33 39/31/33 33/27/33 
f 37/30/33 33/27/33 39/31/33 
s 64
f 34/36/34 38/29/34 32/36/34 
f 39/29/34 32/36/34 38/29/34 
s off
f 24/22/35 27/18/35 23/20/35 
f 30/23/36 23/20/36 27/18/36 
# 45 faces

