# 3ds Max Wavefront OBJ Exporter v0.97b - (c)2007 guruware
# File Created: 17.09.2017 02:44:18

#
# object Object005
#

v  4.0000 8.2000 32.0000
v  4.0000 -0.3000 32.0000
v  4.0000 -0.3000 27.4317
v  4.0000 8.2000 27.4317
v  4.0000 -0.3000 22.8602
v  4.0000 8.2000 22.8602
v  4.0000 -0.3000 18.2888
v  4.0000 8.2000 18.2888
v  4.0000 -0.3000 13.7174
v  4.0000 8.2000 13.7174
v  4.0000 -0.3000 9.1460
v  4.0000 8.2000 9.1460
v  4.0000 -0.3000 4.5745
v  4.0000 8.2000 4.5745
v  4.0000 -0.3000 0.0031
v  4.0000 8.2000 0.0031
v  4.0000 -0.3000 -4.5683
v  4.0000 8.2000 -4.5683
v  4.0000 -0.3000 -9.1398
v  4.0000 8.2000 -9.1398
v  4.0000 -0.3000 -13.7112
v  4.0000 8.2000 -13.7112
v  4.0000 -0.3000 -18.2826
v  4.0000 8.2000 -18.2826
v  4.0000 -0.3000 -22.8540
v  4.0000 8.2000 -22.8540
v  4.0000 -0.3000 -27.4255
v  4.0000 8.2000 -27.4255
v  4.0000 -0.3000 -32.0000
v  4.0000 8.2000 -32.0000
v  -4.0000 -0.3000 -32.0000
v  -4.0000 -0.3000 -27.4255
v  -4.0000 8.2000 -27.4255
v  -4.0000 8.2000 -32.0000
v  -4.0000 -0.3000 -22.8540
v  -4.0000 8.2000 -22.8540
v  -4.0000 -0.3000 -18.2826
v  -4.0000 8.2000 -18.2826
v  -4.0000 -0.3000 -13.7112
v  -4.0000 8.2000 -13.7112
v  -4.0000 -0.3000 -9.1398
v  -4.0000 8.2000 -9.1398
v  -4.0000 -0.3000 -4.5683
v  -4.0000 8.2000 -4.5683
v  -4.0000 -0.3000 0.0031
v  -4.0000 8.2000 0.0031
v  -4.0000 -0.3000 4.5745
v  -4.0000 8.2000 4.5745
v  -4.0000 -0.3000 9.1460
v  -4.0000 8.2000 9.1460
v  -4.0000 -0.3000 13.7174
v  -4.0000 8.2000 13.7174
v  -4.0000 -0.3000 18.2888
v  -4.0000 8.2000 18.2888
v  -4.0000 -0.3000 22.8602
v  -4.0000 8.2000 22.8602
v  -4.0000 -0.3000 27.4317
v  -4.0000 8.2000 27.4317
v  -4.0000 -0.3000 32.0000
v  -4.0000 8.2000 32.0000
v  3.5000 0.0000 27.4322
v  3.5000 0.0000 32.0000
v  3.5000 8.0000 32.0000
v  3.5000 8.0000 27.4324
v  3.5000 0.0000 22.8611
v  3.5000 8.0000 22.8613
v  3.5000 0.0000 18.2899
v  3.5000 8.0000 18.2901
v  3.5000 0.0000 13.7188
v  3.5000 8.0000 13.7189
v  3.5000 0.0000 9.1475
v  3.5000 8.0000 9.1476
v  3.5000 0.0000 4.5761
v  3.5000 8.0000 4.5762
v  3.5000 0.0000 0.0047
v  3.5000 8.0000 0.0048
v  3.5000 0.0000 -4.5668
v  3.5000 8.0000 -4.5667
v  3.5000 0.0000 -9.1383
v  3.5000 8.0000 -9.1382
v  3.5000 0.0000 -13.7099
v  3.5000 8.0000 -13.7098
v  3.5000 0.0000 -18.2815
v  3.5000 8.0000 -18.2815
v  3.5000 0.0000 -22.8532
v  3.5000 8.0000 -22.8532
v  3.5000 0.0000 -27.4250
v  3.5000 8.0000 -27.4250
v  2.4500 0.0000 -32.0000
v  2.4500 0.0000 -27.4250
v  2.4499 5.9998 -27.4250
v  2.4500 5.9998 -32.0000
v  -2.4500 5.9998 -27.4250
v  -2.4500 0.0000 -27.4250
v  -2.4499 0.0000 -32.0000
v  -2.4499 5.9998 -32.0000
v  -3.5000 8.0000 -22.8532
v  -3.5000 0.0000 -22.8532
v  -3.5000 0.0000 -27.4250
v  -3.5000 8.0000 -27.4250
v  -3.5000 8.0000 -18.2815
v  -3.5000 0.0000 -18.2815
v  -3.5000 8.0000 -13.7098
v  -3.5000 0.0000 -13.7099
v  -3.5000 8.0000 -9.1382
v  -3.5000 0.0000 -9.1383
v  -3.5000 8.0000 -4.5667
v  -3.5000 0.0000 -4.5668
v  -3.5000 8.0000 0.0048
v  -3.5000 0.0000 0.0047
v  -3.5000 8.0000 4.5762
v  -3.5000 0.0000 4.5761
v  -3.5000 8.0000 9.1476
v  -3.5000 0.0000 9.1475
v  -3.5000 8.0000 13.7189
v  -3.5000 0.0000 13.7188
v  -3.5000 8.0000 18.2901
v  -3.5000 0.0000 18.2899
v  -3.5000 8.0000 22.8613
v  -3.5000 0.0000 22.8611
v  -3.5000 8.0000 27.4324
v  -3.5000 0.0000 27.4322
v  -3.5000 8.0000 32.0000
v  -3.5000 0.0000 32.0000
v  -1.4995 8.2000 32.0000
v  -1.4995 8.2000 27.4317
v  -1.4995 8.2000 22.8602
v  -1.4995 8.2000 18.2888
v  -1.4995 8.2000 13.7174
v  -1.4995 8.2000 9.1460
v  -1.4995 8.2000 4.5745
v  -1.4995 8.2000 0.0031
v  -1.4995 8.2000 -4.5683
v  -1.4995 8.2000 -9.1398
v  -1.4995 8.2000 -13.7112
v  -1.4995 8.2000 -18.2826
v  -1.4995 8.2000 -22.8540
v  -1.4995 8.2000 -27.4255
v  -1.4995 8.2000 -32.0000
v  -1.4995 8.0000 27.4324
v  -1.4995 8.0000 32.0000
v  1.5005 8.0000 22.8613
v  1.5005 8.0000 27.4324
v  1.5005 8.0000 18.2901
v  1.5005 8.0000 13.7189
v  1.5005 8.0000 9.1476
v  1.5005 8.0000 4.5762
v  1.5005 8.0000 0.0048
v  1.5005 8.0000 -4.5667
v  1.5005 8.0000 -9.1382
v  1.5005 8.0000 -13.7098
v  1.5005 8.0000 -18.2815
v  1.5005 8.0000 -22.8532
v  1.5005 8.0000 -27.4250
v  -3.5000 7.0000 -27.4250
v  -1.4995 7.0000 -27.4250
v  -1.4995 7.0000 -32.0000
v  -3.5000 7.0000 -32.0000
v  1.5005 5.9998 -32.0000
v  1.5005 5.9998 -27.4250
v  3.5000 7.0000 -27.4250
v  -1.4995 6.2134 -27.4250
v  -1.4995 5.9998 -27.4250
v  0.0000 7.0000 -27.4250
v  0.0000 5.9998 -27.4250
v  1.5005 7.0000 -27.4250
v  3.5000 7.0000 -32.0000
v  3.5000 0.0000 -32.0000
v  -3.5000 0.0000 -32.0000
v  -1.4995 5.9998 -32.0000
v  0.0000 5.9998 -32.0000
v  0.0000 7.0000 -32.0000
v  1.5005 7.0000 -32.0000
v  -1.4995 0.0000 32.0000
v  -1.4995 0.0000 27.4322
v  1.5005 0.0000 27.4322
v  1.5005 0.0000 22.8611
v  1.5005 0.0000 18.2899
v  1.5005 0.0000 13.7188
v  1.5005 0.0000 9.1475
v  1.5005 0.0000 4.5761
v  1.5005 0.0000 0.0047
v  1.5005 0.0000 -4.5667
v  1.5005 0.0000 -9.1383
v  1.5005 0.0000 -13.7099
v  1.5005 0.0000 -18.2815
v  1.5005 0.0000 -22.8532
v  1.5005 0.0000 -27.4250
v  -1.4995 0.0000 -27.4250
v  -1.4995 0.0000 -32.0000
v  0.0000 8.2000 27.4317
v  0.0000 8.2000 32.0000
v  1.5005 8.2000 32.0000
v  1.5005 8.2000 27.4317
v  0.0000 8.2000 22.8602
v  1.5005 8.2000 22.8602
v  0.0000 8.2000 18.2888
v  1.5005 8.2000 18.2888
v  0.0000 8.2000 13.7174
v  1.5005 8.2000 13.7174
v  0.0000 8.2000 9.1460
v  1.5005 8.2000 9.1460
v  0.0000 8.2000 4.5745
v  1.5005 8.2000 4.5745
v  0.0000 8.2000 0.0031
v  1.5005 8.2000 0.0031
v  0.0000 8.2000 -4.5683
v  1.5005 8.2000 -4.5683
v  0.0000 8.2000 -9.1398
v  1.5005 8.2000 -9.1398
v  0.0000 8.2000 -13.7112
v  1.5005 8.2000 -13.7112
v  0.0000 8.2000 -18.2826
v  1.5005 8.2000 -18.2826
v  0.0000 8.2000 -22.8540
v  1.5005 8.2000 -22.8540
v  0.0000 8.2000 -27.4255
v  1.5005 8.2000 -27.4255
v  0.0000 8.2000 -32.0000
v  1.5005 8.2000 -32.0000
v  0.0000 8.0000 32.0000
v  0.0000 8.0000 27.4324
v  1.5005 8.0000 32.0000
v  0.0000 8.0000 22.8613
v  -1.4995 8.0000 22.8613
v  0.0000 8.0000 18.2901
v  -1.4995 8.0000 18.2901
v  0.0000 8.0000 13.7189
v  -1.4995 8.0000 13.7189
v  0.0000 8.0000 9.1476
v  -1.4995 8.0000 9.1476
v  0.0000 8.0000 4.5762
v  -1.4995 8.0000 4.5762
v  0.0000 8.0000 0.0048
v  -1.4995 8.0000 0.0048
v  0.0000 8.0000 -4.5667
v  -1.4995 8.0000 -4.5667
v  0.0000 8.0000 -9.1382
v  -1.4995 8.0000 -9.1382
v  0.0000 8.0000 -13.7098
v  -1.4995 8.0000 -13.7098
v  0.0000 8.0000 -18.2815
v  -1.4995 8.0000 -18.2815
v  0.0000 8.0000 -22.8532
v  -1.4995 8.0000 -22.8532
v  0.0000 8.0000 -27.4250
v  -1.4995 8.0000 -27.4250
v  0.0000 0.0000 27.4322
v  0.0000 0.0000 32.0000
v  1.5005 0.0000 32.0000
v  0.0000 0.0000 22.8611
v  -1.4995 0.0000 22.8611
v  0.0000 0.0000 18.2899
v  -1.4995 0.0000 18.2899
v  0.0000 0.0000 13.7188
v  -1.4995 0.0000 13.7188
v  0.0000 0.0000 9.1475
v  -1.4995 0.0000 9.1475
v  0.0000 0.0000 4.5761
v  -1.4995 0.0000 4.5761
v  0.0000 0.0000 0.0047
v  -1.4995 0.0000 0.0047
v  0.0000 0.0000 -4.5667
v  -1.4995 0.0000 -4.5668
v  0.0000 0.0000 -9.1383
v  -1.4995 0.0000 -9.1383
v  0.0000 0.0000 -13.7099
v  -1.4995 0.0000 -13.7099
v  0.0000 0.0000 -18.2815
v  -1.4995 0.0000 -18.2815
v  0.0000 0.0000 -22.8532
v  -1.4995 0.0000 -22.8532
v  0.0000 0.0000 -27.4250
v  0.0000 0.0000 -32.0000
v  1.5005 0.0000 -32.0000
v  3.5000 7.0000 -29.7130
v  3.5000 8.0000 -29.7130
v  1.5005 8.0000 -29.7130
v  1.5005 7.0000 -29.7130
v  -3.5000 8.0000 -29.7130
v  -3.5000 7.0000 -29.7130
v  0.0000 8.0000 -29.7130
v  0.0000 7.0000 -29.7130
v  -1.4995 8.0000 -29.7130
v  -1.4995 7.0000 -29.7130
# 285 vertices

vn 1.0000 0.0000 -0.0000
vn -1.0000 0.0000 -0.0000
vn 0.0000 1.0000 -0.0000
vn 0.0000 -1.0000 -0.0000
vn 0.0000 0.0000 1.0000
vn 0.0000 0.0000 -1.0000
# 6 vertex normals

vt 0.0000 0.0000 0.0000
vt 0.3834 0.0000 0.0000
vt 0.3834 0.0675 0.0000
vt 0.0000 0.0675 0.0000
vt 0.3834 0.1350 0.0000
vt 0.0000 0.1350 0.0000
vt 0.3834 0.2028 0.0000
vt 0.0000 0.2028 0.0000
vt 0.3834 0.2703 0.0000
vt 0.0000 0.2703 0.0000
vt 0.3834 0.3378 0.0000
vt 0.0000 0.3378 0.0000
vt 0.3834 0.4053 0.0000
vt 0.0000 0.4053 0.0000
vt 0.3834 0.4730 0.0000
vt 0.0000 0.4730 0.0000
vt 0.3834 0.5406 0.0000
vt 0.0000 0.5406 0.0000
vt 0.3834 0.6081 0.0000
vt 0.0000 0.6081 0.0000
vt 0.3834 0.6756 0.0000
vt 0.0000 0.6756 0.0000
vt 0.3834 0.7433 0.0000
vt 0.0000 0.7433 0.0000
vt 0.3834 0.8108 0.0000
vt 0.0000 0.8108 0.0000
vt 0.3834 0.8784 0.0000
vt 0.0000 0.8784 0.0000
vt 0.3834 0.9459 0.0000
vt 0.0000 0.9459 0.0000
vt 0.9658 -0.0014 0.0000
vt 0.9268 -0.0014 0.0000
vt 0.9268 0.3322 0.0000
vt 0.9658 0.3322 0.0000
vt 0.0274 1.0000 0.0000
vt -0.0000 1.0000 0.0000
vt -0.0000 0.7916 0.0000
vt 0.0274 0.7916 0.0000
vt 0.0547 1.0000 0.0000
vt 0.0547 0.7916 0.0000
vt 0.0821 1.0000 0.0000
vt 0.0821 0.7916 0.0000
vt 0.1095 1.0000 0.0000
vt 0.1095 0.7916 0.0000
vt 0.1369 1.0000 0.0000
vt 0.1369 0.7916 0.0000
vt 0.1642 1.0000 0.0000
vt 0.1642 0.7916 0.0000
vt 0.1916 1.0000 0.0000
vt 0.1916 0.7916 0.0000
vt 0.2190 1.0000 0.0000
vt 0.2190 0.7916 0.0000
vt 0.2463 1.0000 0.0000
vt 0.2463 0.7916 0.0000
vt 0.2737 1.0000 0.0000
vt 0.2737 0.7916 0.0000
vt 0.3011 1.0000 0.0000
vt 0.3011 0.7916 0.0000
vt 0.3285 1.0000 0.0000
vt 0.3285 0.7916 0.0000
vt 0.3558 1.0000 0.0000
vt 0.3558 0.7916 0.0000
vt 0.3832 1.0000 0.0000
vt 0.3832 0.7916 0.0000
vt 0.0274 0.8181 0.0000
vt -0.0000 0.8181 0.0000
vt 0.0547 0.1818 0.0000
vt 0.0547 0.0000 0.0000
vt 0.0274 0.0000 0.0000
vt 0.0274 0.1818 0.0000
vt 0.0821 0.1818 0.0000
vt 0.0821 0.0000 0.0000
vt 0.1095 0.1818 0.0000
vt 0.1095 0.0000 0.0000
vt 0.1369 0.1818 0.0000
vt 0.1369 0.0000 0.0000
vt 0.1642 0.1818 0.0000
vt 0.1642 0.0000 0.0000
vt 0.1916 0.1818 0.0000
vt 0.1916 0.0000 0.0000
vt 0.2190 0.1818 0.0000
vt 0.2190 0.0000 0.0000
vt 0.2463 0.1818 0.0000
vt 0.2463 0.0000 0.0000
vt 0.2737 0.1818 0.0000
vt 0.2737 0.0000 0.0000
vt 0.3011 0.1818 0.0000
vt 0.3011 0.0000 0.0000
vt 0.3285 0.1818 0.0000
vt 0.3285 0.0000 0.0000
vt 0.3558 0.1818 0.0000
vt 0.3558 0.0000 0.0000
vt 0.3558 0.8181 0.0000
vt 0.3832 0.8181 0.0000
vt 0.9658 0.3665 0.0000
vt 0.9658 0.3309 0.0000
vt 0.9268 0.3326 0.0000
vt 0.9268 0.3682 0.0000
vt 0.9658 0.3326 0.0000
vt 0.9658 0.6649 0.0000
vt 0.9268 0.6649 0.0000
vt 0.9268 0.3309 0.0000
vt 0.9352 0.5950 0.0000
vt 0.9658 0.5448 0.0000
vt 0.9268 0.6663 0.0000
vt 0.9268 0.5950 0.0000
vt 0.9658 0.6663 0.0000
vt 0.9268 0.6659 0.0000
vt 0.9658 0.6659 0.0000
vt 0.9658 0.9287 0.0000
vt 0.9268 0.8786 0.0000
vt 0.7510 0.0714 0.0000
vt 0.7510 0.0000 0.0000
vt 0.6645 0.0000 0.0000
vt 0.6645 0.0714 0.0000
vt 0.4920 0.0714 0.0000
vt 0.4026 0.0714 0.0000
vt 0.4026 0.1429 0.0000
vt 0.4920 0.1429 0.0000
vt 0.4026 0.2143 0.0000
vt 0.4920 0.2143 0.0000
vt 0.4026 0.2857 0.0000
vt 0.4920 0.2857 0.0000
vt 0.4026 0.3571 0.0000
vt 0.4920 0.3571 0.0000
vt 0.4026 0.4286 0.0000
vt 0.4920 0.4286 0.0000
vt 0.4026 0.5000 0.0000
vt 0.4920 0.5000 0.0000
vt 0.4026 0.5714 0.0000
vt 0.4920 0.5714 0.0000
vt 0.4026 0.6429 0.0000
vt 0.4920 0.6429 0.0000
vt 0.4026 0.7143 0.0000
vt 0.4920 0.7143 0.0000
vt 0.4026 0.7857 0.0000
vt 0.4920 0.7857 0.0000
vt 0.4026 0.8571 0.0000
vt 0.4920 0.8571 0.0000
vt 0.4026 0.9286 0.0000
vt 0.4920 0.9286 0.0000
vt 0.7510 1.0000 0.0000
vt 0.7510 0.9286 0.0000
vt 0.6645 0.9286 0.0000
vt 0.6645 1.0000 0.0000
vt 0.0274 0.5000 0.0000
vt -0.0000 0.5000 0.0000
vt -0.0000 0.2083 0.0000
vt 0.0274 0.2083 0.0000
vt 0.0547 0.5000 0.0000
vt 0.0547 0.2083 0.0000
vt 0.0821 0.5000 0.0000
vt 0.0821 0.2083 0.0000
vt 0.1095 0.5000 0.0000
vt 0.1095 0.2083 0.0000
vt 0.1369 0.5000 0.0000
vt 0.1369 0.2083 0.0000
vt 0.1642 0.5000 0.0000
vt 0.1642 0.2083 0.0000
vt 0.1916 0.5000 0.0000
vt 0.1916 0.2083 0.0000
vt 0.2190 0.5000 0.0000
vt 0.2190 0.2083 0.0000
vt 0.2463 0.5000 0.0000
vt 0.2463 0.2083 0.0000
vt 0.2737 0.5000 0.0000
vt 0.2737 0.2083 0.0000
vt 0.3011 0.5000 0.0000
vt 0.3011 0.2083 0.0000
vt 0.3285 0.5000 0.0000
vt 0.3285 0.2083 0.0000
vt 0.3558 0.5000 0.0000
vt 0.3558 0.2083 0.0000
vt 0.3832 0.5000 0.0000
vt 0.3832 0.2083 0.0000
vt -0.0000 0.1818 0.0000
vt 0.0547 0.8181 0.0000
vt 0.0821 0.8181 0.0000
vt 0.1095 0.8181 0.0000
vt 0.1369 0.8181 0.0000
vt 0.1642 0.8181 0.0000
vt 0.1916 0.8181 0.0000
vt 0.2190 0.8181 0.0000
vt 0.2463 0.8181 0.0000
vt 0.2737 0.8181 0.0000
vt 0.3011 0.8181 0.0000
vt 0.3285 0.8181 0.0000
vt 0.3832 0.1818 0.0000
vt 0.9658 0.4977 0.0000
vt 0.9268 0.4995 0.0000
vt 0.9268 0.6307 0.0000
vt 0.9658 0.6289 0.0000
vt 0.5768 0.0714 0.0000
vt 0.5768 0.0000 0.0000
vt 0.4920 0.0000 0.0000
vt 0.5768 0.1429 0.0000
vt 0.6645 0.1429 0.0000
vt 0.5768 0.2143 0.0000
vt 0.6645 0.2143 0.0000
vt 0.5768 0.2857 0.0000
vt 0.6645 0.2857 0.0000
vt 0.5768 0.3571 0.0000
vt 0.6645 0.3571 0.0000
vt 0.5768 0.4286 0.0000
vt 0.6645 0.4286 0.0000
vt 0.5768 0.5000 0.0000
vt 0.6645 0.5000 0.0000
vt 0.5768 0.5714 0.0000
vt 0.6645 0.5714 0.0000
vt 0.5768 0.6429 0.0000
vt 0.6645 0.6429 0.0000
vt 0.5768 0.7143 0.0000
vt 0.6645 0.7143 0.0000
vt 0.5768 0.7857 0.0000
vt 0.6645 0.7857 0.0000
vt 0.5768 0.8571 0.0000
vt 0.6645 0.8571 0.0000
vt 0.5768 0.9286 0.0000
vt 0.5768 1.0000 0.0000
vt 0.4920 1.0000 0.0000
vt 0.9658 1.0000 0.0000
vt 0.9268 1.0000 0.0000
vt -0.0000 0.0000 0.0000
vt 0.3832 0.0000 0.0000
vt 0.4026 0.0000 0.0000
vt 0.4026 1.0000 0.0000
vt 0.9658 0.6645 0.0000
vt 0.7510 0.1429 0.0000
vt 0.7510 0.2143 0.0000
vt 0.7510 0.2857 0.0000
vt 0.7510 0.3571 0.0000
vt 0.7510 0.4286 0.0000
vt 0.7510 0.5000 0.0000
vt 0.7510 0.5714 0.0000
vt 0.7510 0.6429 0.0000
vt 0.7510 0.7143 0.0000
vt 0.7510 0.7857 0.0000
vt 0.7510 0.8571 0.0000
vt 0.0471 0.9667 0.0000
vt 0.0045 0.9667 0.0000
vt 0.0045 0.7168 0.0000
vt 0.0471 0.7168 0.0000
vt 0.0471 0.9935 0.0000
vt 0.0471 0.9577 0.0000
vt 0.0045 0.9577 0.0000
vt 0.0045 0.9935 0.0000
vt 0.0219 0.9667 0.0000
vt 0.0219 0.7168 0.0000
vt 0.0089 0.7168 0.0000
vt 0.0089 0.9667 0.0000
vt 0.0045 0.5292 0.0000
vt 0.0471 0.5292 0.0000
vt 0.0219 0.5292 0.0000
vt 0.0089 0.5292 0.0000
vt 0.0045 0.3418 0.0000
vt 0.0471 0.3418 0.0000
vt 0.0219 0.3418 0.0000
vt 0.0089 0.3418 0.0000
vt 0.0045 0.0917 0.0000
vt 0.0471 0.0917 0.0000
vt 0.0219 0.0917 0.0000
vt 0.0089 0.0917 0.0000
# 262 texture coords

g Object005
s off
f 1/1/1 2/2/1 3/3/1 4/4/1 
f 4/4/1 3/3/1 5/5/1 6/6/1 
f 6/6/1 5/5/1 7/7/1 8/8/1 
f 8/8/1 7/7/1 9/9/1 10/10/1 
f 10/10/1 9/9/1 11/11/1 12/12/1 
f 12/12/1 11/11/1 13/13/1 14/14/1 
f 14/14/1 13/13/1 15/15/1 16/16/1 
f 16/16/1 15/15/1 17/17/1 18/18/1 
f 18/18/1 17/17/1 19/19/1 20/20/1 
f 20/20/1 19/19/1 21/21/1 22/22/1 
f 22/22/1 21/21/1 23/23/1 24/24/1 
f 24/24/1 23/23/1 25/25/1 26/26/1 
f 26/26/1 25/25/1 27/27/1 28/28/1 
f 28/28/1 27/27/1 29/29/1 30/30/1 
f 31/2/2 32/3/2 33/4/2 34/1/2 
f 32/3/2 35/5/2 36/6/2 33/4/2 
f 35/5/2 37/7/2 38/8/2 36/6/2 
f 37/7/2 39/9/2 40/10/2 38/8/2 
f 39/9/2 41/11/2 42/12/2 40/10/2 
f 41/11/2 43/13/2 44/14/2 42/12/2 
f 43/13/2 45/15/2 46/16/2 44/14/2 
f 45/15/2 47/17/2 48/18/2 46/16/2 
f 47/17/2 49/19/2 50/20/2 48/18/2 
f 49/19/2 51/21/2 52/22/2 50/20/2 
f 51/21/2 53/23/2 54/24/2 52/22/2 
f 53/23/2 55/25/2 56/26/2 54/24/2 
f 55/25/2 57/27/2 58/28/2 56/26/2 
f 57/27/2 59/29/2 60/30/2 58/28/2 
f 61/3/2 62/2/2 63/1/2 64/4/2 
f 65/5/2 61/3/2 64/4/2 66/6/2 
f 67/7/2 65/5/2 66/6/2 68/8/2 
f 69/9/2 67/7/2 68/8/2 70/10/2 
f 71/11/2 69/9/2 70/10/2 72/12/2 
f 73/13/2 71/11/2 72/12/2 74/14/2 
f 75/15/2 73/13/2 74/14/2 76/16/2 
f 77/17/2 75/15/2 76/16/2 78/18/2 
f 79/19/2 77/17/2 78/18/2 80/20/2 
f 81/21/2 79/19/2 80/20/2 82/22/2 
f 83/23/2 81/21/2 82/22/2 84/24/2 
f 85/25/2 83/23/2 84/24/2 86/26/2 
f 87/27/2 85/25/2 86/26/2 88/28/2 
f 89/31/2 90/32/2 91/33/2 92/34/2 
f 93/33/1 94/32/1 95/31/1 96/34/1 
f 97/6/1 98/5/1 99/3/1 100/4/1 
f 101/8/1 102/7/1 98/5/1 97/6/1 
f 103/10/1 104/9/1 102/7/1 101/8/1 
f 105/12/1 106/11/1 104/9/1 103/10/1 
f 107/14/1 108/13/1 106/11/1 105/12/1 
f 109/16/1 110/15/1 108/13/1 107/14/1 
f 111/18/1 112/17/1 110/15/1 109/16/1 
f 113/20/1 114/19/1 112/17/1 111/18/1 
f 115/22/1 116/21/1 114/19/1 113/20/1 
f 117/24/1 118/23/1 116/21/1 115/22/1 
f 119/26/1 120/25/1 118/23/1 117/24/1 
f 121/28/1 122/27/1 120/25/1 119/26/1 
f 123/30/1 124/29/1 122/27/1 121/28/1 
f 58/35/3 60/36/3 125/37/3 126/38/3 
f 56/39/3 58/35/3 126/38/3 127/40/3 
f 54/41/3 56/39/3 127/40/3 128/42/3 
f 52/43/3 54/41/3 128/42/3 129/44/3 
f 50/45/3 52/43/3 129/44/3 130/46/3 
f 48/47/3 50/45/3 130/46/3 131/48/3 
f 46/49/3 48/47/3 131/48/3 132/50/3 
f 44/51/3 46/49/3 132/50/3 133/52/3 
f 42/53/3 44/51/3 133/52/3 134/54/3 
f 40/55/3 42/53/3 134/54/3 135/56/3 
f 38/57/3 40/55/3 135/56/3 136/58/3 
f 36/59/3 38/57/3 136/58/3 137/60/3 
f 33/61/3 36/59/3 137/60/3 138/62/3 
f 34/63/3 33/61/3 138/62/3 139/64/3 
f 123/36/4 121/35/4 140/65/4 141/66/4 
f 142/67/4 66/68/4 64/69/4 143/70/4 
f 144/71/4 68/72/4 66/68/4 142/67/4 
f 145/73/4 70/74/4 68/72/4 144/71/4 
f 146/75/4 72/76/4 70/74/4 145/73/4 
f 147/77/4 74/78/4 72/76/4 146/75/4 
f 148/79/4 76/80/4 74/78/4 147/77/4 
f 149/81/4 78/82/4 76/80/4 148/79/4 
f 150/83/4 80/84/4 78/82/4 149/81/4 
f 151/85/4 82/86/4 80/84/4 150/83/4 
f 152/87/4 84/88/4 82/86/4 151/85/4 
f 153/89/4 86/90/4 84/88/4 152/87/4 
f 154/91/4 88/92/4 86/90/4 153/89/4 
f 155/61/3 156/93/3 157/94/3 158/63/3 
f 159/95/4 92/96/4 91/97/4 160/98/4 
f 91/97/5 90/32/5 87/31/5 161/99/5 
f 93/100/5 155/101/5 99/102/5 94/96/5 
f 162/103/5 156/104/5 93/105/5 163/106/5 
f 156/104/5 155/107/5 93/105/5 
f 164/108/5 165/109/5 160/110/5 166/111/5 
f 92/97/6 167/99/6 168/31/6 89/32/6 
f 96/100/6 95/96/6 169/102/6 158/101/6 
f 96/105/6 158/107/6 157/104/6 
f 157/104/6 170/106/6 96/105/6 
f 159/110/6 171/109/6 172/108/6 173/111/6 
f 122/112/3 124/113/3 174/114/3 175/115/3 
f 176/116/3 61/117/3 65/118/3 177/119/3 
f 177/119/3 65/118/3 67/120/3 178/121/3 
f 178/121/3 67/120/3 69/122/3 179/123/3 
f 179/123/3 69/122/3 71/124/3 180/125/3 
f 180/125/3 71/124/3 73/126/3 181/127/3 
f 181/127/3 73/126/3 75/128/3 182/129/3 
f 182/129/3 75/128/3 77/130/3 183/131/3 
f 183/131/3 77/130/3 79/132/3 184/133/3 
f 184/133/3 79/132/3 81/134/3 185/135/3 
f 185/135/3 81/134/3 83/136/3 186/137/3 
f 186/137/3 83/136/3 85/138/3 187/139/3 
f 187/139/3 85/138/3 87/140/3 188/141/3 
f 169/142/3 99/143/3 189/144/3 190/145/3 
f 191/146/3 192/147/3 193/148/3 194/149/3 
f 195/150/3 191/146/3 194/149/3 196/151/3 
f 197/152/3 195/150/3 196/151/3 198/153/3 
f 199/154/3 197/152/3 198/153/3 200/155/3 
f 201/156/3 199/154/3 200/155/3 202/157/3 
f 203/158/3 201/156/3 202/157/3 204/159/3 
f 205/160/3 203/158/3 204/159/3 206/161/3 
f 207/162/3 205/160/3 206/161/3 208/163/3 
f 209/164/3 207/162/3 208/163/3 210/165/3 
f 211/166/3 209/164/3 210/165/3 212/167/3 
f 213/168/3 211/166/3 212/167/3 214/169/3 
f 215/170/3 213/168/3 214/169/3 216/171/3 
f 217/172/3 215/170/3 216/171/3 218/173/3 
f 219/174/3 217/172/3 218/173/3 220/175/3 
f 221/147/4 222/146/4 143/70/4 223/176/4 
f 224/150/4 222/146/4 140/65/4 225/177/4 
f 226/152/4 224/150/4 225/177/4 227/178/4 
f 228/154/4 226/152/4 227/178/4 229/179/4 
f 230/156/4 228/154/4 229/179/4 231/180/4 
f 232/158/4 230/156/4 231/180/4 233/181/4 
f 234/160/4 232/158/4 233/181/4 235/182/4 
f 236/162/4 234/160/4 235/182/4 237/183/4 
f 238/164/4 236/162/4 237/183/4 239/184/4 
f 240/166/4 238/164/4 239/184/4 241/185/4 
f 242/168/4 240/166/4 241/185/4 243/186/4 
f 244/170/4 242/168/4 243/186/4 245/187/4 
f 246/172/4 244/170/4 245/187/4 247/93/4 
f 166/91/3 172/174/3 164/172/3 
f 172/174/3 166/91/3 173/188/3 
f 171/189/4 165/190/4 163/191/4 170/192/4 
f 248/193/3 249/194/3 250/195/3 176/116/3 
f 248/193/3 251/196/3 252/197/3 175/115/3 
f 251/196/3 253/198/3 254/199/3 252/197/3 
f 253/198/3 255/200/3 256/201/3 254/199/3 
f 255/200/3 257/202/3 258/203/3 256/201/3 
f 257/202/3 259/204/3 260/205/3 258/203/3 
f 259/204/3 261/206/3 262/207/3 260/205/3 
f 261/206/3 263/208/3 264/209/3 262/207/3 
f 263/208/3 265/210/3 266/211/3 264/209/3 
f 265/210/3 267/212/3 268/213/3 266/211/3 
f 267/212/3 269/214/3 270/215/3 268/213/3 
f 269/214/3 271/216/3 272/217/3 270/215/3 
f 271/216/3 273/218/3 189/144/3 272/217/3 
f 274/219/3 273/218/3 188/141/3 275/220/3 
f 142/67/4 143/70/4 222/146/4 224/150/4 
f 144/71/4 142/67/4 224/150/4 226/152/4 
f 145/73/4 144/71/4 226/152/4 228/154/4 
f 146/75/4 145/73/4 228/154/4 230/156/4 
f 147/77/4 146/75/4 230/156/4 232/158/4 
f 148/79/4 147/77/4 232/158/4 234/160/4 
f 149/81/4 148/79/4 234/160/4 236/162/4 
f 150/83/4 149/81/4 236/162/4 238/164/4 
f 151/85/4 150/83/4 238/164/4 240/166/4 
f 152/87/4 151/85/4 240/166/4 242/168/4 
f 153/89/4 152/87/4 242/168/4 244/170/4 
f 154/91/4 153/89/4 244/170/4 246/172/4 
f 159/95/4 160/98/4 165/190/4 171/189/4 
f 91/221/5 161/222/5 166/111/5 160/110/5 
f 92/221/6 159/110/6 173/111/6 167/222/6 
f 176/116/3 177/119/3 251/196/3 248/193/3 
f 177/119/3 178/121/3 253/198/3 251/196/3 
f 178/121/3 179/123/3 255/200/3 253/198/3 
f 179/123/3 180/125/3 257/202/3 255/200/3 
f 180/125/3 181/127/3 259/204/3 257/202/3 
f 181/127/3 182/129/3 261/206/3 259/204/3 
f 182/129/3 183/131/3 263/208/3 261/206/3 
f 183/131/3 184/133/3 265/210/3 263/208/3 
f 184/133/3 185/135/3 267/212/3 265/210/3 
f 185/135/3 186/137/3 269/214/3 267/212/3 
f 186/137/3 187/139/3 271/216/3 269/214/3 
f 187/139/3 188/141/3 273/218/3 271/216/3 
f 194/149/3 193/148/3 1/223/3 4/69/3 
f 196/151/3 194/149/3 4/69/3 6/68/3 
f 198/153/3 196/151/3 6/68/3 8/72/3 
f 200/155/3 198/153/3 8/72/3 10/74/3 
f 202/157/3 200/155/3 10/74/3 12/76/3 
f 204/159/3 202/157/3 12/76/3 14/78/3 
f 206/161/3 204/159/3 14/78/3 16/80/3 
f 208/163/3 206/161/3 16/80/3 18/82/3 
f 210/165/3 208/163/3 18/82/3 20/84/3 
f 212/167/3 210/165/3 20/84/3 22/86/3 
f 214/169/3 212/167/3 22/86/3 24/88/3 
f 216/171/3 214/169/3 24/88/3 26/90/3 
f 218/173/3 216/171/3 26/90/3 28/92/3 
f 220/175/3 218/173/3 28/92/3 30/224/3 
f 223/176/4 143/70/4 64/69/4 63/223/4 
f 166/91/3 167/224/3 173/188/3 
f 167/224/3 166/91/3 161/92/3 
f 176/116/3 250/195/3 62/225/3 61/117/3 
f 275/220/3 188/141/3 87/140/3 168/226/3 
f 126/38/3 125/37/3 192/147/3 191/146/3 
f 127/40/3 126/38/3 191/146/3 195/150/3 
f 128/42/3 127/40/3 195/150/3 197/152/3 
f 129/44/3 128/42/3 197/152/3 199/154/3 
f 130/46/3 129/44/3 199/154/3 201/156/3 
f 131/48/3 130/46/3 201/156/3 203/158/3 
f 132/50/3 131/48/3 203/158/3 205/160/3 
f 133/52/3 132/50/3 205/160/3 207/162/3 
f 134/54/3 133/52/3 207/162/3 209/164/3 
f 135/56/3 134/54/3 209/164/3 211/166/3 
f 136/58/3 135/56/3 211/166/3 213/168/3 
f 137/60/3 136/58/3 213/168/3 215/170/3 
f 138/62/3 137/60/3 215/170/3 217/172/3 
f 139/64/3 138/62/3 217/172/3 219/174/3 
f 141/66/4 140/65/4 222/146/4 221/147/4 
f 156/93/3 164/172/3 172/174/3 157/94/3 
f 165/33/5 164/34/5 162/103/5 163/106/5 
f 162/103/5 164/34/5 156/104/5 
f 171/33/6 170/106/6 157/104/6 
f 157/104/6 172/34/6 171/33/6 
f 175/115/3 174/114/3 249/194/3 248/193/3 
f 190/145/3 189/144/3 273/218/3 274/219/3 
f 225/177/4 140/65/4 121/35/4 119/39/4 
f 227/178/4 225/177/4 119/39/4 117/41/4 
f 229/179/4 227/178/4 117/41/4 115/43/4 
f 231/180/4 229/179/4 115/43/4 113/45/4 
f 233/181/4 231/180/4 113/45/4 111/47/4 
f 235/182/4 233/181/4 111/47/4 109/49/4 
f 237/183/4 235/182/4 109/49/4 107/51/4 
f 239/184/4 237/183/4 107/51/4 105/53/4 
f 241/185/4 239/184/4 105/53/4 103/55/4 
f 243/186/4 241/185/4 103/55/4 101/57/4 
f 245/187/4 243/186/4 101/57/4 97/59/4 
f 247/93/4 245/187/4 97/59/4 100/61/4 
f 170/192/4 163/191/4 93/105/4 96/227/4 
f 175/115/3 252/197/3 120/228/3 122/112/3 
f 252/197/3 254/199/3 118/229/3 120/228/3 
f 254/199/3 256/201/3 116/230/3 118/229/3 
f 256/201/3 258/203/3 114/231/3 116/230/3 
f 258/203/3 260/205/3 112/232/3 114/231/3 
f 260/205/3 262/207/3 110/233/3 112/232/3 
f 262/207/3 264/209/3 108/234/3 110/233/3 
f 264/209/3 266/211/3 106/235/3 108/234/3 
f 266/211/3 268/213/3 104/236/3 106/235/3 
f 268/213/3 270/215/3 102/237/3 104/236/3 
f 270/215/3 272/217/3 98/238/3 102/237/3 
f 272/217/3 189/144/3 99/143/3 98/238/3 
f 276/239/5 277/240/5 278/241/5 279/242/5 
f 276/243/2 161/244/2 88/245/2 277/246/2 
f 88/247/4 154/248/4 278/249/4 277/250/4 
f 280/246/1 100/245/1 155/244/1 281/243/1 
f 278/241/5 282/251/5 283/252/5 279/242/5 
f 154/248/4 246/253/4 282/254/4 278/249/4 
f 282/251/5 284/255/5 285/256/5 283/252/5 
f 246/253/4 247/257/4 284/258/4 282/254/4 
f 284/255/5 280/259/5 281/260/5 285/256/5 
f 247/257/4 100/261/4 280/262/4 284/258/4 
# 246 polygons - 10 triangles

