# 3ds Max Wavefront OBJ Exporter v0.97b - (c)2007 guruware
# File Created: 08.09.2018 22:56:15

#
# object Object009
#

v  2.5000 0.0000 32.0000
v  2.5000 0.0000 27.4322
v  -3.5000 0.0000 27.4322
v  -3.5000 0.0000 32.0000
v  2.5000 0.0000 22.8611
v  -3.5000 0.0000 22.8611
v  2.5000 0.0000 18.2899
v  -3.5000 0.0000 18.2899
v  2.5000 0.0000 13.7188
v  -3.5000 0.0000 13.7188
v  2.5000 0.0000 9.1475
v  -3.5000 0.0000 9.1475
v  2.5000 0.0000 4.5761
v  -3.5000 0.0000 4.5761
v  2.5000 0.0000 0.0047
v  -3.5000 0.0000 0.0047
v  2.5000 0.0000 -4.5667
v  -3.5000 0.0000 -4.5668
v  2.5000 0.0000 -9.1383
v  -3.5000 0.0000 -9.1383
v  2.5000 0.0000 -13.7099
v  -3.5000 0.0000 -13.7099
v  2.5000 0.0000 -18.2815
v  -3.5000 0.0000 -18.2815
v  2.5000 0.0000 -22.8532
v  -3.5000 0.0000 -22.8532
v  2.5000 0.0000 -27.4250
v  -3.5000 0.0000 -27.4250
v  2.5000 0.0000 -32.0000
v  -3.5000 0.0000 -32.0000
# 30 vertices

vn 0.0000 1.0000 -0.0000
# 1 vertex normals

vt 0.1363 0.0000 0.0000
vt 0.1363 0.0714 0.0000
vt 1.0036 0.0714 0.0000
vt 1.0036 0.0000 0.0000
vt 0.1363 0.1429 0.0000
vt 1.0036 0.1429 0.0000
vt 0.1363 0.2143 0.0000
vt 1.0036 0.2143 0.0000
vt 0.1363 0.2857 0.0000
vt 1.0036 0.2857 0.0000
vt 0.1363 0.3571 0.0000
vt 1.0036 0.3571 0.0000
vt 0.1363 0.4286 0.0000
vt 1.0036 0.4286 0.0000
vt 0.1363 0.5000 0.0000
vt 1.0036 0.5000 0.0000
vt 0.1363 0.5714 0.0000
vt 1.0036 0.5714 0.0000
vt 0.1363 0.6429 0.0000
vt 1.0036 0.6429 0.0000
vt 0.1363 0.7143 0.0000
vt 1.0036 0.7143 0.0000
vt 0.1363 0.7857 0.0000
vt 1.0036 0.7857 0.0000
vt 0.1363 0.8571 0.0000
vt 1.0036 0.8571 0.0000
vt 0.1363 0.9286 0.0000
vt 1.0036 0.9286 0.0000
vt 0.1363 1.0000 0.0000
vt 1.0036 1.0000 0.0000
# 30 texture coords

g Object009
s off
f 1/1/1 2/2/1 3/3/1 4/4/1 
f 5/5/1 6/6/1 3/3/1 2/2/1 
f 7/7/1 8/8/1 6/6/1 5/5/1 
f 9/9/1 10/10/1 8/8/1 7/7/1 
f 11/11/1 12/12/1 10/10/1 9/9/1 
f 13/13/1 14/14/1 12/12/1 11/11/1 
f 15/15/1 16/16/1 14/14/1 13/13/1 
f 17/17/1 18/18/1 16/16/1 15/15/1 
f 19/19/1 20/20/1 18/18/1 17/17/1 
f 21/21/1 22/22/1 20/20/1 19/19/1 
f 23/23/1 24/24/1 22/22/1 21/21/1 
f 25/25/1 26/26/1 24/24/1 23/23/1 
f 27/27/1 28/28/1 26/26/1 25/25/1 
f 27/27/1 29/29/1 30/30/1 28/28/1 
# 14 polygons

