# 3ds Max Wavefront OBJ Exporter v0.97b - (c)2007 guruware
# File Created: 08.09.2018 19:33:03

#
# object Box002
#

v  -6.0000 1.0000 4.5714
v  -5.7000 1.0000 4.5714
v  -5.7000 1.0000 -0.0000
v  -6.0000 1.0000 -0.0000
v  -1.5000 -4.0000 4.5714
v  -6.0000 -4.0000 4.5714
v  -6.0000 -4.0000 -0.0000
v  -1.5000 -4.0000 -0.0000
v  6.0000 0.0000 4.5714
v  6.0000 -4.0000 4.5714
v  6.0000 -4.0000 -0.0000
v  6.0000 0.0000 -0.0000
v  -6.0000 0.0000 -4.5714
v  -6.0000 -4.0000 -4.5714
v  -6.0000 0.0000 -0.0000
v  -5.7000 0.0000 4.5714
v  -1.5000 0.0000 4.5714
v  -1.5000 0.0000 -0.0000
v  -5.7000 0.0000 -0.0000
v  5.7000 1.0000 4.5714
v  6.0000 1.0000 4.5714
v  6.0000 1.0000 -0.0000
v  5.7000 1.0000 -0.0000
v  1.5000 -4.0000 -4.5714
v  6.0000 -4.0000 -4.5714
v  1.5000 -4.0000 -0.0000
v  1.5000 0.0000 4.5714
v  5.7000 0.0000 4.5714
v  5.7000 0.0000 -0.0000
v  1.5000 0.0000 -0.0000
v  0.0000 -4.0000 -4.5714
v  0.0000 -4.0000 -0.0000
v  0.0000 0.0000 4.5714
v  0.0000 0.0000 -0.0000
v  -6.0000 1.0000 -27.4286
v  -5.7000 1.0000 -27.4286
v  -5.7000 1.0000 -32.0000
v  -6.0000 1.0000 -32.0000
v  -6.0000 1.0000 -22.8571
v  -5.7000 1.0000 -22.8571
v  -6.0000 1.0000 -18.2857
v  -5.7000 1.0000 -18.2857
v  -6.0000 1.0000 -13.7143
v  -5.7000 1.0000 -13.7143
v  -6.0000 1.0000 -9.1429
v  -5.7000 1.0000 -9.1429
v  -6.0000 1.0000 -4.5714
v  -5.7000 1.0000 -4.5714
v  -5.7000 1.0000 27.4286
v  -6.0000 1.0000 27.4286
v  -6.0000 1.0000 32.0000
v  -5.7000 1.0000 32.0000
v  -5.7000 1.0000 22.8571
v  -6.0000 1.0000 22.8571
v  -5.7000 1.0000 18.2857
v  -6.0000 1.0000 18.2857
v  -5.7000 1.0000 13.7143
v  -6.0000 1.0000 13.7143
v  -5.7000 1.0000 9.1429
v  -6.0000 1.0000 9.1429
v  -1.5000 -4.0000 -27.4286
v  -6.0000 -4.0000 -27.4286
v  -6.0000 -4.0000 -32.0000
v  -1.5000 -4.0000 -32.0000
v  -1.5000 -4.0000 -22.8571
v  -6.0000 -4.0000 -22.8571
v  -1.5000 -4.0000 -18.2857
v  -6.0000 -4.0000 -18.2857
v  -1.5000 -4.0000 -13.7143
v  -6.0000 -4.0000 -13.7143
v  -1.5000 -4.0000 -9.1429
v  -6.0000 -4.0000 -9.1429
v  -1.5000 -4.0000 -4.5714
v  -6.0000 -4.0000 27.4286
v  -1.5000 -4.0000 27.4286
v  -1.5000 -4.0000 32.0000
v  -6.0000 -4.0000 32.0000
v  -6.0000 -4.0000 22.8571
v  -1.5000 -4.0000 22.8571
v  -6.0000 -4.0000 18.2857
v  -1.5000 -4.0000 18.2857
v  -6.0000 -4.0000 13.7143
v  -1.5000 -4.0000 13.7143
v  -6.0000 -4.0000 9.1429
v  -1.5000 -4.0000 9.1429
v  6.0000 0.0000 -27.4286
v  6.0000 -4.0000 -27.4286
v  6.0000 -4.0000 -32.0000
v  6.0000 0.0000 -32.0000
v  6.0000 0.0000 -22.8571
v  6.0000 -4.0000 -22.8571
v  6.0000 0.0000 -18.2857
v  6.0000 -4.0000 -18.2857
v  6.0000 0.0000 -13.7143
v  6.0000 -4.0000 -13.7143
v  6.0000 0.0000 -9.1429
v  6.0000 -4.0000 -9.1429
v  6.0000 0.0000 -4.5714
v  6.0000 -4.0000 27.4286
v  6.0000 0.0000 27.4286
v  6.0000 0.0000 32.0000
v  6.0000 -4.0000 32.0000
v  6.0000 -4.0000 22.8571
v  6.0000 0.0000 22.8571
v  6.0000 -4.0000 18.2857
v  6.0000 0.0000 18.2857
v  6.0000 -4.0000 13.7143
v  6.0000 0.0000 13.7143
v  6.0000 -4.0000 9.1429
v  6.0000 0.0000 9.1429
v  -6.0000 0.0000 27.4286
v  -6.0000 0.0000 32.0000
v  -6.0000 0.0000 22.8571
v  -6.0000 0.0000 18.2857
v  -6.0000 0.0000 13.7143
v  -6.0000 0.0000 9.1429
v  -6.0000 0.0000 4.5714
v  -6.0000 0.0000 -27.4286
v  -6.0000 0.0000 -32.0000
v  -6.0000 0.0000 -22.8571
v  -6.0000 0.0000 -18.2857
v  -6.0000 0.0000 -13.7143
v  -6.0000 0.0000 -9.1429
v  -5.7000 0.0000 -27.4286
v  -1.5000 0.0000 -27.4286
v  -1.5000 0.0000 -32.0000
v  -5.7000 0.0000 -32.0000
v  -5.7000 0.0000 -22.8571
v  -1.5000 0.0000 -22.8571
v  -5.7000 0.0000 -18.2857
v  -1.5000 0.0000 -18.2857
v  -5.7000 0.0000 -13.7143
v  -1.5000 0.0000 -13.7143
v  -5.7000 0.0000 -9.1429
v  -1.5000 0.0000 -9.1429
v  -5.7000 0.0000 -4.5714
v  -1.5000 0.0000 -4.5714
v  -1.5000 0.0000 27.4286
v  -5.7000 0.0000 27.4286
v  -5.7000 0.0000 32.0000
v  -1.5000 0.0000 32.0000
v  -1.5000 0.0000 22.8571
v  -5.7000 0.0000 22.8571
v  -1.5000 0.0000 18.2857
v  -5.7000 0.0000 18.2857
v  -1.5000 0.0000 13.7143
v  -5.7000 0.0000 13.7143
v  -1.5000 0.0000 9.1429
v  -5.7000 0.0000 9.1429
v  5.7000 1.0000 -27.4286
v  6.0000 1.0000 -27.4286
v  6.0000 1.0000 -32.0000
v  5.7000 1.0000 -32.0000
v  5.7000 1.0000 -22.8571
v  6.0000 1.0000 -22.8571
v  5.7000 1.0000 -18.2857
v  6.0000 1.0000 -18.2857
v  5.7000 1.0000 -13.7143
v  6.0000 1.0000 -13.7143
v  5.7000 1.0000 -9.1429
v  6.0000 1.0000 -9.1429
v  5.7000 1.0000 -4.5714
v  6.0000 1.0000 -4.5714
v  6.0000 1.0000 27.4286
v  5.7000 1.0000 27.4286
v  5.7000 1.0000 32.0000
v  6.0000 1.0000 32.0000
v  6.0000 1.0000 22.8571
v  5.7000 1.0000 22.8571
v  6.0000 1.0000 18.2857
v  5.7000 1.0000 18.2857
v  6.0000 1.0000 13.7143
v  5.7000 1.0000 13.7143
v  6.0000 1.0000 9.1429
v  5.7000 1.0000 9.1429
v  1.5000 -4.0000 27.4286
v  1.5000 -4.0000 32.0000
v  1.5000 -4.0000 22.8571
v  1.5000 -4.0000 18.2857
v  1.5000 -4.0000 13.7143
v  1.5000 -4.0000 9.1429
v  1.5000 -4.0000 4.5714
v  1.5000 -4.0000 -27.4286
v  1.5000 -4.0000 -32.0000
v  1.5000 -4.0000 -22.8571
v  1.5000 -4.0000 -18.2857
v  1.5000 -4.0000 -13.7143
v  1.5000 -4.0000 -9.1429
v  1.5000 0.0000 -27.4286
v  5.7000 0.0000 -27.4286
v  5.7000 0.0000 -32.0000
v  1.5000 0.0000 -32.0000
v  1.5000 0.0000 -22.8571
v  5.7000 0.0000 -22.8571
v  1.5000 0.0000 -18.2857
v  5.7000 0.0000 -18.2857
v  1.5000 0.0000 -13.7143
v  5.7000 0.0000 -13.7143
v  1.5000 0.0000 -9.1429
v  5.7000 0.0000 -9.1429
v  1.5000 0.0000 -4.5714
v  5.7000 0.0000 -4.5714
v  5.7000 0.0000 27.4286
v  1.5000 0.0000 27.4286
v  1.5000 0.0000 32.0000
v  5.7000 0.0000 32.0000
v  5.7000 0.0000 22.8571
v  1.5000 0.0000 22.8571
v  5.7000 0.0000 18.2857
v  1.5000 0.0000 18.2857
v  5.7000 0.0000 13.7143
v  1.5000 0.0000 13.7143
v  5.7000 0.0000 9.1429
v  1.5000 0.0000 9.1429
v  0.0000 -4.0000 27.4286
v  0.0000 -4.0000 32.0000
v  0.0000 -4.0000 22.8571
v  0.0000 -4.0000 18.2857
v  0.0000 -4.0000 13.7143
v  0.0000 -4.0000 9.1429
v  0.0000 -4.0000 4.5714
v  0.0000 -4.0000 -27.4286
v  0.0000 -4.0000 -32.0000
v  0.0000 -4.0000 -22.8571
v  0.0000 -4.0000 -18.2857
v  0.0000 -4.0000 -13.7143
v  0.0000 -4.0000 -9.1429
v  0.0000 0.0000 -27.4286
v  0.0000 0.0000 -32.0000
v  0.0000 0.0000 -22.8571
v  0.0000 0.0000 -18.2857
v  0.0000 0.0000 -13.7143
v  0.0000 0.0000 -9.1429
v  0.0000 0.0000 -4.5714
v  0.0000 0.0000 27.4286
v  0.0000 0.0000 32.0000
v  0.0000 0.0000 22.8571
v  0.0000 0.0000 18.2857
v  0.0000 0.0000 13.7143
v  0.0000 0.0000 9.1429
# 240 vertices

vn 0.0000 1.0000 -0.0000
vn 0.0000 -1.0000 -0.0000
vn 1.0000 0.0000 -0.0000
vn -1.0000 0.0000 -0.0000
vn 0.0000 0.0000 1.0000
vn 0.0000 0.0000 -1.0000
# 6 vertex normals

vt 1.0000 0.4286 0.0000
vt 0.9750 0.4286 0.0000
vt 0.9750 0.5000 0.0000
vt 1.0000 0.5000 0.0000
vt 0.1250 0.4286 0.0000
vt 0.0000 0.4286 0.0000
vt 0.0000 0.5000 0.0000
vt 0.1250 0.5000 0.0000
vt 0.4286 0.0000 0.0000
vt 0.4286 1.0000 0.0000
vt 0.5000 1.0000 0.0000
vt 0.5000 0.0000 0.0000
vt 0.8750 0.4286 0.0000
vt 0.8750 0.5000 0.0000
vt 0.0250 0.4286 0.0000
vt 0.0250 0.5000 0.0000
vt 0.8750 0.5714 0.0000
vt 1.0000 0.5714 0.0000
vt 0.5000 0.5714 0.0000
vt 0.5000 0.5000 0.0000
vt 0.5000 0.4286 0.0000
vt 1.0000 0.9286 0.0000
vt 0.9750 0.9286 0.0000
vt 0.9750 1.0000 0.0000
vt 1.0000 1.0000 0.0000
vt 1.0000 0.8571 0.0000
vt 0.9750 0.8571 0.0000
vt 1.0000 0.7857 0.0000
vt 0.9750 0.7857 0.0000
vt 1.0000 0.7143 0.0000
vt 0.9750 0.7143 0.0000
vt 1.0000 0.6429 0.0000
vt 0.9750 0.6429 0.0000
vt 0.9750 0.5714 0.0000
vt 0.9750 0.0714 0.0000
vt 1.0000 0.0714 0.0000
vt 1.0000 0.0000 0.0000
vt 0.9750 0.0000 0.0000
vt 0.9750 0.1429 0.0000
vt 1.0000 0.1429 0.0000
vt 0.9750 0.2143 0.0000
vt 1.0000 0.2143 0.0000
vt 0.9750 0.2857 0.0000
vt 1.0000 0.2857 0.0000
vt 0.9750 0.3571 0.0000
vt 1.0000 0.3571 0.0000
vt 0.1250 0.9286 0.0000
vt 0.0000 0.9286 0.0000
vt 0.0000 1.0000 0.0000
vt 0.1250 1.0000 0.0000
vt 0.1250 0.8571 0.0000
vt 0.0000 0.8571 0.0000
vt 0.1250 0.7857 0.0000
vt 0.0000 0.7857 0.0000
vt 0.1250 0.7143 0.0000
vt 0.0000 0.7143 0.0000
vt 0.1250 0.6429 0.0000
vt 0.0000 0.6429 0.0000
vt 0.1250 0.5714 0.0000
vt 0.0000 0.5714 0.0000
vt 0.0000 0.0714 0.0000
vt 0.1250 0.0714 0.0000
vt 0.1250 0.0000 0.0000
vt 0.0000 0.0000 0.0000
vt 0.0000 0.1429 0.0000
vt 0.1250 0.1429 0.0000
vt 0.0000 0.2143 0.0000
vt 0.1250 0.2143 0.0000
vt 0.0000 0.2857 0.0000
vt 0.1250 0.2857 0.0000
vt 0.0000 0.3571 0.0000
vt 0.1250 0.3571 0.0000
vt 0.9286 0.0000 0.0000
vt 0.9286 1.0000 0.0000
vt 0.8571 0.0000 0.0000
vt 0.8571 1.0000 0.0000
vt 0.7857 0.0000 0.0000
vt 0.7857 1.0000 0.0000
vt 0.7143 0.0000 0.0000
vt 0.7143 1.0000 0.0000
vt 0.6429 0.0000 0.0000
vt 0.6429 1.0000 0.0000
vt 0.5714 0.0000 0.0000
vt 0.5714 1.0000 0.0000
vt 0.0714 1.0000 0.0000
vt 0.0714 0.0000 0.0000
vt 0.1429 1.0000 0.0000
vt 0.1429 0.0000 0.0000
vt 0.2143 1.0000 0.0000
vt 0.2143 0.0000 0.0000
vt 0.2857 1.0000 0.0000
vt 0.2857 0.0000 0.0000
vt 0.3571 1.0000 0.0000
vt 0.3571 0.0000 0.0000
vt 0.8750 0.9286 0.0000
vt 0.8750 1.0000 0.0000
vt 0.8750 0.8571 0.0000
vt 0.8750 0.7857 0.0000
vt 0.8750 0.7143 0.0000
vt 0.8750 0.6429 0.0000
vt 0.8750 0.0714 0.0000
vt 0.8750 0.0000 0.0000
vt 0.8750 0.1429 0.0000
vt 0.8750 0.2143 0.0000
vt 0.8750 0.2857 0.0000
vt 0.8750 0.3571 0.0000
vt 0.0250 0.9286 0.0000
vt 0.0250 1.0000 0.0000
vt 0.0250 0.8571 0.0000
vt 0.0250 0.7857 0.0000
vt 0.0250 0.7143 0.0000
vt 0.0250 0.6429 0.0000
vt 0.0250 0.5714 0.0000
vt 0.0250 0.0714 0.0000
vt 0.0250 0.0000 0.0000
vt 0.0250 0.1429 0.0000
vt 0.0250 0.2143 0.0000
vt 0.0250 0.2857 0.0000
vt 0.0250 0.3571 0.0000
vt 0.5000 0.0714 0.0000
vt 0.5000 0.1429 0.0000
vt 0.5000 0.2143 0.0000
vt 0.5000 0.2857 0.0000
vt 0.5000 0.3571 0.0000
vt 0.5000 0.9286 0.0000
vt 0.5000 0.8571 0.0000
vt 0.5000 0.7857 0.0000
vt 0.5000 0.7143 0.0000
vt 0.5000 0.6429 0.0000
# 129 texture coords

g Box002
s 2
f 1/1/1 2/2/1 3/3/1 4/4/1 
s 4
f 5/5/2 6/6/2 7/7/2 8/8/2 
s 16
f 9/9/3 10/10/3 11/11/3 12/12/3 
s 64
f 13/9/4 14/10/4 7/11/4 15/12/4 
s 2
f 16/2/1 17/13/1 18/14/1 19/3/1 
f 20/15/1 21/6/1 22/7/1 23/16/1 
s 4
f 24/17/2 25/18/2 11/4/2 26/14/2 
s 2
f 27/5/1 28/15/1 29/16/1 30/8/1 
s 4
f 31/19/2 24/17/2 26/14/2 32/20/2 
s 2
f 33/21/1 27/5/1 30/8/1 34/20/1 
f 35/22/1 36/23/1 37/24/1 38/25/1 
f 39/26/1 40/27/1 36/23/1 35/22/1 
f 41/28/1 42/29/1 40/27/1 39/26/1 
f 43/30/1 44/31/1 42/29/1 41/28/1 
f 45/32/1 46/33/1 44/31/1 43/30/1 
f 47/18/1 48/34/1 46/33/1 45/32/1 
f 4/4/1 3/3/1 48/34/1 47/18/1 
f 49/35/1 50/36/1 51/37/1 52/38/1 
f 53/39/1 54/40/1 50/36/1 49/35/1 
f 55/41/1 56/42/1 54/40/1 53/39/1 
f 57/43/1 58/44/1 56/42/1 55/41/1 
f 59/45/1 60/46/1 58/44/1 57/43/1 
f 2/2/1 1/1/1 60/46/1 59/45/1 
s 4
f 61/47/2 62/48/2 63/49/2 64/50/2 
f 65/51/2 66/52/2 62/48/2 61/47/2 
f 67/53/2 68/54/2 66/52/2 65/51/2 
f 69/55/2 70/56/2 68/54/2 67/53/2 
f 71/57/2 72/58/2 70/56/2 69/55/2 
f 73/59/2 14/60/2 72/58/2 71/57/2 
f 8/8/2 7/7/2 14/60/2 73/59/2 
f 74/61/2 75/62/2 76/63/2 77/64/2 
f 78/65/2 79/66/2 75/62/2 74/61/2 
f 80/67/2 81/68/2 79/66/2 78/65/2 
f 82/69/2 83/70/2 81/68/2 80/67/2 
f 84/71/2 85/72/2 83/70/2 82/69/2 
f 6/6/2 5/5/2 85/72/2 84/71/2 
s 16
f 86/73/3 87/74/3 88/25/3 89/37/3 
f 90/75/3 91/76/3 87/74/3 86/73/3 
f 92/77/3 93/78/3 91/76/3 90/75/3 
f 94/79/3 95/80/3 93/78/3 92/77/3 
f 96/81/3 97/82/3 95/80/3 94/79/3 
f 98/83/3 25/84/3 97/82/3 96/81/3 
f 12/12/3 11/11/3 25/84/3 98/83/3 
f 99/85/3 100/86/3 101/64/3 102/49/3 
f 103/87/3 104/88/3 100/86/3 99/85/3 
f 105/89/3 106/90/3 104/88/3 103/87/3 
f 107/91/3 108/92/3 106/90/3 105/89/3 
f 109/93/3 110/94/3 108/92/3 107/91/3 
f 10/10/3 9/9/3 110/94/3 109/93/3 
s 64
f 111/73/4 74/74/4 77/25/4 112/37/4 
f 113/75/4 78/76/4 74/74/4 111/73/4 
f 114/77/4 80/78/4 78/76/4 113/75/4 
f 115/79/4 82/80/4 80/78/4 114/77/4 
f 116/81/4 84/82/4 82/80/4 115/79/4 
f 117/83/4 6/84/4 84/82/4 116/81/4 
f 15/12/4 7/11/4 6/84/4 117/83/4 
f 62/85/4 118/86/4 119/64/4 63/49/4 
f 66/87/4 120/88/4 118/86/4 62/85/4 
f 68/89/4 121/90/4 120/88/4 66/87/4 
f 70/91/4 122/92/4 121/90/4 68/89/4 
f 72/93/4 123/94/4 122/92/4 70/91/4 
f 14/10/4 13/9/4 123/94/4 72/93/4 
s 2
f 124/23/1 125/95/1 126/96/1 127/24/1 
f 128/27/1 129/97/1 125/95/1 124/23/1 
f 130/29/1 131/98/1 129/97/1 128/27/1 
f 132/31/1 133/99/1 131/98/1 130/29/1 
f 134/33/1 135/100/1 133/99/1 132/31/1 
f 136/34/1 137/17/1 135/100/1 134/33/1 
f 19/3/1 18/14/1 137/17/1 136/34/1 
f 138/101/1 139/35/1 140/38/1 141/102/1 
f 142/103/1 143/39/1 139/35/1 138/101/1 
f 144/104/1 145/41/1 143/39/1 142/103/1 
f 146/105/1 147/43/1 145/41/1 144/104/1 
f 148/106/1 149/45/1 147/43/1 146/105/1 
f 17/13/1 16/2/1 149/45/1 148/106/1 
f 150/107/1 151/48/1 152/49/1 153/108/1 
f 154/109/1 155/52/1 151/48/1 150/107/1 
f 156/110/1 157/54/1 155/52/1 154/109/1 
f 158/111/1 159/56/1 157/54/1 156/110/1 
f 160/112/1 161/58/1 159/56/1 158/111/1 
f 162/113/1 163/60/1 161/58/1 160/112/1 
f 23/16/1 22/7/1 163/60/1 162/113/1 
f 164/61/1 165/114/1 166/115/1 167/64/1 
f 168/65/1 169/116/1 165/114/1 164/61/1 
f 170/67/1 171/117/1 169/116/1 168/65/1 
f 172/69/1 173/118/1 171/117/1 170/67/1 
f 174/71/1 175/119/1 173/118/1 172/69/1 
f 21/6/1 20/15/1 175/119/1 174/71/1 
s 4
f 176/101/2 99/36/2 102/37/2 177/102/2 
f 178/103/2 103/40/2 99/36/2 176/101/2 
f 179/104/2 105/42/2 103/40/2 178/103/2 
f 180/105/2 107/44/2 105/42/2 179/104/2 
f 181/106/2 109/46/2 107/44/2 180/105/2 
f 182/13/2 10/1/2 109/46/2 181/106/2 
f 26/14/2 11/4/2 10/1/2 182/13/2 
f 87/22/2 183/95/2 184/96/2 88/25/2 
f 91/26/2 185/97/2 183/95/2 87/22/2 
f 93/28/2 186/98/2 185/97/2 91/26/2 
f 95/30/2 187/99/2 186/98/2 93/28/2 
f 97/32/2 188/100/2 187/99/2 95/30/2 
f 25/18/2 24/17/2 188/100/2 97/32/2 
s 2
f 189/47/1 190/107/1 191/108/1 192/50/1 
f 193/51/1 194/109/1 190/107/1 189/47/1 
f 195/53/1 196/110/1 194/109/1 193/51/1 
f 197/55/1 198/111/1 196/110/1 195/53/1 
f 199/57/1 200/112/1 198/111/1 197/55/1 
f 201/59/1 202/113/1 200/112/1 199/57/1 
f 30/8/1 29/16/1 202/113/1 201/59/1 
f 203/114/1 204/62/1 205/63/1 206/115/1 
f 207/116/1 208/66/1 204/62/1 203/114/1 
f 209/117/1 210/68/1 208/66/1 207/116/1 
f 211/118/1 212/70/1 210/68/1 209/117/1 
f 213/119/1 214/72/1 212/70/1 211/118/1 
f 28/15/1 27/5/1 214/72/1 213/119/1 
s 4
f 215/120/2 176/101/2 177/102/2 216/12/2 
f 217/121/2 178/103/2 176/101/2 215/120/2 
f 218/122/2 179/104/2 178/103/2 217/121/2 
f 219/123/2 180/105/2 179/104/2 218/122/2 
f 220/124/2 181/106/2 180/105/2 219/123/2 
f 221/21/2 182/13/2 181/106/2 220/124/2 
f 32/20/2 26/14/2 182/13/2 221/21/2 
f 222/125/2 61/47/2 64/50/2 223/11/2 
f 224/126/2 65/51/2 61/47/2 222/125/2 
f 225/127/2 67/53/2 65/51/2 224/126/2 
f 226/128/2 69/55/2 67/53/2 225/127/2 
f 227/129/2 71/57/2 69/55/2 226/128/2 
f 31/19/2 73/59/2 71/57/2 227/129/2 
s 2
f 228/125/1 189/47/1 192/50/1 229/11/1 
f 230/126/1 193/51/1 189/47/1 228/125/1 
f 231/127/1 195/53/1 193/51/1 230/126/1 
f 232/128/1 197/55/1 195/53/1 231/127/1 
f 233/129/1 199/57/1 197/55/1 232/128/1 
f 234/19/1 201/59/1 199/57/1 233/129/1 
f 34/20/1 30/8/1 201/59/1 234/19/1 
f 235/120/1 138/101/1 141/102/1 236/12/1 
f 237/121/1 142/103/1 138/101/1 235/120/1 
f 238/122/1 144/104/1 142/103/1 237/121/1 
f 239/123/1 146/105/1 144/104/1 238/122/1 
f 240/124/1 148/106/1 146/105/1 239/123/1 
f 33/21/1 17/13/1 148/106/1 240/124/1 
s 4
f 31/19/2 32/20/2 8/8/2 73/59/2 
s 2
f 33/21/1 34/20/1 18/14/1 17/13/1 
s 4
f 215/120/2 216/12/2 76/63/2 75/62/2 
f 217/121/2 215/120/2 75/62/2 79/66/2 
f 218/122/2 217/121/2 79/66/2 81/68/2 
f 219/123/2 218/122/2 81/68/2 83/70/2 
f 220/124/2 219/123/2 83/70/2 85/72/2 
f 221/21/2 220/124/2 85/72/2 5/5/2 
f 32/20/2 221/21/2 5/5/2 8/8/2 
f 222/125/2 223/11/2 184/96/2 183/95/2 
f 224/126/2 222/125/2 183/95/2 185/97/2 
f 225/127/2 224/126/2 185/97/2 186/98/2 
f 226/128/2 225/127/2 186/98/2 187/99/2 
f 227/129/2 226/128/2 187/99/2 188/100/2 
f 31/19/2 227/129/2 188/100/2 24/17/2 
s 2
f 228/125/1 229/11/1 126/96/1 125/95/1 
f 230/126/1 228/125/1 125/95/1 129/97/1 
f 231/127/1 230/126/1 129/97/1 131/98/1 
f 232/128/1 231/127/1 131/98/1 133/99/1 
f 233/129/1 232/128/1 133/99/1 135/100/1 
f 234/19/1 233/129/1 135/100/1 137/17/1 
f 34/20/1 234/19/1 137/17/1 18/14/1 
f 235/120/1 236/12/1 205/63/1 204/62/1 
f 237/121/1 235/120/1 204/62/1 208/66/1 
f 238/122/1 237/121/1 208/66/1 210/68/1 
f 239/123/1 238/122/1 210/68/1 212/70/1 
f 240/124/1 239/123/1 212/70/1 214/72/1 
f 33/21/1 240/124/1 214/72/1 27/5/1 
s off
f 52/38/5 51/37/5 112/37/5 140/38/5 
f 49/35/3 52/38/3 140/38/3 139/35/3 
f 53/39/3 49/35/3 139/35/3 143/39/3 
f 55/41/3 53/39/3 143/39/3 145/41/3 
f 57/43/3 55/41/3 145/41/3 147/43/3 
f 59/45/3 57/43/3 147/43/3 149/45/3 
f 2/2/3 59/45/3 149/45/3 16/2/3 
f 3/3/3 2/2/3 16/2/3 19/3/3 
f 48/34/3 3/3/3 19/3/3 136/34/3 
f 46/33/3 48/34/3 136/34/3 134/33/3 
f 44/31/3 46/33/3 134/33/3 132/31/3 
f 42/29/3 44/31/3 132/31/3 130/29/3 
f 40/27/3 42/29/3 130/29/3 128/27/3 
f 36/23/3 40/27/3 128/27/3 124/23/3 
f 37/24/3 36/23/3 124/23/3 127/24/3 
f 38/25/6 37/24/6 127/24/6 119/25/6 
f 35/22/4 38/25/4 119/25/4 118/22/4 
f 39/26/4 35/22/4 118/22/4 120/26/4 
f 41/28/4 39/26/4 120/26/4 121/28/4 
f 43/30/4 41/28/4 121/28/4 122/30/4 
f 45/32/4 43/30/4 122/30/4 123/32/4 
f 47/18/4 45/32/4 123/32/4 13/18/4 
f 4/4/4 47/18/4 13/18/4 15/4/4 
f 1/1/4 4/4/4 15/4/4 117/1/4 
f 60/46/4 1/1/4 117/1/4 116/46/4 
f 58/44/4 60/46/4 116/46/4 115/44/4 
f 56/42/4 58/44/4 115/44/4 114/42/4 
f 54/40/4 56/42/4 114/42/4 113/40/4 
f 50/36/4 54/40/4 113/40/4 111/36/4 
f 51/37/4 50/36/4 111/36/4 112/37/4 
f 164/61/3 167/64/3 101/64/3 100/61/3 
f 168/65/3 164/61/3 100/61/3 104/65/3 
f 170/67/3 168/65/3 104/65/3 106/67/3 
f 172/69/3 170/67/3 106/67/3 108/69/3 
f 174/71/3 172/69/3 108/69/3 110/71/3 
f 21/6/3 174/71/3 110/71/3 9/6/3 
f 22/7/3 21/6/3 9/6/3 12/7/3 
f 163/60/3 22/7/3 12/7/3 98/60/3 
f 161/58/3 163/60/3 98/60/3 96/58/3 
f 159/56/3 161/58/3 96/58/3 94/56/3 
f 157/54/3 159/56/3 94/56/3 92/54/3 
f 155/52/3 157/54/3 92/54/3 90/52/3 
f 151/48/3 155/52/3 90/52/3 86/48/3 
f 152/49/3 151/48/3 86/48/3 89/49/3 
f 153/108/6 152/49/6 89/49/6 191/108/6 
f 150/107/4 153/108/4 191/108/4 190/107/4 
f 154/109/4 150/107/4 190/107/4 194/109/4 
f 156/110/4 154/109/4 194/109/4 196/110/4 
f 158/111/4 156/110/4 196/110/4 198/111/4 
f 160/112/4 158/111/4 198/111/4 200/112/4 
f 162/113/4 160/112/4 200/112/4 202/113/4 
f 23/16/4 162/113/4 202/113/4 29/16/4 
f 20/15/4 23/16/4 29/16/4 28/15/4 
f 175/119/4 20/15/4 28/15/4 213/119/4 
f 173/118/4 175/119/4 213/119/4 211/118/4 
f 171/117/4 173/118/4 211/118/4 209/117/4 
f 169/116/4 171/117/4 209/117/4 207/116/4 
f 165/114/4 169/116/4 207/116/4 203/114/4 
f 166/115/4 165/114/4 203/114/4 206/115/4 
f 167/64/5 166/115/5 206/115/5 101/64/5 
# 228 polygons

