# 3ds Max Wavefront OBJ Exporter v0.97b - (c)2007 guruware
# File Created: 08.07.2017 16:23:55

#
# object Elevated_Station_Pavement
#

v  7.9250 -0.3000 -0.0000
v  6.5000 -0.3000 -0.0000
v  6.5000 -0.3000 5.3333
v  7.9250 -0.3000 5.3333
v  -6.5000 -0.3000 -0.0000
v  0.0000 -0.3000 -0.0000
v  0.0000 -0.3000 -5.3333
v  -6.5000 -0.3000 -5.3333
v  -7.9250 -0.3000 -0.0000
v  -7.9250 -0.3000 -5.3333
v  7.9250 -0.3000 -32.0000
v  6.5000 -0.3000 -32.0000
v  6.5000 -0.3000 -26.6667
v  7.9250 -0.3000 -26.6667
v  6.5000 -0.3000 -21.3333
v  7.9250 -0.3000 -21.3333
v  6.5000 -0.3000 -16.0000
v  7.9250 -0.3000 -16.0000
v  6.5000 -0.3000 -10.6667
v  7.9250 -0.3000 -10.6667
v  6.5000 -0.3000 -5.3333
v  7.9250 -0.3000 -5.3333
v  6.5000 -0.3000 32.0000
v  7.9250 -0.3000 32.0000
v  7.9250 -0.3000 26.6667
v  6.5000 -0.3000 26.6667
v  7.9250 -0.3000 21.3333
v  6.5000 -0.3000 21.3333
v  7.9250 -0.3000 16.0000
v  6.5000 -0.3000 16.0000
v  7.9250 -0.3000 10.6667
v  6.5000 -0.3000 10.6667
v  -6.5000 -0.3000 32.0000
v  0.0000 -0.3000 32.0000
v  0.0000 -0.3000 26.6667
v  -6.5000 -0.3000 26.6667
v  0.0000 -0.3000 21.3333
v  -6.5000 -0.3000 21.3333
v  0.0000 -0.3000 16.0000
v  -6.5000 -0.3000 16.0000
v  0.0000 -0.3000 10.6667
v  -6.5000 -0.3000 10.6667
v  0.0000 -0.3000 5.3333
v  -6.5000 -0.3000 5.3333
v  0.0000 -0.3000 -32.0000
v  0.0000 -0.3000 -26.6667
v  0.0000 -0.3000 -21.3333
v  0.0000 -0.3000 -16.0000
v  0.0000 -0.3000 -10.6667
v  -7.9250 -0.3000 32.0000
v  -7.9250 -0.3000 26.6667
v  -7.9250 -0.3000 21.3333
v  -7.9250 -0.3000 16.0000
v  -7.9250 -0.3000 10.6667
v  -7.9250 -0.3000 5.3333
v  -6.5000 -0.3000 -32.0000
v  -7.9250 -0.3000 -32.0000
v  -7.9250 -0.3000 -26.6667
v  -6.5000 -0.3000 -26.6667
v  -7.9250 -0.3000 -21.3333
v  -6.5000 -0.3000 -21.3333
v  -7.9250 -0.3000 -16.0000
v  -6.5000 -0.3000 -16.0000
v  -7.9250 -0.3000 -10.6667
v  -6.5000 -0.3000 -10.6667
v  -7.2500 -1.1500 -32.0000
v  -7.2500 -1.1500 -26.6667
v  -7.7500 -1.1500 -26.6667
v  -7.7500 -1.1500 -32.0000
v  -7.2500 -1.1500 -21.3333
v  -7.7500 -1.1500 -21.3333
v  -7.2500 -1.1500 -16.0000
v  -7.7500 -1.1500 -16.0000
v  -7.2500 -1.1500 -10.6667
v  -7.7500 -1.1500 -10.6667
v  -7.2500 -1.1500 -5.3333
v  -7.7500 -1.1500 -5.3333
v  -7.2500 -1.1500 -0.0000
v  -7.7500 -1.1500 -0.0000
v  -7.2500 -1.1500 5.3333
v  -7.7500 -1.1500 5.3333
v  -7.2500 -1.1500 10.6667
v  -7.7500 -1.1500 10.6667
v  -7.2500 -1.1500 16.0000
v  -7.7500 -1.1500 16.0000
v  -7.2500 -1.1500 21.3333
v  -7.7500 -1.1500 21.3333
v  -7.2500 -1.1500 26.6667
v  -7.7500 -1.1500 26.6667
v  -7.2500 -1.1500 32.0000
v  -7.7500 -1.1500 32.0000
v  -7.7500 -1.0000 -26.6667
v  -7.7500 -1.0000 -32.0000
v  -7.7500 -1.0000 -21.3333
v  -7.7500 -1.0000 -16.0000
v  -7.7500 -1.0000 -10.6667
v  -7.7500 -1.0000 -5.3333
v  -7.7500 -1.0000 -0.0000
v  -7.7500 -1.0000 5.3333
v  -7.7500 -1.0000 10.6667
v  -7.7500 -1.0000 16.0000
v  -7.7500 -1.0000 21.3333
v  -7.7500 -1.0000 26.6667
v  -7.7500 -1.0000 32.0000
v  7.2500 -1.1500 32.0000
v  7.2500 -1.1500 26.6667
v  7.7500 -1.1500 26.6667
v  7.7500 -1.1500 32.0000
v  7.2500 -1.1500 21.3333
v  7.7500 -1.1500 21.3333
v  7.2500 -1.1500 16.0000
v  7.7500 -1.1500 16.0000
v  7.2500 -1.1500 10.6667
v  7.7500 -1.1500 10.6667
v  7.2500 -1.1500 5.3333
v  7.7500 -1.1500 5.3333
v  7.2500 -1.1500 -0.0000
v  7.7500 -1.1500 -0.0000
v  7.2500 -1.1500 -5.3333
v  7.7500 -1.1500 -5.3333
v  7.2500 -1.1500 -10.6667
v  7.7500 -1.1500 -10.6667
v  7.2500 -1.1500 -16.0000
v  7.7500 -1.1500 -16.0000
v  7.2500 -1.1500 -21.3333
v  7.7500 -1.1500 -21.3333
v  7.2500 -1.1500 -26.6667
v  7.7500 -1.1500 -26.6667
v  7.2500 -1.1500 -32.0000
v  7.7500 -1.1500 -32.0000
v  7.7500 -1.0000 26.6667
v  7.7500 -1.0000 32.0000
v  7.7500 -1.0000 21.3333
v  7.7500 -1.0000 16.0000
v  7.7500 -1.0000 10.6667
v  7.7500 -1.0000 5.3333
v  7.7500 -1.0000 -0.0000
v  7.7500 -1.0000 -5.3333
v  7.7500 -1.0000 -10.6667
v  7.7500 -1.0000 -16.0000
v  7.7500 -1.0000 -21.3333
v  7.7500 -1.0000 -26.6667
v  7.7500 -1.0000 -32.0000
v  6.5000 -3.0000 26.6667
v  6.5000 -3.0000 32.0000
v  -6.5000 -3.0000 32.0000
v  -6.5000 -3.0000 26.6667
v  6.5000 -3.0000 21.3333
v  -6.5000 -3.0000 21.3333
v  6.5000 -3.0000 16.0000
v  -6.5000 -3.0000 16.0000
v  6.5000 -3.0000 10.6667
v  -6.5000 -3.0000 10.6667
v  6.5000 -3.0000 5.3333
v  -6.5000 -3.0000 5.3333
v  6.5000 -3.0000 -0.0000
v  -6.5000 -3.0000 -0.0000
v  6.5000 -3.0000 -5.3333
v  -6.5000 -3.0000 -5.3333
v  6.5000 -3.0000 -10.6667
v  -6.5000 -3.0000 -10.6667
v  6.5000 -3.0000 -16.0000
v  -6.5000 -3.0000 -16.0000
v  6.5000 -3.0000 -21.3333
v  -6.5000 -3.0000 -21.3333
v  6.5000 -3.0000 -26.6667
v  -6.5000 -3.0000 -26.6667
v  6.5000 -3.0000 -32.0000
v  -6.5000 -3.0000 -32.0000
# 169 vertices

vn 0.0000 1.0000 -0.0000
vn 0.0000 -1.0000 -0.0000
vn -1.0000 0.0000 -0.0000
vn -0.9701 -0.2425 -0.0000
vn 1.0000 0.0000 -0.0000
vn 0.9701 -0.2425 -0.0000
vn 0.9267 -0.3757 -0.0000
vn -0.9267 -0.3757 -0.0000
# 8 vertex normals

vt 0.8553 0.5000 0.0000
vt 1.0000 0.5000 0.0000
vt 1.0000 0.5833 0.0000
vt 0.8553 0.5833 0.0000
vt 0.0001 0.5000 0.0000
vt 0.1372 0.5000 0.0000
vt 0.1372 0.5833 0.0000
vt 0.0000 0.5833 0.0000
vt 0.8553 0.0001 0.0000
vt 1.0000 0.0001 0.0000
vt 1.0000 0.0834 0.0000
vt 0.8553 0.0834 0.0000
vt 1.0000 0.1667 0.0000
vt 0.8553 0.1667 0.0000
vt 1.0000 0.2500 0.0000
vt 0.8553 0.2500 0.0000
vt 1.0000 0.3334 0.0000
vt 0.8553 0.3334 0.0000
vt 1.0000 0.4167 0.0000
vt 0.8553 0.4167 0.0000
vt 1.0000 0.9999 0.0000
vt 0.8553 0.9999 0.0000
vt 0.8553 0.9166 0.0000
vt 1.0000 0.9166 0.0000
vt 0.8553 0.8333 0.0000
vt 1.0000 0.8333 0.0000
vt 0.8553 0.7500 0.0000
vt 1.0000 0.7500 0.0000
vt 0.8553 0.6666 0.0000
vt 1.0000 0.6666 0.0000
vt 0.0001 0.0000 0.0000
vt 0.1372 0.0000 0.0000
vt 0.1372 0.0833 0.0000
vt 0.0001 0.0833 0.0000
vt 0.1372 0.1667 0.0000
vt 0.0001 0.1667 0.0000
vt 0.1372 0.2500 0.0000
vt 0.0001 0.2500 0.0000
vt 0.1372 0.3333 0.0000
vt 0.0001 0.3333 0.0000
vt 0.1372 0.4167 0.0000
vt 0.0001 0.4167 0.0000
vt 0.0001 1.0000 0.0000
vt 0.1372 1.0000 0.0000
vt 0.1372 0.9167 0.0000
vt 0.0001 0.9167 0.0000
vt 0.1372 0.8333 0.0000
vt 0.0001 0.8333 0.0000
vt 0.1372 0.7500 0.0000
vt 0.0001 0.7500 0.0000
vt 0.1372 0.6667 0.0000
vt 0.0000 0.6667 0.0000
vt 0.8166 0.0000 0.0000
vt 0.8166 0.0833 0.0000
vt 0.7671 0.0833 0.0000
vt 0.7671 0.0000 0.0000
vt 0.8166 0.1667 0.0000
vt 0.7671 0.1667 0.0000
vt 0.8166 0.2500 0.0000
vt 0.7671 0.2500 0.0000
vt 0.8166 0.3333 0.0000
vt 0.7671 0.3333 0.0000
vt 0.8166 0.4167 0.0000
vt 0.7671 0.4167 0.0000
vt 0.8166 0.5000 0.0000
vt 0.7671 0.5000 0.0000
vt 0.8166 0.5833 0.0000
vt 0.7671 0.5833 0.0000
vt 0.8166 0.6667 0.0000
vt 0.7671 0.6667 0.0000
vt 0.8166 0.7500 0.0000
vt 0.7671 0.7500 0.0000
vt 0.8166 0.8333 0.0000
vt 0.7671 0.8333 0.0000
vt 0.8166 0.9167 0.0000
vt 0.7671 0.9167 0.0000
vt 0.8166 1.0000 0.0000
vt 0.7671 1.0000 0.0000
vt 0.6621 0.3353 0.0000
vt 0.5634 0.3353 0.0000
vt 0.5211 0.0020 0.0000
vt 0.6621 0.0020 0.0000
vt 0.6621 0.6686 0.0000
vt 0.5634 0.6686 0.0000
vt 0.6621 1.0019 0.0000
vt 0.5634 1.0019 0.0000
vt 0.5634 0.0020 0.0000
vt 0.5423 0.3353 0.0000
vt 0.5528 0.0020 0.0000
vt 0.5423 0.6686 0.0000
vt 0.5423 1.0019 0.0000
vt 0.9791 0.0833 0.0000
vt 0.9791 0.0000 0.0000
vt 0.8189 0.0000 0.0000
vt 0.8189 0.0833 0.0000
vt 0.9791 0.1667 0.0000
vt 0.8189 0.1667 0.0000
vt 0.9791 0.2500 0.0000
vt 0.8189 0.2500 0.0000
vt 0.9791 0.3333 0.0000
vt 0.8189 0.3333 0.0000
vt 0.9791 0.4167 0.0000
vt 0.8189 0.4167 0.0000
vt 0.9791 0.5000 0.0000
vt 0.8189 0.5000 0.0000
vt 0.9791 0.5833 0.0000
vt 0.8189 0.5833 0.0000
vt 0.9791 0.6667 0.0000
vt 0.8189 0.6667 0.0000
vt 0.9791 0.7500 0.0000
vt 0.8189 0.7500 0.0000
vt 0.9791 0.8333 0.0000
vt 0.8189 0.8333 0.0000
vt 0.9791 0.9167 0.0000
vt 0.8189 0.9167 0.0000
vt 0.9791 1.0000 0.0000
vt 0.8189 1.0000 0.0000
vt 0.7657 0.9167 0.0000
vt 0.6633 0.9167 0.0000
vt 0.6633 1.0000 0.0000
vt 0.7657 1.0000 0.0000
vt 0.7657 0.8333 0.0000
vt 0.6633 0.8333 0.0000
vt 0.7657 0.7500 0.0000
vt 0.6633 0.7500 0.0000
vt 0.7657 0.6667 0.0000
vt 0.6633 0.6667 0.0000
vt 0.7657 0.5833 0.0000
vt 0.6633 0.5833 0.0000
vt 0.7657 0.5000 0.0000
vt 0.6633 0.5000 0.0000
vt 0.7657 0.4167 0.0000
vt 0.6633 0.4167 0.0000
vt 0.7657 0.3333 0.0000
vt 0.6633 0.3333 0.0000
vt 0.7657 0.2500 0.0000
vt 0.6633 0.2500 0.0000
vt 0.7657 0.1667 0.0000
vt 0.6633 0.1667 0.0000
vt 0.7657 0.0833 0.0000
vt 0.6633 0.0833 0.0000
vt 0.7657 0.0000 0.0000
vt 0.6633 0.0000 0.0000
# 143 texture coords

g Elevated_Station_Pavement
s 1
f 1/1/1 2/2/1 3/3/1 
f 3/3/1 4/4/1 1/1/1 
f 5/5/1 6/6/1 7/7/1 
f 7/7/1 8/8/1 5/5/1 
f 9/1/1 5/2/1 8/3/1 
f 8/3/1 10/4/1 9/1/1 
f 11/9/1 12/10/1 13/11/1 
f 13/11/1 14/12/1 11/9/1 
f 14/12/1 13/11/1 15/13/1 
f 15/13/1 16/14/1 14/12/1 
f 16/14/1 15/13/1 17/15/1 
f 17/15/1 18/16/1 16/14/1 
f 18/16/1 17/15/1 19/17/1 
f 19/17/1 20/18/1 18/16/1 
f 20/18/1 19/17/1 21/19/1 
f 21/19/1 22/20/1 20/18/1 
f 22/20/1 21/19/1 2/2/1 
f 2/2/1 1/1/1 22/20/1 
f 23/21/1 24/22/1 25/23/1 
f 25/23/1 26/24/1 23/21/1 
f 26/24/1 25/23/1 27/25/1 
f 27/25/1 28/26/1 26/24/1 
f 28/26/1 27/25/1 29/27/1 
f 29/27/1 30/28/1 28/26/1 
f 30/28/1 29/27/1 31/29/1 
f 31/29/1 32/30/1 30/28/1 
f 32/30/1 31/29/1 4/4/1 
f 4/4/1 3/3/1 32/30/1 
f 33/31/1 34/32/1 35/33/1 
f 35/33/1 36/34/1 33/31/1 
f 36/34/1 35/33/1 37/35/1 
f 37/35/1 38/36/1 36/34/1 
f 38/36/1 37/35/1 39/37/1 
f 39/37/1 40/38/1 38/36/1 
f 40/38/1 39/37/1 41/39/1 
f 41/39/1 42/40/1 40/38/1 
f 42/40/1 41/39/1 43/41/1 
f 43/41/1 44/42/1 42/40/1 
f 44/42/1 43/41/1 6/6/1 
f 6/6/1 5/5/1 44/42/1 
f 12/43/1 45/44/1 46/45/1 
f 46/45/1 13/46/1 12/43/1 
f 13/46/1 46/45/1 47/47/1 
f 47/47/1 15/48/1 13/46/1 
f 15/48/1 47/47/1 48/49/1 
f 48/49/1 17/50/1 15/48/1 
f 17/50/1 48/49/1 49/51/1 
f 49/51/1 19/52/1 17/50/1 
f 19/52/1 49/51/1 7/7/1 
f 7/7/1 21/8/1 19/52/1 
f 50/9/1 33/10/1 36/11/1 
f 36/11/1 51/12/1 50/9/1 
f 51/12/1 36/11/1 38/13/1 
f 38/13/1 52/14/1 51/12/1 
f 52/14/1 38/13/1 40/15/1 
f 40/15/1 53/16/1 52/14/1 
f 53/16/1 40/15/1 42/17/1 
f 42/17/1 54/18/1 53/16/1 
f 54/18/1 42/17/1 44/19/1 
f 44/19/1 55/20/1 54/18/1 
f 55/20/1 44/19/1 5/2/1 
f 5/2/1 9/1/1 55/20/1 
f 56/21/1 57/22/1 58/23/1 
f 58/23/1 59/24/1 56/21/1 
f 59/24/1 58/23/1 60/25/1 
f 60/25/1 61/26/1 59/24/1 
f 61/26/1 60/25/1 62/27/1 
f 62/27/1 63/28/1 61/26/1 
f 63/28/1 62/27/1 64/29/1 
f 64/29/1 65/30/1 63/28/1 
f 65/30/1 64/29/1 10/4/1 
f 10/4/1 8/3/1 65/30/1 
f 2/5/1 21/8/1 7/7/1 
f 7/7/1 6/6/1 2/5/1 
f 23/31/1 26/34/1 35/33/1 
f 35/33/1 34/32/1 23/31/1 
f 26/34/1 28/36/1 37/35/1 
f 37/35/1 35/33/1 26/34/1 
f 28/36/1 30/38/1 39/37/1 
f 39/37/1 37/35/1 28/36/1 
f 30/38/1 32/40/1 41/39/1 
f 41/39/1 39/37/1 30/38/1 
f 32/40/1 3/42/1 43/41/1 
f 43/41/1 41/39/1 32/40/1 
f 3/42/1 2/5/1 6/6/1 
f 6/6/1 43/41/1 3/42/1 
f 56/43/1 59/46/1 46/45/1 
f 46/45/1 45/44/1 56/43/1 
f 59/46/1 61/48/1 47/47/1 
f 47/47/1 46/45/1 59/46/1 
f 61/48/1 63/50/1 48/49/1 
f 48/49/1 47/47/1 61/48/1 
f 63/50/1 65/52/1 49/51/1 
f 49/51/1 48/49/1 63/50/1 
f 65/52/1 8/8/1 7/7/1 
f 7/7/1 49/51/1 65/52/1 
s 2
f 66/53/2 67/54/2 68/55/2 
f 68/55/2 69/56/2 66/53/2 
f 67/54/2 70/57/2 71/58/2 
f 71/58/2 68/55/2 67/54/2 
f 70/57/2 72/59/2 73/60/2 
f 73/60/2 71/58/2 70/57/2 
f 72/59/2 74/61/2 75/62/2 
f 75/62/2 73/60/2 72/59/2 
f 74/61/2 76/63/2 77/64/2 
f 77/64/2 75/62/2 74/61/2 
f 76/63/2 78/65/2 79/66/2 
f 79/66/2 77/64/2 76/63/2 
f 78/65/2 80/67/2 81/68/2 
f 81/68/2 79/66/2 78/65/2 
f 80/67/2 82/69/2 83/70/2 
f 83/70/2 81/68/2 80/67/2 
f 82/69/2 84/71/2 85/72/2 
f 85/72/2 83/70/2 82/69/2 
f 84/71/2 86/73/2 87/74/2 
f 87/74/2 85/72/2 84/71/2 
f 86/73/2 88/75/2 89/76/2 
f 89/76/2 87/74/2 86/73/2 
f 88/75/2 90/77/2 91/78/2 
f 91/78/2 89/76/2 88/75/2 
s off
f 69/78/3 68/76/3 92/75/3 
f 92/75/3 93/77/3 69/78/3 
f 68/76/3 71/74/3 94/73/3 
f 94/73/3 92/75/3 68/76/3 
f 71/74/3 73/72/3 95/71/3 
f 95/71/3 94/73/3 71/74/3 
f 73/72/3 75/70/3 96/69/3 
f 96/69/3 95/71/3 73/72/3 
f 75/70/3 77/68/3 97/67/3 
f 97/67/3 96/69/3 75/70/3 
f 77/68/3 79/66/3 98/65/3 
f 98/65/3 97/67/3 77/68/3 
f 79/66/3 81/64/3 99/63/3 
f 99/63/3 98/65/3 79/66/3 
f 81/64/3 83/62/3 100/61/3 
f 100/61/3 99/63/3 81/64/3 
f 83/62/3 85/60/3 101/59/3 
f 101/59/3 100/61/3 83/62/3 
f 85/60/3 87/58/3 102/57/3 
f 102/57/3 101/59/3 85/60/3 
f 87/58/3 89/55/3 103/54/3 
f 103/54/3 102/57/3 87/58/3 
f 89/55/3 91/56/3 104/53/3 
f 104/53/3 103/54/3 89/55/3 
s 16
f 92/79/4 58/80/4 57/81/4 
f 57/81/4 93/82/4 92/79/4 
f 94/83/4 60/84/4 58/80/4 
f 58/80/4 92/79/4 94/83/4 
f 95/85/4 62/86/4 60/84/4 
f 60/84/4 94/83/4 95/85/4 
f 96/79/4 64/80/4 62/87/4 
f 62/87/4 95/82/4 96/79/4 
f 97/83/4 10/84/4 64/80/4 
f 64/80/4 96/79/4 97/83/4 
f 98/85/4 9/86/4 10/84/4 
f 10/84/4 97/83/4 98/85/4 
f 99/79/4 55/80/4 9/87/4 
f 9/87/4 98/82/4 99/79/4 
f 100/83/4 54/84/4 55/80/4 
f 55/80/4 99/79/4 100/83/4 
f 101/85/4 53/86/4 54/84/4 
f 54/84/4 100/83/4 101/85/4 
f 102/79/4 52/80/4 53/87/4 
f 53/87/4 101/82/4 102/79/4 
f 103/83/4 51/84/4 52/80/4 
f 52/80/4 102/79/4 103/83/4 
f 104/85/4 50/86/4 51/84/4 
f 51/84/4 103/83/4 104/85/4 
s 2
f 105/53/2 106/54/2 107/55/2 
f 107/55/2 108/56/2 105/53/2 
f 106/54/2 109/57/2 110/58/2 
f 110/58/2 107/55/2 106/54/2 
f 109/57/2 111/59/2 112/60/2 
f 112/60/2 110/58/2 109/57/2 
f 111/59/2 113/61/2 114/62/2 
f 114/62/2 112/60/2 111/59/2 
f 113/61/2 115/63/2 116/64/2 
f 116/64/2 114/62/2 113/61/2 
f 115/63/2 117/65/2 118/66/2 
f 118/66/2 116/64/2 115/63/2 
f 117/65/2 119/67/2 120/68/2 
f 120/68/2 118/66/2 117/65/2 
f 119/67/2 121/69/2 122/70/2 
f 122/70/2 120/68/2 119/67/2 
f 121/69/2 123/71/2 124/72/2 
f 124/72/2 122/70/2 121/69/2 
f 123/71/2 125/73/2 126/74/2 
f 126/74/2 124/72/2 123/71/2 
f 125/73/2 127/75/2 128/76/2 
f 128/76/2 126/74/2 125/73/2 
f 127/75/2 129/77/2 130/78/2 
f 130/78/2 128/76/2 127/75/2 
s off
f 108/78/5 107/76/5 131/75/5 
f 131/75/5 132/77/5 108/78/5 
f 107/76/5 110/74/5 133/73/5 
f 133/73/5 131/75/5 107/76/5 
f 110/74/5 112/72/5 134/71/5 
f 134/71/5 133/73/5 110/74/5 
f 112/72/5 114/70/5 135/69/5 
f 135/69/5 134/71/5 112/72/5 
f 114/70/5 116/68/5 136/67/5 
f 136/67/5 135/69/5 114/70/5 
f 116/68/5 118/66/5 137/65/5 
f 137/65/5 136/67/5 116/68/5 
f 118/66/5 120/64/5 138/63/5 
f 138/63/5 137/65/5 118/66/5 
f 120/64/5 122/62/5 139/61/5 
f 139/61/5 138/63/5 120/64/5 
f 122/62/5 124/60/5 140/59/5 
f 140/59/5 139/61/5 122/62/5 
f 124/60/5 126/58/5 141/57/5 
f 141/57/5 140/59/5 124/60/5 
f 126/58/5 128/55/5 142/54/5 
f 142/54/5 141/57/5 126/58/5 
f 128/55/5 130/56/5 143/53/5 
f 143/53/5 142/54/5 128/55/5 
s 16
f 131/79/6 25/80/6 24/81/6 
f 24/81/6 132/82/6 131/79/6 
f 133/83/6 27/84/6 25/80/6 
f 25/80/6 131/79/6 133/83/6 
f 134/85/6 29/86/6 27/84/6 
f 27/84/6 133/83/6 134/85/6 
f 135/79/6 31/80/6 29/87/6 
f 29/87/6 134/82/6 135/79/6 
f 136/83/6 4/84/6 31/80/6 
f 31/80/6 135/79/6 136/83/6 
f 137/85/6 1/86/6 4/84/6 
f 4/84/6 136/83/6 137/85/6 
f 138/79/6 22/80/6 1/87/6 
f 1/87/6 137/82/6 138/79/6 
f 139/83/6 20/84/6 22/80/6 
f 22/80/6 138/79/6 139/83/6 
f 140/85/6 18/86/6 20/84/6 
f 20/84/6 139/83/6 140/85/6 
f 141/79/6 16/88/6 18/89/6 
f 18/89/6 140/82/6 141/79/6 
f 142/83/6 14/90/6 16/88/6 
f 16/88/6 141/79/6 142/83/6 
f 143/85/6 11/91/6 14/90/6 
f 14/90/6 142/83/6 143/85/6 
s off
f 144/92/2 145/93/2 146/94/2 
f 146/94/2 147/95/2 144/92/2 
f 148/96/2 144/92/2 147/95/2 
f 147/95/2 149/97/2 148/96/2 
f 150/98/2 148/96/2 149/97/2 
f 149/97/2 151/99/2 150/98/2 
f 152/100/2 150/98/2 151/99/2 
f 151/99/2 153/101/2 152/100/2 
f 154/102/2 152/100/2 153/101/2 
f 153/101/2 155/103/2 154/102/2 
f 156/104/2 154/102/2 155/103/2 
f 155/103/2 157/105/2 156/104/2 
f 158/106/2 156/104/2 157/105/2 
f 157/105/2 159/107/2 158/106/2 
f 160/108/2 158/106/2 159/107/2 
f 159/107/2 161/109/2 160/108/2 
f 162/110/2 160/108/2 161/109/2 
f 161/109/2 163/111/2 162/110/2 
f 164/112/2 162/110/2 163/111/2 
f 163/111/2 165/113/2 164/112/2 
f 166/114/2 164/112/2 165/113/2 
f 165/113/2 167/115/2 166/114/2 
f 168/116/2 166/114/2 167/115/2 
f 167/115/2 169/117/2 168/116/2 
f 144/118/7 106/119/7 105/120/7 
f 105/120/7 145/121/7 144/118/7 
f 148/122/7 109/123/7 106/119/7 
f 106/119/7 144/118/7 148/122/7 
f 150/124/7 111/125/7 109/123/7 
f 109/123/7 148/122/7 150/124/7 
f 152/126/7 113/127/7 111/125/7 
f 111/125/7 150/124/7 152/126/7 
f 154/128/7 115/129/7 113/127/7 
f 113/127/7 152/126/7 154/128/7 
f 156/130/7 117/131/7 115/129/7 
f 115/129/7 154/128/7 156/130/7 
f 158/132/7 119/133/7 117/131/7 
f 117/131/7 156/130/7 158/132/7 
f 160/134/7 121/135/7 119/133/7 
f 119/133/7 158/132/7 160/134/7 
f 162/136/7 123/137/7 121/135/7 
f 121/135/7 160/134/7 162/136/7 
f 164/138/7 125/139/7 123/137/7 
f 123/137/7 162/136/7 164/138/7 
f 166/140/7 127/141/7 125/139/7 
f 125/139/7 164/138/7 166/140/7 
f 168/142/7 129/143/7 127/141/7 
f 127/141/7 166/140/7 168/142/7 
f 167/118/8 67/119/8 66/120/8 
f 66/120/8 169/121/8 167/118/8 
f 165/122/8 70/123/8 67/119/8 
f 67/119/8 167/118/8 165/122/8 
f 163/124/8 72/125/8 70/123/8 
f 70/123/8 165/122/8 163/124/8 
f 161/126/8 74/127/8 72/125/8 
f 72/125/8 163/124/8 161/126/8 
f 159/128/8 76/129/8 74/127/8 
f 74/127/8 161/126/8 159/128/8 
f 157/130/8 78/131/8 76/129/8 
f 76/129/8 159/128/8 157/130/8 
f 155/132/8 80/133/8 78/131/8 
f 78/131/8 157/130/8 155/132/8 
f 153/134/8 82/135/8 80/133/8 
f 80/133/8 155/132/8 153/134/8 
f 151/136/8 84/137/8 82/135/8 
f 82/135/8 153/134/8 151/136/8 
f 149/138/8 86/139/8 84/137/8 
f 84/137/8 151/136/8 149/138/8 
f 147/140/8 88/141/8 86/139/8 
f 86/139/8 149/138/8 147/140/8 
f 146/142/8 90/143/8 88/141/8 
f 88/141/8 147/140/8 146/142/8 
# 312 faces

