# 3ds Max Wavefront OBJ Exporter v0.97b - (c)2007 guruware
# File Created: 12.08.2017 16:58:16

#
# object Elevated_Station_Node_Pavement_Steel_LOD
#

v  -6.1546 0.0000 0.2332
v  -6.1546 -2.2500 0.2332
v  -6.1546 -2.2000 32.2300
v  -6.1546 0.0500 32.2300
v  -6.3622 0.0500 32.2269
v  -6.3622 0.0000 0.2301
v  -7.8623 0.0000 0.2301
v  -7.8623 0.0500 32.2269
v  0.1378 -2.2500 -31.7700
v  0.1378 -2.2500 0.2332
v  -6.1546 -2.2500 -31.7700
v  0.1378 -2.2000 32.2300
v  6.4302 0.0000 0.2332
v  6.4302 -2.2500 0.2332
v  6.4302 -2.2500 -31.7700
v  6.4302 0.0000 -31.7700
v  6.4302 0.0500 32.2300
v  6.4302 -2.2000 32.2300
v  -6.1546 0.0000 -31.7700
v  6.6378 0.0000 -31.7731
v  6.6378 0.0000 0.2301
v  8.1379 0.0000 0.2301
v  8.1379 0.0000 -31.7731
v  6.6378 0.0500 32.2269
v  0.1378 0.0000 0.2301
v  0.1378 0.0500 32.2269
v  -6.3622 0.0000 -31.7731
v  0.1378 0.0000 -31.7731
v  8.1379 0.0500 32.2269
v  -7.8623 0.0000 -31.7731
# 30 vertices

vn -1.0000 0.0000 -0.0000
vn -0.0000 1.0000 -0.0016
vn -0.0000 1.0000 -0.0008
vn 0.0000 1.0000 -0.0008
vn 0.0000 1.0000 -0.0016
vn 0.0000 -1.0000 -0.0000
vn 0.0000 -1.0000 0.0008
vn 0.0000 -1.0000 0.0016
vn 1.0000 0.0000 -0.0000
vn 0.0000 1.0000 -0.0000
# 10 vertex normals

vt 0.7331 -0.0000 0.0000
vt 0.9535 -0.0000 0.0000
vt 0.9535 1.0000 0.0000
vt 0.7331 1.0000 0.0000
vt 0.5464 0.0000 0.0000
vt 0.5464 1.0000 0.0000
vt 0.4724 1.0000 0.0000
vt 0.4724 0.0000 0.0000
vt 0.8205 1.0000 0.0000
vt 0.8205 -0.0001 0.0000
vt 0.7331 -0.0001 0.0000
vt 0.9535 0.0000 0.0000
vt 0.7331 0.0000 0.0000
vt 0.4732 1.0000 0.0000
vt 0.4732 0.0000 0.0000
vt 0.5472 0.0000 0.0000
vt 0.5472 1.0000 0.0000
vt 0.4272 1.0000 0.0000
vt 0.4272 -0.0000 0.0000
vt 0.0988 0.0000 0.0000
vt 0.0988 1.0000 0.0000
vt 0.9079 1.0000 0.0000
vt 0.9079 -0.0001 0.0000
vt 0.4292 -0.0000 0.0000
vt 0.4292 1.0000 0.0000
# 25 texture coords

g Elevated_Station_Node_Pavement_Steel_LOD
s 64
f 1/1/1 2/2/1 3/3/1 
f 3/3/1 4/4/1 1/1/1 
s 1
f 5/5/2 6/6/3 7/7/4 
f 7/7/4 8/8/5 5/5/2 
s 2
f 9/9/6 10/10/7 2/11/7 
f 2/11/7 11/4/6 9/9/6 
f 10/9/7 12/10/8 3/11/8 
f 3/11/8 2/4/7 10/9/7 
s 16
f 13/4/9 14/3/9 15/12/9 
f 15/12/9 16/13/9 13/4/9 
f 17/4/9 18/3/9 14/2/9 
f 14/2/9 13/1/9 17/4/9 
s 64
f 2/3/1 1/4/1 19/13/1 
f 19/13/1 11/12/1 2/3/1 
s 1
f 20/14/10 21/15/4 22/16/4 
f 22/16/4 23/17/10 20/14/10 
f 24/18/5 21/19/4 25/20/4 
f 25/20/4 26/21/5 24/18/5 
s 2
f 15/22/6 14/23/7 10/10/7 
f 10/10/7 9/9/6 15/22/6 
f 14/22/7 18/23/8 12/10/8 
f 12/10/8 10/9/7 14/22/7 
s 1
f 27/24/10 6/25/3 25/21/4 
f 25/21/4 28/20/10 27/24/10 
f 28/20/10 25/21/4 21/18/4 
f 21/18/4 20/19/10 28/20/10 
f 29/16/5 22/17/4 21/14/4 
f 21/14/4 24/15/5 29/16/5 
f 26/21/5 25/20/4 6/24/3 
f 6/24/3 5/25/2 26/21/5 
f 30/7/10 7/8/4 6/5/3 
f 6/5/3 27/6/10 30/7/10 
# 32 faces

