# 3ds Max Wavefront OBJ Exporter v0.97b - (c)2007 guruware
# File Created: 11.07.2017 01:09:50

#
# object Plane015
#

v  -8.0000 0.0500 32.0000
v  -0.0000 0.0500 32.0000
v  -0.0000 0.0500 26.6667
v  -8.0000 0.0500 26.6667
v  8.0000 0.0500 32.0000
v  8.0000 0.0500 26.6667
v  -0.0000 0.0500 21.3333
v  -8.0000 0.0500 21.3333
v  8.0000 0.0500 21.3333
v  -0.0000 0.0500 16.0000
v  -8.0000 0.0500 16.0000
v  8.0000 0.0500 16.0000
v  -0.0000 0.0500 10.6667
v  -8.0000 0.0500 10.6667
v  8.0000 0.0500 10.6667
v  -0.0000 0.0500 5.3333
v  -8.0000 0.0500 5.3333
v  8.0000 0.0500 5.3333
v  -0.0000 0.0500 -0.0000
v  -8.0000 0.0500 -0.0000
v  8.0000 0.0500 -0.0000
v  -0.0000 0.0500 -5.3333
v  -8.0000 0.0500 -5.3333
v  8.0000 0.0500 -5.3333
v  -0.0000 0.0500 -10.6667
v  -8.0000 0.0500 -10.6667
v  8.0000 0.0500 -10.6667
v  -0.0000 0.0500 -16.0000
v  -8.0000 0.0500 -16.0000
v  8.0000 0.0500 -16.0000
v  -0.0000 0.0500 -21.3333
v  -8.0000 0.0500 -21.3333
v  8.0000 0.0500 -21.3333
v  -0.0000 0.0500 -26.6667
v  -8.0000 0.0500 -26.6667
v  8.0000 0.0500 -26.6667
v  -0.0000 0.0500 -32.0000
v  -8.0000 0.0500 -32.0000
v  8.0000 0.0500 -32.0000
# 39 vertices

vn 0.0000 1.0000 -0.0000
# 1 vertex normals

vt 0.0404 0.0000 0.0000
vt 1.2491 0.0000 0.0000
vt 1.2491 0.0833 0.0000
vt 0.0404 0.0833 0.0000
vt -0.2492 0.0000 0.0000
vt 0.9563 0.0000 0.0000
vt 0.9563 0.0833 0.0000
vt -0.2492 0.0833 0.0000
vt 1.2491 0.1667 0.0000
vt 0.0404 0.1667 0.0000
vt 0.9563 0.1667 0.0000
vt -0.2492 0.1667 0.0000
vt 1.2491 0.2500 0.0000
vt 0.0404 0.2500 0.0000
vt 0.9563 0.2500 0.0000
vt -0.2492 0.2500 0.0000
vt 1.2491 0.3333 0.0000
vt 0.0404 0.3333 0.0000
vt 0.9563 0.3333 0.0000
vt -0.2492 0.3333 0.0000
vt 1.2491 0.4167 0.0000
vt 0.0404 0.4167 0.0000
vt 0.9563 0.4167 0.0000
vt -0.2492 0.4167 0.0000
vt 1.2491 0.5000 0.0000
vt 0.0404 0.5000 0.0000
vt 0.9563 0.5000 0.0000
vt -0.2492 0.5000 0.0000
vt 1.2491 0.5833 0.0000
vt 0.0404 0.5833 0.0000
vt 0.9563 0.5833 0.0000
vt -0.2492 0.5833 0.0000
vt 1.2491 0.6667 0.0000
vt 0.0404 0.6667 0.0000
vt 0.9563 0.6667 0.0000
vt -0.2492 0.6667 0.0000
vt 1.2491 0.7500 0.0000
vt 0.0404 0.7500 0.0000
vt 0.9563 0.7500 0.0000
vt -0.2492 0.7500 0.0000
vt 1.2491 0.8333 0.0000
vt 0.0404 0.8333 0.0000
vt 0.9563 0.8333 0.0000
vt -0.2492 0.8333 0.0000
vt 1.2491 0.9167 0.0000
vt 0.0404 0.9167 0.0000
vt 0.9563 0.9167 0.0000
vt -0.2492 0.9167 0.0000
vt 1.2491 1.0000 0.0000
vt 0.0404 1.0000 0.0000
vt 0.9563 1.0000 0.0000
vt -0.2492 1.0000 0.0000
# 52 texture coords

g Plane015
s 1
f 1/1/1 2/2/1 3/3/1 
f 3/3/1 4/4/1 1/1/1 
f 2/5/1 5/6/1 6/7/1 
f 6/7/1 3/8/1 2/5/1 
f 4/4/1 3/3/1 7/9/1 
f 7/9/1 8/10/1 4/4/1 
f 3/8/1 6/7/1 9/11/1 
f 9/11/1 7/12/1 3/8/1 
f 8/10/1 7/9/1 10/13/1 
f 10/13/1 11/14/1 8/10/1 
f 7/12/1 9/11/1 12/15/1 
f 12/15/1 10/16/1 7/12/1 
f 11/14/1 10/13/1 13/17/1 
f 13/17/1 14/18/1 11/14/1 
f 10/16/1 12/15/1 15/19/1 
f 15/19/1 13/20/1 10/16/1 
f 14/18/1 13/17/1 16/21/1 
f 16/21/1 17/22/1 14/18/1 
f 13/20/1 15/19/1 18/23/1 
f 18/23/1 16/24/1 13/20/1 
f 17/22/1 16/21/1 19/25/1 
f 19/25/1 20/26/1 17/22/1 
f 16/24/1 18/23/1 21/27/1 
f 21/27/1 19/28/1 16/24/1 
f 20/26/1 19/25/1 22/29/1 
f 22/29/1 23/30/1 20/26/1 
f 19/28/1 21/27/1 24/31/1 
f 24/31/1 22/32/1 19/28/1 
f 23/30/1 22/29/1 25/33/1 
f 25/33/1 26/34/1 23/30/1 
f 22/32/1 24/31/1 27/35/1 
f 27/35/1 25/36/1 22/32/1 
f 26/34/1 25/33/1 28/37/1 
f 28/37/1 29/38/1 26/34/1 
f 25/36/1 27/35/1 30/39/1 
f 30/39/1 28/40/1 25/36/1 
f 29/38/1 28/37/1 31/41/1 
f 31/41/1 32/42/1 29/38/1 
f 28/40/1 30/39/1 33/43/1 
f 33/43/1 31/44/1 28/40/1 
f 32/42/1 31/41/1 34/45/1 
f 34/45/1 35/46/1 32/42/1 
f 31/44/1 33/43/1 36/47/1 
f 36/47/1 34/48/1 31/44/1 
f 35/46/1 34/45/1 37/49/1 
f 37/49/1 38/50/1 35/46/1 
f 34/48/1 36/47/1 39/51/1 
f 39/51/1 37/52/1 34/48/1 
# 48 faces

