# 3ds Max Wavefront OBJ Exporter v0.97b - (c)2007 guruware
# File Created: 24.01.2019 02:56:43

#
# object Boosted_Rail_Quad_Merge
#

v  -1.4370 0.0918 -26.6609
v  -1.4752 0.0918 -31.4942
v  -0.7257 0.0718 -31.4942
v  -0.6875 0.0718 -26.6609
v  -1.4751 -0.2882 -31.4942
v  -0.7256 -0.2882 -31.4942
v  -0.6874 -0.2882 -26.6609
v  -0.9873 0.0917 -11.1679
v  -0.2378 0.0717 -11.1679
v  -0.2377 -0.2883 -11.1679
v  -0.9872 -0.2883 -11.1679
v  -1.1688 -0.2882 -15.9945
v  -1.1690 0.0918 -15.9945
v  -3.1628 0.0718 -26.6609
v  -3.2011 0.0718 -31.4942
v  -2.4515 0.0918 -31.4942
v  -2.4133 0.0918 -26.6609
v  -3.2009 -0.2882 -31.4942
v  -2.4514 -0.2882 -31.4942
v  -2.4132 -0.2882 -26.6609
v  -2.7132 0.0717 -11.1679
v  -1.9636 0.0917 -11.1679
v  -1.9635 -0.2883 -11.1679
v  -2.7130 -0.2883 -11.1679
v  -2.8946 -0.2882 -15.9945
v  -2.8948 0.0718 -15.9945
v  -0.7373 0.0917 -5.3283
v  -0.9465 0.0917 -10.1679
v  -0.1970 0.0717 -10.1679
v  0.0122 0.0717 -5.3283
v  -0.9463 -0.2883 -10.1679
v  -0.1968 -0.2883 -10.1679
v  0.0123 -0.2883 -5.3283
v  -0.0426 0.0916 10.1580
v  0.7069 0.0716 10.1580
v  0.7070 -0.2884 10.1580
v  -0.0425 -0.2884 10.1580
v  -0.2509 -0.2884 5.3378
v  -0.2510 0.0916 5.3378
v  -2.4631 0.0717 -5.3283
v  -2.6723 0.0717 -10.1679
v  -1.9228 0.0917 -10.1679
v  -1.7136 0.0917 -5.3283
v  -2.6721 -0.2883 -10.1679
v  -1.9226 -0.2883 -10.1679
v  -1.7135 -0.2883 -5.3283
v  -1.7684 0.0716 10.1580
v  -1.0189 0.0916 10.1580
v  -1.0188 -0.2884 10.1580
v  -1.7683 -0.2884 10.1580
v  -1.9767 -0.2884 5.3378
v  -1.9768 0.0716 5.3378
v  0.1808 0.0915 16.0041
v  -0.0016 0.0916 11.1579
v  0.7479 0.0716 11.1579
v  0.9303 0.0715 16.0041
v  -0.0016 -0.2884 11.1579
v  0.7479 -0.2884 11.1579
v  0.9304 -0.2885 16.0041
v  0.4873 0.0915 31.4843
v  1.2368 0.0715 31.4843
v  1.2368 -0.2885 31.4843
v  0.4873 -0.2885 31.4843
v  0.4490 -0.2885 26.6705
v  0.4490 0.0915 26.6705
v  -1.5451 0.0715 16.0041
v  -1.7275 0.0716 11.1580
v  -0.9780 0.0916 11.1580
v  -0.7956 0.0915 16.0041
v  -1.7275 -0.2884 11.1580
v  -0.9780 -0.2884 11.1580
v  -0.7955 -0.2885 16.0041
v  -1.2386 0.0715 31.4843
v  -0.4891 0.0915 31.4843
v  -0.4891 -0.2885 31.4843
v  -1.2386 -0.2885 31.4843
v  -1.2769 -0.2885 26.6705
v  -1.2769 0.0715 26.6705
v  0.4985 0.0716 5.3378
v  -0.4941 0.0916 0.0048
v  0.2554 0.0716 0.0048
v  0.2555 -0.2884 0.0048
v  0.4986 -0.2884 5.3378
v  -0.4940 -0.2884 0.0048
v  -0.7372 -0.2883 -5.3283
v  -1.2273 0.0916 5.3378
v  -2.2199 0.0716 0.0048
v  -1.4704 0.0916 0.0048
v  -1.4703 -0.2884 0.0048
v  -1.2272 -0.2884 5.3378
v  -2.2198 -0.2884 0.0048
v  -2.4630 -0.2883 -5.3283
v  1.0917 0.0715 21.3372
v  0.3422 0.0915 21.3372
v  1.0917 -0.2885 21.3372
v  0.1809 -0.2885 16.0041
v  -0.6342 0.0915 21.3372
v  -1.3837 0.0715 21.3372
v  -0.6342 -0.2885 21.3372
v  -1.5450 -0.2885 16.0041
v  0.3422 -0.2885 21.3372
v  -1.3837 -0.2885 21.3372
v  1.1985 0.0715 26.6705
v  1.1985 -0.2885 26.6705
v  -0.5274 0.0915 26.6705
v  -0.5274 -0.2885 26.6705
v  -0.4195 0.0718 -15.9945
v  -0.4193 -0.2882 -15.9945
v  -1.3301 -0.2882 -21.3277
v  -1.3303 0.0918 -21.3277
v  -2.1453 0.0918 -15.9945
v  -2.1451 -0.2882 -15.9945
v  -3.0559 -0.2882 -21.3277
v  -3.0561 0.0718 -21.3277
v  -0.5808 0.0718 -21.3277
v  -0.5806 -0.2882 -21.3277
v  -2.3066 0.0918 -21.3277
v  -2.3064 -0.2882 -21.3277
v  -1.4369 -0.2882 -26.6609
v  -3.1627 -0.2882 -26.6609
v  2.4120 0.0912 -26.6610
v  2.4502 0.0912 -31.4942
v  3.1997 0.0712 -31.4942
v  3.1615 0.0712 -26.6610
v  2.4501 -0.2888 -31.4942
v  3.1996 -0.2888 -31.4942
v  3.1614 -0.2888 -26.6610
v  1.9624 0.0913 -11.1679
v  2.7119 0.0713 -11.1679
v  2.7118 -0.2887 -11.1679
v  1.9623 -0.2887 -11.1679
v  2.1439 -0.2888 -15.9945
v  2.1440 0.0912 -15.9945
v  0.6862 0.0712 -26.6610
v  0.7245 0.0712 -31.4942
v  1.4739 0.0912 -31.4942
v  1.4357 0.0912 -26.6610
v  0.7243 -0.2888 -31.4942
v  1.4738 -0.2888 -31.4942
v  1.4356 -0.2888 -26.6610
v  0.2367 0.0713 -11.1679
v  0.9861 0.0913 -11.1679
v  0.9860 -0.2887 -11.1679
v  0.2365 -0.2887 -11.1679
v  0.4181 -0.2888 -15.9945
v  0.4182 0.0712 -15.9945
v  1.7124 0.0913 -5.3283
v  1.9216 0.0913 -10.1680
v  2.6711 0.0713 -10.1680
v  2.4619 0.0713 -5.3283
v  1.9215 -0.2887 -10.1680
v  2.6710 -0.2887 -10.1680
v  2.4618 -0.2887 -5.3283
v  1.0178 0.0914 10.1580
v  1.7673 0.0714 10.1580
v  1.7673 -0.2886 10.1580
v  1.0178 -0.2886 10.1580
v  1.2261 -0.2886 5.3378
v  1.2262 0.0914 5.3378
v  -0.0134 0.0713 -5.3283
v  0.1958 0.0713 -10.1680
v  0.9453 0.0913 -10.1680
v  0.7361 0.0913 -5.3283
v  0.1957 -0.2887 -10.1680
v  0.9451 -0.2887 -10.1680
v  0.7360 -0.2887 -5.3283
v  -0.7080 0.0714 10.1580
v  0.0415 0.0914 10.1580
v  0.0415 -0.2886 10.1580
v  -0.7080 -0.2886 10.1580
v  -0.4996 -0.2886 5.3378
v  -0.4996 0.0714 5.3378
v  0.7945 0.0915 16.0041
v  0.9769 0.0914 11.1579
v  1.7264 0.0714 11.1579
v  1.5440 0.0715 16.0041
v  0.9769 -0.2886 11.1579
v  1.7264 -0.2886 11.1579
v  1.5440 -0.2885 16.0041
v  0.4881 0.0915 31.4843
v  1.2376 0.0715 31.4843
v  1.2376 -0.2885 31.4843
v  0.4881 -0.2885 31.4843
v  0.5264 -0.2885 26.6705
v  0.5264 0.0915 26.6705
v  -0.9314 0.0715 16.0041
v  -0.7490 0.0714 11.1580
v  0.0005 0.0914 11.1580
v  -0.1819 0.0915 16.0041
v  -0.7490 -0.2886 11.1580
v  0.0005 -0.2886 11.1580
v  -0.1819 -0.2885 16.0041
v  -1.2378 0.0715 31.4843
v  -0.4883 0.0915 31.4843
v  -0.4883 -0.2885 31.4843
v  -1.2378 -0.2885 31.4843
v  -1.1995 -0.2885 26.6705
v  -1.1995 0.0715 26.6705
v  1.9757 0.0714 5.3378
v  1.4693 0.0913 0.0048
v  2.2188 0.0713 0.0048
v  2.2187 -0.2887 0.0048
v  1.9756 -0.2886 5.3378
v  1.4692 -0.2887 0.0048
v  1.7123 -0.2887 -5.3283
v  0.2499 0.0914 5.3378
v  -0.2565 0.0713 0.0048
v  0.4930 0.0913 0.0048
v  0.4929 -0.2887 0.0048
v  0.2498 -0.2886 5.3378
v  -0.2566 -0.2887 0.0048
v  -0.0135 -0.2887 -5.3283
v  1.3827 0.0715 21.3372
v  0.6332 0.0915 21.3372
v  1.3827 -0.2885 21.3372
v  0.7945 -0.2885 16.0041
v  -0.3432 0.0915 21.3372
v  -1.0927 0.0715 21.3372
v  -0.3432 -0.2885 21.3372
v  -0.9314 -0.2885 16.0041
v  0.6332 -0.2885 21.3372
v  -1.0927 -0.2885 21.3372
v  1.2759 0.0715 26.6705
v  1.2759 -0.2885 26.6705
v  -0.4500 0.0915 26.6705
v  -0.4500 -0.2885 26.6705
v  2.8935 0.0712 -15.9945
v  2.8934 -0.2888 -15.9945
v  2.3052 -0.2888 -21.3277
v  2.3053 0.0912 -21.3277
v  1.1677 0.0912 -15.9945
v  1.1676 -0.2888 -15.9945
v  0.5794 -0.2888 -21.3277
v  0.5795 0.0712 -21.3277
v  3.0548 0.0712 -21.3277
v  3.0547 -0.2888 -21.3277
v  1.3290 0.0912 -21.3277
v  1.3289 -0.2888 -21.3277
v  2.4119 -0.2888 -26.6610
v  0.6861 -0.2888 -26.6610
# 240 vertices

vn 0.0267 0.9996 -0.0004
vn 0.0267 0.9996 -0.0002
vn 0.0000 0.0000 -1.0000
vn 0.9999 0.0003 -0.0140
vn 1.0000 0.0003 -0.0079
vn 0.0000 0.0000 1.0000
vn -0.9993 -0.0003 0.0376
vn -0.9994 -0.0005 0.0339
vn -0.0267 0.9996 0.0004
vn -0.0267 0.9996 0.0002
vn -0.9993 -0.0006 0.0376
vn -0.9994 -0.0006 0.0339
vn 0.0267 0.9996 -0.0012
vn 0.9991 0.0005 -0.0432
vn 0.9991 0.0006 -0.0432
vn 0.9990 0.0003 -0.0444
vn -0.9991 -0.0003 0.0432
vn -0.9990 -0.0003 0.0444
vn -0.0267 0.9996 0.0012
vn 0.0267 0.9996 -0.0009
vn 0.0267 0.9996 -0.0010
vn 0.9993 0.0000 -0.0376
vn 0.9994 0.0003 -0.0339
vn -1.0000 0.0000 0.0080
vn -0.9999 0.0000 0.0140
vn -0.0267 0.9996 0.0009
vn -0.0267 0.9996 0.0010
vn 0.9990 0.0003 -0.0455
vn -0.9990 -0.0003 0.0455
vn 0.9991 0.0003 -0.0432
vn 0.0267 0.9996 -0.0007
vn 0.9997 0.0000 -0.0251
vn -0.9994 -0.0003 0.0339
vn -0.9993 0.0000 0.0376
vn -0.0267 0.9996 0.0007
vn -0.9997 0.0000 0.0251
vn 0.9999 0.0000 -0.0140
vn 1.0000 0.0000 -0.0080
vn -0.9991 -0.0005 0.0432
vn -0.9991 -0.0006 0.0432
vn 0.9994 0.0005 -0.0339
vn 0.9994 0.0006 -0.0339
vn 0.9993 0.0003 -0.0376
vn -0.9997 -0.0005 0.0251
vn -0.9997 -0.0006 0.0251
vn 0.9997 0.0006 -0.0251
vn 0.9997 0.0005 -0.0251
vn -0.9999 -0.0003 0.0140
vn -1.0000 -0.0003 0.0079
vn -1.0000 -0.0005 0.0079
vn -1.0000 -0.0006 0.0079
vn 0.0267 0.9996 0.0004
vn 0.0267 0.9996 0.0002
vn 0.9999 -0.0003 0.0140
vn 1.0000 -0.0003 0.0079
vn -0.9993 0.0003 -0.0376
vn -0.9994 0.0003 -0.0339
vn -0.0267 0.9996 -0.0004
vn -0.0267 0.9996 -0.0002
vn -0.9993 0.0005 -0.0376
vn -0.9993 0.0006 -0.0376
vn 0.0267 0.9996 0.0012
vn 0.9991 -0.0003 0.0432
vn 0.9990 -0.0003 0.0444
vn -0.9991 0.0000 -0.0432
vn -0.9990 0.0003 -0.0444
vn -0.0267 0.9996 -0.0012
vn 0.9991 -0.0005 0.0432
vn -0.9990 0.0000 -0.0444
vn 0.0267 0.9996 0.0009
vn 0.0267 0.9996 0.0010
vn 0.9993 0.0000 0.0376
vn 0.9994 0.0000 0.0339
vn -1.0000 0.0000 -0.0080
vn -0.9999 0.0000 -0.0140
vn -0.0267 0.9996 -0.0009
vn -0.0267 0.9996 -0.0010
vn 0.9990 -0.0003 0.0455
vn -0.9990 0.0003 -0.0455
vn 0.9991 0.0000 0.0432
vn 0.0267 0.9996 0.0007
vn 0.9997 0.0000 0.0251
vn -0.9994 0.0000 -0.0339
vn -0.9993 0.0000 -0.0376
vn -0.0267 0.9996 -0.0007
vn -0.9997 0.0000 -0.0251
vn 0.9999 0.0000 0.0140
vn 1.0000 0.0000 0.0080
vn -0.9991 0.0003 -0.0432
vn 0.9994 -0.0003 0.0339
vn 0.9993 -0.0003 0.0376
vn -0.9997 0.0003 -0.0251
vn 0.9997 -0.0003 0.0251
vn -0.9999 0.0003 -0.0140
vn -1.0000 0.0003 -0.0079
vn -1.0000 0.0005 -0.0079
vn -1.0000 0.0006 -0.0079
# 97 vertex normals

vt 0.0003 0.9994 0.0000
vt 0.0003 0.0000 0.0000
vt 0.2568 0.0000 0.0000
vt 0.2568 0.9994 0.0000
vt 0.2532 0.0000 0.0000
vt 0.0000 0.0000 0.0000
vt 0.0000 0.0345 0.0000
vt 0.2532 0.0345 0.0000
vt -0.0000 1.0000 0.0000
vt 0.0388 1.0000 0.0000
vt 0.0388 0.0000 0.0000
vt 0.0356 1.0000 0.0000
vt 0.0000 1.0000 0.0000
vt 0.0356 0.0000 0.0000
vt 0.0003 0.9997 0.0000
vt 0.2568 0.9997 0.0000
vt 0.0003 1.0000 0.0000
vt 0.2568 1.0000 0.0000
vt 0.2568 1.0003 0.0000
vt 0.0003 1.0003 0.0000
# 20 texture coords

g Boosted_Rail_Quad_Merge
s 4
f 3/3/2 2/2/2 1/1/1 
f 1/1/1 4/4/1 3/3/2 
s 8
f 5/7/3 2/6/3 3/5/3 
f 3/5/3 6/8/3 5/7/3 
s 16
f 3/11/5 4/10/4 7/9/4 
f 7/9/4 6/6/5 3/11/5 
s 32
f 10/8/6 9/5/6 8/6/6 
f 8/6/6 11/7/6 10/8/6 
s 64
f 12/6/8 11/13/7 8/12/7 
f 8/12/7 13/14/8 12/6/8 
s 4
f 16/3/10 15/2/10 14/1/9 
f 14/1/9 17/4/9 16/3/10 
s 8
f 18/8/3 15/5/3 16/6/3 
f 16/6/3 19/7/3 18/8/3 
s 16
f 16/11/5 17/10/4 20/9/4 
f 20/9/4 19/6/5 16/11/5 
s 32
f 23/7/6 22/6/6 21/5/6 
f 21/5/6 24/8/6 23/7/6 
s 64
f 25/6/12 24/13/11 21/12/11 
f 21/12/11 26/14/12 25/6/12 
s 4
f 29/3/13 28/2/13 27/15/13 
f 27/15/13 30/16/13 29/3/13 
s 8
f 31/7/3 28/6/3 29/5/3 
f 29/5/3 32/8/3 31/7/3 
s 16
f 33/9/16 32/6/15 29/11/14 
f 29/11/14 30/10/16 33/9/16 
s 32
f 36/8/6 35/5/6 34/6/6 
f 34/6/6 37/7/6 36/8/6 
s 64
f 38/6/18 37/13/17 34/12/17 
f 34/12/17 39/14/18 38/6/18 
s 4
f 42/3/19 41/2/19 40/15/19 
f 40/15/19 43/16/19 42/3/19 
s 8
f 44/8/3 41/5/3 42/6/3 
f 42/6/3 45/7/3 44/8/3 
s 16
f 46/9/16 45/6/14 42/11/14 
f 42/11/14 43/10/16 46/9/16 
s 32
f 49/7/6 48/6/6 47/5/6 
f 47/5/6 50/8/6 49/7/6 
s 64
f 51/6/18 50/13/17 47/12/17 
f 47/12/17 52/14/18 51/6/18 
s 4
f 55/3/21 54/2/21 53/17/20 
f 53/17/20 56/18/20 55/3/21 
s 8
f 57/7/3 54/6/3 55/5/3 
f 55/5/3 58/8/3 57/7/3 
s 16
f 59/9/23 58/6/22 55/11/22 
f 55/11/22 56/10/23 59/9/23 
s 32
f 62/8/6 61/5/6 60/6/6 
f 60/6/6 63/7/6 62/8/6 
s 64
f 64/6/25 63/13/24 60/12/24 
f 60/12/24 65/14/25 64/6/25 
s 4
f 68/3/27 67/2/27 66/17/26 
f 66/17/26 69/18/26 68/3/27 
s 8
f 70/8/3 67/5/3 68/6/3 
f 68/6/3 71/7/3 70/8/3 
s 16
f 72/9/23 71/6/22 68/11/22 
f 68/11/22 69/10/23 72/9/23 
s 32
f 75/7/6 74/6/6 73/5/6 
f 73/5/6 76/8/6 75/7/6 
s 64
f 77/6/25 76/13/24 73/12/24 
f 73/12/24 78/14/25 77/6/25 
s 4
f 80/2/13 39/17/13 79/18/13 
f 79/18/13 81/3/13 80/2/13 
s 16
f 83/9/16 82/6/28 81/11/28 
f 81/11/28 79/10/16 83/9/16 
s 64
f 85/6/18 84/13/29 80/12/29 
f 80/12/29 27/14/18 85/6/18 
s 4
f 87/2/19 52/17/19 86/18/19 
f 86/18/19 88/3/19 87/2/19 
s 16
f 90/9/16 89/6/28 88/11/28 
f 88/11/28 86/10/16 90/9/16 
s 64
f 92/6/18 91/13/29 87/12/29 
f 87/12/29 40/14/18 92/6/18 
f 84/6/29 38/13/18 39/12/18 
f 39/12/18 80/14/29 84/6/29 
f 91/6/29 51/13/18 52/12/18 
f 52/12/18 87/14/29 91/6/29 
s 4
f 35/18/13 79/3/13 39/2/13 
f 39/2/13 34/17/13 35/18/13 
s 16
f 36/9/30 83/6/16 79/11/16 
f 79/11/16 35/10/30 36/9/30 
s 4
f 48/18/19 86/3/19 52/2/19 
f 52/2/19 47/17/19 48/18/19 
s 16
f 49/9/30 90/6/16 86/11/16 
f 86/11/16 48/10/30 49/9/30 
s 4
f 53/2/20 94/17/31 93/18/31 
f 93/18/31 56/3/20 53/2/20 
s 16
f 95/9/32 59/6/23 56/11/23 
f 56/11/23 93/10/32 95/9/32 
s 64
f 57/6/34 96/13/33 53/12/33 
f 53/12/33 54/14/34 57/6/34 
s 4
f 66/2/26 98/17/35 97/18/35 
f 97/18/35 69/3/26 66/2/26 
s 16
f 99/9/32 72/6/23 69/11/23 
f 69/11/23 97/10/32 99/9/32 
s 64
f 70/6/34 100/13/33 66/12/33 
f 66/12/33 67/14/34 70/6/34 
f 96/6/33 101/13/36 94/12/36 
f 94/12/36 53/14/33 96/6/33 
f 100/6/33 102/13/36 98/12/36 
f 98/12/36 66/14/33 100/6/33 
s 4
f 94/2/31 65/20/1 103/19/1 
f 103/19/1 93/3/31 94/2/31 
s 16
f 104/9/37 95/6/32 93/11/32 
f 93/11/32 103/10/37 104/9/37 
s 4
f 98/2/35 78/20/9 105/19/9 
f 105/19/9 97/3/35 98/2/35 
s 16
f 106/9/37 99/6/32 97/11/32 
f 97/11/32 105/10/37 106/9/37 
s 64
f 101/6/36 64/13/25 65/12/25 
f 65/12/25 94/14/36 101/6/36 
f 102/6/36 77/13/25 78/12/25 
f 78/12/25 98/14/36 102/6/36 
s 4
f 61/18/2 103/3/1 65/2/1 
f 65/2/1 60/17/2 61/18/2 
s 16
f 62/9/38 104/6/37 103/11/37 
f 103/11/37 61/10/38 62/9/38 
s 4
f 74/18/10 105/3/9 78/2/9 
f 78/2/9 73/17/10 74/18/10 
s 16
f 75/9/38 106/6/37 105/11/37 
f 105/11/37 74/10/38 75/9/38 
s 4
f 27/2/13 80/15/13 81/16/13 
f 81/16/13 30/3/13 27/2/13 
s 16
f 82/9/28 33/6/16 30/11/16 
f 30/11/16 81/10/28 82/9/28 
s 4
f 40/2/19 87/15/19 88/16/19 
f 88/16/19 43/3/19 40/2/19 
s 16
f 89/9/28 46/6/16 43/11/16 
f 43/11/16 88/10/28 89/9/28 
s 64
f 31/6/39 85/13/18 27/12/18 
f 27/12/18 28/14/39 31/6/39 
f 44/6/39 92/13/18 40/12/18 
f 40/12/18 41/14/40 44/6/39 
s 4
f 9/18/21 107/3/20 13/2/20 
f 13/2/20 8/17/21 9/18/21 
s 16
f 10/9/43 108/6/42 107/11/41 
f 107/11/41 9/10/43 10/9/43 
s 64
f 109/6/44 12/13/8 13/12/8 
f 13/12/8 110/14/44 109/6/44 
s 4
f 22/18/27 111/3/26 26/2/26 
f 26/2/26 21/17/27 22/18/27 
s 16
f 111/11/41 22/10/43 23/9/43 
f 23/9/43 112/6/41 111/11/41 
s 64
f 113/6/45 25/13/12 26/12/12 
f 26/12/12 114/14/44 113/6/45 
s 4
f 110/2/31 13/15/20 107/16/20 
f 107/16/20 115/3/31 110/2/31 
s 16
f 108/9/42 116/6/47 115/11/46 
f 115/11/46 107/10/41 108/9/42 
s 4
f 114/2/35 26/15/26 111/16/26 
f 111/16/26 117/3/35 114/2/35 
s 16
f 112/9/41 118/6/47 117/11/47 
f 117/11/47 111/10/41 112/9/41 
s 64
f 119/6/48 109/13/44 110/12/44 
f 110/12/44 1/14/48 119/6/48 
f 120/6/48 113/13/45 114/12/44 
f 114/12/44 14/14/48 120/6/48 
s 4
f 1/2/1 110/1/31 115/4/31 
f 115/4/31 4/3/1 1/2/1 
s 16
f 4/11/4 115/10/46 116/9/47 
f 116/9/47 7/6/4 4/11/4 
s 4
f 14/2/9 114/1/35 117/4/35 
f 117/4/35 17/3/9 14/2/9 
s 16
f 17/11/4 117/10/47 118/9/47 
f 118/9/47 20/6/4 17/11/4 
s 64
f 5/6/49 119/13/48 1/12/48 
f 1/12/48 2/14/49 5/6/49 
f 18/6/50 120/13/48 14/12/48 
f 14/12/48 15/14/51 18/6/50 
s 4
f 123/3/53 122/2/53 121/1/52 
f 121/1/52 124/4/52 123/3/53 
s 8
f 125/7/3 122/6/3 123/5/3 
f 123/5/3 126/8/3 125/7/3 
s 16
f 123/11/55 124/10/54 127/9/54 
f 127/9/54 126/6/55 123/11/55 
s 32
f 130/8/6 129/5/6 128/6/6 
f 128/6/6 131/7/6 130/8/6 
s 64
f 132/6/57 131/13/56 128/12/56 
f 128/12/56 133/14/57 132/6/57 
s 4
f 136/3/59 135/2/59 134/1/58 
f 134/1/58 137/4/58 136/3/59 
s 8
f 138/8/3 135/5/3 136/6/3 
f 136/6/3 139/7/3 138/8/3 
s 16
f 136/11/55 137/10/54 140/9/54 
f 140/9/54 139/6/55 136/11/55 
s 32
f 143/7/6 142/6/6 141/5/6 
f 141/5/6 144/8/6 143/7/6 
s 64
f 145/6/57 144/13/61 141/12/60 
f 141/12/60 146/14/57 145/6/57 
s 4
f 149/3/62 148/2/62 147/15/62 
f 147/15/62 150/16/62 149/3/62 
s 8
f 151/7/3 148/6/3 149/5/3 
f 149/5/3 152/8/3 151/7/3 
s 16
f 153/9/64 152/6/63 149/11/63 
f 149/11/63 150/10/64 153/9/64 
s 32
f 156/8/6 155/5/6 154/6/6 
f 154/6/6 157/7/6 156/8/6 
s 64
f 158/6/66 157/13/65 154/12/65 
f 154/12/65 159/14/66 158/6/66 
s 4
f 162/3/67 161/2/67 160/15/67 
f 160/15/67 163/16/67 162/3/67 
s 8
f 164/8/3 161/5/3 162/6/3 
f 162/6/3 165/7/3 164/8/3 
s 16
f 166/9/64 165/6/68 162/11/68 
f 162/11/68 163/10/64 166/9/64 
s 32
f 169/7/6 168/6/6 167/5/6 
f 167/5/6 170/8/6 169/7/6 
s 64
f 171/6/69 170/13/65 167/12/65 
f 167/12/65 172/14/69 171/6/69 
s 4
f 175/3/71 174/2/71 173/17/70 
f 173/17/70 176/18/70 175/3/71 
s 8
f 177/7/3 174/6/3 175/5/3 
f 175/5/3 178/8/3 177/7/3 
s 16
f 179/9/73 178/6/72 175/11/72 
f 175/11/72 176/10/73 179/9/73 
s 32
f 182/8/6 181/5/6 180/6/6 
f 180/6/6 183/7/6 182/8/6 
s 64
f 184/6/75 183/13/74 180/12/74 
f 180/12/74 185/14/75 184/6/75 
s 4
f 188/3/77 187/2/77 186/17/76 
f 186/17/76 189/18/76 188/3/77 
s 8
f 190/8/3 187/5/3 188/6/3 
f 188/6/3 191/7/3 190/8/3 
s 16
f 192/9/73 191/6/72 188/11/72 
f 188/11/72 189/10/73 192/9/73 
s 32
f 195/7/6 194/6/6 193/5/6 
f 193/5/6 196/8/6 195/7/6 
s 64
f 197/6/75 196/13/74 193/12/74 
f 193/12/74 198/14/75 197/6/75 
s 4
f 200/2/62 159/17/62 199/18/62 
f 199/18/62 201/3/62 200/2/62 
s 16
f 203/9/64 202/6/78 201/11/78 
f 201/11/78 199/10/64 203/9/64 
s 64
f 205/6/66 204/13/79 200/12/79 
f 200/12/79 147/14/66 205/6/66 
s 4
f 207/2/67 172/17/67 206/18/67 
f 206/18/67 208/3/67 207/2/67 
s 16
f 210/9/64 209/6/78 208/11/78 
f 208/11/78 206/10/64 210/9/64 
s 64
f 212/6/66 211/13/79 207/12/79 
f 207/12/79 160/14/66 212/6/66 
f 204/6/79 158/13/66 159/12/66 
f 159/12/66 200/14/79 204/6/79 
f 211/6/79 171/13/69 172/12/69 
f 172/12/69 207/14/79 211/6/79 
s 4
f 155/18/62 199/3/62 159/2/62 
f 159/2/62 154/17/62 155/18/62 
s 16
f 156/9/80 203/6/64 199/11/64 
f 199/11/64 155/10/80 156/9/80 
s 4
f 168/18/67 206/3/67 172/2/67 
f 172/2/67 167/17/67 168/18/67 
s 16
f 169/9/80 210/6/64 206/11/64 
f 206/11/64 168/10/80 169/9/80 
s 4
f 173/2/70 214/17/81 213/18/81 
f 213/18/81 176/3/70 173/2/70 
s 16
f 215/9/82 179/6/73 176/11/73 
f 176/11/73 213/10/82 215/9/82 
s 64
f 177/6/84 216/13/83 173/12/83 
f 173/12/83 174/14/84 177/6/84 
s 4
f 186/2/76 218/17/85 217/18/85 
f 217/18/85 189/3/76 186/2/76 
s 16
f 219/9/82 192/6/73 189/11/73 
f 189/11/73 217/10/82 219/9/82 
s 64
f 190/6/84 220/13/83 186/12/83 
f 186/12/83 187/14/84 190/6/84 
f 216/6/83 221/13/86 214/12/86 
f 214/12/86 173/14/83 216/6/83 
f 220/6/83 222/13/86 218/12/86 
f 218/12/86 186/14/83 220/6/83 
s 4
f 214/2/81 185/20/52 223/19/52 
f 223/19/52 213/3/81 214/2/81 
s 16
f 224/9/87 215/6/82 213/11/82 
f 213/11/82 223/10/87 224/9/87 
s 4
f 218/2/85 198/20/58 225/19/58 
f 225/19/58 217/3/85 218/2/85 
s 16
f 226/9/87 219/6/82 217/11/82 
f 217/11/82 225/10/87 226/9/87 
s 64
f 221/6/86 184/13/75 185/12/75 
f 185/12/75 214/14/86 221/6/86 
f 222/6/86 197/13/75 198/12/75 
f 198/12/75 218/14/86 222/6/86 
s 4
f 181/18/53 223/3/52 185/2/52 
f 185/2/52 180/17/53 181/18/53 
s 16
f 182/9/88 224/6/87 223/11/87 
f 223/11/87 181/10/88 182/9/88 
s 4
f 194/18/59 225/3/58 198/2/58 
f 198/2/58 193/17/59 194/18/59 
s 16
f 195/9/88 226/6/87 225/11/87 
f 225/11/87 194/10/88 195/9/88 
s 4
f 147/2/62 200/15/62 201/16/62 
f 201/16/62 150/3/62 147/2/62 
s 16
f 202/9/78 153/6/64 150/11/64 
f 150/11/64 201/10/78 202/9/78 
s 4
f 160/2/67 207/15/67 208/16/67 
f 208/16/67 163/3/67 160/2/67 
s 16
f 209/9/78 166/6/64 163/11/64 
f 163/11/64 208/10/78 209/9/78 
s 64
f 151/6/89 205/13/66 147/12/66 
f 147/12/66 148/14/89 151/6/89 
f 164/6/89 212/13/66 160/12/66 
f 160/12/66 161/14/89 164/6/89 
s 4
f 129/18/71 227/3/70 133/2/70 
f 133/2/70 128/17/71 129/18/71 
s 16
f 130/9/91 228/6/90 227/11/90 
f 227/11/90 129/10/91 130/9/91 
s 64
f 229/6/92 132/13/57 133/12/57 
f 133/12/57 230/14/92 229/6/92 
s 4
f 142/18/77 231/3/76 146/2/76 
f 146/2/76 141/17/77 142/18/77 
s 16
f 231/11/90 142/10/91 143/9/91 
f 143/9/91 232/6/90 231/11/90 
s 64
f 233/6/92 145/13/57 146/12/57 
f 146/12/57 234/14/92 233/6/92 
s 4
f 230/2/81 133/15/70 227/16/70 
f 227/16/70 235/3/81 230/2/81 
s 16
f 228/9/90 236/6/93 235/11/93 
f 235/11/93 227/10/90 228/9/90 
s 4
f 234/2/85 146/15/76 231/16/76 
f 231/16/76 237/3/85 234/2/85 
s 16
f 232/9/90 238/6/93 237/11/93 
f 237/11/93 231/10/90 232/9/90 
s 64
f 239/6/94 229/13/92 230/12/92 
f 230/12/92 121/14/94 239/6/94 
f 240/6/94 233/13/92 234/12/92 
f 234/12/92 134/14/94 240/6/94 
s 4
f 121/2/52 230/1/81 235/4/81 
f 235/4/81 124/3/52 121/2/52 
s 16
f 124/11/54 235/10/93 236/9/93 
f 236/9/93 127/6/54 124/11/54 
s 4
f 134/2/58 234/1/85 237/4/85 
f 237/4/85 137/3/58 134/2/58 
s 16
f 137/11/54 237/10/93 238/9/93 
f 238/9/93 140/6/54 137/11/54 
s 64
f 125/6/95 239/13/94 121/12/94 
f 121/12/94 122/14/95 125/6/95 
f 138/6/96 240/13/94 134/12/94 
f 134/12/94 135/14/97 138/6/96 
# 0 polygons - 336 triangles

