# 3ds Max Wavefront OBJ Exporter v0.97b - (c)2007 guruware
# File Created: 22.11.2016 23:11:17

#
# object Object011
#

v  0.6367 0.1138 21.3333
v  0.0000 0.1200 21.3333
v  0.0000 0.1200 26.6667
v  0.6367 0.1138 26.6667
v  0.6367 0.1138 5.3333
v  0.0000 0.1200 5.3333
v  0.0000 0.1200 10.6667
v  0.6367 0.1138 10.6667
v  0.6367 0.1138 -10.6667
v  0.0000 0.1200 -10.6667
v  0.0000 0.1200 -5.3333
v  0.6367 0.1138 -5.3333
v  0.6367 0.1138 -26.6667
v  0.0000 0.1200 -26.6667
v  0.0000 0.1200 -21.3333
v  0.6367 0.1138 -21.3333
v  2.4060 0.0829 21.3333
v  1.5163 0.1011 21.3333
v  1.5163 0.1011 26.6667
v  2.4060 0.0829 26.6667
v  2.4060 0.0829 5.3333
v  1.5163 0.1011 5.3333
v  1.5163 0.1011 10.6667
v  2.4060 0.0829 10.6667
v  2.4060 0.0829 -10.6667
v  1.5163 0.1011 -10.6667
v  1.5163 0.1011 -5.3333
v  2.4060 0.0829 -5.3333
v  2.4060 0.0829 -26.6667
v  1.5163 0.1011 -26.6667
v  1.5163 0.1011 -21.3333
v  2.4060 0.0829 -21.3333
v  -0.6368 0.1138 21.3333
v  -0.6368 0.1138 26.6667
v  -0.6368 0.1138 5.3333
v  -0.6368 0.1138 10.6667
v  -0.6368 0.1138 -10.6667
v  -0.6368 0.1138 -5.3333
v  -0.6368 0.1138 -26.6667
v  -0.6368 0.1138 -21.3333
v  -1.5160 0.1011 21.3333
v  -2.4060 0.0829 21.3333
v  -2.4060 0.0829 26.6667
v  -1.5160 0.1011 26.6667
v  -1.5160 0.1011 5.3333
v  -2.4060 0.0829 5.3333
v  -2.4060 0.0829 10.6667
v  -1.5160 0.1011 10.6667
v  -1.5160 0.1011 -10.6667
v  -2.4060 0.0829 -10.6667
v  -2.4060 0.0829 -5.3333
v  -1.5160 0.1011 -5.3333
v  -1.5160 0.1011 -26.6667
v  -2.4060 0.0829 -26.6667
v  -2.4060 0.0829 -21.3333
v  -1.5160 0.1011 -21.3333
v  0.6367 0.1138 16.0000
v  0.0000 0.1200 16.0000
v  0.0000 0.1200 32.0000
v  0.6367 0.1138 32.0000
v  0.6367 0.1138 -0.0000
v  0.0000 0.1200 -0.0000
v  0.6367 0.1138 -16.0000
v  0.0000 0.1200 -16.0000
v  0.6367 0.1138 -32.0000
v  0.0000 0.1200 -32.0000
v  2.4060 0.0829 16.0000
v  1.5163 0.1011 16.0000
v  1.5163 0.1011 32.0000
v  2.4060 0.0829 32.0000
v  2.4060 0.0829 -0.0000
v  1.5163 0.1011 -0.0000
v  2.4060 0.0829 -16.0000
v  1.5163 0.1011 -16.0000
v  2.4060 0.0829 -32.0000
v  1.5163 0.1011 -32.0000
v  -0.6368 0.1138 16.0000
v  -0.6368 0.1138 32.0000
v  -0.6368 0.1138 -0.0000
v  -0.6368 0.1138 -16.0000
v  -0.6368 0.1138 -32.0000
v  -1.5160 0.1011 16.0000
v  -2.4060 0.0829 16.0000
v  -2.4060 0.0829 32.0000
v  -1.5160 0.1011 32.0000
v  -1.5160 0.1011 -0.0000
v  -2.4060 0.0829 -0.0000
v  -1.5160 0.1011 -16.0000
v  -2.4060 0.0829 -16.0000
v  -1.5160 0.1011 -32.0000
v  -2.4060 0.0829 -32.0000
v  0.0045 0.0530 31.5039
v  4.0037 -0.0000 31.5039
v  4.0037 -0.0000 26.2555
v  0.0045 0.0530 26.2555
v  4.0037 -0.0000 21.0071
v  0.0045 0.0530 21.0071
v  4.0037 -0.0000 15.7588
v  0.0045 0.0530 15.7588
v  4.0037 -0.0000 10.5104
v  0.0045 0.0530 10.5104
v  4.0037 -0.0000 5.2620
v  0.0045 0.0530 5.2620
v  4.0037 -0.0000 0.0136
v  0.0045 0.0530 0.0136
v  4.0037 -0.0000 -5.2347
v  0.0045 0.0530 -5.2347
v  4.0037 -0.0000 -10.4831
v  0.0045 0.0530 -10.4831
v  4.0037 -0.0000 -15.7315
v  0.0045 0.0530 -15.7315
v  4.0037 -0.0000 -20.9799
v  0.0045 0.0530 -20.9799
v  4.0037 -0.0000 -26.2282
v  0.0045 0.0530 -26.2282
v  4.0037 -0.0000 -31.4766
v  0.0045 0.0530 -31.4766
v  0.0045 -0.3000 31.5039
v  3.9963 -0.3000 31.5039
v  3.9963 -0.3000 26.2555
v  3.9963 -0.3000 21.0071
v  3.9963 -0.3000 15.7588
v  3.9963 -0.3000 10.5104
v  3.9963 -0.3000 5.2620
v  3.9963 -0.3000 0.0136
v  3.9963 -0.3000 -5.2347
v  3.9963 -0.3000 -10.4831
v  3.9963 -0.3000 -15.7315
v  3.9963 -0.3000 -20.9799
v  3.9963 -0.3000 -26.2282
v  3.9963 -0.3000 -31.4766
v  0.0045 -0.3000 -31.4766
v  0.0045 -0.3000 -26.2282
v  0.0045 -0.3000 -20.9799
v  0.0045 -0.3000 -15.7315
v  0.0045 -0.3000 -10.4831
v  0.0045 -0.3000 -5.2347
v  0.0045 -0.3000 0.0136
v  0.0045 -0.3000 5.2620
v  0.0045 -0.3000 10.5104
v  0.0045 -0.3000 15.7588
v  0.0045 -0.3000 21.0071
v  0.0045 -0.3000 26.2555
v  -4.0037 -0.0000 -31.4766
v  -4.0037 -0.0000 -26.2282
v  -4.0037 -0.0000 -20.9799
v  0.0045 0.0530 -20.9798
v  -4.0037 -0.0000 -15.7315
v  -4.0037 -0.0000 -10.4831
v  -4.0037 -0.0000 -5.2347
v  -4.0037 -0.0000 0.0136
v  0.0045 0.0530 0.0137
v  -4.0037 -0.0000 5.2620
v  -4.0037 -0.0000 10.5104
v  -4.0037 -0.0000 15.7588
v  -4.0037 -0.0000 21.0071
v  0.0045 0.0530 21.0072
v  -4.0037 -0.0000 26.2555
v  -4.0037 -0.0000 31.5039
v  -3.9963 -0.3000 -31.4766
v  -3.9963 -0.3000 -26.2282
v  -3.9963 -0.3000 -20.9798
v  -3.9963 -0.3000 -15.7315
v  -3.9963 -0.3000 -10.4831
v  -3.9963 -0.3000 -5.2347
v  -3.9963 -0.3000 0.0137
v  -3.9963 -0.3000 5.2620
v  -3.9963 -0.3000 10.5104
v  -3.9963 -0.3000 15.7588
v  -3.9963 -0.3000 21.0072
v  -3.9963 -0.3000 26.2555
v  -3.9963 -0.3000 31.5039
v  0.0045 -0.3000 21.0072
v  0.0045 -0.3000 0.0137
v  0.0045 -0.3000 -20.9798
# 175 vertices

vn 0.0098 1.0000 -0.0000
vn 0.0205 0.9998 -0.0000
vn -0.0098 1.0000 -0.0000
vn -0.0098 1.0000 0.0000
vn -0.0205 0.9998 -0.0000
vn 0.0133 0.9999 -0.0000
vn -0.0000 -0.0000 1.0000
vn 0.9997 -0.0249 -0.0000
vn 0.0000 0.0000 -1.0000
vn -1.0000 0.0000 -0.0000
vn -0.0132 0.9999 -0.0000
vn -0.0132 0.9999 0.0000
vn 0.0000 -0.0000 -1.0000
vn -0.9997 -0.0249 -0.0000
vn -0.9997 -0.0249 0.0000
vn -0.0000 0.0000 1.0000
vn 1.0000 0.0000 -0.0000
# 17 vertex normals

vt 1.0014 0.6623 0.0000
vt 0.8690 0.6623 0.0000
vt 0.8690 0.3322 0.0000
vt 1.0014 0.3322 0.0000
vt 1.0014 0.3373 0.0000
vt 0.8690 0.3373 0.0000
vt 0.8690 0.6674 0.0000
vt 1.0014 0.6674 0.0000
vt 0.7340 0.3398 0.0000
vt 1.0019 0.3398 0.0000
vt 1.0019 0.6699 0.0000
vt 0.7340 0.6699 0.0000
vt 0.7340 0.6648 0.0000
vt 1.0019 0.6648 0.0000
vt 1.0019 0.3347 0.0000
vt 0.7340 0.3347 0.0000
vt 0.8690 0.3398 0.0000
vt 0.7366 0.3398 0.0000
vt 0.7366 0.6699 0.0000
vt 0.8690 0.6699 0.0000
vt 0.8690 0.6648 0.0000
vt 0.7366 0.6648 0.0000
vt 0.7366 0.3347 0.0000
vt 0.8690 0.3347 0.0000
vt 1.0024 0.3398 0.0000
vt 0.7359 0.3398 0.0000
vt 0.7359 0.6699 0.0000
vt 1.0024 0.6699 0.0000
vt 1.0024 0.6648 0.0000
vt 0.7359 0.6648 0.0000
vt 0.7359 0.3347 0.0000
vt 1.0024 0.3347 0.0000
vt 1.0014 0.9923 0.0000
vt 0.8690 0.9923 0.0000
vt 0.8690 0.0021 0.0000
vt 1.0014 0.0021 0.0000
vt 1.0014 0.0072 0.0000
vt 0.8690 0.0072 0.0000
vt 0.8690 0.9974 0.0000
vt 1.0014 0.9974 0.0000
vt 0.7340 0.0097 0.0000
vt 1.0019 0.0097 0.0000
vt 1.0019 1.0000 0.0000
vt 0.7340 1.0000 0.0000
vt 0.7340 0.9949 0.0000
vt 1.0019 0.9949 0.0000
vt 1.0019 0.0046 0.0000
vt 0.7340 0.0046 0.0000
vt 0.8690 0.0097 0.0000
vt 0.7366 0.0097 0.0000
vt 0.7366 1.0000 0.0000
vt 0.8690 1.0000 0.0000
vt 0.8690 0.9949 0.0000
vt 0.7366 0.9949 0.0000
vt 0.7366 0.0046 0.0000
vt 0.8690 0.0046 0.0000
vt 1.0024 0.0097 0.0000
vt 0.7359 0.0097 0.0000
vt 0.7359 1.0000 0.0000
vt 1.0024 1.0000 0.0000
vt 1.0024 0.9949 0.0000
vt 0.7359 0.9949 0.0000
vt 0.7359 0.0046 0.0000
vt 1.0024 0.0046 0.0000
vt 0.7249 1.0000 0.0000
vt -0.0192 1.0000 0.0000
vt -0.0192 0.0003 0.0000
vt 0.7249 0.0003 0.0000
vt 0.0000 0.0000 0.0000
vt 0.0833 0.0000 0.0000
vt 0.0833 1.0000 0.0000
vt 0.0000 1.0000 0.0000
vt 0.1667 0.0000 0.0000
vt 0.1667 1.0000 0.0000
vt 0.2500 0.0000 0.0000
vt 0.2500 1.0000 0.0000
vt -0.0010 0.0000 0.0000
vt -0.0010 1.0000 0.0000
vt 0.0823 0.0000 0.0000
vt 0.0823 1.0000 0.0000
vt 0.1657 0.0000 0.0000
vt 0.1657 1.0000 0.0000
vt 0.2490 0.0000 0.0000
vt 0.2490 1.0000 0.0000
vt 0.3323 0.0000 0.0000
vt 0.3323 1.0000 0.0000
vt 0.4157 0.0000 0.0000
vt 0.4157 1.0000 0.0000
vt 0.4990 0.0000 0.0000
vt 0.4990 1.0000 0.0000
vt 0.5823 0.0000 0.0000
vt 0.5823 1.0000 0.0000
vt 0.6657 0.0000 0.0000
vt 0.6657 1.0000 0.0000
vt -0.0145 0.0003 0.0000
vt 0.7440 0.0003 0.0000
vt 0.7440 1.0000 0.0000
vt -0.0145 1.0000 0.0000
# 98 texture coords

g Object011
s 4
f 1/1/1 2/2/1 3/3/1 
f 3/3/1 4/4/1 1/1/1 
f 5/5/1 6/6/1 7/7/1 
f 7/7/1 8/8/1 5/5/1 
f 9/8/1 10/7/1 11/6/1 
f 11/6/1 12/5/1 9/8/1 
f 13/4/1 14/3/1 15/2/1 
f 15/2/1 16/1/1 13/4/1 
f 17/9/2 18/10/2 19/11/2 
f 19/11/2 20/12/2 17/9/2 
f 21/13/2 22/14/2 23/15/2 
f 23/15/2 24/16/2 21/13/2 
f 25/16/2 26/15/2 27/14/2 
f 27/14/2 28/13/2 25/16/2 
f 29/12/2 30/11/2 31/10/2 
f 31/10/2 32/9/2 29/12/2 
f 2/17/3 33/18/3 34/19/4 
f 34/19/4 3/20/4 2/17/3 
f 6/21/3 35/22/3 36/23/3 
f 36/23/3 7/24/3 6/21/3 
f 10/24/3 37/23/3 38/22/3 
f 38/22/3 11/21/3 10/24/3 
f 14/20/3 39/19/3 40/18/3 
f 40/18/3 15/17/3 14/20/3 
f 41/25/5 42/26/5 43/27/5 
f 43/27/5 44/28/5 41/25/5 
f 45/29/5 46/30/5 47/31/5 
f 47/31/5 48/32/5 45/29/5 
f 49/32/5 50/31/5 51/30/5 
f 51/30/5 52/29/5 49/32/5 
f 53/28/5 54/27/5 55/26/5 
f 55/26/5 56/25/5 53/28/5 
f 57/33/1 58/34/1 2/2/1 
f 2/2/1 1/1/1 57/33/1 
f 59/35/1 60/36/1 4/4/1 
f 4/4/1 3/3/1 59/35/1 
f 61/37/1 62/38/1 6/6/1 
f 6/6/1 5/5/1 61/37/1 
f 58/39/1 57/40/1 8/8/1 
f 8/8/1 7/7/1 58/39/1 
f 63/40/1 64/39/1 10/7/1 
f 10/7/1 9/8/1 63/40/1 
f 62/38/1 61/37/1 12/5/1 
f 12/5/1 11/6/1 62/38/1 
f 65/36/1 66/35/1 14/3/1 
f 14/3/1 13/4/1 65/36/1 
f 64/34/1 63/33/1 16/1/1 
f 16/1/1 15/2/1 64/34/1 
f 67/41/2 68/42/2 18/10/2 
f 18/10/2 17/9/2 67/41/2 
f 69/43/2 70/44/2 20/12/2 
f 20/12/2 19/11/2 69/43/2 
f 71/45/2 72/46/2 22/14/2 
f 22/14/2 21/13/2 71/45/2 
f 68/47/2 67/48/2 24/16/2 
f 24/16/2 23/15/2 68/47/2 
f 73/48/2 74/47/2 26/15/2 
f 26/15/2 25/16/2 73/48/2 
f 72/46/2 71/45/2 28/13/2 
f 28/13/2 27/14/2 72/46/2 
f 75/44/2 76/43/2 30/11/2 
f 30/11/2 29/12/2 75/44/2 
f 74/42/2 73/41/2 32/9/2 
f 32/9/2 31/10/2 74/42/2 
f 58/49/3 77/50/3 33/18/3 
f 33/18/3 2/17/3 58/49/3 
f 78/51/4 59/52/4 3/20/4 
f 3/20/4 34/19/4 78/51/4 
f 62/53/3 79/54/3 35/22/3 
f 35/22/3 6/21/3 62/53/3 
f 77/55/3 58/56/3 7/24/3 
f 7/24/3 36/23/3 77/55/3 
f 64/56/3 80/55/3 37/23/3 
f 37/23/3 10/24/3 64/56/3 
f 79/54/3 62/53/3 11/21/3 
f 11/21/3 38/22/3 79/54/3 
f 66/52/3 81/51/3 39/19/3 
f 39/19/3 14/20/3 66/52/3 
f 80/50/3 64/49/3 15/17/3 
f 15/17/3 40/18/3 80/50/3 
f 82/57/5 83/58/5 42/26/5 
f 42/26/5 41/25/5 82/57/5 
f 84/59/5 85/60/5 44/28/5 
f 44/28/5 43/27/5 84/59/5 
f 86/61/5 87/62/5 46/30/5 
f 46/30/5 45/29/5 86/61/5 
f 83/63/5 82/64/5 48/32/5 
f 48/32/5 47/31/5 83/63/5 
f 88/64/5 89/63/5 50/31/5 
f 50/31/5 49/32/5 88/64/5 
f 87/62/5 86/61/5 52/29/5 
f 52/29/5 51/30/5 87/62/5 
f 90/60/5 91/59/5 54/27/5 
f 54/27/5 53/28/5 90/60/5 
f 89/58/5 88/57/5 56/25/5 
f 56/25/5 55/26/5 89/58/5 
f 92/65/6 93/66/6 94/67/6 
f 94/67/6 95/68/6 92/65/6 
f 95/65/6 94/66/6 96/67/6 
f 96/67/6 97/68/6 95/65/6 
f 97/65/6 96/66/6 98/67/6 
f 98/67/6 99/68/6 97/65/6 
f 99/65/6 98/66/6 100/67/6 
f 100/67/6 101/68/6 99/65/6 
f 101/65/6 100/66/6 102/67/6 
f 102/67/6 103/68/6 101/65/6 
f 103/65/6 102/66/6 104/67/6 
f 104/67/6 105/68/6 103/65/6 
f 105/65/6 104/66/6 106/67/6 
f 106/67/6 107/68/6 105/65/6 
f 107/65/6 106/66/6 108/67/6 
f 108/67/6 109/68/6 107/65/6 
f 109/65/6 108/66/6 110/67/6 
f 110/67/6 111/68/6 109/65/6 
f 111/65/6 110/66/6 112/67/6 
f 112/67/6 113/68/6 111/65/6 
f 113/65/6 112/66/6 114/67/6 
f 114/67/6 115/68/6 113/65/6 
f 115/65/6 114/66/6 116/67/6 
f 116/67/6 117/68/6 115/65/6 
s 8
f 118/65/7 119/66/7 93/66/7 
f 93/66/7 92/65/7 118/65/7 
s 16
f 119/69/8 120/70/8 94/71/8 
f 94/71/8 93/72/8 119/69/8 
f 120/70/8 121/73/8 96/74/8 
f 96/74/8 94/71/8 120/70/8 
f 121/73/8 122/75/8 98/76/8 
f 98/76/8 96/74/8 121/73/8 
f 122/75/8 123/77/8 100/78/8 
f 100/78/8 98/76/8 122/75/8 
f 123/77/8 124/79/8 102/80/8 
f 102/80/8 100/78/8 123/77/8 
f 124/79/8 125/81/8 104/82/8 
f 104/82/8 102/80/8 124/79/8 
f 125/81/8 126/83/8 106/84/8 
f 106/84/8 104/82/8 125/81/8 
f 126/83/8 127/85/8 108/86/8 
f 108/86/8 106/84/8 126/83/8 
f 127/85/8 128/87/8 110/88/8 
f 110/88/8 108/86/8 127/85/8 
f 128/87/8 129/89/8 112/90/8 
f 112/90/8 110/88/8 128/87/8 
f 129/89/8 130/91/8 114/92/8 
f 114/92/8 112/90/8 129/89/8 
f 130/91/8 131/93/8 116/94/8 
f 116/94/8 114/92/8 130/91/8 
s 32
f 131/67/9 132/68/9 117/68/9 
f 117/68/9 116/67/9 131/67/9 
s 64
f 132/69/10 133/70/10 115/71/10 
f 115/71/10 117/72/10 132/69/10 
f 133/70/10 134/73/10 113/74/10 
f 113/74/10 115/71/10 133/70/10 
f 134/73/10 135/75/10 111/76/10 
f 111/76/10 113/74/10 134/73/10 
f 135/75/10 136/77/10 109/78/10 
f 109/78/10 111/76/10 135/75/10 
f 136/77/10 137/79/10 107/80/10 
f 107/80/10 109/78/10 136/77/10 
f 137/79/10 138/81/10 105/82/10 
f 105/82/10 107/80/10 137/79/10 
f 138/81/10 139/83/10 103/84/10 
f 103/84/10 105/82/10 138/81/10 
f 139/83/10 140/85/10 101/86/10 
f 101/86/10 103/84/10 139/83/10 
f 140/85/10 141/87/10 99/88/10 
f 99/88/10 101/86/10 140/85/10 
f 141/87/10 142/89/10 97/90/10 
f 97/90/10 99/88/10 141/87/10 
f 142/89/10 143/91/10 95/92/10 
f 95/92/10 97/90/10 142/89/10 
f 143/91/10 118/93/10 92/94/10 
f 92/94/10 95/92/10 143/91/10 
s 4
f 117/95/11 144/96/11 145/97/12 
f 145/97/12 115/98/12 117/95/11 
f 115/95/12 145/96/12 146/97/12 
f 146/97/12 147/98/12 115/95/12 
f 147/95/12 146/96/12 148/97/12 
f 148/97/12 111/98/12 147/95/12 
f 111/95/12 148/96/12 149/97/12 
f 149/97/12 109/98/12 111/95/12 
f 109/95/12 149/96/12 150/97/12 
f 150/97/12 107/98/12 109/95/12 
f 107/95/12 150/96/12 151/97/12 
f 151/97/12 152/98/12 107/95/12 
f 152/95/12 151/96/12 153/97/12 
f 153/97/12 103/98/12 152/95/12 
f 103/95/12 153/96/12 154/97/12 
f 154/97/12 101/98/12 103/95/12 
f 101/95/12 154/96/12 155/97/12 
f 155/97/12 99/98/12 101/95/12 
f 99/95/12 155/96/12 156/97/12 
f 156/97/12 157/98/12 99/95/12 
f 157/95/12 156/96/12 158/97/12 
f 158/97/12 95/98/12 157/95/12 
f 95/95/12 158/96/12 159/97/12 
f 159/97/12 92/98/12 95/95/12 
s 8
f 132/95/13 160/96/13 144/96/13 
f 144/96/13 117/95/13 132/95/13 
s 16
f 160/69/14 161/70/15 145/71/15 
f 145/71/15 144/72/14 160/69/14 
f 161/70/15 162/73/15 146/74/15 
f 146/74/15 145/71/15 161/70/15 
f 162/73/15 163/75/15 148/76/15 
f 148/76/15 146/74/15 162/73/15 
f 163/75/15 164/77/15 149/78/15 
f 149/78/15 148/76/15 163/75/15 
f 164/77/15 165/79/15 150/80/15 
f 150/80/15 149/78/15 164/77/15 
f 165/79/15 166/81/15 151/82/15 
f 151/82/15 150/80/15 165/79/15 
f 166/81/15 167/83/15 153/84/15 
f 153/84/15 151/82/15 166/81/15 
f 167/83/15 168/85/15 154/86/15 
f 154/86/15 153/84/15 167/83/15 
f 168/85/15 169/87/15 155/88/15 
f 155/88/15 154/86/15 168/85/15 
f 169/87/15 170/89/15 156/90/15 
f 156/90/15 155/88/15 169/87/15 
f 170/89/15 171/91/15 158/92/15 
f 158/92/15 156/90/15 170/89/15 
f 171/91/15 172/93/15 159/94/15 
f 159/94/15 158/92/15 171/91/15 
s 32
f 172/97/16 118/98/16 92/98/16 
f 92/98/16 159/97/16 172/97/16 
s 64
f 118/69/17 143/70/17 95/71/17 
f 95/71/17 92/72/17 118/69/17 
f 143/70/17 173/73/17 157/74/17 
f 157/74/17 95/71/17 143/70/17 
f 173/73/17 141/75/17 99/76/17 
f 99/76/17 157/74/17 173/73/17 
f 141/75/17 140/77/17 101/78/17 
f 101/78/17 99/76/17 141/75/17 
f 140/77/17 139/79/17 103/80/17 
f 103/80/17 101/78/17 140/77/17 
f 139/79/17 174/81/17 152/82/17 
f 152/82/17 103/80/17 139/79/17 
f 174/81/17 137/83/17 107/84/17 
f 107/84/17 152/82/17 174/81/17 
f 137/83/17 136/85/17 109/86/17 
f 109/86/17 107/84/17 137/83/17 
f 136/85/17 135/87/17 111/88/17 
f 111/88/17 109/86/17 136/85/17 
f 135/87/17 175/89/17 147/90/17 
f 147/90/17 111/88/17 135/87/17 
f 175/89/17 133/91/17 115/92/17 
f 115/92/17 147/90/17 175/89/17 
f 133/91/17 132/93/17 117/94/17 
f 117/94/17 115/92/17 133/91/17 
# 248 faces

