# 3ds Max Wavefront OBJ Exporter v0.97b - (c)2007 guruware
# File Created: 19.12.2018 22:21:46

#
# object Boosted_Rail_Merge_End
#

v  -0.7290 0.0606 -31.5022
v  -1.4785 0.0806 -31.5022
v  -1.4019 0.0806 -26.6689
v  -0.6525 0.0606 -26.6689
v  -1.4783 -0.1894 -31.5022
v  -0.7288 -0.1894 -31.5022
v  -0.6523 -0.1894 -26.6689
v  0.2471 -0.1895 -11.1758
v  0.2470 0.0605 -11.1758
v  -0.5025 0.0805 -11.1758
v  -0.5023 -0.1895 -11.1758
v  -0.8656 -0.1895 -16.0025
v  -0.8657 0.0805 -16.0025
v  -2.4548 0.0806 -31.5022
v  -3.2043 0.0606 -31.5022
v  -3.1278 0.0606 -26.6689
v  -2.3783 0.0806 -26.6689
v  -3.2041 -0.1894 -31.5022
v  -2.4546 -0.1894 -31.5022
v  -2.3781 -0.1894 -26.6689
v  -1.4787 -0.1895 -11.1758
v  -1.4788 0.0805 -11.1758
v  -2.2283 0.0605 -11.1758
v  -2.2281 -0.1895 -11.1758
v  -2.5914 -0.1895 -16.0025
v  -2.5915 0.0605 -16.0025
v  0.3288 0.0604 -10.1759
v  -0.4207 0.0804 -10.1759
v  -0.0023 0.0804 -5.3361
v  0.7472 0.0604 -5.3361
v  -0.4206 -0.1896 -10.1759
v  0.3289 -0.1896 -10.1759
v  0.7473 -0.1896 -5.3361
v  2.1365 -0.1898 10.1503
v  2.1365 0.0602 10.1503
v  1.3870 0.0802 10.1503
v  1.3870 -0.1898 10.1503
v  0.9703 -0.1898 5.3300
v  0.9702 0.0802 5.3300
v  -1.3970 0.0804 -10.1759
v  -2.1465 0.0604 -10.1759
v  -1.7281 0.0604 -5.3361
v  -0.9786 0.0804 -5.3361
v  -2.1464 -0.1896 -10.1759
v  -1.3969 -0.1896 -10.1759
v  -0.9785 -0.1896 -5.3361
v  0.4107 -0.1898 10.1503
v  0.4107 0.0802 10.1503
v  -0.3388 0.0602 10.1503
v  -0.3388 -0.1898 10.1503
v  -0.7555 -0.1898 5.3300
v  -0.7556 0.0602 5.3300
v  2.2183 0.0601 11.1501
v  1.4688 0.0801 11.1501
v  1.8336 0.0801 15.9964
v  2.5831 0.0601 15.9964
v  1.4689 -0.1899 11.1501
v  2.2183 -0.1899 11.1501
v  2.5832 -0.1899 15.9964
v  3.1958 -0.1900 31.4766
v  3.1958 0.0600 31.4766
v  2.4463 0.0800 31.4766
v  2.4463 -0.1900 31.4766
v  2.3699 -0.1900 26.6628
v  2.3699 0.0800 26.6628
v  0.4924 0.0801 11.1502
v  -0.2571 0.0601 11.1502
v  0.1077 0.0601 15.9964
v  0.8572 0.0801 15.9964
v  -0.2570 -0.1899 11.1502
v  0.4925 -0.1899 11.1502
v  0.8573 -0.1899 15.9964
v  1.4699 -0.1900 31.4766
v  1.4699 0.0800 31.4766
v  0.7204 0.0600 31.4766
v  0.7204 -0.1900 31.4766
v  0.6440 -0.1900 26.6628
v  0.6440 0.0600 26.6628
v  0.4840 0.0803 -0.0030
v  1.7197 0.0602 5.3300
v  1.2335 0.0603 -0.0030
v  1.7198 -0.1898 5.3300
v  1.2335 -0.1897 -0.0030
v  -0.0022 -0.1896 -5.3361
v  0.4840 -0.1897 -0.0030
v  -1.2418 0.0603 -0.0030
v  -0.0061 0.0802 5.3300
v  -0.4923 0.0803 -0.0030
v  -0.0060 -0.1898 5.3300
v  -0.4923 -0.1897 -0.0030
v  -1.7280 -0.1896 -5.3361
v  -1.2418 -0.1897 -0.0030
v  2.1563 0.0800 21.3295
v  2.9058 0.0600 21.3295
v  2.9058 -0.1900 21.3295
v  1.8337 -0.1899 15.9964
v  0.4304 0.0600 21.3295
v  1.1799 0.0800 21.3295
v  1.1799 -0.1900 21.3295
v  0.1078 -0.1899 15.9964
v  2.1563 -0.1900 21.3295
v  0.4304 -0.1900 21.3295
v  3.1194 0.0600 26.6628
v  3.1194 -0.1900 26.6628
v  1.3935 0.0800 26.6628
v  1.3935 -0.1900 26.6628
v  -0.1162 0.0605 -16.0025
v  -0.1161 -0.1895 -16.0025
v  -1.1882 -0.1894 -21.3356
v  -1.1884 0.0806 -21.3356
v  -1.8420 0.0805 -16.0025
v  -1.8419 -0.1895 -16.0025
v  -2.9140 -0.1894 -21.3356
v  -2.9142 0.0606 -21.3356
v  -0.4389 0.0606 -21.3356
v  -0.4387 -0.1894 -21.3356
v  -2.1647 0.0806 -21.3356
v  -2.1645 -0.1894 -21.3356
v  -1.4018 -0.1894 -26.6689
v  -3.1276 -0.1894 -26.6689
v  -3.1988 0.0600 -11.1771
v  -2.4493 0.0800 -11.1771
v  -2.4493 0.0800 -16.0039
v  -3.1988 0.0600 -16.0039
v  -2.4493 -0.1900 -11.1771
v  -3.1988 -0.1900 -11.1771
v  -3.1988 -0.1900 -16.0039
v  -3.1988 -0.1900 -31.5039
v  -3.1988 0.0600 -31.5039
v  -2.4493 0.0800 -31.5039
v  -2.4493 -0.1900 -31.5039
v  -2.4493 0.0800 -26.6706
v  -2.4493 -0.1900 -26.6706
v  -1.4730 0.0800 -11.1771
v  -0.7235 0.0600 -11.1771
v  -0.7235 0.0600 -16.0039
v  -1.4730 0.0800 -16.0039
v  -0.7235 -0.1900 -11.1771
v  -1.4730 -0.1900 -11.1771
v  -1.4730 -0.1900 -16.0039
v  -1.4730 -0.1900 -31.5039
v  -1.4730 0.0800 -31.5039
v  -0.7235 0.0600 -31.5039
v  -0.7235 -0.1900 -31.5039
v  -0.7235 0.0600 -26.6706
v  -0.7235 -0.1900 -26.6706
v  -3.1988 0.0600 10.1498
v  -2.4493 0.0800 10.1498
v  -2.4493 0.0800 5.3294
v  -3.1988 0.0600 5.3294
v  -2.4493 -0.1900 10.1498
v  -3.1988 -0.1900 10.1498
v  -3.1988 -0.1900 5.3294
v  -3.1988 -0.1900 -10.1771
v  -3.1988 0.0600 -10.1771
v  -2.4493 0.0800 -10.1771
v  -2.4493 -0.1900 -10.1771
v  -2.4493 -0.1900 -5.3372
v  -2.4493 0.0800 -5.3372
v  -1.4730 0.0800 10.1498
v  -0.7235 0.0600 10.1498
v  -0.7235 0.0600 5.3294
v  -1.4730 0.0800 5.3294
v  -0.7235 -0.1900 10.1498
v  -1.4730 -0.1900 10.1498
v  -1.4730 -0.1900 5.3294
v  -1.4730 -0.1900 -10.1771
v  -1.4730 0.0800 -10.1771
v  -0.7235 0.0600 -10.1771
v  -0.7235 -0.1900 -10.1771
v  -0.7235 -0.1900 -5.3372
v  -0.7235 0.0600 -5.3372
v  -3.1989 0.0600 31.4766
v  -2.4494 0.0800 31.4766
v  -2.4494 0.0800 26.6628
v  -3.1989 0.0600 26.6628
v  -2.4494 -0.1900 31.4766
v  -3.1989 -0.1900 31.4766
v  -3.1989 -0.1900 26.6628
v  -3.1989 -0.1900 11.1498
v  -3.1989 0.0600 11.1498
v  -2.4494 0.0800 11.1498
v  -2.4494 -0.1900 11.1498
v  -2.4494 -0.1900 15.9961
v  -2.4494 0.0800 15.9961
v  -1.4730 0.0800 31.4766
v  -0.7235 0.0600 31.4766
v  -0.7235 0.0600 26.6628
v  -1.4730 0.0800 26.6628
v  -0.7235 -0.1900 31.4766
v  -1.4730 -0.1900 31.4766
v  -1.4730 -0.1900 26.6628
v  -1.4730 -0.1900 11.1497
v  -1.4730 0.0800 11.1497
v  -0.7235 0.0600 11.1497
v  -0.7235 -0.1900 11.1497
v  -0.7235 -0.1900 15.9961
v  -0.7235 0.0600 15.9961
v  -2.4493 0.0800 -0.0039
v  -3.1988 0.0600 -5.3372
v  -3.1988 0.0600 -0.0039
v  -3.1988 -0.1900 -5.3372
v  -3.1988 -0.1900 -0.0039
v  -2.4493 -0.1900 5.3294
v  -2.4493 -0.1900 -0.0039
v  -0.7235 0.0600 -0.0039
v  -1.4730 0.0800 -5.3372
v  -1.4730 0.0800 -0.0039
v  -1.4730 -0.1900 -5.3372
v  -1.4730 -0.1900 -0.0039
v  -0.7235 -0.1900 5.3294
v  -0.7235 -0.1900 -0.0039
v  -3.1989 0.0600 15.9961
v  -3.1989 -0.1900 15.9961
v  -2.4494 -0.1900 21.3294
v  -2.4494 0.0800 21.3294
v  -1.4730 0.0800 15.9961
v  -1.4730 -0.1900 15.9961
v  -0.7235 -0.1900 21.3294
v  -0.7235 0.0600 21.3294
v  -3.1989 0.0600 21.3294
v  -3.1989 -0.1900 21.3294
v  -1.4730 0.0800 21.3294
v  -1.4730 -0.1900 21.3294
v  -2.4494 -0.1900 26.6628
v  -0.7235 -0.1900 26.6628
v  -2.4493 0.0800 -21.3372
v  -3.1988 0.0600 -21.3372
v  -3.1988 -0.1900 -21.3372
v  -2.4493 -0.1900 -16.0039
v  -0.7235 0.0600 -21.3372
v  -1.4730 0.0800 -21.3372
v  -1.4730 -0.1900 -21.3372
v  -0.7235 -0.1900 -16.0039
v  -2.4493 -0.1900 -21.3372
v  -0.7235 -0.1900 -21.3372
v  -3.1988 0.0600 -26.6706
v  -3.1988 -0.1900 -26.6706
v  -1.4730 0.0800 -26.6706
v  -1.4730 -0.1900 -26.6706
v  -2.9424 0.0506 -32.0023
v  -2.9424 0.1000 -32.0023
v  -2.8491 0.1292 -32.0023
v  -2.8610 0.0506 -32.0023
v  -2.8110 0.1292 -32.0023
v  -2.7991 0.0506 -32.0023
v  -2.9424 0.1000 -27.7348
v  -2.9424 0.0506 -27.7348
v  -0.9845 0.0506 -32.0023
v  -0.9845 0.1000 -32.0023
v  -0.9845 0.1000 -27.7348
v  -1.2093 0.0506 -32.0023
v  -1.2093 0.1000 -32.0023
v  -1.1160 0.1292 -32.0023
v  -1.1279 0.0506 -32.0023
v  -1.0660 0.0506 -32.0023
v  -1.0778 0.1292 -32.0023
v  -1.0778 0.1292 -27.7348
v  -1.2093 0.1000 -27.7348
v  -1.2093 0.0506 -27.7348
# 260 vertices

vn 0.0267 0.9996 -0.0004
vn 0.0267 0.9996 -0.0007
vn 0.0267 0.9996 -0.0008
vn 0.0000 0.0000 -1.0000
vn 0.9999 0.0008 -0.0158
vn 0.9996 0.0008 -0.0279
vn 0.0000 0.0000 1.0000
vn -0.9977 -0.0004 0.0677
vn -0.9972 -0.0007 0.0751
vn -0.0267 0.9996 0.0004
vn -0.0267 0.9996 0.0007
vn -0.0267 0.9996 0.0008
vn 0.9999 0.0007 -0.0158
vn 0.9996 0.0007 -0.0279
vn -0.9972 -0.0008 0.0751
vn 0.0267 0.9996 -0.0023
vn 0.0267 0.9996 -0.0024
vn 0.9961 0.0004 -0.0885
vn 0.9963 0.0004 -0.0861
vn -0.9961 -0.0004 0.0885
vn -0.9963 0.0000 0.0861
vn -0.9963 -0.0000 0.0861
vn -0.0267 0.9996 0.0023
vn -0.0267 0.9996 0.0024
vn 0.0267 0.9996 -0.0020
vn 0.0267 0.9996 -0.0018
vn 0.9977 0.0004 -0.0677
vn 0.9972 0.0000 -0.0751
vn -0.9996 0.0000 0.0279
vn -0.9999 0.0000 0.0159
vn -0.0267 0.9996 0.0020
vn -0.0267 0.9996 0.0018
vn 0.9972 0.0004 -0.0751
vn 0.9959 0.0000 -0.0908
vn -0.9959 -0.0000 0.0908
vn -0.0267 0.9996 0.0025
vn 0.9963 0.0000 -0.0861
vn 0.0267 0.9996 -0.0013
vn 0.9987 0.0000 -0.0502
vn -0.9972 -0.0004 0.0751
vn -0.0267 0.9996 0.0014
vn -0.0267 0.9996 0.0013
vn -0.9987 0.0000 0.0502
vn -0.9987 -0.0000 0.0502
vn 0.9996 0.0000 -0.0279
vn 0.9999 0.0000 -0.0159
vn -0.9963 -0.0004 0.0861
vn 0.9972 0.0004 -0.0750
vn -0.9987 -0.0007 0.0502
vn -0.9987 -0.0008 0.0502
vn 0.9987 0.0008 -0.0502
vn 0.9987 0.0007 -0.0502
vn -0.9996 -0.0004 0.0279
vn -0.9996 -0.0008 0.0279
vn -0.9999 -0.0007 0.0158
vn -0.9999 -0.0008 0.0158
vn -0.0267 0.9996 -0.0000
vn -1.0000 0.0000 -0.0000
vn 1.0000 0.0000 -0.0000
vn 0.0267 0.9996 -0.0000
vn -0.2987 0.9544 -0.0000
vn 0.2987 0.9544 -0.0000
# 62 vertex normals

vt 0.2568 0.0000 0.0000
vt 0.0003 0.0000 0.0000
vt 0.0003 0.9994 0.0000
vt 0.2568 0.9994 0.0000
vt 0.0000 0.0345 0.0000
vt 0.0000 0.0000 0.0000
vt 0.2532 0.0000 0.0000
vt 0.2532 0.0345 0.0000
vt 0.0388 0.0000 0.0000
vt 0.0388 1.0000 0.0000
vt -0.0000 1.0000 0.0000
vt 0.0000 1.0000 0.0000
vt 0.0356 1.0000 0.0000
vt 0.0356 0.0000 0.0000
vt 0.0003 0.9997 0.0000
vt 0.2568 0.9997 0.0000
vt 0.0003 1.0000 0.0000
vt 0.2568 1.0000 0.0000
vt 0.0003 1.0003 0.0000
vt 0.2568 1.0003 0.0000
vt 0.6266 0.4768 0.0000
vt 0.6266 0.5875 0.0000
vt 0.7412 0.5875 0.0000
vt 0.7412 0.4768 0.0000
vt 0.8283 0.5875 0.0000
vt 0.8283 0.4768 0.0000
vt 0.5438 0.0128 0.0000
vt 0.5251 0.0128 0.0000
vt 0.5251 0.9915 0.0000
vt 0.3169 0.0001 0.0000
vt 0.3169 1.0042 0.0000
vt 0.3910 0.0001 0.0000
vt 0.3910 1.0042 0.0000
vt 0.9429 0.5875 0.0000
vt 0.9429 0.4768 0.0000
vt 0.5078 0.0128 0.0000
vt 0.4891 0.0128 0.0000
vt 0.4891 0.9915 0.0000
# 38 texture coords

g Boosted_Rail_Merge_End
s 4
f 1/1/1 2/2/1 3/3/2 
f 3/3/2 4/4/3 1/1/1 
s 8
f 5/5/4 2/6/4 1/7/4 
f 1/7/4 6/8/4 5/5/4 
s 16
f 1/9/5 4/10/6 7/11/6 
f 7/11/6 6/6/5 1/9/5 
s 32
f 8/8/7 9/7/7 10/6/7 
f 10/6/7 11/5/7 8/8/7 
s 64
f 12/6/8 11/12/9 10/13/9 
f 10/13/9 13/14/8 12/6/8 
s 4
f 14/1/10 15/2/10 16/3/11 
f 16/3/11 17/4/12 14/1/10 
s 8
f 18/8/4 15/7/4 14/6/4 
f 14/6/4 19/5/4 18/8/4 
s 16
f 14/9/13 17/10/14 20/11/14 
f 20/11/14 19/6/13 14/9/13 
s 32
f 21/5/7 22/6/7 23/7/7 
f 23/7/7 24/8/7 21/5/7 
s 64
f 25/6/8 24/12/15 23/13/15 
f 23/13/15 26/14/8 25/6/8 
s 4
f 27/1/16 28/2/16 29/15/17 
f 29/15/17 30/16/17 27/1/16 
s 8
f 31/5/4 28/6/4 27/7/4 
f 27/7/4 32/8/4 31/5/4 
s 16
f 33/11/18 32/6/19 27/9/19 
f 27/9/19 30/10/18 33/11/18 
s 32
f 34/8/7 35/7/7 36/6/7 
f 36/6/7 37/5/7 34/8/7 
s 64
f 38/6/20 37/12/21 36/13/22 
f 36/13/22 39/14/20 38/6/20 
s 4
f 40/1/23 41/2/23 42/15/24 
f 42/15/24 43/16/24 40/1/23 
s 8
f 44/8/4 41/7/4 40/6/4 
f 40/6/4 45/5/4 44/8/4 
s 16
f 46/11/18 45/6/19 40/9/19 
f 40/9/19 43/10/18 46/11/18 
s 32
f 47/5/7 48/6/7 49/7/7 
f 49/7/7 50/8/7 47/5/7 
s 64
f 51/6/20 50/12/21 49/13/22 
f 49/13/22 52/14/20 51/6/20 
s 4
f 53/1/25 54/2/25 55/17/26 
f 55/17/26 56/18/26 53/1/25 
s 8
f 57/5/4 54/6/4 53/7/4 
f 53/7/4 58/8/4 57/5/4 
s 16
f 59/11/27 58/6/28 53/9/28 
f 53/9/28 56/10/27 59/11/27 
s 32
f 60/8/7 61/7/7 62/6/7 
f 62/6/7 63/5/7 60/8/7 
s 64
f 64/6/29 63/12/30 62/13/30 
f 62/13/30 65/14/29 64/6/29 
s 4
f 66/1/31 67/2/31 68/17/32 
f 68/17/32 69/18/32 66/1/31 
s 8
f 70/8/4 67/7/4 66/6/4 
f 66/6/4 71/5/4 70/8/4 
s 16
f 72/11/27 71/6/33 66/9/33 
f 66/9/33 69/10/27 72/11/27 
s 32
f 73/5/7 74/6/7 75/7/7 
f 75/7/7 76/8/7 73/5/7 
s 64
f 77/6/29 76/12/30 75/13/30 
f 75/13/30 78/14/29 77/6/29 
s 4
f 79/2/17 39/17/17 80/18/17 
f 80/18/17 81/1/17 79/2/17 
s 16
f 82/11/18 83/6/34 81/9/34 
f 81/9/34 80/10/18 82/11/18 
s 64
f 84/6/20 85/12/35 79/13/35 
f 79/13/35 29/14/20 84/6/20 
s 4
f 86/2/36 52/17/24 87/18/24 
f 87/18/24 88/1/36 86/2/36 
s 16
f 89/11/18 90/6/34 88/9/34 
f 88/9/34 87/10/18 89/11/18 
s 64
f 91/6/20 92/12/35 86/13/35 
f 86/13/35 42/14/20 91/6/20 
f 85/6/35 38/12/20 39/13/20 
f 39/13/20 79/14/35 85/6/35 
f 92/6/35 51/12/20 52/13/20 
f 52/13/20 86/14/35 92/6/35 
s 4
f 35/18/16 80/1/17 39/2/17 
f 39/2/17 36/17/16 35/18/16 
s 16
f 34/11/37 82/6/18 80/9/18 
f 80/9/18 35/10/37 34/11/37 
s 4
f 48/18/23 87/1/24 52/2/24 
f 52/2/24 49/17/23 48/18/23 
s 16
f 47/11/37 89/6/18 87/9/18 
f 87/9/18 48/10/37 47/11/37 
s 4
f 55/2/26 93/17/38 94/18/38 
f 94/18/38 56/1/26 55/2/26 
s 16
f 95/11/39 59/6/27 56/9/27 
f 56/9/27 94/10/39 95/11/39 
s 64
f 57/6/40 96/12/8 55/13/8 
f 55/13/8 54/14/40 57/6/40 
s 4
f 68/2/32 97/17/41 98/18/42 
f 98/18/42 69/1/32 68/2/32 
s 16
f 99/11/39 72/6/27 69/9/27 
f 69/9/27 98/10/39 99/11/39 
s 64
f 70/6/40 100/12/8 68/13/8 
f 68/13/8 67/14/40 70/6/40 
f 96/6/8 101/12/43 93/13/44 
f 93/13/44 55/14/8 96/6/8 
f 100/6/8 102/12/43 97/13/44 
f 97/13/44 68/14/8 100/6/8 
s 4
f 93/2/38 65/19/3 103/20/2 
f 103/20/2 94/1/38 93/2/38 
s 16
f 104/11/45 95/6/39 94/9/39 
f 94/9/39 103/10/45 104/11/45 
s 4
f 97/2/41 78/19/12 105/20/11 
f 105/20/11 98/1/42 97/2/41 
s 16
f 106/11/45 99/6/39 98/9/39 
f 98/9/39 105/10/45 106/11/45 
s 64
f 101/6/43 64/12/29 65/13/29 
f 65/13/29 93/14/44 101/6/43 
f 102/6/43 77/12/29 78/13/29 
f 78/13/29 97/14/44 102/6/43 
s 4
f 61/18/1 103/1/2 65/2/3 
f 65/2/3 62/17/1 61/18/1 
s 16
f 60/11/46 104/6/45 103/9/45 
f 103/9/45 61/10/46 60/11/46 
s 4
f 74/18/10 105/1/11 78/2/12 
f 78/2/12 75/17/10 74/18/10 
s 16
f 73/11/46 106/6/45 105/9/45 
f 105/9/45 74/10/46 73/11/46 
s 4
f 29/2/17 79/15/17 81/16/17 
f 81/16/17 30/1/17 29/2/17 
s 16
f 83/11/34 33/6/18 30/9/18 
f 30/9/18 81/10/34 83/11/34 
s 4
f 42/2/24 86/15/36 88/16/36 
f 88/16/36 43/1/24 42/2/24 
s 16
f 90/11/34 46/6/18 43/9/18 
f 43/9/18 88/10/34 90/11/34 
s 64
f 31/6/47 84/12/20 29/13/20 
f 29/13/20 28/14/47 31/6/47 
f 44/6/47 91/12/20 42/13/20 
f 42/13/20 41/14/47 44/6/47 
s 4
f 9/18/25 107/1/26 13/2/26 
f 13/2/26 10/17/25 9/18/25 
s 16
f 8/11/48 108/6/27 107/9/27 
f 107/9/27 9/10/48 8/11/48 
s 64
f 109/6/49 12/12/8 13/13/8 
f 13/13/8 110/14/49 109/6/49 
s 4
f 22/18/31 111/1/32 26/2/32 
f 26/2/32 23/17/31 22/18/31 
s 16
f 111/9/27 22/10/48 21/11/48 
f 21/11/48 112/6/27 111/9/27 
s 64
f 113/6/50 25/12/8 26/13/8 
f 26/13/8 114/14/50 113/6/50 
s 4
f 110/2/38 13/15/26 107/16/26 
f 107/16/26 115/1/38 110/2/38 
s 16
f 108/11/27 116/6/51 115/9/51 
f 115/9/51 107/10/27 108/11/27 
s 4
f 114/2/42 26/15/32 111/16/32 
f 111/16/32 117/1/41 114/2/42 
s 16
f 112/11/27 118/6/52 117/9/52 
f 117/9/52 111/10/27 112/11/27 
s 64
f 119/6/53 109/12/49 110/13/49 
f 110/13/49 3/14/53 119/6/53 
f 120/6/54 113/12/50 114/13/50 
f 114/13/50 16/14/54 120/6/54 
s 4
f 3/2/2 110/3/38 115/4/38 
f 115/4/38 4/1/3 3/2/2 
s 16
f 4/9/6 115/10/51 116/11/51 
f 116/11/51 7/6/6 4/9/6 
s 4
f 16/2/11 114/3/42 117/4/41 
f 117/4/41 17/1/12 16/2/11 
s 16
f 17/9/14 117/10/52 118/11/52 
f 118/11/52 20/6/14 17/9/14 
s 64
f 5/6/55 119/12/53 3/13/53 
f 3/13/53 2/14/55 5/6/55 
f 18/6/56 120/12/54 16/13/54 
f 16/13/54 15/14/56 18/6/56 
s 4
f 121/17/57 122/18/57 123/1/57 
f 123/1/57 124/2/57 121/17/57 
s 8
f 125/5/7 122/6/7 121/7/7 
f 121/7/7 126/8/7 125/5/7 
s 16
f 127/6/58 126/12/58 121/13/58 
f 121/13/58 124/14/58 127/6/58 
s 32
f 128/8/4 129/7/4 130/6/4 
f 130/6/4 131/5/4 128/8/4 
s 64
f 130/9/59 132/10/59 133/11/59 
f 133/11/59 131/6/59 130/9/59 
s 4
f 134/17/60 135/18/60 136/1/60 
f 136/1/60 137/2/60 134/17/60 
s 8
f 138/8/7 135/7/7 134/6/7 
f 134/6/7 139/5/7 138/8/7 
s 16
f 140/6/58 139/12/58 134/13/58 
f 134/13/58 137/14/58 140/6/58 
s 32
f 141/5/4 142/6/4 143/7/4 
f 143/7/4 144/8/4 141/5/4 
s 64
f 143/9/59 145/10/59 146/11/59 
f 146/11/59 144/6/59 143/9/59 
s 4
f 147/17/57 148/18/57 149/1/57 
f 149/1/57 150/2/57 147/17/57 
s 8
f 151/5/7 148/6/7 147/7/7 
f 147/7/7 152/8/7 151/5/7 
s 16
f 153/6/58 152/12/58 147/13/58 
f 147/13/58 150/14/58 153/6/58 
s 32
f 154/8/4 155/7/4 156/6/4 
f 156/6/4 157/5/4 154/8/4 
s 64
f 158/11/59 157/6/59 156/9/59 
f 156/9/59 159/10/59 158/11/59 
s 4
f 160/17/60 161/18/60 162/1/60 
f 162/1/60 163/2/60 160/17/60 
s 8
f 164/8/7 161/7/7 160/6/7 
f 160/6/7 165/5/7 164/8/7 
s 16
f 166/6/58 165/12/58 160/13/58 
f 160/13/58 163/14/58 166/6/58 
s 32
f 167/5/4 168/6/4 169/7/4 
f 169/7/4 170/8/4 167/5/4 
s 64
f 171/11/59 170/6/59 169/9/59 
f 169/9/59 172/10/59 171/11/59 
s 4
f 173/17/57 174/18/57 175/1/57 
f 175/1/57 176/2/57 173/17/57 
s 8
f 177/5/7 174/6/7 173/7/7 
f 173/7/7 178/8/7 177/5/7 
s 16
f 179/6/58 178/12/58 173/13/58 
f 173/13/58 176/14/58 179/6/58 
s 32
f 180/8/4 181/7/4 182/6/4 
f 182/6/4 183/5/4 180/8/4 
s 64
f 184/11/59 183/6/59 182/9/59 
f 182/9/59 185/10/59 184/11/59 
s 4
f 186/17/60 187/18/60 188/1/60 
f 188/1/60 189/2/60 186/17/60 
s 8
f 190/8/7 187/7/7 186/6/7 
f 186/6/7 191/5/7 190/8/7 
s 16
f 192/6/58 191/12/58 186/13/58 
f 186/13/58 189/14/58 192/6/58 
s 32
f 193/5/4 194/6/4 195/7/4 
f 195/7/4 196/8/4 193/5/4 
s 64
f 197/11/59 196/6/59 195/9/59 
f 195/9/59 198/10/59 197/11/59 
s 4
f 199/16/57 159/1/57 200/2/57 
f 200/2/57 201/15/57 199/16/57 
s 16
f 202/6/58 203/12/58 201/13/58 
f 201/13/58 200/14/58 202/6/58 
s 64
f 204/11/59 205/6/59 199/9/59 
f 199/9/59 149/10/59 204/11/59 
s 4
f 206/16/60 172/1/60 207/2/60 
f 207/2/60 208/15/60 206/16/60 
s 16
f 209/6/58 210/12/58 208/13/58 
f 208/13/58 207/14/58 209/6/58 
s 64
f 211/11/59 212/6/59 206/9/59 
f 206/9/59 162/10/59 211/11/59 
s 4
f 149/18/57 199/1/57 201/2/57 
f 201/2/57 150/17/57 149/18/57 
s 16
f 203/6/58 153/12/58 150/13/58 
f 150/13/58 201/14/58 203/6/58 
s 4
f 162/18/60 206/1/60 208/2/60 
f 208/2/60 163/17/60 162/18/60 
s 16
f 210/6/58 166/12/58 163/13/58 
f 163/13/58 208/14/58 210/6/58 
s 64
f 151/11/59 204/6/59 149/9/59 
f 149/9/59 148/10/59 151/11/59 
f 164/11/59 211/6/59 162/9/59 
f 162/9/59 161/10/59 164/11/59 
s 4
f 181/2/57 213/17/57 185/18/57 
f 185/18/57 182/1/57 181/2/57 
s 16
f 180/6/58 214/12/58 213/13/58 
f 213/13/58 181/14/58 180/6/58 
s 64
f 215/11/59 184/6/59 185/9/59 
f 185/9/59 216/10/59 215/11/59 
s 4
f 194/2/60 217/17/60 198/18/60 
f 198/18/60 195/1/60 194/2/60 
s 16
f 193/6/58 218/12/58 217/13/58 
f 217/13/58 194/14/58 193/6/58 
s 64
f 219/11/59 197/6/59 198/9/59 
f 198/9/59 220/10/59 219/11/59 
s 4
f 216/18/57 185/1/57 213/2/57 
f 213/2/57 221/17/57 216/18/57 
s 16
f 214/6/58 222/12/58 221/13/58 
f 221/13/58 213/14/58 214/6/58 
s 4
f 220/18/60 198/1/60 217/2/60 
f 217/2/60 223/17/60 220/18/60 
s 16
f 218/6/58 224/12/58 223/13/58 
f 223/13/58 217/14/58 218/6/58 
s 64
f 225/11/59 215/6/59 216/9/59 
f 216/9/59 175/10/59 225/11/59 
f 226/11/59 219/6/59 220/9/59 
f 220/9/59 188/10/59 226/11/59 
s 4
f 175/20/57 216/1/57 221/2/57 
f 221/2/57 176/19/57 175/20/57 
s 16
f 222/6/58 179/12/58 176/13/58 
f 176/13/58 221/14/58 222/6/58 
s 4
f 188/20/60 220/1/60 223/2/60 
f 223/2/60 189/19/60 188/20/60 
s 16
f 224/6/58 192/12/58 189/13/58 
f 189/13/58 223/14/58 224/6/58 
s 64
f 177/11/59 225/6/59 175/9/59 
f 175/9/59 174/10/59 177/11/59 
f 190/11/59 226/6/59 188/9/59 
f 188/9/59 187/10/59 190/11/59 
f 205/11/59 158/6/59 159/9/59 
f 159/9/59 199/10/59 205/11/59 
f 212/11/59 171/6/59 172/9/59 
f 172/9/59 206/10/59 212/11/59 
s 4
f 155/2/57 200/15/57 159/16/57 
f 159/16/57 156/1/57 155/2/57 
s 16
f 154/6/58 202/12/58 200/13/58 
f 200/13/58 155/14/58 154/6/58 
s 4
f 168/2/60 207/15/60 172/16/60 
f 172/16/60 169/1/60 168/2/60 
s 16
f 167/6/58 209/12/58 207/13/58 
f 207/13/58 168/14/58 167/6/58 
s 4
f 123/16/57 227/1/57 228/2/57 
f 228/2/57 124/15/57 123/16/57 
s 16
f 229/6/58 127/12/58 124/13/58 
f 124/13/58 228/14/58 229/6/58 
s 64
f 125/11/59 230/6/59 123/9/59 
f 123/9/59 122/10/59 125/11/59 
s 4
f 136/16/60 231/1/60 232/2/60 
f 232/2/60 137/15/60 136/16/60 
s 16
f 233/6/58 140/12/58 137/13/58 
f 137/13/58 232/14/58 233/6/58 
s 64
f 138/11/59 234/6/59 136/9/59 
f 136/9/59 135/10/59 138/11/59 
f 230/11/59 235/6/59 227/9/59 
f 227/9/59 123/10/59 230/11/59 
f 234/11/59 236/6/59 231/9/59 
f 231/9/59 136/10/59 234/11/59 
s 4
f 227/4/57 132/1/57 237/2/57 
f 237/2/57 228/3/57 227/4/57 
s 16
f 238/6/58 229/12/58 228/13/58 
f 228/13/58 237/14/58 238/6/58 
s 4
f 231/4/60 145/1/60 239/2/60 
f 239/2/60 232/3/60 231/4/60 
s 16
f 240/6/58 233/12/58 232/13/58 
f 232/13/58 239/14/58 240/6/58 
s 64
f 132/9/59 227/10/59 235/11/59 
f 235/11/59 133/6/59 132/9/59 
f 145/9/59 231/10/59 236/11/59 
f 236/11/59 146/6/59 145/9/59 
s 4
f 129/2/57 237/3/57 132/4/57 
f 132/4/57 130/1/57 129/2/57 
s 16
f 128/6/58 238/12/58 237/13/58 
f 237/13/58 129/14/58 128/6/58 
s 4
f 142/2/60 239/3/60 145/4/60 
f 145/4/60 143/1/60 142/2/60 
s 16
f 141/6/58 240/12/58 239/13/58 
f 239/13/58 142/14/58 141/6/58 
s off
f 241/21/4 242/22/4 243/23/4 
f 243/23/4 244/24/4 241/21/4 
f 244/24/4 243/23/4 245/25/4 
f 245/25/4 246/26/4 244/24/4 
f 243/27/61 242/28/61 247/29/61 
f 242/30/58 241/30/58 248/31/58 
f 249/32/59 250/32/59 251/33/59 
f 252/21/4 253/22/4 254/23/4 
f 254/23/4 255/24/4 252/21/4 
f 256/26/4 257/25/4 250/34/4 
f 250/34/4 249/35/4 256/26/4 
f 255/24/4 254/23/4 257/25/4 
f 257/25/4 256/26/4 255/24/4 
f 250/36/62 257/37/62 258/38/62 
f 254/27/61 253/28/61 259/29/61 
f 253/30/58 252/30/58 260/31/58 
# 0 polygons - 352 triangles

