# 3ds Max Wavefront OBJ Exporter v0.97b - (c)2007 guruware
# File Created: 22.09.2018 10:03:14

#
# object Elevated_Node_Pavement
#

v  3.5000 0.0000 -26.6667
v  5.0000 0.0000 -26.6667
v  5.0000 0.0000 -32.0000
v  3.5000 0.0000 -32.0000
v  -3.5000 -0.3000 -26.6667
v  0.0000 -0.3000 -26.6667
v  0.0000 -0.3000 -32.0000
v  -3.5000 -0.3000 -32.0000
v  -5.0000 0.0000 -26.6667
v  -3.5000 0.0000 -26.6667
v  -3.5000 0.0000 -32.0000
v  -5.0000 0.0000 -32.0000
v  3.5000 -0.3000 -26.6667
v  3.5000 -0.3000 -32.0000
v  -4.2500 -1.1500 -32.0000
v  -4.2500 -1.1500 -26.6667
v  -4.7500 -1.1500 -26.6667
v  -4.7500 -1.1500 -32.0000
v  -4.5500 1.0000 -32.0000
v  -5.0500 1.0000 -32.0000
v  -5.0500 1.0000 -26.6667
v  -4.5500 1.0000 -26.6667
v  -4.7500 -1.0000 -26.6667
v  -4.7500 -1.0000 -32.0000
v  -4.5000 0.0000 -26.6667
v  -4.5000 0.0000 -32.0000
v  4.2500 -1.1500 -26.6667
v  4.2500 -1.1500 -32.0000
v  4.7500 -1.1500 -32.0000
v  4.7500 -1.1500 -26.6667
v  4.5500 1.0000 -26.6667
v  5.0500 1.0000 -26.6667
v  5.0500 1.0000 -32.0000
v  4.5500 1.0000 -32.0000
v  4.7500 -1.0000 -32.0000
v  4.7500 -1.0000 -26.6667
v  4.5000 0.0000 -32.0000
v  4.5000 0.0000 -26.6667
v  -3.5000 -3.0000 -32.0000
v  0.0000 -3.0000 -32.0000
v  0.0000 -3.0000 -26.6667
v  -3.5000 -3.0000 -26.6667
v  3.5000 -3.0000 -32.0000
v  3.5000 -3.0000 -26.6667
v  5.1250 1.0000 -32.0000
v  5.1250 1.0000 -26.6667
v  4.3750 1.0000 -26.6667
v  4.3750 1.0000 -32.0000
v  5.1500 1.3000 -32.0000
v  4.3750 1.3000 -32.0000
v  4.3750 1.3000 -26.6667
v  5.1500 1.3000 -26.6667
v  -4.3750 1.0000 -32.0000
v  -4.3750 1.0000 -26.6667
v  -5.1250 1.0000 -26.6667
v  -5.1250 1.0000 -32.0000
v  -4.3750 1.3000 -32.0000
v  -5.1500 1.3000 -32.0000
v  -5.1500 1.3000 -26.6667
v  -4.3750 1.3000 -26.6667
# 60 vertices

vn 0.0994 0.9950 -0.0000
vn 0.4403 0.8979 0.0004
vn 0.0000 1.0000 -0.0001
vn -0.4403 0.8979 -0.0001
vn -0.0995 0.9950 -0.0002
vn -1.0000 0.0000 -0.0000
vn 1.0000 0.0000 -0.0003
vn 0.0000 -1.0000 -0.0000
vn -0.9701 -0.2425 -0.0000
vn -0.9892 -0.1469 -0.0001
vn -0.9944 -0.1059 -0.0001
vn 0.9988 0.0499 0.0001
vn 0.9701 -0.2425 -0.0000
vn 0.9892 -0.1469 -0.0001
vn 0.9970 -0.0774 0.0002
vn -0.9988 0.0499 0.0002
vn 0.9267 -0.3757 -0.0000
vn -0.9267 -0.3757 -0.0000
vn 0.6207 -0.7841 -0.0000
vn 0.9965 -0.0830 -0.0000
vn -0.6206 -0.7841 -0.0004
vn -0.9965 -0.0830 -0.0002
vn 0.0000 0.0008 1.0000
# 23 vertex normals

vt 1.0001 1.0000 0.0000
vt 0.8067 1.0000 0.0000
vt 0.8067 0.9167 0.0000
vt 1.0001 0.9167 0.0000
vt 0.0001 0.0000 0.0000
vt 0.1372 0.0000 0.0000
vt 0.1372 0.0833 0.0000
vt 0.0001 0.0833 0.0000
vt 0.8067 0.0000 0.0000
vt 1.0001 0.0000 0.0000
vt 1.0001 0.0833 0.0000
vt 0.8067 0.0833 0.0000
vt 0.9807 -0.0000 0.0000
vt 1.0001 -0.0000 0.0000
vt 0.9807 0.0833 0.0000
vt 0.8166 0.9167 0.0000
vt 0.8166 1.0000 0.0000
vt 0.7671 1.0000 0.0000
vt 0.7671 0.9167 0.0000
vt 0.4152 4.3914 0.0000
vt 1.4152 4.3914 0.0000
vt 1.4152 4.4747 0.0000
vt 0.4152 4.4747 0.0000
vt 0.7671 0.0833 0.0000
vt 0.7671 0.0000 0.0000
vt 0.8166 0.0000 0.0000
vt 0.8166 0.0833 0.0000
vt 0.6621 0.6686 0.0000
vt 0.6621 1.0019 0.0000
vt 0.5211 1.0019 0.0000
vt 0.5211 0.6686 0.0000
vt 0.5211 1.0000 0.0000
vt 0.3687 1.0000 0.0000
vt 0.3687 0.6686 0.0000
vt 0.7696 1.0000 0.0000
vt 0.7696 0.6686 0.0000
vt 0.8166 0.6686 0.0000
vt 0.4152 3.4747 0.0000
vt 1.4152 3.4747 0.0000
vt 1.4152 3.5581 0.0000
vt 0.4152 3.5581 0.0000
vt 0.6621 0.0020 0.0000
vt 0.6621 0.3353 0.0000
vt 0.5211 0.3353 0.0000
vt 0.5211 0.0020 0.0000
vt 0.5211 0.0000 0.0000
vt 0.3687 0.3353 0.0000
vt 0.3687 0.0000 0.0000
vt 0.7696 0.3353 0.0000
vt 0.7696 0.0000 0.0000
vt 0.8166 0.3353 0.0000
vt 0.8189 0.0833 0.0000
vt 0.8990 0.0833 0.0000
vt 0.8990 0.0000 0.0000
vt 0.8189 0.0000 0.0000
vt 0.7657 0.9167 0.0000
vt 0.6633 0.9167 0.0000
vt 0.6633 1.0000 0.0000
vt 0.7657 1.0000 0.0000
vt 0.7657 0.0000 0.0000
vt 0.6633 0.0000 0.0000
vt 0.6633 0.0833 0.0000
vt 0.7657 0.0833 0.0000
vt 0.7696 0.0833 0.0000
vt 0.7696 0.9165 0.0000
vt 0.7696 0.9998 0.0000
vt 0.8166 0.9998 0.0000
vt 0.8166 0.9165 0.0000
vt 0.9791 0.0833 0.0000
vt 0.9791 0.0000 0.0000
vt 0.0146 0.2747 0.0000
vt 0.0097 0.4945 0.0000
vt 0.0583 0.4945 0.0000
vt 0.0631 0.2747 0.0000
vt 0.0024 0.7692 0.0000
vt 0.0000 1.0000 0.0000
vt 0.1338 1.0000 0.0000
vt 0.1338 0.7692 0.0000
vt 0.9089 0.6167 0.0000
vt 0.8589 0.6167 0.0000
vt 0.8589 0.6667 0.0000
vt 0.8339 1.0000 0.0000
vt 0.9839 1.0000 0.0000
vt 0.9839 0.9000 0.0000
vt 0.9839 0.0000 0.0000
vt 0.9815 0.8923 0.0000
vt 0.9815 0.9923 0.0000
vt 0.8315 0.9923 0.0000
vt 0.8565 0.6590 0.0000
vt 0.8565 0.6090 0.0000
vt 0.9065 0.6090 0.0000
vt 0.9815 -0.0077 0.0000
vt 0.8222 0.0589 0.0000
vt 0.9730 0.0624 0.0000
vt 0.9730 0.9624 0.0000
vt 0.8222 0.9589 0.0000
# 96 texture coords

g Elevated_Node_Pavement
s 1
f 1/1/1 2/2/2 3/3/2 
f 3/3/2 4/4/1 1/1/1 
f 5/5/3 6/6/3 7/7/3 
f 7/7/3 8/8/3 5/5/3 
f 9/9/4 10/10/5 11/11/5 
f 11/11/5 12/12/4 9/9/4 
s off
f 13/13/6 1/14/6 4/11/6 
f 4/11/6 14/15/6 13/13/6 
f 10/14/7 5/13/7 8/15/7 
f 8/15/7 11/11/7 10/14/7 
s 1
f 13/5/3 14/8/3 7/7/3 
f 7/7/3 6/6/3 13/5/3 
s 2
f 15/16/8 16/17/8 17/18/8 
f 17/18/8 18/19/8 15/16/8 
s 4
f 19/20/3 20/21/3 21/22/3 
f 21/22/3 22/23/3 19/20/3 
s off
f 18/24/6 17/25/6 23/26/6 
f 23/26/6 24/27/6 18/24/6 
s 16
f 24/28/9 23/29/9 9/30/10 
f 9/30/10 12/31/10 24/28/9 
f 12/31/10 9/32/10 21/33/11 
f 21/33/11 20/34/11 12/31/10 
s 64
f 25/35/12 26/36/12 19/37/12 
f 19/37/12 22/17/12 25/35/12 
s 2
f 27/26/8 28/27/8 29/24/8 
f 29/24/8 30/25/8 27/26/8 
s 4
f 31/38/3 32/39/3 33/40/3 
f 33/40/3 34/41/3 31/38/3 
s off
f 30/18/7 29/19/7 35/16/7 
f 35/16/7 36/17/7 30/18/7 
s 16
f 36/42/13 35/43/13 3/44/14 
f 3/44/14 2/45/14 36/42/13 
f 2/46/14 3/44/14 33/47/15 
f 33/47/15 32/48/15 2/46/14 
s 64
f 37/49/16 38/50/16 31/26/16 
f 31/26/16 34/51/16 37/49/16 
s off
f 39/52/8 40/53/8 41/54/8 
f 41/54/8 42/55/8 39/52/8 
f 43/56/17 28/57/17 27/58/17 
f 27/58/17 44/59/17 43/56/17 
f 42/60/18 16/61/18 15/62/18 
f 15/62/18 39/63/18 42/60/18 
s 2
f 45/27/19 46/26/19 47/50/8 
f 47/50/8 48/64/8 45/27/19 
s off
f 49/27/3 50/64/3 51/50/3 
f 51/50/3 52/26/3 49/27/3 
s 2
f 49/27/20 52/26/20 46/50/19 
f 46/50/19 45/64/19 49/27/20 
s off
f 51/26/6 50/27/6 48/64/6 
f 48/64/6 47/50/6 51/26/6 
s 2
f 53/65/8 54/66/8 55/67/21 
f 55/67/21 56/68/21 53/65/8 
s off
f 57/65/3 58/68/3 59/67/3 
f 59/67/3 60/66/3 57/65/3 
f 57/27/7 60/26/7 54/50/7 
f 54/50/7 53/64/7 57/27/7 
s 2
f 59/26/22 58/27/22 56/64/21 
f 56/64/21 55/50/21 59/26/22 
s off
f 43/69/8 44/70/8 41/54/8 
f 41/54/8 40/53/8 43/69/8 
f 2/71/23 32/72/23 31/73/23 
f 31/73/23 38/74/23 2/71/23 
f 46/75/23 52/76/23 51/77/23 
f 51/77/23 47/78/23 46/75/23 
f 60/77/23 59/76/23 55/75/23 
f 55/75/23 54/78/23 60/77/23 
f 9/71/23 25/74/23 22/73/23 
f 22/73/23 21/72/23 9/71/23 
f 27/79/23 30/80/23 36/81/23 
f 27/79/23 36/81/23 2/82/23 
f 2/82/23 1/83/23 13/84/23 
f 27/79/23 2/82/23 13/84/23 
f 44/85/23 27/79/23 13/84/23 
f 5/86/23 10/87/23 9/88/23 
f 23/89/23 17/90/23 16/91/23 
f 9/88/23 23/89/23 16/91/23 
f 5/86/23 9/88/23 16/91/23 
f 42/92/23 5/86/23 16/91/23 
f 42/93/23 41/94/23 6/95/23 
f 6/95/23 5/96/23 42/93/23 
f 13/95/23 6/96/23 41/93/23 
f 41/93/23 44/94/23 13/95/23 
# 0 polygons - 82 triangles

