# 3ds Max Wavefront OBJ Exporter v0.97b - (c)2007 guruware
# File Created: 22.12.2016 19:44:34

#
# object elevated_steel_nubs_for_third_rail
#

v  -0.6500 0.2000 -26.4855
v  -0.3000 0.2000 -26.4855
v  -0.3000 0.2000 -26.8355
v  -0.6500 0.2000 -26.8355
v  -0.6500 0.0000 -26.4855
v  -0.3000 0.0000 -26.4855
v  -0.3000 0.0000 -26.8355
v  -0.6500 0.0000 -26.8355
v  -0.6498 0.2000 26.8400
v  -0.2998 0.2000 26.8400
v  -0.2998 0.2000 26.4900
v  -0.6498 0.2000 26.4900
v  -0.6498 0.0000 26.8400
v  -0.2998 0.0000 26.8400
v  -0.2998 0.0000 26.4900
v  -0.6498 0.0000 26.4900
v  -0.6500 0.2000 16.1749
v  -0.3000 0.2000 16.1749
v  -0.3000 0.2000 15.8249
v  -0.6500 0.2000 15.8249
v  -0.6500 0.0000 16.1749
v  -0.3000 0.0000 16.1749
v  -0.3000 0.0000 15.8249
v  -0.6500 0.0000 15.8249
v  -0.6500 0.2000 5.5098
v  -0.3000 0.2000 5.5098
v  -0.3000 0.2000 5.1598
v  -0.6500 0.2000 5.1598
v  -0.6500 0.0000 5.5098
v  -0.3000 0.0000 5.5098
v  -0.3000 0.0000 5.1598
v  -0.6500 0.0000 5.1598
v  -0.6500 0.2000 -5.1553
v  -0.3000 0.2000 -5.1553
v  -0.3000 0.2000 -5.5053
v  -0.6500 0.2000 -5.5053
v  -0.6500 0.0000 -5.1553
v  -0.3000 0.0000 -5.1553
v  -0.3000 0.0000 -5.5053
v  -0.6500 0.0000 -5.5053
v  -0.6500 0.2000 -15.8204
v  -0.3000 0.2000 -15.8204
v  -0.3000 0.2000 -16.1704
v  -0.6500 0.2000 -16.1704
v  -0.6500 0.0000 -15.8204
v  -0.3000 0.0000 -15.8204
v  -0.3000 0.0000 -16.1704
v  -0.6500 0.0000 -16.1704
v  0.3000 0.2000 -26.4859
v  0.6500 0.2000 -26.4859
v  0.6500 0.2000 -26.8359
v  0.3000 0.2000 -26.8359
v  0.3000 0.0000 -26.4859
v  0.6500 0.0000 -26.4859
v  0.6500 0.0000 -26.8359
v  0.3000 0.0000 -26.8359
v  0.3000 0.2000 -15.8208
v  0.6500 0.2000 -15.8208
v  0.6500 0.2000 -16.1708
v  0.3000 0.2000 -16.1708
v  0.3000 0.0000 -15.8208
v  0.6500 0.0000 -15.8208
v  0.6500 0.0000 -16.1708
v  0.3000 0.0000 -16.1708
v  0.3000 0.2000 -5.1557
v  0.6500 0.2000 -5.1557
v  0.6500 0.2000 -5.5057
v  0.3000 0.2000 -5.5057
v  0.3000 0.0000 -5.1557
v  0.6500 0.0000 -5.1557
v  0.6500 0.0000 -5.5057
v  0.3000 0.0000 -5.5057
v  0.3000 0.2000 5.5094
v  0.6500 0.2000 5.5094
v  0.6500 0.2000 5.1594
v  0.3000 0.2000 5.1594
v  0.3000 0.0000 5.5094
v  0.6500 0.0000 5.5094
v  0.6500 0.0000 5.1594
v  0.3000 0.0000 5.1594
v  0.3000 0.2000 16.1745
v  0.6500 0.2000 16.1745
v  0.6500 0.2000 15.8245
v  0.3000 0.2000 15.8245
v  0.3000 0.0000 16.1745
v  0.6500 0.0000 16.1745
v  0.6500 0.0000 15.8245
v  0.3000 0.0000 15.8245
v  0.3000 0.2000 26.8396
v  0.6500 0.2000 26.8396
v  0.6500 0.2000 26.4896
v  0.3000 0.2000 26.4896
v  0.3000 0.0000 26.8396
v  0.6500 0.0000 26.8396
v  0.6500 0.0000 26.4896
v  0.3000 0.0000 26.4896
# 96 vertices

vn 0.0000 1.0000 -0.0000
vn 0.0000 0.0000 1.0000
vn 1.0000 0.0000 0.0000
vn 0.0000 0.0000 -1.0000
vn -1.0000 0.0000 -0.0000
# 5 vertex normals

vt 0.9283 0.3593 0.0000
vt 0.9636 0.3593 0.0000
vt 0.9636 0.4243 0.0000
vt 0.9283 0.4243 0.0000
# 4 texture coords

g elevated_steel_nubs_for_third_rail
s 4
f 1/1/1 2/2/1 3/3/1 
f 3/3/1 4/4/1 1/1/1 
s 8
f 5/1/2 6/2/2 2/3/2 
f 2/3/2 1/4/2 5/1/2 
s 16
f 6/1/3 7/2/3 3/3/3 
f 3/3/3 2/4/3 6/1/3 
s 32
f 7/1/4 8/2/4 4/3/4 
f 4/3/4 3/4/4 7/1/4 
s 64
f 8/1/5 5/2/5 1/3/5 
f 1/3/5 4/4/5 8/1/5 
s 4
f 9/1/1 10/2/1 11/3/1 
f 11/3/1 12/4/1 9/1/1 
s 8
f 13/1/2 14/2/2 10/3/2 
f 10/3/2 9/4/2 13/1/2 
s 16
f 14/1/3 15/2/3 11/3/3 
f 11/3/3 10/4/3 14/1/3 
s 32
f 15/1/4 16/2/4 12/3/4 
f 12/3/4 11/4/4 15/1/4 
s 64
f 16/1/5 13/2/5 9/3/5 
f 9/3/5 12/4/5 16/1/5 
s 4
f 17/1/1 18/2/1 19/3/1 
f 19/3/1 20/4/1 17/1/1 
s 8
f 21/1/2 22/2/2 18/3/2 
f 18/3/2 17/4/2 21/1/2 
s 16
f 22/1/3 23/2/3 19/3/3 
f 19/3/3 18/4/3 22/1/3 
s 32
f 23/1/4 24/2/4 20/3/4 
f 20/3/4 19/4/4 23/1/4 
s 64
f 24/1/5 21/2/5 17/3/5 
f 17/3/5 20/4/5 24/1/5 
s 4
f 25/1/1 26/2/1 27/3/1 
f 27/3/1 28/4/1 25/1/1 
s 8
f 29/1/2 30/2/2 26/3/2 
f 26/3/2 25/4/2 29/1/2 
s 16
f 30/1/3 31/2/3 27/3/3 
f 27/3/3 26/4/3 30/1/3 
s 32
f 31/1/4 32/2/4 28/3/4 
f 28/3/4 27/4/4 31/1/4 
s 64
f 32/1/5 29/2/5 25/3/5 
f 25/3/5 28/4/5 32/1/5 
s 4
f 33/1/1 34/2/1 35/3/1 
f 35/3/1 36/4/1 33/1/1 
s 8
f 37/1/2 38/2/2 34/3/2 
f 34/3/2 33/4/2 37/1/2 
s 16
f 38/1/3 39/2/3 35/3/3 
f 35/3/3 34/4/3 38/1/3 
s 32
f 39/1/4 40/2/4 36/3/4 
f 36/3/4 35/4/4 39/1/4 
s 64
f 40/1/5 37/2/5 33/3/5 
f 33/3/5 36/4/5 40/1/5 
s 4
f 41/1/1 42/2/1 43/3/1 
f 43/3/1 44/4/1 41/1/1 
s 8
f 45/1/2 46/2/2 42/3/2 
f 42/3/2 41/4/2 45/1/2 
s 16
f 46/1/3 47/2/3 43/3/3 
f 43/3/3 42/4/3 46/1/3 
s 32
f 47/1/4 48/2/4 44/3/4 
f 44/3/4 43/4/4 47/1/4 
s 64
f 48/1/5 45/2/5 41/3/5 
f 41/3/5 44/4/5 48/1/5 
s 4
f 49/1/1 50/2/1 51/3/1 
f 51/3/1 52/4/1 49/1/1 
s 8
f 53/1/2 54/2/2 50/3/2 
f 50/3/2 49/4/2 53/1/2 
s 16
f 54/1/3 55/2/3 51/3/3 
f 51/3/3 50/4/3 54/1/3 
s 32
f 55/1/4 56/2/4 52/3/4 
f 52/3/4 51/4/4 55/1/4 
s 64
f 56/1/5 53/2/5 49/3/5 
f 49/3/5 52/4/5 56/1/5 
s 4
f 57/1/1 58/2/1 59/3/1 
f 59/3/1 60/4/1 57/1/1 
s 8
f 61/1/2 62/2/2 58/3/2 
f 58/3/2 57/4/2 61/1/2 
s 16
f 62/1/3 63/2/3 59/3/3 
f 59/3/3 58/4/3 62/1/3 
s 32
f 63/1/4 64/2/4 60/3/4 
f 60/3/4 59/4/4 63/1/4 
s 64
f 64/1/5 61/2/5 57/3/5 
f 57/3/5 60/4/5 64/1/5 
s 4
f 65/1/1 66/2/1 67/3/1 
f 67/3/1 68/4/1 65/1/1 
s 8
f 69/1/2 70/2/2 66/3/2 
f 66/3/2 65/4/2 69/1/2 
s 16
f 70/1/3 71/2/3 67/3/3 
f 67/3/3 66/4/3 70/1/3 
s 32
f 71/1/4 72/2/4 68/3/4 
f 68/3/4 67/4/4 71/1/4 
s 64
f 72/1/5 69/2/5 65/3/5 
f 65/3/5 68/4/5 72/1/5 
s 4
f 73/1/1 74/2/1 75/3/1 
f 75/3/1 76/4/1 73/1/1 
s 8
f 77/1/2 78/2/2 74/3/2 
f 74/3/2 73/4/2 77/1/2 
s 16
f 78/1/3 79/2/3 75/3/3 
f 75/3/3 74/4/3 78/1/3 
s 32
f 79/1/4 80/2/4 76/3/4 
f 76/3/4 75/4/4 79/1/4 
s 64
f 80/1/5 77/2/5 73/3/5 
f 73/3/5 76/4/5 80/1/5 
s 4
f 81/1/1 82/2/1 83/3/1 
f 83/3/1 84/4/1 81/1/1 
s 8
f 85/1/2 86/2/2 82/3/2 
f 82/3/2 81/4/2 85/1/2 
s 16
f 86/1/3 87/2/3 83/3/3 
f 83/3/3 82/4/3 86/1/3 
s 32
f 87/1/4 88/2/4 84/3/4 
f 84/3/4 83/4/4 87/1/4 
s 64
f 88/1/5 85/2/5 81/3/5 
f 81/3/5 84/4/5 88/1/5 
s 4
f 89/1/1 90/2/1 91/3/1 
f 91/3/1 92/4/1 89/1/1 
s 8
f 93/1/2 94/2/2 90/3/2 
f 90/3/2 89/4/2 93/1/2 
s 16
f 94/1/3 95/2/3 91/3/3 
f 91/3/3 90/4/3 94/1/3 
s 32
f 95/1/4 96/2/4 92/3/4 
f 92/3/4 91/4/4 95/1/4 
s 64
f 96/1/5 93/2/5 89/3/5 
f 89/3/5 92/4/5 96/1/5 
# 120 faces

