# 3ds Max Wavefront OBJ Exporter v0.97b - (c)2007 guruware
# File Created: 22.09.2017 07:44:22

#
# object Ground_Pavement
#

v  -8.0000 -3.1650 -0.0000
v  -5.0000 0.0500 -0.0000
v  -5.0000 0.0500 -5.3333
v  -8.0000 -3.1650 -5.3333
v  8.0000 -3.1650 -0.0000
v  5.0000 0.0500 -0.0000
v  5.0000 0.0500 5.3333
v  8.0000 -3.1650 5.3333
v  -8.0000 -3.1650 32.0000
v  -5.0000 0.0500 32.0000
v  -5.0000 0.0500 26.6667
v  -8.0000 -3.1650 26.6667
v  -5.0000 0.0500 21.3333
v  -8.0000 -3.1650 21.3333
v  -5.0000 0.0500 16.0000
v  -8.0000 -3.1650 16.0000
v  -5.0000 0.0500 10.6667
v  -8.0000 -3.1650 10.6667
v  -5.0000 0.0500 5.3333
v  -8.0000 -3.1650 5.3333
v  -5.0000 0.0500 -32.0000
v  -8.0000 -3.1650 -32.0000
v  -8.0000 -3.1650 -26.6667
v  -5.0000 0.0500 -26.6667
v  -8.0000 -3.1650 -21.3333
v  -5.0000 0.0500 -21.3333
v  -8.0000 -3.1650 -16.0000
v  -5.0000 0.0500 -16.0000
v  -8.0000 -3.1650 -10.6667
v  -5.0000 0.0500 -10.6667
v  8.0000 -3.1650 -32.0000
v  5.0000 0.0500 -32.0000
v  5.0000 0.0500 -26.6667
v  8.0000 -3.1650 -26.6667
v  5.0000 0.0500 -21.3333
v  8.0000 -3.1650 -21.3333
v  5.0000 0.0500 -16.0000
v  8.0000 -3.1650 -16.0000
v  5.0000 0.0500 -10.6667
v  8.0000 -3.1650 -10.6667
v  5.0000 0.0500 -5.3333
v  8.0000 -3.1650 -5.3333
v  5.0000 0.0500 32.0000
v  8.0000 -3.1650 32.0000
v  8.0000 -3.1650 26.6667
v  5.0000 0.0500 26.6667
v  8.0000 -3.1650 21.3333
v  5.0000 0.0500 21.3333
v  8.0000 -3.1650 16.0000
v  5.0000 0.0500 16.0000
v  8.0000 -3.1650 10.6667
v  5.0000 0.0500 10.6667
# 52 vertices

vn -0.7311 0.6822 -0.0000
vn 0.7311 0.6822 -0.0000
vn 0.0000 1.0000 -0.0000
# 3 vertex normals

vt 0.1226 0.4999 0.0000
vt 0.1317 0.4999 0.0000
vt 0.1317 0.5832 0.0000
vt 0.1226 0.5832 0.0000
vt 0.1226 0.0000 0.0000
vt 0.1317 0.0000 0.0000
vt 0.1317 0.0833 0.0000
vt 0.1226 0.0833 0.0000
vt 0.1317 0.1666 0.0000
vt 0.1226 0.1666 0.0000
vt 0.1317 0.2500 0.0000
vt 0.1226 0.2500 0.0000
vt 0.1317 0.3333 0.0000
vt 0.1226 0.3333 0.0000
vt 0.1317 0.4166 0.0000
vt 0.1226 0.4166 0.0000
vt 0.1317 0.9998 0.0000
vt 0.1226 0.9998 0.0000
vt 0.1226 0.9165 0.0000
vt 0.1317 0.9165 0.0000
vt 0.1226 0.8332 0.0000
vt 0.1317 0.8332 0.0000
vt 0.1226 0.7499 0.0000
vt 0.1317 0.7499 0.0000
vt 0.1226 0.6665 0.0000
vt 0.1317 0.6665 0.0000
vt 0.1226 -0.0000 0.0000
vt 0.1196 0.5000 0.0000
vt 0.1196 0.4167 0.0000
vt 0.8826 0.4167 0.0000
vt 0.8826 0.5000 0.0000
vt 0.1196 0.3333 0.0000
vt 0.8826 0.3333 0.0000
vt 0.1196 0.2500 0.0000
vt 0.8826 0.2500 0.0000
vt 0.1196 0.1667 0.0000
vt 0.8826 0.1667 0.0000
vt 0.1196 0.0833 0.0000
vt 0.8826 0.0833 0.0000
vt 0.1196 0.0000 0.0000
vt 0.8826 0.0000 0.0000
vt 0.1196 0.5833 0.0000
vt 0.8826 0.5833 0.0000
vt 0.8826 0.6667 0.0000
vt 0.1196 0.6667 0.0000
vt 0.8826 0.7500 0.0000
vt 0.1196 0.7500 0.0000
vt 0.8826 0.8333 0.0000
vt 0.1196 0.8333 0.0000
vt 0.8826 0.9167 0.0000
vt 0.1196 0.9167 0.0000
vt 0.8826 1.0000 0.0000
vt 0.1196 1.0000 0.0000
# 53 texture coords

g Ground_Pavement
s off
f 1/1/1 2/2/1 3/3/1 
f 3/3/1 4/4/1 1/1/1 
f 5/1/2 6/2/2 7/3/2 
f 7/3/2 8/4/2 5/1/2 
f 9/5/1 10/6/1 11/7/1 
f 11/7/1 12/8/1 9/5/1 
f 12/8/1 11/7/1 13/9/1 
f 13/9/1 14/10/1 12/8/1 
f 14/10/1 13/9/1 15/11/1 
f 15/11/1 16/12/1 14/10/1 
f 16/12/1 15/11/1 17/13/1 
f 17/13/1 18/14/1 16/12/1 
f 18/14/1 17/13/1 19/15/1 
f 19/15/1 20/16/1 18/14/1 
f 20/16/1 19/15/1 2/2/1 
f 2/2/1 1/1/1 20/16/1 
f 21/17/1 22/18/1 23/19/1 
f 23/19/1 24/20/1 21/17/1 
f 24/20/1 23/19/1 25/21/1 
f 25/21/1 26/22/1 24/20/1 
f 26/22/1 25/21/1 27/23/1 
f 27/23/1 28/24/1 26/22/1 
f 28/24/1 27/23/1 29/25/1 
f 29/25/1 30/26/1 28/24/1 
f 30/26/1 29/25/1 4/4/1 
f 4/4/1 3/3/1 30/26/1 
f 31/27/2 32/6/2 33/7/2 
f 33/7/2 34/8/2 31/27/2 
f 34/8/2 33/7/2 35/9/2 
f 35/9/2 36/10/2 34/8/2 
f 36/10/2 35/9/2 37/11/2 
f 37/11/2 38/12/2 36/10/2 
f 38/12/2 37/11/2 39/13/2 
f 39/13/2 40/14/2 38/12/2 
f 40/14/2 39/13/2 41/15/2 
f 41/15/2 42/16/2 40/14/2 
f 42/16/2 41/15/2 6/2/2 
f 6/2/2 5/1/2 42/16/2 
f 43/17/2 44/18/2 45/19/2 
f 45/19/2 46/20/2 43/17/2 
f 46/20/2 45/19/2 47/21/2 
f 47/21/2 48/22/2 46/20/2 
f 48/22/2 47/21/2 49/23/2 
f 49/23/2 50/24/2 48/22/2 
f 50/24/2 49/23/2 51/25/2 
f 51/25/2 52/26/2 50/24/2 
f 52/26/2 51/25/2 8/4/2 
f 8/4/2 7/3/2 52/26/2 
f 2/28/3 19/29/3 7/30/3 
f 7/30/3 6/31/3 2/28/3 
f 19/29/3 17/32/3 52/33/3 
f 52/33/3 7/30/3 19/29/3 
f 17/32/3 15/34/3 50/35/3 
f 50/35/3 52/33/3 17/32/3 
f 15/34/3 13/36/3 48/37/3 
f 48/37/3 50/35/3 15/34/3 
f 13/36/3 11/38/3 46/39/3 
f 46/39/3 48/37/3 13/36/3 
f 46/39/3 11/38/3 10/40/3 
f 10/40/3 43/41/3 46/39/3 
f 3/42/3 2/28/3 6/31/3 
f 6/31/3 41/43/3 3/42/3 
f 41/43/3 39/44/3 30/45/3 
f 30/45/3 3/42/3 41/43/3 
f 39/44/3 37/46/3 28/47/3 
f 28/47/3 30/45/3 39/44/3 
f 37/46/3 35/48/3 26/49/3 
f 26/49/3 28/47/3 37/46/3 
f 35/48/3 33/50/3 24/51/3 
f 24/51/3 26/49/3 35/48/3 
f 24/51/3 33/50/3 32/52/3 
f 32/52/3 21/53/3 24/51/3 
# 0 polygons - 72 triangles

