# 3ds Max Wavefront OBJ Exporter v0.97b - (c)2007 guruware
# File Created: 26.02.2019 11:01:10

#
# object Ground_Pavement_LOD
#

v  -5.0000 0.0500 32.0000
v  5.0000 0.0500 32.0000
v  5.0000 0.0500 16.0000
v  -5.0000 0.0500 16.0000
v  5.0000 0.0500 -0.0000
v  -5.0000 0.0500 -0.0000
v  5.0000 0.0500 -16.0000
v  -5.0000 0.0500 -16.0000
v  5.0000 0.0500 -32.0000
v  -5.0000 0.0500 -32.0000
# 10 vertices

vn 0.0000 1.0000 -0.0000
# 1 vertex normals

vt 0.0066 0.0001 0.0000
vt 1.0004 0.0001 0.0000
vt 1.0004 0.2500 0.0000
vt 0.0066 0.2500 0.0000
vt 1.0004 0.5000 0.0000
vt 0.0066 0.5000 0.0000
vt 1.0004 0.7500 0.0000
vt 0.0066 0.7500 0.0000
vt 1.0004 0.9999 0.0000
vt 0.0066 0.9999 0.0000
# 10 texture coords

g Ground_Pavement_LOD
s off
f 1/1/1 2/2/1 3/3/1 
f 3/3/1 4/4/1 1/1/1 
f 4/4/1 3/3/1 5/5/1 
f 5/5/1 6/6/1 4/4/1 
f 6/6/1 5/5/1 7/7/1 
f 7/7/1 8/8/1 6/6/1 
f 8/8/1 7/7/1 9/9/1 
f 9/9/1 10/10/1 8/8/1 
# 0 polygons - 8 triangles

