# 3ds Max Wavefront OBJ Exporter v0.97b - (c)2007 guruware
# File Created: 12.12.2016 21:22:10

#
# object Plane013
#

v  -3.0000 0.0500 32.0000
v  -3.0000 0.0500 -0.0000
v  -5.0000 0.0500 -0.0000
v  -5.0000 0.0500 32.0000
v  -3.0000 0.0500 -32.0000
v  -5.0000 0.0500 -32.0000
v  3.0000 0.0500 32.0000
v  3.0000 0.0500 -0.0000
v  0.0000 0.0500 -0.0000
v  0.0000 0.0500 32.0000
v  3.0000 0.0500 -32.0000
v  0.0000 0.0500 -32.0000
v  5.0000 0.0500 32.0000
v  5.0000 0.0500 -0.0000
v  5.0000 0.0500 -32.0000
v  4.7000 2.7000 32.0000
v  5.0000 2.7000 32.0000
v  5.0000 2.7000 -0.0000
v  4.7000 2.7000 -0.0000
v  4.7000 0.0500 32.0000
v  4.7000 0.0500 -0.0000
v  -5.0000 2.7000 32.0000
v  -4.7000 2.7000 32.0000
v  -4.7000 2.7000 -0.0000
v  -5.0000 2.7000 -0.0000
v  -4.7000 0.0500 32.0000
v  -4.7000 0.0500 -0.0000
# 27 vertices

vn 0.0000 1.0000 -0.0000
vn 0.0000 0.0000 1.0000
vn 1.0000 0.0000 -0.0000
vn -1.0000 0.0000 -0.0000
# 4 vertex normals

vt 0.2677 0.0000 0.0000
vt 0.2677 0.5000 0.0000
vt 0.1175 0.5000 0.0000
vt 0.1175 0.0000 0.0000
vt 0.2677 1.0000 0.0000
vt 0.1175 1.0000 0.0000
vt 0.7182 0.0000 0.0000
vt 0.7182 0.5000 0.0000
vt 0.4929 0.5000 0.0000
vt 0.4929 0.0000 0.0000
vt 0.7182 1.0000 0.0000
vt 0.4929 1.0000 0.0000
vt 0.8684 0.0000 0.0000
vt 0.8684 0.5000 0.0000
vt 0.8684 1.0000 0.0000
vt 0.0000 1.3175 0.0000
vt 1.0000 1.3175 0.0000
vt 1.0000 1.8175 0.0000
vt 0.0000 1.8175 0.0000
vt 0.9860 0.0000 0.0000
vt 0.9860 1.0000 0.0000
vt 0.9228 1.0000 0.0000
vt 0.9228 0.0000 0.0000
vt 0.9860 0.5000 0.0000
vt 0.9228 0.5000 0.0000
vt 0.0000 0.0000 0.0000
vt 1.0000 0.0000 0.0000
vt 1.0000 0.5000 0.0000
vt 0.0000 0.5000 0.0000
# 29 texture coords

g Plane013
s off
f 1/1/1 2/2/1 3/3/1 
f 3/3/1 4/4/1 1/1/1 
f 2/2/1 5/5/1 6/6/1 
f 6/6/1 3/3/1 2/2/1 
f 7/7/1 8/8/1 9/9/1 
f 9/9/1 10/10/1 7/7/1 
f 8/8/1 11/11/1 12/12/1 
f 12/12/1 9/9/1 8/8/1 
f 13/13/1 14/14/1 8/8/1 
f 8/8/1 7/7/1 13/13/1 
f 14/14/1 15/15/1 11/11/1 
f 11/11/1 8/8/1 14/14/1 
f 10/10/1 9/9/1 2/2/1 
f 2/2/1 1/1/1 10/10/1 
f 9/9/1 12/12/1 5/5/1 
f 5/5/1 2/2/1 9/9/1 
f 16/16/1 17/17/1 18/18/1 
f 18/18/1 19/19/1 16/16/1 
f 20/20/2 13/21/2 17/22/2 
f 17/22/2 16/23/2 20/20/2 
f 13/20/3 14/24/3 18/25/3 
f 18/25/3 17/23/3 13/20/3 
f 20/21/4 16/22/4 19/25/4 
f 19/25/4 21/24/4 20/21/4 
f 22/26/1 23/27/1 24/28/1 
f 24/28/1 25/29/1 22/26/1 
f 4/20/2 26/21/2 23/22/2 
f 23/22/2 22/23/2 4/20/2 
f 26/20/3 27/24/3 24/25/3 
f 24/25/3 23/23/3 26/20/3 
f 4/21/4 22/22/4 25/25/4 
f 25/25/4 3/24/4 4/21/4 
# 32 faces

