# 3ds Max Wavefront OBJ Exporter v0.97b - (c)2007 guruware
# File Created: 22.12.2016 19:44:38

#
# object Level_Crossing_Pavement
#

v  -3.5000 0.2000 -5.3333
v  -3.5000 0.2000 -0.0000
v  0.0068 0.2000 -5.3333
v  0.0048 0.2000 -0.0000
v  3.5000 0.2000 -5.3333
v  3.5000 0.2000 -0.0000
v  5.9931 -0.3000 -5.3333
v  5.9931 -0.3000 -0.0000
v  -3.5000 0.2000 5.3333
v  -6.0031 -0.3000 5.3333
v  -6.0031 -0.3000 -0.0000
v  -3.5000 0.2000 26.6667
v  -3.5000 0.2000 32.0000
v  -0.0050 0.2000 26.6667
v  -0.0070 0.2000 32.0000
v  -3.5000 0.2000 21.3333
v  -0.0030 0.2000 21.3333
v  -3.5000 0.2000 16.0000
v  -0.0010 0.2000 16.0000
v  -3.5000 0.2000 10.6667
v  0.0008 0.2000 10.6667
v  0.0028 0.2000 5.3333
v  0.0126 0.2000 -21.3333
v  -3.5000 0.2000 -21.3333
v  0.0106 0.2000 -16.0000
v  -3.5000 0.2000 -16.0000
v  0.0088 0.2000 -10.6667
v  -3.5000 0.2000 -10.6667
v  3.5000 0.2000 26.6667
v  3.5000 0.2000 32.0000
v  5.9931 -0.3000 26.6667
v  5.9931 -0.3000 32.0000
v  3.5000 0.2000 21.3333
v  5.9931 -0.3000 21.3333
v  3.5000 0.2000 16.0000
v  5.9931 -0.3000 16.0000
v  3.5000 0.2000 10.6667
v  5.9931 -0.3000 10.6667
v  3.5000 0.2000 5.3333
v  5.9931 -0.3000 5.3333
v  5.9931 -0.3000 -16.0000
v  5.9931 -0.3000 -21.3333
v  3.5000 0.2000 -16.0000
v  3.5000 0.2000 -21.3333
v  5.9931 -0.3000 -10.6667
v  3.5000 0.2000 -10.6667
v  -6.0031 -0.3000 -16.0000
v  -6.0038 -0.3000 -21.3333
v  -6.0031 -0.3000 -10.6667
v  -6.0031 -0.3000 -5.3333
v  -6.0031 -0.3000 26.6667
v  -6.0031 -0.3000 32.0000
v  -6.0031 -0.3000 21.3333
v  -6.0031 -0.3000 16.0000
v  -6.0031 -0.3000 10.6667
v  -2.4861 0.5000 -26.6667
v  -2.2095 -0.3000 -26.6667
v  -2.2112 -0.3000 -32.0000
v  -2.4849 0.5000 -32.0000
v  -4.9455 -0.3000 -32.0000
v  -5.2084 0.5000 -32.0000
v  -5.2069 0.5000 -26.6667
v  -4.9425 -0.3000 -26.6667
v  -0.8691 0.5000 -32.0000
v  -1.1377 -0.3000 -32.0000
v  -1.1347 -0.3000 -26.6667
v  -0.8676 0.5000 -26.6667
v  -3.5915 0.5000 -32.0000
v  -3.8711 -0.3000 -32.0000
v  -3.8695 -0.3000 -26.6667
v  -3.5927 0.5000 -26.6667
v  -4.1448 0.5000 -32.0000
v  -4.4137 -0.3000 -32.0000
v  -4.4108 -0.3000 -26.6667
v  -4.1434 0.5000 -26.6667
v  -4.6766 0.5000 -32.0000
v  -4.6752 0.5000 -26.6667
v  -6.0060 -0.3000 -26.6667
v  -5.7387 0.5000 -26.6667
v  -5.7402 0.5000 -32.0000
v  -6.0060 -0.3000 -32.0000
v  -5.4743 -0.3000 -26.6667
v  -5.4743 -0.3000 -32.0000
v  -0.3454 0.4841 -31.9995
v  -0.6065 -0.3000 -32.0000
v  -0.6035 -0.3000 -26.6667
v  -0.3364 0.5000 -26.6667
v  -1.9301 0.5000 -26.6667
v  -1.6659 -0.3000 -26.6667
v  -1.6689 -0.3000 -32.0000
v  -1.9316 0.5000 -32.0000
v  -1.3989 0.5000 -26.6667
v  -1.4003 0.5000 -32.0000
v  -3.0420 0.5000 -26.6667
v  -2.7655 -0.3000 -26.6667
v  -2.7645 -0.3000 -32.0000
v  -3.0382 0.5000 -32.0000
v  -3.3178 -0.3000 -32.0000
v  -3.3189 -0.3000 -26.6667
v  0.3387 0.4841 -32.0016
v  -0.0044 -0.3003 -32.0001
v  -0.0015 -0.3003 -26.6668
v  0.3279 0.5000 -26.6667
v  2.4761 0.5000 -26.6667
v  2.4749 0.5000 -32.0000
v  2.1953 -0.3000 -32.0000
v  2.1966 -0.3000 -26.6667
v  4.9295 -0.3000 -32.0000
v  4.9296 -0.3000 -26.6667
v  5.1969 0.5000 -26.6667
v  5.1984 0.5000 -32.0000
v  0.8591 0.5000 -32.0000
v  0.8577 0.5000 -26.6667
v  1.1218 -0.3000 -26.6667
v  1.1218 -0.3000 -32.0000
v  3.5815 0.5000 -32.0000
v  3.5827 0.5000 -26.6667
v  3.8566 -0.3000 -26.6667
v  3.8552 -0.3000 -32.0000
v  4.1348 0.5000 -32.0000
v  4.1334 0.5000 -26.6667
v  4.3978 -0.3000 -26.6667
v  4.3978 -0.3000 -32.0000
v  4.6652 0.5000 -26.6667
v  4.6666 0.5000 -32.0000
v  5.9931 -0.3000 -26.6667
v  5.9931 -0.3000 -32.0000
v  5.7302 0.5000 -32.0000
v  5.7287 0.5000 -26.6667
v  5.4613 -0.3000 -32.0000
v  5.4613 -0.3000 -26.6667
v  0.5906 -0.3000 -26.6667
v  0.5906 -0.3000 -32.0000
v  1.9201 0.5000 -26.6667
v  1.9216 0.5000 -32.0000
v  1.6530 -0.3000 -32.0000
v  1.6530 -0.3000 -26.6667
v  1.3903 0.5000 -32.0000
v  1.3889 0.5000 -26.6667
v  3.0321 0.5000 -26.6667
v  3.0282 0.5000 -32.0000
v  2.7486 -0.3000 -32.0000
v  2.7526 -0.3000 -26.6667
v  3.3059 -0.3000 -26.6667
v  3.3019 -0.3000 -32.0000
v  -2.4872 0.5000 -21.3333
v  -2.2079 -0.3000 -21.3333
v  -5.2055 0.5000 -21.3333
v  -4.9396 -0.3000 -21.3333
v  -1.1318 -0.3000 -21.3333
v  -0.8662 0.5000 -21.3333
v  -3.8679 -0.3000 -21.3333
v  -3.5939 0.5000 -21.3333
v  -4.4078 -0.3000 -21.3333
v  -4.1420 0.5000 -21.3333
v  -4.6737 0.5000 -21.3333
v  -5.7372 0.5000 -21.3333
v  -5.4713 -0.3000 -21.3333
v  -0.6006 -0.3000 -21.3333
v  -0.3350 0.5000 -21.3333
v  -1.9286 0.5000 -21.3333
v  -1.6630 -0.3000 -21.3333
v  -1.3974 0.5000 -21.3333
v  -3.0459 0.5000 -21.3333
v  -2.7666 -0.3000 -21.3333
v  -3.3199 -0.3000 -21.3333
v  -0.0025 -0.3002 -21.3334
v  0.3279 0.5000 -21.3333
v  2.4773 0.5000 -21.3333
v  2.1979 -0.3000 -21.3333
v  4.9296 -0.3000 -21.3333
v  5.1955 0.5000 -21.3333
v  0.8562 0.5000 -21.3333
v  1.1218 -0.3000 -21.3333
v  3.5839 0.5000 -21.3333
v  3.8580 -0.3000 -21.3333
v  4.1320 0.5000 -21.3333
v  4.3978 -0.3000 -21.3333
v  4.6637 0.5000 -21.3333
v  5.7272 0.5000 -21.3333
v  5.4613 -0.3000 -21.3333
v  0.5906 -0.3000 -21.3333
v  1.9186 0.5000 -21.3333
v  1.6530 -0.3000 -21.3333
v  1.3874 0.5000 -21.3333
v  3.0359 0.5000 -21.3333
v  2.7566 -0.3000 -21.3333
v  3.3099 -0.3000 -21.3333
v  -3.0063 -0.3000 -21.3333
v  -3.0063 -0.3000 -26.6667
v  -0.0065 -0.3000 -26.6667
v  2.9933 -0.3000 -21.3333
v  2.9933 -0.3000 -26.6667
v  -3.0063 -0.3000 -32.0000
v  -0.0065 -0.3000 -32.0000
v  2.9933 -0.3000 -32.0000
v  5.9931 0.0500 -32.0000
v  -6.0060 0.0500 -32.0000
# 198 vertices

vn -0.0984 0.9951 -0.0000
vn 0.0000 1.0000 -0.0000
vn 0.0988 0.9951 -0.0000
vn 0.1966 0.9805 -0.0000
vn -0.1959 0.9806 -0.0000
vn -0.0984 0.9951 0.0000
vn -0.1959 0.9806 0.0000
vn -0.1958 0.9806 0.0000
vn 0.9451 0.3268 -0.0003
vn 0.9462 0.3237 0.0002
vn 0.9500 0.3122 -0.0003
vn 0.9495 0.3138 -0.0005
vn -0.9480 0.3183 0.0005
vn -0.9485 0.3167 0.0003
vn -0.9440 0.3299 0.0003
vn -0.9450 0.3270 -0.0002
vn -0.9479 0.3186 0.0005
vn -0.9484 0.3170 0.0002
vn 0.9500 0.3122 -0.0002
vn -0.9485 0.3169 0.0002
vn -0.9485 0.3169 0.0003
vn -0.9490 0.3153 -0.0000
vn 0.9495 0.3138 -0.0000
vn 0.9490 0.3154 -0.0003
vn -0.9484 0.3170 0.0003
vn -0.9490 0.3154 -0.0000
vn -0.9488 0.3159 0.0005
vn -0.9485 0.3167 0.0007
vn 0.9501 0.3119 -0.0003
vn 0.9496 0.3135 -0.0005
vn 0.9496 0.3136 -0.0005
vn 0.9501 0.3120 -0.0003
vn -0.9486 0.3166 0.0002
vn 0.9501 0.3119 -0.0002
vn 0.9451 0.3267 0.0002
vn 0.9462 0.3237 0.0007
vn -0.9441 0.3297 -0.0002
vn -0.9440 0.3299 -0.0002
vn -0.9441 0.3297 0.0003
vn -0.9450 0.3271 -0.0007
vn 0.9461 0.3238 0.0002
vn 0.9461 0.3239 -0.0003
vn 0.9462 0.3237 -0.0002
vn -0.9162 0.4007 0.0005
vn -0.9247 0.3806 -0.0030
vn 0.9171 0.3987 -0.0027
vn 0.9225 0.3860 -0.0005
vn -0.9440 0.3299 0.0002
vn -0.9440 0.3298 0.0002
vn -0.9485 0.3169 0.0000
vn -0.9479 0.3186 -0.0003
vn 0.9496 0.3135 0.0002
vn 0.9501 0.3120 -0.0000
vn 0.9461 0.3239 -0.0002
vn 0.9495 0.3138 0.0002
vn 0.9500 0.3123 -0.0000
vn -0.9484 0.3170 -0.0000
vn -0.9479 0.3185 -0.0002
vn 0.9500 0.3122 -0.0000
vn 0.9495 0.3138 0.0003
vn 0.9501 0.3120 0.0010
vn 0.9521 0.3059 -0.0000
vn -0.9485 0.3167 -0.0000
vn -0.9480 0.3182 -0.0002
vn -0.9480 0.3183 -0.0003
vn -0.9440 0.3299 0.0007
vn -0.9440 0.3298 0.0007
vn 0.9462 0.3237 -0.0007
vn 0.9451 0.3267 -0.0002
vn 0.9451 0.3267 0.0003
vn 0.9461 0.3238 -0.0007
vn -0.9450 0.3270 0.0007
vn -0.9450 0.3270 0.0002
vn 0.9441 0.3296 -0.0003
vn 0.9451 0.3268 0.0002
vn 0.9495 0.3138 -0.0002
vn 0.9490 0.3154 -0.0005
vn -0.9485 0.3167 0.0005
vn -0.9491 0.3151 0.0002
vn -0.9450 0.3270 0.0003
vn -0.9460 0.3240 -0.0002
vn -0.9484 0.3170 0.0005
vn -0.9490 0.3153 0.0002
vn 0.9495 0.3138 -0.0003
vn -0.9485 0.3169 0.0005
vn -0.9490 0.3154 0.0003
vn -0.9487 0.3162 0.0003
vn -0.9485 0.3169 0.0004
vn 0.9496 0.3135 -0.0002
vn 0.9491 0.3151 -0.0005
vn 0.9496 0.3136 -0.0003
vn -0.9491 0.3151 0.0003
vn -0.9486 0.3166 0.0005
vn 0.9441 0.3296 0.0002
vn 0.9451 0.3267 0.0007
vn -0.9441 0.3296 0.0003
vn -0.9450 0.3271 -0.0002
vn -0.9460 0.3240 -0.0007
vn 0.9460 0.3240 0.0002
vn 0.9460 0.3241 -0.0003
vn -0.9247 0.3806 -0.0002
vn -0.9243 0.3816 -0.0000
vn 0.9225 0.3860 -0.0002
vn 0.9235 0.3837 0.0002
vn -0.9441 0.3297 0.0002
vn -0.9485 0.3169 -0.0002
vn 0.9491 0.3151 0.0003
vn 0.9496 0.3135 -0.0000
vn 0.9460 0.3241 -0.0002
vn 0.9490 0.3153 0.0002
vn -0.9484 0.3170 -0.0003
vn 0.9490 0.3154 0.0003
vn -0.9491 0.3151 -0.0000
vn -0.9485 0.3167 -0.0003
vn -0.9441 0.3296 0.0007
vn 0.9451 0.3267 -0.0007
vn 0.9441 0.3296 -0.0002
vn 0.9441 0.3296 0.0003
vn 0.9460 0.3240 -0.0007
vn -0.9460 0.3240 0.0007
vn -0.9460 0.3240 0.0002
vn 0.0000 1.0000 0.0000
vn -0.0001 1.0000 -0.0000
vn -0.0000 1.0000 0.0000
vn 0.0000 0.4511 -0.8925
vn 0.0000 0.0000 -1.0000
vn 0.0000 0.0000 1.0000
# 127 vertex normals

vt 0.3911 0.7230 0.0000
vt 0.3911 0.9711 0.0000
vt 0.7422 0.7230 0.0000
vt 0.7423 0.9711 0.0000
vt 0.4224 0.7460 0.0000
vt 0.4224 0.9943 0.0000
vt 0.1761 0.7460 0.0000
vt 0.1761 0.9943 0.0000
vt 0.4208 0.2498 0.0000
vt 0.4208 0.0016 0.0000
vt 0.1745 0.2498 0.0000
vt 0.1745 0.0016 0.0000
vt 0.3911 0.9002 0.0000
vt 0.3911 1.0000 0.0000
vt 0.7428 0.9002 0.0000
vt 0.7429 1.0000 0.0000
vt 0.3911 0.8003 0.0000
vt 0.7427 0.8003 0.0000
vt 0.3894 0.7150 0.0000
vt 0.3894 0.9631 0.0000
vt 0.7410 0.7150 0.0000
vt 0.7411 0.9631 0.0000
vt 0.3894 0.5392 0.0000
vt 0.3894 0.7873 0.0000
vt 0.7409 0.5392 0.0000
vt 0.7410 0.7873 0.0000
vt 0.3894 0.2238 0.0000
vt 0.3894 0.4722 0.0000
vt 0.7408 0.2238 0.0000
vt 0.7409 0.4722 0.0000
vt 0.3894 0.0427 0.0000
vt 0.3894 0.2908 0.0000
vt 0.7407 0.0427 0.0000
vt 0.7408 0.2908 0.0000
vt 0.7419 0.0025 0.0000
vt 0.3911 0.0025 0.0000
vt 0.7420 0.2506 0.0000
vt 0.3911 0.2506 0.0000
vt 0.7421 0.4987 0.0000
vt 0.3911 0.4987 0.0000
vt 0.7422 0.7471 0.0000
vt 0.3911 0.7471 0.0000
vt 0.4224 0.9001 0.0000
vt 0.4224 1.0000 0.0000
vt 0.1761 0.9001 0.0000
vt 0.1761 1.0000 0.0000
vt 0.4224 0.8001 0.0000
vt 0.1761 0.8001 0.0000
vt 0.4208 0.7466 0.0000
vt 0.4208 0.9949 0.0000
vt 0.1745 0.7466 0.0000
vt 0.1745 0.9949 0.0000
vt 0.4208 0.4984 0.0000
vt 0.1745 0.4984 0.0000
vt 0.1761 0.2492 0.0000
vt 0.1761 0.0009 0.0000
vt 0.4224 0.2492 0.0000
vt 0.4224 0.0009 0.0000
vt 0.1761 0.4975 0.0000
vt 0.4224 0.4975 0.0000
vt 0.7441 1.0000 0.0000
vt 0.3891 1.0000 0.0000
vt 0.7440 0.9002 0.0000
vt 0.3891 0.9002 0.0000
vt 0.7439 0.8003 0.0000
vt 0.3891 0.8003 0.0000
vt 0.7423 0.9631 0.0000
vt 0.3875 0.9631 0.0000
vt 0.7422 0.7150 0.0000
vt 0.3875 0.7150 0.0000
vt 0.7422 0.7873 0.0000
vt 0.3875 0.7873 0.0000
vt 0.7421 0.5392 0.0000
vt 0.3875 0.5392 0.0000
vt 0.7421 0.4722 0.0000
vt 0.3875 0.4722 0.0000
vt 0.7420 0.2238 0.0000
vt 0.3875 0.2238 0.0000
vt 0.7420 0.2908 0.0000
vt 0.3875 0.2908 0.0000
vt 0.7419 0.0427 0.0000
vt 0.3875 0.0427 0.0000
vt 0.7435 0.9711 0.0000
vt 0.3891 0.9711 0.0000
vt 0.7434 0.7242 0.0000
vt 0.3891 0.7242 0.0000
vt 0.7434 0.7483 0.0000
vt 0.3891 0.7483 0.0000
vt 0.7433 0.4999 0.0000
vt 0.3891 0.4999 0.0000
vt 0.7432 0.2506 0.0000
vt 0.3891 0.2506 0.0000
vt 0.7431 0.0025 0.0000
vt 0.3891 0.0025 0.0000
vt 0.9641 0.0833 0.0000
vt 0.9301 0.0833 0.0000
vt 0.9298 0.0000 0.0000
vt 0.9634 0.0000 0.0000
vt 0.8451 0.0000 0.0000
vt 0.8834 0.0000 0.0000
vt 0.8834 0.0833 0.0000
vt 0.8451 0.0833 0.0000
vt 0.8828 0.0000 0.0000
vt 0.9212 0.0000 0.0000
vt 0.9212 0.0833 0.0000
vt 0.8828 0.0833 0.0000
vt 0.9641 0.0000 0.0000
vt 0.9977 0.0000 0.0000
vt 0.9981 0.0833 0.0000
vt 0.9648 0.0833 0.0000
vt 0.8784 0.0000 0.0000
vt 0.9166 0.0000 0.0000
vt 0.9166 0.0833 0.0000
vt 0.8784 0.0833 0.0000
vt 0.9549 0.0000 0.0000
vt 0.9549 0.0833 0.0000
vt 0.9931 0.0000 0.0000
vt 0.9931 0.0833 0.0000
vt 0.9598 0.0833 0.0000
vt 0.9598 0.0000 0.0000
vt 0.9981 0.0000 0.0000
vt 0.9216 0.0833 0.0000
vt 0.9216 0.0000 0.0000
vt 0.9397 0.0000 0.0000
vt 0.9782 0.0000 0.0000
vt 0.9782 0.0833 0.0000
vt 0.9397 0.0833 0.0000
vt 0.8443 0.0000 0.0000
vt 0.8443 0.0833 0.0000
vt 0.8962 0.0833 0.0000
vt 0.8577 0.0833 0.0000
vt 0.8577 0.0000 0.0000
vt 0.8962 0.0000 0.0000
vt 0.9596 0.0833 0.0000
vt 0.9596 0.0000 0.0000
vt 0.8982 0.0833 0.0000
vt 0.8642 0.0833 0.0000
vt 0.8632 0.0000 0.0000
vt 0.8968 0.0000 0.0000
vt 0.9970 0.0000 0.0000
vt 0.9305 0.0000 0.0000
vt 0.9315 0.0833 0.0000
vt 0.8448 0.0000 0.0000
vt 0.3584 0.0000 0.0000
vt 0.4292 0.0000 0.0000
vt 0.4292 0.5000 0.0000
vt 0.3584 0.5000 0.0000
vt 0.5000 0.0000 0.0000
vt 0.5000 0.5000 0.0000
vt 0.5708 0.0000 0.0000
vt 0.5708 0.5000 0.0000
vt 0.6416 0.0000 0.0000
vt 0.6416 0.5000 0.0000
vt 0.4292 1.0000 0.0000
vt 0.3584 1.0000 0.0000
vt 0.5000 1.0000 0.0000
vt 0.5708 1.0000 0.0000
vt 0.6416 1.0000 0.0000
vt 0.3928 0.1667 0.0000
vt 0.8237 0.1667 0.0000
vt 0.5018 0.1667 0.0000
vt 0.6088 0.1667 0.0000
vt 0.9402 0.0181 0.0000
vt 0.9831 0.0181 0.0000
vt 0.9831 0.9939 0.0000
vt 0.9402 0.9939 0.0000
# 166 texture coords

g Level_Crossing_Pavement
s 1
f 1/1/1 2/2/1 3/3/2 
f 4/4/2 3/3/2 2/2/1 
f 5/5/3 6/6/3 7/7/4 
f 8/8/4 7/7/4 6/6/3 
f 9/9/1 2/10/1 10/11/5 
f 11/12/5 10/11/5 2/10/1 
f 12/13/1 13/14/1 14/15/2 
f 15/16/2 14/15/2 13/14/1 
f 16/17/1 12/13/1 17/18/2 
f 14/15/2 17/18/2 12/13/1 
f 18/19/1 16/20/1 19/21/2 
f 17/22/2 19/21/2 16/20/1 
f 20/23/1 18/24/1 21/25/2 
f 19/26/2 21/25/2 18/24/1 
f 9/27/1 20/28/1 22/29/2 
f 21/30/2 22/29/2 20/28/1 
f 2/31/1 9/32/1 4/33/2 
f 22/34/2 4/33/2 9/32/1 
f 23/35/2 24/36/6 25/37/2 
f 26/38/1 25/37/2 24/36/6 
f 25/37/2 26/38/1 27/39/2 
f 28/40/1 27/39/2 26/38/1 
f 27/39/2 28/40/1 3/41/2 
f 1/42/1 3/41/2 28/40/1 
f 29/43/3 30/44/3 31/45/4 
f 32/46/4 31/45/4 30/44/3 
f 33/47/3 29/43/3 34/48/4 
f 31/45/4 34/48/4 29/43/3 
f 35/49/3 33/50/3 36/51/4 
f 34/52/4 36/51/4 33/50/3 
f 37/53/3 35/49/3 38/54/4 
f 36/51/4 38/54/4 35/49/3 
f 39/9/3 37/53/3 40/11/4 
f 38/54/4 40/11/4 37/53/3 
f 6/10/3 39/9/3 8/12/4 
f 40/11/4 8/12/4 39/9/3 
f 41/55/4 42/56/4 43/57/3 
f 44/58/3 43/57/3 42/56/4 
f 45/59/4 41/55/4 46/60/3 
f 43/57/3 46/60/3 41/55/4 
f 7/7/4 45/59/4 5/5/3 
f 46/60/3 5/5/3 45/59/4 
f 26/57/1 24/58/6 47/55/7 
f 48/56/8 47/55/7 24/58/6 
f 28/60/1 26/57/1 49/59/5 
f 47/55/7 49/59/5 26/57/1 
f 1/5/1 28/60/1 50/7/5 
f 49/59/5 50/7/5 28/60/1 
f 2/6/1 1/5/1 11/8/5 
f 50/7/5 11/8/5 1/5/1 
f 51/45/5 52/46/5 12/43/1 
f 13/44/1 12/43/1 52/46/5 
f 53/48/5 51/45/5 16/47/1 
f 12/43/1 16/47/1 51/45/5 
f 54/51/5 53/52/5 18/49/1 
f 16/50/1 18/49/1 53/52/5 
f 55/54/5 54/51/5 20/53/1 
f 18/49/1 20/53/1 54/51/5 
f 10/11/5 55/54/5 9/9/1 
f 20/53/1 9/9/1 55/54/5 
f 15/61/2 30/62/3 14/63/2 
f 29/64/3 14/63/2 30/62/3 
f 14/63/2 29/64/3 17/65/2 
f 33/66/3 17/65/2 29/64/3 
f 17/67/2 33/68/3 19/69/2 
f 35/70/3 19/69/2 33/68/3 
f 19/71/2 35/72/3 21/73/2 
f 37/74/3 21/73/2 35/72/3 
f 21/75/2 37/76/3 22/77/2 
f 39/78/3 22/77/2 37/76/3 
f 22/79/2 39/80/3 4/81/2 
f 6/82/3 4/81/2 39/80/3 
f 4/83/2 6/84/3 3/85/2 
f 5/86/3 3/85/2 6/84/3 
f 3/87/2 5/88/3 27/89/2 
f 46/90/3 27/89/2 5/88/3 
f 27/89/2 46/90/3 25/91/2 
f 43/92/3 25/91/2 46/90/3 
f 25/91/2 43/92/3 23/93/2 
f 44/94/3 23/93/2 43/92/3 
s off
f 56/95/9 57/96/9 58/97/9 
f 58/97/10 59/98/10 56/95/10 
f 60/99/11 61/100/11 62/101/11 
f 62/101/12 63/102/12 60/99/12 
f 64/103/13 65/104/13 66/105/13 
f 66/105/14 67/106/14 64/103/14 
f 68/107/15 69/108/15 70/109/15 
f 70/109/16 71/110/16 68/107/16 
f 72/111/17 73/112/17 74/113/17 
f 74/113/18 75/114/18 72/111/18 
f 73/112/19 76/115/19 77/116/19 
f 77/116/12 74/113/12 73/112/12 
f 76/115/17 60/117/17 63/118/17 
f 63/118/20 77/116/20 76/115/20 
f 78/109/21 79/119/21 80/120/21 
f 80/120/22 81/121/22 78/109/22 
f 79/119/23 82/122/23 83/123/23 
f 83/123/24 80/120/24 79/119/24 
f 82/122/25 62/101/25 61/100/25 
f 61/100/26 83/123/26 82/122/26 
f 84/124/27 85/125/27 86/126/27 
f 86/126/28 87/127/28 84/124/28 
f 85/128/29 64/103/29 67/106/29 
f 67/106/30 86/129/30 85/128/30 
f 88/130/31 89/131/31 90/132/31 
f 90/132/32 91/133/32 88/130/32 
f 89/109/33 92/134/33 93/135/33 
f 93/135/13 90/121/13 89/109/13 
f 92/134/31 66/105/31 65/104/31 
f 65/104/34 93/135/34 92/134/34 
f 94/136/35 95/137/35 96/138/35 
f 96/138/36 97/139/36 94/136/36 
f 95/109/37 56/95/37 59/98/37 
f 59/98/38 96/140/38 95/109/38 
f 91/133/15 58/97/15 57/96/15 
f 57/96/39 88/130/39 91/133/39 
f 97/139/38 98/141/38 99/142/38 
f 99/142/40 94/136/40 97/139/40 
f 98/141/10 68/107/10 71/110/10 
f 71/110/41 99/142/41 98/141/41 
f 75/114/42 70/102/42 69/143/42 
f 69/143/43 72/111/43 75/114/43 
f 100/124/44 101/125/44 102/126/44 
f 102/126/45 103/127/45 100/124/45 
f 101/128/46 84/103/46 87/106/46 
f 87/106/47 102/129/47 101/128/47 
f 104/95/48 105/98/48 106/97/48 
f 106/97/49 107/96/49 104/95/49 
f 108/99/50 109/102/50 110/101/50 
f 110/101/51 111/100/51 108/99/51 
f 112/103/52 113/106/52 114/105/52 
f 114/105/53 115/104/53 112/103/53 
f 116/107/54 117/110/54 118/109/54 
f 118/109/43 119/108/43 116/107/43 
f 120/111/55 121/114/55 122/113/55 
f 122/113/56 123/112/56 120/111/56 
f 123/112/57 122/113/57 124/116/57 
f 124/116/58 125/115/58 123/112/58 
f 125/115/55 124/116/55 109/118/55 
f 109/118/59 108/117/59 125/115/59 
f 126/109/59 127/121/59 128/120/59 
f 128/120/60 129/119/60 126/109/60 
f 129/119/51 128/120/51 130/123/51 
f 130/123/57 131/122/57 129/119/57 
f 131/122/59 130/123/59 111/100/59 
f 111/100/60 110/101/60 131/122/60 
f 100/124/61 103/127/61 132/126/61 
f 132/126/62 133/125/62 100/124/62 
f 133/128/63 132/129/63 113/106/63 
f 113/106/64 112/103/64 133/128/64 
f 134/130/65 135/133/65 136/132/65 
f 136/132/63 137/131/63 134/130/63 
f 137/109/53 136/121/53 138/135/53 
f 138/135/52 139/134/52 137/109/52 
f 139/134/64 138/135/64 115/104/64 
f 115/104/63 114/105/63 139/134/63 
f 140/136/66 141/139/66 142/138/66 
f 142/138/67 143/137/67 140/136/67 
f 143/109/68 142/140/68 105/98/68 
f 105/98/69 104/95/69 143/109/69 
f 135/133/70 134/130/70 107/96/70 
f 107/96/43 106/97/43 135/133/43 
f 141/139/71 140/136/71 144/142/71 
f 144/142/68 145/141/68 141/139/68 
f 145/141/72 144/142/72 117/110/72 
f 117/110/48 116/107/48 145/141/48 
f 121/114/38 120/111/38 119/143/38 
f 119/143/73 118/102/73 121/114/73 
f 146/95/74 147/96/74 57/97/74 
f 57/97/75 56/98/75 146/95/75 
f 63/99/76 62/100/76 148/101/76 
f 148/101/77 149/102/77 63/99/77 
f 67/103/78 66/104/78 150/105/78 
f 150/105/79 151/106/79 67/103/79 
f 71/107/80 70/108/80 152/109/80 
f 152/109/81 153/110/81 71/107/81 
f 75/111/82 74/112/82 154/113/82 
f 154/113/83 155/114/83 75/111/83 
f 74/112/84 77/115/84 156/116/84 
f 156/116/77 154/113/77 74/112/77 
f 77/115/85 63/117/85 149/118/85 
f 149/118/86 156/116/86 77/115/86 
f 48/109/87 157/119/87 79/120/87 
f 79/120/88 78/121/88 48/109/88 
f 157/119/77 158/122/77 82/123/77 
f 82/123/84 79/120/84 157/119/84 
f 158/122/83 148/101/83 62/100/83 
f 62/100/82 82/123/82 158/122/82 
f 87/124/78 86/125/78 159/126/78 
f 159/126/79 160/127/79 87/124/79 
f 86/128/89 67/103/89 151/106/89 
f 151/106/90 159/129/90 86/128/90 
f 161/130/90 162/131/90 89/132/90 
f 89/132/91 88/133/91 161/130/91 
f 162/109/92 163/134/92 92/135/92 
f 92/135/93 89/121/93 162/109/93 
f 163/134/90 150/105/90 66/104/90 
f 66/104/91 92/135/91 163/134/91 
f 164/136/94 165/137/94 95/138/94 
f 95/138/95 94/139/95 164/136/95 
f 165/109/37 146/95/37 56/98/37 
f 56/98/37 95/140/37 165/109/37 
f 88/133/39 57/97/39 147/96/39 
f 147/96/96 161/130/96 88/133/96 
f 94/139/97 99/141/97 166/142/97 
f 166/142/98 164/136/98 94/139/98 
f 99/141/41 71/107/41 153/110/41 
f 153/110/99 166/142/99 99/141/99 
f 155/114/100 152/102/100 70/143/100 
f 70/143/54 75/111/54 155/114/54 
f 103/124/101 102/125/101 167/126/101 
f 167/126/102 168/127/102 103/124/102 
f 102/128/103 87/103/103 160/106/103 
f 160/106/104 167/129/104 102/128/104 
f 169/95/49 104/98/49 107/97/49 
f 107/97/105 170/96/105 169/95/105 
f 109/99/26 171/102/26 172/101/26 
f 172/101/106 110/100/106 109/99/106 
f 113/103/107 173/106/107 174/105/107 
f 174/105/108 114/104/108 113/103/108 
f 117/107/109 175/110/109 176/109/109 
f 176/109/54 118/108/54 117/107/54 
f 121/111/110 177/114/110 178/113/110 
f 178/113/23 122/112/23 121/111/23 
f 122/112/26 178/113/26 179/116/26 
f 179/116/111 124/115/111 122/112/111 
f 124/115/112 179/116/112 171/118/112 
f 171/118/23 109/117/23 124/115/23 
f 42/109/23 126/121/23 129/120/23 
f 129/120/112 180/119/112 42/109/112 
f 180/119/111 129/120/111 131/123/111 
f 131/123/26 181/122/26 180/119/26 
f 181/122/23 131/123/23 110/100/23 
f 110/100/110 172/101/110 181/122/110 
f 103/124/53 168/127/53 182/126/53 
f 182/126/53 132/125/53 103/124/53 
f 132/128/113 182/129/113 173/106/113 
f 173/106/114 113/103/114 132/128/114 
f 183/130/114 134/133/114 137/132/114 
f 137/132/113 184/131/113 183/130/113 
f 184/109/108 137/121/108 139/135/108 
f 139/135/107 185/134/107 184/109/107 
f 185/134/114 139/135/114 114/104/114 
f 114/104/113 174/105/113 185/134/113 
f 186/136/67 140/139/67 143/138/67 
f 143/138/115 187/137/115 186/136/115 
f 187/109/116 143/140/116 104/98/116 
f 104/98/117 169/95/117 187/109/117 
f 134/133/118 183/130/118 170/96/118 
f 170/96/69 107/97/69 134/133/69 
f 140/139/119 186/136/119 188/142/119 
f 188/142/71 144/141/71 140/139/71 
f 144/141/120 188/142/120 175/110/120 
f 175/110/73 117/107/73 144/141/73 
f 177/114/16 121/111/16 118/143/16 
f 118/143/121 176/102/121 177/114/121 
s 1
f 48/144/2 189/145/122 190/146/2 
f 190/146/2 78/147/2 48/144/2 
f 189/145/122 167/148/122 191/149/122 
f 191/149/122 190/146/2 189/145/122 
f 167/148/122 192/150/123 193/151/124 
f 193/151/124 191/149/122 167/148/122 
f 192/150/2 42/152/2 126/153/2 
f 126/153/2 193/151/124 192/150/123 
f 78/147/2 190/146/2 194/154/2 
f 194/154/2 81/155/2 78/147/2 
f 190/146/2 191/149/122 195/156/2 
f 195/156/2 194/154/2 190/146/2 
f 191/149/122 193/151/124 196/157/2 
f 196/157/2 195/156/2 191/149/122 
f 193/151/2 126/153/2 127/158/2 
f 127/158/2 196/157/2 193/151/124 
s off
f 182/126/125 167/126/125 159/126/125 
f 158/122/126 48/144/126 24/159/126 
f 149/118/126 158/122/126 24/159/126 
f 154/113/126 149/118/126 24/159/126 
f 152/102/126 154/113/126 24/159/126 
f 166/142/126 152/102/126 24/159/126 
f 165/137/126 166/142/126 24/159/126 
f 147/96/126 165/137/126 24/159/126 
f 162/131/126 147/96/126 24/159/126 
f 150/105/126 162/131/126 24/159/126 
f 159/126/126 150/105/126 24/159/126 
f 182/126/126 159/126/126 24/159/126 
f 174/105/126 182/126/126 24/159/126 
f 184/131/126 174/105/126 24/159/126 
f 170/96/126 184/131/126 24/159/126 
f 187/137/126 170/96/126 24/159/126 
f 188/142/126 187/137/126 24/159/126 
f 176/102/126 188/142/126 24/159/126 
f 178/113/126 176/102/126 24/159/126 
f 171/118/126 178/113/126 24/159/126 
f 181/122/126 171/118/126 24/159/126 
f 42/160/126 181/122/126 24/159/126 
f 42/160/126 24/159/126 23/161/126 
f 42/160/126 23/161/126 44/162/126 
f 127/163/127 197/164/127 198/165/127 
f 198/165/127 81/166/127 127/163/127 
# 298 faces

