# 3ds Max Wavefront OBJ Exporter v0.97b - (c)2007 guruware
# File Created: 24.02.2019 08:00:29

#
# object Object002
#

v  0.6250 0.2078 -16.0000
v  -3.3750 0.2078 -16.0000
v  -2.0000 0.2250 -0.0000
v  2.0000 0.2250 -0.0000
v  0.0000 0.2000 -32.0000
v  -4.0000 0.2000 -32.0000
v  3.3750 0.2422 16.0000
v  -0.6250 0.2422 16.0000
v  0.0000 0.2500 32.0000
v  4.0000 0.2500 32.0000
v  -4.0000 0.2000 16.0000
v  0.0000 0.2000 16.0000
v  0.0000 0.2000 -0.0000
v  -4.0000 0.2000 -0.0000
v  0.0000 0.2000 -16.0000
v  -4.0000 0.2000 -16.0000
v  -4.0000 0.2000 32.0000
v  0.0000 0.2000 32.0000
# 18 vertices

vn 0.0000 1.0000 -0.0008
vn 0.0000 1.0000 -0.0011
vn 0.0000 1.0000 -0.0005
vn 0.0000 1.0000 -0.0000
# 4 vertex normals

vt 0.0000 0.2500 0.0000
vt 0.5000 0.2500 0.0000
vt 0.5000 0.5000 0.0000
vt 0.0000 0.5000 0.0000
vt 0.0000 0.0000 0.0000
vt 0.5000 0.0000 0.0000
vt 0.0000 0.7500 0.0000
vt 0.5000 0.7500 0.0000
vt 0.5000 1.0000 0.0000
vt 0.0000 1.0000 0.0000
vt 1.0000 0.7500 0.0000
vt 1.0000 0.5000 0.0000
vt 1.0000 0.2500 0.0000
vt 1.0000 0.0000 0.0000
vt 1.0000 1.0000 0.0000
# 15 texture coords

g Object002
s 1
f 1/1/1 2/2/1 3/3/2 4/4/2 
f 5/5/3 6/6/3 2/2/1 1/1/1 
f 7/7/1 8/8/1 9/9/3 10/10/3 
f 8/8/1 7/7/1 4/4/2 3/3/2 
f 11/11/4 12/8/4 13/3/4 14/12/4 
f 15/2/4 16/13/4 14/12/4 13/3/4 
f 5/6/4 6/14/4 16/13/4 15/2/4 
f 12/8/4 11/11/4 17/15/4 18/9/4 
# 8 polygons

