# 3ds Max Wavefront OBJ Exporter v0.97b - (c)2007 guruware
# File Created: 15.09.2017 18:01:37

#
# object Box002
#

v  -0.3000 -0.0000 -16.0000
v  0.3000 -0.0000 -16.0000
v  0.3000 5.0006 -16.0000
v  -0.3000 5.0006 -16.0000
v  0.3000 -0.0000 -18.0000
v  0.3000 5.0006 -18.0000
v  -0.3000 -0.0000 -18.0000
v  -0.3000 5.0006 -18.0000
v  -0.3000 5.0006 -13.0000
v  0.3000 5.0006 -13.0000
v  0.3000 7.0006 -13.0000
v  -0.3000 7.0006 -13.0000
v  0.3000 5.0006 -32.0000
v  0.3000 5.0006 -26.6667
v  -0.3000 5.0006 -26.6667
v  -0.3000 5.0006 -32.0000
v  0.3000 7.0006 -32.0000
v  0.3000 7.0006 -26.6667
v  -0.3000 7.0006 -26.6667
v  -0.3000 7.0006 -32.0000
v  -0.3000 -0.0000 -23.0000
v  0.3000 -0.0000 -23.0000
v  0.3000 5.0006 -23.0000
v  -0.3000 5.0006 -23.0000
v  0.3000 -0.0000 -25.0000
v  0.3000 5.0006 -25.0000
v  -0.3000 -0.0000 -25.0000
v  -0.3000 5.0006 -25.0000
v  -0.3000 -0.0000 -30.0000
v  0.3000 -0.0000 -30.0000
v  0.3000 5.0006 -30.0000
v  -0.3000 5.0006 -30.0000
v  0.3000 -0.0000 -32.0000
v  -0.3000 -0.0000 -32.0000
v  0.3000 5.0006 -21.3333
v  -0.3000 5.0006 -21.3333
v  0.3000 7.0006 -21.3333
v  -0.3000 7.0006 -21.3333
v  0.3000 7.0006 -16.0000
v  -0.3000 7.0006 -16.0000
# 40 vertices

vn 0.0000 0.0000 1.0000
vn 1.0000 0.0000 -0.0000
vn 0.0000 0.0000 -1.0000
vn -1.0000 -0.0000 -0.0000
vn 0.0000 -1.0000 -0.0000
vn 1.0000 0.0000 0.0000
vn -1.0000 0.0000 -0.0000
# 7 vertex normals

vt 0.9268 0.0000 0.0000
vt 0.9655 0.0000 0.0000
vt 0.9655 1.0000 0.0000
vt 0.9268 1.0000 0.0000
vt 0.0000 0.0000 0.0000
vt 0.1214 0.0000 0.0000
vt 0.1214 1.0000 0.0000
vt 0.0000 1.0000 0.0000
vt 0.1214 0.2807 0.0000
vt 0.0000 0.2807 0.0000
vt 0.1214 0.5614 0.0000
vt 0.0000 0.5614 0.0000
vt 0.1214 0.8421 0.0000
vt 0.0000 0.8421 0.0000
# 14 texture coords

g Box002
s 8
f 1/1/1 2/2/1 3/3/1 4/4/1 
s 16
f 2/1/2 5/2/2 6/3/2 3/4/2 
s 32
f 5/1/3 7/2/3 8/3/3 6/4/3 
s 64
f 7/1/4 1/2/4 4/3/4 8/4/4 
s 4
f 9/5/1 10/6/1 11/7/1 12/8/1 
s 8
f 13/6/5 14/9/5 15/10/5 16/5/5 
s 16
f 17/6/6 18/9/6 14/10/6 13/5/6 
s 64
f 16/6/7 15/9/7 19/10/7 20/5/7 
s 8
f 21/1/1 22/2/1 23/3/1 24/4/1 
s 16
f 22/1/2 25/2/2 26/3/2 23/4/2 
s 32
f 25/1/3 27/2/3 28/3/3 26/4/3 
s 64
f 27/1/4 21/2/4 24/3/4 28/4/4 
s 8
f 29/1/1 30/2/1 31/3/1 32/4/1 
s 16
f 30/1/2 33/2/2 13/3/2 31/4/2 
s 32
f 33/1/3 34/2/3 16/3/3 13/4/3 
s 64
f 34/1/4 29/2/4 32/3/4 16/4/4 
s 8
f 35/11/5 36/12/5 15/10/5 14/9/5 
s 16
f 37/11/6 35/12/6 14/10/6 18/9/6 
s 64
f 36/11/7 38/12/7 19/10/7 15/9/7 
s 8
f 3/13/5 4/14/5 36/12/5 35/11/5 
s 16
f 39/13/6 3/14/6 35/12/6 37/11/6 
s 64
f 4/13/7 40/14/7 38/12/7 36/11/7 
s 8
f 10/7/5 9/8/5 4/14/5 3/13/5 
s 16
f 11/7/6 10/8/6 3/14/6 39/13/6 
s 64
f 9/7/7 12/8/7 40/14/7 4/13/7 
# 25 polygons

