# 3ds Max Wavefront OBJ Exporter v0.97b - (c)2007 guruware
# File Created: 16.09.2017 11:35:22

#
# object Box006
#

v  0.3000 0.0000 -16.0000
v  0.3000 5.0006 -16.0000
v  -0.3000 5.0006 -16.0000
v  -0.3000 0.0000 -16.0000
v  0.3000 0.0000 -18.0000
v  0.3000 5.0006 -18.0000
v  -0.3000 0.0000 -18.0000
v  -0.3000 5.0006 -18.0000
v  0.3000 5.0006 -13.0000
v  0.3000 7.0006 -13.0000
v  -0.3000 7.0006 -13.0000
v  -0.3000 5.0006 -13.0000
v  0.3000 5.0006 -26.6667
v  -0.3000 5.0006 -26.6667
v  -0.3000 5.0006 -32.0000
v  0.3000 5.0006 -32.0000
v  0.3000 7.0006 -26.6667
v  0.3000 7.0006 -32.0000
v  -0.3000 7.0006 -26.6667
v  -0.3000 7.0006 -32.0000
v  0.3000 0.0000 -23.0000
v  0.3000 5.0006 -23.0000
v  -0.3000 5.0006 -23.0000
v  -0.3000 0.0000 -23.0000
v  0.3000 0.0000 -25.0000
v  0.3000 5.0006 -25.0000
v  -0.3000 0.0000 -25.0000
v  -0.3000 5.0006 -25.0000
v  0.3000 0.0000 -30.0000
v  0.3000 5.0006 -30.0000
v  -0.3000 5.0006 -30.0000
v  -0.3000 0.0000 -30.0000
v  0.3000 0.0000 -32.0000
v  -0.3000 0.0000 -32.0000
v  -0.3000 5.0006 -21.3333
v  0.3000 5.0006 -21.3333
v  0.3000 7.0006 -21.3333
v  -0.3000 7.0006 -21.3333
v  0.3000 7.0006 -16.0000
v  -0.3000 7.0006 -16.0000
# 40 vertices

vn 0.0000 0.0000 1.0000
vn 1.0000 0.0000 -0.0000
vn 0.0000 0.0000 -1.0000
vn -1.0000 0.0000 -0.0000
vn 0.0000 -1.0000 -0.0000
# 5 vertex normals

vt 0.9655 0.0000 0.0000
vt 0.9655 1.0000 0.0000
vt 0.9268 1.0000 0.0000
vt 0.9268 0.0000 0.0000
vt 0.1214 0.0000 0.0000
vt 0.1214 1.0000 0.0000
vt 0.0000 1.0000 0.0000
vt 0.0000 0.0000 0.0000
vt 0.1214 0.2807 0.0000
vt 0.0000 0.2807 0.0000
vt 0.0000 0.5614 0.0000
vt 0.1214 0.5614 0.0000
vt 0.0000 0.8421 0.0000
vt 0.1214 0.8421 0.0000
# 14 texture coords

g Box006
s 8
f 1/1/1 2/2/1 3/3/1 4/4/1 
s 16
f 5/1/2 6/2/2 2/3/2 1/4/2 
s 32
f 7/1/3 8/2/3 6/3/3 5/4/3 
s 64
f 4/1/4 3/2/4 8/3/4 7/4/4 
s 4
f 9/5/1 10/6/1 11/7/1 12/8/1 
s 8
f 13/9/5 14/10/5 15/8/5 16/5/5 
s 16
f 17/9/2 13/10/2 16/8/2 18/5/2 
s 64
f 14/9/4 19/10/4 20/8/4 15/5/4 
s 8
f 21/1/1 22/2/1 23/3/1 24/4/1 
s 16
f 25/1/2 26/2/2 22/3/2 21/4/2 
s 32
f 27/1/3 28/2/3 26/3/3 25/4/3 
s 64
f 24/1/4 23/2/4 28/3/4 27/4/4 
s 8
f 29/1/1 30/2/1 31/3/1 32/4/1 
s 16
f 33/1/2 16/2/2 30/3/2 29/4/2 
s 32
f 34/1/3 15/2/3 16/3/3 33/4/3 
s 64
f 32/1/4 31/2/4 15/3/4 34/4/4 
s 8
f 35/11/5 14/10/5 13/9/5 36/12/5 
s 16
f 36/11/2 13/10/2 17/9/2 37/12/2 
s 64
f 38/11/4 19/10/4 14/9/4 35/12/4 
s 8
f 3/13/5 35/11/5 36/12/5 2/14/5 
s 16
f 2/13/2 36/11/2 37/12/2 39/14/2 
s 64
f 40/13/4 38/11/4 35/12/4 3/14/4 
s 8
f 12/7/5 3/13/5 2/14/5 9/6/5 
s 16
f 9/7/2 2/13/2 39/14/2 10/6/2 
s 64
f 11/7/4 40/13/4 3/14/4 12/6/4 
# 25 polygons

