# 3ds Max Wavefront OBJ Exporter v0.97b - (c)2007 guruware
# File Created: 11.01.2017 07:30:50

#
# object ThirdRail_LevelCrossing
#

v  0.3581 0.3521 -29.3349
v  0.5813 0.3523 -29.3349
v  0.5803 0.5051 -32.0016
v  0.3581 0.3521 -29.3360
v  0.3571 0.5048 -32.0017
v  -0.3634 0.5048 -31.9975
v  -0.5866 0.5051 -31.9975
v  -0.5856 0.3523 -29.3299
v  -0.3624 0.3521 -31.9964
v  -0.3624 0.3521 -29.3298
v  -0.5856 0.3523 -31.9975
v  -0.5856 0.3523 -29.3308
v  0.3581 0.3521 -32.0027
v  0.5813 0.3523 -32.0016
v  0.3571 0.6188 -29.3349
v  0.5803 0.6190 -29.3349
v  0.5803 0.6190 -32.0016
v  0.3581 0.5901 -29.3360
v  0.3570 0.6188 -32.0017
v  0.5813 0.5903 -29.3349
v  0.5813 0.5903 -32.0016
v  -0.3635 0.6188 -31.9975
v  -0.5866 0.6190 -31.9975
v  -0.5867 0.6190 -29.3308
v  -0.3624 0.5901 -31.9964
v  -0.3635 0.6188 -29.3307
v  -0.5856 0.5903 -31.9975
v  -0.5856 0.5903 -29.3308
v  0.3581 0.5901 -32.0027
v  -0.3624 0.5901 -29.3298
# 30 vertices

vn -0.0009 0.9996 0.0286
vn -0.0013 0.9996 0.0286
vn -1.0000 -0.0065 -0.0000
vn 0.0013 0.9996 0.0286
vn 0.0009 0.9996 0.0286
vn 1.0000 0.0065 -0.0000
vn -0.0014 0.9996 0.0286
vn -0.0009 1.0000 -0.0000
vn -0.9994 -0.0348 -0.0000
vn -0.9993 -0.0383 -0.0000
vn 0.9994 0.0348 -0.0000
vn 0.0009 1.0000 -0.0000
vn 0.9993 0.0383 -0.0000
vn 0.0000 0.0000 1.0000
vn -0.0049 -0.0385 0.9992
vn -0.0004 0.0313 0.9995
vn -0.0045 -0.0002 1.0000
# 17 vertex normals

vt 0.6153 0.9981 0.0000
vt 0.7786 0.9982 0.0000
vt 0.7786 0.0002 0.0000
vt 0.8504 0.0001 0.0000
vt 0.5638 -0.0000 0.0000
vt 0.5638 0.9980 0.0000
vt 0.5638 0.9981 0.0000
vt 0.8504 0.9982 0.0000
vt 0.8504 0.0002 0.0000
vt 0.6153 0.0001 0.0000
vt 0.8504 0.9981 0.0000
vt 0.5638 0.0001 0.0000
vt 0.0531 0.9980 0.0000
vt 0.2167 0.9980 0.0000
vt 0.2167 0.0000 0.0000
vt 0.2167 -0.0001 0.0000
vt 0.0531 -0.0001 0.0000
vt 0.0531 0.9979 0.0000
vt 0.2167 0.9979 0.0000
vt 0.0531 0.0000 0.0000
# 20 texture coords

g ThirdRail_LevelCrossing
s 1
f 1/1/1 2/2/1 3/3/2 
s 2
f 4/4/3 1/5/3 5/6/3 
s 1
f 6/1/4 7/2/4 8/3/5 
s 2
f 9/4/6 6/5/6 10/6/6 
f 7/7/3 11/8/3 12/9/3 
s 1
f 5/10/7 1/1/1 3/3/2 
s 2
f 13/11/3 4/4/3 5/6/3 
f 3/12/6 2/7/6 14/9/6 
s 1
f 10/10/5 6/1/4 8/3/5 
s 2
f 8/12/3 7/7/3 12/9/3 
s 1
f 15/13/8 16/14/8 17/15/8 
s 2
f 18/16/9 15/17/9 19/18/10 
f 16/13/11 20/19/11 21/16/11 
s 1
f 22/13/12 23/14/12 24/15/12 
s 2
f 25/16/13 22/17/13 26/18/13 
f 23/13/9 27/14/9 28/15/10 
s 1
f 19/20/8 15/13/8 17/16/8 
s 2
f 29/19/10 18/16/9 19/18/10 
f 17/20/11 16/13/11 21/16/11 
s 1
f 26/20/12 22/13/12 24/15/12 
s 2
f 30/19/13 25/16/13 26/18/13 
f 24/20/10 23/13/9 28/16/10 
s off
f 20/19/14 16/14/14 15/13/14 
f 15/13/15 18/16/15 20/19/15 
f 30/19/16 26/18/16 24/15/16 
f 24/15/17 28/15/17 30/19/17 
# 26 faces

