# 3ds Max Wavefront OBJ Exporter v0.97b - (c)2007 guruware
# File Created: 13.09.2017 18:52:12

#
# object Object005
#

v  5.9000 7.0000 32.0003
v  5.9000 8.0000 32.0003
v  4.9507 8.0000 32.0003
v  5.0711 6.4286 -4.5713
v  5.1747 6.5000 0.0002
v  4.2253 7.5000 0.0002
v  4.1217 7.4286 -4.5713
v  -4.9507 8.0000 32.0003
v  -5.9000 8.0000 32.0003
v  -5.9000 7.0000 32.0003
v  -4.1215 7.4286 -4.5713
v  -4.2252 7.5000 0.0002
v  -5.1745 6.5000 0.0002
v  -5.0709 6.4286 -4.5713
v  5.7964 6.9286 27.4289
v  4.8470 7.9286 27.4289
v  5.6928 6.8571 22.8574
v  4.7434 7.8571 22.8574
v  5.5891 6.7857 18.2859
v  4.6398 7.7857 18.2860
v  5.4855 6.7143 13.7145
v  4.5362 7.7143 13.7145
v  5.3819 6.6429 9.1431
v  4.4326 7.6429 9.1431
v  5.2783 6.5714 4.5716
v  4.3289 7.5714 4.5716
v  3.6036 7.0714 -27.4286
v  3.5000 7.0000 -32.0000
v  4.4493 6.0000 -32.0000
v  4.5530 6.0714 -27.4285
v  3.7072 7.1429 -22.8571
v  4.6566 6.1429 -22.8571
v  3.8109 7.2143 -18.2856
v  4.7602 6.2143 -18.2856
v  3.9145 7.2857 -13.7142
v  4.8638 6.2857 -13.7142
v  4.0181 7.3571 -9.1427
v  4.9674 6.3571 -9.1427
v  -4.8470 7.9286 27.4289
v  -5.7964 6.9286 27.4289
v  -4.7434 7.8571 22.8574
v  -5.6927 6.8571 22.8574
v  -4.6397 7.7857 18.2860
v  -5.5891 6.7857 18.2860
v  -4.5361 7.7143 13.7145
v  -5.4854 6.7143 13.7145
v  -4.4324 7.6429 9.1431
v  -5.3818 6.6429 9.1431
v  -4.3288 7.5714 4.5716
v  -5.2781 6.5714 4.5716
v  -4.5526 6.0714 -27.4285
v  -4.4490 6.0000 -32.0000
v  -3.4997 7.0000 -32.0000
v  -3.6033 7.0714 -27.4285
v  -4.6563 6.1429 -22.8571
v  -3.7069 7.1429 -22.8571
v  -4.7599 6.2143 -18.2856
v  -3.8106 7.2143 -18.2856
v  -4.8636 6.2857 -13.7142
v  -3.9142 7.2857 -13.7142
v  -4.9672 6.3571 -9.1427
v  -4.0179 7.3571 -9.1427
v  4.4493 7.0000 -32.0000
v  -4.4490 7.0000 -32.0000
# 64 vertices

vn 0.0000 0.0000 1.0000
vn -0.7250 -0.6882 0.0272
vn 0.7250 -0.6882 0.0272
vn 0.0000 0.0000 -1.0000
# 4 vertex normals

vt 0.9639 0.9391 0.0000
vt 0.9639 0.9808 0.0000
vt 0.9269 0.9808 0.0000
vt 0.9770 0.4286 0.0000
vt 0.9770 0.5000 0.0000
vt 0.9272 0.5000 0.0000
vt 0.9272 0.4286 0.0000
vt 0.9639 0.9769 0.0000
vt 0.9269 0.9769 0.0000
vt 0.9269 0.9352 0.0000
vt 0.9770 0.9286 0.0000
vt 0.9770 1.0000 0.0000
vt 0.9272 1.0000 0.0000
vt 0.9272 0.9286 0.0000
vt 0.9770 0.8571 0.0000
vt 0.9272 0.8571 0.0000
vt 0.9770 0.7857 0.0000
vt 0.9272 0.7857 0.0000
vt 0.9770 0.7143 0.0000
vt 0.9272 0.7143 0.0000
vt 0.9770 0.6429 0.0000
vt 0.9272 0.6429 0.0000
vt 0.9770 0.5714 0.0000
vt 0.9272 0.5714 0.0000
vt 0.9272 0.0714 0.0000
vt 0.9272 0.0000 0.0000
vt 0.9770 0.0000 0.0000
vt 0.9770 0.0714 0.0000
vt 0.9272 0.1429 0.0000
vt 0.9770 0.1429 0.0000
vt 0.9272 0.2143 0.0000
vt 0.9770 0.2143 0.0000
vt 0.9272 0.2857 0.0000
vt 0.9770 0.2857 0.0000
vt 0.9272 0.3571 0.0000
vt 0.9770 0.3571 0.0000
# 36 texture coords

g Object005
s 4
f 1/1/1 2/2/1 3/3/1 
s 8
f 4/4/2 5/5/2 6/6/2 7/7/2 
s 4
f 8/8/1 9/9/1 10/10/1 
s 8
f 11/7/3 12/6/3 13/5/3 14/4/3 
f 15/11/2 1/12/2 3/13/2 16/14/2 
f 17/15/2 15/11/2 16/14/2 18/16/2 
f 19/17/2 17/15/2 18/16/2 20/18/2 
f 21/19/2 19/17/2 20/18/2 22/20/2 
f 23/21/2 21/19/2 22/20/2 24/22/2 
f 25/23/2 23/21/2 24/22/2 26/24/2 
f 5/5/2 25/23/2 26/24/2 6/6/2 
f 27/25/2 28/26/2 29/27/2 30/28/2 
f 31/29/2 27/25/2 30/28/2 32/30/2 
f 33/31/2 31/29/2 32/30/2 34/32/2 
f 35/33/2 33/31/2 34/32/2 36/34/2 
f 37/35/2 35/33/2 36/34/2 38/36/2 
f 7/7/2 37/35/2 38/36/2 4/4/2 
f 39/14/3 8/13/3 10/12/3 40/11/3 
f 41/16/3 39/14/3 40/11/3 42/15/3 
f 43/18/3 41/16/3 42/15/3 44/17/3 
f 45/20/3 43/18/3 44/17/3 46/19/3 
f 47/22/3 45/20/3 46/19/3 48/21/3 
f 49/24/3 47/22/3 48/21/3 50/23/3 
f 12/6/3 49/24/3 50/23/3 13/5/3 
f 51/28/3 52/27/3 53/26/3 54/25/3 
f 55/30/3 51/28/3 54/25/3 56/29/3 
f 57/32/3 55/30/3 56/29/3 58/31/3 
f 59/34/3 57/32/3 58/31/3 60/33/3 
f 61/36/3 59/34/3 60/33/3 62/35/3 
f 14/4/3 61/36/3 62/35/3 11/7/3 
s 4
f 29/1/4 28/3/4 63/2/4 
f 53/8/4 52/10/4 64/9/4 
# 28 polygons - 4 triangles

