# 3ds Max Wavefront OBJ Exporter v0.97b - (c)2007 guruware
# File Created: 15.09.2017 17:56:30

#
# object Box009
#

v  -0.0500 1.7500 32.0000
v  0.0500 1.7500 32.0000
v  0.0500 1.7500 27.4286
v  -0.0500 1.7500 27.4286
v  0.0500 1.7500 22.8571
v  -0.0500 1.7500 22.8571
v  0.0500 1.7500 18.2857
v  -0.0500 1.7500 18.2857
v  0.0500 1.7500 13.7143
v  -0.0500 1.7500 13.7143
v  0.0500 1.7500 9.1429
v  -0.0500 1.7500 9.1429
v  0.0500 1.7500 4.5714
v  -0.0500 1.7500 4.5714
v  0.0500 1.7500 -0.0000
v  -0.0500 1.7500 -0.0000
v  0.0500 1.7500 -4.5714
v  -0.0500 1.7500 -4.5714
v  0.0500 1.7500 -9.1429
v  -0.0500 1.7500 -9.1429
v  0.0500 1.7500 -13.7143
v  -0.0500 1.7500 -13.7143
v  0.0500 1.7500 -18.2857
v  -0.0500 1.7500 -18.2857
v  0.0500 1.7500 -22.8571
v  -0.0500 1.7500 -22.8571
v  0.0500 1.6500 32.0000
v  0.0500 1.6500 27.4286
v  0.0500 1.6500 22.8571
v  0.0500 1.6500 18.2857
v  0.0500 1.6500 13.7143
v  0.0500 1.6500 9.1429
v  0.0500 1.6500 4.5714
v  0.0500 1.6500 -0.0000
v  0.0500 1.6500 -4.5714
v  0.0500 1.6500 -9.1429
v  0.0500 1.6500 -13.7143
v  0.0500 1.6500 -18.2857
v  0.0500 1.6500 -22.8571
v  -0.0500 1.6500 -22.8571
v  -0.0500 1.6500 -18.2857
v  -0.0500 1.6500 -13.7143
v  -0.0500 1.6500 -9.1429
v  -0.0500 1.6500 -4.5714
v  -0.0500 1.6500 -0.0000
v  -0.0500 1.6500 4.5714
v  -0.0500 1.6500 9.1429
v  -0.0500 1.6500 13.7143
v  -0.0500 1.6500 18.2857
v  -0.0500 1.6500 22.8571
v  -0.0500 1.6500 27.4286
v  -0.0500 1.6500 32.0000
v  -0.0500 1.0333 32.0000
v  0.0500 1.0333 32.0000
v  0.0500 1.0333 27.4286
v  -0.0500 1.0333 27.4286
v  0.0500 1.0333 22.8571
v  -0.0500 1.0333 22.8571
v  0.0500 1.0333 18.2857
v  -0.0500 1.0333 18.2857
v  0.0500 1.0333 13.7143
v  -0.0500 1.0333 13.7143
v  0.0500 1.0333 9.1429
v  -0.0500 1.0333 9.1429
v  0.0500 1.0333 4.5714
v  -0.0500 1.0333 4.5714
v  0.0500 1.0333 -0.0000
v  -0.0500 1.0333 -0.0000
v  0.0500 1.0333 -4.5714
v  -0.0500 1.0333 -4.5714
v  0.0500 1.0333 -9.1429
v  -0.0500 1.0333 -9.1429
v  0.0500 1.0333 -13.7143
v  -0.0500 1.0333 -13.7143
v  0.0500 1.0333 -18.2857
v  -0.0500 1.0333 -18.2857
v  0.0500 1.0333 -22.8571
v  -0.0500 1.0333 -22.8571
v  0.0500 0.9333 32.0000
v  0.0500 0.9333 27.4286
v  0.0500 0.9333 22.8571
v  0.0500 0.9333 18.2857
v  0.0500 0.9333 13.7143
v  0.0500 0.9333 9.1429
v  0.0500 0.9333 4.5714
v  0.0500 0.9333 -0.0000
v  0.0500 0.9333 -4.5714
v  0.0500 0.9333 -9.1429
v  0.0500 0.9333 -13.7143
v  0.0500 0.9333 -18.2857
v  0.0500 0.9333 -22.8571
v  -0.0500 0.9333 -22.8571
v  -0.0500 0.9333 -18.2857
v  -0.0500 0.9333 -13.7143
v  -0.0500 0.9333 -9.1429
v  -0.0500 0.9333 -4.5714
v  -0.0500 0.9333 -0.0000
v  -0.0500 0.9333 4.5714
v  -0.0500 0.9333 9.1429
v  -0.0500 0.9333 13.7143
v  -0.0500 0.9333 18.2857
v  -0.0500 0.9333 22.8571
v  -0.0500 0.9333 27.4286
v  -0.0500 0.9333 32.0000
v  -0.2000 -0.0000 32.0000
v  0.2000 -0.0000 32.0000
v  0.2000 7.2000 32.0000
v  -0.2000 7.2000 32.0000
v  0.2000 -0.0000 31.3969
v  -0.2000 -0.0000 31.3969
v  -0.2000 7.2000 31.3969
v  0.2000 7.2000 31.3969
v  0.1500 5.8830 31.7985
v  -1.4690 7.5019 31.7985
v  -1.7514 7.5016 31.7985
v  0.1500 5.6001 31.7985
v  -1.7480 7.4981 31.5985
v  0.1500 5.6001 31.5985
v  -1.4655 7.4984 31.5985
v  0.1500 5.8830 31.5985
v  -0.1500 5.8830 31.5985
v  1.4690 7.5019 31.5985
v  1.7514 7.5016 31.5985
v  -0.1500 5.6001 31.5985
v  1.7480 7.4981 31.7985
v  -0.1500 5.6001 31.7985
v  1.4655 7.4984 31.7985
v  -0.1500 5.8830 31.7985
v  -0.2000 -0.0000 22.8611
v  0.2000 -0.0000 22.8611
v  0.2000 7.2000 22.8611
v  -0.2000 7.2000 22.8611
v  0.2000 -0.0000 22.2580
v  -0.2000 -0.0000 22.2580
v  -0.2000 7.2000 22.2580
v  0.2000 7.2000 22.2580
v  0.1500 5.8830 22.6595
v  -1.4690 7.5019 22.6595
v  -1.7514 7.5016 22.6595
v  0.1500 5.6001 22.6595
v  -1.7480 7.4981 22.4595
v  0.1500 5.6001 22.4595
v  -1.4655 7.4984 22.4595
v  0.1500 5.8830 22.4595
v  -0.1500 5.8830 22.4595
v  1.4690 7.5019 22.4595
v  1.7514 7.5016 22.4595
v  -0.1500 5.6001 22.4595
v  1.7480 7.4981 22.6595
v  -0.1500 5.6001 22.6595
v  1.4655 7.4984 22.6595
v  -0.1500 5.8830 22.6595
v  -0.2000 -0.0000 13.7222
v  0.2000 -0.0000 13.7222
v  0.2000 7.2000 13.7222
v  -0.2000 7.2000 13.7222
v  0.2000 -0.0000 13.1191
v  -0.2000 -0.0000 13.1191
v  -0.2000 7.2000 13.1191
v  0.2000 7.2000 13.1191
v  0.1500 5.8830 13.5206
v  -1.4690 7.5019 13.5206
v  -1.7514 7.5016 13.5206
v  0.1500 5.6001 13.5206
v  -1.7480 7.4981 13.3206
v  0.1500 5.6001 13.3206
v  -1.4655 7.4984 13.3206
v  0.1500 5.8830 13.3206
v  -0.1500 5.8830 13.3206
v  1.4690 7.5019 13.3206
v  1.7514 7.5016 13.3206
v  -0.1500 5.6001 13.3206
v  1.7480 7.4981 13.5206
v  -0.1500 5.6001 13.5206
v  1.4655 7.4984 13.5206
v  -0.1500 5.8830 13.5206
v  -0.2000 -0.0000 4.5832
v  0.2000 -0.0000 4.5832
v  0.2000 7.2000 4.5832
v  -0.2000 7.2000 4.5832
v  0.2000 -0.0000 3.9802
v  -0.2000 -0.0000 3.9802
v  -0.2000 7.2000 3.9802
v  0.2000 7.2000 3.9802
v  0.1500 5.8830 4.3817
v  -1.4690 7.5019 4.3817
v  -1.7514 7.5016 4.3817
v  0.1500 5.6001 4.3817
v  -1.7480 7.4981 4.1817
v  0.1500 5.6001 4.1817
v  -1.4655 7.4984 4.1817
v  0.1500 5.8830 4.1817
v  -0.1500 5.8830 4.1817
v  1.4690 7.5019 4.1817
v  1.7514 7.5016 4.1817
v  -0.1500 5.6001 4.1817
v  1.7480 7.4981 4.3817
v  -0.1500 5.6001 4.3817
v  1.4655 7.4984 4.3817
v  -0.1500 5.8830 4.3817
v  -0.2000 -0.0000 -4.5557
v  0.2000 -0.0000 -4.5557
v  0.2000 7.2000 -4.5557
v  -0.2000 7.2000 -4.5557
v  0.2000 -0.0000 -5.1587
v  -0.2000 -0.0000 -5.1587
v  -0.2000 7.2000 -5.1587
v  0.2000 7.2000 -5.1587
v  0.1500 5.8830 -4.7572
v  -1.4690 7.5019 -4.7572
v  -1.7514 7.5016 -4.7572
v  0.1500 5.6001 -4.7572
v  -1.7480 7.4981 -4.9572
v  0.1500 5.6001 -4.9572
v  -1.4655 7.4984 -4.9572
v  0.1500 5.8830 -4.9572
v  -0.1500 5.8830 -4.9572
v  1.4690 7.5019 -4.9572
v  1.7514 7.5016 -4.9572
v  -0.1500 5.6001 -4.9572
v  1.7480 7.4981 -4.7572
v  -0.1500 5.6001 -4.7572
v  1.4655 7.4984 -4.7572
v  -0.1500 5.8830 -4.7572
v  -0.2000 -0.0000 -13.6946
v  0.2000 -0.0000 -13.6946
v  0.2000 7.2000 -13.6946
v  -0.2000 7.2000 -13.6946
v  0.2000 -0.0000 -14.2977
v  -0.2000 -0.0000 -14.2977
v  -0.2000 7.2000 -14.2977
v  0.2000 7.2000 -14.2977
v  0.1500 5.8830 -13.8961
v  -1.4690 7.5019 -13.8961
v  -1.7514 7.5016 -13.8961
v  0.1500 5.6001 -13.8961
v  -1.7480 7.4981 -14.0961
v  0.1500 5.6001 -14.0961
v  -1.4655 7.4984 -14.0961
v  0.1500 5.8830 -14.0961
v  -0.1500 5.8830 -14.0961
v  1.4690 7.5019 -14.0961
v  1.7514 7.5016 -14.0961
v  -0.1500 5.6001 -14.0961
v  1.7480 7.4981 -13.8961
v  -0.1500 5.6001 -13.8961
v  1.4655 7.4984 -13.8961
v  -0.1500 5.8830 -13.8961
v  -0.2000 -0.0000 -22.8335
v  0.2000 -0.0000 -22.8335
v  0.2000 7.2000 -22.8335
v  -0.2000 7.2000 -22.8335
v  0.2000 -0.0000 -23.4366
v  -0.2000 -0.0000 -23.4366
v  -0.2000 7.2000 -23.4366
v  0.2000 7.2000 -23.4366
v  0.1500 5.8830 -23.0350
v  -1.4690 7.5019 -23.0350
v  -1.7514 7.5016 -23.0350
v  0.1500 5.6001 -23.0350
v  -1.7480 7.4981 -23.2350
v  0.1500 5.6001 -23.2350
v  -1.4655 7.4984 -23.2350
v  0.1500 5.8830 -23.2350
v  -0.1500 5.8830 -23.2350
v  1.4690 7.5019 -23.2350
v  1.7514 7.5016 -23.2350
v  -0.1500 5.6001 -23.2350
v  1.7480 7.4981 -23.0350
v  -0.1500 5.6001 -23.0350
v  1.4655 7.4984 -23.0350
v  -0.1500 5.8830 -23.0350
# 272 vertices

vn 0.0000 1.0000 -0.0000
vn 1.0000 0.0000 -0.0000
vn -1.0000 0.0000 -0.0000
vn 0.0000 0.0000 1.0000
vn 0.0000 0.0000 -1.0000
vn -0.7071 -0.7071 -0.0000
vn 0.7071 -0.7071 0.0000
vn 0.7071 -0.7071 -0.0000
vn -0.7071 -0.7071 0.0000
# 9 vertex normals

vt 0.9651 0.0000 0.0000
vt 1.0000 0.0000 0.0000
vt 1.0000 0.0714 0.0000
vt 0.9651 0.0714 0.0000
vt 1.0000 0.1429 0.0000
vt 0.9651 0.1429 0.0000
vt 1.0000 0.2143 0.0000
vt 0.9651 0.2143 0.0000
vt 1.0000 0.2857 0.0000
vt 0.9651 0.2857 0.0000
vt 1.0000 0.3571 0.0000
vt 0.9651 0.3571 0.0000
vt 1.0000 0.4286 0.0000
vt 0.9651 0.4286 0.0000
vt 1.0000 0.5000 0.0000
vt 0.9651 0.5000 0.0000
vt 1.0000 0.5714 0.0000
vt 0.9651 0.5714 0.0000
vt 1.0000 0.6429 0.0000
vt 0.9651 0.6429 0.0000
vt 1.0000 0.7143 0.0000
vt 0.9651 0.7143 0.0000
vt 1.0000 0.7857 0.0000
vt 0.9651 0.7857 0.0000
vt 1.0000 0.8571 0.0000
vt 0.9652 0.8571 0.0000
vt 0.9651 0.8571 0.0000
vt 0.9269 0.0000 0.0000
vt 0.9631 0.0000 0.0000
vt 0.9631 1.0000 0.0000
vt 0.9269 1.0000 0.0000
vt 1.0000 0.0250 0.0000
vt 1.0000 0.3112 0.0000
vt 0.9637 0.3364 0.0000
vt 0.9637 0.0003 0.0000
vt 1.0000 0.3361 0.0000
vt 0.9637 0.3358 0.0000
vt 1.0000 0.3355 0.0000
vt 0.9637 0.3108 0.0000
vt 0.9637 0.0253 0.0000
# 40 texture coords

g Box009
s 4
f 1/1/1 2/2/1 3/3/1 4/4/1 
f 4/4/1 3/3/1 5/5/1 6/6/1 
f 6/6/1 5/5/1 7/7/1 8/8/1 
f 8/8/1 7/7/1 9/9/1 10/10/1 
f 10/10/1 9/9/1 11/11/1 12/12/1 
f 12/12/1 11/11/1 13/13/1 14/14/1 
f 14/14/1 13/13/1 15/15/1 16/16/1 
f 16/16/1 15/15/1 17/17/1 18/18/1 
f 18/18/1 17/17/1 19/19/1 20/20/1 
f 20/20/1 19/19/1 21/21/1 22/22/1 
f 22/22/1 21/21/1 23/23/1 24/24/1 
f 24/24/1 23/23/1 25/25/1 26/26/1 
s 16
f 27/1/2 28/4/2 3/3/2 2/2/2 
f 28/4/2 29/6/2 5/5/2 3/3/2 
f 29/6/2 30/8/2 7/7/2 5/5/2 
f 30/8/2 31/10/2 9/9/2 7/7/2 
f 31/10/2 32/12/2 11/11/2 9/9/2 
f 32/12/2 33/14/2 13/13/2 11/11/2 
f 33/14/2 34/16/2 15/15/2 13/13/2 
f 34/16/2 35/18/2 17/17/2 15/15/2 
f 35/18/2 36/20/2 19/19/2 17/17/2 
f 36/20/2 37/22/2 21/21/2 19/19/2 
f 37/22/2 38/24/2 23/23/2 21/21/2 
f 38/24/2 39/27/2 25/25/2 23/23/2 
s 64
f 40/27/3 41/24/3 24/23/3 26/25/3 
f 41/24/3 42/22/3 22/21/3 24/23/3 
f 42/22/3 43/20/3 20/19/3 22/21/3 
f 43/20/3 44/18/3 18/17/3 20/19/3 
f 44/18/3 45/16/3 16/15/3 18/17/3 
f 45/16/3 46/14/3 14/13/3 16/15/3 
f 46/14/3 47/12/3 12/11/3 14/13/3 
f 47/12/3 48/10/3 10/9/3 12/11/3 
f 48/10/3 49/8/3 8/7/3 10/9/3 
f 49/8/3 50/6/3 6/5/3 8/7/3 
f 50/6/3 51/4/3 4/3/3 6/5/3 
f 51/4/3 52/1/3 1/2/3 4/3/3 
s 4
f 53/1/1 54/2/1 55/3/1 56/4/1 
f 56/4/1 55/3/1 57/5/1 58/6/1 
f 58/6/1 57/5/1 59/7/1 60/8/1 
f 60/8/1 59/7/1 61/9/1 62/10/1 
f 62/10/1 61/9/1 63/11/1 64/12/1 
f 64/12/1 63/11/1 65/13/1 66/14/1 
f 66/14/1 65/13/1 67/15/1 68/16/1 
f 68/16/1 67/15/1 69/17/1 70/18/1 
f 70/18/1 69/17/1 71/19/1 72/20/1 
f 72/20/1 71/19/1 73/21/1 74/22/1 
f 74/22/1 73/21/1 75/23/1 76/24/1 
f 76/24/1 75/23/1 77/25/1 78/26/1 
s 16
f 79/1/2 80/4/2 55/3/2 54/2/2 
f 80/4/2 81/6/2 57/5/2 55/3/2 
f 81/6/2 82/8/2 59/7/2 57/5/2 
f 82/8/2 83/10/2 61/9/2 59/7/2 
f 83/10/2 84/12/2 63/11/2 61/9/2 
f 84/12/2 85/14/2 65/13/2 63/11/2 
f 85/14/2 86/16/2 67/15/2 65/13/2 
f 86/16/2 87/18/2 69/17/2 67/15/2 
f 87/18/2 88/20/2 71/19/2 69/17/2 
f 88/20/2 89/22/2 73/21/2 71/19/2 
f 89/22/2 90/24/2 75/23/2 73/21/2 
f 90/24/2 91/27/2 77/25/2 75/23/2 
s 64
f 92/27/3 93/24/3 76/23/3 78/25/3 
f 93/24/3 94/22/3 74/21/3 76/23/3 
f 94/22/3 95/20/3 72/19/3 74/21/3 
f 95/20/3 96/18/3 70/17/3 72/19/3 
f 96/18/3 97/16/3 68/15/3 70/17/3 
f 97/16/3 98/14/3 66/13/3 68/15/3 
f 98/14/3 99/12/3 64/11/3 66/13/3 
f 99/12/3 100/10/3 62/9/3 64/11/3 
f 100/10/3 101/8/3 60/7/3 62/9/3 
f 101/8/3 102/6/3 58/5/3 60/7/3 
f 102/6/3 103/4/3 56/3/3 58/5/3 
f 103/4/3 104/1/3 53/2/3 56/3/3 
s off
f 105/28/4 106/29/4 107/30/4 108/31/4 
f 109/28/5 110/29/5 111/30/5 112/31/5 
f 110/28/3 105/29/3 108/30/3 111/31/3 
f 113/32/4 114/33/4 115/34/4 116/35/4 
f 116/2/6 115/36/6 117/37/6 118/35/6 
f 117/38/5 119/39/5 120/40/5 118/2/5 
f 109/28/2 112/31/2 107/30/2 106/29/2 
f 121/32/5 122/33/5 123/34/5 124/35/5 
f 124/2/7 123/36/7 125/37/7 126/35/7 
f 125/38/4 127/39/4 128/40/4 126/2/4 
f 129/28/4 130/29/4 131/30/4 132/31/4 
f 133/28/5 134/29/5 135/30/5 136/31/5 
f 134/28/3 129/29/3 132/30/3 135/31/3 
f 137/32/4 138/33/4 139/34/4 140/35/4 
f 140/2/6 139/36/6 141/37/6 142/35/6 
f 141/38/5 143/39/5 144/40/5 142/2/5 
f 133/28/2 136/31/2 131/30/2 130/29/2 
f 145/32/5 146/33/5 147/34/5 148/35/5 
f 148/2/7 147/36/7 149/37/7 150/35/7 
f 149/38/4 151/39/4 152/40/4 150/2/4 
f 153/28/4 154/29/4 155/30/4 156/31/4 
f 157/28/5 158/29/5 159/30/5 160/31/5 
f 158/28/3 153/29/3 156/30/3 159/31/3 
f 161/32/4 162/33/4 163/34/4 164/35/4 
f 164/2/6 163/36/6 165/37/6 166/35/6 
f 165/38/5 167/39/5 168/40/5 166/2/5 
f 157/28/2 160/31/2 155/30/2 154/29/2 
f 169/32/5 170/33/5 171/34/5 172/35/5 
f 172/2/8 171/36/8 173/37/8 174/35/8 
f 173/38/4 175/39/4 176/40/4 174/2/4 
f 177/28/4 178/29/4 179/30/4 180/31/4 
f 181/28/5 182/29/5 183/30/5 184/31/5 
f 182/28/3 177/29/3 180/30/3 183/31/3 
f 185/32/4 186/33/4 187/34/4 188/35/4 
f 188/2/9 187/36/9 189/37/9 190/35/9 
f 189/38/5 191/39/5 192/40/5 190/2/5 
f 181/28/2 184/31/2 179/30/2 178/29/2 
f 193/32/5 194/33/5 195/34/5 196/35/5 
f 196/2/7 195/36/7 197/37/7 198/35/7 
f 197/38/4 199/39/4 200/40/4 198/2/4 
f 201/28/4 202/29/4 203/30/4 204/31/4 
f 205/28/5 206/29/5 207/30/5 208/31/5 
f 206/28/3 201/29/3 204/30/3 207/31/3 
f 209/32/4 210/33/4 211/34/4 212/35/4 
f 212/2/9 211/36/9 213/37/9 214/35/9 
f 213/38/5 215/39/5 216/40/5 214/2/5 
f 205/28/2 208/31/2 203/30/2 202/29/2 
f 217/32/5 218/33/5 219/34/5 220/35/5 
f 220/2/7 219/36/7 221/37/7 222/35/7 
f 221/38/4 223/39/4 224/40/4 222/2/4 
f 225/28/4 226/29/4 227/30/4 228/31/4 
f 229/28/5 230/29/5 231/30/5 232/31/5 
f 230/28/3 225/29/3 228/30/3 231/31/3 
f 233/32/4 234/33/4 235/34/4 236/35/4 
f 236/2/9 235/36/9 237/37/9 238/35/9 
f 237/38/5 239/39/5 240/40/5 238/2/5 
f 229/28/2 232/31/2 227/30/2 226/29/2 
f 241/32/5 242/33/5 243/34/5 244/35/5 
f 244/2/7 243/36/7 245/37/7 246/35/7 
f 245/38/4 247/39/4 248/40/4 246/2/4 
f 249/28/4 250/29/4 251/30/4 252/31/4 
f 253/28/5 254/29/5 255/30/5 256/31/5 
f 254/28/3 249/29/3 252/30/3 255/31/3 
f 257/32/4 258/33/4 259/34/4 260/35/4 
f 260/2/6 259/36/6 261/37/6 262/35/6 
f 261/38/5 263/39/5 264/40/5 262/2/5 
f 253/28/2 256/31/2 251/30/2 250/29/2 
f 265/32/5 266/33/5 267/34/5 268/35/5 
f 268/2/7 267/36/7 269/37/7 270/35/7 
f 269/38/4 271/39/4 272/40/4 270/2/4 
# 142 polygons

