# 3ds Max Wavefront OBJ Exporter v0.97b - (c)2007 guruware
# File Created: 13.09.2017 18:49:37

#
# object Box002
#

v  4.4493 6.0000 32.0000
v  4.4493 7.0000 32.0000
v  3.5000 7.0000 32.0000
v  4.4493 6.0000 -4.5714
v  4.4493 6.0000 -0.0000
v  3.5000 7.0000 -0.0000
v  3.5000 7.0000 -4.5714
v  -3.4997 7.0000 32.0000
v  -4.4490 7.0000 32.0000
v  -4.4490 6.0000 32.0000
v  -3.4997 7.0000 -4.5714
v  -3.4997 7.0000 -0.0000
v  -4.4490 6.0000 -0.0000
v  -4.4490 6.0000 -4.5714
v  4.4493 6.0000 -32.0000
v  4.4493 7.0000 -32.0000
v  3.5000 7.0000 -32.0000
v  -4.4490 7.0000 -32.0000
v  -4.4490 6.0000 -32.0000
v  -3.4997 7.0000 -32.0000
v  4.4493 6.0000 27.4286
v  3.5000 7.0000 27.4286
v  4.4493 6.0000 22.8571
v  3.5000 7.0000 22.8571
v  4.4493 6.0000 18.2857
v  3.5000 7.0000 18.2857
v  4.4493 6.0000 13.7143
v  3.5000 7.0000 13.7143
v  4.4493 6.0000 9.1429
v  3.5000 7.0000 9.1429
v  4.4493 6.0000 4.5714
v  3.5000 7.0000 4.5714
v  4.4493 6.0000 -27.4286
v  3.5000 7.0000 -27.4286
v  3.5000 7.0000 -22.8571
v  4.4493 6.0000 -22.8571
v  3.5000 7.0000 -18.2857
v  4.4493 6.0000 -18.2857
v  3.5000 7.0000 -13.7143
v  4.4493 6.0000 -13.7143
v  3.5000 7.0000 -9.1429
v  4.4493 6.0000 -9.1429
v  -3.4997 7.0000 27.4286
v  -4.4490 6.0000 27.4286
v  -3.4997 7.0000 22.8571
v  -4.4490 6.0000 22.8571
v  -3.4997 7.0000 18.2857
v  -4.4490 6.0000 18.2857
v  -3.4997 7.0000 13.7143
v  -4.4490 6.0000 13.7143
v  -3.4997 7.0000 9.1429
v  -4.4490 6.0000 9.1429
v  -3.4997 7.0000 4.5714
v  -4.4490 6.0000 4.5714
v  -3.4997 7.0000 -27.4286
v  -4.4490 6.0000 -27.4286
v  -4.4490 6.0000 -22.8571
v  -3.4997 7.0000 -22.8571
v  -4.4490 6.0000 -18.2857
v  -3.4997 7.0000 -18.2857
v  -4.4490 6.0000 -13.7143
v  -3.4997 7.0000 -13.7143
v  -4.4490 6.0000 -9.1429
v  -3.4997 7.0000 -9.1429
# 64 vertices

vn 0.0000 0.0000 1.0000
vn -0.7252 -0.6885 -0.0000
vn 0.7252 -0.6885 -0.0000
# 3 vertex normals

vt 0.9639 0.9391 0.0000
vt 0.9639 0.9808 0.0000
vt 0.9269 0.9808 0.0000
vt 0.9767 0.4286 0.0000
vt 0.9767 0.5000 0.0000
vt 0.9272 0.5000 0.0000
vt 0.9272 0.4286 0.0000
vt 0.9639 0.9769 0.0000
vt 0.9269 0.9769 0.0000
vt 0.9269 0.9352 0.0000
vt 0.9767 0.9286 0.0000
vt 0.9767 1.0000 0.0000
vt 0.9272 1.0000 0.0000
vt 0.9272 0.9286 0.0000
vt 0.9767 0.8571 0.0000
vt 0.9272 0.8571 0.0000
vt 0.9767 0.7857 0.0000
vt 0.9272 0.7857 0.0000
vt 0.9767 0.7143 0.0000
vt 0.9272 0.7143 0.0000
vt 0.9767 0.6429 0.0000
vt 0.9272 0.6429 0.0000
vt 0.9767 0.5714 0.0000
vt 0.9272 0.5714 0.0000
vt 0.9767 0.0000 0.0000
vt 0.9767 0.0714 0.0000
vt 0.9272 0.0714 0.0000
vt 0.9272 0.0000 0.0000
vt 0.9272 0.1429 0.0000
vt 0.9767 0.1429 0.0000
vt 0.9272 0.2143 0.0000
vt 0.9767 0.2143 0.0000
vt 0.9272 0.2857 0.0000
vt 0.9767 0.2857 0.0000
vt 0.9272 0.3571 0.0000
vt 0.9767 0.3571 0.0000
# 36 texture coords

g Box002
s 4
f 1/1/1 2/2/1 3/3/1 
s 8
f 4/4/2 5/5/2 6/6/2 7/7/2 
s 4
f 8/8/1 9/9/1 10/10/1 
s 8
f 11/7/3 12/6/3 13/5/3 14/4/3 
s 4
f 15/1/1 16/2/1 17/3/1 
f 18/9/1 19/10/1 20/8/1 
s 8
f 21/11/2 1/12/2 3/13/2 22/14/2 
f 23/15/2 21/11/2 22/14/2 24/16/2 
f 25/17/2 23/15/2 24/16/2 26/18/2 
f 27/19/2 25/17/2 26/18/2 28/20/2 
f 29/21/2 27/19/2 28/20/2 30/22/2 
f 31/23/2 29/21/2 30/22/2 32/24/2 
f 5/5/2 31/23/2 32/24/2 6/6/2 
f 15/25/2 33/26/2 34/27/2 
f 34/27/2 17/28/2 15/25/2 
f 35/29/2 34/27/2 33/26/2 36/30/2 
f 37/31/2 35/29/2 36/30/2 38/32/2 
f 39/33/2 37/31/2 38/32/2 40/34/2 
f 41/35/2 39/33/2 40/34/2 42/36/2 
f 7/7/2 41/35/2 42/36/2 4/4/2 
f 43/14/3 8/13/3 10/12/3 44/11/3 
f 45/16/3 43/14/3 44/11/3 46/15/3 
f 47/18/3 45/16/3 46/15/3 48/17/3 
f 49/20/3 47/18/3 48/17/3 50/19/3 
f 51/22/3 49/20/3 50/19/3 52/21/3 
f 53/24/3 51/22/3 52/21/3 54/23/3 
f 12/6/3 53/24/3 54/23/3 13/5/3 
f 20/28/3 55/27/3 56/26/3 
f 56/26/3 19/25/3 20/28/3 
f 57/30/3 56/26/3 55/27/3 58/29/3 
f 59/32/3 57/30/3 58/29/3 60/31/3 
f 61/34/3 59/32/3 60/31/3 62/33/3 
f 63/36/3 61/34/3 62/33/3 64/35/3 
f 14/4/3 63/36/3 64/35/3 11/7/3 
# 26 polygons - 8 triangles

