# 3ds Max Wavefront OBJ Exporter v0.97b - (c)2007 guruware
# File Created: 29.08.2016 22:37:58

#
# object Box013
#

v  -3.5000 8.2000 32.0000
v  -3.5000 8.2000 -0.0000
v  -6.0000 8.2000 -0.0000
v  -6.0000 8.2000 32.0000
v  -3.5000 8.2000 -32.0000
v  -6.0000 8.2000 -32.0000
v  6.0000 -0.3000 32.0000
v  6.0000 -0.3000 -0.0000
v  6.0000 8.2000 -0.0000
v  6.0000 8.2000 32.0000
v  6.0000 -0.3000 -32.0000
v  6.0000 8.2000 -32.0000
v  -6.0000 -0.3000 -0.0000
v  -6.0000 -0.3000 -32.0000
v  -6.0000 -0.3000 32.0000
v  -5.5000 0.0000 0.0000
v  -3.5000 0.0000 0.0000
v  -3.5000 0.0000 32.0001
v  -5.5000 0.0000 32.0001
v  -5.5000 0.0000 -32.0000
v  -3.5000 0.0000 -32.0000
v  -3.5000 8.0000 32.0001
v  -3.5000 8.0000 0.0000
v  -5.5000 8.0000 0.0000
v  -5.5000 8.0000 32.0001
v  -3.5000 8.0000 -32.0000
v  -5.5000 8.0000 -32.0000
v  5.5000 0.0000 32.0001
v  5.5000 0.0000 0.0000
v  5.5000 8.0000 0.0000
v  5.5000 8.0000 32.0001
v  5.5000 0.0000 -32.0000
v  5.5000 8.0000 -32.0000
v  3.5000 8.2000 32.0000
v  3.5000 8.2000 -0.0000
v  0.0000 8.2000 -0.0000
v  0.0000 8.2000 32.0000
v  3.5000 8.2000 -32.0000
v  0.0000 8.2000 -32.0000
v  3.5000 0.0000 0.0000
v  3.5000 0.0000 32.0001
v  0.0000 0.0000 32.0001
v  0.0000 0.0000 0.0000
v  3.5000 0.0000 -32.0000
v  0.0000 0.0000 -32.0000
v  3.5000 8.0000 32.0001
v  3.5000 8.0000 0.0000
v  0.0000 8.0000 0.0000
v  0.0000 8.0000 32.0001
v  3.5000 8.0000 -32.0000
v  0.0000 8.0000 -32.0000
# 51 vertices

vn 0.0000 1.0000 -0.0000
vn 1.0000 0.0000 -0.0000
vn -1.0000 0.0000 -0.0000
vn 0.0000 -1.0000 -0.0000
vn -0.7071 0.7071 -0.0000
vn -0.7071 -0.7071 -0.0000
vn 0.8000 0.6000 -0.0000
# 7 vertex normals

vt 0.3226 0.0000 0.0000
vt 0.3226 0.5000 0.0000
vt 0.2342 0.5000 0.0000
vt 0.2342 0.0000 0.0000
vt 0.3226 1.0000 0.0000
vt 0.2342 1.0000 0.0000
vt 0.4464 0.0000 0.0000
vt 0.4464 1.0000 0.0000
vt 0.6587 0.0000 0.0000
vt 0.6587 1.0000 0.0000
vt 0.1416 0.5000 0.0000
vt 0.1160 0.5000 0.0000
vt 0.1160 0.0000 0.0000
vt 0.1416 0.0000 0.0000
vt 0.1416 1.0000 0.0000
vt 0.1160 1.0000 0.0000
vt 0.3114 0.0000 0.0000
vt 0.3114 0.5000 0.0000
vt 0.3114 1.0000 0.0000
vt 0.5702 0.0000 0.0000
vt 0.5702 0.5000 0.0000
vt 0.4464 0.5000 0.0000
vt 0.5702 1.0000 0.0000
vt 0.0264 0.5000 0.0000
vt 0.0264 0.0000 0.0000
vt 0.0712 0.0000 0.0000
vt 0.0712 0.5000 0.0000
vt 0.0264 1.0000 0.0000
vt 0.0712 1.0000 0.0000
vt 0.5815 0.0000 0.0000
vt 0.5815 0.5000 0.0000
vt 0.5815 1.0000 0.0000
vt 0.6587 0.5000 0.0000
vt 0.0008 0.5000 0.0000
vt 0.0008 0.0000 0.0000
vt 0.0008 1.0000 0.0000
# 36 texture coords

g Box013
s 4
f 1/1/1 2/2/1 3/3/1 
f 3/3/1 4/4/1 1/1/1 
f 2/2/1 5/5/1 6/6/1 
f 6/6/1 3/3/1 2/2/1 
s 16
f 7/4/2 8/7/2 9/8/2 
f 9/8/2 10/6/2 7/4/2 
f 8/7/2 11/9/2 12/10/2 
f 12/10/2 9/8/2 8/7/2 
s 64
f 13/7/3 3/8/3 6/6/3 
f 6/6/3 14/4/3 13/7/3 
f 15/9/3 4/10/3 3/8/3 
f 3/8/3 13/7/3 15/9/3 
s 2
f 16/11/1 17/12/4 18/13/4 
f 18/13/4 19/14/5 16/11/1 
f 20/15/6 21/16/4 17/12/4 
f 17/12/4 16/11/6 20/15/6 
s 4
f 22/17/1 23/18/1 24/3/1 
f 24/3/1 25/4/1 22/17/1 
f 23/18/1 26/19/1 27/6/1 
f 27/6/1 24/3/1 23/18/1 
s 16
f 28/4/7 29/7/7 30/8/7 
f 30/8/7 31/6/7 28/4/7 
f 29/7/5 32/9/1 33/10/6 
f 33/10/6 30/8/5 29/7/5 
s 64
f 20/4/6 16/7/3 24/8/5 
f 24/8/5 27/6/6 20/4/6 
f 16/7/5 19/9/1 25/10/3 
f 25/10/3 24/8/5 16/7/5 
s 4
f 34/20/1 35/21/1 36/22/1 
f 36/22/1 37/7/1 34/20/1 
f 35/21/1 38/23/1 39/8/1 
f 39/8/1 36/22/6 35/21/1 
s 2
f 40/24/4 41/25/4 42/26/4 
f 42/26/4 43/27/4 40/24/4 
f 44/28/4 40/24/4 43/27/4 
f 43/27/4 45/29/4 44/28/4 
s 4
f 46/30/1 47/31/1 48/22/1 
f 48/22/1 49/7/1 46/30/1 
f 47/31/1 50/32/1 51/8/1 
f 51/8/1 48/22/1 47/31/1 
f 10/9/1 9/33/1 35/21/1 
f 35/21/1 34/20/1 10/9/1 
f 9/33/7 12/10/7 38/23/1 
f 38/23/1 35/21/7 9/33/7 
s 2
f 29/34/4 28/35/4 41/25/4 
f 41/25/4 40/24/4 29/34/4 
f 32/36/6 29/34/5 40/24/4 
f 40/24/4 44/28/1 32/36/6 
s 4
f 31/9/1 30/33/1 47/31/1 
f 47/31/1 46/30/1 31/9/1 
f 30/33/5 33/10/6 50/32/1 
f 50/32/1 47/31/1 30/33/5 
f 37/7/1 36/22/1 2/2/1 
f 2/2/1 1/1/1 37/7/1 
f 36/22/5 39/8/5 5/5/1 
f 5/5/1 2/2/1 36/22/5 
s 2
f 43/27/4 42/26/4 18/13/4 
f 18/13/4 17/12/4 43/27/4 
f 45/29/4 43/27/4 17/12/4 
f 17/12/4 21/16/4 45/29/4 
s 4
f 49/7/1 48/22/1 23/18/1 
f 23/18/1 22/17/1 49/7/1 
f 48/22/1 51/8/1 26/19/1 
f 26/19/1 23/18/1 48/22/1 
# 64 faces

