# 3ds Max Wavefront OBJ Exporter v0.97b - (c)2007 guruware
# File Created: 12.09.2017 08:11:37

#
# object Box011
#

v  -4.4499 0.0498 32.0000
v  -4.4499 0.0498 27.4286
v  4.4501 0.0498 27.4286
v  4.4501 0.0498 32.0000
v  -4.4499 0.0498 22.8571
v  4.4501 0.0498 22.8571
v  -4.4499 0.0498 18.2857
v  4.4501 0.0498 18.2857
v  -4.4499 0.0498 13.7143
v  4.4501 0.0498 13.7143
v  -4.4499 0.0498 9.1429
v  4.4501 0.0498 9.1429
v  -4.4499 0.0498 4.5714
v  4.4501 0.0498 4.5714
v  -4.4499 0.0498 -0.0000
v  4.4501 0.0498 -0.0000
v  -4.4499 0.0498 -4.5714
v  4.4501 0.0498 -4.5714
v  -4.4499 0.0498 -9.1429
v  4.4502 0.0498 -9.1429
v  -4.4499 0.0498 -13.7143
v  4.4501 0.0498 -13.7143
v  -4.4499 0.0498 -18.2857
v  4.4502 0.0498 -18.2857
v  -4.4499 0.0498 -22.8571
v  4.4501 0.0498 -22.8571
v  -4.4499 0.0498 -27.4286
v  4.4502 0.0498 -27.4286
v  -4.4499 0.0498 -32.0000
v  4.4501 0.0498 -32.0000
v  -4.4490 7.0000 32.0000
v  4.4510 7.0000 32.0000
v  4.4510 7.0000 27.4286
v  -4.4490 7.0000 27.4286
v  4.4510 7.0000 22.8571
v  -4.4490 7.0000 22.8571
v  4.4510 7.0000 18.2857
v  -4.4490 7.0000 18.2857
v  4.4510 7.0000 13.7143
v  -4.4490 7.0000 13.7143
v  4.4510 7.0000 9.1429
v  -4.4490 7.0000 9.1429
v  4.4510 7.0000 4.5714
v  -4.4490 7.0000 4.5714
v  4.4510 7.0000 -0.0000
v  -4.4490 7.0000 -0.0000
v  4.4510 7.0000 -4.5714
v  -4.4490 7.0000 -4.5714
v  4.4510 7.0000 -9.1429
v  -4.4490 7.0000 -9.1429
v  4.4510 7.0000 -13.7143
v  -4.4490 7.0000 -13.7143
v  4.4510 7.0000 -18.2857
v  -4.4490 7.0000 -18.2857
v  4.4510 7.0000 -22.8571
v  -4.4490 7.0000 -22.8571
v  4.4510 7.0000 -27.4286
v  -4.4490 7.0000 -27.4286
v  4.4510 7.0000 -32.0000
v  -4.4490 7.0000 -32.0000
v  -5.0006 -0.2000 31.9937
v  -5.0006 -0.2000 27.4223
v  4.9994 -0.2000 27.4223
v  4.9994 -0.2000 31.9937
v  -5.0006 -0.2000 22.8508
v  4.9994 -0.2000 22.8509
v  -5.0006 -0.2000 18.2794
v  4.9994 -0.2000 18.2794
v  -5.0006 -0.2000 13.7080
v  4.9994 -0.2000 13.7080
v  -5.0006 -0.2000 9.1366
v  4.9994 -0.2000 9.1366
v  -5.0006 -0.2000 4.5651
v  4.9994 -0.2000 4.5651
v  -5.0006 -0.2000 -0.0063
v  4.9994 -0.2000 -0.0063
v  -5.0006 -0.2000 -4.5777
v  4.9994 -0.2000 -4.5777
v  -5.0006 -0.2000 -9.1492
v  4.9994 -0.2000 -9.1491
v  -5.0006 -0.2000 -13.7206
v  4.9994 -0.2000 -13.7206
v  -5.0006 -0.2000 -18.2920
v  4.9994 -0.2000 -18.2920
v  -5.0006 -0.2000 -22.8634
v  4.9994 -0.2000 -22.8634
v  -5.0006 -0.2000 -27.4349
v  4.9994 -0.2000 -27.4349
v  -5.0006 -0.2000 -32.0063
v  4.9994 -0.2000 -32.0063
v  -5.0006 8.2003 31.9937
v  4.9994 8.2003 31.9937
v  4.9994 8.2003 27.4223
v  -5.0006 8.2003 27.4223
v  4.9994 8.2003 22.8509
v  -5.0006 8.2003 22.8508
v  4.9994 8.2003 18.2794
v  -5.0006 8.2003 18.2794
v  4.9994 8.2003 13.7080
v  -5.0006 8.2003 13.7080
v  4.9994 8.2003 9.1366
v  -5.0006 8.2003 9.1366
v  4.9994 8.2003 4.5651
v  -5.0006 8.2003 4.5651
v  4.9994 8.2003 -0.0063
v  -5.0006 8.2003 -0.0063
v  4.9994 8.2003 -4.5777
v  -5.0006 8.2003 -4.5777
v  4.9994 8.2003 -9.1491
v  -5.0006 8.2003 -9.1492
v  4.9994 8.2003 -13.7206
v  -5.0006 8.2003 -13.7206
v  4.9994 8.2003 -18.2920
v  -5.0006 8.2003 -18.2920
v  4.9994 8.2003 -22.8634
v  -5.0006 8.2003 -22.8634
v  4.9994 8.2003 -27.4349
v  -5.0006 8.2003 -27.4349
v  4.9994 8.2003 -32.0063
v  -5.0006 8.2003 -32.0063
# 120 vertices

vn -0.0000 -1.0000 -0.0000
vn -0.0000 -1.0000 0.0000
vn 0.0000 1.0000 -0.0000
vn 0.0000 1.0000 0.0000
vn 1.0000 -0.0001 -0.0000
vn 1.0000 -0.0001 0.0000
vn -1.0000 0.0001 -0.0000
vn 0.0000 -1.0000 -0.0000
vn 0.0000 -1.0000 0.0000
vn -0.0000 1.0000 -0.0000
vn -0.0000 1.0000 0.0000
vn 1.0000 0.0000 -0.0000
vn 1.0000 0.0000 0.0000
vn -1.0000 0.0000 -0.0000
# 14 vertex normals

vt 0.7505 0.0000 0.0000
vt 0.7505 0.0714 0.0000
vt 0.4040 0.0714 0.0000
vt 0.4040 0.0000 0.0000
vt 0.7505 0.1429 0.0000
vt 0.4040 0.1429 0.0000
vt 0.7505 0.2143 0.0000
vt 0.4040 0.2143 0.0000
vt 0.7505 0.2857 0.0000
vt 0.4040 0.2857 0.0000
vt 0.7505 0.3571 0.0000
vt 0.4040 0.3571 0.0000
vt 0.7505 0.4286 0.0000
vt 0.4040 0.4286 0.0000
vt 0.7505 0.5000 0.0000
vt 0.4040 0.5000 0.0000
vt 0.7505 0.5714 0.0000
vt 0.4040 0.5714 0.0000
vt 0.7505 0.6429 0.0000
vt 0.4040 0.6429 0.0000
vt 0.7505 0.7143 0.0000
vt 0.4040 0.7143 0.0000
vt 0.7505 0.7857 0.0000
vt 0.4040 0.7857 0.0000
vt 0.7505 0.8571 0.0000
vt 0.4040 0.8571 0.0000
vt 0.7505 0.9286 0.0000
vt 0.4040 0.9286 0.0000
vt 0.7505 1.0000 0.0000
vt 0.4040 1.0000 0.0000
vt 0.1921 1.0000 0.0000
vt 0.1921 0.0004 0.0000
vt 0.2879 0.0004 0.0000
vt 0.2879 1.0000 0.0000
vt 0.3838 0.0004 0.0000
vt 0.3838 1.0000 0.0000
vt 0.0002 1.0000 0.0000
vt 0.0002 0.0004 0.0000
vt 0.0961 0.0004 0.0000
vt 0.0961 1.0000 0.0000
vt 0.1920 0.0004 0.0000
vt 0.1920 1.0000 0.0000
vt 0.2878 0.0004 0.0000
vt 0.2878 1.0000 0.0000
vt 0.3837 0.0004 0.0000
vt 0.3837 1.0000 0.0000
vt 0.0004 1.0000 0.0000
vt 0.0004 0.0004 0.0000
vt 0.0962 0.0004 0.0000
vt 0.0962 1.0000 0.0000
vt 0.2880 0.0004 0.0000
vt 0.2880 1.0000 0.0000
vt 0.0003 1.0000 0.0000
vt 0.0003 0.0004 0.0000
vt 0.3834 -0.0000 0.0000
vt 0.3834 0.0714 0.0000
vt 0.0000 0.0714 0.0000
vt 0.0000 -0.0000 0.0000
vt 0.3834 0.1429 0.0000
vt 0.0000 0.1429 0.0000
vt 0.3834 0.2143 0.0000
vt 0.0000 0.2143 0.0000
vt 0.3834 0.2857 0.0000
vt 0.0000 0.2857 0.0000
vt 0.3834 0.3571 0.0000
vt 0.0000 0.3571 0.0000
vt 0.3834 0.4286 0.0000
vt 0.0000 0.4286 0.0000
vt 0.3834 0.5000 0.0000
vt 0.0000 0.5000 0.0000
vt 0.3834 0.5714 0.0000
vt 0.0000 0.5714 0.0000
vt 0.3834 0.6429 0.0000
vt 0.0000 0.6429 0.0000
vt 0.3834 0.7143 0.0000
vt 0.0000 0.7143 0.0000
vt 0.3834 0.7857 0.0000
vt 0.0000 0.7857 0.0000
vt 0.3834 0.8571 0.0000
vt 0.0000 0.8571 0.0000
vt 0.3834 0.9286 0.0000
vt 0.0000 0.9286 0.0000
vt 0.3834 1.0000 0.0000
vt 0.0000 1.0000 0.0000
# 84 texture coords

g Box011
s 2
f 1/1/1 2/2/1 3/3/1 4/4/1 
f 2/2/1 5/5/2 6/6/2 3/3/1 
f 5/5/2 7/7/1 8/8/1 6/6/2 
f 7/7/1 9/9/1 10/10/1 8/8/1 
f 9/9/1 11/11/2 12/12/2 10/10/1 
f 11/11/2 13/13/1 14/14/2 12/12/2 
f 13/13/1 15/15/1 16/16/1 14/14/2 
f 15/15/1 17/17/1 18/18/1 16/16/1 
f 17/17/1 19/19/2 20/20/2 18/18/1 
f 19/19/2 21/21/1 22/22/1 20/20/2 
f 21/21/1 23/23/2 24/24/2 22/22/1 
f 23/23/2 25/25/1 26/26/1 24/24/2 
f 25/25/1 27/27/2 28/28/2 26/26/1 
f 27/27/2 29/29/1 30/30/2 28/28/2 
s 4
f 31/31/3 32/32/3 33/33/3 34/34/3 
f 34/34/3 33/33/3 35/35/3 36/36/3 
f 36/37/3 35/38/3 37/39/4 38/40/4 
f 38/40/4 37/39/4 39/41/4 40/42/3 
f 40/42/3 39/41/4 41/43/3 42/44/3 
f 42/44/3 41/43/3 43/45/3 44/46/3 
f 44/47/3 43/48/3 45/49/3 46/50/3 
f 46/50/3 45/49/3 47/32/3 48/31/3 
f 48/31/3 47/32/3 49/51/3 50/52/3 
f 50/52/3 49/51/3 51/35/3 52/36/3 
f 52/53/3 51/54/3 53/39/3 54/40/3 
f 54/40/3 53/39/3 55/41/3 56/42/3 
f 56/42/3 55/41/3 57/33/3 58/34/3 
f 58/34/3 57/33/3 59/45/3 60/46/3 
s 16
f 4/55/5 3/56/5 33/57/5 32/58/5 
f 3/56/5 6/59/5 35/60/6 33/57/5 
f 6/59/5 8/61/5 37/62/5 35/60/6 
f 8/61/5 10/63/6 39/64/6 37/62/5 
f 10/63/6 12/65/5 41/66/5 39/64/6 
f 12/65/5 14/67/6 43/68/6 41/66/5 
f 14/67/6 16/69/5 45/70/5 43/68/6 
f 16/69/5 18/71/6 47/72/6 45/70/5 
f 18/71/6 20/73/6 49/74/5 47/72/6 
f 20/73/6 22/75/6 51/76/6 49/74/5 
f 22/75/6 24/77/5 53/78/6 51/76/6 
f 24/77/5 26/79/5 55/80/5 53/78/6 
f 26/79/5 28/81/6 57/82/5 55/80/5 
f 28/81/6 30/83/5 59/84/5 57/82/5 
s 64
f 29/55/7 27/56/7 58/57/7 60/58/7 
f 27/56/7 25/59/7 56/60/7 58/57/7 
f 25/59/7 23/61/7 54/62/7 56/60/7 
f 23/61/7 21/63/7 52/64/7 54/62/7 
f 21/63/7 19/65/7 50/66/7 52/64/7 
f 19/65/7 17/67/7 48/68/7 50/66/7 
f 17/67/7 15/69/7 46/70/7 48/68/7 
f 15/69/7 13/71/7 44/72/7 46/70/7 
f 13/71/7 11/73/7 42/74/7 44/72/7 
f 11/73/7 9/75/7 40/76/7 42/74/7 
f 9/75/7 7/77/7 38/78/7 40/76/7 
f 7/77/7 5/79/7 36/80/7 38/78/7 
f 5/79/7 2/81/7 34/82/7 36/80/7 
f 2/81/7 1/83/7 31/84/7 34/82/7 
s 2
f 61/32/8 62/33/8 63/34/8 64/31/8 
f 62/33/8 65/35/8 66/36/8 63/34/8 
f 65/38/8 67/39/8 68/40/8 66/37/8 
f 67/39/8 69/41/8 70/42/8 68/40/8 
f 69/41/8 71/43/8 72/44/8 70/42/8 
f 71/43/8 73/45/8 74/46/8 72/44/8 
f 73/48/8 75/49/8 76/50/8 74/47/8 
f 75/49/8 77/32/9 78/31/9 76/50/8 
f 77/32/9 79/51/8 80/52/8 78/31/9 
f 79/51/8 81/35/9 82/36/9 80/52/8 
f 81/54/9 83/39/8 84/40/8 82/53/9 
f 83/39/8 85/41/9 86/42/9 84/40/8 
f 85/41/9 87/33/8 88/34/8 86/42/9 
f 87/33/8 89/45/8 90/46/8 88/34/8 
s 4
f 91/31/10 92/32/10 93/33/10 94/34/10 
f 94/34/10 93/33/10 95/35/10 96/36/10 
f 96/37/10 95/38/10 97/39/10 98/40/10 
f 98/40/10 97/39/10 99/41/10 100/42/10 
f 100/42/10 99/41/10 101/43/10 102/44/10 
f 102/44/10 101/43/10 103/45/10 104/46/10 
f 104/47/10 103/48/10 105/49/10 106/50/10 
f 106/50/10 105/49/10 107/32/10 108/31/10 
f 108/31/10 107/32/10 109/51/11 110/52/11 
f 110/52/11 109/51/11 111/35/10 112/36/10 
f 112/53/10 111/54/10 113/39/11 114/40/11 
f 114/40/11 113/39/11 115/41/10 116/42/10 
f 116/42/10 115/41/10 117/33/11 118/34/11 
f 118/34/11 117/33/11 119/45/11 120/46/10 
s 16
f 64/55/12 63/56/12 93/57/12 92/58/12 
f 63/56/12 66/59/12 95/60/12 93/57/12 
f 66/59/12 68/61/12 97/62/12 95/60/12 
f 68/61/12 70/63/12 99/64/12 97/62/12 
f 70/63/12 72/65/12 101/66/12 99/64/12 
f 72/65/12 74/67/12 103/68/12 101/66/12 
f 74/67/12 76/69/12 105/70/12 103/68/12 
f 76/69/12 78/71/13 107/72/13 105/70/12 
f 78/71/13 80/73/13 109/74/12 107/72/13 
f 80/73/13 82/75/13 111/76/13 109/74/12 
f 82/75/13 84/77/13 113/78/13 111/76/13 
f 84/77/13 86/79/12 115/80/12 113/78/13 
f 86/79/12 88/81/13 117/82/13 115/80/12 
f 88/81/13 90/83/12 119/84/12 117/82/13 
s 64
f 89/55/14 87/56/14 118/57/14 120/58/14 
f 87/56/14 85/59/14 116/60/14 118/57/14 
f 85/59/14 83/61/14 114/62/14 116/60/14 
f 83/61/14 81/63/14 112/64/14 114/62/14 
f 81/63/14 79/65/14 110/66/14 112/64/14 
f 79/65/14 77/67/14 108/68/14 110/66/14 
f 77/67/14 75/69/14 106/70/14 108/68/14 
f 75/69/14 73/71/14 104/72/14 106/70/14 
f 73/71/14 71/73/14 102/74/14 104/72/14 
f 71/73/14 69/75/14 100/76/14 102/74/14 
f 69/75/14 67/77/14 98/78/14 100/76/14 
f 67/77/14 65/79/14 96/80/14 98/78/14 
f 65/79/14 62/81/14 94/82/14 96/80/14 
f 62/81/14 61/83/14 91/84/14 94/82/14 
# 112 polygons

