# 3ds Max Wavefront OBJ Exporter v0.97b - (c)2007 guruware
# File Created: 12.09.2017 08:12:28

#
# object Box007
#

v  4.4493 6.0000 32.0000
v  4.4493 7.0000 32.0000
v  3.5000 7.0000 32.0000
v  4.4493 6.0000 -0.0000
v  3.5000 7.0000 -0.0000
v  3.5000 7.0000 -4.5714
v  4.4493 6.0000 -4.5714
v  -3.4997 7.0000 32.0000
v  -4.4490 7.0000 32.0000
v  -4.4490 6.0000 32.0000
v  -3.4997 7.0000 -0.0000
v  -4.4490 6.0000 -0.0000
v  -4.4490 6.0000 -4.5714
v  -3.4997 7.0000 -4.5714
v  4.4493 6.0000 -32.0000
v  4.4493 7.0000 -32.0000
v  3.5000 7.0000 -32.0000
v  -3.4997 7.0000 -32.0000
v  -4.4490 7.0000 -32.0000
v  -4.4490 6.0000 -32.0000
v  3.5000 7.0000 27.4286
v  4.4493 6.0000 27.4286
v  3.5000 7.0000 22.8571
v  4.4493 6.0000 22.8571
v  3.5000 7.0000 18.2857
v  4.4493 6.0000 18.2857
v  3.5000 7.0000 13.7143
v  4.4493 6.0000 13.7143
v  3.5000 7.0000 9.1429
v  4.4493 6.0000 9.1429
v  3.5000 7.0000 4.5714
v  4.4493 6.0000 4.5714
v  4.4493 6.0000 -27.4286
v  3.5000 7.0000 -27.4286
v  4.4493 6.0000 -22.8571
v  3.5000 7.0000 -22.8571
v  4.4493 6.0000 -18.2857
v  3.5000 7.0000 -18.2857
v  4.4493 6.0000 -13.7143
v  3.5000 7.0000 -13.7143
v  4.4493 6.0000 -9.1429
v  3.5000 7.0000 -9.1429
v  -4.4490 6.0000 27.4286
v  -3.4997 7.0000 27.4286
v  -4.4490 6.0000 22.8571
v  -3.4997 7.0000 22.8571
v  -4.4490 6.0000 18.2857
v  -3.4997 7.0000 18.2857
v  -4.4490 6.0000 13.7143
v  -3.4997 7.0000 13.7143
v  -4.4490 6.0000 9.1429
v  -3.4997 7.0000 9.1429
v  -4.4490 6.0000 4.5714
v  -3.4997 7.0000 4.5714
v  -3.4997 7.0000 -27.4286
v  -4.4490 6.0000 -27.4286
v  -3.4997 7.0000 -22.8571
v  -4.4490 6.0000 -22.8571
v  -3.4997 7.0000 -18.2857
v  -4.4490 6.0000 -18.2857
v  -3.4997 7.0000 -13.7143
v  -4.4490 6.0000 -13.7143
v  -3.4997 7.0000 -9.1429
v  -4.4490 6.0000 -9.1429
# 64 vertices

vn 0.0000 -0.0000 1.0000
vn -0.7252 -0.6885 -0.0000
vn 0.7252 -0.6885 0.0000
vn 0.7252 -0.6885 -0.0000
vn 1.0000 0.0000 -0.0000
vn -0.0000 -0.0000 1.0000
# 6 vertex normals

vt 0.9639 0.9391 0.0000
vt 0.9639 0.9808 0.0000
vt 0.9269 0.9808 0.0000
vt 1.0000 0.5000 0.0000
vt 0.9272 0.5000 0.0000
vt 0.9272 0.4286 0.0000
vt 1.0000 0.4286 0.0000
vt 0.9639 0.9769 0.0000
vt 0.9269 0.9769 0.0000
vt 0.9269 0.9352 0.0000
vt 0.7500 0.5000 0.0000
vt 0.7857 0.4286 0.0000
vt 0.2143 0.4286 0.0000
vt 0.2500 0.5000 0.0000
vt 1.0000 1.0000 0.0000
vt 0.9272 1.0000 0.0000
vt 0.9272 0.9286 0.0000
vt 1.0000 0.9286 0.0000
vt 0.9272 0.8571 0.0000
vt 1.0000 0.8571 0.0000
vt 0.9272 0.7857 0.0000
vt 1.0000 0.7857 0.0000
vt 0.9272 0.7143 0.0000
vt 1.0000 0.7143 0.0000
vt 0.9272 0.6429 0.0000
vt 1.0000 0.6429 0.0000
vt 0.9272 0.5714 0.0000
vt 1.0000 0.5714 0.0000
vt 0.9272 0.0000 0.0000
vt 1.0000 0.0000 0.0000
vt 1.0000 0.0714 0.0000
vt 0.9272 0.0714 0.0000
vt 1.0000 0.1429 0.0000
vt 0.9272 0.1429 0.0000
vt 1.0000 0.2143 0.0000
vt 0.9272 0.2143 0.0000
vt 1.0000 0.2857 0.0000
vt 0.9272 0.2857 0.0000
vt 1.0000 0.3571 0.0000
vt 0.9272 0.3571 0.0000
vt 0.4643 0.9286 0.0000
vt 0.5000 1.0000 0.0000
vt 0.5357 0.9286 0.0000
vt 0.5714 0.8571 0.0000
vt 0.4286 0.8571 0.0000
vt 0.6071 0.7857 0.0000
vt 0.3929 0.7857 0.0000
vt 0.6429 0.7143 0.0000
vt 0.3571 0.7143 0.0000
vt 0.6786 0.6429 0.0000
vt 0.3214 0.6429 0.0000
vt 0.7143 0.5714 0.0000
vt 0.2857 0.5714 0.0000
vt 0.0000 0.0000 0.0000
vt 0.0357 0.0714 0.0000
vt 0.9643 0.0714 0.0000
vt 0.0714 0.1429 0.0000
vt 0.9286 0.1429 0.0000
vt 0.1071 0.2143 0.0000
vt 0.8929 0.2143 0.0000
vt 0.1429 0.2857 0.0000
vt 0.8571 0.2857 0.0000
vt 0.1786 0.3571 0.0000
vt 0.8214 0.3571 0.0000
# 64 texture coords

g Box007
s 4
f 1/1/1 2/2/1 3/3/1 
s 8
f 4/4/2 5/5/2 6/6/2 7/7/2 
s 4
f 8/8/1 9/9/1 10/10/1 
s 8
f 11/5/3 12/4/4 13/7/4 14/6/4 
s 64
f 11/11/5 14/12/5 14/13/5 11/14/5 
s 4
f 15/1/6 16/2/6 17/3/6 
f 18/8/1 18/8/5 19/9/1 20/10/1 
s 8
f 1/15/2 3/16/2 21/17/2 22/18/2 
f 22/18/2 21/17/2 23/19/2 24/20/2 
f 24/20/2 23/19/2 25/21/2 26/22/2 
f 26/22/2 25/21/2 27/23/2 28/24/2 
f 28/24/2 27/23/2 29/25/2 30/26/2 
f 30/26/2 29/25/2 31/27/2 32/28/2 
f 32/28/2 31/27/2 5/5/2 4/4/2 
f 17/29/2 15/30/2 33/31/2 34/32/2 
f 34/32/2 33/31/2 35/33/2 36/34/2 
f 36/34/2 35/33/2 37/35/2 38/36/2 
f 38/36/2 37/35/2 39/37/2 40/38/2 
f 40/38/2 39/37/2 41/39/2 42/40/2 
f 42/40/2 41/39/2 7/7/2 6/6/2 
f 8/16/3 10/15/3 43/18/3 44/17/3 
f 44/17/3 43/18/3 45/20/4 46/19/4 
f 46/19/4 45/20/4 47/22/3 48/21/4 
f 48/21/4 47/22/3 49/24/4 50/23/4 
f 50/23/4 49/24/4 51/26/4 52/25/4 
f 52/25/4 51/26/4 53/28/4 54/27/4 
f 54/27/4 53/28/4 12/4/4 11/5/3 
f 20/30/4 18/29/4 55/32/3 56/31/3 
f 56/31/3 55/32/3 57/34/3 58/33/3 
f 58/33/3 57/34/3 59/36/4 60/35/4 
f 60/35/4 59/36/4 61/38/4 62/37/3 
f 62/37/3 61/38/4 63/40/3 64/39/3 
f 64/39/3 63/40/3 14/6/4 13/7/4 
s 64
f 44/41/5 8/42/5 44/43/5 
f 44/43/5 46/44/5 46/45/5 44/41/5 
f 46/44/5 48/46/5 48/47/5 46/45/5 
f 48/46/5 50/48/5 50/49/5 48/47/5 
f 50/48/5 52/50/5 52/51/5 50/49/5 
f 52/50/5 54/52/5 54/53/5 52/51/5 
f 54/52/5 11/11/5 11/14/5 54/53/5 
f 18/54/5 55/55/5 55/56/5 18/30/5 
f 55/55/5 57/57/5 57/58/5 55/56/5 
f 57/57/5 59/59/5 59/60/5 57/58/5 
f 59/59/5 61/61/5 61/62/5 59/60/5 
f 61/61/5 63/63/5 63/64/5 61/62/5 
f 63/63/5 14/13/5 14/12/5 63/64/5 
# 42 polygons - 4 triangles

