# 3ds Max Wavefront OBJ Exporter v0.97b - (c)2007 guruware
# File Created: 10.12.2017 23:58:54

#
# object Box001
#

v  -5.1000 0.0000 -32.0000
v  -5.1000 0.0000 -16.0000
v  5.1000 0.0000 -16.0000
v  5.1000 0.0000 -32.0000
v  -5.1000 0.0000 -0.0000
v  5.1000 0.0000 -0.0000
v  -5.1000 -0.0000 16.0000
v  5.1000 -0.0000 16.0000
v  -5.1000 -0.0000 32.0000
v  5.1000 -0.0000 32.0000
v  5.1000 7.2000 -16.0000
v  5.1000 7.2000 -32.0000
v  5.1000 7.2000 -0.0000
v  5.1000 7.2000 16.0000
v  5.1000 7.2000 32.0000
v  -5.1000 7.2000 -16.0000
v  -5.1000 7.2000 -32.0000
v  -5.1000 7.2000 -0.0000
v  -5.1000 7.2000 16.0000
v  -5.1000 7.2000 32.0000
# 20 vertices

vn 0.0000 1.0000 0.0000
vn -1.0000 0.0000 -0.0000
vn 0.0000 -1.0000 -0.0000
vn 1.0000 0.0000 -0.0000
# 4 vertex normals

vt -0.0000 0.0000 0.0000
vt -0.0000 0.2500 0.0000
vt 0.3740 0.2500 0.0000
vt 0.3740 0.0000 0.0000
vt -0.0000 0.5000 0.0000
vt 0.3740 0.5000 0.0000
vt -0.0000 0.7500 0.0000
vt 0.3740 0.7500 0.0000
vt -0.0000 1.0000 0.0000
vt 0.3740 1.0000 0.0000
# 10 texture coords

g Box001
s 8
f 1/1/1 2/2/1 3/3/1 4/4/1 
f 2/2/1 5/5/1 6/6/1 3/3/1 
f 5/5/1 7/7/1 8/8/1 6/6/1 
f 7/7/1 9/9/1 10/10/1 8/8/1 
s 16
f 4/1/2 3/2/2 11/3/2 12/4/2 
f 3/2/2 6/5/2 13/6/2 11/3/2 
f 6/5/2 8/7/2 14/8/2 13/6/2 
f 8/7/2 10/9/2 15/10/2 14/8/2 
s 32
f 12/1/3 11/2/3 16/3/3 17/4/3 
f 11/2/3 13/5/3 18/6/3 16/3/3 
f 13/5/3 14/7/3 19/8/3 18/6/3 
f 14/7/3 15/9/3 20/10/3 19/8/3 
s 64
f 17/1/4 16/2/4 2/3/4 1/4/4 
f 16/2/4 18/5/4 5/6/4 2/3/4 
f 18/5/4 19/7/4 7/8/4 5/6/4 
f 19/7/4 20/9/4 9/10/4 7/8/4 
# 16 polygons

