# 3ds Max Wavefront OBJ Exporter v0.97b - (c)2007 guruware
# File Created: 26.09.2018 17:11:55

#
# object Object001
#

v  7.3149 0.2228 -26.6689
v  6.9125 0.2228 -20.7430
v  7.2441 0.1984 -20.7430
v  7.6466 0.1984 -26.6689
v  6.2945 0.2229 -14.8171
v  6.6262 0.1985 -14.8171
v  5.5226 0.2230 -8.8912
v  5.8543 0.1986 -8.8912
v  4.6582 0.2231 -2.9652
v  4.9901 0.1987 -2.9652
v  3.7631 0.2231 2.9607
v  4.0950 0.1987 2.9607
v  2.8988 0.2232 8.8866
v  3.2307 0.1988 8.8866
v  2.1268 0.2233 14.8125
v  2.4587 0.1989 14.8125
v  1.5086 0.2234 20.7384
v  1.8406 0.1990 20.7384
v  1.1060 0.2234 26.6644
v  1.4380 0.1990 26.6644
v  -0.6275 0.2369 26.6644
v  0.8812 0.2400 26.6644
v  1.2838 0.2400 20.7384
v  -0.2249 0.2369 20.7384
v  1.9020 0.2399 14.8125
v  0.3933 0.2368 14.8125
v  2.6740 0.2398 8.8866
v  1.1653 0.2367 8.8866
v  3.5383 0.2397 2.9607
v  2.0296 0.2366 2.9607
v  4.4334 0.2397 -2.9652
v  2.9247 0.2366 -2.9652
v  5.2978 0.2396 -8.8912
v  3.7891 0.2365 -8.8912
v  6.0697 0.2395 -14.8171
v  4.5610 0.2364 -14.8171
v  6.6877 0.2394 -20.7430
v  5.1790 0.2363 -20.7430
v  7.0901 0.2394 -26.6689
v  5.5814 0.2363 -26.6689
v  5.0250 0.1994 -26.6689
v  4.6225 0.1994 -20.7430
v  4.9546 0.2214 -20.7430
v  5.3570 0.2214 -26.6689
v  4.0046 0.1995 -14.8171
v  4.3366 0.2215 -14.8171
v  3.2327 0.1996 -8.8912
v  3.5647 0.2216 -8.8912
v  2.3685 0.1997 -2.9652
v  2.7003 0.2217 -2.9652
v  1.4734 0.1997 2.9607
v  1.8052 0.2217 2.9607
v  0.6091 0.1998 8.8866
v  0.9409 0.2218 8.8866
v  -0.1629 0.1999 14.8125
v  0.1689 0.2219 14.8125
v  -0.7810 0.2000 20.7385
v  -0.4493 0.2220 20.7385
v  -1.1836 0.2000 26.6644
v  -0.8519 0.2220 26.6644
v  -0.8519 0.0984 26.6644
v  0.8812 0.1016 26.6644
v  -0.6275 0.0986 26.6644
v  1.1060 0.0998 26.6644
v  5.3570 0.0978 -26.6689
v  7.0901 0.1010 -26.6689
v  5.5814 0.0980 -26.6689
v  7.3149 0.0992 -26.6689
v  7.3149 0.2229 -26.6689
v  6.9125 0.0992 -20.7430
v  6.2945 0.0993 -14.8171
v  5.5226 0.0994 -8.8912
v  4.6582 0.0995 -2.9652
v  3.7631 0.0995 2.9607
v  2.8988 0.0996 8.8866
v  2.1268 0.0997 14.8125
v  1.5086 0.0998 20.7384
v  4.9546 0.0978 -20.7430
v  4.3366 0.0979 -14.8171
v  3.5647 0.0980 -8.8912
v  2.7003 0.0981 -2.9652
v  1.8052 0.0981 2.9607
v  0.9409 0.0982 8.8866
v  0.1689 0.0983 14.8125
v  -0.4493 0.0984 20.7384
v  -0.4493 0.2220 20.7384
v  5.1790 0.0980 -20.7430
v  4.5610 0.0981 -14.8171
v  3.7891 0.0982 -8.8912
v  2.9247 0.0983 -2.9652
v  2.0296 0.0983 2.9607
v  1.1653 0.0984 8.8866
v  0.3933 0.0985 14.8125
v  -0.2249 0.0986 20.7384
v  6.6877 0.1010 -20.7430
v  6.0697 0.1011 -14.8171
v  5.2978 0.1012 -8.8912
v  4.4334 0.1013 -2.9652
v  3.5383 0.1013 2.9607
v  2.6740 0.1014 8.8866
v  1.9020 0.1015 14.8125
v  1.2838 0.1016 20.7384
v  -5.3570 0.2228 -26.6689
v  -4.9546 0.2229 -20.7430
v  -4.6221 0.1985 -20.7430
v  -5.0245 0.1984 -26.6689
v  -4.3367 0.2229 -14.8171
v  -4.0042 0.1985 -14.8171
v  -3.5648 0.2230 -8.8912
v  -3.2324 0.1986 -8.8912
v  -2.7006 0.2231 -2.9652
v  -2.3682 0.1987 -2.9652
v  -1.8055 0.2231 2.9607
v  -1.4732 0.1987 2.9607
v  -0.9412 0.2232 8.8866
v  -0.6089 0.1988 8.8866
v  -0.1693 0.2233 14.8125
v  0.1630 0.1989 14.8125
v  0.4488 0.2234 20.7384
v  0.7810 0.1990 20.7384
v  0.8514 0.2234 26.6644
v  1.1836 0.1990 26.6644
v  -0.8821 0.2369 26.6644
v  0.6266 0.2400 26.6644
v  0.2240 0.2400 20.7384
v  -1.2847 0.2369 20.7384
v  -0.3941 0.2399 14.8125
v  -1.9028 0.2368 14.8125
v  -1.1660 0.2398 8.8866
v  -2.6747 0.2367 8.8866
v  -2.0303 0.2397 2.9607
v  -3.5390 0.2366 2.9607
v  -2.9254 0.2397 -2.9652
v  -4.4341 0.2366 -2.9652
v  -3.7896 0.2396 -8.8912
v  -5.2983 0.2365 -8.8912
v  -4.5615 0.2395 -14.8171
v  -6.0702 0.2364 -14.8171
v  -5.1794 0.2395 -20.7430
v  -6.6881 0.2364 -20.7430
v  -5.5818 0.2394 -26.6689
v  -7.0905 0.2363 -26.6689
v  -7.6461 0.1994 -26.6689
v  -7.2437 0.1995 -20.7430
v  -6.9125 0.2215 -20.7430
v  -7.3149 0.2214 -26.6689
v  -6.6258 0.1995 -14.8171
v  -6.2946 0.2215 -14.8171
v  -5.8540 0.1996 -8.8912
v  -5.5227 0.2216 -8.8912
v  -4.9898 0.1997 -2.9652
v  -4.6585 0.2217 -2.9652
v  -4.0948 0.1997 2.9607
v  -3.7634 0.2217 2.9607
v  -3.2305 0.1998 8.8866
v  -2.8991 0.2218 8.8866
v  -2.4586 0.1999 14.8125
v  -2.1272 0.2219 14.8125
v  -1.8406 0.2000 20.7385
v  -1.5091 0.2220 20.7385
v  -1.4380 0.2000 26.6644
v  -1.1065 0.2220 26.6644
v  -1.1065 0.0984 26.6644
v  0.6266 0.1016 26.6644
v  -0.8821 0.0986 26.6644
v  0.8514 0.0998 26.6644
v  -7.3149 0.0978 -26.6689
v  -5.5818 0.1010 -26.6689
v  -7.0905 0.0980 -26.6689
v  -5.3570 0.0992 -26.6689
v  -5.3570 0.2229 -26.6689
v  -4.9546 0.0993 -20.7430
v  -4.3367 0.0993 -14.8171
v  -3.5648 0.0994 -8.8912
v  -2.7006 0.0995 -2.9652
v  -1.8055 0.0995 2.9607
v  -0.9412 0.0996 8.8866
v  -0.1693 0.0997 14.8125
v  0.4488 0.0998 20.7384
v  -6.9125 0.0979 -20.7430
v  -6.2946 0.0979 -14.8171
v  -5.5227 0.0980 -8.8912
v  -4.6585 0.0981 -2.9652
v  -3.7634 0.0981 2.9607
v  -2.8991 0.0982 8.8866
v  -2.1272 0.0983 14.8125
v  -1.5091 0.0984 20.7384
v  -1.5091 0.2220 20.7384
v  -6.6881 0.0981 -20.7430
v  -6.0702 0.0981 -14.8171
v  -5.2983 0.0982 -8.8912
v  -4.4341 0.0983 -2.9652
v  -3.5390 0.0983 2.9607
v  -2.6747 0.0984 8.8866
v  -1.9028 0.0985 14.8125
v  -1.2847 0.0986 20.7384
v  -5.1794 0.1011 -20.7430
v  -4.5615 0.1011 -14.8171
v  -3.7896 0.1012 -8.8912
v  -2.9254 0.1013 -2.9652
v  -2.0303 0.1013 2.9607
v  -1.1660 0.1014 8.8866
v  -0.3941 0.1015 14.8125
v  0.2240 0.1016 20.7384
# 204 vertices

vn 0.0734 0.9973 0.0050
vn 0.0734 0.9973 0.0064
vn 0.0734 0.9973 0.0062
vn 0.0734 0.9973 0.0087
vn 0.0734 0.9973 0.0085
vn 0.0733 0.9973 0.0102
vn 0.0733 0.9973 0.0101
vn 0.0733 0.9972 0.0109
vn 0.0733 0.9973 0.0085
vn 0.0733 0.9973 0.0087
vn 0.0733 0.9973 0.0062
vn 0.0733 0.9973 0.0064
vn 0.0733 0.9973 0.0050
vn -0.0021 1.0000 -0.0001
vn -0.0021 1.0000 -0.0002
vn -0.0021 1.0000 -0.0003
vn -0.0661 0.9978 -0.0045
vn -0.0661 0.9978 -0.0058
vn -0.0661 0.9978 -0.0056
vn -0.0661 0.9978 -0.0078
vn -0.0661 0.9978 -0.0077
vn -0.0661 0.9978 -0.0092
vn -0.0661 0.9978 -0.0091
vn -0.0661 0.9978 -0.0098
vn -0.0662 0.9978 -0.0091
vn -0.0662 0.9978 -0.0092
vn -0.0662 0.9978 -0.0077
vn -0.0662 0.9978 -0.0078
vn -0.0662 0.9978 -0.0056
vn -0.0662 0.9978 -0.0058
vn -0.0662 0.9978 -0.0045
vn 0.0000 0.0000 1.0000
vn 0.0000 0.0000 -1.0000
vn -0.9977 0.0001 -0.0678
vn -0.9963 0.0001 -0.0858
vn -0.9932 0.0001 -0.1165
vn -0.9906 0.0001 -0.1368
vn -0.9892 0.0000 -0.1468
vn -0.9906 0.0000 -0.1368
vn -0.9932 0.0000 -0.1165
vn -0.9963 0.0000 -0.0858
vn -0.9977 0.0000 -0.0678
vn 0.0732 0.9973 -0.0050
vn 0.0732 0.9973 -0.0062
vn 0.0732 0.9973 -0.0064
vn 0.0732 0.9973 -0.0085
vn 0.0732 0.9973 -0.0087
vn 0.0732 0.9973 -0.0101
vn 0.0732 0.9973 -0.0102
vn 0.0732 0.9973 -0.0109
vn 0.0733 0.9973 -0.0064
vn 0.0733 0.9973 -0.0062
vn 0.0733 0.9973 -0.0050
vn -0.0021 1.0000 0.0001
vn -0.0021 1.0000 0.0002
vn -0.0021 1.0000 0.0003
vn -0.0663 0.9978 0.0045
vn -0.0663 0.9978 0.0056
vn -0.0663 0.9978 0.0058
vn -0.0663 0.9978 0.0077
vn -0.0663 0.9978 0.0078
vn -0.0663 0.9978 0.0091
vn -0.0663 0.9978 0.0092
vn -0.0663 0.9978 0.0098
vn -0.0662 0.9978 0.0098
vn -0.0662 0.9978 0.0092
vn -0.0662 0.9978 0.0091
vn -0.0662 0.9978 0.0078
vn -0.0662 0.9978 0.0077
vn -0.0662 0.9978 0.0058
vn -0.0662 0.9978 0.0056
vn -0.0662 0.9978 0.0045
vn -0.9977 -0.0001 0.0678
vn -0.9963 -0.0001 0.0857
vn -0.9932 -0.0001 0.1164
vn -0.9906 -0.0001 0.1367
vn -0.9892 -0.0000 0.1468
vn -0.9906 -0.0000 0.1368
vn -0.9932 -0.0000 0.1165
vn -0.9963 -0.0000 0.0858
vn -0.9977 -0.0000 0.0678
vn -0.9906 -0.0000 0.1367
vn -0.9963 -0.0000 0.0857
vn -0.9932 -0.0000 0.1164
# 84 vertex normals

vt 0.0018 1.0000 0.0000
vt 0.0018 -0.0000 0.0000
vt 0.0584 -0.0000 0.0000
vt 0.0584 1.0000 0.0000
vt 0.0022 1.0000 0.0000
vt 0.0022 -0.0000 0.0000
vt 0.0587 -0.0000 0.0000
vt 0.0587 1.0000 0.0000
vt 0.0015 1.0000 0.0000
vt 0.0015 -0.0000 0.0000
vt 0.0580 -0.0000 0.0000
vt 0.0580 1.0000 0.0000
vt 0.0581 -0.0000 0.0000
vt 0.0581 1.0000 0.0000
vt 0.0019 1.0000 0.0000
vt 0.0019 -0.0000 0.0000
vt 0.2583 0.0000 0.0000
vt 0.2583 1.0000 0.0000
vt 0.0012 0.0000 0.0000
vt 0.2580 0.0000 0.0000
vt 0.2580 1.0000 0.0000
vt 0.0012 1.0000 0.0000
vt 0.0011 -0.0000 0.0000
vt 0.2579 -0.0000 0.0000
vt 0.2579 1.0000 0.0000
vt 0.0011 1.0000 0.0000
vt 0.2586 -0.0000 0.0000
vt 0.2586 1.0000 0.0000
vt 0.2583 -0.0000 0.0000
vt 0.2016 1.0000 0.0000
vt 0.2016 -0.0000 0.0000
vt 0.2581 -0.0000 0.0000
vt 0.2581 1.0000 0.0000
vt 0.2020 1.0000 0.0000
vt 0.2020 -0.0000 0.0000
vt 0.2584 -0.0000 0.0000
vt 0.2584 1.0000 0.0000
vt 0.2013 1.0000 0.0000
vt 0.2013 -0.0000 0.0000
vt 0.2577 -0.0000 0.0000
vt 0.2577 1.0000 0.0000
vt 0.2017 1.0000 0.0000
vt 0.2017 -0.0000 0.0000
vt 0.0329 0.0805 0.0000
vt 0.0000 0.0727 0.0000
vt 0.0329 0.0364 0.0000
vt 0.2048 0.0375 0.0000
vt 0.2048 0.0870 0.0000
vt 0.0551 0.0859 0.0000
vt 0.0551 0.0364 0.0000
vt 0.2271 0.0369 0.0000
vt 0.2600 0.0723 0.0000
vt 0.2271 0.0810 0.0000
vt 0.0016 1.0000 0.0000
vt 0.1153 1.0000 0.0000
vt 0.1153 -0.0000 0.0000
vt 0.0016 -0.0000 0.0000
vt 0.1446 0.0000 0.0000
vt 0.1446 1.0000 0.0000
vt 0.1446 -0.0000 0.0000
# 60 texture coords

g Object001
s 1
f 1/1/1 2/2/2 3/3/3 
f 3/3/3 4/4/1 1/1/1 
f 2/1/2 5/2/4 6/3/5 
f 6/3/5 3/4/3 2/1/2 
f 5/5/4 7/6/6 8/7/7 
f 8/7/7 6/8/5 5/5/4 
f 7/5/6 9/6/8 10/7/8 
f 10/7/8 8/8/7 7/5/6 
f 9/9/8 11/10/8 12/11/8 
f 12/11/8 10/12/8 9/9/8 
f 11/9/8 13/10/7 14/13/6 
f 14/13/6 12/14/8 11/9/8 
f 13/15/7 15/16/9 16/3/10 
f 16/3/10 14/4/6 13/15/7 
f 15/15/9 17/16/11 18/3/12 
f 18/3/12 16/4/10 15/15/9 
f 17/15/11 19/16/13 20/3/13 
f 20/3/13 18/4/12 17/15/11 
s 2
f 21/10/14 22/17/14 23/18/15 
f 23/18/15 24/9/15 21/10/14 
f 24/10/15 23/17/15 25/18/16 
f 25/18/16 26/9/15 24/10/15 
f 26/19/15 25/20/16 27/21/16 
f 27/21/16 28/22/16 26/19/15 
f 28/23/16 27/24/16 29/25/16 
f 29/25/16 30/26/16 28/23/16 
f 30/2/16 29/27/16 31/28/16 
f 31/28/16 32/1/16 30/2/16 
f 32/2/16 31/27/16 33/28/16 
f 33/28/16 34/1/16 32/2/16 
f 34/10/16 33/29/16 35/18/15 
f 35/18/15 36/9/16 34/10/16 
f 36/10/16 35/29/15 37/18/15 
f 37/18/15 38/9/15 36/10/16 
f 38/10/15 37/29/15 39/18/14 
f 39/18/14 40/9/14 38/10/15 
s 1
f 41/30/17 42/31/18 43/32/19 
f 43/32/19 44/33/17 41/30/17 
f 42/30/18 45/31/20 46/32/21 
f 46/32/21 43/33/19 42/30/18 
f 45/34/20 47/35/22 48/36/23 
f 48/36/23 46/37/21 45/34/20 
f 47/34/22 49/35/24 50/36/24 
f 50/36/24 48/37/23 47/34/22 
f 49/38/24 51/39/24 52/40/24 
f 52/40/24 50/41/24 49/38/24 
f 51/38/24 53/39/25 54/40/26 
f 54/40/26 52/41/24 51/38/24 
f 53/30/25 55/31/27 56/32/28 
f 56/32/28 54/33/26 53/30/25 
f 55/42/27 57/43/29 58/32/30 
f 58/32/30 56/33/28 55/42/27 
f 57/30/29 59/31/31 60/32/31 
f 60/32/31 58/33/30 57/30/29 
s off
f 60/44/32 59/45/32 61/46/32 
f 62/47/32 22/48/32 21/49/32 
f 21/49/32 63/50/32 62/47/32 
f 64/51/32 20/52/32 19/53/32 
f 44/44/33 65/46/33 41/45/33 
f 66/47/33 67/50/33 40/49/33 
f 40/49/33 39/48/33 66/47/33 
f 68/51/33 69/53/33 4/52/33 
s 1
f 1/54/34 68/55/34 70/56/35 
f 70/56/35 2/57/35 1/54/34 
f 2/54/35 70/55/35 71/56/36 
f 71/56/36 5/57/36 2/54/35 
f 5/54/36 71/55/36 72/56/37 
f 72/56/37 7/57/37 5/54/36 
f 7/54/37 72/55/37 73/56/38 
f 73/56/38 9/57/38 7/54/37 
f 9/54/38 73/55/38 74/56/38 
f 74/56/38 11/57/38 9/54/38 
f 11/54/38 74/55/38 75/56/39 
f 75/56/39 13/57/39 11/54/38 
f 13/54/39 75/55/39 76/56/40 
f 76/56/40 15/57/40 13/54/39 
f 15/54/40 76/55/40 77/56/41 
f 77/56/41 17/57/41 15/54/40 
f 17/54/41 77/55/41 64/56/42 
f 64/56/42 19/57/42 17/54/41 
f 44/54/34 65/55/34 78/56/35 
f 78/56/35 43/57/35 44/54/34 
f 43/54/35 78/55/35 79/56/36 
f 79/56/36 46/57/36 43/54/35 
f 46/54/36 79/55/36 80/56/39 
f 80/56/39 48/57/39 46/54/36 
f 48/54/39 80/55/39 81/56/38 
f 81/56/38 50/57/38 48/54/39 
f 50/54/38 81/55/38 82/56/38 
f 82/56/38 52/57/38 50/54/38 
f 52/54/38 82/55/38 83/56/39 
f 83/56/39 54/57/39 52/54/38 
f 54/54/39 83/55/39 84/56/40 
f 84/56/40 56/57/40 54/54/39 
f 56/54/40 84/55/40 85/56/41 
f 85/56/41 86/57/41 56/54/40 
f 86/54/41 85/55/41 61/56/42 
f 61/56/42 60/57/42 86/54/41 
f 40/17/34 67/58/34 87/59/41 
f 87/59/41 38/18/41 40/17/34 
f 38/17/41 87/60/41 88/59/40 
f 88/59/40 36/18/40 38/17/41 
f 36/29/40 88/60/40 89/59/39 
f 89/59/39 34/18/39 36/29/40 
f 34/29/39 89/60/39 90/59/38 
f 90/59/38 32/18/38 34/29/39 
f 32/29/38 90/60/38 91/59/38 
f 91/59/38 30/18/38 32/29/38 
f 30/29/38 91/60/38 92/59/39 
f 92/59/39 28/18/39 30/29/38 
f 28/29/39 92/60/39 93/59/40 
f 93/59/40 26/18/40 28/29/39 
f 26/29/40 93/60/40 94/59/41 
f 94/59/41 24/18/41 26/29/40 
f 24/29/41 94/58/41 63/59/42 
f 63/59/42 21/18/42 24/29/41 
f 39/17/34 66/58/34 95/59/41 
f 95/59/41 37/18/41 39/17/34 
f 37/17/41 95/60/41 96/59/40 
f 96/59/40 35/18/40 37/17/41 
f 35/29/40 96/60/40 97/59/39 
f 97/59/39 33/18/39 35/29/40 
f 33/29/39 97/60/39 98/59/38 
f 98/59/38 31/18/38 33/29/39 
f 31/29/38 98/60/38 99/59/38 
f 99/59/38 29/18/38 31/29/38 
f 29/29/38 99/60/38 100/59/39 
f 100/59/39 27/18/39 29/29/38 
f 27/29/39 100/60/39 101/59/40 
f 101/59/40 25/18/40 27/29/39 
f 25/29/40 101/60/40 102/59/41 
f 102/59/41 23/18/41 25/29/40 
f 23/29/41 102/58/41 62/59/42 
f 62/59/42 22/18/42 23/29/41 
f 103/1/43 104/2/44 105/3/45 
f 105/3/45 106/4/43 103/1/43 
f 104/1/44 107/2/46 108/3/47 
f 108/3/47 105/4/45 104/1/44 
f 107/5/46 109/6/48 110/7/49 
f 110/7/49 108/8/47 107/5/46 
f 109/5/48 111/6/50 112/7/50 
f 112/7/50 110/8/49 109/5/48 
f 111/9/50 113/10/50 114/11/50 
f 114/11/50 112/12/50 111/9/50 
f 113/9/50 115/10/49 116/13/48 
f 116/13/48 114/14/50 113/9/50 
f 115/15/49 117/16/47 118/3/46 
f 118/3/46 116/4/48 115/15/49 
f 117/15/47 119/16/51 120/3/52 
f 120/3/52 118/4/46 117/15/47 
f 119/15/51 121/16/53 122/3/53 
f 122/3/53 120/4/52 119/15/51 
s 2
f 123/10/54 124/17/54 125/18/55 
f 125/18/55 126/9/55 123/10/54 
f 126/10/55 125/17/55 127/18/55 
f 127/18/55 128/9/55 126/10/55 
f 128/19/55 127/20/55 129/21/56 
f 129/21/56 130/22/56 128/19/55 
f 130/23/56 129/24/56 131/25/56 
f 131/25/56 132/26/56 130/23/56 
f 132/2/56 131/27/56 133/28/56 
f 133/28/56 134/1/56 132/2/56 
f 134/2/56 133/27/56 135/28/56 
f 135/28/56 136/1/56 134/2/56 
f 136/10/56 135/29/56 137/18/55 
f 137/18/55 138/9/55 136/10/56 
f 138/10/55 137/29/55 139/18/55 
f 139/18/55 140/9/55 138/10/55 
f 140/10/55 139/29/55 141/18/54 
f 141/18/54 142/9/54 140/10/55 
s 1
f 143/30/57 144/31/58 145/32/59 
f 145/32/59 146/33/57 143/30/57 
f 144/30/58 147/31/60 148/32/61 
f 148/32/61 145/33/59 144/30/58 
f 147/34/60 149/35/62 150/36/63 
f 150/36/63 148/37/61 147/34/60 
f 149/34/62 151/35/64 152/36/64 
f 152/36/64 150/37/63 149/34/62 
f 151/38/64 153/39/65 154/40/65 
f 154/40/65 152/41/64 151/38/64 
f 153/38/65 155/39/66 156/40/67 
f 156/40/67 154/41/65 153/38/65 
f 155/30/66 157/31/68 158/32/69 
f 158/32/69 156/33/67 155/30/66 
f 157/42/68 159/43/70 160/32/71 
f 160/32/71 158/33/69 157/42/68 
f 159/30/70 161/31/72 162/32/72 
f 162/32/72 160/33/71 159/30/70 
s off
f 162/44/32 161/45/32 163/46/32 
f 164/47/32 124/48/32 123/49/32 
f 123/49/32 165/50/32 164/47/32 
f 166/51/32 122/52/32 121/53/32 
f 146/44/33 167/46/33 143/45/33 
f 168/47/33 169/50/33 142/49/33 
f 142/49/33 141/48/33 168/47/33 
f 170/51/33 171/53/33 106/52/33 
s 1
f 103/54/73 170/55/73 172/56/74 
f 172/56/74 104/57/74 103/54/73 
f 104/54/74 172/55/74 173/56/75 
f 173/56/75 107/57/75 104/54/74 
f 107/54/75 173/55/75 174/56/76 
f 174/56/76 109/57/76 107/54/75 
f 109/54/76 174/55/76 175/56/77 
f 175/56/77 111/57/77 109/54/76 
f 111/54/77 175/55/77 176/56/77 
f 176/56/77 113/57/77 111/54/77 
f 113/54/77 176/55/77 177/56/78 
f 177/56/78 115/57/78 113/54/77 
f 115/54/78 177/55/78 178/56/79 
f 178/56/79 117/57/79 115/54/78 
f 117/54/79 178/55/79 179/56/80 
f 179/56/80 119/57/80 117/54/79 
f 119/54/80 179/55/80 166/56/81 
f 166/56/81 121/57/81 119/54/80 
f 146/54/73 167/55/73 180/56/74 
f 180/56/74 145/57/74 146/54/73 
f 145/54/74 180/55/74 181/56/75 
f 181/56/75 148/57/75 145/54/74 
f 148/54/75 181/55/75 182/56/82 
f 182/56/82 150/57/82 148/54/75 
f 150/54/82 182/55/82 183/56/77 
f 183/56/77 152/57/77 150/54/82 
f 152/54/77 183/55/77 184/56/77 
f 184/56/77 154/57/77 152/54/77 
f 154/54/77 184/55/77 185/56/78 
f 185/56/78 156/57/78 154/54/77 
f 156/54/78 185/55/78 186/56/79 
f 186/56/79 158/57/79 156/54/78 
f 158/54/79 186/55/79 187/56/80 
f 187/56/80 188/57/80 158/54/79 
f 188/54/80 187/55/80 163/56/81 
f 163/56/81 162/57/81 188/54/80 
f 142/17/73 169/58/73 189/59/83 
f 189/59/83 140/18/83 142/17/73 
f 140/17/83 189/60/83 190/59/84 
f 190/59/84 138/18/84 140/17/83 
f 138/29/84 190/60/84 191/59/82 
f 191/59/82 136/18/82 138/29/84 
f 136/29/82 191/60/82 192/59/77 
f 192/59/77 134/18/77 136/29/82 
f 134/29/77 192/60/77 193/59/77 
f 193/59/77 132/18/77 134/29/77 
f 132/29/77 193/60/77 194/59/78 
f 194/59/78 130/18/78 132/29/77 
f 130/29/78 194/60/78 195/59/79 
f 195/59/79 128/18/79 130/29/78 
f 128/29/79 195/60/79 196/59/80 
f 196/59/80 126/18/80 128/29/79 
f 126/29/80 196/58/80 165/59/81 
f 165/59/81 123/18/81 126/29/80 
f 141/17/73 168/58/73 197/59/83 
f 197/59/83 139/18/83 141/17/73 
f 139/17/83 197/60/83 198/59/84 
f 198/59/84 137/18/84 139/17/83 
f 137/29/84 198/60/84 199/59/82 
f 199/59/82 135/18/82 137/29/84 
f 135/29/82 199/60/82 200/59/77 
f 200/59/77 133/18/77 135/29/82 
f 133/29/77 200/60/77 201/59/77 
f 201/59/77 131/18/77 133/29/77 
f 131/29/77 201/60/77 202/59/78 
f 202/59/78 129/18/78 131/29/77 
f 129/29/78 202/60/78 203/59/79 
f 203/59/79 127/18/79 129/29/78 
f 127/29/79 203/60/79 204/59/80 
f 204/59/80 125/18/80 127/29/79 
f 125/29/80 204/58/80 164/59/81 
f 164/59/81 124/18/81 125/29/80 
# 0 polygons - 268 triangles

