# 3ds Max Wavefront OBJ Exporter v0.97b - (c)2007 guruware
# File Created: 19.12.2018 22:35:14

#
# object Boosted_Rail_Single_Merge
#

v  0.6136 0.0913 26.6778
v  0.4888 0.0915 31.5112
v  1.2383 0.0715 31.5112
v  1.3635 0.0713 26.6778
v  0.4888 -0.2885 31.5112
v  1.2383 -0.2885 31.5112
v  1.3634 -0.2887 26.6778
v  2.0939 0.0886 11.1825
v  2.8444 0.0686 11.1825
v  2.8442 -0.2914 11.1825
v  2.0937 -0.2914 11.1825
v  1.4953 -0.2903 16.0100
v  1.4955 0.0897 16.0100
v  -1.1135 0.0713 26.6778
v  -1.2371 0.0715 31.5112
v  -0.4876 0.0915 31.5112
v  -0.3633 0.0913 26.6778
v  -1.2371 -0.2885 31.5112
v  -0.4876 -0.2885 31.5112
v  -0.3634 -0.2887 26.6778
v  0.3643 0.0686 11.1825
v  1.1157 0.0886 11.1825
v  1.1155 -0.2914 11.1825
v  0.3641 -0.2914 11.1825
v  -0.2338 -0.2903 16.0100
v  -0.2337 0.0697 16.0100
v  2.9183 0.0872 5.3417
v  2.2287 0.0884 10.1824
v  2.9792 0.0684 10.1824
v  3.6687 0.0672 5.3417
v  2.2285 -0.2916 10.1824
v  2.9790 -0.2916 10.1824
v  3.6684 -0.2928 5.3417
v  5.2078 0.0831 -10.1480
v  5.9570 0.0631 -10.1480
v  5.9566 -0.2969 -10.1480
v  5.2074 -0.2969 -10.1480
v  4.5209 -0.2957 -5.3268
v  4.5212 0.0843 -5.3268
v  1.1886 0.0672 5.3417
v  0.4990 0.0684 10.1824
v  1.2504 0.0884 10.1824
v  1.9400 0.0872 5.3417
v  0.4988 -0.2916 10.1824
v  1.2503 -0.2916 10.1824
v  1.9399 -0.2928 5.3417
v  3.4802 0.0631 -10.1480
v  4.2310 0.0831 -10.1480
v  4.2306 -0.2969 -10.1480
v  3.4798 -0.2969 -10.1480
v  2.7923 -0.2957 -5.3268
v  2.7926 0.0643 -5.3268
v  5.9434 0.0818 -15.9951
v  5.3426 0.0829 -11.1480
v  6.0916 0.0629 -11.1480
v  6.6930 0.0618 -15.9951
v  5.3422 -0.2971 -11.1480
v  6.0912 -0.2971 -11.1480
v  6.6926 -0.2982 -15.9951
v  6.9531 0.0800 -31.4768
v  7.7026 0.0600 -31.4768
v  7.7020 -0.3000 -31.4768
v  6.9525 -0.3000 -31.4768
v  6.8264 -0.2998 -26.6628
v  6.8269 0.0802 -26.6628
v  4.2168 0.0618 -15.9951
v  3.6150 0.0629 -11.1481
v  4.3657 0.0829 -11.1481
v  4.9671 0.0818 -15.9951
v  3.6146 -0.2971 -11.1481
v  4.3654 -0.2971 -11.1481
v  4.9667 -0.2982 -15.9951
v  5.2272 0.0600 -31.4768
v  5.9766 0.0800 -31.4768
v  5.9761 -0.3000 -31.4768
v  5.2266 -0.3000 -31.4768
v  5.1005 -0.2998 -26.6628
v  5.1010 0.0602 -26.6628
v  5.2708 0.0643 -5.3268
v  3.7198 0.0858 0.0075
v  4.4698 0.0658 0.0075
v  4.4695 -0.2942 0.0075
v  5.2704 -0.2957 -5.3268
v  3.7195 -0.2942 0.0075
v  2.9181 -0.2928 5.3417
v  3.5437 0.0843 -5.3268
v  1.9905 0.0658 0.0075
v  2.7419 0.0858 0.0075
v  2.7416 -0.2942 0.0075
v  3.5434 -0.2957 -5.3268
v  1.9902 -0.2942 0.0075
v  1.1884 -0.2928 5.3417
v  7.2246 0.0609 -21.3290
v  6.4747 0.0809 -21.3290
v  7.2242 -0.2991 -21.3290
v  5.9430 -0.2982 -15.9951
v  5.4987 0.0809 -21.3290
v  4.7488 0.0609 -21.3290
v  5.4982 -0.2991 -21.3290
v  4.2164 -0.2982 -15.9951
v  6.4743 -0.2991 -21.3290
v  4.7484 -0.2991 -21.3290
v  7.5765 0.0602 -26.6628
v  7.5760 -0.2998 -26.6628
v  5.8506 0.0802 -26.6628
v  5.8501 -0.2998 -26.6628
v  2.2459 0.0697 16.0100
v  2.2458 -0.2903 16.0100
v  0.9644 -0.2894 21.3439
v  0.9644 0.0906 21.3439
v  0.5175 0.0897 16.0100
v  0.5173 -0.2903 16.0100
v  -0.7639 -0.2894 21.3439
v  -0.7639 0.0706 21.3439
v  1.7147 0.0706 21.3439
v  1.7146 -0.2894 21.3439
v  -0.0132 0.0906 21.3439
v  -0.0132 -0.2894 21.3439
v  0.6135 -0.2887 26.6778
v  -1.1136 -0.2887 26.6778
v  -0.6136 0.0913 26.6778
v  -1.2383 0.0715 31.5112
v  -0.4888 0.0915 31.5112
v  -1.3636 0.0713 26.6778
v  -0.4888 -0.2885 31.5112
v  -1.2383 -0.2885 31.5112
v  -1.3634 -0.2887 26.6778
v  -2.0939 0.0886 11.1825
v  -2.8442 -0.2914 11.1825
v  -2.8445 0.0686 11.1825
v  -2.0937 -0.2914 11.1825
v  -1.4954 -0.2903 16.0100
v  -1.4955 0.0897 16.0100
v  1.1135 0.0713 26.6778
v  0.4876 0.0915 31.5112
v  1.2371 0.0715 31.5112
v  0.3633 0.0913 26.6778
v  1.2371 -0.2885 31.5112
v  0.4876 -0.2885 31.5112
v  0.3634 -0.2887 26.6778
v  -0.3643 0.0686 11.1825
v  -1.1155 -0.2914 11.1825
v  -1.1157 0.0886 11.1825
v  -0.3641 -0.2914 11.1825
v  0.2338 -0.2903 16.0100
v  0.2337 0.0697 16.0100
v  -2.9183 0.0872 5.3417
v  -2.9792 0.0684 10.1824
v  -2.2287 0.0884 10.1824
v  -3.6687 0.0672 5.3417
v  -2.2285 -0.2916 10.1824
v  -2.9790 -0.2916 10.1824
v  -3.6684 -0.2928 5.3417
v  -5.2078 0.0831 -10.1480
v  -5.9566 -0.2969 -10.1480
v  -5.9570 0.0631 -10.1480
v  -5.2074 -0.2969 -10.1480
v  -4.5209 -0.2957 -5.3268
v  -4.5212 0.0843 -5.3268
v  -1.1886 0.0672 5.3417
v  -1.2504 0.0884 10.1824
v  -0.4990 0.0684 10.1824
v  -1.9401 0.0872 5.3417
v  -0.4988 -0.2916 10.1824
v  -1.2503 -0.2916 10.1824
v  -1.9399 -0.2928 5.3417
v  -3.4802 0.0631 -10.1480
v  -4.2306 -0.2969 -10.1480
v  -4.2310 0.0831 -10.1480
v  -3.4798 -0.2969 -10.1480
v  -2.7923 -0.2957 -5.3268
v  -2.7927 0.0643 -5.3268
v  -5.9434 0.0818 -15.9951
v  -6.0916 0.0629 -11.1480
v  -5.3426 0.0829 -11.1480
v  -6.6930 0.0618 -15.9951
v  -5.3422 -0.2971 -11.1480
v  -6.0913 -0.2971 -11.1480
v  -6.6926 -0.2982 -15.9951
v  -6.9531 0.0800 -31.4768
v  -7.7020 -0.3000 -31.4768
v  -7.7026 0.0600 -31.4768
v  -6.9525 -0.3000 -31.4768
v  -6.8264 -0.2998 -26.6628
v  -6.8269 0.0802 -26.6628
v  -4.2168 0.0618 -15.9951
v  -4.3658 0.0829 -11.1481
v  -3.6150 0.0629 -11.1481
v  -4.9671 0.0818 -15.9951
v  -3.6146 -0.2971 -11.1481
v  -4.3654 -0.2971 -11.1481
v  -4.9667 -0.2982 -15.9951
v  -5.2272 0.0600 -31.4768
v  -5.9761 -0.3000 -31.4768
v  -5.9766 0.0800 -31.4768
v  -5.2266 -0.3000 -31.4768
v  -5.1005 -0.2998 -26.6628
v  -5.1010 0.0602 -26.6628
v  -5.2708 0.0643 -5.3268
v  -3.7198 0.0858 0.0075
v  -4.4698 0.0658 0.0075
v  -5.2705 -0.2957 -5.3268
v  -4.4695 -0.2942 0.0075
v  -2.9181 -0.2928 5.3417
v  -3.7195 -0.2942 0.0075
v  -3.5437 0.0843 -5.3268
v  -1.9905 0.0658 0.0075
v  -2.7419 0.0858 0.0075
v  -3.5435 -0.2957 -5.3268
v  -2.7416 -0.2942 0.0075
v  -1.1884 -0.2928 5.3417
v  -1.9902 -0.2942 0.0075
v  -7.2246 0.0609 -21.3290
v  -6.4747 0.0809 -21.3290
v  -7.2242 -0.2991 -21.3290
v  -5.9430 -0.2982 -15.9951
v  -5.4987 0.0809 -21.3290
v  -4.7488 0.0609 -21.3290
v  -5.4982 -0.2991 -21.3290
v  -4.2164 -0.2982 -15.9951
v  -6.4743 -0.2991 -21.3290
v  -4.7484 -0.2991 -21.3290
v  -7.5765 0.0602 -26.6628
v  -7.5760 -0.2998 -26.6628
v  -5.8506 0.0802 -26.6628
v  -5.8501 -0.2998 -26.6628
v  -2.2459 0.0697 16.0100
v  -2.2458 -0.2903 16.0100
v  -0.9644 -0.2894 21.3439
v  -0.9644 0.0906 21.3439
v  -0.5175 0.0897 16.0100
v  -0.5173 -0.2903 16.0100
v  0.7639 -0.2894 21.3439
v  0.7639 0.0706 21.3439
v  -1.7147 0.0706 21.3439
v  -1.7147 -0.2894 21.3439
v  0.0132 0.0906 21.3439
v  0.0132 -0.2894 21.3439
v  -0.6135 -0.2887 26.6778
v  1.1136 -0.2887 26.6778
# 240 vertices

vn 0.0267 0.9996 0.0011
vn 0.0267 0.9996 0.0006
vn 0.0267 0.9996 0.0012
vn 0.0000 0.0000 1.0000
vn 0.9990 -0.0003 0.0458
vn 0.9997 -0.0000 0.0259
vn 0.9997 0.0000 0.0259
vn 0.0000 0.0000 -1.0000
vn -0.9924 0.0005 -0.1230
vn -0.9938 0.0005 -0.1110
vn -0.0267 0.9996 -0.0013
vn -0.0267 0.9996 -0.0007
vn 0.9990 -0.0003 0.0456
vn 0.9997 -0.0000 0.0257
vn 0.9997 0.0000 0.0257
vn -0.9924 0.0005 -0.1229
vn -0.9924 0.0006 -0.1229
vn -0.9938 0.0003 -0.1109
vn 0.0266 0.9996 0.0036
vn 0.0266 0.9996 0.0035
vn 0.0266 0.9996 0.0037
vn 0.9900 -0.0006 0.1410
vn 0.9900 -0.0005 0.1410
vn 0.9895 -0.0008 0.1448
vn -0.9900 0.0010 -0.1410
vn -0.9895 0.0008 -0.1448
vn -0.0266 0.9996 -0.0041
vn -0.0266 0.9996 -0.0040
vn -0.0266 0.9996 -0.0042
vn 0.9900 -0.0003 0.1410
vn 0.9895 -0.0003 0.1448
vn -0.9900 0.0011 -0.1412
vn -0.9894 0.0008 -0.1449
vn 0.0267 0.9996 0.0028
vn 0.0267 0.9996 0.0031
vn 0.9924 -0.0011 0.1231
vn 0.9938 -0.0011 0.1112
vn -0.9997 0.0016 -0.0262
vn -0.9989 0.0013 -0.0460
vn -0.0266 0.9996 -0.0032
vn -0.0266 0.9996 -0.0035
vn 0.9924 -0.0008 0.1231
vn 0.9938 -0.0010 0.1112
vn -0.9997 0.0017 -0.0262
vn -0.9989 0.0014 -0.0460
vn 0.0267 0.9996 0.0036
vn 0.0267 0.9996 0.0037
vn 0.9889 -0.0008 0.1485
vn 0.9895 -0.0011 0.1447
vn -0.9889 0.0008 -0.1486
vn -0.9895 0.0005 -0.1448
vn -0.0266 0.9996 -0.0043
vn 0.9889 -0.0008 0.1487
vn 0.9894 -0.0008 0.1449
vn -0.9889 0.0008 -0.1487
vn -0.9895 0.0006 -0.1448
vn 0.9900 -0.0011 0.1409
vn 0.9900 -0.0010 0.1411
vn 0.0267 0.9996 0.0020
vn 0.0267 0.9996 0.0021
vn 0.9966 -0.0011 0.0825
vn -0.9938 0.0010 -0.1111
vn -0.9924 0.0010 -0.1230
vn -0.0267 0.9996 -0.0023
vn -0.0267 0.9996 -0.0024
vn 0.9966 -0.0013 0.0825
vn -0.9938 0.0011 -0.1112
vn -0.9924 0.0011 -0.1232
vn -0.9966 0.0010 -0.0825
vn -0.9966 0.0011 -0.0825
vn -0.9966 0.0011 -0.0826
vn 0.9989 -0.0014 0.0460
vn 0.9989 -0.0013 0.0460
vn 0.0267 0.9996 0.0007
vn 0.9997 -0.0017 0.0262
vn 0.9997 -0.0013 0.0262
vn -0.9900 0.0005 -0.1410
vn -0.9900 0.0006 -0.1410
vn 0.0266 0.9996 0.0028
vn 0.0266 0.9996 0.0031
vn 0.9938 -0.0003 0.1111
vn 0.9924 -0.0005 0.1230
vn 0.9924 -0.0006 0.1230
vn -0.9966 0.0000 -0.0824
vn -0.0266 0.9996 -0.0031
vn 0.9938 -0.0005 0.1110
vn -0.9966 0.0000 -0.0822
vn 0.0266 0.9996 0.0020
vn 0.0266 0.9996 0.0021
vn 0.9966 -0.0003 0.0824
vn -0.0266 0.9996 -0.0023
vn -0.0266 0.9996 -0.0024
vn 0.9966 -0.0000 0.0822
vn -0.9990 0.0003 -0.0457
vn -0.9990 0.0003 -0.0455
vn -0.9997 0.0000 -0.0258
vn -0.9997 0.0000 -0.0256
vn -0.0267 0.9996 0.0011
vn -0.0267 0.9996 0.0006
vn -0.0267 0.9996 0.0012
vn -0.9989 -0.0005 0.0458
vn -0.9997 -0.0000 0.0259
vn -0.9997 0.0000 0.0259
vn 0.9924 0.0005 -0.1230
vn 0.9938 0.0003 -0.1110
vn 0.0267 0.9996 -0.0013
vn 0.0267 0.9996 -0.0007
vn -0.9990 -0.0003 0.0456
vn -0.9997 -0.0000 0.0257
vn -0.9997 0.0000 0.0257
vn 0.9924 0.0005 -0.1229
vn 0.9938 0.0003 -0.1109
vn 0.9924 0.0006 -0.1229
vn -0.0266 0.9996 0.0036
vn -0.0266 0.9996 0.0035
vn -0.0266 0.9996 0.0037
vn -0.9900 -0.0006 0.1410
vn -0.9895 -0.0008 0.1448
vn -0.9900 -0.0005 0.1410
vn 0.9900 0.0010 -0.1410
vn 0.9895 0.0008 -0.1448
vn 0.0266 0.9996 -0.0041
vn 0.0266 0.9996 -0.0040
vn 0.0266 0.9996 -0.0042
vn -0.9900 -0.0003 0.1410
vn -0.9895 -0.0005 0.1448
vn 0.9900 0.0011 -0.1412
vn 0.9894 0.0011 -0.1449
vn -0.0267 0.9996 0.0028
vn -0.0267 0.9996 0.0031
vn -0.9924 -0.0008 0.1231
vn -0.9938 -0.0011 0.1112
vn 0.9997 0.0016 -0.0262
vn 0.9989 0.0013 -0.0460
vn 0.0266 0.9996 -0.0032
vn 0.0266 0.9996 -0.0035
vn -0.9924 -0.0010 0.1231
vn -0.9938 -0.0010 0.1111
vn -0.9938 -0.0011 0.1111
vn 0.9997 0.0017 -0.0262
vn 0.9989 0.0014 -0.0460
vn -0.0267 0.9996 0.0036
vn -0.0267 0.9996 0.0037
vn -0.9889 -0.0008 0.1485
vn -0.9895 -0.0008 0.1447
vn 0.9889 0.0008 -0.1486
vn 0.9895 0.0005 -0.1448
vn 0.0266 0.9996 -0.0043
vn -0.9889 -0.0008 0.1487
vn -0.9895 -0.0005 0.1449
vn 0.9889 0.0008 -0.1487
vn 0.9895 0.0006 -0.1448
vn -0.9900 -0.0011 0.1409
vn -0.9900 -0.0010 0.1411
vn -0.0267 0.9996 0.0020
vn -0.0267 0.9996 0.0021
vn -0.9966 -0.0011 0.0825
vn 0.9938 0.0010 -0.1111
vn 0.9924 0.0010 -0.1230
vn 0.0267 0.9996 -0.0023
vn 0.0267 0.9996 -0.0024
vn -0.9966 -0.0013 0.0825
vn 0.9938 0.0011 -0.1112
vn 0.9924 0.0011 -0.1232
vn 0.9966 0.0010 -0.0825
vn 0.9966 0.0011 -0.0825
vn 0.9966 0.0011 -0.0826
vn -0.9989 -0.0014 0.0460
vn -0.9989 -0.0013 0.0460
vn -0.0267 0.9996 0.0007
vn -0.9997 -0.0017 0.0262
vn -0.9997 -0.0013 0.0262
vn 0.9900 0.0005 -0.1410
vn -0.0266 0.9996 0.0028
vn -0.0266 0.9996 0.0031
vn -0.9938 -0.0003 0.1111
vn 0.9966 0.0000 -0.0824
vn 0.0266 0.9996 -0.0031
vn -0.9924 -0.0005 0.1230
vn -0.9938 -0.0005 0.1110
vn 0.9966 0.0000 -0.0822
vn -0.0266 0.9996 0.0020
vn -0.0266 0.9996 0.0021
vn -0.9966 -0.0000 0.0824
vn 0.0266 0.9996 -0.0023
vn 0.0266 0.9996 -0.0024
vn -0.9966 -0.0000 0.0822
vn 0.9990 0.0003 -0.0457
vn 0.9990 0.0003 -0.0455
vn 0.9997 0.0000 -0.0258
vn 0.9997 0.0000 -0.0256
# 191 vertex normals

vt 0.0003 0.9994 0.0000
vt 0.0003 0.0000 0.0000
vt 0.2568 0.0000 0.0000
vt 0.2568 0.9994 0.0000
vt 0.2532 0.0000 0.0000
vt 0.0000 0.0000 0.0000
vt 0.0000 0.0345 0.0000
vt 0.2532 0.0345 0.0000
vt -0.0000 1.0000 0.0000
vt 0.0388 1.0000 0.0000
vt 0.0388 0.0000 0.0000
vt 0.0356 1.0000 0.0000
vt 0.0000 1.0000 0.0000
vt 0.0356 0.0000 0.0000
vt 0.0003 0.9997 0.0000
vt 0.2568 0.9997 0.0000
vt 0.0003 1.0000 0.0000
vt 0.2568 1.0000 0.0000
vt 0.2568 1.0003 0.0000
vt 0.0003 1.0003 0.0000
# 20 texture coords

g Boosted_Rail_Single_Merge
s 4
f 1/1/1 2/2/2 3/3/2 
f 3/3/2 4/4/3 1/1/1 
s 8
f 3/5/4 2/6/4 5/7/4 
f 5/7/4 6/8/4 3/5/4 
s 16
f 7/9/5 4/10/5 3/11/6 
f 3/11/6 6/6/7 7/9/5 
s 32
f 8/6/8 9/5/8 10/8/8 
f 10/8/8 11/7/8 8/6/8 
s 64
f 8/12/9 11/13/9 12/6/10 
f 12/6/10 13/14/10 8/12/9 
s 4
f 14/1/11 15/2/12 16/3/12 
f 16/3/12 17/4/11 14/1/11 
s 8
f 16/6/4 15/5/4 18/8/4 
f 18/8/4 19/7/4 16/6/4 
s 16
f 20/9/13 17/10/13 16/11/14 
f 16/11/14 19/6/15 20/9/13 
s 32
f 21/5/8 22/6/8 23/7/8 
f 23/7/8 24/8/8 21/5/8 
s 64
f 21/12/16 24/13/17 25/6/18 
f 25/6/18 26/14/18 21/12/16 
s 4
f 27/15/19 28/2/20 29/3/20 
f 29/3/20 30/16/21 27/15/19 
s 8
f 29/5/4 28/6/4 31/7/4 
f 31/7/4 32/8/4 29/5/4 
s 16
f 29/11/22 32/6/23 33/9/24 
f 33/9/24 30/10/24 29/11/22 
s 32
f 34/6/8 35/5/8 36/8/8 
f 36/8/8 37/7/8 34/6/8 
s 64
f 34/12/25 37/13/25 38/6/26 
f 38/6/26 39/14/26 34/12/25 
s 4
f 40/15/27 41/2/28 42/3/28 
f 42/3/28 43/16/29 40/15/27 
s 8
f 42/6/4 41/5/4 44/8/4 
f 44/8/4 45/7/4 42/6/4 
s 16
f 42/11/30 45/6/30 46/9/31 
f 46/9/31 43/10/31 42/11/30 
s 32
f 47/5/8 48/6/8 49/7/8 
f 49/7/8 50/8/8 47/5/8 
s 64
f 47/12/32 50/13/32 51/6/33 
f 51/6/33 52/14/33 47/12/32 
s 4
f 53/17/34 54/2/35 55/3/35 
f 55/3/35 56/18/34 53/17/34 
s 8
f 55/5/4 54/6/4 57/7/4 
f 57/7/4 58/8/4 55/5/4 
s 16
f 55/11/36 58/6/36 59/9/37 
f 59/9/37 56/10/37 55/11/36 
s 32
f 60/6/8 61/5/8 62/8/8 
f 62/8/8 63/7/8 60/6/8 
s 64
f 60/12/38 63/13/38 64/6/39 
f 64/6/39 65/14/39 60/12/38 
s 4
f 66/17/40 67/2/41 68/3/41 
f 68/3/41 69/18/40 66/17/40 
s 8
f 68/6/4 67/5/4 70/8/4 
f 70/8/4 71/7/4 68/6/4 
s 16
f 68/11/42 71/6/42 72/9/43 
f 72/9/43 69/10/37 68/11/42 
s 32
f 73/5/8 74/6/8 75/7/8 
f 75/7/8 76/8/8 73/5/8 
s 64
f 73/12/44 76/13/44 77/6/45 
f 77/6/45 78/14/45 73/12/44 
s 4
f 79/18/46 39/17/46 80/2/47 
f 80/2/47 81/3/47 79/18/46 
s 16
f 81/11/48 82/6/48 83/9/49 
f 83/9/49 79/10/49 81/11/48 
s 64
f 80/12/50 84/13/50 85/6/51 
f 85/6/51 27/14/51 80/12/50 
s 4
f 86/18/29 52/17/29 87/2/52 
f 87/2/52 88/3/52 86/18/29 
s 16
f 88/11/53 89/6/53 90/9/54 
f 90/9/54 86/10/54 88/11/53 
s 64
f 87/12/55 91/13/55 92/6/56 
f 92/6/56 40/14/51 87/12/55 
f 39/12/26 38/13/26 84/6/50 
f 84/6/50 80/14/50 39/12/26 
f 52/12/33 51/13/33 91/6/55 
f 91/6/55 87/14/55 52/12/33 
s 4
f 39/2/46 79/3/46 35/18/46 
f 35/18/46 34/17/46 39/2/46 
s 16
f 79/11/49 83/6/49 36/9/57 
f 36/9/57 35/10/57 79/11/49 
s 4
f 52/2/29 86/3/29 48/18/28 
f 48/18/28 47/17/28 52/2/29 
s 16
f 86/11/54 90/6/54 49/9/58 
f 49/9/58 48/10/58 86/11/54 
s 4
f 93/18/59 94/17/60 53/2/34 
f 53/2/34 56/3/34 93/18/59 
s 16
f 56/11/37 59/6/37 95/9/61 
f 95/9/61 93/10/61 56/11/37 
s 64
f 53/12/62 96/13/62 57/6/63 
f 57/6/63 54/14/63 53/12/62 
s 4
f 97/18/64 98/17/65 66/2/40 
f 66/2/40 69/3/40 97/18/64 
s 16
f 69/11/37 72/6/43 99/9/66 
f 99/9/66 97/10/66 69/11/37 
s 64
f 66/12/67 100/13/67 70/6/68 
f 70/6/68 67/14/68 66/12/67 
f 94/12/69 101/13/70 96/6/62 
f 96/6/62 53/14/62 94/12/69 
f 98/12/71 102/13/71 100/6/67 
f 100/6/67 66/14/67 98/12/71 
s 4
f 103/19/1 65/20/3 94/2/60 
f 94/2/60 93/3/59 103/19/1 
s 16
f 93/11/61 95/6/61 104/9/72 
f 104/9/72 103/10/72 93/11/61 
s 4
f 105/19/11 78/20/11 98/2/65 
f 98/2/65 97/3/64 105/19/11 
s 16
f 97/11/66 99/6/66 106/9/73 
f 106/9/73 105/10/73 97/11/66 
s 64
f 65/12/39 64/13/39 101/6/70 
f 101/6/70 94/14/69 65/12/39 
f 78/12/45 77/13/45 102/6/71 
f 102/6/71 98/14/71 78/12/45 
s 4
f 65/2/3 103/3/1 61/18/74 
f 61/18/74 60/17/74 65/2/3 
s 16
f 103/11/72 104/6/72 62/9/75 
f 62/9/75 61/10/75 103/11/72 
s 4
f 78/2/11 105/3/11 74/18/12 
f 74/18/12 73/17/12 78/2/11 
s 16
f 105/11/73 106/6/73 75/9/76 
f 75/9/76 74/10/76 105/11/73 
s 4
f 81/16/47 80/15/47 27/2/19 
f 27/2/19 30/3/21 81/16/47 
s 16
f 30/11/24 33/6/24 82/9/48 
f 82/9/48 81/10/48 30/11/24 
s 4
f 88/16/52 87/15/52 40/2/27 
f 40/2/27 43/3/29 88/16/52 
s 16
f 43/11/31 46/6/31 89/9/53 
f 89/9/53 88/10/53 43/11/31 
s 64
f 27/12/51 85/13/51 31/6/77 
f 31/6/77 28/14/77 27/12/51 
f 40/12/51 92/13/56 44/6/78 
f 44/6/78 41/14/78 40/12/51 
s 4
f 13/2/79 107/3/79 9/18/80 
f 9/18/80 8/17/80 13/2/79 
s 16
f 107/11/81 108/6/81 10/9/82 
f 10/9/82 9/10/83 107/11/81 
s 64
f 13/12/10 12/13/10 109/6/84 
f 109/6/84 110/14/84 13/12/10 
s 4
f 26/2/85 111/3/40 22/18/41 
f 22/18/41 21/17/41 26/2/85 
s 16
f 23/9/82 22/10/82 111/11/86 
f 111/11/86 112/6/86 23/9/82 
s 64
f 26/12/18 25/13/18 113/6/87 
f 113/6/87 114/14/87 26/12/18 
s 4
f 107/16/79 13/15/79 110/2/88 
f 110/2/88 115/3/89 107/16/79 
s 16
f 115/11/90 116/6/90 108/9/81 
f 108/9/81 107/10/81 115/11/90 
s 4
f 111/16/40 26/15/85 114/2/91 
f 114/2/91 117/3/92 111/16/40 
s 16
f 117/11/93 118/6/93 112/9/86 
f 112/9/86 111/10/86 117/11/93 
s 64
f 110/12/84 109/13/84 119/6/94 
f 119/6/94 1/14/94 110/12/84 
f 114/12/87 113/13/87 120/6/95 
f 120/6/95 14/14/95 114/12/87 
s 4
f 115/4/89 110/1/88 1/2/1 
f 1/2/1 4/3/3 115/4/89 
s 16
f 116/9/90 115/10/90 4/11/5 
f 4/11/5 7/6/5 116/9/90 
s 4
f 117/4/92 114/1/91 14/2/11 
f 14/2/11 17/3/11 117/4/92 
s 16
f 118/9/93 117/10/93 17/11/13 
f 17/11/13 20/6/13 118/9/93 
s 64
f 1/12/94 119/13/94 5/6/96 
f 5/6/96 2/14/96 1/12/94 
f 14/12/95 120/13/95 18/6/97 
f 18/6/97 15/14/97 14/12/95 
s 4
f 121/1/98 122/3/99 123/2/99 
f 122/3/99 121/1/98 124/4/100 
s 8
f 122/5/4 125/7/4 123/6/4 
f 125/7/4 122/5/4 126/8/4 
s 16
f 127/9/101 122/11/102 124/10/101 
f 122/11/102 127/9/101 126/6/103 
s 32
f 128/6/8 129/8/8 130/5/8 
f 129/8/8 128/6/8 131/7/8 
s 64
f 128/12/104 132/6/105 131/13/104 
f 132/6/105 128/12/104 133/14/105 
s 4
f 134/1/106 135/3/107 136/2/107 
f 135/3/107 134/1/106 137/4/106 
s 8
f 135/6/4 138/8/4 136/5/4 
f 138/8/4 135/6/4 139/7/4 
s 16
f 140/9/108 135/11/109 137/10/108 
f 135/11/109 140/9/108 139/6/110 
s 32
f 141/5/8 142/7/8 143/6/8 
f 142/7/8 141/5/8 144/8/8 
s 64
f 141/12/111 145/6/112 144/13/113 
f 145/6/112 141/12/111 146/14/112 
s 4
f 147/15/114 148/3/115 149/2/115 
f 148/3/115 147/15/114 150/16/116 
s 8
f 148/5/4 151/7/4 149/6/4 
f 151/7/4 148/5/4 152/8/4 
s 16
f 148/11/117 153/9/118 152/6/119 
f 153/9/118 148/11/117 150/10/118 
s 32
f 154/6/8 155/8/8 156/5/8 
f 155/8/8 154/6/8 157/7/8 
s 64
f 154/12/120 158/6/121 157/13/120 
f 158/6/121 154/12/120 159/14/121 
s 4
f 160/15/122 161/3/123 162/2/123 
f 161/3/123 160/15/122 163/16/124 
s 8
f 161/6/4 164/8/4 162/5/4 
f 164/8/4 161/6/4 165/7/4 
s 16
f 161/11/125 166/9/126 165/6/125 
f 166/9/126 161/11/125 163/10/126 
s 32
f 167/5/8 168/7/8 169/6/8 
f 168/7/8 167/5/8 170/8/8 
s 64
f 167/12/127 171/6/128 170/13/127 
f 171/6/128 167/12/127 172/14/128 
s 4
f 173/17/129 174/3/130 175/2/130 
f 174/3/130 173/17/129 176/18/129 
s 8
f 174/5/4 177/7/4 175/6/4 
f 177/7/4 174/5/4 178/8/4 
s 16
f 174/11/131 179/9/132 178/6/131 
f 179/9/132 174/11/131 176/10/132 
s 32
f 180/6/8 181/8/8 182/5/8 
f 181/8/8 180/6/8 183/7/8 
s 64
f 180/12/133 184/6/134 183/13/133 
f 184/6/134 180/12/133 185/14/134 
s 4
f 186/17/135 187/3/136 188/2/136 
f 187/3/136 186/17/135 189/18/135 
s 8
f 187/6/4 190/8/4 188/5/4 
f 190/8/4 187/6/4 191/7/4 
s 16
f 187/11/137 192/9/138 191/6/137 
f 192/9/138 187/11/137 189/10/139 
s 32
f 193/5/8 194/7/8 195/6/8 
f 194/7/8 193/5/8 196/8/8 
s 64
f 193/12/140 197/6/141 196/13/140 
f 197/6/141 193/12/140 198/14/141 
s 4
f 199/18/142 200/2/143 159/17/142 
f 200/2/143 199/18/142 201/3/143 
s 16
f 201/11/144 202/9/145 203/6/144 
f 202/9/145 201/11/144 199/10/145 
s 64
f 200/12/146 204/6/147 205/13/146 
f 204/6/147 200/12/146 147/14/147 
s 4
f 206/18/124 207/2/148 172/17/124 
f 207/2/148 206/18/124 208/3/148 
s 16
f 208/11/149 209/9/150 210/6/149 
f 209/9/150 208/11/149 206/10/150 
s 64
f 207/12/151 211/6/152 212/13/151 
f 211/6/152 207/12/151 160/14/147 
f 159/12/121 205/6/146 158/13/121 
f 205/6/146 159/12/121 200/14/146 
f 172/12/128 212/6/151 171/13/128 
f 212/6/151 172/12/128 207/14/151 
s 4
f 159/2/142 156/18/142 199/3/142 
f 156/18/142 159/2/142 154/17/142 
s 16
f 199/11/145 155/9/153 202/6/145 
f 155/9/153 199/11/145 156/10/153 
s 4
f 172/2/124 169/18/123 206/3/124 
f 169/18/123 172/2/124 167/17/123 
s 16
f 206/11/150 168/9/154 209/6/150 
f 168/9/154 206/11/150 169/10/154 
s 4
f 213/18/155 173/2/129 214/17/156 
f 173/2/129 213/18/155 176/3/129 
s 16
f 176/11/132 215/9/157 179/6/132 
f 215/9/157 176/11/132 213/10/157 
s 64
f 173/12/158 177/6/159 216/13/158 
f 177/6/159 173/12/158 175/14/159 
s 4
f 217/18/160 186/2/135 218/17/161 
f 186/2/135 217/18/160 189/3/135 
s 16
f 189/11/139 219/9/162 192/6/138 
f 219/9/162 189/11/139 217/10/162 
s 64
f 186/12/163 190/6/164 220/13/163 
f 190/6/164 186/12/163 188/14/164 
f 214/12/165 216/6/158 221/13/166 
f 216/6/158 214/12/165 173/14/158 
f 218/12/167 220/6/163 222/13/167 
f 220/6/163 218/12/167 186/14/163 
s 4
f 223/19/98 214/2/156 185/20/100 
f 214/2/156 223/19/98 213/3/155 
s 16
f 213/11/157 224/9/168 215/6/157 
f 224/9/168 213/11/157 223/10/168 
s 4
f 225/19/106 218/2/161 198/20/106 
f 218/2/161 225/19/106 217/3/160 
s 16
f 217/11/162 226/9/169 219/6/162 
f 226/9/169 217/11/162 225/10/169 
s 64
f 185/12/134 221/6/166 184/13/134 
f 221/6/166 185/12/134 214/14/165 
f 198/12/141 222/6/167 197/13/141 
f 222/6/167 198/12/141 218/14/167 
s 4
f 185/2/100 182/18/170 223/3/98 
f 182/18/170 185/2/100 180/17/170 
s 16
f 223/11/168 181/9/171 224/6/168 
f 181/9/171 223/11/168 182/10/171 
s 4
f 198/2/106 195/18/107 225/3/106 
f 195/18/107 198/2/106 193/17/107 
s 16
f 225/11/169 194/9/172 226/6/169 
f 194/9/172 225/11/169 195/10/172 
s 4
f 201/16/143 147/2/114 200/15/143 
f 147/2/114 201/16/143 150/3/116 
s 16
f 150/11/118 203/9/144 153/6/118 
f 203/9/144 150/11/118 201/10/144 
s 4
f 208/16/148 160/2/122 207/15/148 
f 160/2/122 208/16/148 163/3/124 
s 16
f 163/11/126 210/9/149 166/6/126 
f 210/9/149 163/11/126 208/10/149 
s 64
f 147/12/147 151/6/173 204/13/147 
f 151/6/173 147/12/147 149/14/173 
f 160/12/147 164/6/173 211/13/152 
f 164/6/173 160/12/147 162/14/173 
s 4
f 133/2/174 130/18/175 227/3/174 
f 130/18/175 133/2/174 128/17/175 
s 16
f 227/11/176 129/9/131 228/6/176 
f 129/9/131 227/11/176 130/10/131 
s 64
f 133/12/105 229/6/177 132/13/105 
f 229/6/177 133/12/105 230/14/177 
s 4
f 146/2/178 143/18/136 231/3/135 
f 143/18/136 146/2/178 141/17/136 
s 16
f 142/9/179 231/11/180 143/10/179 
f 231/11/180 142/9/179 232/6/180 
s 64
f 146/12/112 233/6/181 145/13/112 
f 233/6/181 146/12/112 234/14/181 
s 4
f 227/16/174 230/2/182 133/15/174 
f 230/2/182 227/16/174 235/3/183 
s 16
f 235/11/184 228/9/176 236/6/184 
f 228/9/176 235/11/184 227/10/176 
s 4
f 231/16/135 234/2/185 146/15/178 
f 234/2/185 231/16/135 237/3/186 
s 16
f 237/11/187 232/9/180 238/6/187 
f 232/9/180 237/11/187 231/10/180 
s 64
f 230/12/177 239/6/188 229/13/177 
f 239/6/188 230/12/177 121/14/188 
f 234/12/181 240/6/189 233/13/181 
f 240/6/189 234/12/181 134/14/189 
s 4
f 235/4/183 121/2/98 230/1/182 
f 121/2/98 235/4/183 124/3/100 
s 16
f 236/9/184 124/11/101 235/10/184 
f 124/11/101 236/9/184 127/6/101 
s 4
f 237/4/186 134/2/106 234/1/185 
f 134/2/106 237/4/186 137/3/106 
s 16
f 238/9/187 137/11/108 237/10/187 
f 137/11/108 238/9/187 140/6/108 
s 64
f 121/12/188 125/6/190 239/13/188 
f 125/6/190 121/12/188 123/14/190 
f 134/12/189 138/6/191 240/13/189 
f 138/6/191 134/12/189 136/14/191 
# 0 polygons - 336 triangles

