# 3ds Max Wavefront OBJ Exporter v0.97b - (c)2007 guruware
# File Created: 06.06.2018 08:06:15

#
# object Elevated_Station_Node_Pavement_LOD
#

v  -9.5000 0.0000 32.0005
v  -8.0000 0.0000 32.0005
v  -8.0000 0.0000 0.0005
v  -9.5000 0.0000 0.0005
v  9.5000 0.0000 32.0005
v  9.2500 -1.1500 32.0005
v  9.2500 -1.1500 0.0005
v  9.5000 0.0000 0.0005
v  -9.5000 0.0000 -31.9995
v  -9.2500 -1.1500 -31.9995
v  -9.2500 -1.1500 0.0005
v  9.6500 1.3000 32.0005
v  9.6500 1.3000 0.0005
v  8.8750 1.3000 0.0005
v  8.8750 1.3000 32.0005
v  9.0000 0.0000 32.0005
v  9.0000 0.0000 0.0005
v  -8.8750 1.3000 32.0005
v  -8.8750 1.3000 0.0005
v  -9.6500 1.3000 0.0005
v  -9.6500 1.3000 32.0005
v  -9.0000 0.0000 32.0005
v  -9.0000 0.0000 0.0005
v  -8.0000 0.0000 -31.9995
v  9.2500 -1.1500 -31.9995
v  9.5000 0.0000 -31.9995
v  -9.2500 -1.1500 32.0005
v  0.0000 0.0000 32.0005
v  8.0000 0.0000 32.0005
v  8.0000 0.0000 0.0005
v  0.0000 0.0000 0.0005
v  8.0000 0.0000 -31.9995
v  0.0000 0.0000 -31.9995
v  8.6250 -1.1500 0.0005
v  8.6250 -1.1500 -31.9995
v  8.6250 -1.1500 32.0005
v  8.0000 -2.7000 32.0005
v  0.0000 -2.7000 32.0005
v  0.0000 -2.7000 0.0005
v  8.0000 -2.7000 0.0005
v  -8.6250 -1.1500 32.0005
v  -8.6250 -1.1500 0.0005
v  -8.6250 -1.1500 -31.9995
v  0.0000 -2.7000 -31.9995
v  8.0000 -2.7000 -31.9995
v  -8.0000 -2.7000 32.0005
v  -8.0000 -2.7000 0.0005
v  -8.0000 -2.7000 -31.9995
v  0.0000 -1.1500 -31.9995
v  0.0000 -1.1500 32.0005
# 50 vertices

vn 0.0000 1.0000 -0.0000
vn 0.9772 -0.2124 -0.0000
vn -0.9772 -0.2124 -0.0000
vn -0.9954 -0.0957 -0.0000
vn 0.9954 -0.0957 -0.0000
vn 0.9934 -0.1146 -0.0000
vn -0.9934 -0.1146 -0.0000
vn 0.0000 -1.0000 -0.0000
vn -0.0000 -1.0000 -0.0000
vn 0.9274 -0.3740 -0.0000
vn 0.0000 0.0000 -1.0000
vn -0.9274 -0.3740 -0.0000
vn 0.0000 0.0000 1.0000
# 13 vertex normals

vt 0.0000 0.0000 0.0000
vt 0.0554 0.0000 0.0000
vt 0.0554 0.5000 0.0000
vt 0.0000 0.5000 0.0000
vt 0.2123 0.0000 0.0000
vt 0.3158 -0.0000 0.0000
vt 0.3158 0.5000 0.0000
vt 0.2123 0.5000 0.0000
vt 0.7728 0.0000 0.0000
vt 0.7728 0.5000 0.0000
vt 0.8187 0.5000 0.0000
vt 0.8187 0.0000 0.0000
vt 0.7000 1.0000 0.0000
vt 0.7562 1.0000 0.0000
vt 0.7562 0.5000 0.0000
vt 0.7000 0.5000 0.0000
vt 0.0554 1.0000 0.0000
vt 0.0000 1.0000 0.0000
vt 0.3158 1.0000 0.0000
vt 0.2123 1.0000 0.0000
vt 0.1846 0.0000 0.0000
vt 0.3139 0.0000 0.0000
vt 0.3139 0.5000 0.0000
vt 0.1846 0.5000 0.0000
vt 0.3139 1.0000 0.0000
vt 0.1846 1.0000 0.0000
vt 0.3692 0.0000 0.0000
vt 0.3692 0.5000 0.0000
vt 0.3692 1.0000 0.0000
vt 0.1200 0.5000 0.0000
vt 0.1200 0.9999 0.0000
vt 0.1366 0.9999 0.0000
vt 0.1366 0.5000 0.0000
vt 0.1200 0.0000 0.0000
vt 0.1366 0.0000 0.0000
vt 0.0734 0.0000 0.0000
vt 0.0734 0.5000 0.0000
vt 0.0268 0.0000 0.0000
vt 0.0102 0.0000 0.0000
vt 0.0102 0.5000 0.0000
vt 0.0268 0.5000 0.0000
vt 0.0102 0.9999 0.0000
vt 0.0268 0.9999 0.0000
vt 0.0734 0.9999 0.0000
vt 0.7038 0.4999 0.0000
vt 0.7645 0.4999 0.0000
vt 0.7645 0.0000 0.0000
vt 0.7038 0.0000 0.0000
vt 0.7038 0.9999 0.0000
vt 0.7645 0.9999 0.0000
vt 0.7038 -0.0000 0.0000
vt 0.5508 0.0000 0.0000
vt 0.5022 0.0000 0.0000
vt 0.4901 0.2167 0.0000
vt 0.5654 0.2167 0.0000
vt 0.5081 0.0000 0.0000
vt 0.4935 0.2167 0.0000
vt 0.5687 0.2167 0.0000
vt 0.5566 0.0000 0.0000
# 59 texture coords

g Elevated_Station_Node_Pavement_LOD
s 4
f 1/1/1 2/2/1 3/3/1 
f 3/3/1 4/4/1 1/1/1 
s 16
f 5/5/2 6/6/2 7/7/2 
f 7/7/2 8/8/2 5/5/2 
s 64
f 9/5/3 10/6/3 11/7/3 
f 11/7/3 4/8/3 9/5/3 
s 4
f 12/9/1 13/10/1 14/11/1 
f 14/11/1 15/12/1 12/9/1 
s 16
f 16/13/4 15/14/4 14/15/4 
f 14/15/4 17/16/4 16/13/4 
s 4
f 18/12/1 19/11/1 20/10/1 
f 20/10/1 21/9/1 18/12/1 
s 16
f 18/14/5 22/13/5 23/16/5 
f 23/16/5 19/15/5 18/14/5 
s 4
f 3/3/1 24/17/1 9/18/1 
f 9/18/1 4/4/1 3/3/1 
s 16
f 25/19/2 26/20/2 8/8/2 
f 8/8/2 7/7/2 25/19/2 
s 64
f 27/19/3 1/20/3 4/8/3 
f 4/8/3 11/7/3 27/19/3 
f 12/20/6 5/19/6 8/7/6 
f 8/7/6 13/8/6 12/20/6 
f 1/19/7 21/20/7 20/8/7 
f 20/8/7 4/7/7 1/19/7 
s 4
f 28/21/1 29/22/1 30/23/1 
f 30/23/1 31/24/1 28/21/1 
f 31/24/1 30/23/1 32/25/1 
f 32/25/1 33/26/1 31/24/1 
f 29/22/1 5/27/1 8/28/1 
f 8/28/1 30/23/1 29/22/1 
f 30/23/1 8/28/1 26/29/1 
f 26/29/1 32/25/1 30/23/1 
f 2/2/1 28/21/1 31/24/1 
f 31/24/1 3/3/1 2/2/1 
f 3/3/1 31/24/1 33/26/1 
f 33/26/1 24/17/1 3/3/1 
s 1
f 34/30/8 35/31/8 25/32/8 
f 25/32/8 7/33/8 34/30/8 
f 36/34/8 34/30/8 7/33/8 
f 7/33/8 6/35/8 36/34/8 
f 37/34/8 38/36/9 39/37/9 
f 39/37/9 40/30/8 37/34/8 
f 41/38/8 27/39/8 11/40/8 
f 11/40/8 42/41/8 41/38/8 
f 42/41/8 11/40/8 10/42/8 
f 10/42/8 43/43/8 42/41/8 
f 40/30/8 39/37/9 44/44/9 
f 44/44/9 45/31/8 40/30/8 
f 38/36/9 46/38/9 47/41/9 
f 47/41/9 39/37/9 38/36/9 
f 39/37/9 47/41/9 48/43/9 
f 48/43/9 44/44/9 39/37/9 
s off
f 40/45/10 34/46/10 36/47/10 
f 36/47/10 37/48/10 40/45/10 
f 45/49/10 35/50/10 34/46/10 
f 34/46/10 40/45/10 45/49/10 
f 44/44/11 49/44/11 35/31/11 
f 35/31/11 45/31/11 44/44/11 
f 48/43/11 43/43/11 49/44/11 
f 49/44/11 44/44/11 48/43/11 
f 47/46/12 42/45/12 43/49/12 
f 43/49/12 48/50/12 47/46/12 
f 46/47/12 41/51/12 42/45/12 
f 42/45/12 47/46/12 46/47/12 
f 38/36/13 50/36/13 41/38/13 
f 41/38/13 46/38/13 38/36/13 
f 37/34/13 36/34/13 50/36/13 
f 50/36/13 38/36/13 37/34/13 
f 8/52/11 17/53/11 14/54/11 
f 14/54/11 13/55/11 8/52/11 
f 4/56/11 20/57/11 19/58/11 
f 19/58/11 23/59/11 4/56/11 
# 0 polygons - 72 triangles

