# 3ds Max Wavefront OBJ Exporter v0.97b - (c)2007 guruware
# File Created: 26.02.2019 09:45:53

#
# object Object007
#

v  -7.1197 0.2078 -16.0024
v  -4.1483 0.2252 -0.0099
v  -0.1606 0.2252 -0.0105
v  -3.1297 0.2078 -16.0024
v  -8.4580 0.2000 -32.0000
v  -4.4580 0.2000 -32.0000
v  -1.2222 0.2424 15.9885
v  0.0000 0.2500 32.0000
v  4.0000 0.2500 32.0000
v  2.7620 0.2425 15.9855
v  3.7607 0.2078 -16.0000
v  2.2286 0.2250 -0.0000
v  6.2214 0.2250 -0.0000
v  7.7507 0.2078 -16.0000
v  4.4580 0.2000 -32.0000
v  8.4580 0.2000 -32.0000
v  0.6954 0.2422 16.0000
v  4.6954 0.2422 16.0000
v  7.1338 0.2078 -16.0000
v  3.1437 0.2078 -16.0000
v  0.2219 0.2250 -0.0000
v  4.2060 0.2250 -0.0000
v  1.2894 0.2422 16.0000
v  -2.6775 0.2422 16.0000
v  -4.0000 0.2500 32.0000
v  -3.7607 0.2078 -16.0000
v  -7.7507 0.2078 -16.0000
v  -6.2214 0.2250 -0.0000
v  -2.2286 0.2250 -0.0000
v  -0.6954 0.2422 16.0000
v  -4.6954 0.2422 16.0000
# 31 vertices

vn 0.0000 1.0000 -0.0008
vn 0.0000 1.0000 -0.0011
vn 0.0000 1.0000 -0.0005
# 3 vertex normals

vt 0.5000 0.2500 0.0000
vt 0.5000 0.5000 0.0000
vt 0.0000 0.5000 0.0000
vt 0.0000 0.2500 0.0000
vt 0.5000 0.0000 0.0000
vt 0.0000 0.0000 0.0000
vt 0.5000 0.7500 0.0000
vt 0.5000 1.0000 0.0000
vt 0.0000 1.0000 0.0000
vt 0.0000 0.7500 0.0000
# 10 texture coords

g Object007
s 1
f 1/1/1 2/2/2 3/3/2 4/4/1 
f 5/5/3 1/1/1 4/4/1 6/6/3 
f 7/7/1 8/8/3 9/9/3 10/10/1 
f 10/10/1 3/3/2 2/2/2 7/7/1 
f 11/1/1 12/2/2 13/3/2 14/4/1 
f 15/5/3 11/1/1 14/4/1 16/6/3 
f 17/7/1 8/8/3 9/9/3 18/10/1 
f 18/10/1 13/3/2 12/2/2 17/7/1 
f 19/1/1 20/4/1 21/3/2 22/2/2 
f 16/5/3 15/6/3 20/4/1 19/1/1 
f 23/7/1 24/10/1 25/9/3 8/8/3 
f 24/10/1 23/7/1 22/2/2 21/3/2 
f 26/1/1 27/4/1 28/3/2 29/2/2 
f 6/5/3 5/6/3 27/4/1 26/1/1 
f 30/7/1 31/10/1 25/9/3 8/8/3 
f 31/10/1 30/7/1 29/2/2 28/3/2 
# 16 polygons

