# 3ds Max Wavefront OBJ Exporter v0.97b - (c)2007 guruware
# File Created: 26.02.2019 09:58:46

#
# object Station_Rail_LOD
#

v  4.5000 0.1500 -0.0000
v  4.5000 0.1500 16.0000
v  8.5000 0.1500 16.0000
v  8.5000 0.1500 -0.0000
v  -4.5000 0.1500 -0.0000
v  -4.5000 0.1500 -16.0000
v  -8.5000 0.1500 -16.0000
v  -8.5000 0.1500 -0.0000
v  4.5000 0.1500 32.0000
v  8.5000 0.1500 32.0000
v  8.5000 0.1500 -32.0000
v  4.5000 0.1500 -32.0000
v  4.5000 0.1500 -16.0000
v  8.5000 0.1500 -16.0000
v  -8.5000 0.1500 16.0000
v  -4.5000 0.1500 16.0000
v  -8.5000 0.1500 32.0000
v  -4.5000 0.1500 32.0000
v  -8.5000 0.1500 -32.0000
v  -4.5000 0.1500 -32.0000
# 20 vertices

vn 0.0000 1.0000 -0.0000
# 1 vertex normals

vt 0.5000 0.5000 0.0000
vt 0.5000 0.2500 0.0000
vt 0.0000 0.2500 0.0000
vt 0.0000 0.5000 0.0000
vt 0.5000 0.7500 0.0000
vt 1.0000 0.7500 0.0000
vt 1.0000 0.5000 0.0000
vt 0.5000 0.0000 0.0000
vt 0.0000 0.0000 0.0000
vt 0.0000 1.0000 0.0000
vt 0.5000 1.0000 0.0000
vt 0.0000 0.7500 0.0000
vt 1.0000 0.2500 0.0000
vt 1.0000 0.0000 0.0000
vt 1.0000 1.0000 0.0000
# 15 texture coords

g Station_Rail_LOD
s 1
f 1/1/1 2/2/1 3/3/1 
f 3/3/1 4/4/1 1/1/1 
f 5/1/1 6/5/1 7/6/1 
f 7/6/1 8/7/1 5/1/1 
f 2/2/1 9/8/1 10/9/1 
f 10/9/1 3/3/1 2/2/1 
f 11/10/1 12/11/1 13/5/1 
f 13/5/1 14/12/1 11/10/1 
f 8/7/1 15/13/1 16/2/1 
f 16/2/1 5/1/1 8/7/1 
f 4/4/1 14/12/1 13/5/1 
f 13/5/1 1/1/1 4/4/1 
f 15/13/1 17/14/1 18/8/1 
f 18/8/1 16/2/1 15/13/1 
f 19/15/1 7/6/1 6/5/1 
f 6/5/1 20/11/1 19/15/1 
# 0 polygons - 16 triangles

