# 3ds Max Wavefront OBJ Exporter v0.97b - (c)2007 guruware
# File Created: 06.06.2018 08:06:08

#
# object Station_Node_Rail_LOD
#

v  2.2143 0.1500 0.0000
v  1.3828 0.1500 16.0000
v  5.5971 0.1500 16.0000
v  6.6429 0.1500 0.0000
v  -2.2143 0.1500 0.0000
v  -3.1194 0.1500 -16.0000
v  -7.7623 0.1500 -16.0000
v  -6.6429 0.1500 0.0000
v  0.0000 0.1500 32.0000
v  5.0000 0.1500 32.0000
v  8.5000 0.1500 -32.0000
v  3.6429 0.1500 -32.0000
v  3.1194 0.1500 -16.0000
v  7.7623 0.1500 -16.0000
v  -5.5971 0.1500 16.0000
v  -0.3292 0.1500 16.0000
v  -5.0000 0.1500 32.0000
v  -8.5000 0.1500 -32.0000
v  -3.6429 0.1500 -32.0000
# 19 vertices

vn -0.0551 0.9985 -0.0001
# 1 vertex normals

vt 0.5000 0.5000 0.0000
vt 0.5000 0.2500 0.0000
vt 0.0000 0.2500 0.0000
vt 0.0000 0.5000 0.0000
vt 0.5000 0.7500 0.0000
vt 1.0000 0.7500 0.0000
vt 1.0000 0.5000 0.0000
vt 0.5000 0.0000 0.0000
vt 0.0000 0.0000 0.0000
vt 0.0000 1.0000 0.0000
vt 0.5000 1.0000 0.0000
vt 0.0000 0.7500 0.0000
vt 1.0000 0.2500 0.0000
vt 1.0000 0.0000 0.0000
vt 1.0000 1.0000 0.0000
vt 0.9775 0.5000 0.0000
vt 0.9775 0.7500 0.0000
vt 0.9873 0.7500 0.0000
vt 0.9873 0.5000 0.0000
vt 0.9873 0.2500 0.0000
vt 0.9775 0.2500 0.0000
vt 0.9775 0.0000 0.0000
vt 0.9873 1.0000 0.0000
vt 0.9775 1.0000 0.0000
# 24 texture coords

g Station_Node_Rail_LOD
s 1
f 1/1/1 2/2/1 3/3/1 
f 3/3/1 4/4/1 1/1/1 
f 5/1/1 6/5/1 7/6/1 
f 7/6/1 8/7/1 5/1/1 
f 2/2/1 9/8/1 10/9/1 
f 10/9/1 3/3/1 2/2/1 
f 11/10/1 12/11/1 13/5/1 
f 13/5/1 14/12/1 11/10/1 
f 8/7/1 15/13/1 16/2/1 
f 16/2/1 5/1/1 8/7/1 
f 4/4/1 14/12/1 13/5/1 
f 13/5/1 1/1/1 4/4/1 
f 15/13/1 17/14/1 9/8/1 
f 9/8/1 16/2/1 15/13/1 
f 18/15/1 7/6/1 6/5/1 
f 6/5/1 19/11/1 18/15/1 
f 1/16/1 13/17/1 6/18/1 
f 6/18/1 5/19/1 1/16/1 
f 5/19/1 16/20/1 2/21/1 
f 2/21/1 1/16/1 5/19/1 
f 9/22/1 2/21/1 16/20/1 
f 19/23/1 6/18/1 13/17/1 
f 13/17/1 12/24/1 19/23/1 
# 0 polygons - 23 triangles

