# 3ds Max Wavefront OBJ Exporter v0.97b - (c)2007 guruware
# File Created: 02.08.2016 18:23:43

#
# object Plane001
#

v  -3.0000 0.0500 -0.0005
v  3.0000 0.0500 -0.0005
v  3.0000 0.0500 -5.3338
v  -3.0000 0.0500 -5.3338
v  -3.0000 0.0500 31.9995
v  3.0000 0.0500 31.9995
v  3.0000 0.0500 26.6662
v  -3.0000 0.0500 26.6662
v  3.0000 0.0500 21.3328
v  -3.0000 0.0500 21.3328
v  3.0000 0.0500 15.9995
v  -3.0000 0.0500 15.9995
v  3.0000 0.0500 10.6662
v  -3.0000 0.0500 10.6662
v  3.0000 0.0500 5.3328
v  -3.0000 0.0500 5.3328
v  3.0000 0.0500 -32.0005
v  -3.0000 0.0500 -32.0005
v  -3.0000 0.0500 -26.6672
v  3.0000 0.0500 -26.6672
v  -3.0000 0.0500 -21.3338
v  3.0000 0.0500 -21.3338
v  -3.0000 0.0500 -16.0005
v  3.0000 0.0500 -16.0005
v  -3.0000 0.0500 -10.6672
v  3.0000 0.0500 -10.6672
# 26 vertices

vn 0.0000 1.0000 -0.0000
# 1 vertex normals

vt 0.0000 0.5000 0.0000
vt 1.0000 0.5000 0.0000
vt 1.0000 0.5833 0.0000
vt 0.0000 0.5833 0.0000
vt 0.0000 0.0000 0.0000
vt 1.0000 0.0000 0.0000
vt 1.0000 0.0833 0.0000
vt 0.0000 0.0833 0.0000
vt 1.0000 0.1667 0.0000
vt 0.0000 0.1667 0.0000
vt 1.0000 0.2500 0.0000
vt 0.0000 0.2500 0.0000
vt 1.0000 0.3333 0.0000
vt 0.0000 0.3333 0.0000
vt 1.0000 0.4167 0.0000
vt 0.0000 0.4167 0.0000
vt 1.0000 1.0000 0.0000
vt 0.0000 1.0000 0.0000
vt 0.0000 0.9167 0.0000
vt 1.0000 0.9167 0.0000
vt 0.0000 0.8333 0.0000
vt 1.0000 0.8333 0.0000
vt 0.0000 0.7500 0.0000
vt 1.0000 0.7500 0.0000
vt 0.0000 0.6667 0.0000
vt 1.0000 0.6667 0.0000
# 26 texture coords

g Plane001
s 1
f 1/1/1 2/2/1 3/3/1 
f 3/3/1 4/4/1 1/1/1 
f 5/5/1 6/6/1 7/7/1 
f 7/7/1 8/8/1 5/5/1 
f 8/8/1 7/7/1 9/9/1 
f 9/9/1 10/10/1 8/8/1 
f 10/10/1 9/9/1 11/11/1 
f 11/11/1 12/12/1 10/10/1 
f 12/12/1 11/11/1 13/13/1 
f 13/13/1 14/14/1 12/12/1 
f 14/14/1 13/13/1 15/15/1 
f 15/15/1 16/16/1 14/14/1 
f 16/16/1 15/15/1 2/2/1 
f 2/2/1 1/1/1 16/16/1 
f 17/17/1 18/18/1 19/19/1 
f 19/19/1 20/20/1 17/17/1 
f 20/20/1 19/19/1 21/21/1 
f 21/21/1 22/22/1 20/20/1 
f 22/22/1 21/21/1 23/23/1 
f 23/23/1 24/24/1 22/22/1 
f 24/24/1 23/23/1 25/25/1 
f 25/25/1 26/26/1 24/24/1 
f 26/26/1 25/25/1 4/4/1 
f 4/4/1 3/3/1 26/26/1 
# 24 faces

