# 3ds Max Wavefront OBJ Exporter v0.97b - (c)2007 guruware
# File Created: 26.09.2017 00:12:28

#
# object Boosted_Rail_Steel_Insert_Merge_Start
#

v  -2.7011 0.0660 21.3333
v  -1.8114 0.0842 21.3333
v  -1.5981 0.0833 26.6667
v  -2.4878 0.0651 26.6667
v  -3.8860 0.0715 5.3333
v  -2.9963 0.0897 5.3333
v  -2.5378 0.0876 10.6667
v  -3.4275 0.0694 10.6667
v  -5.3160 0.0782 -10.6667
v  -4.4263 0.0964 -10.6667
v  -3.9678 0.0943 -5.3333
v  -4.8575 0.0761 -5.3333
v  -6.2557 0.0825 -26.6667
v  -5.3660 0.1007 -26.6667
v  -5.1527 0.0998 -21.3333
v  -6.0424 0.0816 -21.3333
v  -2.4109 0.1011 21.3333
v  -1.5209 0.0829 21.3333
v  -1.5209 0.0829 26.6667
v  -2.4109 0.1011 26.6667
v  -2.4109 0.1011 5.3333
v  -1.5209 0.0829 5.3333
v  -1.5209 0.0829 10.6667
v  -2.4109 0.1011 10.6667
v  -2.4109 0.1011 -10.6667
v  -1.5209 0.0829 -10.6667
v  -1.5209 0.0829 -5.3333
v  -2.4109 0.1011 -5.3333
v  -2.4109 0.1011 -26.6667
v  -1.5209 0.0829 -26.6667
v  -1.5209 0.0829 -21.3333
v  -2.4109 0.1011 -21.3333
v  -4.5636 0.1138 -32.0000
v  -3.9269 0.1200 -32.0000
v  -3.9269 0.1200 -26.6667
v  -4.5636 0.1138 -26.6667
v  -3.0235 0.0675 16.0000
v  -2.1338 0.0857 16.0000
v  -1.5209 0.0829 32.0000
v  -2.4106 0.0647 32.0000
v  -4.3718 0.0738 -0.0000
v  -3.4821 0.0920 -0.0000
v  -5.7200 0.0801 -16.0000
v  -4.8303 0.0983 -16.0000
v  -6.3329 0.0829 -32.0000
v  -5.4432 0.1011 -32.0000
v  -3.2901 0.1138 -32.0000
v  -3.2901 0.1138 -26.6667
v  -2.4109 0.1011 16.0000
v  -1.5209 0.0829 16.0000
v  -2.4109 0.1011 32.0000
v  -2.4109 0.1011 -0.0000
v  -1.5209 0.0829 -0.0000
v  -2.4109 0.1011 -16.0000
v  -1.5209 0.0829 -16.0000
v  -2.4109 0.1011 -32.0000
v  -1.5209 0.0829 -32.0000
v  0.0604 0.0530 31.5039
v  -3.9388 0.0000 31.5039
v  -4.0149 0.0000 26.2555
v  -0.0157 0.0530 26.2555
v  -4.2257 0.0000 21.0071
v  -0.2265 0.0530 21.0071
v  -4.5447 0.0000 15.7588
v  -0.5455 0.0530 15.7588
v  -4.9456 0.0000 10.5104
v  -0.9464 0.0530 10.5104
v  -5.4018 0.0000 5.2620
v  -1.4026 0.0530 5.2620
v  -5.8870 0.0000 0.0136
v  -1.8878 0.0530 0.0136
v  -6.3748 0.0000 -5.2347
v  -2.3756 0.0530 -5.2347
v  -6.8387 0.0000 -10.4831
v  -2.8395 0.0530 -10.4831
v  -7.2524 0.0000 -15.7315
v  -3.2532 0.0530 -15.7315
v  -7.5894 0.0000 -20.9799
v  -3.5902 0.0530 -20.9799
v  -7.8232 0.0000 -26.2282
v  -3.8240 0.0530 -26.2282
v  -7.9276 0.0000 -31.4766
v  -3.9284 0.0530 -31.4766
v  0.0604 -0.3000 31.5039
v  -3.9314 -0.3000 31.5039
v  -4.0075 -0.3000 26.2555
v  -4.2183 -0.3000 21.0071
v  -4.5373 -0.3000 15.7588
v  -4.9382 -0.3000 10.5104
v  -5.3944 -0.3000 5.2620
v  -5.8796 -0.3000 0.0136
v  -6.3674 -0.3000 -5.2347
v  -6.8313 -0.3000 -10.4831
v  -7.2450 -0.3000 -15.7315
v  -7.5820 -0.3000 -20.9799
v  -7.8158 -0.3000 -26.2282
v  -7.9202 -0.3000 -31.4766
v  -3.9284 -0.3000 -31.4766
v  -3.8240 -0.3000 -26.2282
v  -3.5902 -0.3000 -20.9799
v  -3.2532 -0.3000 -15.7315
v  -2.8395 -0.3000 -10.4831
v  -2.3756 -0.3000 -5.2347
v  -1.8878 -0.3000 0.0136
v  -1.4026 -0.3000 5.2620
v  -0.9464 -0.3000 10.5104
v  -0.5455 -0.3000 15.7588
v  -0.2265 -0.3000 21.0071
v  -0.0157 -0.3000 26.2555
v  -3.9314 0.0530 -31.4766
v  0.0768 0.0000 -31.4766
v  0.0768 0.0000 -26.2282
v  -3.9314 0.0530 -26.2282
v  0.0768 0.0000 -20.9799
v  -3.9314 0.0530 -20.9798
v  0.0768 0.0000 -15.7315
v  -3.9314 0.0530 -15.7315
v  0.0768 0.0000 -10.4831
v  -3.9314 0.0530 -10.4831
v  0.0768 0.0000 -5.2347
v  -3.9314 0.0530 -5.2347
v  0.0768 0.0000 0.0136
v  -3.9314 0.0530 0.0137
v  0.0768 0.0000 5.2620
v  -3.9314 0.0530 5.2620
v  0.0768 0.0000 10.5104
v  -3.9314 0.0530 10.5104
v  0.0768 0.0000 15.7588
v  -3.9314 0.0530 15.7588
v  0.0768 0.0000 21.0071
v  -3.9314 0.0530 21.0072
v  0.0768 0.0000 26.2555
v  -3.9314 0.0530 26.2555
v  0.0768 0.0000 31.5039
v  -3.9314 0.0530 31.5039
v  -3.9314 -0.3000 -31.4766
v  0.0694 -0.3000 -31.4766
v  0.0694 -0.3000 -26.2282
v  0.0694 -0.3000 -20.9798
v  0.0694 -0.3000 -15.7315
v  0.0694 -0.3000 -10.4831
v  0.0694 -0.3000 -5.2347
v  0.0694 -0.3000 0.0137
v  0.0694 -0.3000 5.2620
v  0.0694 -0.3000 10.5104
v  0.0694 -0.3000 15.7588
v  0.0694 -0.3000 21.0072
v  0.0694 -0.3000 26.2555
v  0.0694 -0.3000 31.5039
v  -3.9314 -0.3000 26.2555
v  -3.9314 -0.3000 21.0072
v  -3.9314 -0.3000 15.7588
v  -3.9314 -0.3000 10.5104
v  -3.9314 -0.3000 5.2620
v  -3.9314 -0.3000 0.0137
v  -3.9314 -0.3000 -5.2347
v  -3.9314 -0.3000 -10.4831
v  -3.9314 -0.3000 -15.7315
v  -3.9314 -0.3000 -20.9798
v  -3.9314 -0.3000 -26.2282
v  2.7007 0.0654 21.3333
v  1.5977 0.0827 26.6667
v  1.8110 0.0836 21.3333
v  2.4874 0.0645 26.6667
v  3.8856 0.0709 5.3333
v  2.5374 0.0870 10.6667
v  2.9959 0.0891 5.3333
v  3.4271 0.0688 10.6667
v  5.3156 0.0776 -10.6667
v  3.9674 0.0937 -5.3333
v  4.4259 0.0958 -10.6667
v  4.8571 0.0755 -5.3333
v  6.2553 0.0819 -26.6667
v  5.1523 0.0992 -21.3333
v  5.3656 0.1001 -26.6667
v  6.0420 0.0810 -21.3333
v  2.4105 0.1005 21.3333
v  1.5205 0.0823 26.6667
v  1.5205 0.0823 21.3333
v  2.4105 0.1005 26.6667
v  2.4105 0.1005 5.3333
v  1.5205 0.0823 10.6667
v  1.5205 0.0823 5.3333
v  2.4105 0.1005 10.6667
v  2.4105 0.1005 -10.6667
v  1.5205 0.0823 -5.3333
v  1.5205 0.0823 -10.6667
v  2.4105 0.1005 -5.3333
v  2.4105 0.1005 -26.6667
v  1.5205 0.0823 -21.3333
v  1.5205 0.0823 -26.6667
v  2.4105 0.1005 -21.3333
v  4.5632 0.1132 -32.0000
v  3.9265 0.1194 -26.6667
v  3.9265 0.1194 -32.0000
v  4.5632 0.1132 -26.6667
v  3.0231 0.0669 16.0000
v  2.1334 0.0851 16.0000
v  1.5205 0.0823 32.0000
v  2.4102 0.0641 32.0000
v  4.3714 0.0732 -0.0000
v  3.4817 0.0914 -0.0000
v  5.7196 0.0795 -16.0000
v  4.8299 0.0977 -16.0000
v  6.3325 0.0823 -32.0000
v  5.4428 0.1005 -32.0000
v  3.2897 0.1132 -26.6667
v  3.2897 0.1132 -32.0000
v  2.4105 0.1005 16.0000
v  1.5205 0.0823 16.0000
v  2.4105 0.1005 32.0000
v  2.4105 0.1005 -0.0000
v  1.5205 0.0823 -0.0000
v  2.4105 0.1005 -16.0000
v  1.5205 0.0823 -16.0000
v  2.4105 0.1005 -32.0000
v  1.5205 0.0823 -32.0000
v  -0.0608 0.0524 31.5039
v  4.0145 -0.0006 26.2555
v  3.9384 -0.0006 31.5039
v  0.0153 0.0524 26.2555
v  4.2253 -0.0006 21.0071
v  0.2261 0.0524 21.0071
v  4.5443 -0.0006 15.7588
v  0.5451 0.0524 15.7588
v  4.9452 -0.0006 10.5104
v  0.9460 0.0524 10.5104
v  5.4014 -0.0006 5.2620
v  1.4022 0.0524 5.2620
v  5.8866 -0.0006 0.0136
v  1.8874 0.0524 0.0136
v  6.3744 -0.0006 -5.2347
v  2.3752 0.0524 -5.2347
v  6.8383 -0.0006 -10.4831
v  2.8391 0.0524 -10.4831
v  7.2520 -0.0006 -15.7315
v  3.2528 0.0524 -15.7315
v  7.5890 -0.0006 -20.9799
v  3.5898 0.0524 -20.9799
v  7.8228 -0.0006 -26.2282
v  3.8236 0.0524 -26.2282
v  7.9272 -0.0006 -31.4766
v  3.9280 0.0524 -31.4766
v  -0.0608 -0.3006 31.5039
v  3.9310 -0.3006 31.5039
v  4.0071 -0.3006 26.2555
v  4.2179 -0.3006 21.0071
v  4.5369 -0.3006 15.7588
v  4.9378 -0.3006 10.5104
v  5.3940 -0.3006 5.2620
v  5.8792 -0.3006 0.0136
v  6.3670 -0.3006 -5.2347
v  6.8309 -0.3006 -10.4831
v  7.2446 -0.3006 -15.7315
v  7.5816 -0.3006 -20.9799
v  7.8154 -0.3006 -26.2282
v  7.9198 -0.3006 -31.4766
v  3.9280 -0.3006 -31.4766
v  3.8236 -0.3006 -26.2282
v  3.5898 -0.3006 -20.9799
v  3.2528 -0.3006 -15.7315
v  2.8391 -0.3006 -10.4831
v  2.3752 -0.3006 -5.2347
v  1.8874 -0.3006 0.0136
v  1.4022 -0.3006 5.2620
v  0.9460 -0.3006 10.5104
v  0.5451 -0.3006 15.7588
v  0.2261 -0.3006 21.0071
v  0.0153 -0.3006 26.2555
v  3.9310 0.0524 -31.4766
v  -0.0772 -0.0006 -26.2282
v  -0.0772 -0.0006 -31.4766
v  3.9310 0.0524 -26.2282
v  -0.0772 -0.0006 -20.9799
v  3.9310 0.0524 -20.9798
v  -0.0772 -0.0006 -15.7315
v  3.9310 0.0524 -15.7315
v  -0.0772 -0.0006 -10.4831
v  3.9310 0.0524 -10.4831
v  -0.0772 -0.0006 -5.2347
v  3.9310 0.0524 -5.2347
v  -0.0772 -0.0006 0.0136
v  3.9310 0.0524 0.0137
v  -0.0772 -0.0006 5.2620
v  3.9310 0.0524 5.2620
v  -0.0772 -0.0006 10.5104
v  3.9310 0.0524 10.5104
v  -0.0772 -0.0006 15.7588
v  3.9310 0.0524 15.7588
v  -0.0772 -0.0006 21.0071
v  3.9310 0.0524 21.0072
v  -0.0772 -0.0006 26.2555
v  3.9310 0.0524 26.2555
v  -0.0772 -0.0006 31.5039
v  3.9310 0.0524 31.5039
v  3.9310 -0.3006 -31.4766
v  -0.0698 -0.3006 -31.4766
v  -0.0698 -0.3006 -26.2282
v  -0.0698 -0.3006 -20.9798
v  -0.0698 -0.3006 -15.7315
v  -0.0698 -0.3006 -10.4831
v  -0.0698 -0.3006 -5.2347
v  -0.0698 -0.3006 0.0137
v  -0.0698 -0.3006 5.2620
v  -0.0698 -0.3006 10.5104
v  -0.0698 -0.3006 15.7588
v  -0.0698 -0.3006 21.0072
v  -0.0698 -0.3006 26.2555
v  -0.0698 -0.3006 31.5039
v  3.9310 -0.3006 26.2555
v  3.9310 -0.3006 21.0072
v  3.9310 -0.3006 15.7588
v  3.9310 -0.3006 10.5104
v  3.9310 -0.3006 5.2620
v  3.9310 -0.3006 0.0137
v  3.9310 -0.3006 -5.2347
v  3.9310 -0.3006 -10.4831
v  3.9310 -0.3006 -15.7315
v  3.9310 -0.3006 -20.9798
v  3.9310 -0.3006 -26.2282
# 320 vertices

vn -0.0205 0.9998 -0.0000
vn 0.0205 0.9998 -0.0000
vn -0.0098 1.0000 -0.0000
vn 0.0098 1.0000 -0.0000
vn -0.0133 0.9999 -0.0000
vn 0.0000 0.0000 1.0000
vn -0.9997 -0.0249 -0.0000
vn 0.0000 0.0000 -1.0000
vn 1.0000 0.0000 -0.0000
vn 0.0132 0.9999 -0.0000
vn 0.9997 -0.0249 -0.0000
vn -1.0000 0.0000 -0.0000
vn 0.0205 0.9998 0.0013
vn 0.0205 0.9998 0.0007
vn 0.0205 0.9998 0.0012
vn 0.0205 0.9998 0.0022
vn 0.0205 0.9998 0.0020
vn -0.0204 0.9998 -0.0000
vn 0.0097 1.0000 -0.0000
vn 0.0000 1.0000 -0.0000
vn 0.0205 0.9998 0.0017
vn -0.0001 1.0000 0.0002
vn 0.0205 0.9998 0.0004
vn 0.0205 0.9998 0.0023
vn -0.0097 1.0000 -0.0000
vn 0.0133 0.9999 0.0002
vn 0.0133 0.9999 0.0004
vn 0.0133 0.9999 0.0007
vn 0.0133 0.9999 0.0009
vn 0.0133 0.9999 0.0011
vn 0.0133 0.9999 0.0012
vn 0.0133 0.9999 0.0010
vn 0.0133 0.9999 0.0003
vn 0.9996 -0.0247 0.0145
vn 0.9993 -0.0247 0.0273
vn 0.9984 -0.0246 0.0504
vn 0.9974 -0.0246 0.0684
vn 0.9964 -0.0246 0.0814
vn 0.9964 -0.0246 0.0813
vn 0.9957 -0.0246 0.0893
vn 0.9954 -0.0246 0.0923
vn 0.9956 -0.0246 0.0903
vn 0.9962 -0.0246 0.0833
vn 0.9972 -0.0246 0.0713
vn 0.9982 -0.0246 0.0543
vn 0.9992 -0.0246 0.0322
vn 0.9995 -0.0247 0.0199
vn -0.9998 0.0000 -0.0199
vn -0.9995 0.0000 -0.0322
vn -0.9985 0.0000 -0.0543
vn -0.9975 0.0000 -0.0713
vn -0.9965 0.0000 -0.0833
vn -0.9959 0.0000 -0.0903
vn -0.9957 0.0000 -0.0923
vn -0.9960 0.0000 -0.0893
vn -0.9967 0.0000 -0.0814
vn -0.9977 0.0000 -0.0684
vn -0.9987 0.0000 -0.0504
vn -0.9996 0.0000 -0.0273
vn -0.9999 0.0000 -0.0145
vn -0.0132 0.9999 -0.0000
vn -0.9997 -0.0247 -0.0000
# 62 vertex normals

vt 0.7340 0.3398 0.0000
vt 1.0019 0.3398 0.0000
vt 1.0019 0.6699 0.0000
vt 0.7340 0.6699 0.0000
vt 0.7340 0.6648 0.0000
vt 1.0019 0.6648 0.0000
vt 1.0019 0.3347 0.0000
vt 0.7340 0.3347 0.0000
vt 1.0024 0.3398 0.0000
vt 0.7359 0.3398 0.0000
vt 0.7359 0.6699 0.0000
vt 1.0024 0.6699 0.0000
vt 1.0024 0.6648 0.0000
vt 0.7359 0.6648 0.0000
vt 0.7359 0.3347 0.0000
vt 1.0024 0.3347 0.0000
vt 1.0014 0.0021 0.0000
vt 0.8690 0.0021 0.0000
vt 0.8690 0.3322 0.0000
vt 1.0014 0.3322 0.0000
vt 0.7340 0.0097 0.0000
vt 1.0019 0.0097 0.0000
vt 1.0019 1.0000 0.0000
vt 0.7340 1.0000 0.0000
vt 0.7340 0.9949 0.0000
vt 1.0019 0.9949 0.0000
vt 1.0019 0.0046 0.0000
vt 0.7340 0.0046 0.0000
vt 0.8690 1.0000 0.0000
vt 0.7366 1.0000 0.0000
vt 0.7366 0.6699 0.0000
vt 0.8690 0.6699 0.0000
vt 1.0024 0.0097 0.0000
vt 0.7359 0.0097 0.0000
vt 0.7359 1.0000 0.0000
vt 1.0024 1.0000 0.0000
vt 1.0024 0.9949 0.0000
vt 0.7359 0.9949 0.0000
vt 0.7359 0.0046 0.0000
vt 1.0024 0.0046 0.0000
vt 0.7249 1.0000 0.0000
vt -0.0192 1.0000 0.0000
vt -0.0192 0.0003 0.0000
vt 0.7249 0.0003 0.0000
vt 0.0000 0.0000 0.0000
vt 0.0833 0.0000 0.0000
vt 0.0833 1.0000 0.0000
vt 0.0000 1.0000 0.0000
vt 0.1667 0.0000 0.0000
vt 0.1667 1.0000 0.0000
vt 0.2500 0.0000 0.0000
vt 0.2500 1.0000 0.0000
vt -0.0010 0.0000 0.0000
vt -0.0010 1.0000 0.0000
vt 0.0823 0.0000 0.0000
vt 0.0823 1.0000 0.0000
vt 0.1657 0.0000 0.0000
vt 0.1657 1.0000 0.0000
vt 0.2490 0.0000 0.0000
vt 0.2490 1.0000 0.0000
vt 0.3323 0.0000 0.0000
vt 0.3323 1.0000 0.0000
vt 0.4157 0.0000 0.0000
vt 0.4157 1.0000 0.0000
vt 0.4990 0.0000 0.0000
vt 0.4990 1.0000 0.0000
vt 0.5823 0.0000 0.0000
vt 0.5823 1.0000 0.0000
vt 0.6657 0.0000 0.0000
vt 0.6657 1.0000 0.0000
vt -0.0145 0.0003 0.0000
vt 0.7440 0.0003 0.0000
vt 0.7440 1.0000 0.0000
vt -0.0145 1.0000 0.0000
# 74 texture coords

g Boosted_Rail_Steel_Insert_Merge_Start
s 4
f 3/3/1 2/2/1 1/1/1 
f 1/1/1 4/4/1 3/3/1 
f 7/7/1 6/6/1 5/5/1 
f 5/5/1 8/8/1 7/7/1 
f 11/6/1 10/7/1 9/8/1 
f 9/8/1 12/5/1 11/6/1 
f 15/2/1 14/3/1 13/4/1 
f 13/4/1 16/1/1 15/2/1 
f 19/11/2 18/10/2 17/9/2 
f 17/9/2 20/12/2 19/11/2 
f 23/15/2 22/14/2 21/13/2 
f 21/13/2 24/16/2 23/15/2 
f 27/14/2 26/15/2 25/16/2 
f 25/16/2 28/13/2 27/14/2 
f 31/10/2 30/11/2 29/12/2 
f 29/12/2 32/9/2 31/10/2 
f 35/19/3 34/18/3 33/17/3 
f 33/17/3 36/20/3 35/19/3 
f 2/2/1 38/22/1 37/21/1 
f 37/21/1 1/1/1 2/2/1 
f 4/4/1 40/24/1 39/23/1 
f 39/23/1 3/3/1 4/4/1 
f 6/6/1 42/26/1 41/25/1 
f 41/25/1 5/5/1 6/6/1 
f 8/8/1 37/28/1 38/27/1 
f 38/27/1 7/7/1 8/8/1 
f 10/7/1 44/27/1 43/28/1 
f 43/28/1 9/8/1 10/7/1 
f 12/5/1 41/25/1 42/26/1 
f 42/26/1 11/6/1 12/5/1 
f 14/3/1 46/23/1 45/24/1 
f 45/24/1 13/4/1 14/3/1 
f 16/1/1 43/21/1 44/22/1 
f 44/22/1 15/2/1 16/1/1 
f 48/31/4 47/30/4 34/29/4 
f 34/29/4 35/32/4 48/31/4 
f 18/10/2 50/34/2 49/33/2 
f 49/33/2 17/9/2 18/10/2 
f 20/12/2 51/36/2 39/35/2 
f 39/35/2 19/11/2 20/12/2 
f 22/14/2 53/38/2 52/37/2 
f 52/37/2 21/13/2 22/14/2 
f 24/16/2 49/40/2 50/39/2 
f 50/39/2 23/15/2 24/16/2 
f 26/15/2 55/39/2 54/40/2 
f 54/40/2 25/16/2 26/15/2 
f 28/13/2 52/37/2 53/38/2 
f 53/38/2 27/14/2 28/13/2 
f 30/11/2 57/35/2 56/36/2 
f 56/36/2 29/12/2 30/11/2 
f 32/9/2 54/33/2 55/34/2 
f 55/34/2 31/10/2 32/9/2 
f 60/43/5 59/42/5 58/41/5 
f 58/41/5 61/44/5 60/43/5 
f 62/43/5 60/42/5 61/41/5 
f 61/41/5 63/44/5 62/43/5 
f 64/43/5 62/42/5 63/41/5 
f 63/41/5 65/44/5 64/43/5 
f 66/43/5 64/42/5 65/41/5 
f 65/41/5 67/44/5 66/43/5 
f 68/43/5 66/42/5 67/41/5 
f 67/41/5 69/44/5 68/43/5 
f 70/43/5 68/42/5 69/41/5 
f 69/41/5 71/44/5 70/43/5 
f 72/43/5 70/42/5 71/41/5 
f 71/41/5 73/44/5 72/43/5 
f 74/43/5 72/42/5 73/41/5 
f 73/41/5 75/44/5 74/43/5 
f 76/43/5 74/42/5 75/41/5 
f 75/41/5 77/44/5 76/43/5 
f 78/43/5 76/42/5 77/41/5 
f 77/41/5 79/44/5 78/43/5 
f 80/43/5 78/42/5 79/41/5 
f 79/41/5 81/44/5 80/43/5 
f 82/43/5 80/42/5 81/41/5 
f 81/41/5 83/44/5 82/43/5 
s 8
f 59/42/6 85/42/6 84/41/6 
f 84/41/6 58/41/6 59/42/6 
s 16
f 60/47/7 86/46/7 85/45/7 
f 85/45/7 59/48/7 60/47/7 
f 62/50/7 87/49/7 86/46/7 
f 86/46/7 60/47/7 62/50/7 
f 64/52/7 88/51/7 87/49/7 
f 87/49/7 62/50/7 64/52/7 
f 66/54/7 89/53/7 88/51/7 
f 88/51/7 64/52/7 66/54/7 
f 68/56/7 90/55/7 89/53/7 
f 89/53/7 66/54/7 68/56/7 
f 70/58/7 91/57/7 90/55/7 
f 90/55/7 68/56/7 70/58/7 
f 72/60/7 92/59/7 91/57/7 
f 91/57/7 70/58/7 72/60/7 
f 74/62/7 93/61/7 92/59/7 
f 92/59/7 72/60/7 74/62/7 
f 76/64/7 94/63/7 93/61/7 
f 93/61/7 74/62/7 76/64/7 
f 78/66/7 95/65/7 94/63/7 
f 94/63/7 76/64/7 78/66/7 
f 80/68/7 96/67/7 95/65/7 
f 95/65/7 78/66/7 80/68/7 
f 82/70/7 97/69/7 96/67/7 
f 96/67/7 80/68/7 82/70/7 
s 32
f 83/44/8 98/44/8 97/43/8 
f 97/43/8 82/43/8 83/44/8 
s 64
f 81/47/9 99/46/9 98/45/9 
f 98/45/9 83/48/9 81/47/9 
f 79/50/9 100/49/9 99/46/9 
f 99/46/9 81/47/9 79/50/9 
f 77/52/9 101/51/9 100/49/9 
f 100/49/9 79/50/9 77/52/9 
f 75/54/9 102/53/9 101/51/9 
f 101/51/9 77/52/9 75/54/9 
f 73/56/9 103/55/9 102/53/9 
f 102/53/9 75/54/9 73/56/9 
f 71/58/9 104/57/9 103/55/9 
f 103/55/9 73/56/9 71/58/9 
f 69/60/9 105/59/9 104/57/9 
f 104/57/9 71/58/9 69/60/9 
f 67/62/9 106/61/9 105/59/9 
f 105/59/9 69/60/9 67/62/9 
f 65/64/9 107/63/9 106/61/9 
f 106/61/9 67/62/9 65/64/9 
f 63/66/9 108/65/9 107/63/9 
f 107/63/9 65/64/9 63/66/9 
f 61/68/9 109/67/9 108/65/9 
f 108/65/9 63/66/9 61/68/9 
f 58/70/9 84/69/9 109/67/9 
f 109/67/9 61/68/9 58/70/9 
s 4
f 112/73/10 111/72/10 110/71/10 
f 110/71/10 113/74/10 112/73/10 
f 114/73/10 112/72/10 113/71/10 
f 113/71/10 115/74/10 114/73/10 
f 116/73/10 114/72/10 115/71/10 
f 115/71/10 117/74/10 116/73/10 
f 118/73/10 116/72/10 117/71/10 
f 117/71/10 119/74/10 118/73/10 
f 120/73/10 118/72/10 119/71/10 
f 119/71/10 121/74/10 120/73/10 
f 122/73/10 120/72/10 121/71/10 
f 121/71/10 123/74/10 122/73/10 
f 124/73/10 122/72/10 123/71/10 
f 123/71/10 125/74/10 124/73/10 
f 126/73/10 124/72/10 125/71/10 
f 125/71/10 127/74/10 126/73/10 
f 128/73/10 126/72/10 127/71/10 
f 127/71/10 129/74/10 128/73/10 
f 130/73/10 128/72/10 129/71/10 
f 129/71/10 131/74/10 130/73/10 
f 132/73/10 130/72/10 131/71/10 
f 131/71/10 133/74/10 132/73/10 
f 134/73/10 132/72/10 133/71/10 
f 133/71/10 135/74/10 134/73/10 
s 8
f 111/72/8 137/72/8 136/71/8 
f 136/71/8 110/71/8 111/72/8 
s 16
f 112/47/11 138/46/11 137/45/11 
f 137/45/11 111/48/11 112/47/11 
f 114/50/11 139/49/11 138/46/11 
f 138/46/11 112/47/11 114/50/11 
f 116/52/11 140/51/11 139/49/11 
f 139/49/11 114/50/11 116/52/11 
f 118/54/11 141/53/11 140/51/11 
f 140/51/11 116/52/11 118/54/11 
f 120/56/11 142/55/11 141/53/11 
f 141/53/11 118/54/11 120/56/11 
f 122/58/11 143/57/11 142/55/11 
f 142/55/11 120/56/11 122/58/11 
f 124/60/11 144/59/11 143/57/11 
f 143/57/11 122/58/11 124/60/11 
f 126/62/11 145/61/11 144/59/11 
f 144/59/11 124/60/11 126/62/11 
f 128/64/11 146/63/11 145/61/11 
f 145/61/11 126/62/11 128/64/11 
f 130/66/11 147/65/11 146/63/11 
f 146/63/11 128/64/11 130/66/11 
f 132/68/11 148/67/11 147/65/11 
f 147/65/11 130/66/11 132/68/11 
f 134/70/11 149/69/11 148/67/11 
f 148/67/11 132/68/11 134/70/11 
s 32
f 135/74/6 85/74/6 149/73/6 
f 149/73/6 134/73/6 135/74/6 
s 64
f 133/47/12 150/46/12 85/45/12 
f 85/45/12 135/48/12 133/47/12 
f 131/50/12 151/49/12 150/46/12 
f 150/46/12 133/47/12 131/50/12 
f 129/52/12 152/51/12 151/49/12 
f 151/49/12 131/50/12 129/52/12 
f 127/54/12 153/53/12 152/51/12 
f 152/51/12 129/52/12 127/54/12 
f 125/56/12 154/55/12 153/53/12 
f 153/53/12 127/54/12 125/56/12 
f 123/58/12 155/57/12 154/55/12 
f 154/55/12 125/56/12 123/58/12 
f 121/60/12 156/59/12 155/57/12 
f 155/57/12 123/58/12 121/60/12 
f 119/62/12 157/61/12 156/59/12 
f 156/59/12 121/60/12 119/62/12 
f 117/64/12 158/63/12 157/61/12 
f 157/61/12 119/62/12 117/64/12 
f 115/66/12 159/65/12 158/63/12 
f 158/63/12 117/64/12 115/66/12 
f 113/68/12 160/67/12 159/65/12 
f 159/65/12 115/66/12 113/68/12 
f 110/70/12 136/69/12 160/67/12 
f 160/67/12 113/68/12 110/70/12 
s 4
f 163/2/15 162/3/14 161/1/13 
f 164/4/14 161/1/13 162/3/14 
f 167/6/16 166/7/17 165/5/16 
f 168/8/17 165/5/16 166/7/17 
f 171/7/17 170/6/16 169/8/17 
f 172/5/16 169/8/17 170/6/16 
f 175/3/14 174/2/13 173/4/14 
f 176/1/15 173/4/14 174/2/13 
f 179/10/18 178/11/18 177/9/18 
f 180/12/18 177/9/18 178/11/18 
f 183/14/18 182/15/18 181/13/18 
f 184/16/18 181/13/18 182/15/18 
f 187/15/18 186/14/18 185/16/18 
f 188/13/18 185/16/18 186/14/18 
f 191/11/18 190/10/18 189/12/18 
f 192/9/18 189/12/18 190/10/18 
f 195/18/20 194/19/20 193/17/19 
f 196/20/19 193/17/19 194/19/20 
f 198/22/21 163/2/15 197/21/21 
f 161/1/13 197/21/21 163/2/15 
f 200/24/23 164/4/14 199/23/22 
f 162/3/14 199/23/22 164/4/14 
f 202/26/24 167/6/16 201/25/24 
f 165/5/16 201/25/24 167/6/16 
f 197/28/21 168/8/17 198/27/21 
f 166/7/17 198/27/21 168/8/17 
f 204/27/21 171/7/17 203/28/21 
f 169/8/17 203/28/21 171/7/17 
f 201/25/24 172/5/16 202/26/24 
f 170/6/16 202/26/24 172/5/16 
f 206/23/23 175/3/14 205/24/23 
f 173/4/14 205/24/23 175/3/14 
f 203/21/21 176/1/15 204/22/21 
f 174/2/13 204/22/21 176/1/15 
f 208/30/25 207/31/25 195/29/20 
f 194/32/20 195/29/20 207/31/25 
f 210/34/18 179/10/18 209/33/18 
f 177/9/18 209/33/18 179/10/18 
f 211/36/18 180/12/18 199/35/22 
f 178/11/18 199/35/22 180/12/18 
f 213/38/18 183/14/18 212/37/18 
f 181/13/18 212/37/18 183/14/18 
f 209/40/18 184/16/18 210/39/18 
f 182/15/18 210/39/18 184/16/18 
f 215/39/18 187/15/18 214/40/18 
f 185/16/18 214/40/18 187/15/18 
f 212/37/18 188/13/18 213/38/18 
f 186/14/18 213/38/18 188/13/18 
f 217/35/18 191/11/18 216/36/18 
f 189/12/18 216/36/18 191/11/18 
f 214/33/18 192/9/18 215/34/18 
f 190/10/18 215/34/18 192/9/18 
f 220/42/26 219/43/27 218/41/26 
f 221/44/27 218/41/26 219/43/27 
f 219/42/27 222/43/28 221/41/27 
f 223/44/28 221/41/27 222/43/28 
f 222/42/28 224/43/29 223/41/28 
f 225/44/29 223/41/28 224/43/29 
f 224/42/29 226/43/30 225/41/29 
f 227/44/30 225/41/29 226/43/30 
f 226/42/30 228/43/31 227/41/30 
f 229/44/31 227/41/30 228/43/31 
f 228/42/31 230/43/31 229/41/31 
f 231/44/31 229/41/31 230/43/31 
f 230/42/31 232/43/31 231/41/31 
f 233/44/31 231/41/31 232/43/31 
f 232/42/31 234/43/30 233/41/31 
f 235/44/30 233/41/31 234/43/30 
f 234/42/30 236/43/29 235/41/30 
f 237/44/32 235/41/30 236/43/29 
f 236/42/29 238/43/28 237/41/32 
f 239/44/28 237/41/32 238/43/28 
f 238/42/28 240/43/27 239/41/28 
f 241/44/27 239/41/28 240/43/27 
f 240/42/27 242/43/33 241/41/27 
f 243/44/33 241/41/27 242/43/33 
s 8
f 245/42/6 220/42/6 244/41/6 
f 218/41/6 244/41/6 220/42/6 
s 16
f 246/46/35 219/47/35 245/45/34 
f 220/48/34 245/45/34 219/47/35 
f 247/49/36 222/50/36 246/46/35 
f 219/47/35 246/46/35 222/50/36 
f 248/51/37 224/52/37 247/49/36 
f 222/50/36 247/49/36 224/52/37 
f 249/53/39 226/54/38 248/51/37 
f 224/52/37 248/51/37 226/54/38 
f 250/55/40 228/56/40 249/53/39 
f 226/54/38 249/53/39 228/56/40 
f 251/57/41 230/58/41 250/55/40 
f 228/56/40 250/55/40 230/58/41 
f 252/59/42 232/60/42 251/57/41 
f 230/58/41 251/57/41 232/60/42 
f 253/61/43 234/62/43 252/59/42 
f 232/60/42 252/59/42 234/62/43 
f 254/63/44 236/64/44 253/61/43 
f 234/62/43 253/61/43 236/64/44 
f 255/65/45 238/66/45 254/63/44 
f 236/64/44 254/63/44 238/66/45 
f 256/67/46 240/68/46 255/65/45 
f 238/66/45 255/65/45 240/68/46 
f 257/69/47 242/70/47 256/67/46 
f 240/68/46 256/67/46 242/70/47 
s 32
f 258/44/8 243/44/8 257/43/8 
f 242/43/8 257/43/8 243/44/8 
s 64
f 259/46/49 241/47/49 258/45/48 
f 243/48/48 258/45/48 241/47/49 
f 260/49/50 239/50/50 259/46/49 
f 241/47/49 259/46/49 239/50/50 
f 261/51/51 237/52/51 260/49/50 
f 239/50/50 260/49/50 237/52/51 
f 262/53/52 235/54/52 261/51/51 
f 237/52/51 261/51/51 235/54/52 
f 263/55/53 233/56/53 262/53/52 
f 235/54/52 262/53/52 233/56/53 
f 264/57/54 231/58/54 263/55/53 
f 233/56/53 263/55/53 231/58/54 
f 265/59/55 229/60/55 264/57/54 
f 231/58/54 264/57/54 229/60/55 
f 266/61/56 227/62/56 265/59/55 
f 229/60/55 265/59/55 227/62/56 
f 267/63/57 225/64/57 266/61/56 
f 227/62/56 266/61/56 225/64/57 
f 268/65/58 223/66/58 267/63/57 
f 225/64/57 267/63/57 223/66/58 
f 269/67/59 221/68/59 268/65/58 
f 223/66/58 268/65/58 221/68/59 
f 244/69/60 218/70/60 269/67/59 
f 221/68/59 269/67/59 218/70/60 
s 4
f 272/72/61 271/73/61 270/71/61 
f 273/74/61 270/71/61 271/73/61 
f 271/72/61 274/73/61 273/71/61 
f 275/74/61 273/71/61 274/73/61 
f 274/72/61 276/73/61 275/71/61 
f 277/74/61 275/71/61 276/73/61 
f 276/72/61 278/73/61 277/71/61 
f 279/74/61 277/71/61 278/73/61 
f 278/72/61 280/73/61 279/71/61 
f 281/74/61 279/71/61 280/73/61 
f 280/72/61 282/73/61 281/71/61 
f 283/74/61 281/71/61 282/73/61 
f 282/72/61 284/73/61 283/71/61 
f 285/74/61 283/71/61 284/73/61 
f 284/72/61 286/73/61 285/71/61 
f 287/74/61 285/71/61 286/73/61 
f 286/72/61 288/73/61 287/71/61 
f 289/74/61 287/71/61 288/73/61 
f 288/72/61 290/73/61 289/71/61 
f 291/74/61 289/71/61 290/73/61 
f 290/72/61 292/73/61 291/71/61 
f 293/74/61 291/71/61 292/73/61 
f 292/72/61 294/73/61 293/71/61 
f 295/74/61 293/71/61 294/73/61 
s 8
f 297/72/8 272/72/8 296/71/8 
f 270/71/8 296/71/8 272/72/8 
s 16
f 298/46/62 271/47/62 297/45/62 
f 272/48/62 297/45/62 271/47/62 
f 299/49/62 274/50/62 298/46/62 
f 271/47/62 298/46/62 274/50/62 
f 300/51/62 276/52/62 299/49/62 
f 274/50/62 299/49/62 276/52/62 
f 301/53/62 278/54/62 300/51/62 
f 276/52/62 300/51/62 278/54/62 
f 302/55/62 280/56/62 301/53/62 
f 278/54/62 301/53/62 280/56/62 
f 303/57/62 282/58/62 302/55/62 
f 280/56/62 302/55/62 282/58/62 
f 304/59/62 284/60/62 303/57/62 
f 282/58/62 303/57/62 284/60/62 
f 305/61/62 286/62/62 304/59/62 
f 284/60/62 304/59/62 286/62/62 
f 306/63/62 288/64/62 305/61/62 
f 286/62/62 305/61/62 288/64/62 
f 307/65/62 290/66/62 306/63/62 
f 288/64/62 306/63/62 290/66/62 
f 308/67/62 292/68/62 307/65/62 
f 290/66/62 307/65/62 292/68/62 
f 309/69/62 294/70/62 308/67/62 
f 292/68/62 308/67/62 294/70/62 
s 32
f 245/74/6 295/74/6 309/73/6 
f 294/73/6 309/73/6 295/74/6 
s 64
f 310/46/9 293/47/9 245/45/9 
f 295/48/9 245/45/9 293/47/9 
f 311/49/9 291/50/9 310/46/9 
f 293/47/9 310/46/9 291/50/9 
f 312/51/9 289/52/9 311/49/9 
f 291/50/9 311/49/9 289/52/9 
f 313/53/9 287/54/9 312/51/9 
f 289/52/9 312/51/9 287/54/9 
f 314/55/9 285/56/9 313/53/9 
f 287/54/9 313/53/9 285/56/9 
f 315/57/9 283/58/9 314/55/9 
f 285/56/9 314/55/9 283/58/9 
f 316/59/9 281/60/9 315/57/9 
f 283/58/9 315/57/9 281/60/9 
f 317/61/9 279/62/9 316/59/9 
f 281/60/9 316/59/9 279/62/9 
f 318/63/9 277/64/9 317/61/9 
f 279/62/9 317/61/9 277/64/9 
f 319/65/9 275/66/9 318/63/9 
f 277/64/9 318/63/9 275/66/9 
f 320/67/9 273/68/9 319/65/9 
f 275/66/9 319/65/9 273/68/9 
f 296/69/9 270/70/9 320/67/9 
f 273/68/9 320/67/9 270/70/9 
# 0 polygons - 408 triangles

