# 3ds Max Wavefront OBJ Exporter v0.97b - (c)2007 guruware
# File Created: 28.09.2017 21:52:21

#
# object Boosted_Rail_Steel_Insert_Single_End
#

v  -0.8813 0.0761 21.3402
v  0.3288 0.0941 26.6741
v  0.0084 0.0943 21.3402
v  -0.5609 0.0759 26.6741
v  -2.6622 0.0781 5.3380
v  -1.0822 0.0956 10.6723
v  -1.7710 0.0963 5.3380
v  -1.9729 0.0774 10.6723
v  -4.8116 0.0806 -10.6648
v  -3.2309 0.0981 -5.3305
v  -3.9198 0.0988 -10.6648
v  -4.1227 0.0798 -5.3305
v  -6.2203 0.0821 -26.6666
v  -5.0104 0.1000 -21.3328
v  -5.3299 0.1003 -26.6666
v  -5.9014 0.0818 -21.3328
v  -0.5910 0.1112 21.3402
v  0.4060 0.0937 26.6741
v  0.2990 0.0930 21.3402
v  -0.4840 0.1119 26.6741
v  -1.1853 0.1077 5.3380
v  -0.0653 0.0909 10.6723
v  -0.2953 0.0895 5.3380
v  -0.9553 0.1091 10.6723
v  -1.9025 0.1035 -10.6648
v  -0.7825 0.0867 -5.3305
v  -1.0125 0.0853 -10.6648
v  -1.6725 0.1049 -5.3305
v  -2.3738 0.1007 -26.6666
v  -1.3768 0.0832 -21.3327
v  -1.4838 0.0825 -26.6666
v  -2.2668 0.1014 -21.3327
v  -4.5652 0.1132 -32.0000
v  -3.8901 0.1196 -26.6666
v  -3.9285 0.1194 -32.0000
v  -4.5270 0.1134 -26.6666
v  -1.3657 0.0767 16.0063
v  -0.4757 0.0949 16.0063
v  0.4447 0.0939 32.0075
v  -0.4450 0.0757 32.0075
v  -3.3926 0.0790 0.0037
v  -2.5009 0.0972 0.0037
v  -5.4182 0.0813 -15.9988
v  -4.5266 0.0995 -15.9988
v  -6.3345 0.0823 -32.0000
v  -5.4448 0.1005 -32.0000
v  -3.2531 0.1134 -26.6666
v  -3.2917 0.1132 -32.0000
v  -0.7527 0.1103 16.0063
v  0.1373 0.0921 16.0063
v  -0.4453 0.1121 32.0075
v  -1.4289 0.1063 0.0037
v  -0.5389 0.0881 0.0037
v  -2.1051 0.1023 -15.9988
v  -1.2151 0.0841 -15.9988
v  -2.4125 0.1005 -32.0000
v  -1.5225 0.0823 -32.0000
v  2.0221 0.0640 31.5114
v  -2.0974 0.0107 26.2628
v  -1.9769 0.0110 31.5114
v  1.9022 0.0637 26.2628
v  -2.4182 0.0101 21.0140
v  1.5829 0.0631 21.0140
v  -2.8998 0.0091 15.7651
v  1.1033 0.0621 15.7651
v  -3.5026 0.0079 10.5159
v  0.5025 0.0610 10.5159
v  -4.1869 0.0066 5.2666
v  -0.1802 0.0596 5.2667
v  -4.9131 0.0052 0.0173
v  -0.9053 0.0582 0.0174
v  -5.6414 0.0037 -5.2319
v  -1.6328 0.0568 -5.2319
v  -6.3322 0.0024 -10.4812
v  -2.3236 0.0555 -10.4811
v  -6.9458 0.0012 -15.7303
v  -2.9383 0.0543 -15.7303
v  -7.4427 0.0003 -20.9793
v  -3.4373 0.0533 -20.9793
v  -7.7834 -0.0004 -26.2280
v  -3.7807 0.0527 -26.2280
v  -7.9291 -0.0006 -31.4766
v  -3.9296 0.0524 -31.4766
v  2.0219 -0.2890 31.5114
v  -1.9696 -0.2890 31.5114
v  -2.0901 -0.2893 26.2628
v  -2.4109 -0.2899 21.0140
v  -2.8925 -0.2909 15.7651
v  -3.4953 -0.2921 10.5159
v  -4.1795 -0.2934 5.2666
v  -4.9057 -0.2948 0.0173
v  -5.6341 -0.2963 -5.2319
v  -6.3248 -0.2976 -10.4812
v  -6.9384 -0.2988 -15.7303
v  -7.4353 -0.2997 -20.9793
v  -7.7760 -0.3004 -26.2280
v  -7.9217 -0.3006 -31.4766
v  -3.9296 -0.3006 -31.4766
v  -3.7808 -0.3003 -26.2280
v  -3.4373 -0.2997 -20.9793
v  -2.9384 -0.2987 -15.7303
v  -2.3237 -0.2975 -10.4811
v  -1.6329 -0.2962 -5.2319
v  -0.9054 -0.2948 0.0174
v  -0.1803 -0.2934 5.2667
v  0.5023 -0.2920 10.5159
v  1.1032 -0.2909 15.7651
v  1.5828 -0.2899 21.0140
v  1.9020 -0.2893 26.2628
v  -3.9326 0.0524 -31.4766
v  0.1200 -0.0003 -26.2280
v  0.0756 -0.0006 -31.4766
v  -3.8882 0.0527 -26.2280
v  0.2295 0.0003 -20.9793
v  -3.7787 0.0533 -20.9792
v  0.3910 0.0013 -15.7303
v  -3.6171 0.0543 -15.7303
v  0.5915 0.0024 -10.4811
v  -3.4166 0.0554 -10.4811
v  0.8181 0.0038 -5.2319
v  -3.1900 0.0568 -5.2319
v  1.0576 0.0052 0.0173
v  -2.9504 0.0582 0.0174
v  1.2971 0.0066 5.2667
v  -2.7109 0.0596 5.2667
v  1.5235 0.0079 10.5159
v  -2.4844 0.0609 10.5159
v  1.7239 0.0091 15.7651
v  -2.2840 0.0621 15.7651
v  1.8852 0.0101 21.0140
v  -2.1227 0.0631 21.0141
v  1.9943 0.0107 26.2628
v  -2.0135 0.0637 26.2628
v  2.0384 0.0110 31.5114
v  -1.9694 0.0640 31.5114
v  -3.9326 -0.3006 -31.4766
v  0.0682 -0.3006 -31.4766
v  0.1126 -0.3003 -26.2280
v  0.2220 -0.2997 -20.9792
v  0.3835 -0.2987 -15.7303
v  0.5841 -0.2976 -10.4811
v  0.8106 -0.2962 -5.2319
v  1.0501 -0.2948 0.0174
v  1.2896 -0.2934 5.2667
v  1.5160 -0.2921 10.5159
v  1.7164 -0.2909 15.7651
v  1.8776 -0.2899 21.0141
v  1.9868 -0.2893 26.2628
v  2.0309 -0.2890 31.5114
v  -2.0137 -0.2893 26.2628
v  -2.1229 -0.2899 21.0141
v  -2.2842 -0.2909 15.7651
v  -2.4846 -0.2921 10.5159
v  -2.7110 -0.2934 5.2667
v  -2.9505 -0.2948 0.0174
v  -3.1901 -0.2962 -5.2319
v  -3.4166 -0.2976 -10.4811
v  -3.6172 -0.2987 -15.7303
v  -3.7787 -0.2997 -20.9792
v  -3.8882 -0.3003 -26.2280
# 160 vertices

vn -0.0205 0.9998 0.0016
vn -0.0205 0.9998 0.0009
vn -0.0204 0.9998 0.0029
vn -0.0204 0.9998 0.0026
vn -0.0204 0.9998 0.0009
vn -0.0204 0.9998 0.0016
vn 0.0204 0.9998 -0.0007
vn 0.0204 0.9998 -0.0004
vn 0.0204 0.9998 -0.0012
vn 0.0204 0.9998 -0.0011
vn -0.0097 1.0000 -0.0000
vn 0.0000 1.0000 -0.0000
vn -0.0204 0.9998 0.0022
vn -0.0205 0.9998 0.0005
vn -0.0204 0.9998 0.0030
vn 0.0097 1.0000 -0.0001
vn 0.0204 0.9998 -0.0009
vn 0.0204 0.9998 -0.0002
vn -0.0133 0.9999 0.0003
vn -0.0133 0.9999 0.0005
vn -0.0132 0.9999 0.0009
vn -0.0132 0.9999 0.0008
vn -0.0132 0.9999 0.0012
vn -0.0132 0.9999 0.0014
vn -0.0132 0.9999 0.0015
vn -0.0132 0.9999 0.0016
vn -0.0132 0.9999 0.0005
vn -0.0132 0.9999 0.0003
vn 0.0000 0.0000 1.0000
vn -0.9994 -0.0242 0.0229
vn -0.9988 -0.0242 0.0420
vn -0.9968 -0.0242 0.0762
vn -0.9944 -0.0242 0.1027
vn -0.9923 -0.0242 0.1217
vn -0.9923 -0.0242 0.1216
vn -0.9908 -0.0242 0.1331
vn -0.9902 -0.0242 0.1372
vn -0.9907 -0.0243 0.1339
vn -0.9921 -0.0244 0.1232
vn -0.9921 -0.0244 0.1233
vn -0.9942 -0.0245 0.1051
vn -0.9942 -0.0245 0.1052
vn -0.9965 -0.0245 0.0795
vn -0.9986 -0.0246 0.0462
vn -0.9986 -0.0246 0.0463
vn -0.9993 -0.0246 0.0277
vn 0.0000 0.0000 -1.0000
vn 0.9996 0.0000 -0.0284
vn 0.9989 0.0000 -0.0468
vn 0.9968 -0.0001 -0.0800
vn 0.9944 -0.0001 -0.1055
vn 0.9924 -0.0002 -0.1234
vn 0.9910 -0.0002 -0.1339
vn 0.9906 -0.0003 -0.1371
vn 0.9911 -0.0003 -0.1329
vn 0.9926 -0.0004 -0.1213
vn 0.9947 -0.0004 -0.1024
vn 0.9971 -0.0005 -0.0759
vn 0.9991 -0.0005 -0.0418
vn 0.9997 -0.0006 -0.0228
vn 0.0132 0.9999 -0.0002
vn 0.0132 0.9999 -0.0003
vn 0.0132 0.9999 -0.0005
vn 0.0132 0.9999 -0.0007
vn 0.0132 0.9999 -0.0008
vn 0.0132 0.9999 -0.0009
vn 0.9997 -0.0247 -0.0085
vn 0.9996 -0.0247 -0.0147
vn 0.9996 -0.0247 -0.0146
vn 0.9994 -0.0247 -0.0258
vn 0.9991 -0.0248 -0.0345
vn 0.9991 -0.0248 -0.0344
vn 0.9989 -0.0248 -0.0406
vn 0.9987 -0.0249 -0.0443
vn 0.9987 -0.0249 -0.0456
vn 0.9987 -0.0250 -0.0443
vn 0.9989 -0.0250 -0.0406
vn 0.9991 -0.0251 -0.0344
vn 0.9994 -0.0251 -0.0257
vn 0.9996 -0.0252 -0.0146
vn 0.9996 -0.0252 -0.0084
vn -1.0000 0.0005 0.0084
vn -0.9999 0.0005 0.0146
vn -0.9997 0.0004 0.0258
vn -0.9994 0.0004 0.0344
vn -0.9992 0.0004 0.0406
vn -0.9990 0.0003 0.0443
vn -0.9990 0.0003 0.0456
vn -0.9990 0.0002 0.0444
vn -0.9992 0.0002 0.0407
vn -0.9994 0.0001 0.0345
vn -0.9997 0.0001 0.0258
vn -0.9999 0.0000 0.0147
vn -1.0000 0.0000 0.0085
# 94 vertex normals

vt 0.7340 0.3398 0.0000
vt 1.0019 0.6699 0.0000
vt 1.0019 0.3398 0.0000
vt 0.7340 0.6699 0.0000
vt 0.7340 0.6648 0.0000
vt 1.0019 0.3347 0.0000
vt 1.0019 0.6648 0.0000
vt 0.7340 0.3347 0.0000
vt 1.0024 0.3398 0.0000
vt 0.7359 0.6699 0.0000
vt 0.7359 0.3398 0.0000
vt 1.0024 0.6699 0.0000
vt 1.0024 0.6648 0.0000
vt 0.7359 0.3347 0.0000
vt 0.7359 0.6648 0.0000
vt 1.0024 0.3347 0.0000
vt 1.0014 0.0021 0.0000
vt 0.8690 0.3322 0.0000
vt 0.8690 0.0021 0.0000
vt 1.0014 0.3322 0.0000
vt 0.7340 0.0097 0.0000
vt 1.0019 0.0097 0.0000
vt 1.0019 1.0000 0.0000
vt 0.7340 1.0000 0.0000
vt 0.7340 0.9949 0.0000
vt 1.0019 0.9949 0.0000
vt 1.0019 0.0046 0.0000
vt 0.7340 0.0046 0.0000
vt 0.8690 1.0000 0.0000
vt 0.7366 0.6699 0.0000
vt 0.7366 1.0000 0.0000
vt 0.8690 0.6699 0.0000
vt 1.0024 0.0097 0.0000
vt 0.7359 0.0097 0.0000
vt 0.7359 1.0000 0.0000
vt 1.0024 1.0000 0.0000
vt 1.0024 0.9949 0.0000
vt 0.7359 0.9949 0.0000
vt 0.7359 0.0046 0.0000
vt 1.0024 0.0046 0.0000
vt 0.7249 1.0000 0.0000
vt -0.0192 0.0003 0.0000
vt -0.0192 1.0000 0.0000
vt 0.7249 0.0003 0.0000
vt 0.0000 0.0000 0.0000
vt 0.0833 1.0000 0.0000
vt 0.0833 0.0000 0.0000
vt 0.0000 1.0000 0.0000
vt 0.1667 1.0000 0.0000
vt 0.1667 0.0000 0.0000
vt 0.2500 1.0000 0.0000
vt 0.2500 0.0000 0.0000
vt -0.0010 1.0000 0.0000
vt -0.0010 0.0000 0.0000
vt 0.0823 1.0000 0.0000
vt 0.0823 0.0000 0.0000
vt 0.1657 1.0000 0.0000
vt 0.1657 0.0000 0.0000
vt 0.2490 1.0000 0.0000
vt 0.2490 0.0000 0.0000
vt 0.3323 1.0000 0.0000
vt 0.3323 0.0000 0.0000
vt 0.4157 1.0000 0.0000
vt 0.4157 0.0000 0.0000
vt 0.4990 1.0000 0.0000
vt 0.4990 0.0000 0.0000
vt 0.5823 1.0000 0.0000
vt 0.5823 0.0000 0.0000
vt 0.6657 1.0000 0.0000
vt 0.6657 0.0000 0.0000
vt -0.0145 0.0003 0.0000
vt 0.7440 1.0000 0.0000
vt 0.7440 0.0003 0.0000
vt -0.0145 1.0000 0.0000
# 74 texture coords

g Boosted_Rail_Steel_Insert_Single_End
s 4
f 1/1/1 2/2/2 3/3/1 
f 2/2/2 1/1/1 4/4/2 
f 5/5/3 6/6/4 7/7/3 
f 6/6/4 5/5/3 8/8/4 
f 9/8/4 10/7/3 11/6/4 
f 10/7/3 9/8/4 12/5/3 
f 13/4/5 14/3/6 15/2/5 
f 14/3/6 13/4/5 16/1/6 
f 17/9/7 18/10/8 19/11/7 
f 18/10/8 17/9/7 20/12/8 
f 21/13/9 22/14/10 23/15/9 
f 22/14/10 21/13/9 24/16/10 
f 25/16/10 26/15/9 27/14/10 
f 26/15/9 25/16/10 28/13/9 
f 29/12/8 30/11/7 31/10/8 
f 30/11/7 29/12/8 32/9/7 
f 33/17/11 34/18/12 35/19/12 
f 34/18/12 33/17/11 36/20/11 
f 37/21/13 3/3/1 38/22/13 
f 3/3/1 37/21/13 1/1/1 
f 39/23/14 4/4/2 40/24/14 
f 4/4/2 39/23/14 2/2/2 
f 41/25/15 7/7/3 42/26/15 
f 7/7/3 41/25/15 5/5/3 
f 38/27/13 8/8/4 37/28/13 
f 8/8/4 38/27/13 6/6/4 
f 43/28/13 11/6/4 44/27/13 
f 11/6/4 43/28/13 9/8/4 
f 42/26/15 12/5/3 41/25/15 
f 12/5/3 42/26/15 10/7/3 
f 45/24/14 15/2/5 46/23/14 
f 15/2/5 45/24/14 13/4/5 
f 44/22/13 16/1/6 43/21/13 
f 16/1/6 44/22/13 14/3/6 
f 35/29/12 47/30/16 48/31/16 
f 47/30/16 35/29/12 34/32/12 
f 49/33/17 19/11/7 50/34/17 
f 19/11/7 49/33/17 17/9/7 
f 39/35/18 20/12/8 51/36/18 
f 20/12/8 39/35/18 18/10/8 
f 52/37/9 23/15/9 53/38/9 
f 23/15/9 52/37/9 21/13/9 
f 50/39/17 24/16/10 49/40/17 
f 24/16/10 50/39/17 22/14/10 
f 54/40/17 27/14/10 55/39/17 
f 27/14/10 54/40/17 25/16/10 
f 53/38/9 28/13/9 52/37/9 
f 28/13/9 53/38/9 26/15/9 
f 56/36/18 31/10/8 57/35/18 
f 31/10/8 56/36/18 29/12/8 
f 55/34/17 32/9/7 54/33/17 
f 32/9/7 55/34/17 30/11/7 
f 58/41/19 59/42/20 60/43/19 
f 59/42/20 58/41/19 61/44/20 
f 61/41/20 62/42/21 59/43/20 
f 62/42/21 61/41/20 63/44/22 
f 63/41/22 64/42/23 62/43/21 
f 64/42/23 63/41/22 65/44/23 
f 65/41/23 66/42/24 64/43/23 
f 66/42/24 65/41/23 67/44/24 
f 67/41/24 68/42/25 66/43/24 
f 68/42/25 67/41/24 69/44/25 
f 69/41/25 70/42/26 68/43/25 
f 70/42/26 69/41/25 71/44/26 
f 71/41/26 72/42/25 70/43/26 
f 72/42/25 71/41/26 73/44/25 
f 73/41/25 74/42/24 72/43/25 
f 74/42/24 73/41/25 75/44/24 
f 75/41/24 76/42/23 74/43/24 
f 76/42/23 75/41/24 77/44/23 
f 77/41/23 78/42/21 76/43/23 
f 78/42/21 77/41/23 79/44/21 
f 79/41/21 80/42/27 78/43/21 
f 80/42/27 79/41/21 81/44/27 
f 81/41/27 82/42/28 80/43/27 
f 82/42/28 81/41/27 83/44/19 
s 8
f 84/41/29 60/43/29 85/43/29 
f 60/43/29 84/41/29 58/41/29 
s 16
f 85/45/30 59/46/31 86/47/31 
f 59/46/31 85/45/30 60/48/30 
f 86/47/31 62/49/32 87/50/32 
f 62/49/32 86/47/31 59/46/31 
f 87/50/32 64/51/33 88/52/33 
f 64/51/33 87/50/32 62/49/32 
f 88/52/33 66/53/34 89/54/35 
f 66/53/34 88/52/33 64/51/33 
f 89/54/35 68/55/36 90/56/36 
f 68/55/36 89/54/35 66/53/34 
f 90/56/36 70/57/37 91/58/37 
f 70/57/37 90/56/36 68/55/36 
f 91/58/37 72/59/38 92/60/38 
f 72/59/38 91/58/37 70/57/37 
f 92/60/38 74/61/39 93/62/40 
f 74/61/39 92/60/38 72/59/38 
f 93/62/40 76/63/41 94/64/42 
f 76/63/41 93/62/40 74/61/39 
f 94/64/42 78/65/43 95/66/43 
f 78/65/43 94/64/42 76/63/41 
f 95/66/43 80/67/44 96/68/45 
f 80/67/44 95/66/43 78/65/43 
f 96/68/45 82/69/46 97/70/46 
f 82/69/46 96/68/45 80/67/44 
s 32
f 97/42/47 83/44/47 98/44/47 
f 83/44/47 97/42/47 82/42/47 
s 64
f 98/45/48 81/46/49 99/47/49 
f 81/46/49 98/45/48 83/48/48 
f 99/47/49 79/49/50 100/50/50 
f 79/49/50 99/47/49 81/46/49 
f 100/50/50 77/51/51 101/52/51 
f 77/51/51 100/50/50 79/49/50 
f 101/52/51 75/53/52 102/54/52 
f 75/53/52 101/52/51 77/51/51 
f 102/54/52 73/55/53 103/56/53 
f 73/55/53 102/54/52 75/53/52 
f 103/56/53 71/57/54 104/58/54 
f 71/57/54 103/56/53 73/55/53 
f 104/58/54 69/59/55 105/60/55 
f 69/59/55 104/58/54 71/57/54 
f 105/60/55 67/61/56 106/62/56 
f 67/61/56 105/60/55 69/59/55 
f 106/62/56 65/63/57 107/64/57 
f 65/63/57 106/62/56 67/61/56 
f 107/64/57 63/65/58 108/66/58 
f 63/65/58 107/64/57 65/63/57 
f 108/66/58 61/67/59 109/68/59 
f 61/67/59 108/66/58 63/65/58 
f 109/68/59 58/69/60 84/70/60 
f 58/69/60 109/68/59 61/67/59 
s 4
f 110/71/61 111/72/62 112/73/61 
f 111/72/62 110/71/61 113/74/62 
f 113/71/62 114/72/63 111/73/62 
f 114/72/63 113/71/62 115/74/63 
f 115/71/63 116/72/64 114/73/63 
f 116/72/64 115/71/63 117/74/64 
f 117/71/64 118/72/65 116/73/64 
f 118/72/65 117/71/64 119/74/65 
f 119/71/65 120/72/65 118/73/65 
f 120/72/65 119/71/65 121/74/65 
f 121/71/65 122/72/66 120/73/65 
f 122/72/66 121/71/65 123/74/66 
f 123/71/66 124/72/65 122/73/66 
f 124/72/65 123/71/66 125/74/65 
f 125/71/65 126/72/65 124/73/65 
f 126/72/65 125/71/65 127/74/65 
f 127/71/65 128/72/64 126/73/65 
f 128/72/64 127/71/65 129/74/64 
f 129/71/64 130/72/63 128/73/64 
f 130/72/63 129/71/64 131/74/63 
f 131/71/63 132/72/62 130/73/63 
f 132/72/62 131/71/63 133/74/62 
f 133/71/62 134/72/61 132/73/62 
f 134/72/61 133/71/62 135/74/61 
s 8
f 136/71/47 112/73/47 137/73/47 
f 112/73/47 136/71/47 110/71/47 
s 16
f 137/45/67 111/46/68 138/47/69 
f 111/46/68 137/45/67 112/48/67 
f 138/47/69 114/49/70 139/50/70 
f 114/49/70 138/47/69 111/46/68 
f 139/50/70 116/51/71 140/52/72 
f 116/51/71 139/50/70 114/49/70 
f 140/52/72 118/53/73 141/54/73 
f 118/53/73 140/52/72 116/51/71 
f 141/54/73 120/55/74 142/56/74 
f 120/55/74 141/54/73 118/53/73 
f 142/56/74 122/57/75 143/58/75 
f 122/57/75 142/56/74 120/55/74 
f 143/58/75 124/59/76 144/60/76 
f 124/59/76 143/58/75 122/57/75 
f 144/60/76 126/61/77 145/62/77 
f 126/61/77 144/60/76 124/59/76 
f 145/62/77 128/63/78 146/64/78 
f 128/63/78 145/62/77 126/61/77 
f 146/64/78 130/65/79 147/66/79 
f 130/65/79 146/64/78 128/63/78 
f 147/66/79 132/67/80 148/68/80 
f 132/67/80 147/66/79 130/65/79 
f 148/68/80 134/69/81 149/70/81 
f 134/69/81 148/68/80 132/67/80 
s 32
f 149/72/29 135/74/29 85/74/29 
f 135/74/29 149/72/29 134/72/29 
s 64
f 85/45/82 133/46/83 150/47/83 
f 133/46/83 85/45/82 135/48/82 
f 150/47/83 131/49/84 151/50/84 
f 131/49/84 150/47/83 133/46/83 
f 151/50/84 129/51/85 152/52/85 
f 129/51/85 151/50/84 131/49/84 
f 152/52/85 127/53/86 153/54/86 
f 127/53/86 152/52/85 129/51/85 
f 153/54/86 125/55/87 154/56/87 
f 125/55/87 153/54/86 127/53/86 
f 154/56/87 123/57/88 155/58/88 
f 123/57/88 154/56/87 125/55/87 
f 155/58/88 121/59/89 156/60/89 
f 121/59/89 155/58/88 123/57/88 
f 156/60/89 119/61/90 157/62/90 
f 119/61/90 156/60/89 121/59/89 
f 157/62/90 117/63/91 158/64/91 
f 117/63/91 157/62/90 119/61/90 
f 158/64/91 115/65/92 159/66/92 
f 115/65/92 158/64/91 117/63/91 
f 159/66/92 113/67/93 160/68/93 
f 113/67/93 159/66/92 115/65/92 
f 160/68/93 110/69/94 136/70/94 
f 110/69/94 160/68/93 113/67/93 
# 0 polygons - 204 triangles

