# 3ds Max Wavefront OBJ Exporter v0.97b - (c)2007 guruware
# File Created: 25.09.2017 08:03:27

#
# object Bridge_Node_Pavement_Steel_LOD
#

v  -9.0001 0.0000 0.0011
v  -7.5000 0.0000 0.0011
v  -7.5000 0.0000 -15.9989
v  -9.0001 0.0000 -15.9989
v  -9.0001 0.0500 32.0011
v  -7.5000 0.0500 32.0011
v  9.0001 0.0000 -31.9989
v  7.5000 0.0000 -31.9989
v  7.5000 0.0000 -15.9989
v  9.0001 0.0000 -15.9989
v  -8.9999 -2.2500 0.0011
v  -7.5000 -2.2500 0.0011
v  -7.5000 -2.2000 32.0011
v  -8.9999 -2.2000 32.0011
v  -8.9999 -2.2500 -15.9989
v  -7.5000 -2.2500 -15.9989
v  -8.9999 -2.2500 -31.9989
v  -7.5000 -2.2500 -31.9989
v  9.0001 -2.2000 32.0011
v  9.0001 -2.2500 0.0011
v  9.0001 0.0000 0.0011
v  9.0001 0.0500 32.0011
v  9.0001 -2.2500 -15.9989
v  9.0001 -2.2500 -31.9989
v  -8.9999 0.0000 -15.9989
v  -8.9999 0.0000 -31.9989
v  -8.9999 0.0000 0.0011
v  -8.9999 0.0500 32.0011
v  -7.5000 6.0002 -15.9968
v  -7.5000 6.0002 -31.9968
v  -9.0002 6.0002 -31.9968
v  -9.0002 6.0002 -15.9968
v  8.9998 6.0002 -31.9968
v  8.9998 6.0002 -15.9968
v  7.5000 0.0000 0.0011
v  -0.0001 0.0000 -15.9989
v  -0.0001 0.0000 0.0011
v  7.5000 0.0500 32.0011
v  -0.0001 0.0500 32.0011
v  -7.5000 0.0000 -31.9989
v  -0.0001 0.0000 -31.9989
v  7.5000 -2.2500 0.0011
v  7.5000 -2.2000 32.0011
v  -0.0001 -2.2000 32.0011
v  -0.0001 -2.2500 0.0011
v  7.5000 -2.2500 -15.9989
v  -0.0001 -2.2500 -15.9989
v  7.5000 -2.2500 -31.9989
v  -0.0001 -2.2500 -31.9989
v  7.5000 6.0002 -15.9968
v  7.5000 6.0002 -31.9968
v  -0.0001 6.0002 -31.9968
v  -0.0001 6.0002 -15.9968
v  -9.0001 0.0000 -31.9989
# 54 vertices

vn 0.0000 1.0000 -0.0008
vn 0.0000 1.0000 -0.0000
vn 0.0000 1.0000 -0.0016
vn 0.0000 -1.0000 0.0008
vn -0.0000 -1.0000 0.0008
vn -0.0000 -1.0000 0.0016
vn 0.0000 -1.0000 0.0016
vn 0.0000 -1.0000 -0.0000
vn 1.0000 0.0000 -0.0000
vn -1.0000 0.0000 -0.0000
vn -1.0000 -0.0000 -0.0000
vn 1.0000 0.0001 -0.0000
vn -1.0000 -0.0001 -0.0000
vn -0.0000 1.0000 -0.0008
# 14 vertex normals

vt -0.1567 0.0000 0.0000
vt -0.0511 0.0000 0.0000
vt -0.0511 1.0000 0.0000
vt -0.1567 1.0000 0.0000
vt 0.5472 1.0000 0.0000
vt 0.4416 1.0000 0.0000
vt 0.4416 0.0000 0.0000
vt 0.5472 0.0000 0.0000
vt 1.1611 0.1362 0.0000
vt 1.1573 0.1362 0.0000
vt 1.1573 -0.2244 0.0000
vt 1.1611 -0.2244 0.0000
vt 1.1611 0.8606 0.0000
vt 1.1573 0.8606 0.0000
vt 1.1573 0.4984 0.0000
vt 1.1611 0.4984 0.0000
vt 1.1611 1.2228 0.0000
vt 1.1573 1.2228 0.0000
vt 1.1357 1.2228 0.0000
vt 1.1357 0.8606 0.0000
vt 1.1357 0.4984 0.0000
vt 1.1357 0.1362 0.0000
vt 1.1357 -0.2244 0.0000
vt 1.1356 1.2228 0.0000
vt 1.1356 0.8606 0.0000
vt 1.1356 0.4984 0.0000
vt 1.1356 0.1362 0.0000
vt 1.1356 -0.2244 0.0000
vt 0.8750 0.4969 0.0000
vt 0.8750 0.1357 0.0000
vt 0.8286 0.1357 0.0000
vt 0.8286 0.4969 0.0000
vt 0.6121 0.6566 0.0000
vt 0.6121 0.8368 0.0000
vt 0.8666 0.8368 0.0000
vt 0.8666 0.6566 0.0000
vt 0.1952 1.0000 0.0000
vt 0.1952 0.0000 0.0000
vt 1.1395 0.1362 0.0000
vt 1.1395 -0.2244 0.0000
vt 1.1484 -0.2244 0.0000
vt 1.1484 0.1362 0.0000
vt 1.1395 0.8606 0.0000
vt 1.1395 0.4984 0.0000
vt 1.1484 0.4984 0.0000
vt 1.1484 0.8606 0.0000
vt 1.1395 1.2228 0.0000
vt 1.1484 1.2228 0.0000
vt 1.0914 0.4969 0.0000
vt 1.0914 0.1357 0.0000
vt 0.9832 0.1357 0.0000
vt 0.9832 0.4969 0.0000
vt 1.1377 0.4969 0.0000
vt 1.1377 0.1357 0.0000
# 54 texture coords

g Bridge_Node_Pavement_Steel_LOD
s 1
f 1/1/1 2/2/1 3/3/2 
f 3/3/2 4/4/2 1/1/1 
f 5/1/3 6/2/3 2/3/1 
f 2/3/1 1/4/1 5/1/3 
f 7/5/2 8/6/2 9/7/2 
f 9/7/2 10/8/2 7/5/2 
s 2
f 11/9/4 12/10/5 13/11/6 
f 13/11/6 14/12/7 11/9/4 
f 15/13/8 16/14/8 12/15/5 
f 12/15/5 11/16/4 15/13/8 
f 17/17/8 18/18/8 16/14/8 
f 16/14/8 15/13/8 17/17/8 
s 16
f 19/19/9 20/20/9 21/13/9 
f 21/13/9 22/17/9 19/19/9 
f 20/21/9 23/22/9 10/9/9 
f 10/9/9 21/16/9 20/21/9 
f 23/22/9 24/23/9 7/12/9 
f 7/12/9 10/9/9 23/22/9 
s 64
f 17/24/10 15/25/10 25/13/11 
f 25/13/11 26/17/11 17/24/10 
f 15/25/10 11/26/10 27/16/10 
f 27/16/10 25/13/11 15/25/10 
f 11/27/10 14/28/10 28/12/10 
f 28/12/10 27/9/10 11/27/10 
s 4
f 29/29/2 30/30/2 31/31/2 
f 31/31/2 32/32/2 29/29/2 
s 16
f 10/33/12 7/34/12 33/35/12 
f 33/35/9 34/36/9 10/33/11 
s 64
f 26/33/11 25/34/11 32/35/13 
f 32/35/13 31/36/13 26/33/11 
s 16
f 10/33/11 34/36/9 33/35/9 
f 33/35/13 7/34/13 10/33/13 
s 64
f 26/33/12 31/36/12 32/35/12 
f 32/35/12 25/34/12 26/33/12 
s 1
f 35/7/14 9/6/2 36/37/2 
f 36/37/2 37/38/1 35/7/14 
f 38/7/3 35/6/14 37/37/1 
f 37/37/1 39/38/3 38/7/3 
f 40/3/2 3/2/2 36/38/2 
f 36/38/2 41/37/2 40/3/2 
s 2
f 42/39/4 43/40/7 44/41/7 
f 44/41/7 45/42/4 42/39/4 
f 46/43/8 42/44/4 45/45/4 
f 45/45/4 47/46/8 46/43/8 
f 48/47/8 46/43/8 47/46/8 
f 47/46/8 49/48/8 48/47/8 
s 4
f 50/49/2 51/50/2 52/51/2 
f 52/51/2 53/52/2 50/49/2 
s 1
f 41/37/2 36/38/2 9/7/2 
f 9/7/2 8/6/2 41/37/2 
f 21/8/1 10/5/2 9/6/2 
f 9/6/2 35/7/14 21/8/1 
f 22/8/3 21/5/1 35/6/14 
f 35/6/14 38/7/3 22/8/3 
s 2
f 20/27/4 19/28/7 43/40/7 
f 43/40/7 42/39/4 20/27/4 
f 23/25/8 20/26/4 42/44/4 
f 42/44/4 46/43/8 23/25/8 
f 24/24/8 23/25/8 46/43/8 
f 46/43/8 48/47/8 24/24/8 
s 4
f 34/53/2 33/54/2 51/50/2 
f 51/50/2 50/49/2 34/53/2 
s 1
f 37/38/1 36/37/2 3/3/2 
f 3/3/2 2/2/1 37/38/1 
f 39/38/3 37/37/1 2/3/1 
f 2/3/1 6/2/3 39/38/3 
s 2
f 45/42/4 44/41/7 13/11/6 
f 13/11/6 12/10/5 45/42/4 
f 47/46/8 45/45/4 12/15/5 
f 12/15/5 16/14/8 47/46/8 
f 49/48/8 47/46/8 16/14/8 
f 16/14/8 18/18/8 49/48/8 
s 4
f 53/52/2 52/51/2 30/30/2 
f 30/30/2 29/29/2 53/52/2 
s 1
f 54/4/2 4/1/2 3/2/2 
f 3/2/2 40/3/2 54/4/2 
# 0 polygons - 76 triangles

