# 3ds Max Wavefront OBJ Exporter v0.97b - (c)2007 guruware
# File Created: 25.09.2017 08:03:26

#
# object Bridge_Pavement_Steel_LOD
#

v  -9.0001 0.0000 0.0011
v  9.0001 0.0000 0.0011
v  9.0001 0.0000 -15.9989
v  -9.0001 0.0000 -15.9989
v  -9.0001 0.0000 32.0011
v  9.0001 0.0000 32.0011
v  9.0001 0.0000 16.0011
v  -9.0001 0.0000 16.0011
v  9.0001 0.0000 -31.9989
v  -9.0001 0.0000 -31.9989
v  -8.9999 -2.2500 32.0011
v  -8.9999 -2.2500 16.0011
v  9.0001 -2.2500 16.0011
v  9.0001 -2.2500 32.0011
v  -8.9999 -2.2500 0.0011
v  9.0001 -2.2500 0.0011
v  -8.9999 -2.2500 -15.9989
v  9.0001 -2.2500 -15.9989
v  -8.9999 -2.2500 -31.9989
v  9.0001 -2.2500 -31.9989
v  -8.9999 0.0000 -15.9989
v  -8.9999 0.0000 -31.9989
v  -8.9999 0.0000 0.0011
v  -8.9999 0.0000 16.0011
v  -8.9999 0.0000 32.0011
v  -9.0002 6.0002 32.0032
v  8.9998 6.0002 32.0032
v  8.9998 6.0002 16.0032
v  -9.0002 6.0002 16.0032
v  8.9998 6.0002 0.0032
v  -9.0002 6.0002 0.0032
v  8.9998 6.0002 -15.9968
v  -9.0002 6.0002 -15.9968
v  8.9998 6.0002 -31.9968
v  -9.0002 6.0002 -31.9968
# 35 vertices

vn 0.0000 1.0000 -0.0000
vn 0.0000 -1.0000 -0.0000
vn 1.0000 0.0000 -0.0000
vn -1.0000 0.0000 -0.0000
vn -1.0000 -0.0000 -0.0000
vn 1.0000 0.0001 -0.0000
vn -1.0000 -0.0001 -0.0000
# 7 vertex normals

vt -0.1567 0.0000 0.0000
vt 0.5472 0.0000 0.0000
vt 0.5472 1.0000 0.0000
vt -0.1567 1.0000 0.0000
vt 1.1611 -0.2244 0.0000
vt 1.1611 0.1362 0.0000
vt 1.1356 0.1362 0.0000
vt 1.1356 -0.2244 0.0000
vt 1.1611 0.4984 0.0000
vt 1.1356 0.4984 0.0000
vt 1.1611 0.8606 0.0000
vt 1.1356 0.8606 0.0000
vt 1.1611 1.2228 0.0000
vt 1.1356 1.2228 0.0000
vt 1.1357 1.2228 0.0000
vt 1.1357 0.8606 0.0000
vt 1.1357 0.4984 0.0000
vt 1.1357 0.1362 0.0000
vt 1.1357 -0.2244 0.0000
vt 0.8286 0.1357 0.0000
vt 1.1377 0.1357 0.0000
vt 1.1377 -0.2254 0.0000
vt 0.8286 -0.2254 0.0000
vt 0.8286 1.2192 0.0000
vt 1.1377 1.2192 0.0000
vt 1.1377 0.8581 0.0000
vt 0.8286 0.8581 0.0000
vt 1.1377 0.4969 0.0000
vt 0.8286 0.4969 0.0000
vt 0.6121 0.4990 0.0000
vt 0.6121 1.2234 0.0000
vt 0.8666 1.2234 0.0000
vt 0.8666 0.4990 0.0000
vt 0.6121 -0.2254 0.0000
vt 0.8666 -0.2254 0.0000
# 35 texture coords

g Bridge_Pavement_Steel_LOD
s 1
f 1/1/1 2/2/1 3/3/1 
f 3/3/1 4/4/1 1/1/1 
f 5/1/1 6/2/1 7/3/1 
f 7/3/1 8/4/1 5/1/1 
f 8/1/1 7/2/1 2/3/1 
f 2/3/1 1/4/1 8/1/1 
f 9/3/1 10/4/1 4/1/1 
f 4/1/1 3/2/1 9/3/1 
s 2
f 11/5/2 12/6/2 13/7/2 
f 13/7/2 14/8/2 11/5/2 
f 12/6/2 15/9/2 16/10/2 
f 16/10/2 13/7/2 12/6/2 
f 15/9/2 17/11/2 18/12/2 
f 18/12/2 16/10/2 15/9/2 
f 17/11/2 19/13/2 20/14/2 
f 20/14/2 18/12/2 17/11/2 
s 16
f 14/15/3 13/16/3 7/11/3 
f 7/11/3 6/13/3 14/15/3 
f 13/16/3 16/17/3 2/9/3 
f 2/9/3 7/11/3 13/16/3 
f 16/17/3 18/18/3 3/6/3 
f 3/6/3 2/9/3 16/17/3 
f 18/18/3 20/19/3 9/5/3 
f 9/5/3 3/6/3 18/18/3 
s 64
f 19/14/4 17/12/4 21/11/5 
f 21/11/5 22/13/5 19/14/4 
f 17/12/4 15/10/4 23/9/5 
f 23/9/5 21/11/5 17/12/4 
f 15/10/4 12/7/4 24/6/5 
f 24/6/5 23/9/5 15/10/4 
f 12/7/4 11/8/4 25/5/5 
f 25/5/5 24/6/5 12/7/4 
s 4
f 26/20/1 27/21/1 28/22/1 
f 28/22/1 29/23/1 26/20/1 
f 29/24/1 28/25/1 30/26/1 
f 30/26/1 31/27/1 29/24/1 
f 31/27/1 30/26/1 32/28/1 
f 32/28/1 33/29/1 31/27/1 
f 33/29/1 32/28/1 34/21/1 
f 34/21/1 35/20/1 33/29/1 
s 16
f 6/30/6 7/31/6 28/32/6 
f 28/32/6 27/33/6 6/30/6 
f 7/31/6 2/30/6 30/33/6 
f 30/33/6 28/32/6 7/31/6 
f 2/30/6 3/34/6 32/35/6 
f 32/35/6 30/33/6 2/30/6 
f 3/34/6 9/30/6 34/33/6 
f 34/33/6 32/35/6 3/34/6 
s 64
f 22/30/5 21/31/5 33/32/7 
f 33/32/7 35/33/7 22/30/5 
f 21/31/5 23/30/5 31/33/7 
f 31/33/7 33/32/7 21/31/5 
f 23/30/5 24/31/5 29/32/7 
f 29/32/7 31/33/7 23/30/5 
f 24/31/5 25/30/5 26/33/7 
f 26/33/7 29/32/7 24/31/5 
s 16
f 6/30/7 27/33/7 28/32/7 
f 28/32/7 7/31/7 6/30/7 
f 7/31/7 28/32/7 30/33/7 
f 30/33/7 2/30/7 7/31/7 
f 2/30/7 30/33/7 32/35/7 
f 32/35/7 3/34/7 2/30/7 
f 3/34/7 32/35/7 34/33/7 
f 34/33/7 9/30/7 3/34/7 
s 64
f 22/30/6 35/33/6 33/32/6 
f 33/32/6 21/31/6 22/30/6 
f 21/31/6 33/32/6 31/33/6 
f 31/33/6 23/30/6 21/31/6 
f 23/30/6 31/33/6 29/32/6 
f 29/32/6 24/31/6 23/30/6 
f 24/31/6 29/32/6 26/33/6 
f 26/33/6 25/30/6 24/31/6 
# 0 polygons - 72 triangles

