# 3ds Max Wavefront OBJ Exporter v0.97b - (c)2007 guruware
# File Created: 25.09.2017 08:03:27

#
# object Bridge_Node_Pavement_LOD
#

v  -9.0000 0.0500 32.0005
v  -7.5000 0.0500 32.0005
v  -7.5000 0.0000 0.0005
v  -9.0000 0.0000 0.0005
v  9.0000 0.0500 32.0005
v  8.7500 -1.1000 32.0005
v  8.7500 -1.1500 0.0005
v  9.0000 0.0000 0.0005
v  -9.0000 0.0000 -31.9995
v  -8.7500 -1.1500 -31.9995
v  -8.7500 -1.1500 0.0005
v  8.5000 0.0500 32.0005
v  8.5000 0.0000 0.0005
v  9.1500 1.3500 32.0005
v  9.1500 1.3000 0.0005
v  8.3750 1.3000 0.0005
v  8.3750 1.3500 32.0005
v  9.0000 0.0000 -31.9995
v  9.1500 1.3000 -31.9995
v  -8.5000 0.0000 0.0005
v  -8.5000 0.0500 32.0005
v  -8.3750 1.3500 32.0005
v  -8.3750 1.3000 0.0005
v  -9.1500 1.3000 0.0005
v  -9.1500 1.3500 32.0005
v  -9.1500 1.3000 -31.9995
v  -7.5000 0.0000 -31.9995
v  8.7500 -1.1500 -31.9995
v  -8.7500 -1.1000 32.0005
v  8.5000 0.0000 -31.9995
v  8.3750 1.3000 -31.9995
v  -8.5000 0.0000 -31.9995
v  -8.3750 1.3000 -31.9995
v  -8.7500 -65.1500 -31.9995
v  -8.7500 -65.1500 0.0005
v  -8.7500 -65.1000 32.0005
v  8.7500 -65.1000 32.0005
v  8.7500 -65.1500 0.0005
v  8.7500 -65.1500 -31.9995
v  0.0000 0.0500 32.0005
v  7.5000 0.0500 32.0005
v  7.5000 0.0000 0.0005
v  0.0000 0.0000 0.0005
v  7.5000 0.0000 -31.9995
v  0.0000 0.0000 -31.9995
# 45 vertices

vn 0.0000 1.0000 -0.0016
vn 0.0000 1.0000 -0.0010
vn 0.9772 -0.2124 0.0003
vn 0.9772 -0.2124 0.0002
vn -0.9865 -0.1637 -0.0000
vn -0.9772 -0.2124 -0.0000
vn -0.9772 -0.2124 0.0002
vn -0.9837 -0.1798 0.0001
vn 0.0000 -1.0000 0.0016
vn 0.0000 -1.0000 0.0015
vn 0.0000 1.0000 -0.0008
vn -0.9954 -0.0957 0.0001
vn 0.9934 -0.1146 -0.0000
vn 0.9934 -0.1146 0.0001
vn 0.0000 -1.0000 0.0008
vn 0.9954 -0.0957 0.0001
vn -0.9934 -0.1146 -0.0000
vn -0.9934 -0.1146 0.0000
vn 0.0000 1.0000 -0.0000
vn 0.9772 -0.2124 -0.0000
vn -0.9772 -0.2124 0.0003
vn 0.0000 -1.0000 -0.0000
vn -0.9954 -0.0957 -0.0000
vn 0.9934 -0.1146 0.0002
vn 0.9954 -0.0957 -0.0000
vn -0.9934 -0.1146 0.0002
vn -1.0000 0.0000 -0.0000
vn 0.0000 0.0000 1.0000
vn 1.0000 0.0000 -0.0000
vn 0.0000 0.0000 -1.0000
# 30 vertex normals

vt 0.0000 0.0000 0.0000
vt 0.0210 0.0000 0.0000
vt 0.0210 0.5000 0.0000
vt 0.0000 0.5000 0.0000
vt 0.2123 0.0000 0.0000
vt 0.3158 -0.0000 0.0000
vt 0.3158 0.5000 0.0000
vt 0.2123 0.5000 0.0000
vt 1.0000 0.5000 0.0000
vt 1.0000 0.0000 0.0000
vt 0.7728 0.0000 0.0000
vt 0.7728 0.5000 0.0000
vt 0.8187 0.5000 0.0000
vt 0.8187 0.0000 0.0000
vt 0.7000 1.0000 0.0000
vt 0.7562 1.0000 0.0000
vt 0.7562 0.5000 0.0000
vt 0.7000 0.5000 0.0000
vt 0.0210 1.0000 0.0000
vt 0.0000 1.0000 0.0000
vt 0.3158 1.0000 0.0000
vt 0.2123 1.0000 0.0000
vt 1.0000 1.0000 0.0000
vt 0.7728 1.0000 0.0000
vt 0.8187 1.0000 0.0000
vt 0.7562 0.0000 0.0000
vt 0.7000 0.0000 0.0000
vt 0.0700 0.0000 0.0000
vt 0.1190 0.0000 0.0000
vt 0.1190 0.5000 0.0000
vt 0.0700 0.5000 0.0000
vt 0.1190 1.0000 0.0000
vt 0.0700 1.0000 0.0000
vt 0.1400 0.0000 0.0000
vt 0.1400 0.5000 0.0000
vt 0.1400 1.0000 0.0000
# 36 texture coords

g Bridge_Node_Pavement_LOD
s 4
f 1/1/1 2/2/1 3/3/2 
f 3/3/2 4/4/1 1/1/1 
s 16
f 5/5/3 6/6/3 7/7/4 
f 7/7/4 8/8/4 5/5/3 
s 64
f 9/5/5 10/6/6 11/7/7 
f 11/7/7 4/8/8 9/5/5 
s 2
f 12/1/9 13/4/10 8/9/9 
f 8/9/9 5/10/9 12/1/9 
s 4
f 14/11/1 15/12/11 16/13/11 
f 16/13/11 17/14/1 14/11/1 
s 16
f 12/15/12 17/16/12 16/17/12 
f 16/17/12 13/18/12 12/15/12 
s 64
f 18/6/13 19/5/13 15/8/14 
f 15/8/14 8/7/14 18/6/13 
s 2
f 1/10/9 4/9/15 20/4/15 
f 20/4/15 21/1/9 1/10/9 
s 4
f 22/14/1 23/13/11 24/12/11 
f 24/12/11 25/11/1 22/14/1 
s 16
f 22/16/16 21/15/16 20/18/16 
f 20/18/16 23/17/16 22/16/16 
s 64
f 26/5/17 9/6/5 4/7/8 
f 4/7/8 24/8/18 26/5/17 
s 4
f 3/3/2 27/19/19 9/20/19 
f 9/20/19 4/4/19 3/3/19 
s 16
f 28/21/20 18/22/20 8/8/4 
f 8/8/4 7/7/4 28/21/20 
s 64
f 29/21/21 1/22/21 4/8/21 
f 4/8/8 11/7/7 29/21/21 
s 2
f 13/4/10 30/20/22 18/23/22 
f 18/23/22 8/9/22 13/4/22 
s 4
f 15/12/11 19/24/19 31/25/19 
f 31/25/19 16/13/11 15/12/11 
s 16
f 31/26/23 30/27/23 13/18/12 
f 13/18/12 16/17/12 31/26/23 
s 64
f 14/22/24 5/21/24 8/7/14 
f 8/7/14 15/8/14 14/22/24 
s 2
f 4/9/22 9/23/22 32/20/22 
f 32/20/22 20/4/15 4/9/15 
s 4
f 23/13/11 33/25/19 26/24/19 
f 26/24/19 24/12/11 23/13/11 
s 16
f 32/27/25 33/26/25 23/17/16 
f 23/17/16 20/18/16 32/27/25 
s 64
f 1/21/26 25/22/26 24/8/18 
f 24/8/26 4/7/26 1/21/26 
s off
f 34/23/27 35/9/27 11/9/27 
f 11/9/27 10/23/27 34/23/27 
f 35/9/27 36/10/27 29/10/27 
f 29/10/27 11/9/27 35/9/27 
f 37/1/28 6/1/28 29/10/28 
f 29/10/28 36/10/28 37/1/28 
f 37/1/29 38/4/29 7/4/29 
f 7/4/29 6/1/29 37/1/29 
f 38/4/29 39/20/29 28/20/29 
f 28/20/29 7/4/29 38/4/29 
f 34/23/30 10/23/30 28/20/30 
f 28/20/30 39/20/30 34/23/30 
s 4
f 40/28/1 41/29/1 42/30/2 
f 42/30/2 43/31/11 40/28/1 
f 43/31/11 42/30/2 44/32/19 
f 44/32/19 45/33/19 43/31/11 
f 41/29/1 5/34/1 8/35/1 
f 8/35/1 42/30/2 41/29/1 
f 42/30/19 8/35/19 18/36/19 
f 18/36/19 44/32/19 42/30/2 
f 2/2/1 40/28/1 43/31/11 
f 43/31/11 3/3/2 2/2/1 
f 3/3/2 43/31/11 45/33/19 
f 45/33/19 27/19/19 3/3/2 
# 0 polygons - 68 triangles

