# 3ds Max Wavefront OBJ Exporter v0.97b - (c)2007 guruware
# File Created: 25.09.2017 08:03:28

#
# object Bridge_Node_Fence_Steel
#

v  8.8061 1.2980 32.0003
v  8.8569 1.2686 32.0002
v  8.8183 1.2686 26.6668
v  8.7675 1.2980 26.6669
v  8.8061 1.2393 32.0003
v  8.7675 1.2393 26.6669
v  8.7798 1.2686 21.3335
v  8.7290 1.2980 21.3336
v  8.7290 1.2393 21.3336
v  8.7412 1.2686 16.0002
v  8.6904 1.2980 16.0003
v  8.6904 1.2393 16.0003
v  8.7027 1.2686 10.6668
v  8.6520 1.2980 10.6669
v  8.6520 1.2393 10.6669
v  8.6641 1.2686 5.3335
v  8.6133 1.2980 5.3336
v  8.6133 1.2393 5.3336
v  8.6256 1.2686 0.0002
v  8.5749 1.2980 0.0003
v  8.5749 1.2393 0.0003
v  8.5870 1.2686 -5.3332
v  8.5362 1.2980 -5.3331
v  8.5362 1.2393 -5.3331
v  8.5485 1.2686 -10.6664
v  8.4978 1.2980 -10.6663
v  8.4978 1.2393 -10.6663
v  8.5099 1.2686 -15.9997
v  8.4591 1.2980 -15.9996
v  8.4591 1.2393 -15.9996
v  8.4714 1.2686 -21.3331
v  8.4207 1.2980 -21.3330
v  8.4207 1.2393 -21.3330
v  8.4328 1.2686 -26.6664
v  8.3821 1.2980 -26.6663
v  8.3821 1.2393 -26.6663
v  8.3943 1.2686 -31.9997
v  8.3436 1.2980 -31.9996
v  8.3436 1.2393 -31.9996
v  8.8044 0.6919 32.0003
v  8.8550 0.6627 32.0002
v  8.8167 0.6627 26.6668
v  8.7661 0.6919 26.6669
v  8.8044 0.6334 32.0003
v  8.7661 0.6334 26.6669
v  8.7785 0.6627 21.3335
v  8.7279 0.6919 21.3336
v  8.7279 0.6334 21.3336
v  8.7402 0.6627 16.0002
v  8.6896 0.6919 16.0003
v  8.6896 0.6334 16.0003
v  8.7020 0.6627 10.6668
v  8.6514 0.6919 10.6669
v  8.6514 0.6334 10.6669
v  8.6637 0.6627 5.3335
v  8.6131 0.6919 5.3336
v  8.6131 0.6334 5.3336
v  8.6255 0.6627 0.0002
v  8.5749 0.6919 0.0003
v  8.5749 0.6334 0.0003
v  8.5872 0.6627 -5.3332
v  8.5366 0.6919 -5.3331
v  8.5366 0.6334 -5.3331
v  8.5490 0.6627 -10.6665
v  8.4984 0.6919 -10.6663
v  8.4984 0.6334 -10.6663
v  8.5107 0.6627 -15.9997
v  8.4601 0.6919 -15.9996
v  8.4601 0.6334 -15.9996
v  8.4725 0.6627 -21.3331
v  8.4219 0.6919 -21.3330
v  8.4219 0.6334 -21.3330
v  8.4342 0.6627 -26.6664
v  8.3836 0.6919 -26.6663
v  8.3836 0.6334 -26.6663
v  8.3960 0.6627 -31.9997
v  8.3454 0.6919 -31.9996
v  8.3454 0.6334 -31.9996
v  -8.3573 1.2980 -31.9997
v  -8.4079 1.2688 -31.9998
v  -8.4441 1.2688 -26.6665
v  -8.3935 1.2980 -26.6664
v  -8.3573 1.2396 -31.9997
v  -8.3935 1.2396 -26.6664
v  -8.4804 1.2688 -21.3331
v  -8.4298 1.2980 -21.3330
v  -8.4298 1.2396 -21.3330
v  -8.5166 1.2688 -15.9998
v  -8.4660 1.2980 -15.9997
v  -8.4660 1.2396 -15.9997
v  -8.5529 1.2688 -10.6665
v  -8.5023 1.2980 -10.6664
v  -8.5023 1.2396 -10.6664
v  -8.5891 1.2688 -5.3331
v  -8.5385 1.2980 -5.3330
v  -8.5385 1.2396 -5.3330
v  -8.6254 1.2688 0.0002
v  -8.5748 1.2980 0.0003
v  -8.5748 1.2396 0.0003
v  -8.6616 1.2688 5.3335
v  -8.6110 1.2980 5.3336
v  -8.6110 1.2396 5.3336
v  -8.6979 1.2688 10.6669
v  -8.6473 1.2980 10.6670
v  -8.6473 1.2396 10.6670
v  -8.7341 1.2688 16.0002
v  -8.6835 1.2980 16.0003
v  -8.6835 1.2396 16.0003
v  -8.7704 1.2688 21.3336
v  -8.7198 1.2980 21.3338
v  -8.7198 1.2396 21.3338
v  -8.8066 1.2688 26.6669
v  -8.7560 1.2980 26.6671
v  -8.7560 1.2396 26.6671
v  -8.8429 1.2688 32.0002
v  -8.7923 1.2980 32.0004
v  -8.7923 1.2396 32.0004
v  -8.3448 0.6919 -31.9996
v  -8.3955 0.6625 -31.9997
v  -8.4337 0.6625 -26.6664
v  -8.3830 0.6919 -26.6663
v  -8.3448 0.6332 -31.9996
v  -8.3830 0.6332 -26.6663
v  -8.4721 0.6625 -21.3330
v  -8.4214 0.6919 -21.3329
v  -8.4214 0.6332 -21.3329
v  -8.5104 0.6625 -15.9998
v  -8.4597 0.6919 -15.9996
v  -8.4597 0.6332 -15.9996
v  -8.5488 0.6625 -10.6665
v  -8.4981 0.6919 -10.6663
v  -8.4981 0.6332 -10.6663
v  -8.5871 0.6625 -5.3331
v  -8.5364 0.6919 -5.3330
v  -8.5364 0.6332 -5.3330
v  -8.6255 0.6625 0.0002
v  -8.5748 0.6919 0.0003
v  -8.5748 0.6332 0.0003
v  -8.6637 0.6625 5.3335
v  -8.6130 0.6919 5.3336
v  -8.6130 0.6332 5.3336
v  -8.7021 0.6625 10.6669
v  -8.6514 0.6919 10.6670
v  -8.6514 0.6332 10.6670
v  -8.7404 0.6625 16.0002
v  -8.6897 0.6919 16.0003
v  -8.6897 0.6332 16.0003
v  -8.7788 0.6625 21.3336
v  -8.7281 0.6919 21.3337
v  -8.7281 0.6332 21.3337
v  -8.8171 0.6625 26.6669
v  -8.7664 0.6919 26.6670
v  -8.7664 0.6332 26.6670
v  -8.8555 0.6625 32.0002
v  -8.8048 0.6919 32.0003
v  -8.8048 0.6332 32.0003
v  8.8309 -0.2548 19.9999
v  8.7288 -0.2548 19.9417
v  8.7288 1.2695 19.9417
v  8.8309 1.2695 19.9999
v  8.7296 -0.2548 20.0581
v  8.7296 1.2695 20.0581
v  8.5369 -0.2548 -22.6668
v  8.4348 -0.2548 -22.7250
v  8.4348 1.2695 -22.7250
v  8.5369 1.2695 -22.6668
v  8.4356 -0.2548 -22.6086
v  8.4356 1.2695 -22.6086
v  8.7574 -0.2548 9.3332
v  8.6553 -0.2548 9.2750
v  8.6553 1.2695 9.2750
v  8.7574 1.2695 9.3332
v  8.6561 -0.2548 9.3914
v  8.6561 1.2695 9.3914
v  8.6104 -0.2548 -12.0002
v  8.5083 -0.2548 -12.0584
v  8.5083 1.2695 -12.0584
v  8.6104 1.2695 -12.0002
v  8.5091 -0.2548 -11.9420
v  8.5091 1.2695 -11.9420
v  8.9044 -0.2548 30.6665
v  8.8023 -0.2548 30.6083
v  8.8023 1.2695 30.6083
v  8.9044 1.2695 30.6665
v  8.8031 -0.2548 30.7247
v  8.8031 1.2695 30.7247
v  8.6839 -0.2548 -1.3335
v  8.5818 -0.2548 -1.3917
v  8.5818 1.2695 -1.3917
v  8.6839 1.2695 -1.3335
v  8.5826 -0.2548 -1.2753
v  8.5826 1.2695 -1.2753
v  -8.8309 -0.2552 19.9999
v  -8.7296 -0.2552 20.0581
v  -8.7296 1.2699 20.0581
v  -8.8309 1.2699 19.9999
v  -8.7288 -0.2552 19.9417
v  -8.7288 1.2699 19.9417
v  -8.5369 -0.2552 -22.6668
v  -8.4356 -0.2552 -22.6086
v  -8.4356 1.2699 -22.6086
v  -8.5369 1.2699 -22.6668
v  -8.4348 -0.2552 -22.7250
v  -8.4348 1.2699 -22.7250
v  -8.7574 -0.2552 9.3332
v  -8.6561 -0.2552 9.3914
v  -8.6561 1.2699 9.3914
v  -8.7574 1.2699 9.3332
v  -8.6553 -0.2552 9.2750
v  -8.6553 1.2699 9.2750
v  -8.6104 -0.2552 -12.0002
v  -8.5091 -0.2552 -11.9420
v  -8.5091 1.2699 -11.9420
v  -8.6104 1.2699 -12.0002
v  -8.5083 -0.2552 -12.0584
v  -8.5083 1.2699 -12.0584
v  -8.9044 -0.2552 30.6665
v  -8.8031 -0.2552 30.7247
v  -8.8031 1.2699 30.7247
v  -8.9044 1.2699 30.6665
v  -8.8023 -0.2552 30.6083
v  -8.8023 1.2699 30.6083
v  -8.6839 -0.2552 -1.3335
v  -8.5826 -0.2552 -1.2753
v  -8.5826 1.2699 -1.2753
v  -8.6839 1.2699 -1.3335
v  -8.5818 -0.2552 -1.3917
v  -8.5818 1.2699 -1.3917
# 228 vertices

vn -0.4973 0.8675 0.0036
vn 1.0000 -0.0007 -0.0072
vn -0.4995 0.8663 0.0036
vn -0.4980 -0.8672 0.0036
vn -0.5002 -0.8659 0.0036
vn -0.4992 0.8665 0.0036
vn -0.4998 -0.8661 0.0036
vn -0.5013 0.8652 0.0036
vn -0.5020 -0.8649 0.0036
vn 0.0020 0.0000 1.0000
vn -0.0020 0.0000 -1.0000
vn -0.4979 0.8672 0.0036
vn 1.0000 0.0007 -0.0072
vn -0.5001 0.8660 0.0036
vn -0.4973 -0.8676 0.0036
vn -0.4994 -0.8663 0.0036
vn -0.5022 0.8647 0.0036
vn -0.5016 -0.8651 0.0036
vn 0.5021 0.8648 0.0034
vn -1.0000 0.0000 -0.0068
vn 0.5001 0.8660 0.0034
vn 0.5021 -0.8648 0.0034
vn 0.5001 -0.8660 0.0034
vn 0.4989 0.8666 0.0034
vn 0.4989 -0.8666 0.0034
vn 0.0019 0.0000 -1.0000
vn -0.0040 0.0000 1.0000
vn 0.5013 0.8653 0.0036
vn -1.0000 -0.0007 -0.0072
vn 0.4992 0.8665 0.0036
vn 0.5019 -0.8649 0.0036
vn 0.4998 -0.8661 0.0036
vn 0.4970 0.8677 0.0036
vn 0.4977 -0.8674 0.0036
vn 0.0020 0.0000 -1.0000
vn -0.0020 0.0000 1.0000
vn 1.0000 0.0000 -0.0017
vn -0.5053 0.0000 -0.8629
vn -0.4979 0.0000 0.8672
vn -0.5054 0.0000 -0.8629
vn -1.0000 0.0000 -0.0017
vn 0.4979 0.0000 0.8672
vn 0.5053 0.0000 -0.8629
vn 0.5054 0.0000 -0.8629
vn 0.0000 1.0000 -0.0000
# 45 vertex normals

vt 0.9532 0.0000 1.0000
vt 0.9650 0.0000 1.0000
vt 0.9650 0.0833 1.0000
vt 0.9532 0.0833 1.0000
vt 0.9295 0.0000 1.0000
vt 0.9413 0.0000 1.0000
vt 0.9413 0.0833 1.0000
vt 0.9295 0.0833 1.0000
vt 0.9650 0.1667 1.0000
vt 0.9532 0.1667 1.0000
vt 0.9413 0.1667 1.0000
vt 0.9295 0.1667 1.0000
vt 0.9650 0.2500 1.0000
vt 0.9532 0.2500 1.0000
vt 0.9413 0.2500 1.0000
vt 0.9295 0.2500 1.0000
vt 0.9650 0.3333 1.0000
vt 0.9532 0.3333 1.0000
vt 0.9413 0.3333 1.0000
vt 0.9295 0.3333 1.0000
vt 0.9650 0.4167 1.0000
vt 0.9532 0.4167 1.0000
vt 0.9413 0.4167 1.0000
vt 0.9295 0.4167 1.0000
vt 0.9650 0.5000 1.0000
vt 0.9532 0.5000 1.0000
vt 0.9413 0.5000 1.0000
vt 0.9295 0.5000 1.0000
vt 0.9650 0.5833 1.0000
vt 0.9532 0.5833 1.0000
vt 0.9413 0.5833 1.0000
vt 0.9295 0.5833 1.0000
vt 0.9650 0.6667 1.0000
vt 0.9532 0.6667 1.0000
vt 0.9413 0.6667 1.0000
vt 0.9295 0.6667 1.0000
vt 0.9650 0.7500 1.0000
vt 0.9532 0.7500 1.0000
vt 0.9413 0.7500 1.0000
vt 0.9295 0.7500 1.0000
vt 0.9650 0.8333 1.0000
vt 0.9532 0.8333 1.0000
vt 0.9413 0.8333 1.0000
vt 0.9295 0.8333 1.0000
vt 0.9650 0.9167 1.0000
vt 0.9532 0.9167 1.0000
vt 0.9413 0.9167 1.0000
vt 0.9295 0.9167 1.0000
vt 0.9650 1.0000 1.0000
vt 0.9532 1.0000 1.0000
vt 0.9413 1.0000 1.0000
vt 0.9295 1.0000 1.0000
vt 0.9596 0.2500 -0.2500
vt 0.9289 0.2500 -0.2500
vt 0.9443 1.0000 -0.2500
vt 0.9443 1.0000 0.2500
vt 0.9289 0.2500 0.2500
vt 0.9596 0.2500 0.2500
# 58 texture coords

g Bridge_Node_Fence_Steel
s 8
f 1/1/1 2/2/2 3/3/2 
f 3/3/2 4/4/3 1/1/1 
f 2/5/2 5/6/4 6/7/5 
f 6/7/5 3/8/2 2/5/2 
f 5/6/4 1/1/1 4/4/3 
f 4/4/3 6/7/5 5/6/4 
f 4/4/3 3/3/2 7/9/2 
f 7/9/2 8/10/3 4/4/3 
f 3/8/2 6/7/5 9/11/5 
f 9/11/5 7/12/2 3/8/2 
f 6/7/5 4/4/3 8/10/3 
f 8/10/3 9/11/5 6/7/5 
f 8/10/3 7/9/2 10/13/2 
f 10/13/2 11/14/3 8/10/3 
f 7/12/2 9/11/5 12/15/5 
f 12/15/5 10/16/2 7/12/2 
f 9/11/5 8/10/3 11/14/3 
f 11/14/3 12/15/5 9/11/5 
f 11/14/3 10/13/2 13/17/2 
f 13/17/2 14/18/6 11/14/3 
f 10/16/2 12/15/5 15/19/7 
f 15/19/7 13/20/2 10/16/2 
f 12/15/5 11/14/3 14/18/6 
f 14/18/6 15/19/7 12/15/5 
f 14/18/6 13/17/2 16/21/2 
f 16/21/2 17/22/3 14/18/6 
f 13/20/2 15/19/7 18/23/5 
f 18/23/5 16/24/2 13/20/2 
f 15/19/7 14/18/6 17/22/3 
f 17/22/3 18/23/5 15/19/7 
f 17/22/3 16/21/2 19/25/2 
f 19/25/2 20/26/6 17/22/3 
f 16/24/2 18/23/5 21/27/7 
f 21/27/7 19/28/2 16/24/2 
f 18/23/5 17/22/3 20/26/6 
f 20/26/6 21/27/7 18/23/5 
f 20/26/6 19/25/2 22/29/2 
f 22/29/2 23/30/3 20/26/6 
f 19/28/2 21/27/7 24/31/5 
f 24/31/5 22/32/2 19/28/2 
f 21/27/7 20/26/6 23/30/3 
f 23/30/3 24/31/5 21/27/7 
f 23/30/3 22/29/2 25/33/2 
f 25/33/2 26/34/6 23/30/3 
f 22/32/2 24/31/5 27/35/7 
f 27/35/7 25/36/2 22/32/2 
f 24/31/5 23/30/3 26/34/6 
f 26/34/6 27/35/7 24/31/5 
f 26/34/6 25/33/2 28/37/2 
f 28/37/2 29/38/3 26/34/6 
f 25/36/2 27/35/7 30/39/5 
f 30/39/5 28/40/2 25/36/2 
f 27/35/7 26/34/6 29/38/3 
f 29/38/3 30/39/5 27/35/7 
f 29/38/3 28/37/2 31/41/2 
f 31/41/2 32/42/6 29/38/3 
f 28/40/2 30/39/5 33/43/7 
f 33/43/7 31/44/2 28/40/2 
f 30/39/5 29/38/3 32/42/6 
f 32/42/6 33/43/7 30/39/5 
f 32/42/6 31/41/2 34/45/2 
f 34/45/2 35/46/6 32/42/6 
f 31/44/2 33/43/7 36/47/7 
f 36/47/7 34/48/2 31/44/2 
f 33/43/7 32/42/6 35/46/6 
f 35/46/6 36/47/7 33/43/7 
f 35/46/6 34/45/2 37/49/2 
f 37/49/2 38/50/8 35/46/6 
f 34/48/2 36/47/7 39/51/9 
f 39/51/9 37/52/2 34/48/2 
f 36/47/7 35/46/6 38/50/8 
f 38/50/8 39/51/9 36/47/7 
s 1
f 5/53/10 2/54/10 1/55/10 
f 38/56/11 37/57/11 39/58/11 
s 8
f 40/1/12 41/2/13 42/3/13 
f 42/3/13 43/4/14 40/1/12 
f 41/5/13 44/6/15 45/7/16 
f 45/7/16 42/8/13 41/5/13 
f 44/6/15 40/1/12 43/4/14 
f 43/4/14 45/7/16 44/6/15 
f 43/4/14 42/3/13 46/9/13 
f 46/9/13 47/10/14 43/4/14 
f 42/8/13 45/7/16 48/11/16 
f 48/11/16 46/12/13 42/8/13 
f 45/7/16 43/4/14 47/10/14 
f 47/10/14 48/11/16 45/7/16 
f 47/10/14 46/9/13 49/13/13 
f 49/13/13 50/14/14 47/10/14 
f 46/12/13 48/11/16 51/15/16 
f 51/15/16 49/16/13 46/12/13 
f 48/11/16 47/10/14 50/14/14 
f 50/14/14 51/15/16 48/11/16 
f 50/14/14 49/13/13 52/17/13 
f 52/17/13 53/18/14 50/14/14 
f 49/16/13 51/15/16 54/19/16 
f 54/19/16 52/20/13 49/16/13 
f 51/15/16 50/14/14 53/18/14 
f 53/18/14 54/19/16 51/15/16 
f 53/18/14 52/17/13 55/21/13 
f 55/21/13 56/22/14 53/18/14 
f 52/20/13 54/19/16 57/23/16 
f 57/23/16 55/24/13 52/20/13 
f 54/19/16 53/18/14 56/22/14 
f 56/22/14 57/23/16 54/19/16 
f 56/22/14 55/21/13 58/25/13 
f 58/25/13 59/26/14 56/22/14 
f 55/24/13 57/23/16 60/27/16 
f 60/27/16 58/28/13 55/24/13 
f 57/23/16 56/22/14 59/26/14 
f 59/26/14 60/27/16 57/23/16 
f 59/26/14 58/25/13 61/29/13 
f 61/29/13 62/30/14 59/26/14 
f 58/28/13 60/27/16 63/31/16 
f 63/31/16 61/32/13 58/28/13 
f 60/27/16 59/26/14 62/30/14 
f 62/30/14 63/31/16 60/27/16 
f 62/30/14 61/29/13 64/33/13 
f 64/33/13 65/34/14 62/30/14 
f 61/32/13 63/31/16 66/35/16 
f 66/35/16 64/36/13 61/32/13 
f 63/31/16 62/30/14 65/34/14 
f 65/34/14 66/35/16 63/31/16 
f 65/34/14 64/33/13 67/37/13 
f 67/37/13 68/38/14 65/34/14 
f 64/36/13 66/35/16 69/39/16 
f 69/39/16 67/40/13 64/36/13 
f 66/35/16 65/34/14 68/38/14 
f 68/38/14 69/39/16 66/35/16 
f 68/38/14 67/37/13 70/41/13 
f 70/41/13 71/42/14 68/38/14 
f 67/40/13 69/39/16 72/43/16 
f 72/43/16 70/44/13 67/40/13 
f 69/39/16 68/38/14 71/42/14 
f 71/42/14 72/43/16 69/39/16 
f 71/42/14 70/41/13 73/45/13 
f 73/45/13 74/46/14 71/42/14 
f 70/44/13 72/43/16 75/47/16 
f 75/47/16 73/48/13 70/44/13 
f 72/43/16 71/42/14 74/46/14 
f 74/46/14 75/47/16 72/43/16 
f 74/46/14 73/45/13 76/49/13 
f 76/49/13 77/50/17 74/46/14 
f 73/48/13 75/47/16 78/51/18 
f 78/51/18 76/52/13 73/48/13 
f 75/47/16 74/46/14 77/50/17 
f 77/50/17 78/51/18 75/47/16 
s 1
f 44/53/10 41/54/10 40/55/10 
f 77/56/11 76/57/11 78/58/11 
s 8
f 79/1/19 80/2/20 81/3/20 
f 81/3/20 82/4/21 79/1/19 
f 80/5/20 83/6/22 84/7/23 
f 84/7/23 81/8/20 80/5/20 
f 83/6/22 79/1/19 82/4/21 
f 82/4/21 84/7/23 83/6/22 
f 82/4/21 81/3/20 85/9/20 
f 85/9/20 86/10/21 82/4/21 
f 81/8/20 84/7/23 87/11/23 
f 87/11/23 85/12/20 81/8/20 
f 84/7/23 82/4/21 86/10/21 
f 86/10/21 87/11/23 84/7/23 
f 86/10/21 85/9/20 88/13/20 
f 88/13/20 89/14/21 86/10/21 
f 85/12/20 87/11/23 90/15/23 
f 90/15/23 88/16/20 85/12/20 
f 87/11/23 86/10/21 89/14/21 
f 89/14/21 90/15/23 87/11/23 
f 89/14/21 88/13/20 91/17/20 
f 91/17/20 92/18/21 89/14/21 
f 88/16/20 90/15/23 93/19/23 
f 93/19/23 91/20/20 88/16/20 
f 90/15/23 89/14/21 92/18/21 
f 92/18/21 93/19/23 90/15/23 
f 92/18/21 91/17/20 94/21/20 
f 94/21/20 95/22/21 92/18/21 
f 91/20/20 93/19/23 96/23/23 
f 96/23/23 94/24/20 91/20/20 
f 93/19/23 92/18/21 95/22/21 
f 95/22/21 96/23/23 93/19/23 
f 95/22/21 94/21/20 97/25/20 
f 97/25/20 98/26/21 95/22/21 
f 94/24/20 96/23/23 99/27/23 
f 99/27/23 97/28/20 94/24/20 
f 96/23/23 95/22/21 98/26/21 
f 98/26/21 99/27/23 96/23/23 
f 98/26/21 97/25/20 100/29/20 
f 100/29/20 101/30/21 98/26/21 
f 97/28/20 99/27/23 102/31/23 
f 102/31/23 100/32/20 97/28/20 
f 99/27/23 98/26/21 101/30/21 
f 101/30/21 102/31/23 99/27/23 
f 101/30/21 100/29/20 103/33/20 
f 103/33/20 104/34/21 101/30/21 
f 100/32/20 102/31/23 105/35/23 
f 105/35/23 103/36/20 100/32/20 
f 102/31/23 101/30/21 104/34/21 
f 104/34/21 105/35/23 102/31/23 
f 104/34/21 103/33/20 106/37/20 
f 106/37/20 107/38/21 104/34/21 
f 103/36/20 105/35/23 108/39/23 
f 108/39/23 106/40/20 103/36/20 
f 105/35/23 104/34/21 107/38/21 
f 107/38/21 108/39/23 105/35/23 
f 107/38/21 106/37/20 109/41/20 
f 109/41/20 110/42/21 107/38/21 
f 106/40/20 108/39/23 111/43/23 
f 111/43/23 109/44/20 106/40/20 
f 108/39/23 107/38/21 110/42/21 
f 110/42/21 111/43/23 108/39/23 
f 110/42/21 109/41/20 112/45/20 
f 112/45/20 113/46/21 110/42/21 
f 109/44/20 111/43/23 114/47/23 
f 114/47/23 112/48/20 109/44/20 
f 111/43/23 110/42/21 113/46/21 
f 113/46/21 114/47/23 111/43/23 
f 113/46/21 112/45/20 115/49/20 
f 115/49/20 116/50/24 113/46/21 
f 112/48/20 114/47/23 117/51/25 
f 117/51/25 115/52/20 112/48/20 
f 114/47/23 113/46/21 116/50/24 
f 116/50/24 117/51/25 114/47/23 
s 1
f 83/53/26 80/54/26 79/55/26 
f 116/56/27 115/57/27 117/58/27 
s 8
f 118/1/28 119/2/29 120/3/29 
f 120/3/29 121/4/30 118/1/28 
f 119/5/29 122/6/31 123/7/32 
f 123/7/32 120/8/29 119/5/29 
f 122/6/31 118/1/28 121/4/30 
f 121/4/30 123/7/32 122/6/31 
f 121/4/30 120/3/29 124/9/29 
f 124/9/29 125/10/30 121/4/30 
f 120/8/29 123/7/32 126/11/32 
f 126/11/32 124/12/29 120/8/29 
f 123/7/32 121/4/30 125/10/30 
f 125/10/30 126/11/32 123/7/32 
f 125/10/30 124/9/29 127/13/29 
f 127/13/29 128/14/30 125/10/30 
f 124/12/29 126/11/32 129/15/32 
f 129/15/32 127/16/29 124/12/29 
f 126/11/32 125/10/30 128/14/30 
f 128/14/30 129/15/32 126/11/32 
f 128/14/30 127/13/29 130/17/29 
f 130/17/29 131/18/30 128/14/30 
f 127/16/29 129/15/32 132/19/32 
f 132/19/32 130/20/29 127/16/29 
f 129/15/32 128/14/30 131/18/30 
f 131/18/30 132/19/32 129/15/32 
f 131/18/30 130/17/29 133/21/29 
f 133/21/29 134/22/30 131/18/30 
f 130/20/29 132/19/32 135/23/32 
f 135/23/32 133/24/29 130/20/29 
f 132/19/32 131/18/30 134/22/30 
f 134/22/30 135/23/32 132/19/32 
f 134/22/30 133/21/29 136/25/29 
f 136/25/29 137/26/30 134/22/30 
f 133/24/29 135/23/32 138/27/32 
f 138/27/32 136/28/29 133/24/29 
f 135/23/32 134/22/30 137/26/30 
f 137/26/30 138/27/32 135/23/32 
f 137/26/30 136/25/29 139/29/29 
f 139/29/29 140/30/30 137/26/30 
f 136/28/29 138/27/32 141/31/32 
f 141/31/32 139/32/29 136/28/29 
f 138/27/32 137/26/30 140/30/30 
f 140/30/30 141/31/32 138/27/32 
f 140/30/30 139/29/29 142/33/29 
f 142/33/29 143/34/30 140/30/30 
f 139/32/29 141/31/32 144/35/32 
f 144/35/32 142/36/29 139/32/29 
f 141/31/32 140/30/30 143/34/30 
f 143/34/30 144/35/32 141/31/32 
f 143/34/30 142/33/29 145/37/29 
f 145/37/29 146/38/30 143/34/30 
f 142/36/29 144/35/32 147/39/32 
f 147/39/32 145/40/29 142/36/29 
f 144/35/32 143/34/30 146/38/30 
f 146/38/30 147/39/32 144/35/32 
f 146/38/30 145/37/29 148/41/29 
f 148/41/29 149/42/30 146/38/30 
f 145/40/29 147/39/32 150/43/32 
f 150/43/32 148/44/29 145/40/29 
f 147/39/32 146/38/30 149/42/30 
f 149/42/30 150/43/32 147/39/32 
f 149/42/30 148/41/29 151/45/29 
f 151/45/29 152/46/30 149/42/30 
f 148/44/29 150/43/32 153/47/32 
f 153/47/32 151/48/29 148/44/29 
f 150/43/32 149/42/30 152/46/30 
f 152/46/30 153/47/32 150/43/32 
f 152/46/30 151/45/29 154/49/29 
f 154/49/29 155/50/33 152/46/30 
f 151/48/29 153/47/32 156/51/34 
f 156/51/34 154/52/29 151/48/29 
f 153/47/32 152/46/30 155/50/33 
f 155/50/33 156/51/34 153/47/32 
s 1
f 122/53/35 119/54/35 118/55/35 
f 155/56/36 154/57/36 156/58/36 
s 2097152
f 157/1/37 158/2/38 159/49/38 
f 159/49/38 160/50/37 157/1/37 
f 158/5/38 161/6/39 162/51/39 
f 162/51/39 159/52/38 158/5/38 
f 161/6/39 157/1/37 160/50/37 
f 160/50/37 162/51/39 161/6/39 
f 163/1/37 164/2/38 165/49/38 
f 165/49/38 166/50/37 163/1/37 
f 164/5/38 167/6/39 168/51/39 
f 168/51/39 165/52/38 164/5/38 
f 167/6/39 163/1/37 166/50/37 
f 166/50/37 168/51/39 167/6/39 
f 169/1/37 170/2/38 171/49/38 
f 171/49/38 172/50/37 169/1/37 
f 170/5/38 173/6/39 174/51/39 
f 174/51/39 171/52/38 170/5/38 
f 173/6/39 169/1/37 172/50/37 
f 172/50/37 174/51/39 173/6/39 
f 175/1/37 176/2/40 177/49/40 
f 177/49/40 178/50/37 175/1/37 
f 176/5/40 179/6/39 180/51/39 
f 180/51/39 177/52/40 176/5/40 
f 179/6/39 175/1/37 178/50/37 
f 178/50/37 180/51/39 179/6/39 
f 181/1/37 182/2/40 183/49/40 
f 183/49/40 184/50/37 181/1/37 
f 182/5/40 185/6/39 186/51/39 
f 186/51/39 183/52/40 182/5/40 
f 185/6/39 181/1/37 184/50/37 
f 184/50/37 186/51/39 185/6/39 
f 187/1/37 188/2/38 189/49/38 
f 189/49/38 190/50/37 187/1/37 
f 188/5/38 191/6/39 192/51/39 
f 192/51/39 189/52/38 188/5/38 
f 191/6/39 187/1/37 190/50/37 
f 190/50/37 192/51/39 191/6/39 
s 8
f 193/1/41 194/2/42 195/49/42 
f 195/49/42 196/50/41 193/1/41 
f 194/5/42 197/6/43 198/51/43 
f 198/51/43 195/52/42 194/5/42 
f 197/6/43 193/1/41 196/50/41 
f 196/50/41 198/51/43 197/6/43 
f 199/1/41 200/2/42 201/49/42 
f 201/49/42 202/50/41 199/1/41 
f 200/5/42 203/6/43 204/51/43 
f 204/51/43 201/52/42 200/5/42 
f 203/6/43 199/1/41 202/50/41 
f 202/50/41 204/51/43 203/6/43 
f 205/1/41 206/2/42 207/49/42 
f 207/49/42 208/50/41 205/1/41 
f 206/5/42 209/6/43 210/51/43 
f 210/51/43 207/52/42 206/5/42 
f 209/6/43 205/1/41 208/50/41 
f 208/50/41 210/51/43 209/6/43 
f 211/1/41 212/2/42 213/49/42 
f 213/49/42 214/50/41 211/1/41 
f 212/5/42 215/6/44 216/51/44 
f 216/51/44 213/52/42 212/5/42 
f 215/6/44 211/1/41 214/50/41 
f 214/50/41 216/51/44 215/6/44 
f 217/1/41 218/2/42 219/49/42 
f 219/49/42 220/50/41 217/1/41 
f 218/5/42 221/6/44 222/51/44 
f 222/51/44 219/52/42 218/5/42 
f 221/6/44 217/1/41 220/50/41 
f 220/50/41 222/51/44 221/6/44 
f 223/1/41 224/2/42 225/49/42 
f 225/49/42 226/50/41 223/1/41 
f 224/5/42 227/6/43 228/51/43 
f 228/51/43 225/52/42 224/5/42 
f 227/6/43 223/1/41 226/50/41 
f 226/50/41 228/51/43 227/6/43 
s off
f 159/49/45 162/51/45 160/50/45 
f 165/49/45 168/51/45 166/50/45 
f 171/49/45 174/51/45 172/50/45 
f 177/49/45 180/51/45 178/50/45 
f 183/49/45 186/51/45 184/50/45 
f 189/49/45 192/51/45 190/50/45 
f 195/49/45 198/51/45 196/50/45 
f 201/49/45 204/51/45 202/50/45 
f 207/49/45 210/51/45 208/50/45 
f 213/49/45 216/51/45 214/50/45 
f 219/49/45 222/51/45 220/50/45 
f 225/49/45 228/51/45 226/50/45 
# 0 polygons - 380 triangles

