# 3ds Max Wavefront OBJ Exporter v0.97b - (c)2007 guruware
# File Created: 25.09.2017 08:03:21

#
# object Elevated_Pavement_LOD
#

v  8.7500 -1.1500 0.0005
v  9.1500 1.3000 0.0005
v  9.1500 1.3000 16.0005
v  8.7500 -1.1500 16.0005
v  -8.7500 -1.1500 0.0005
v  -9.1500 1.3000 0.0005
v  -9.1500 1.3000 -15.9995
v  -8.7500 -1.1500 -15.9995
v  8.3750 1.3000 16.0005
v  8.3750 1.3000 0.0005
v  8.5000 0.0000 16.0005
v  8.5000 0.0000 0.0005
v  8.7500 -1.1500 -15.9995
v  9.1500 1.3000 -15.9995
v  -9.1500 1.3000 16.0005
v  -8.3750 1.3000 16.0005
v  -8.3750 1.3000 0.0005
v  -8.5000 0.0000 16.0005
v  -8.5000 0.0000 0.0005
v  9.0000 0.0000 0.0005
v  9.0000 0.0000 -15.9995
v  -9.0000 0.0000 -15.9995
v  -9.0000 0.0000 0.0005
v  -8.7500 -1.1500 16.0005
v  8.3750 1.3000 -15.9995
v  8.5000 0.0000 -15.9995
v  -8.3750 1.3000 -15.9995
v  -8.5000 0.0000 -15.9995
v  -9.0000 0.0000 16.0005
v  9.0000 0.0000 16.0005
v  9.0000 0.0000 -31.9995
v  -9.0000 0.0000 -31.9995
v  -7.5000 -2.7000 0.0005
v  7.5000 -2.7000 0.0005
v  7.5000 -2.7000 16.0005
v  -7.5000 -2.7000 16.0005
v  -7.5000 -2.7000 -31.9995
v  7.5000 -2.7000 -31.9995
v  7.5000 -2.7000 -15.9995
v  -7.5000 -2.7000 -15.9995
v  7.5000 -2.7000 32.0005
v  8.1250 -1.1500 16.0005
v  8.1250 -1.1500 32.0005
v  8.1250 -1.1500 -15.9995
v  8.1250 -1.1500 0.0005
v  -8.1250 -1.1500 -15.9995
v  -8.1250 -1.1500 -31.9995
v  -8.1250 -1.1500 16.0005
v  -8.1250 -1.1500 0.0005
v  -9.0000 0.0000 32.0005
v  9.0000 0.0000 32.0005
v  9.1500 1.3000 32.0005
v  8.7500 -1.1500 32.0005
v  -9.1500 1.3000 -31.9995
v  -8.7500 -1.1500 -31.9995
v  8.3750 1.3000 32.0005
v  8.5000 0.0000 32.0005
v  8.7500 -1.1500 -31.9995
v  9.1500 1.3000 -31.9995
v  -9.1500 1.3000 32.0005
v  -8.3750 1.3000 32.0005
v  -8.5000 0.0000 32.0005
v  -8.7500 -1.1500 32.0005
v  8.3750 1.3000 -31.9995
v  8.5000 0.0000 -31.9995
v  -8.3750 1.3000 -31.9995
v  -8.5000 0.0000 -31.9995
v  -7.5000 -2.7000 32.0005
v  8.1250 -1.1500 -31.9995
v  -8.1250 -1.1500 32.0005
# 70 vertices

vn 0.9869 -0.1611 -0.0000
vn -0.9869 -0.1611 -0.0000
vn 0.0000 1.0000 -0.0000
vn -0.9954 -0.0957 -0.0000
vn 0.9954 -0.0957 -0.0000
vn 0.0000 -1.0000 -0.0000
vn 0.9274 -0.3740 -0.0000
vn -0.9274 -0.3740 -0.0000
# 8 vertex normals

vt 0.6570 0.5000 0.0000
vt 0.3673 0.5000 0.0000
vt 0.3673 0.7500 0.0000
vt 0.6570 0.7500 0.0000
vt 0.3673 0.2500 0.0000
vt 0.6570 0.2500 0.0000
vt 0.8187 0.2500 0.0000
vt 0.7728 0.2500 0.0000
vt 0.7728 0.5000 0.0000
vt 0.8187 0.5000 0.0000
vt 0.7000 0.7500 0.0000
vt 0.7562 0.7500 0.0000
vt 0.7562 0.5000 0.0000
vt 0.7000 0.5000 0.0000
vt 0.1400 0.5000 0.0000
vt 0.1400 0.7500 0.0000
vt 0.0000 0.7500 0.0000
vt 0.0000 0.5000 0.0000
vt 0.7728 0.7500 0.0000
vt 0.8187 0.7500 0.0000
vt 0.7562 0.2500 0.0000
vt 0.7000 0.2500 0.0000
vt 0.0000 0.2500 0.0000
vt 0.1400 0.2500 0.0000
vt 0.1400 1.0000 0.0000
vt 0.0000 1.0000 0.0000
vt 0.0268 0.5000 0.0000
vt 0.1200 0.5000 0.0000
vt 0.1200 0.2500 0.0000
vt 0.0268 0.2500 0.0000
vt 0.0268 1.0000 0.0000
vt 0.1200 1.0000 0.0000
vt 0.1200 0.7499 0.0000
vt 0.0268 0.7499 0.0000
vt 0.7038 0.0000 0.0000
vt 0.7038 0.2500 0.0000
vt 0.7645 0.2500 0.0000
vt 0.7645 0.0000 0.0000
vt 0.7038 0.4999 0.0000
vt 0.7038 0.7499 0.0000
vt 0.7645 0.7499 0.0000
vt 0.7645 0.4999 0.0000
vt 0.7645 1.0000 0.0000
vt 0.7038 1.0000 0.0000
vt 0.0000 0.0000 0.0000
vt 0.1400 0.0000 0.0000
vt 0.3673 1.0000 0.0000
vt 0.6570 1.0000 0.0000
vt 0.3673 0.0000 0.0000
vt 0.6570 0.0000 0.0000
vt 0.8187 0.0000 0.0000
vt 0.7728 0.0000 0.0000
vt 0.7000 1.0000 0.0000
vt 0.7562 1.0000 0.0000
vt 0.7728 1.0000 0.0000
vt 0.8187 1.0000 0.0000
vt 0.7562 0.0000 0.0000
vt 0.7000 0.0000 0.0000
vt 0.0268 0.0000 0.0000
vt 0.1200 0.0000 0.0000
vt 0.7038 -0.0000 0.0000
# 61 texture coords

g Elevated_Pavement_LOD
s off
f 1/1/1 2/2/1 3/3/1 
f 3/3/1 4/4/1 1/1/1 
f 5/1/2 6/2/2 7/5/2 
f 7/5/2 8/6/2 5/1/2 
f 9/7/3 3/8/3 2/9/3 
f 2/9/3 10/10/3 9/7/3 
f 11/11/4 9/12/4 10/13/4 
f 10/13/4 12/14/4 11/11/4 
f 2/2/1 1/1/1 13/6/1 
f 13/6/1 14/5/1 2/2/1 
f 15/8/3 16/7/3 17/10/3 
f 17/10/3 6/9/3 15/8/3 
f 16/12/5 18/11/5 19/14/5 
f 19/14/5 17/13/5 16/12/5 
f 20/15/3 21/16/3 22/17/3 
f 22/17/3 23/18/3 20/15/3 
f 5/1/2 24/4/2 15/3/2 
f 15/3/2 6/2/2 5/1/2 
f 2/9/3 14/19/3 25/20/3 
f 25/20/3 10/10/3 2/9/3 
f 10/13/4 25/21/4 26/22/4 
f 26/22/4 12/14/4 10/13/4 
f 17/10/3 27/20/3 7/19/3 
f 7/19/3 6/9/3 17/10/3 
f 19/14/5 28/22/5 27/21/5 
f 27/21/5 17/13/5 19/14/5 
f 20/15/3 23/18/3 29/23/3 
f 29/23/3 30/24/3 20/15/3 
f 21/16/3 31/25/3 32/26/3 
f 32/26/3 22/17/3 21/16/3 
f 33/27/6 34/28/6 35/29/6 
f 35/29/6 36/30/6 33/27/6 
f 37/31/6 38/32/6 39/33/6 
f 39/33/6 40/34/6 37/31/6 
f 41/35/7 35/36/7 42/37/7 
f 42/37/7 43/38/7 41/35/7 
f 34/39/7 39/40/7 44/41/7 
f 44/41/7 45/42/7 34/39/7 
f 37/43/8 40/41/8 46/40/8 
f 46/40/8 47/44/8 37/43/8 
f 33/42/8 36/37/8 48/36/8 
f 48/36/8 49/39/8 33/42/8 
f 29/23/3 50/45/3 51/46/3 
f 51/46/3 30/24/3 29/23/3 
f 3/3/1 52/47/1 53/48/1 
f 53/48/1 4/4/1 3/3/1 
f 7/5/2 54/49/2 55/50/2 
f 55/50/2 8/6/2 7/5/2 
f 9/7/3 56/51/3 52/52/3 
f 52/52/3 3/8/3 9/7/3 
f 11/11/4 57/53/4 56/54/4 
f 56/54/4 9/12/4 11/11/4 
f 13/6/1 58/50/1 59/49/1 
f 59/49/1 14/5/1 13/6/1 
f 15/8/3 60/52/3 61/51/3 
f 61/51/3 16/7/3 15/8/3 
f 16/12/5 61/54/5 62/53/5 
f 62/53/5 18/11/5 16/12/5 
f 24/4/2 63/48/2 60/47/2 
f 60/47/2 15/3/2 24/4/2 
f 14/19/3 59/55/3 64/56/3 
f 64/56/3 25/20/3 14/19/3 
f 25/21/4 64/57/4 65/58/4 
f 65/58/4 26/22/4 25/21/4 
f 27/20/3 66/56/3 54/55/3 
f 54/55/3 7/19/3 27/20/3 
f 28/22/5 67/58/5 66/57/5 
f 66/57/5 27/21/5 28/22/5 
f 68/59/6 36/30/6 35/29/6 
f 35/29/6 41/60/6 68/59/6 
f 33/27/6 40/34/6 39/33/6 
f 39/33/6 34/28/6 33/27/6 
f 35/36/7 34/39/7 45/42/7 
f 45/42/7 42/37/7 35/36/7 
f 39/40/7 38/44/7 69/43/7 
f 69/43/7 44/41/7 39/40/7 
f 40/41/8 33/42/8 49/39/8 
f 49/39/8 46/40/8 40/41/8 
f 36/37/8 68/38/8 70/61/8 
f 70/61/8 48/36/8 36/37/8 
# 0 polygons - 80 triangles

