# 3ds Max Wavefront OBJ Exporter v0.97b - (c)2007 guruware
# File Created: 22.09.2018 09:59:31

#
# object Elevated_Node_Pavement
#

v  7.5000 0.0000 -26.6667
v  9.0000 0.0000 -26.6667
v  9.0000 0.0000 -32.0000
v  7.5000 0.0000 -32.0000
v  -7.5000 -0.3000 -26.6667
v  0.0000 -0.3000 -26.6667
v  0.0000 -0.3000 -32.0000
v  -7.5000 -0.3000 -32.0000
v  -9.0000 0.0000 -26.6667
v  -7.5000 0.0000 -26.6667
v  -7.5000 0.0000 -32.0000
v  -9.0000 0.0000 -32.0000
v  7.5000 -0.3000 -26.6667
v  7.5000 -0.3000 -32.0000
v  -8.2500 -1.1500 -32.0000
v  -8.2500 -1.1500 -26.6667
v  -8.7500 -1.1500 -26.6667
v  -8.7500 -1.1500 -32.0000
v  -8.5500 1.0000 -32.0000
v  -9.0500 1.0000 -32.0000
v  -9.0500 1.0000 -26.6667
v  -8.5500 1.0000 -26.6667
v  -8.7500 -1.0000 -26.6667
v  -8.7500 -1.0000 -32.0000
v  -8.5000 0.0000 -26.6667
v  -8.5000 0.0000 -32.0000
v  8.2500 -1.1500 -26.6667
v  8.2500 -1.1500 -32.0000
v  8.7500 -1.1500 -32.0000
v  8.7500 -1.1500 -26.6667
v  8.5500 1.0000 -26.6667
v  9.0500 1.0000 -26.6667
v  9.0500 1.0000 -32.0000
v  8.5500 1.0000 -32.0000
v  8.7500 -1.0000 -32.0000
v  8.7500 -1.0000 -26.6667
v  8.5000 0.0000 -32.0000
v  8.5000 0.0000 -26.6667
v  -7.5000 -3.0000 -32.0000
v  0.0000 -3.0000 -32.0000
v  0.0000 -3.0000 -26.6667
v  -7.5000 -3.0000 -26.6667
v  7.5000 -3.0000 -32.0000
v  7.5000 -3.0000 -26.6667
v  9.1250 1.0000 -32.0000
v  9.1250 1.0000 -26.6667
v  8.3750 1.0000 -26.6667
v  8.3750 1.0000 -32.0000
v  9.1500 1.3000 -32.0000
v  8.3750 1.3000 -32.0000
v  8.3750 1.3000 -26.6667
v  9.1500 1.3000 -26.6667
v  -8.3750 1.0000 -32.0000
v  -8.3750 1.0000 -26.6667
v  -9.1250 1.0000 -26.6667
v  -9.1250 1.0000 -32.0000
v  -8.3750 1.3000 -32.0000
v  -9.1500 1.3000 -32.0000
v  -9.1500 1.3000 -26.6667
v  -8.3750 1.3000 -26.6667
# 60 vertices

vn 0.0000 1.0000 -0.0000
vn -1.0000 0.0000 -0.0000
vn 1.0000 0.0000 -0.0000
vn 0.0000 -1.0000 -0.0000
vn -0.9701 -0.2425 -0.0000
vn -0.9988 -0.0499 -0.0000
vn 0.9988 0.0499 -0.0000
vn 0.9701 -0.2425 -0.0000
vn 0.9988 -0.0499 -0.0000
vn -0.9988 0.0499 -0.0000
vn 0.9267 -0.3757 -0.0000
vn -0.9267 -0.3757 -0.0000
vn 0.6771 -0.7359 -0.0000
vn 0.9965 -0.0830 -0.0000
vn -0.6771 -0.7359 -0.0000
vn -0.9965 -0.0830 -0.0000
vn 0.0000 0.0000 1.0000
# 17 vertex normals

vt 1.0001 1.0000 0.0000
vt 0.8067 1.0000 0.0000
vt 0.8067 0.9167 0.0000
vt 1.0001 0.9167 0.0000
vt 0.1372 1.0000 0.0000
vt 0.0001 1.0000 0.0000
vt 0.0001 0.9167 0.0000
vt 0.1372 0.9167 0.0000
vt 0.8067 0.0000 0.0000
vt 1.0001 0.0000 0.0000
vt 1.0001 0.0833 0.0000
vt 0.8067 0.0833 0.0000
vt 0.9807 -0.0000 0.0000
vt 1.0001 -0.0000 0.0000
vt 0.9807 0.0833 0.0000
vt 0.0001 0.0000 0.0000
vt 0.0001 0.0833 0.0000
vt 0.1372 0.0833 0.0000
vt 0.1372 0.0000 0.0000
vt 0.8166 0.9167 0.0000
vt 0.8166 1.0000 0.0000
vt 0.7671 1.0000 0.0000
vt 0.7671 0.9167 0.0000
vt 0.4152 4.3914 0.0000
vt 1.4152 4.3914 0.0000
vt 1.4152 4.4747 0.0000
vt 0.4152 4.4747 0.0000
vt 0.7671 0.0833 0.0000
vt 0.7671 0.0000 0.0000
vt 0.8166 0.0000 0.0000
vt 0.8166 0.0833 0.0000
vt 0.6621 0.6686 0.0000
vt 0.6621 1.0019 0.0000
vt 0.5211 1.0019 0.0000
vt 0.5211 0.6686 0.0000
vt 0.5211 1.0000 0.0000
vt 0.3687 1.0000 0.0000
vt 0.3687 0.6686 0.0000
vt 0.7696 1.0000 0.0000
vt 0.7696 0.6686 0.0000
vt 0.8166 0.6686 0.0000
vt 0.4152 3.4747 0.0000
vt 1.4152 3.4747 0.0000
vt 1.4152 3.5581 0.0000
vt 0.4152 3.5581 0.0000
vt 0.6621 0.0020 0.0000
vt 0.6621 0.3353 0.0000
vt 0.5211 0.3353 0.0000
vt 0.5211 0.0020 0.0000
vt 0.5211 0.0000 0.0000
vt 0.3687 0.3353 0.0000
vt 0.3687 0.0000 0.0000
vt 0.7696 0.3353 0.0000
vt 0.7696 0.0000 0.0000
vt 0.8166 0.3353 0.0000
vt 0.8189 0.0833 0.0000
vt 0.8990 0.0833 0.0000
vt 0.8990 0.0000 0.0000
vt 0.8189 0.0000 0.0000
vt 0.7657 0.9167 0.0000
vt 0.6633 0.9167 0.0000
vt 0.6633 1.0000 0.0000
vt 0.7657 1.0000 0.0000
vt 0.7657 0.0000 0.0000
vt 0.6633 0.0000 0.0000
vt 0.6633 0.0833 0.0000
vt 0.7657 0.0833 0.0000
vt 0.7696 0.0833 0.0000
vt 0.7696 0.9165 0.0000
vt 0.7696 0.9998 0.0000
vt 0.8166 0.9998 0.0000
vt 0.8166 0.9165 0.0000
vt 0.9791 0.0833 0.0000
vt 0.9791 0.0000 0.0000
vt 0.0146 0.2747 0.0000
vt 0.0097 0.4945 0.0000
vt 0.0583 0.4945 0.0000
vt 0.0631 0.2747 0.0000
vt 0.0024 0.7692 0.0000
vt 0.0000 1.0000 0.0000
vt 0.1338 1.0000 0.0000
vt 0.1338 0.7692 0.0000
vt 0.9089 0.6167 0.0000
vt 0.8589 0.6167 0.0000
vt 0.8589 0.6667 0.0000
vt 0.8339 1.0000 0.0000
vt 0.9839 1.0000 0.0000
vt 0.9839 0.9000 0.0000
vt 0.9839 0.0000 0.0000
vt 0.9815 0.8923 0.0000
vt 0.9815 0.9923 0.0000
vt 0.8315 0.9923 0.0000
vt 0.8565 0.6590 0.0000
vt 0.8565 0.6090 0.0000
vt 0.9065 0.6090 0.0000
vt 0.9815 -0.0077 0.0000
vt 0.8222 0.0589 0.0000
vt 0.9730 0.0624 0.0000
vt 0.9730 0.9624 0.0000
vt 0.8222 0.9589 0.0000
# 100 texture coords

g Elevated_Node_Pavement
s 1
f 1/1/1 2/2/1 3/3/1 
f 3/3/1 4/4/1 1/1/1 
f 5/5/1 6/6/1 7/7/1 
f 7/7/1 8/8/1 5/5/1 
f 9/9/1 10/10/1 11/11/1 
f 11/11/1 12/12/1 9/9/1 
s off
f 13/13/2 1/14/2 4/11/2 
f 4/11/2 14/15/2 13/13/2 
f 10/14/3 5/13/3 8/15/3 
f 8/15/3 11/11/3 10/14/3 
s 1
f 13/16/1 14/17/1 7/18/1 
f 7/18/1 6/19/1 13/16/1 
s 2
f 15/20/4 16/21/4 17/22/4 
f 17/22/4 18/23/4 15/20/4 
s 4
f 19/24/1 20/25/1 21/26/1 
f 21/26/1 22/27/1 19/24/1 
s off
f 18/28/2 17/29/2 23/30/2 
f 23/30/2 24/31/2 18/28/2 
s 16
f 24/32/5 23/33/5 9/34/5 
f 9/34/5 12/35/5 24/32/5 
f 12/35/6 9/36/6 21/37/6 
f 21/37/6 20/38/6 12/35/6 
s 64
f 25/39/7 26/40/7 19/41/7 
f 19/41/7 22/21/7 25/39/7 
s 2
f 27/30/4 28/31/4 29/28/4 
f 29/28/4 30/29/4 27/30/4 
s 4
f 31/42/1 32/43/1 33/44/1 
f 33/44/1 34/45/1 31/42/1 
s off
f 30/22/3 29/23/3 35/20/3 
f 35/20/3 36/21/3 30/22/3 
s 16
f 36/46/8 35/47/8 3/48/8 
f 3/48/8 2/49/8 36/46/8 
f 2/50/9 3/48/9 33/51/9 
f 33/51/9 32/52/9 2/50/9 
s 64
f 37/53/10 38/54/10 31/30/10 
f 31/30/10 34/55/10 37/53/10 
s off
f 39/56/4 40/57/4 41/58/4 
f 41/58/4 42/59/4 39/56/4 
f 43/60/11 28/61/11 27/62/11 
f 27/62/11 44/63/11 43/60/11 
f 42/64/12 16/65/12 15/66/12 
f 15/66/12 39/67/12 42/64/12 
s 2
f 45/31/13 46/30/13 47/54/4 
f 47/54/4 48/68/4 45/31/13 
s off
f 49/31/1 50/68/1 51/54/1 
f 51/54/1 52/30/1 49/31/1 
s 2
f 49/31/14 52/30/14 46/54/13 
f 46/54/13 45/68/13 49/31/14 
s off
f 51/30/2 50/31/2 48/68/2 
f 48/68/2 47/54/2 51/30/2 
s 2
f 53/69/4 54/70/4 55/71/15 
f 55/71/15 56/72/15 53/69/4 
s off
f 57/69/1 58/72/1 59/71/1 
f 59/71/1 60/70/1 57/69/1 
f 57/31/3 60/30/3 54/54/3 
f 54/54/3 53/68/3 57/31/3 
s 2
f 59/30/16 58/31/16 56/68/15 
f 56/68/15 55/54/15 59/30/16 
s off
f 43/73/4 44/74/4 41/58/4 
f 41/58/4 40/57/4 43/73/4 
f 2/75/17 32/76/17 31/77/17 
f 31/77/17 38/78/17 2/75/17 
f 46/79/17 52/80/17 51/81/17 
f 51/81/17 47/82/17 46/79/17 
f 60/81/17 59/80/17 55/79/17 
f 55/79/17 54/82/17 60/81/17 
f 9/75/17 25/78/17 22/77/17 
f 22/77/17 21/76/17 9/75/17 
f 27/83/17 30/84/17 36/85/17 
f 27/83/17 36/85/17 2/86/17 
f 2/86/17 1/87/17 13/88/17 
f 27/83/17 2/86/17 13/88/17 
f 44/89/17 27/83/17 13/88/17 
f 5/90/17 10/91/17 9/92/17 
f 23/93/17 17/94/17 16/95/17 
f 9/92/17 23/93/17 16/95/17 
f 5/90/17 9/92/17 16/95/17 
f 42/96/17 5/90/17 16/95/17 
f 42/97/17 41/98/17 6/99/17 
f 6/99/17 5/100/17 42/97/17 
f 13/99/17 6/100/17 41/97/17 
f 41/97/17 44/98/17 13/99/17 
# 0 polygons - 82 triangles

