# 3ds Max Wavefront OBJ Exporter v0.97b - (c)2007 guruware
# File Created: 25.09.2017 08:03:22

#
# object Elevated_Node_Pavement_Steel_LOD
#

v  -7.2924 0.0000 0.0042
v  -7.2924 -2.2500 0.0042
v  -7.2924 -2.2000 32.0010
v  -7.2924 0.0500 32.0010
v  -7.5000 0.0500 31.9979
v  -7.5000 0.0000 0.0011
v  -9.0001 0.0000 0.0011
v  -9.0001 0.0500 31.9979
v  0.0000 -2.2500 -31.9990
v  0.0000 -2.2500 0.0042
v  -7.2924 -2.2500 -31.9990
v  0.0000 -2.2000 32.0010
v  7.2924 0.0000 0.0042
v  7.2924 -2.2500 0.0042
v  7.2924 -2.2500 -31.9990
v  7.2924 0.0000 -31.9990
v  7.2924 0.0500 32.0010
v  7.2924 -2.2000 32.0010
v  -7.2924 0.0000 -31.9990
v  7.5000 0.0000 -32.0021
v  7.5000 0.0000 0.0011
v  9.0001 0.0000 0.0011
v  9.0001 0.0000 -32.0021
v  7.5000 0.0500 31.9979
v  0.0000 0.0000 0.0011
v  0.0000 0.0500 31.9979
v  -7.5000 0.0000 -32.0021
v  0.0000 0.0000 -32.0021
v  9.0001 0.0500 31.9979
v  -9.0001 0.0000 -32.0021
# 30 vertices

vn -1.0000 0.0000 -0.0000
vn 0.0000 1.0000 -0.0016
vn 0.0000 1.0000 -0.0008
vn 0.0000 -1.0000 -0.0000
vn 0.0000 -1.0000 0.0008
vn -0.0000 -1.0000 0.0008
vn 0.0000 -1.0000 0.0016
vn -0.0000 -1.0000 0.0016
vn 1.0000 0.0000 -0.0000
vn 0.0000 1.0000 -0.0000
vn -0.0000 1.0000 -0.0008
# 11 vertex normals

vt 0.7331 -0.0000 0.0000
vt 0.9535 -0.0000 0.0000
vt 0.9535 1.0000 0.0000
vt 0.7331 1.0000 0.0000
vt -0.0511 0.0000 0.0000
vt -0.0511 1.0000 0.0000
vt -0.1567 1.0000 0.0000
vt -0.1567 0.0000 0.0000
vt 0.8205 1.0000 0.0000
vt 0.8205 -0.0001 0.0000
vt 0.7331 -0.0001 0.0000
vt 0.9535 0.0000 0.0000
vt 0.7331 0.0000 0.0000
vt 0.4416 1.0000 0.0000
vt 0.4416 0.0000 0.0000
vt 0.5472 0.0000 0.0000
vt 0.5472 1.0000 0.0000
vt 0.1953 1.0000 0.0000
vt 0.1953 0.0000 0.0000
vt 0.9079 1.0000 0.0000
vt 0.9079 -0.0001 0.0000
# 21 texture coords

g Elevated_Node_Pavement_Steel_LOD
s 64
f 1/1/1 2/2/1 3/3/1 
f 3/3/1 4/4/1 1/1/1 
s 1
f 5/5/2 6/6/3 7/7/3 
f 7/7/3 8/8/2 5/5/2 
s 2
f 9/9/4 10/10/5 2/11/6 
f 2/11/6 11/4/4 9/9/4 
f 10/9/5 12/10/7 3/11/8 
f 3/11/8 2/4/6 10/9/5 
s 16
f 13/4/9 14/3/9 15/12/9 
f 15/12/9 16/13/9 13/4/9 
f 17/4/9 18/3/9 14/2/9 
f 14/2/9 13/1/9 17/4/9 
s 64
f 2/3/1 1/4/1 19/13/1 
f 19/13/1 11/12/1 2/3/1 
s 1
f 20/14/10 21/15/11 22/16/3 
f 22/16/3 23/17/10 20/14/10 
f 24/15/2 21/14/11 25/18/3 
f 25/18/3 26/19/2 24/15/2 
s 2
f 15/20/4 14/21/5 10/10/5 
f 10/10/5 9/9/4 15/20/4 
f 14/20/5 18/21/7 12/10/7 
f 12/10/7 10/9/5 14/20/5 
s 1
f 27/6/10 6/5/3 25/19/3 
f 25/19/3 28/18/10 27/6/10 
f 28/18/10 25/19/3 21/15/11 
f 21/15/11 20/14/10 28/18/10 
f 29/16/2 22/17/3 21/14/11 
f 21/14/11 24/15/2 29/16/2 
f 26/19/2 25/18/3 6/6/3 
f 6/6/3 5/5/2 26/19/2 
f 30/7/10 7/8/3 6/5/3 
f 6/5/3 27/6/10 30/7/10 
# 0 polygons - 32 triangles

