# 3ds Max Wavefront OBJ Exporter v0.97b - (c)2007 guruware
# File Created: 25.09.2017 08:03:24

#
# object Elevated_Node_Fence
#

v  -8.7751 1.2580 -32.0000
v  -8.7751 2.5749 -32.0000
v  -8.6751 1.2580 -32.1998
v  -8.6751 2.5749 -32.1998
v  -8.6751 1.2580 -31.8002
v  -8.6751 2.5749 -31.8002
v  -8.6501 2.5000 -26.6667
v  -8.8001 2.5750 -26.6667
v  -8.6501 2.5000 -32.0000
v  -8.8001 2.5750 -32.0000
v  -8.6501 2.5000 -21.3333
v  -8.8001 2.5750 -21.3333
v  -8.6501 2.5000 -16.0000
v  -8.8001 2.5750 -16.0000
v  -8.6501 2.5000 -10.6667
v  -8.8001 2.5750 -10.6667
v  -8.6501 2.5000 -5.3333
v  -8.8001 2.5750 -5.3333
v  -8.6501 2.5000 -0.0000
v  -8.8001 2.5750 -0.0000
v  -8.6501 2.5000 5.3333
v  -8.8001 2.5750 5.3333
v  -8.6501 2.5000 10.6667
v  -8.8001 2.5750 10.6667
v  -8.6501 2.5000 16.0000
v  -8.8001 2.5750 16.0000
v  -8.6501 2.5000 21.3333
v  -8.8001 2.5750 21.3333
v  -8.6501 2.5000 26.6667
v  -8.8001 2.5750 26.6667
v  -8.6501 2.5000 32.0000
v  -8.8001 2.5750 32.0000
v  -8.6501 2.6500 -32.0000
v  -8.6501 2.6500 -26.6667
v  -8.6501 2.6500 -21.3333
v  -8.6501 2.6500 -16.0000
v  -8.6501 2.6500 -10.6667
v  -8.6501 2.6500 -5.3333
v  -8.6501 2.6500 -0.0000
v  -8.6501 2.6500 5.3333
v  -8.6501 2.6500 10.6667
v  -8.6501 2.6500 16.0000
v  -8.6501 2.6500 21.3333
v  -8.6501 2.6500 26.6667
v  -8.6501 2.6500 32.0000
v  -8.6949 2.1000 -26.6667
v  -8.7553 2.1451 -26.6667
v  -8.6949 2.1000 -32.0000
v  -8.7553 2.1451 -32.0000
v  -8.6949 2.1000 -21.3333
v  -8.7553 2.1451 -21.3333
v  -8.6949 2.1000 -16.0000
v  -8.7553 2.1451 -16.0000
v  -8.6949 2.1000 -10.6667
v  -8.7553 2.1451 -10.6667
v  -8.6949 2.1000 -5.3333
v  -8.7553 2.1451 -5.3333
v  -8.6949 2.1000 -0.0000
v  -8.7553 2.1451 -0.0000
v  -8.6949 2.1000 5.3333
v  -8.7553 2.1451 5.3333
v  -8.6949 2.1000 10.6667
v  -8.7553 2.1451 10.6667
v  -8.6949 2.1000 16.0000
v  -8.7553 2.1451 16.0000
v  -8.6949 2.1000 21.3333
v  -8.7553 2.1451 21.3333
v  -8.6949 2.1000 26.6667
v  -8.7553 2.1451 26.6667
v  -8.6949 2.1000 32.0000
v  -8.7553 2.1451 32.0000
v  -8.6949 2.1902 -32.0000
v  -8.6949 2.1902 -26.6667
v  -8.6949 2.1902 -21.3333
v  -8.6949 2.1902 -16.0000
v  -8.6949 2.1902 -10.6667
v  -8.6949 2.1902 -5.3333
v  -8.6949 2.1902 -0.0000
v  -8.6949 2.1902 5.3333
v  -8.6949 2.1902 10.6667
v  -8.6949 2.1902 16.0000
v  -8.6949 2.1902 21.3333
v  -8.6949 2.1902 26.6667
v  -8.6949 2.1902 32.0000
v  8.6749 2.5749 -32.1998
v  8.7749 1.2580 -32.0000
v  8.6749 1.2580 -32.1998
v  8.7749 2.5749 -32.0000
v  8.6749 2.5749 -31.8002
v  8.6749 1.2580 -31.8002
v  8.7999 2.5750 -26.6667
v  8.6499 2.5000 -26.6667
v  8.7999 2.5750 -32.0000
v  8.6499 2.5000 -32.0000
v  8.7999 2.5750 -21.3333
v  8.6499 2.5000 -21.3333
v  8.7999 2.5750 -16.0000
v  8.6499 2.5000 -16.0000
v  8.7999 2.5750 -10.6667
v  8.6499 2.5000 -10.6667
v  8.7999 2.5750 -5.3333
v  8.6499 2.5000 -5.3333
v  8.7999 2.5750 -0.0000
v  8.6499 2.5000 -0.0000
v  8.7999 2.5750 5.3333
v  8.6499 2.5000 5.3333
v  8.7999 2.5750 10.6667
v  8.6499 2.5000 10.6667
v  8.7999 2.5750 16.0000
v  8.6499 2.5000 16.0000
v  8.7999 2.5750 21.3333
v  8.6499 2.5000 21.3333
v  8.7999 2.5750 26.6667
v  8.6499 2.5000 26.6667
v  8.7999 2.5750 32.0000
v  8.6499 2.5000 32.0000
v  8.6499 2.6500 -32.0000
v  8.6499 2.6500 -26.6667
v  8.6499 2.6500 -21.3333
v  8.6499 2.6500 -16.0000
v  8.6499 2.6500 -10.6667
v  8.6499 2.6500 -5.3333
v  8.6499 2.6500 -0.0000
v  8.6499 2.6500 5.3333
v  8.6499 2.6500 10.6667
v  8.6499 2.6500 16.0000
v  8.6499 2.6500 21.3333
v  8.6499 2.6500 26.6667
v  8.6499 2.6500 32.0000
v  8.7551 2.1451 -26.6667
v  8.6947 2.1000 -26.6667
v  8.7551 2.1451 -32.0000
v  8.6947 2.1000 -32.0000
v  8.7551 2.1451 -21.3333
v  8.6947 2.1000 -21.3333
v  8.7551 2.1451 -16.0000
v  8.6947 2.1000 -16.0000
v  8.7551 2.1451 -10.6667
v  8.6947 2.1000 -10.6667
v  8.7551 2.1451 -5.3333
v  8.6947 2.1000 -5.3333
v  8.7551 2.1451 -0.0000
v  8.6947 2.1000 -0.0000
v  8.7551 2.1451 5.3333
v  8.6947 2.1000 5.3333
v  8.7551 2.1451 10.6667
v  8.6947 2.1000 10.6667
v  8.7551 2.1451 16.0000
v  8.6947 2.1000 16.0000
v  8.7551 2.1451 21.3333
v  8.6947 2.1000 21.3333
v  8.7551 2.1451 26.6667
v  8.6947 2.1000 26.6667
v  8.7551 2.1451 32.0000
v  8.6947 2.1000 32.0000
v  8.6947 2.1902 -32.0000
v  8.6947 2.1902 -26.6667
v  8.6947 2.1902 -21.3333
v  8.6947 2.1902 -16.0000
v  8.6947 2.1902 -10.6667
v  8.6947 2.1902 -5.3333
v  8.6947 2.1902 -0.0000
v  8.6947 2.1902 5.3333
v  8.6947 2.1902 10.6667
v  8.6947 2.1902 16.0000
v  8.6947 2.1902 21.3333
v  8.6947 2.1902 26.6667
v  8.6947 2.1902 32.0000
v  8.6749 2.5749 -21.5332
v  8.7749 1.2580 -21.3334
v  8.6749 1.2580 -21.5332
v  8.7749 2.5749 -21.3334
v  8.6749 2.5749 -21.1336
v  8.6749 1.2580 -21.1336
v  -8.7751 1.2580 -21.3334
v  -8.7751 2.5749 -21.3334
v  -8.6751 1.2580 -21.5332
v  -8.6751 2.5749 -21.5332
v  -8.6751 1.2580 -21.1336
v  -8.6751 2.5749 -21.1336
v  8.6749 2.5749 -10.8666
v  8.7749 1.2580 -10.6668
v  8.6749 1.2580 -10.8666
v  8.7749 2.5749 -10.6668
v  8.6749 2.5749 -10.4670
v  8.6749 1.2580 -10.4670
v  -8.7751 1.2580 -10.6668
v  -8.7751 2.5749 -10.6668
v  -8.6751 1.2580 -10.8666
v  -8.6751 2.5749 -10.8666
v  -8.6751 1.2580 -10.4670
v  -8.6751 2.5749 -10.4670
v  8.6749 2.5749 -0.2000
v  8.7749 1.2580 -0.0002
v  8.6749 1.2580 -0.2000
v  8.7749 2.5749 -0.0002
v  8.6749 2.5749 0.1996
v  8.6749 1.2580 0.1996
v  -8.7751 1.2580 -0.0002
v  -8.7751 2.5749 -0.0002
v  -8.6751 1.2580 -0.2000
v  -8.6751 2.5749 -0.2000
v  -8.6751 1.2580 0.1996
v  -8.6751 2.5749 0.1996
v  8.6749 2.5749 10.4666
v  8.7749 1.2580 10.6664
v  8.6749 1.2580 10.4666
v  8.7749 2.5749 10.6664
v  8.6749 2.5749 10.8662
v  8.6749 1.2580 10.8662
v  -8.7751 1.2580 10.6664
v  -8.7751 2.5749 10.6664
v  -8.6751 1.2580 10.4666
v  -8.6751 2.5749 10.4666
v  -8.6751 1.2580 10.8662
v  -8.6751 2.5749 10.8662
v  8.6749 2.5749 21.1332
v  8.7749 1.2580 21.3330
v  8.6749 1.2580 21.1332
v  8.7749 2.5749 21.3330
v  8.6749 2.5749 21.5328
v  8.6749 1.2580 21.5328
v  -8.7751 1.2580 21.3330
v  -8.7751 2.5749 21.3330
v  -8.6751 1.2580 21.1332
v  -8.6751 2.5749 21.1332
v  -8.6751 1.2580 21.5328
v  -8.6751 2.5749 21.5328
v  8.6749 2.5749 31.7998
v  8.7749 1.2580 31.9996
v  8.6749 1.2580 31.7998
v  8.7749 2.5749 31.9996
v  8.6749 2.5749 32.1994
v  8.6749 1.2580 32.1994
v  -8.7751 1.2580 31.9996
v  -8.7751 2.5749 31.9996
v  -8.6751 1.2580 31.7998
v  -8.6751 2.5749 31.7998
v  -8.6751 1.2580 32.1994
v  -8.6751 2.5749 32.1994
# 240 vertices

vn -1.0000 0.0000 -0.0000
vn 0.2299 0.0000 -0.9732
vn 0.2299 0.0000 0.9732
vn 0.5257 -0.8507 -0.0000
vn 0.4367 -0.7066 -0.5568
vn -0.8346 0.0000 -0.5509
vn 0.4367 -0.7066 0.5568
vn -0.8346 0.0000 0.5509
vn 0.4367 0.7066 -0.5568
vn 0.5257 0.8507 -0.0000
vn 0.4367 0.7066 0.5568
vn 0.4482 -0.8940 -0.0000
vn 0.3740 -0.7461 -0.5509
vn -0.8260 0.0000 -0.5637
vn 0.3740 -0.7461 0.5509
vn -0.8260 0.0000 0.5637
vn 0.3740 0.7461 -0.5509
vn 0.4482 0.8940 -0.0000
vn 0.3740 0.7461 0.5509
vn -0.2299 0.0000 -0.9732
vn 1.0000 0.0000 -0.0000
vn -0.2299 0.0000 0.9732
vn -0.5257 -0.8507 -0.0000
vn 0.8346 0.0000 -0.5509
vn -0.4367 -0.7066 -0.5568
vn 0.8346 0.0000 0.5509
vn -0.4367 -0.7066 0.5568
vn -0.4367 0.7066 -0.5568
vn -0.5257 0.8507 -0.0000
vn -0.4367 0.7066 0.5568
vn -0.4482 -0.8940 -0.0000
vn 0.8260 0.0000 -0.5637
vn -0.3740 -0.7461 -0.5509
vn 0.8260 0.0000 0.5637
vn -0.3740 -0.7461 0.5509
vn -0.3740 0.7461 -0.5509
vn -0.4482 0.8940 -0.0000
vn -0.3740 0.7461 0.5509
vn 1.0000 0.0000 0.0000
vn -1.0000 0.0000 0.0000
vn -0.2300 0.0000 -0.9732
vn -0.2300 0.0000 0.9732
# 42 vertex normals

vt 0.9805 0.9999 0.0000
vt 0.9890 0.0632 0.0000
vt 0.9803 1.0013 0.0000
vt 1.0018 0.0632 0.0000
vt 1.0081 0.0632 0.0000
vt 0.9988 1.0003 0.0000
vt 0.9898 1.0003 0.0000
vt 1.0083 0.0632 0.0000
vt 0.9891 0.0632 0.0000
vt 0.9991 0.9994 0.0000
vt 0.9808 0.9994 0.0000
vt 0.9991 0.9996 0.0000
vt 0.9808 0.9996 0.0000
vt 0.9991 0.9998 0.0000
vt 0.9808 0.9998 0.0000
vt 0.9991 0.9999 0.0000
vt 0.9808 0.9999 0.0000
vt 0.9988 0.9998 0.0000
vt 0.9805 0.9998 0.0000
vt 0.9991 1.0006 0.0000
vt 0.9808 1.0006 0.0000
vt 0.9991 1.0010 0.0000
vt 0.9808 1.0010 0.0000
vt 0.9991 1.0012 0.0000
vt 0.9808 1.0012 0.0000
vt 0.9991 1.0013 0.0000
vt 0.9808 1.0013 0.0000
vt 0.9967 0.8873 0.0000
vt 0.9892 0.8873 0.0000
vt 0.9967 0.0034 0.0000
vt 0.9892 0.0034 0.0000
vt 0.9964 0.8866 0.0000
vt 0.9890 0.8866 0.0000
vt 0.9964 0.0027 0.0000
vt 0.9890 0.0027 0.0000
vt 0.9964 0.8897 0.0000
vt 0.9890 0.8897 0.0000
vt 0.9964 0.0058 0.0000
vt 0.9890 0.0058 0.0000
vt 0.9896 0.9999 0.0000
vt 0.9887 0.0632 0.0000
vt 0.9805 1.0003 0.0000
vt 0.9988 1.0013 0.0000
vt 0.9991 1.0003 0.0000
vt 0.9803 0.9998 0.0000
vt 0.9985 0.0632 0.0000
vt 0.9988 0.9999 0.0000
# 47 texture coords

g Elevated_Node_Fence
s 1
f 1/1/1 2/2/1 3/3/2 
f 4/4/2 3/3/2 2/2/1 
f 5/1/3 6/2/3 1/3/1 
f 2/4/1 1/3/1 6/2/3 
f 3/4/2 4/3/2 5/2/3 
f 6/1/3 5/2/3 4/3/2 
f 7/4/4 8/2/1 9/3/5 
f 10/1/6 9/3/5 8/2/1 
f 11/5/4 12/2/1 7/6/4 
f 8/7/1 7/6/4 12/2/1 
f 13/8/4 14/9/1 11/10/4 
f 12/11/1 11/10/4 14/9/1 
f 15/8/4 16/9/1 13/12/4 
f 14/13/1 13/12/4 16/9/1 
f 17/8/4 18/9/1 15/14/4 
f 16/15/1 15/14/4 18/9/1 
f 19/8/4 20/9/1 17/16/4 
f 18/17/1 17/16/4 20/9/1 
f 21/5/4 22/2/1 19/18/4 
f 20/19/1 19/18/4 22/2/1 
f 23/4/4 24/2/1 21/3/4 
f 22/1/1 21/3/4 24/2/1 
f 25/8/4 26/9/1 23/20/4 
f 24/21/1 23/20/4 26/9/1 
f 27/8/4 28/9/1 25/22/4 
f 26/23/1 25/22/4 28/9/1 
f 29/8/4 30/9/1 27/24/4 
f 28/25/1 27/24/4 30/9/1 
f 31/8/7 32/9/8 29/26/4 
f 30/27/1 29/26/4 32/9/8 
f 10/1/6 8/2/1 33/3/9 
f 34/4/10 33/3/9 8/2/1 
f 8/7/1 12/2/1 34/6/10 
f 35/5/10 34/6/10 12/2/1 
f 12/11/1 14/9/1 35/10/10 
f 36/8/10 35/10/10 14/9/1 
f 14/13/1 16/9/1 36/12/10 
f 37/8/10 36/12/10 16/9/1 
f 16/15/1 18/9/1 37/14/10 
f 38/8/10 37/14/10 18/9/1 
f 18/17/1 20/9/1 38/16/10 
f 39/8/10 38/16/10 20/9/1 
f 20/19/1 22/2/1 39/18/10 
f 40/5/10 39/18/10 22/2/1 
f 22/1/1 24/2/1 40/3/10 
f 41/4/10 40/3/10 24/2/1 
f 24/21/1 26/9/1 41/20/10 
f 42/8/10 41/20/10 26/9/1 
f 26/23/1 28/9/1 42/22/10 
f 43/8/10 42/22/10 28/9/1 
f 28/25/1 30/9/1 43/24/10 
f 44/8/10 43/24/10 30/9/1 
f 30/27/1 32/9/8 44/26/10 
f 45/8/11 44/26/10 32/9/8 
f 33/3/9 9/1/5 10/4/6 
f 31/2/7 45/4/11 32/3/8 
f 29/28/4 44/29/10 31/30/7 
f 45/31/11 31/30/7 44/29/10 
f 27/28/4 43/29/10 29/30/4 
f 44/31/10 29/30/4 43/29/10 
f 25/28/4 42/29/10 27/30/4 
f 43/31/10 27/30/4 42/29/10 
f 23/28/4 41/29/10 25/30/4 
f 42/31/10 25/30/4 41/29/10 
f 21/32/4 40/33/10 23/34/4 
f 41/35/10 23/34/4 40/33/10 
f 19/32/4 39/33/10 21/34/4 
f 40/35/10 21/34/4 39/33/10 
f 17/28/4 38/29/10 19/30/4 
f 39/31/10 19/30/4 38/29/10 
f 15/28/4 37/29/10 17/30/4 
f 38/31/10 17/30/4 37/29/10 
f 13/28/4 36/29/10 15/30/4 
f 37/31/10 15/30/4 36/29/10 
f 11/28/4 35/29/10 13/30/4 
f 36/31/10 13/30/4 35/29/10 
f 7/36/4 34/37/10 11/38/4 
f 35/39/10 11/38/4 34/37/10 
f 9/36/5 33/37/9 7/38/4 
f 34/39/10 7/38/4 33/37/9 
f 46/4/12 47/2/1 48/40/13 
f 49/1/14 48/40/13 47/2/1 
f 50/5/12 51/2/1 46/6/12 
f 47/7/1 46/6/12 51/2/1 
f 52/8/12 53/9/1 50/10/12 
f 51/11/1 50/10/12 53/9/1 
f 54/8/12 55/9/1 52/12/12 
f 53/13/1 52/12/12 55/9/1 
f 56/8/12 57/9/1 54/14/12 
f 55/15/1 54/14/12 57/9/1 
f 58/8/12 59/9/1 56/16/12 
f 57/17/1 56/16/12 59/9/1 
f 60/5/12 61/2/1 58/18/12 
f 59/19/1 58/18/12 61/2/1 
f 62/4/12 63/2/1 60/40/12 
f 61/1/1 60/40/12 63/2/1 
f 64/8/12 65/9/1 62/20/12 
f 63/21/1 62/20/12 65/9/1 
f 66/8/12 67/9/1 64/22/12 
f 65/23/1 64/22/12 67/9/1 
f 68/8/12 69/9/1 66/24/12 
f 67/25/1 66/24/12 69/9/1 
f 70/8/15 71/9/16 68/26/12 
f 69/27/1 68/26/12 71/9/16 
f 49/1/14 47/2/1 72/40/17 
f 73/4/18 72/40/17 47/2/1 
f 47/7/1 51/2/1 73/6/18 
f 74/5/18 73/6/18 51/2/1 
f 51/11/1 53/9/1 74/10/18 
f 75/8/18 74/10/18 53/9/1 
f 53/13/1 55/9/1 75/12/18 
f 76/8/18 75/12/18 55/9/1 
f 55/15/1 57/9/1 76/14/18 
f 77/8/18 76/14/18 57/9/1 
f 57/17/1 59/9/1 77/16/18 
f 78/8/18 77/16/18 59/9/1 
f 59/19/1 61/2/1 78/18/18 
f 79/5/18 78/18/18 61/2/1 
f 61/1/1 63/2/1 79/40/18 
f 80/4/18 79/40/18 63/2/1 
f 63/21/1 65/9/1 80/20/18 
f 81/8/18 80/20/18 65/9/1 
f 65/23/1 67/9/1 81/22/18 
f 82/8/18 81/22/18 67/9/1 
f 67/25/1 69/9/1 82/24/18 
f 83/8/18 82/24/18 69/9/1 
f 69/27/1 71/9/16 83/26/18 
f 84/8/19 83/26/18 71/9/16 
f 72/40/17 48/1/13 49/4/14 
f 70/2/15 84/4/19 71/40/16 
f 68/28/12 83/29/18 70/30/15 
f 84/31/19 70/30/15 83/29/18 
f 66/28/12 82/29/18 68/30/12 
f 83/31/18 68/30/12 82/29/18 
f 64/28/12 81/29/18 66/30/12 
f 82/31/18 66/30/12 81/29/18 
f 62/28/12 80/29/18 64/30/12 
f 81/31/18 64/30/12 80/29/18 
f 60/32/12 79/33/18 62/34/12 
f 80/35/18 62/34/12 79/33/18 
f 58/32/12 78/33/18 60/34/12 
f 79/35/18 60/34/12 78/33/18 
f 56/28/12 77/29/18 58/30/12 
f 78/31/18 58/30/12 77/29/18 
f 54/28/12 76/29/18 56/30/12 
f 77/31/18 56/30/12 76/29/18 
f 52/28/12 75/29/18 54/30/12 
f 76/31/18 54/30/12 75/29/18 
f 50/28/12 74/29/18 52/30/12 
f 75/31/18 52/30/12 74/29/18 
f 46/36/12 73/37/18 50/38/12 
f 74/39/18 50/38/12 73/37/18 
f 48/36/13 72/37/17 46/38/12 
f 73/39/18 46/38/12 72/37/17 
f 85/41/20 86/3/21 87/1/20 
f 86/3/21 85/41/20 88/5/21 
f 89/41/22 87/3/20 90/1/22 
f 87/3/20 89/41/22 85/5/20 
f 88/41/21 90/3/22 86/1/21 
f 90/3/22 88/41/21 89/5/22 
f 91/5/21 92/41/23 93/3/24 
f 94/1/25 93/3/24 92/41/23 
f 95/5/21 96/2/23 91/6/21 
f 92/42/23 91/6/21 96/2/23 
f 97/8/21 98/9/23 95/10/21 
f 96/11/23 95/10/21 98/9/23 
f 99/8/21 100/9/23 97/12/21 
f 98/13/23 97/12/21 100/9/23 
f 101/8/21 102/9/23 99/14/21 
f 100/15/23 99/14/21 102/9/23 
f 103/8/21 104/9/23 101/16/21 
f 102/17/23 101/16/21 104/9/23 
f 105/5/21 106/2/23 103/18/21 
f 104/19/23 103/18/21 106/2/23 
f 107/5/21 108/41/23 105/3/21 
f 106/1/23 105/3/21 108/41/23 
f 109/8/21 110/9/23 107/20/21 
f 108/21/23 107/20/21 110/9/23 
f 111/8/21 112/9/23 109/22/21 
f 110/23/23 109/22/21 112/9/23 
f 113/8/21 114/9/23 111/24/21 
f 112/25/23 111/24/21 114/9/23 
f 115/8/26 116/9/27 113/26/21 
f 114/27/23 113/26/21 116/9/27 
f 117/1/28 118/41/29 93/1/24 
f 91/5/21 93/1/24 118/41/29 
f 118/42/29 119/2/29 91/6/21 
f 95/5/21 91/6/21 119/2/29 
f 119/11/29 120/9/29 95/10/21 
f 97/8/21 95/10/21 120/9/29 
f 120/13/29 121/9/29 97/12/21 
f 99/8/21 97/12/21 121/9/29 
f 121/15/29 122/9/29 99/14/21 
f 101/8/21 99/14/21 122/9/29 
f 122/17/29 123/9/29 101/16/21 
f 103/8/21 101/16/21 123/9/29 
f 123/19/29 124/2/29 103/18/21 
f 105/5/21 103/18/21 124/2/29 
f 124/1/29 125/41/29 105/3/21 
f 107/5/21 105/3/21 125/41/29 
f 125/21/29 126/9/29 107/20/21 
f 109/8/21 107/20/21 126/9/29 
f 126/23/29 127/9/29 109/22/21 
f 111/8/21 109/22/21 127/9/29 
f 127/25/29 128/9/29 111/24/21 
f 113/8/21 111/24/21 128/9/29 
f 128/27/29 129/9/30 113/26/21 
f 115/8/26 113/26/21 129/9/30 
f 94/41/25 117/5/28 93/1/24 
f 92/5/23 118/41/29 94/43/25 
f 117/3/28 94/43/25 118/41/29 
f 96/5/23 119/41/29 92/43/23 
f 118/3/29 92/43/23 119/41/29 
f 98/8/23 120/41/29 96/44/23 
f 119/42/29 96/44/23 120/41/29 
f 100/8/23 121/41/29 98/44/23 
f 120/42/29 98/44/23 121/41/29 
f 102/8/23 122/41/29 100/44/23 
f 121/42/29 100/44/23 122/41/29 
f 104/8/23 123/41/29 102/44/23 
f 122/42/29 102/44/23 123/41/29 
f 106/5/23 124/41/29 104/18/23 
f 123/45/29 104/18/23 124/41/29 
f 108/5/23 125/41/29 106/18/23 
f 124/45/29 106/18/23 125/41/29 
f 110/8/23 126/41/29 108/44/23 
f 125/42/29 108/44/23 126/41/29 
f 112/8/23 127/41/29 110/44/23 
f 126/42/29 110/44/23 127/41/29 
f 114/8/23 128/41/29 112/44/23 
f 127/42/29 112/44/23 128/41/29 
f 116/8/27 129/41/30 114/44/23 
f 128/42/29 114/44/23 129/41/30 
f 129/3/30 116/1/27 115/5/26 
f 130/46/21 131/2/31 132/47/32 
f 133/40/33 132/47/32 131/2/31 
f 134/5/21 135/2/31 130/6/21 
f 131/42/31 130/6/21 135/2/31 
f 136/8/21 137/9/31 134/10/21 
f 135/11/31 134/10/21 137/9/31 
f 138/8/21 139/9/31 136/12/21 
f 137/13/31 136/12/21 139/9/31 
f 140/8/21 141/9/31 138/14/21 
f 139/15/31 138/14/21 141/9/31 
f 142/8/21 143/9/31 140/16/21 
f 141/17/31 140/16/21 143/9/31 
f 144/5/21 145/2/31 142/18/21 
f 143/19/31 142/18/21 145/2/31 
f 146/46/21 147/2/31 144/47/21 
f 145/40/31 144/47/21 147/2/31 
f 148/8/21 149/9/31 146/20/21 
f 147/21/31 146/20/21 149/9/31 
f 150/8/21 151/9/31 148/22/21 
f 149/23/31 148/22/21 151/9/31 
f 152/8/21 153/9/31 150/24/21 
f 151/25/31 150/24/21 153/9/31 
f 154/8/34 155/9/35 152/26/21 
f 153/27/31 152/26/21 155/9/35 
f 156/40/36 157/2/37 132/40/32 
f 130/46/21 132/40/32 157/2/37 
f 157/42/37 158/2/37 130/6/21 
f 134/5/21 130/6/21 158/2/37 
f 158/11/37 159/9/37 134/10/21 
f 136/8/21 134/10/21 159/9/37 
f 159/13/37 160/9/37 136/12/21 
f 138/8/21 136/12/21 160/9/37 
f 160/15/37 161/9/37 138/14/21 
f 140/8/21 138/14/21 161/9/37 
f 161/17/37 162/9/37 140/16/21 
f 142/8/21 140/16/21 162/9/37 
f 162/19/37 163/2/37 142/18/21 
f 144/5/21 142/18/21 163/2/37 
f 163/40/37 164/2/37 144/47/21 
f 146/46/21 144/47/21 164/2/37 
f 164/21/37 165/9/37 146/20/21 
f 148/8/21 146/20/21 165/9/37 
f 165/23/37 166/9/37 148/22/21 
f 150/8/21 148/22/21 166/9/37 
f 166/25/37 167/9/37 150/24/21 
f 152/8/21 150/24/21 167/9/37 
f 167/27/37 168/9/38 152/26/21 
f 154/8/34 152/26/21 168/9/38 
f 133/2/33 156/46/36 132/40/32 
f 131/5/31 157/41/37 133/43/33 
f 156/3/36 133/43/33 157/41/37 
f 135/5/31 158/41/37 131/43/31 
f 157/3/37 131/43/31 158/41/37 
f 137/8/31 159/2/37 135/44/31 
f 158/42/37 135/44/31 159/2/37 
f 139/8/31 160/2/37 137/44/31 
f 159/42/37 137/44/31 160/2/37 
f 141/8/31 161/2/37 139/44/31 
f 160/42/37 139/44/31 161/2/37 
f 143/8/31 162/2/37 141/44/31 
f 161/42/37 141/44/31 162/2/37 
f 145/5/31 163/41/37 143/18/31 
f 162/45/37 143/18/31 163/41/37 
f 147/5/31 164/41/37 145/18/31 
f 163/45/37 145/18/31 164/41/37 
f 149/8/31 165/2/37 147/44/31 
f 164/42/37 147/44/31 165/2/37 
f 151/8/31 166/2/37 149/44/31 
f 165/42/37 149/44/31 166/2/37 
f 153/8/31 167/2/37 151/44/31 
f 166/42/37 151/44/31 167/2/37 
f 155/8/35 168/2/38 153/44/31 
f 167/42/37 153/44/31 168/2/38 
f 168/47/38 155/40/35 154/46/34 
f 169/46/20 170/40/21 171/1/20 
f 170/40/21 169/46/20 172/5/21 
f 173/46/22 171/40/20 174/1/22 
f 171/40/20 173/46/22 169/5/20 
f 172/46/21 174/40/22 170/1/21 
f 174/40/22 172/46/21 173/5/22 
f 175/40/1 176/2/1 177/47/2 
f 178/46/2 177/47/2 176/2/1 
f 179/40/3 180/2/3 175/47/1 
f 176/46/1 175/47/1 180/2/3 
f 177/46/2 178/47/2 179/2/3 
f 180/40/3 179/2/3 178/47/2 
f 181/46/20 182/40/39 183/1/20 
f 182/40/39 181/46/20 184/5/39 
f 185/46/22 183/40/20 186/1/22 
f 183/40/20 185/46/22 181/5/20 
f 184/46/39 186/40/22 182/1/39 
f 186/40/22 184/46/39 185/5/22 
f 187/40/40 188/2/40 189/47/2 
f 190/46/2 189/47/2 188/2/40 
f 191/40/3 192/2/3 187/47/40 
f 188/46/40 187/47/40 192/2/3 
f 189/46/2 190/47/2 191/2/3 
f 192/40/3 191/2/3 190/47/2 
f 193/46/20 194/40/21 195/1/20 
f 194/40/21 193/46/20 196/5/21 
f 197/46/22 195/40/20 198/1/22 
f 195/40/20 197/46/22 193/5/20 
f 196/46/21 198/40/22 194/1/21 
f 198/40/22 196/46/21 197/5/22 
f 199/40/1 200/2/1 201/47/2 
f 202/46/2 201/47/2 200/2/1 
f 203/40/3 204/2/3 199/47/1 
f 200/46/1 199/47/1 204/2/3 
f 201/46/2 202/47/2 203/2/3 
f 204/40/3 203/2/3 202/47/2 
f 205/46/20 206/40/21 207/1/41 
f 206/40/21 205/46/20 208/5/21 
f 209/46/22 207/40/41 210/1/22 
f 207/40/41 209/46/22 205/5/20 
f 208/46/21 210/40/22 206/1/21 
f 210/40/22 208/46/21 209/5/22 
f 211/40/40 212/2/40 213/47/2 
f 214/46/2 213/47/2 212/2/40 
f 215/40/3 216/2/3 211/47/40 
f 212/46/40 211/47/40 216/2/3 
f 213/46/2 214/47/2 215/2/3 
f 216/40/3 215/2/3 214/47/2 
f 217/46/20 218/40/39 219/1/20 
f 218/40/39 217/46/20 220/5/39 
f 221/46/42 219/40/20 222/1/22 
f 219/40/20 221/46/42 217/5/20 
f 220/46/39 222/40/22 218/1/39 
f 222/40/22 220/46/39 221/5/42 
f 223/40/40 224/2/40 225/47/2 
f 226/46/2 225/47/2 224/2/40 
f 227/40/3 228/2/3 223/47/40 
f 224/46/40 223/47/40 228/2/3 
f 225/46/2 226/47/2 227/2/3 
f 228/40/3 227/2/3 226/47/2 
f 229/46/20 230/40/21 231/1/41 
f 230/40/21 229/46/20 232/5/21 
f 233/46/22 231/40/41 234/1/22 
f 231/40/41 233/46/22 229/5/20 
f 232/46/21 234/40/22 230/1/21 
f 234/40/22 232/46/21 233/5/22 
f 235/40/1 236/2/1 237/47/2 
f 238/46/2 237/47/2 236/2/1 
f 239/40/3 240/2/3 235/47/1 
f 236/46/1 235/47/1 240/2/3 
f 237/46/2 238/47/2 239/2/3 
f 240/40/3 239/2/3 238/47/2 
# 0 polygons - 380 triangles

