# 3ds Max Wavefront OBJ Exporter v0.97b - (c)2007 guruware
# File Created: 25.09.2017 08:03:24

#
# object Elevated_Node_Fence_Steel
#

v  8.8550 1.2676 26.6669
v  8.8044 1.2970 32.0003
v  8.8550 1.2676 32.0003
v  8.8044 1.2970 26.6669
v  8.8044 1.2384 26.6669
v  8.8044 1.2384 32.0003
v  8.8550 1.2676 21.3336
v  8.8044 1.2970 21.3336
v  8.8044 1.2384 21.3336
v  8.8550 1.2676 16.0003
v  8.8044 1.2970 16.0003
v  8.8044 1.2384 16.0003
v  8.8550 1.2676 10.6669
v  8.8044 1.2970 10.6669
v  8.8044 1.2384 10.6669
v  8.8550 1.2676 5.3336
v  8.8044 1.2970 5.3336
v  8.8044 1.2384 5.3336
v  8.8550 1.2676 0.0003
v  8.8044 1.2970 0.0003
v  8.8044 1.2384 0.0003
v  8.8550 1.2676 -5.3331
v  8.8044 1.2970 -5.3331
v  8.8044 1.2384 -5.3331
v  8.8550 1.2676 -10.6664
v  8.8044 1.2970 -10.6664
v  8.8044 1.2384 -10.6664
v  8.8550 1.2676 -15.9997
v  8.8044 1.2970 -15.9997
v  8.8044 1.2384 -15.9997
v  8.8550 1.2676 -21.3331
v  8.8044 1.2970 -21.3331
v  8.8044 1.2384 -21.3331
v  8.8550 1.2676 -26.6664
v  8.8044 1.2970 -26.6664
v  8.8044 1.2384 -26.6664
v  8.8550 1.2676 -31.9997
v  8.8044 1.2970 -31.9997
v  8.8044 1.2384 -31.9997
v  8.8550 0.6628 26.6669
v  8.8044 0.6920 32.0003
v  8.8550 0.6628 32.0003
v  8.8044 0.6920 26.6669
v  8.8044 0.6334 26.6669
v  8.8044 0.6334 32.0003
v  8.8550 0.6628 21.3336
v  8.8044 0.6920 21.3336
v  8.8044 0.6334 21.3336
v  8.8550 0.6628 16.0003
v  8.8044 0.6920 16.0003
v  8.8044 0.6334 16.0003
v  8.8550 0.6628 10.6669
v  8.8044 0.6920 10.6669
v  8.8044 0.6334 10.6669
v  8.8550 0.6628 5.3336
v  8.8044 0.6920 5.3336
v  8.8044 0.6334 5.3336
v  8.8550 0.6628 0.0003
v  8.8044 0.6920 0.0003
v  8.8044 0.6334 0.0003
v  8.8550 0.6628 -5.3331
v  8.8044 0.6920 -5.3331
v  8.8044 0.6334 -5.3331
v  8.8550 0.6628 -10.6664
v  8.8044 0.6920 -10.6664
v  8.8044 0.6334 -10.6664
v  8.8550 0.6628 -15.9997
v  8.8044 0.6920 -15.9997
v  8.8044 0.6334 -15.9997
v  8.8550 0.6628 -21.3331
v  8.8044 0.6920 -21.3331
v  8.8044 0.6334 -21.3331
v  8.8550 0.6628 -26.6664
v  8.8044 0.6920 -26.6664
v  8.8044 0.6334 -26.6664
v  8.8550 0.6628 -31.9997
v  8.8044 0.6920 -31.9997
v  8.8044 0.6334 -31.9997
v  -8.8554 1.2677 -26.6664
v  -8.8048 1.2969 -31.9997
v  -8.8554 1.2677 -31.9997
v  -8.8048 1.2969 -26.6664
v  -8.8048 1.2385 -26.6664
v  -8.8048 1.2385 -31.9997
v  -8.8554 1.2677 -21.3330
v  -8.8048 1.2969 -21.3330
v  -8.8048 1.2385 -21.3330
v  -8.8554 1.2677 -15.9997
v  -8.8048 1.2969 -15.9997
v  -8.8048 1.2385 -15.9997
v  -8.8554 1.2677 -10.6664
v  -8.8048 1.2969 -10.6664
v  -8.8048 1.2385 -10.6664
v  -8.8554 1.2677 -5.3330
v  -8.8048 1.2969 -5.3330
v  -8.8048 1.2385 -5.3330
v  -8.8554 1.2677 0.0003
v  -8.8048 1.2969 0.0003
v  -8.8048 1.2385 0.0003
v  -8.8554 1.2677 5.3336
v  -8.8048 1.2969 5.3336
v  -8.8048 1.2385 5.3336
v  -8.8554 1.2677 10.6670
v  -8.8048 1.2969 10.6670
v  -8.8048 1.2385 10.6670
v  -8.8554 1.2677 16.0003
v  -8.8048 1.2969 16.0003
v  -8.8048 1.2385 16.0003
v  -8.8554 1.2677 21.3337
v  -8.8048 1.2969 21.3337
v  -8.8048 1.2385 21.3337
v  -8.8554 1.2677 26.6670
v  -8.8048 1.2969 26.6670
v  -8.8048 1.2385 26.6670
v  -8.8554 1.2677 32.0003
v  -8.8048 1.2969 32.0003
v  -8.8048 1.2385 32.0003
v  -8.8554 0.6624 -26.6664
v  -8.8048 0.6918 -31.9997
v  -8.8554 0.6624 -31.9997
v  -8.8048 0.6918 -26.6664
v  -8.8048 0.6332 -26.6664
v  -8.8048 0.6332 -31.9997
v  -8.8554 0.6624 -21.3330
v  -8.8048 0.6918 -21.3330
v  -8.8048 0.6332 -21.3330
v  -8.8554 0.6624 -15.9997
v  -8.8048 0.6918 -15.9997
v  -8.8048 0.6332 -15.9997
v  -8.8554 0.6624 -10.6664
v  -8.8048 0.6918 -10.6664
v  -8.8048 0.6332 -10.6664
v  -8.8554 0.6624 -5.3330
v  -8.8048 0.6918 -5.3330
v  -8.8048 0.6332 -5.3330
v  -8.8554 0.6624 0.0003
v  -8.8048 0.6918 0.0003
v  -8.8048 0.6332 0.0003
v  -8.8554 0.6624 5.3336
v  -8.8048 0.6918 5.3336
v  -8.8048 0.6332 5.3336
v  -8.8554 0.6624 10.6670
v  -8.8048 0.6918 10.6670
v  -8.8048 0.6332 10.6670
v  -8.8554 0.6624 16.0003
v  -8.8048 0.6918 16.0003
v  -8.8048 0.6332 16.0003
v  -8.8554 0.6624 21.3337
v  -8.8048 0.6918 21.3337
v  -8.8048 0.6332 21.3337
v  -8.8554 0.6624 26.6670
v  -8.8048 0.6918 26.6670
v  -8.8048 0.6332 26.6670
v  -8.8554 0.6624 32.0003
v  -8.8048 0.6918 32.0003
v  -8.8048 0.6332 32.0003
v  8.8210 1.2685 19.9417
v  8.9226 -0.2558 19.9999
v  8.8210 -0.2558 19.9417
v  8.9226 1.2685 19.9999
v  8.8210 1.2685 20.0581
v  8.8210 -0.2558 20.0581
v  8.8210 1.2685 -22.7250
v  8.9226 -0.2558 -22.6668
v  8.8210 -0.2558 -22.7250
v  8.9226 1.2685 -22.6668
v  8.8210 1.2685 -22.6086
v  8.8210 -0.2558 -22.6086
v  8.8210 1.2685 9.2750
v  8.9226 -0.2558 9.3332
v  8.8210 -0.2558 9.2750
v  8.9226 1.2685 9.3332
v  8.8210 1.2685 9.3914
v  8.8210 -0.2558 9.3914
v  8.8210 1.2685 -12.0584
v  8.9226 -0.2558 -12.0002
v  8.8210 -0.2558 -12.0584
v  8.9226 1.2685 -12.0002
v  8.8210 1.2685 -11.9420
v  8.8210 -0.2558 -11.9420
v  8.8210 1.2685 30.6083
v  8.9226 -0.2558 30.6665
v  8.8210 -0.2558 30.6083
v  8.9226 1.2685 30.6665
v  8.8210 1.2685 30.7247
v  8.8210 -0.2558 30.7247
v  8.8210 1.2685 -1.3917
v  8.9226 -0.2558 -1.3335
v  8.8210 -0.2558 -1.3917
v  8.9226 1.2685 -1.3335
v  8.8210 1.2685 -1.2753
v  8.8210 -0.2558 -1.2753
v  -8.8215 1.2689 20.0581
v  -8.9231 -0.2563 19.9999
v  -8.8215 -0.2563 20.0581
v  -8.9231 1.2689 19.9999
v  -8.8215 1.2689 19.9417
v  -8.8215 -0.2563 19.9417
v  -8.8215 1.2689 -22.6086
v  -8.9231 -0.2563 -22.6668
v  -8.8215 -0.2563 -22.6086
v  -8.9231 1.2689 -22.6668
v  -8.8215 1.2689 -22.7250
v  -8.8215 -0.2563 -22.7250
v  -8.8215 1.2689 9.3914
v  -8.9231 -0.2563 9.3332
v  -8.8215 -0.2563 9.3914
v  -8.9231 1.2689 9.3332
v  -8.8215 1.2689 9.2750
v  -8.8215 -0.2563 9.2750
v  -8.8215 1.2689 -11.9420
v  -8.9231 -0.2563 -12.0002
v  -8.8215 -0.2563 -11.9420
v  -8.9231 1.2689 -12.0002
v  -8.8215 1.2689 -12.0584
v  -8.8215 -0.2563 -12.0584
v  -8.8215 1.2689 30.7247
v  -8.9231 -0.2563 30.6665
v  -8.8215 -0.2563 30.7247
v  -8.9231 1.2689 30.6665
v  -8.8215 1.2689 30.6083
v  -8.8215 -0.2563 30.6083
v  -8.8215 1.2689 -1.2753
v  -8.9231 -0.2563 -1.3335
v  -8.8215 -0.2563 -1.2753
v  -8.9231 1.2689 -1.3335
v  -8.8215 1.2689 -1.3917
v  -8.8215 -0.2563 -1.3917
# 228 vertices

vn 1.0000 -0.0015 -0.0000
vn -0.4988 0.8667 -0.0000
vn -0.5001 -0.8660 -0.0000
vn 0.0000 0.0000 1.0000
vn 0.0000 0.0000 -1.0000
vn 1.0000 0.0015 -0.0000
vn -0.5001 0.8660 -0.0000
vn -0.4988 -0.8667 -0.0000
vn -1.0000 -0.0000 -0.0000
vn 0.5001 0.8660 -0.0000
vn -1.0000 0.0000 -0.0000
vn 0.5001 -0.8660 -0.0000
vn -1.0000 -0.0015 -0.0000
vn 0.4988 0.8667 -0.0000
vn -0.5015 0.0000 -0.8652
vn 1.0000 0.0000 0.0000
vn -0.5015 0.0000 0.8652
vn 1.0000 0.0000 -0.0000
vn 0.5015 0.0000 0.8652
vn -1.0000 0.0000 0.0000
vn 0.5015 0.0000 -0.8652
vn 0.0000 1.0000 -0.0000
# 22 vertex normals

vt 0.9650 0.0833 1.0000
vt 0.9532 0.0000 1.0000
vt 0.9650 0.0000 1.0000
vt 0.9532 0.0833 1.0000
vt 0.9413 0.0833 1.0000
vt 0.9295 0.0000 1.0000
vt 0.9413 0.0000 1.0000
vt 0.9295 0.0833 1.0000
vt 0.9650 0.1667 1.0000
vt 0.9532 0.1667 1.0000
vt 0.9413 0.1667 1.0000
vt 0.9295 0.1667 1.0000
vt 0.9650 0.2500 1.0000
vt 0.9532 0.2500 1.0000
vt 0.9413 0.2500 1.0000
vt 0.9295 0.2500 1.0000
vt 0.9650 0.3333 1.0000
vt 0.9532 0.3333 1.0000
vt 0.9413 0.3333 1.0000
vt 0.9295 0.3333 1.0000
vt 0.9650 0.4167 1.0000
vt 0.9532 0.4167 1.0000
vt 0.9413 0.4167 1.0000
vt 0.9295 0.4167 1.0000
vt 0.9650 0.5000 1.0000
vt 0.9532 0.5000 1.0000
vt 0.9413 0.5000 1.0000
vt 0.9295 0.5000 1.0000
vt 0.9650 0.5833 1.0000
vt 0.9532 0.5833 1.0000
vt 0.9413 0.5833 1.0000
vt 0.9295 0.5833 1.0000
vt 0.9650 0.6667 1.0000
vt 0.9532 0.6667 1.0000
vt 0.9413 0.6667 1.0000
vt 0.9295 0.6667 1.0000
vt 0.9650 0.7500 1.0000
vt 0.9532 0.7500 1.0000
vt 0.9413 0.7500 1.0000
vt 0.9295 0.7500 1.0000
vt 0.9650 0.8333 1.0000
vt 0.9532 0.8333 1.0000
vt 0.9413 0.8333 1.0000
vt 0.9295 0.8333 1.0000
vt 0.9650 0.9167 1.0000
vt 0.9532 0.9167 1.0000
vt 0.9413 0.9167 1.0000
vt 0.9295 0.9167 1.0000
vt 0.9650 1.0000 1.0000
vt 0.9532 1.0000 1.0000
vt 0.9413 1.0000 1.0000
vt 0.9295 1.0000 1.0000
vt 0.9443 1.0000 -0.2500
vt 0.9596 0.2500 -0.2500
vt 0.9289 0.2500 -0.2500
vt 0.9596 0.2500 0.2500
vt 0.9443 1.0000 0.2500
vt 0.9289 0.2500 0.2500
# 58 texture coords

g Elevated_Node_Fence_Steel
s 8
f 1/1/1 2/2/2 3/3/1 
f 2/2/2 1/1/1 4/4/2 
f 5/5/3 3/6/1 6/7/3 
f 3/6/1 5/5/3 1/8/1 
f 4/4/2 6/7/3 2/2/2 
f 6/7/3 4/4/2 5/5/3 
f 7/9/1 4/4/2 1/1/1 
f 4/4/2 7/9/1 8/10/2 
f 9/11/3 1/8/1 5/5/3 
f 1/8/1 9/11/3 7/12/1 
f 8/10/2 5/5/3 4/4/2 
f 5/5/3 8/10/2 9/11/3 
f 10/13/1 8/10/2 7/9/1 
f 8/10/2 10/13/1 11/14/2 
f 12/15/3 7/12/1 9/11/3 
f 7/12/1 12/15/3 10/16/1 
f 11/14/2 9/11/3 8/10/2 
f 9/11/3 11/14/2 12/15/3 
f 13/17/1 11/14/2 10/13/1 
f 11/14/2 13/17/1 14/18/2 
f 15/19/3 10/16/1 12/15/3 
f 10/16/1 15/19/3 13/20/1 
f 14/18/2 12/15/3 11/14/2 
f 12/15/3 14/18/2 15/19/3 
f 16/21/1 14/18/2 13/17/1 
f 14/18/2 16/21/1 17/22/2 
f 18/23/3 13/20/1 15/19/3 
f 13/20/1 18/23/3 16/24/1 
f 17/22/2 15/19/3 14/18/2 
f 15/19/3 17/22/2 18/23/3 
f 19/25/1 17/22/2 16/21/1 
f 17/22/2 19/25/1 20/26/2 
f 21/27/3 16/24/1 18/23/3 
f 16/24/1 21/27/3 19/28/1 
f 20/26/2 18/23/3 17/22/2 
f 18/23/3 20/26/2 21/27/3 
f 22/29/1 20/26/2 19/25/1 
f 20/26/2 22/29/1 23/30/2 
f 24/31/3 19/28/1 21/27/3 
f 19/28/1 24/31/3 22/32/1 
f 23/30/2 21/27/3 20/26/2 
f 21/27/3 23/30/2 24/31/3 
f 25/33/1 23/30/2 22/29/1 
f 23/30/2 25/33/1 26/34/2 
f 27/35/3 22/32/1 24/31/3 
f 22/32/1 27/35/3 25/36/1 
f 26/34/2 24/31/3 23/30/2 
f 24/31/3 26/34/2 27/35/3 
f 28/37/1 26/34/2 25/33/1 
f 26/34/2 28/37/1 29/38/2 
f 30/39/3 25/36/1 27/35/3 
f 25/36/1 30/39/3 28/40/1 
f 29/38/2 27/35/3 26/34/2 
f 27/35/3 29/38/2 30/39/3 
f 31/41/1 29/38/2 28/37/1 
f 29/38/2 31/41/1 32/42/2 
f 33/43/3 28/40/1 30/39/3 
f 28/40/1 33/43/3 31/44/1 
f 32/42/2 30/39/3 29/38/2 
f 30/39/3 32/42/2 33/43/3 
f 34/45/1 32/42/2 31/41/1 
f 32/42/2 34/45/1 35/46/2 
f 36/47/3 31/44/1 33/43/3 
f 31/44/1 36/47/3 34/48/1 
f 35/46/2 33/43/3 32/42/2 
f 33/43/3 35/46/2 36/47/3 
f 37/49/1 35/46/2 34/45/1 
f 35/46/2 37/49/1 38/50/2 
f 39/51/3 34/48/1 36/47/3 
f 34/48/1 39/51/3 37/52/1 
f 38/50/2 36/47/3 35/46/2 
f 36/47/3 38/50/2 39/51/3 
s 1
f 2/53/4 6/54/4 3/55/4 
f 39/56/5 38/57/5 37/58/5 
s 8
f 40/1/6 41/2/7 42/3/6 
f 41/2/7 40/1/6 43/4/7 
f 44/5/8 42/6/6 45/7/8 
f 42/6/6 44/5/8 40/8/6 
f 43/4/7 45/7/8 41/2/7 
f 45/7/8 43/4/7 44/5/8 
f 46/9/6 43/4/7 40/1/6 
f 43/4/7 46/9/6 47/10/7 
f 48/11/8 40/8/6 44/5/8 
f 40/8/6 48/11/8 46/12/6 
f 47/10/7 44/5/8 43/4/7 
f 44/5/8 47/10/7 48/11/8 
f 49/13/6 47/10/7 46/9/6 
f 47/10/7 49/13/6 50/14/7 
f 51/15/8 46/12/6 48/11/8 
f 46/12/6 51/15/8 49/16/6 
f 50/14/7 48/11/8 47/10/7 
f 48/11/8 50/14/7 51/15/8 
f 52/17/6 50/14/7 49/13/6 
f 50/14/7 52/17/6 53/18/7 
f 54/19/8 49/16/6 51/15/8 
f 49/16/6 54/19/8 52/20/6 
f 53/18/7 51/15/8 50/14/7 
f 51/15/8 53/18/7 54/19/8 
f 55/21/6 53/18/7 52/17/6 
f 53/18/7 55/21/6 56/22/7 
f 57/23/8 52/20/6 54/19/8 
f 52/20/6 57/23/8 55/24/6 
f 56/22/7 54/19/8 53/18/7 
f 54/19/8 56/22/7 57/23/8 
f 58/25/6 56/22/7 55/21/6 
f 56/22/7 58/25/6 59/26/7 
f 60/27/8 55/24/6 57/23/8 
f 55/24/6 60/27/8 58/28/6 
f 59/26/7 57/23/8 56/22/7 
f 57/23/8 59/26/7 60/27/8 
f 61/29/6 59/26/7 58/25/6 
f 59/26/7 61/29/6 62/30/7 
f 63/31/8 58/28/6 60/27/8 
f 58/28/6 63/31/8 61/32/6 
f 62/30/7 60/27/8 59/26/7 
f 60/27/8 62/30/7 63/31/8 
f 64/33/6 62/30/7 61/29/6 
f 62/30/7 64/33/6 65/34/7 
f 66/35/8 61/32/6 63/31/8 
f 61/32/6 66/35/8 64/36/6 
f 65/34/7 63/31/8 62/30/7 
f 63/31/8 65/34/7 66/35/8 
f 67/37/6 65/34/7 64/33/6 
f 65/34/7 67/37/6 68/38/7 
f 69/39/8 64/36/6 66/35/8 
f 64/36/6 69/39/8 67/40/6 
f 68/38/7 66/35/8 65/34/7 
f 66/35/8 68/38/7 69/39/8 
f 70/41/6 68/38/7 67/37/6 
f 68/38/7 70/41/6 71/42/7 
f 72/43/8 67/40/6 69/39/8 
f 67/40/6 72/43/8 70/44/6 
f 71/42/7 69/39/8 68/38/7 
f 69/39/8 71/42/7 72/43/8 
f 73/45/6 71/42/7 70/41/6 
f 71/42/7 73/45/6 74/46/7 
f 75/47/8 70/44/6 72/43/8 
f 70/44/6 75/47/8 73/48/6 
f 74/46/7 72/43/8 71/42/7 
f 72/43/8 74/46/7 75/47/8 
f 76/49/6 74/46/7 73/45/6 
f 74/46/7 76/49/6 77/50/7 
f 78/51/8 73/48/6 75/47/8 
f 73/48/6 78/51/8 76/52/6 
f 77/50/7 75/47/8 74/46/7 
f 75/47/8 77/50/7 78/51/8 
s 1
f 41/53/4 45/54/4 42/55/4 
f 78/56/5 77/57/5 76/58/5 
s 8
f 79/1/9 80/2/10 81/3/11 
f 80/2/10 79/1/9 82/4/10 
f 83/5/12 81/6/11 84/7/12 
f 81/6/11 83/5/12 79/8/9 
f 82/4/10 84/7/12 80/2/10 
f 84/7/12 82/4/10 83/5/12 
f 85/9/9 82/4/10 79/1/9 
f 82/4/10 85/9/9 86/10/10 
f 87/11/12 79/8/9 83/5/12 
f 79/8/9 87/11/12 85/12/9 
f 86/10/10 83/5/12 82/4/10 
f 83/5/12 86/10/10 87/11/12 
f 88/13/11 86/10/10 85/9/9 
f 86/10/10 88/13/11 89/14/10 
f 90/15/12 85/12/9 87/11/12 
f 85/12/9 90/15/12 88/16/11 
f 89/14/10 87/11/12 86/10/10 
f 87/11/12 89/14/10 90/15/12 
f 91/17/9 89/14/10 88/13/11 
f 89/14/10 91/17/9 92/18/10 
f 93/19/12 88/16/11 90/15/12 
f 88/16/11 93/19/12 91/20/9 
f 92/18/10 90/15/12 89/14/10 
f 90/15/12 92/18/10 93/19/12 
f 94/21/9 92/18/10 91/17/9 
f 92/18/10 94/21/9 95/22/10 
f 96/23/12 91/20/9 93/19/12 
f 91/20/9 96/23/12 94/24/9 
f 95/22/10 93/19/12 92/18/10 
f 93/19/12 95/22/10 96/23/12 
f 97/25/11 95/22/10 94/21/9 
f 95/22/10 97/25/11 98/26/10 
f 99/27/12 94/24/9 96/23/12 
f 94/24/9 99/27/12 97/28/11 
f 98/26/10 96/23/12 95/22/10 
f 96/23/12 98/26/10 99/27/12 
f 100/29/9 98/26/10 97/25/11 
f 98/26/10 100/29/9 101/30/10 
f 102/31/12 97/28/11 99/27/12 
f 97/28/11 102/31/12 100/32/9 
f 101/30/10 99/27/12 98/26/10 
f 99/27/12 101/30/10 102/31/12 
f 103/33/11 101/30/10 100/29/9 
f 101/30/10 103/33/11 104/34/10 
f 105/35/12 100/32/9 102/31/12 
f 100/32/9 105/35/12 103/36/11 
f 104/34/10 102/31/12 101/30/10 
f 102/31/12 104/34/10 105/35/12 
f 106/37/9 104/34/10 103/33/11 
f 104/34/10 106/37/9 107/38/10 
f 108/39/12 103/36/11 105/35/12 
f 103/36/11 108/39/12 106/40/9 
f 107/38/10 105/35/12 104/34/10 
f 105/35/12 107/38/10 108/39/12 
f 109/41/11 107/38/10 106/37/9 
f 107/38/10 109/41/11 110/42/10 
f 111/43/12 106/40/9 108/39/12 
f 106/40/9 111/43/12 109/44/11 
f 110/42/10 108/39/12 107/38/10 
f 108/39/12 110/42/10 111/43/12 
f 112/45/9 110/42/10 109/41/11 
f 110/42/10 112/45/9 113/46/10 
f 114/47/12 109/44/11 111/43/12 
f 109/44/11 114/47/12 112/48/9 
f 113/46/10 111/43/12 110/42/10 
f 111/43/12 113/46/10 114/47/12 
f 115/49/11 113/46/10 112/45/9 
f 113/46/10 115/49/11 116/50/10 
f 117/51/12 112/48/9 114/47/12 
f 112/48/9 117/51/12 115/52/11 
f 116/50/10 114/47/12 113/46/10 
f 114/47/12 116/50/10 117/51/12 
s 1
f 80/53/5 84/54/5 81/55/5 
f 117/56/4 116/57/4 115/58/4 
s 8
f 118/1/13 119/2/14 120/3/13 
f 119/2/14 118/1/13 121/4/14 
f 122/5/12 120/6/13 123/7/12 
f 120/6/13 122/5/12 118/8/13 
f 121/4/14 123/7/12 119/2/14 
f 123/7/12 121/4/14 122/5/12 
f 124/9/13 121/4/14 118/1/13 
f 121/4/14 124/9/13 125/10/14 
f 126/11/12 118/8/13 122/5/12 
f 118/8/13 126/11/12 124/12/13 
f 125/10/14 122/5/12 121/4/14 
f 122/5/12 125/10/14 126/11/12 
f 127/13/13 125/10/14 124/9/13 
f 125/10/14 127/13/13 128/14/14 
f 129/15/12 124/12/13 126/11/12 
f 124/12/13 129/15/12 127/16/13 
f 128/14/14 126/11/12 125/10/14 
f 126/11/12 128/14/14 129/15/12 
f 130/17/13 128/14/14 127/13/13 
f 128/14/14 130/17/13 131/18/14 
f 132/19/12 127/16/13 129/15/12 
f 127/16/13 132/19/12 130/20/13 
f 131/18/14 129/15/12 128/14/14 
f 129/15/12 131/18/14 132/19/12 
f 133/21/13 131/18/14 130/17/13 
f 131/18/14 133/21/13 134/22/14 
f 135/23/12 130/20/13 132/19/12 
f 130/20/13 135/23/12 133/24/13 
f 134/22/14 132/19/12 131/18/14 
f 132/19/12 134/22/14 135/23/12 
f 136/25/13 134/22/14 133/21/13 
f 134/22/14 136/25/13 137/26/14 
f 138/27/12 133/24/13 135/23/12 
f 133/24/13 138/27/12 136/28/13 
f 137/26/14 135/23/12 134/22/14 
f 135/23/12 137/26/14 138/27/12 
f 139/29/13 137/26/14 136/25/13 
f 137/26/14 139/29/13 140/30/14 
f 141/31/12 136/28/13 138/27/12 
f 136/28/13 141/31/12 139/32/13 
f 140/30/14 138/27/12 137/26/14 
f 138/27/12 140/30/14 141/31/12 
f 142/33/13 140/30/14 139/29/13 
f 140/30/14 142/33/13 143/34/14 
f 144/35/12 139/32/13 141/31/12 
f 139/32/13 144/35/12 142/36/13 
f 143/34/14 141/31/12 140/30/14 
f 141/31/12 143/34/14 144/35/12 
f 145/37/13 143/34/14 142/33/13 
f 143/34/14 145/37/13 146/38/14 
f 147/39/12 142/36/13 144/35/12 
f 142/36/13 147/39/12 145/40/13 
f 146/38/14 144/35/12 143/34/14 
f 144/35/12 146/38/14 147/39/12 
f 148/41/13 146/38/14 145/37/13 
f 146/38/14 148/41/13 149/42/14 
f 150/43/12 145/40/13 147/39/12 
f 145/40/13 150/43/12 148/44/13 
f 149/42/14 147/39/12 146/38/14 
f 147/39/12 149/42/14 150/43/12 
f 151/45/13 149/42/14 148/41/13 
f 149/42/14 151/45/13 152/46/14 
f 153/47/12 148/44/13 150/43/12 
f 148/44/13 153/47/12 151/48/13 
f 152/46/14 150/43/12 149/42/14 
f 150/43/12 152/46/14 153/47/12 
f 154/49/13 152/46/14 151/45/13 
f 152/46/14 154/49/13 155/50/14 
f 156/51/12 151/48/13 153/47/12 
f 151/48/13 156/51/12 154/52/13 
f 155/50/14 153/47/12 152/46/14 
f 153/47/12 155/50/14 156/51/12 
s 1
f 119/53/5 123/54/5 120/55/5 
f 156/56/4 155/57/4 154/58/4 
s 2097152
f 157/49/15 158/2/16 159/3/15 
f 158/2/16 157/49/15 160/50/16 
f 161/51/17 159/6/15 162/7/17 
f 159/6/15 161/51/17 157/52/15 
f 160/50/16 162/7/17 158/2/16 
f 162/7/17 160/50/16 161/51/17 
f 163/49/15 164/2/16 165/3/15 
f 164/2/16 163/49/15 166/50/16 
f 167/51/17 165/6/15 168/7/17 
f 165/6/15 167/51/17 163/52/15 
f 166/50/16 168/7/17 164/2/16 
f 168/7/17 166/50/16 167/51/17 
f 169/49/15 170/2/18 171/3/15 
f 170/2/18 169/49/15 172/50/16 
f 173/51/17 171/6/15 174/7/17 
f 171/6/15 173/51/17 169/52/15 
f 172/50/16 174/7/17 170/2/18 
f 174/7/17 172/50/16 173/51/17 
f 175/49/15 176/2/18 177/3/15 
f 176/2/18 175/49/15 178/50/16 
f 179/51/17 177/6/15 180/7/17 
f 177/6/15 179/51/17 175/52/15 
f 178/50/16 180/7/17 176/2/18 
f 180/7/17 178/50/16 179/51/17 
f 181/49/15 182/2/18 183/3/15 
f 182/2/18 181/49/15 184/50/18 
f 185/51/17 183/6/15 186/7/17 
f 183/6/15 185/51/17 181/52/15 
f 184/50/18 186/7/17 182/2/18 
f 186/7/17 184/50/18 185/51/17 
f 187/49/15 188/2/18 189/3/15 
f 188/2/18 187/49/15 190/50/16 
f 191/51/17 189/6/15 192/7/17 
f 189/6/15 191/51/17 187/52/15 
f 190/50/16 192/7/17 188/2/18 
f 192/7/17 190/50/16 191/51/17 
s 8
f 193/49/19 194/2/20 195/3/19 
f 194/2/20 193/49/19 196/50/20 
f 197/51/21 195/6/19 198/7/21 
f 195/6/19 197/51/21 193/52/19 
f 196/50/20 198/7/21 194/2/20 
f 198/7/21 196/50/20 197/51/21 
f 199/49/19 200/2/20 201/3/19 
f 200/2/20 199/49/19 202/50/20 
f 203/51/21 201/6/19 204/7/21 
f 201/6/19 203/51/21 199/52/19 
f 202/50/20 204/7/21 200/2/20 
f 204/7/21 202/50/20 203/51/21 
f 205/49/19 206/2/20 207/3/19 
f 206/2/20 205/49/19 208/50/20 
f 209/51/21 207/6/19 210/7/21 
f 207/6/19 209/51/21 205/52/19 
f 208/50/20 210/7/21 206/2/20 
f 210/7/21 208/50/20 209/51/21 
f 211/49/19 212/2/20 213/3/19 
f 212/2/20 211/49/19 214/50/11 
f 215/51/21 213/6/19 216/7/21 
f 213/6/19 215/51/21 211/52/19 
f 214/50/11 216/7/21 212/2/20 
f 216/7/21 214/50/11 215/51/21 
f 217/49/19 218/2/20 219/3/19 
f 218/2/20 217/49/19 220/50/11 
f 221/51/21 219/6/19 222/7/21 
f 219/6/19 221/51/21 217/52/19 
f 220/50/11 222/7/21 218/2/20 
f 222/7/21 220/50/11 221/51/21 
f 223/49/19 224/2/20 225/3/19 
f 224/2/20 223/49/19 226/50/11 
f 227/51/21 225/6/19 228/7/21 
f 225/6/19 227/51/21 223/52/19 
f 226/50/11 228/7/21 224/2/20 
f 228/7/21 226/50/11 227/51/21 
s off
f 161/51/22 160/50/22 157/49/22 
f 167/51/22 166/50/22 163/49/22 
f 173/51/22 172/50/22 169/49/22 
f 179/51/22 178/50/22 175/49/22 
f 185/51/22 184/50/22 181/49/22 
f 191/51/22 190/50/22 187/49/22 
f 197/51/22 196/50/22 193/49/22 
f 203/51/22 202/50/22 199/49/22 
f 209/51/22 208/50/22 205/49/22 
f 215/51/22 214/50/22 211/49/22 
f 221/51/22 220/50/22 217/49/22 
f 227/51/22 226/50/22 223/49/22 
# 0 polygons - 380 triangles

