# 3ds Max Wavefront OBJ Exporter v0.97b - (c)2007 guruware
# File Created: 25.09.2017 08:03:15

#
# object Elevated_ThirdRail_Base_Node
#

v  -0.6498 0.1999 -26.4844
v  -0.2998 0.1999 -26.4844
v  -0.2998 0.2001 -26.8344
v  -0.6498 0.2001 -26.8344
v  -0.6498 -0.0001 -26.4844
v  -0.2998 -0.0001 -26.4844
v  -0.2998 0.0001 -26.8344
v  -0.6498 0.0001 -26.8344
v  0.3002 0.1999 -26.4848
v  0.6502 0.1999 -26.4848
v  0.6502 0.2001 -26.8348
v  0.3002 0.2001 -26.8348
v  0.3002 -0.0001 -26.4848
v  0.6502 -0.0001 -26.4848
v  0.6502 0.0001 -26.8348
v  0.3002 0.0001 -26.8348
# 16 vertices

vn 0.0000 1.0000 0.0006
vn 0.0000 0.0000 1.0000
vn 1.0000 0.0000 -0.0000
vn 0.0000 0.0000 -1.0000
vn -1.0000 0.0000 -0.0000
# 5 vertex normals

vt 0.9283 0.3593 0.0000
vt 0.9636 0.3593 0.0000
vt 0.9636 0.4243 0.0000
vt 0.9283 0.4243 0.0000
# 4 texture coords

g Elevated_ThirdRail_Base_Node
s 4
f 1/1/1 2/2/1 3/3/1 
f 3/3/1 4/4/1 1/1/1 
s 8
f 5/1/2 6/2/2 2/3/2 
f 2/3/2 1/4/2 5/1/2 
s 16
f 6/1/3 7/2/3 3/3/3 
f 3/3/3 2/4/3 6/1/3 
s 32
f 7/1/4 8/2/4 4/3/4 
f 4/3/4 3/4/4 7/1/4 
s 64
f 8/1/5 5/2/5 1/3/5 
f 1/3/5 4/4/5 8/1/5 
s 4
f 9/1/1 10/2/1 11/3/1 
f 11/3/1 12/4/1 9/1/1 
s 8
f 13/1/2 14/2/2 10/3/2 
f 10/3/2 9/4/2 13/1/2 
s 16
f 14/1/3 15/2/3 11/3/3 
f 11/3/3 10/4/3 14/1/3 
s 32
f 15/1/4 16/2/4 12/3/4 
f 12/3/4 11/4/4 15/1/4 
s 64
f 16/1/5 13/2/5 9/3/5 
f 9/3/5 12/4/5 16/1/5 
# 0 polygons - 20 triangles

