# 3ds Max Wavefront OBJ Exporter v0.97b - (c)2007 guruware
# File Created: 25.09.2017 08:03:10

#
# object Ground_Station_Node_Fence_LOD
#

v  8.7000 2.7000 32.0000
v  9.0000 2.7000 32.0000
v  9.0000 2.7000 -0.0000
v  8.7000 2.7000 -0.0000
v  8.7000 0.0500 32.0000
v  9.0000 0.0500 32.0000
v  9.0000 0.0500 -0.0000
v  8.7000 0.0500 -0.0000
v  -9.0000 2.7000 32.0000
v  -8.7000 2.7000 32.0000
v  -8.7000 2.7000 -0.0000
v  -9.0000 2.7000 -0.0000
v  -9.0000 0.0500 32.0000
v  -8.7000 0.0500 32.0000
v  -8.7000 0.0500 -0.0000
v  -9.0000 0.0500 -0.0000
# 16 vertices

vn 0.0000 1.0000 -0.0000
vn 0.0000 0.0000 1.0000
vn 1.0000 0.0000 -0.0000
vn -1.0000 0.0000 -0.0000
# 4 vertex normals

vt 0.0000 1.3175 0.0000
vt 1.0000 1.3175 0.0000
vt 1.0000 1.8175 0.0000
vt 0.0000 1.8175 0.0000
vt 0.9860 0.0000 0.0000
vt 0.9860 1.0000 0.0000
vt 0.9228 1.0000 0.0000
vt 0.9228 0.0000 0.0000
vt 0.9860 0.5000 0.0000
vt 0.9228 0.5000 0.0000
vt 0.0000 0.0000 0.0000
vt 1.0000 0.0000 0.0000
vt 1.0000 0.5000 0.0000
vt 0.0000 0.5000 0.0000
# 14 texture coords

g Ground_Station_Node_Fence_LOD
s off
f 1/1/1 2/2/1 3/3/1 
f 3/3/1 4/4/1 1/1/1 
f 5/5/2 6/6/2 2/7/2 
f 2/7/2 1/8/2 5/5/2 
f 6/5/3 7/9/3 3/10/3 
f 3/10/3 2/8/3 6/5/3 
f 5/6/4 1/7/4 4/10/4 
f 4/10/4 8/9/4 5/6/4 
f 9/11/1 10/12/1 11/13/1 
f 11/13/1 12/14/1 9/11/1 
f 13/5/2 14/6/2 10/7/2 
f 10/7/2 9/8/2 13/5/2 
f 14/5/3 15/9/3 11/10/3 
f 11/10/3 10/8/3 14/5/3 
f 13/6/4 9/7/4 12/10/4 
f 12/10/4 16/9/4 13/6/4 
# 0 polygons - 16 triangles

