# 3ds Max Wavefront OBJ Exporter v0.97b - (c)2007 guruware
# File Created: 30.09.2018 09:07:21

#
# object Ground_Node_Pavement
#

v  -12.0000 -3.1650 -0.0000
v  -9.0000 0.0500 -0.0000
v  -9.0000 0.0500 -5.3333
v  -12.0000 -3.1650 -5.3333
v  12.0000 -3.1650 -0.0000
v  9.0000 0.0500 -0.0000
v  9.0000 0.0500 5.3333
v  12.0000 -3.1650 5.3333
v  -12.0000 -3.1650 32.0000
v  -9.0000 0.0500 32.0000
v  -9.0000 0.0500 26.6667
v  -12.0000 -3.1650 26.6667
v  -9.0000 0.0500 21.3333
v  -12.0000 -3.1650 21.3333
v  -9.0000 0.0500 16.0000
v  -12.0000 -3.1650 16.0000
v  -9.0000 0.0500 10.6667
v  -12.0000 -3.1650 10.6667
v  -9.0000 0.0500 5.3333
v  -12.0000 -3.1650 5.3333
v  -9.0000 0.0500 -32.0000
v  -12.0000 -3.1650 -32.0000
v  -12.0000 -3.1650 -26.6667
v  -9.0000 0.0500 -26.6667
v  -12.0000 -3.1650 -21.3333
v  -9.0000 0.0500 -21.3333
v  -12.0000 -3.1650 -16.0000
v  -9.0000 0.0500 -16.0000
v  -12.0000 -3.1650 -10.6667
v  -9.0000 0.0500 -10.6667
v  12.0000 -3.1650 -32.0000
v  9.0000 0.0500 -32.0000
v  9.0000 0.0500 -26.6667
v  12.0000 -3.1650 -26.6667
v  9.0000 0.0500 -21.3333
v  12.0000 -3.1650 -21.3333
v  9.0000 0.0500 -16.0000
v  12.0000 -3.1650 -16.0000
v  9.0000 0.0500 -10.6667
v  12.0000 -3.1650 -10.6667
v  9.0000 0.0500 -5.3333
v  12.0000 -3.1650 -5.3333
v  9.0000 0.0500 32.0000
v  12.0000 -3.1650 32.0000
v  12.0000 -3.1650 26.6667
v  9.0000 0.0500 26.6667
v  12.0000 -3.1650 21.3333
v  9.0000 0.0500 21.3333
v  12.0000 -3.1650 16.0000
v  9.0000 0.0500 16.0000
v  12.0000 -3.1650 10.6667
v  9.0000 0.0500 10.6667
v  -7.0000 0.0500 5.3333
v  -7.0000 0.0500 -0.0000
v  -7.0000 0.0500 10.6667
v  -7.0000 0.0500 16.0000
v  -7.0000 0.0500 21.3333
v  -7.0000 0.0500 26.6667
v  7.0000 0.0500 26.6667
v  7.0000 0.0500 32.0000
v  -7.0000 0.0500 -5.3333
v  7.0000 0.0500 -10.6667
v  7.0000 0.0500 -5.3333
v  7.0000 0.0500 -16.0000
v  7.0000 0.0500 -21.3333
v  7.0000 0.0500 -26.6667
v  -7.0000 0.0500 -26.6667
v  -7.0000 0.0500 -32.0000
v  -7.0000 0.0500 32.0000
v  0.0000 0.0500 32.0000
v  0.0000 0.0500 26.6667
v  7.0000 0.0500 -0.0000
v  7.0000 0.0500 5.3333
v  7.0000 0.0500 10.6667
v  7.0000 0.0500 16.0000
v  7.0000 0.0500 21.3333
v  0.0000 0.0500 -10.6667
v  0.0000 0.0500 -5.3333
v  0.0000 0.0500 -16.0000
v  0.0000 0.0500 -21.3333
v  0.0000 0.0500 -26.6667
v  7.0000 0.0500 -32.0000
v  0.0000 0.0500 5.3333
v  0.0000 0.0500 -0.0000
v  0.0000 0.0500 10.6667
v  0.0000 0.0500 16.0000
v  0.0000 0.0500 21.3333
v  0.0000 0.0500 -32.0000
v  -7.0000 0.0500 -10.6667
v  -7.0000 0.0500 -16.0000
v  -7.0000 0.0500 -21.3333
v  7.0000 -0.5000 32.0000
v  9.0000 -0.5000 32.0000
v  -7.0000 -0.5000 32.0000
v  0.0000 -0.5000 32.0000
v  -9.0000 -0.5000 32.0000
# 96 vertices

vn -0.7311 0.6822 -0.0000
vn 0.7311 0.6822 -0.0000
vn 0.0000 1.0000 -0.0000
vn 0.0000 0.0000 1.0000
# 4 vertex normals

vt 0.0003 0.5000 0.0000
vt 0.0006 0.5000 0.0000
vt 0.0006 0.5833 0.0000
vt 0.0003 0.5833 0.0000
vt 0.0002 0.5000 0.0000
vt 0.0002 0.4167 0.0000
vt 0.0006 0.4167 0.0000
vt 0.0003 0.0000 0.0000
vt 0.0006 0.0000 0.0000
vt 0.0006 0.0833 0.0000
vt 0.0003 0.0833 0.0000
vt 0.0006 0.1667 0.0000
vt 0.0003 0.1667 0.0000
vt 0.0006 0.2500 0.0000
vt 0.0003 0.2500 0.0000
vt 0.0006 0.3333 0.0000
vt 0.0003 0.3333 0.0000
vt 0.0003 0.4167 0.0000
vt 0.0006 1.0000 0.0000
vt 0.0003 1.0000 0.0000
vt 0.0003 0.9167 0.0000
vt 0.0006 0.9167 0.0000
vt 0.0003 0.8333 0.0000
vt 0.0006 0.8333 0.0000
vt 0.0003 0.7500 0.0000
vt 0.0006 0.7500 0.0000
vt 0.0003 0.6667 0.0000
vt 0.0006 0.6667 0.0000
vt 0.0002 1.0000 0.0000
vt 0.0002 0.9167 0.0000
vt 0.0002 0.8333 0.0000
vt 0.0002 0.7500 0.0000
vt 0.0002 0.6667 0.0000
vt 0.0002 0.5833 0.0000
vt 0.0002 0.0000 0.0000
vt 0.0002 0.0833 0.0000
vt 0.0002 0.1667 0.0000
vt 0.0002 0.2500 0.0000
vt 0.0002 0.3333 0.0000
vt -0.0001 0.4167 0.0000
vt 0.1249 0.4167 0.0000
vt 0.1249 0.5000 0.0000
vt -0.0001 0.5000 0.0000
vt -0.0001 0.3333 0.0000
vt 0.1249 0.3333 0.0000
vt -0.0001 0.2500 0.0000
vt 0.1249 0.2500 0.0000
vt -0.0001 0.1667 0.0000
vt 0.1249 0.1667 0.0000
vt -0.0001 0.0833 0.0000
vt 0.1249 0.0833 0.0000
vt 0.8751 0.0833 0.0000
vt 0.8751 0.0000 0.0000
vt 1.0001 0.0000 0.0000
vt 1.0001 0.0833 0.0000
vt 0.1249 0.5833 0.0000
vt -0.0001 0.5833 0.0000
vt 1.0001 0.6667 0.0000
vt 0.8751 0.6667 0.0000
vt 0.8751 0.5833 0.0000
vt 1.0001 0.5833 0.0000
vt 1.0001 0.7500 0.0000
vt 0.8751 0.7500 0.0000
vt 1.0001 0.8333 0.0000
vt 0.8751 0.8333 0.0000
vt 1.0001 0.9167 0.0000
vt 0.8751 0.9167 0.0000
vt 0.1249 0.9167 0.0000
vt 0.1249 1.0000 0.0000
vt -0.0001 1.0000 0.0000
vt -0.0001 0.9167 0.0000
vt 0.1249 0.0000 0.0000
vt 0.5000 0.0000 0.0000
vt 0.5000 0.0833 0.0000
vt 1.0001 0.4167 0.0000
vt 1.0001 0.5000 0.0000
vt 0.8751 0.5000 0.0000
vt 0.8751 0.4167 0.0000
vt 1.0001 0.3333 0.0000
vt 0.8751 0.3333 0.0000
vt 1.0001 0.2500 0.0000
vt 0.8751 0.2500 0.0000
vt 1.0001 0.1667 0.0000
vt 0.8751 0.1667 0.0000
vt 0.5000 0.6667 0.0000
vt 0.5000 0.5833 0.0000
vt 0.5000 0.7500 0.0000
vt 0.5000 0.8333 0.0000
vt 0.5000 0.9167 0.0000
vt 1.0001 1.0000 0.0000
vt 0.8751 1.0000 0.0000
vt 0.5000 0.4167 0.0000
vt 0.5000 0.5000 0.0000
vt 0.5000 0.3333 0.0000
vt 0.5000 0.2500 0.0000
vt 0.5000 0.1667 0.0000
vt 0.5000 1.0000 0.0000
vt -0.0001 0.0000 0.0000
vt -0.0001 0.6667 0.0000
vt 0.1249 0.6667 0.0000
vt -0.0001 0.7500 0.0000
vt 0.1249 0.7500 0.0000
vt -0.0001 0.8333 0.0000
vt 0.1249 0.8333 0.0000
# 104 texture coords

g Ground_Node_Pavement
s off
f 1/1/1 2/2/1 3/3/1 
f 3/3/1 4/4/1 1/1/1 
f 5/2/2 6/5/2 7/6/2 
f 7/6/2 8/7/2 5/2/2 
f 9/8/1 10/9/1 11/10/1 
f 11/10/1 12/11/1 9/8/1 
f 12/11/1 11/10/1 13/12/1 
f 13/12/1 14/13/1 12/11/1 
f 14/13/1 13/12/1 15/14/1 
f 15/14/1 16/15/1 14/13/1 
f 16/15/1 15/14/1 17/16/1 
f 17/16/1 18/17/1 16/15/1 
f 18/17/1 17/16/1 19/7/1 
f 19/7/1 20/18/1 18/17/1 
f 20/18/1 19/7/1 2/2/1 
f 2/2/1 1/1/1 20/18/1 
f 21/19/1 22/20/1 23/21/1 
f 23/21/1 24/22/1 21/19/1 
f 24/22/1 23/21/1 25/23/1 
f 25/23/1 26/24/1 24/22/1 
f 26/24/1 25/23/1 27/25/1 
f 27/25/1 28/26/1 26/24/1 
f 28/26/1 27/25/1 29/27/1 
f 29/27/1 30/28/1 28/26/1 
f 30/28/1 29/27/1 4/4/1 
f 4/4/1 3/3/1 30/28/1 
f 31/19/2 32/29/2 33/30/2 
f 33/30/2 34/22/2 31/19/2 
f 34/22/2 33/30/2 35/31/2 
f 35/31/2 36/24/2 34/22/2 
f 36/24/2 35/31/2 37/32/2 
f 37/32/2 38/26/2 36/24/2 
f 38/26/2 37/32/2 39/33/2 
f 39/33/2 40/28/2 38/26/2 
f 40/28/2 39/33/2 41/34/2 
f 41/34/2 42/3/2 40/28/2 
f 42/3/2 41/34/2 6/5/2 
f 6/5/2 5/2/2 42/3/2 
f 43/35/2 44/9/2 45/10/2 
f 45/10/2 46/36/2 43/35/2 
f 46/36/2 45/10/2 47/12/2 
f 47/12/2 48/37/2 46/36/2 
f 48/37/2 47/12/2 49/14/2 
f 49/14/2 50/38/2 48/37/2 
f 50/38/2 49/14/2 51/16/2 
f 51/16/2 52/39/2 50/38/2 
f 52/39/2 51/16/2 8/7/2 
f 8/7/2 7/6/2 52/39/2 
f 19/40/3 53/41/3 54/42/3 
f 54/42/3 2/43/3 19/40/3 
f 17/44/3 55/45/3 53/41/3 
f 53/41/3 19/40/3 17/44/3 
f 15/46/3 56/47/3 55/45/3 
f 55/45/3 17/44/3 15/46/3 
f 13/48/3 57/49/3 56/47/3 
f 56/47/3 15/46/3 13/48/3 
f 11/50/3 58/51/3 57/49/3 
f 57/49/3 13/48/3 11/50/3 
f 59/52/3 60/53/3 43/54/3 
f 43/54/3 46/55/3 59/52/3 
f 2/43/3 54/42/3 61/56/3 
f 61/56/3 3/57/3 2/43/3 
f 39/58/3 62/59/3 63/60/3 
f 63/60/3 41/61/3 39/58/3 
f 37/62/3 64/63/3 62/59/3 
f 62/59/3 39/58/3 37/62/3 
f 35/64/3 65/65/3 64/63/3 
f 64/63/3 37/62/3 35/64/3 
f 33/66/3 66/67/3 65/65/3 
f 65/65/3 35/64/3 33/66/3 
f 67/68/3 68/69/3 21/70/3 
f 21/70/3 24/71/3 67/68/3 
f 58/51/3 69/72/3 70/73/3 
f 70/73/3 71/74/3 58/51/3 
f 7/75/3 6/76/3 72/77/3 
f 72/77/3 73/78/3 7/75/3 
f 52/79/3 7/75/3 73/78/3 
f 73/78/3 74/80/3 52/79/3 
f 50/81/3 52/79/3 74/80/3 
f 74/80/3 75/82/3 50/81/3 
f 48/83/3 50/81/3 75/82/3 
f 75/82/3 76/84/3 48/83/3 
f 46/55/3 48/83/3 76/84/3 
f 76/84/3 59/52/3 46/55/3 
f 71/74/3 70/73/3 60/53/3 
f 60/53/3 59/52/3 71/74/3 
f 6/76/3 41/61/3 63/60/3 
f 63/60/3 72/77/3 6/76/3 
f 77/85/3 78/86/3 63/60/3 
f 63/60/3 62/59/3 77/85/3 
f 79/87/3 77/85/3 62/59/3 
f 62/59/3 64/63/3 79/87/3 
f 80/88/3 79/87/3 64/63/3 
f 64/63/3 65/65/3 80/88/3 
f 81/89/3 80/88/3 65/65/3 
f 65/65/3 66/67/3 81/89/3 
f 33/66/3 32/90/3 82/91/3 
f 82/91/3 66/67/3 33/66/3 
f 83/92/3 84/93/3 54/42/3 
f 54/42/3 53/41/3 83/92/3 
f 85/94/3 83/92/3 53/41/3 
f 53/41/3 55/45/3 85/94/3 
f 86/95/3 85/94/3 55/45/3 
f 55/45/3 56/47/3 86/95/3 
f 87/96/3 86/95/3 56/47/3 
f 56/47/3 57/49/3 87/96/3 
f 71/74/3 87/96/3 57/49/3 
f 57/49/3 58/51/3 71/74/3 
f 84/93/3 78/86/3 61/56/3 
f 61/56/3 54/42/3 84/93/3 
f 81/89/3 88/97/3 68/69/3 
f 68/69/3 67/68/3 81/89/3 
f 11/50/3 10/98/3 69/72/3 
f 69/72/3 58/51/3 11/50/3 
f 30/99/3 3/57/3 61/56/3 
f 61/56/3 89/100/3 30/99/3 
f 28/101/3 30/99/3 89/100/3 
f 89/100/3 90/102/3 28/101/3 
f 26/103/3 28/101/3 90/102/3 
f 90/102/3 91/104/3 26/103/3 
f 24/71/3 26/103/3 91/104/3 
f 91/104/3 67/68/3 24/71/3 
f 89/100/3 61/56/3 78/86/3 
f 78/86/3 77/85/3 89/100/3 
f 90/102/3 89/100/3 77/85/3 
f 77/85/3 79/87/3 90/102/3 
f 91/104/3 90/102/3 79/87/3 
f 79/87/3 80/88/3 91/104/3 
f 67/68/3 91/104/3 80/88/3 
f 80/88/3 81/89/3 67/68/3 
f 73/78/3 72/77/3 84/93/3 
f 84/93/3 83/92/3 73/78/3 
f 74/80/3 73/78/3 83/92/3 
f 83/92/3 85/94/3 74/80/3 
f 75/82/3 74/80/3 85/94/3 
f 85/94/3 86/95/3 75/82/3 
f 76/84/3 75/82/3 86/95/3 
f 86/95/3 87/96/3 76/84/3 
f 59/52/3 76/84/3 87/96/3 
f 87/96/3 71/74/3 59/52/3 
f 72/77/3 63/60/3 78/86/3 
f 78/86/3 84/93/3 72/77/3 
f 66/67/3 82/91/3 88/97/3 
f 88/97/3 81/89/3 66/67/3 
f 60/53/4 92/53/4 93/54/4 
f 93/54/4 43/54/4 60/53/4 
f 69/72/4 94/72/4 95/73/4 
f 95/73/4 70/73/4 69/72/4 
f 70/73/4 95/73/4 92/53/4 
f 92/53/4 60/53/4 70/73/4 
f 10/98/4 96/98/4 94/72/4 
f 94/72/4 69/72/4 10/98/4 
# 0 polygons - 152 triangles

