# 3ds Max Wavefront OBJ Exporter v0.97b - (c)2007 guruware
# File Created: 28.09.2017 21:52:18

#
# object LevelCrossing_Rail_Insert_Single_End
#

v  -6.7564 0.2213 -26.6671
v  -6.7237 0.1999 -20.7407
v  -6.3908 0.2220 -20.7407
v  -7.0889 0.1992 -26.6671
v  -6.1611 0.2011 -14.8141
v  -5.8280 0.2232 -14.8141
v  -5.4573 0.2026 -8.8873
v  -5.1240 0.2247 -8.8873
v  -4.6684 0.2043 -2.9603
v  -4.3351 0.2264 -2.9603
v  -3.8512 0.2059 2.9667
v  -3.5179 0.2280 2.9667
v  -3.0619 0.2075 8.8936
v  -2.7287 0.2296 8.8936
v  -2.3571 0.2090 14.8204
v  -2.0240 0.2311 14.8204
v  -1.7929 0.2102 20.7470
v  -1.4601 0.2323 20.7470
v  -1.4255 0.2110 26.6735
v  -1.0928 0.2331 26.6735
v  -6.5314 0.2362 -26.6671
v  -4.6553 0.2403 -20.7407
v  -5.0220 0.2396 -26.6671
v  -6.1656 0.2369 -20.7407
v  -4.0917 0.2416 -14.8141
v  -5.6027 0.2381 -14.8141
v  -3.3875 0.2430 -8.8873
v  -4.8986 0.2396 -8.8873
v  -2.5989 0.2447 -2.9603
v  -4.1097 0.2413 -2.9603
v  -1.7825 0.2463 2.9667
v  -3.2925 0.2429 2.9667
v  -0.9944 0.2480 8.8936
v  -2.5034 0.2446 8.8936
v  -0.2909 0.2494 14.8204
v  -1.7989 0.2460 14.8204
v  0.2730 0.2506 20.7470
v  -1.2352 0.2472 20.7470
v  0.6403 0.2514 26.6735
v  -0.8680 0.2480 26.6735
v  -4.4657 0.1992 -26.6671
v  -4.4303 0.2240 -20.7407
v  -4.0988 0.1999 -20.7407
v  -4.7971 0.2233 -26.6671
v  -3.8667 0.2253 -14.8141
v  -3.5351 0.2012 -14.8141
v  -3.1625 0.2267 -8.8873
v  -2.8310 0.2026 -8.8873
v  -2.3740 0.2284 -2.9603
v  -2.0427 0.2043 -2.9603
v  -1.5577 0.2300 2.9667
v  -1.2267 0.2059 2.9667
v  -0.7698 0.2317 8.8936
v  -0.4388 0.2076 8.8936
v  -0.0658 0.2331 14.8204
v  0.2654 0.2090 14.8204
v  0.4979 0.2343 20.7470
v  0.8291 0.2102 20.7470
v  0.8651 0.2351 26.6735
v  1.1960 0.2110 26.6735
v  -4.4303 0.1003 -20.7407
v  -4.7971 0.0996 -26.6671
v  -3.8667 0.1016 -14.8141
v  -3.1625 0.1030 -8.8873
v  -2.3740 0.1047 -2.9603
v  -1.5577 0.1063 2.9667
v  -0.7698 0.1080 8.8936
v  -0.0658 0.1094 14.8204
v  0.4979 0.1106 20.7470
v  0.8651 0.1114 26.6735
v  -6.3908 0.0983 -20.7407
v  -6.7564 0.0976 -26.6671
v  -5.8280 0.0995 -14.8141
v  -5.1240 0.1010 -8.8873
v  -4.3351 0.1027 -2.9603
v  -3.5179 0.1043 2.9667
v  -2.7287 0.1059 8.8936
v  -2.0240 0.1074 14.8204
v  -1.4601 0.1086 20.7470
v  -1.0928 0.1094 26.6735
v  -6.1656 0.0985 -20.7407
v  -6.5314 0.0978 -26.6671
v  -5.6027 0.0997 -14.8141
v  -4.8986 0.1012 -8.8873
v  -4.1097 0.1029 -2.9603
v  -3.2925 0.1045 2.9667
v  -2.5035 0.1062 8.8936
v  -1.7989 0.1076 14.8204
v  -1.2352 0.1088 20.7470
v  -0.8680 0.1096 26.6735
v  -4.6553 0.1019 -20.7407
v  -5.0220 0.1012 -26.6671
v  -4.0917 0.1032 -14.8141
v  -3.3875 0.1046 -8.8873
v  -2.5989 0.1063 -2.9603
v  -1.7825 0.1079 2.9667
v  -0.9944 0.1096 8.8936
v  -0.2909 0.1110 14.8204
v  0.2730 0.1122 20.7470
v  0.6403 0.1130 26.6735
v  0.8648 0.2330 26.6735
v  0.8648 0.1094 26.6735
v  -0.8683 0.1126 26.6735
v  0.6404 0.2479 26.6735
v  -0.8683 0.2510 26.6735
v  0.6404 0.1096 26.6735
v  -1.0931 0.1108 26.6735
v  -1.0931 0.2345 26.6735
v  -1.4257 0.2100 26.6735
v  -4.7972 0.2222 -26.6671
v  -4.4655 0.2002 -26.6671
v  -4.7972 0.0986 -26.6671
v  -6.5315 0.1018 -26.6671
v  -5.0217 0.2371 -26.6671
v  -5.0217 0.0988 -26.6671
v  -6.5315 0.2402 -26.6671
v  -6.7565 0.1000 -26.6671
v  -6.7565 0.2237 -26.6671
v  -2.9053 0.2230 -26.6688
v  -3.1150 0.1994 -20.7424
v  -2.7828 0.2238 -20.7424
v  -3.2374 0.1986 -26.6688
v  -2.9269 0.2005 -14.8158
v  -2.5947 0.2249 -14.8158
v  -2.6919 0.2018 -8.8890
v  -2.3598 0.2262 -8.8890
v  -2.4289 0.2034 -2.9620
v  -2.0967 0.2278 -2.9620
v  -2.1565 0.2050 2.9650
v  -1.8243 0.2294 2.9650
v  -1.8934 0.2066 8.8919
v  -1.5612 0.2310 8.8919
v  -1.6584 0.2079 14.8187
v  -1.3262 0.2323 14.8187
v  -1.4703 0.2090 20.7453
v  -1.1381 0.2334 20.7453
v  -1.3478 0.2098 26.6718
v  -1.0155 0.2342 26.6718
v  0.7180 0.2477 26.6718
v  -0.9133 0.2500 20.7453
v  -0.7907 0.2508 26.6718
v  0.5954 0.2469 20.7453
v  -1.1014 0.2489 14.8187
v  0.4073 0.2458 14.8187
v  -1.3364 0.2476 8.8919
v  0.1723 0.2445 8.8919
v  -1.5995 0.2460 2.9650
v  -0.0908 0.2429 2.9650
v  -1.8719 0.2444 -2.9620
v  -0.3632 0.2413 -2.9620
v  -2.1350 0.2428 -8.8890
v  -0.6263 0.2397 -8.8890
v  -2.3699 0.2415 -14.8158
v  -0.8612 0.2384 -14.8158
v  -2.5580 0.2404 -20.7424
v  -1.0493 0.2373 -20.7424
v  -2.6805 0.2396 -26.6688
v  -1.1718 0.2365 -26.6688
v  -0.6158 0.1996 -26.6688
v  -0.8249 0.2224 -20.7424
v  -0.4934 0.2004 -20.7424
v  -0.9474 0.2216 -26.6688
v  -0.6368 0.2235 -14.8158
v  -0.3053 0.2015 -14.8158
v  -0.4019 0.2248 -8.8890
v  -0.0703 0.2028 -8.8890
v  -0.1388 0.2264 -2.9620
v  0.1927 0.2044 -2.9620
v  0.1336 0.2280 2.9650
v  0.4651 0.2060 2.9650
v  0.3967 0.2296 8.8919
v  0.7282 0.2076 8.8919
v  0.6317 0.2309 14.8187
v  0.9632 0.2089 14.8187
v  0.8198 0.2320 20.7454
v  1.1513 0.2100 20.7454
v  0.9424 0.2328 26.6718
v  1.2738 0.2108 26.6718
v  -2.7828 0.1002 -20.7424
v  -2.9053 0.0994 -26.6688
v  -2.5947 0.1013 -14.8158
v  -2.3598 0.1026 -8.8890
v  -2.0967 0.1042 -2.9620
v  -1.8243 0.1058 2.9650
v  -1.5612 0.1074 8.8919
v  -1.3262 0.1087 14.8187
v  -1.1381 0.1098 20.7453
v  -1.0155 0.1106 26.6718
v  -0.8249 0.0988 -20.7424
v  -0.9474 0.0980 -26.6688
v  -0.6368 0.0999 -14.8158
v  -0.4019 0.1012 -8.8890
v  -0.1388 0.1028 -2.9620
v  0.1336 0.1044 2.9650
v  0.3967 0.1060 8.8919
v  0.6317 0.1073 14.8187
v  0.8198 0.1084 20.7453
v  0.8198 0.2320 20.7453
v  0.9424 0.1092 26.6718
v  -1.0493 0.0990 -20.7424
v  -1.1718 0.0982 -26.6688
v  -0.8612 0.1001 -14.8158
v  -0.6263 0.1014 -8.8890
v  -0.3632 0.1030 -2.9620
v  -0.0908 0.1046 2.9650
v  0.1723 0.1062 8.8919
v  0.4073 0.1075 14.8187
v  0.5954 0.1086 20.7453
v  0.7180 0.1094 26.6718
v  -2.5580 0.1020 -20.7424
v  -2.6805 0.1012 -26.6688
v  -2.3699 0.1031 -14.8158
v  -2.1350 0.1044 -8.8890
v  -1.8719 0.1060 -2.9620
v  -1.5995 0.1076 2.9650
v  -1.3364 0.1092 8.8919
v  -1.1014 0.1105 14.8187
v  -0.9133 0.1116 20.7453
v  -0.7907 0.1124 26.6718
v  -2.9053 0.2231 -26.6688
# 220 vertices

vn 0.6668 0.7441 -0.0412
vn -0.0662 0.9978 0.0050
vn 0.6770 0.7341 -0.0531
vn -0.0663 0.9978 0.0040
vn -0.0662 0.9978 0.0068
vn 0.6764 0.7330 -0.0724
vn -0.0662 0.9978 0.0080
vn 0.6760 0.7319 -0.0853
vn -0.0662 0.9978 0.0087
vn 0.6763 0.7309 -0.0918
vn 0.6775 0.7298 -0.0920
vn -0.0662 0.9978 0.0081
vn 0.6795 0.7287 -0.0858
vn -0.0662 0.9978 0.0069
vn 0.6821 0.7275 -0.0732
vn -0.0663 0.9978 0.0051
vn 0.6851 0.7264 -0.0540
vn 0.6974 0.7154 -0.0433
vn -0.0023 1.0000 -0.0000
vn 0.0725 0.9974 -0.0046
vn 0.0725 0.9974 -0.0058
vn 0.0725 0.9973 -0.0059
vn 0.0725 0.9973 -0.0079
vn 0.0725 0.9973 -0.0080
vn 0.0725 0.9973 -0.0094
vn 0.0726 0.9973 -0.0101
vn 0.0726 0.9973 -0.0094
vn 0.0726 0.9973 -0.0080
vn 0.0726 0.9973 -0.0079
vn 0.0726 0.9973 -0.0059
vn 0.0726 0.9973 -0.0058
vn 0.0726 0.9973 -0.0046
vn 0.9981 0.0000 -0.0618
vn 0.9955 0.0000 -0.0947
vn 0.9930 0.0000 -0.1180
vn 0.9913 0.0000 -0.1319
vn 0.9906 0.0000 -0.1364
vn 0.9913 0.0000 -0.1318
vn 0.9969 0.0000 -0.0781
vn 0.9981 0.0000 -0.0616
vn 0.9943 0.0000 -0.1062
vn 0.9922 0.0000 -0.1249
vn 0.9909 0.0000 -0.1343
vn 0.9922 0.0000 -0.1250
vn 0.9943 0.0000 -0.1064
vn 0.9969 0.0000 -0.0783
vn 0.9955 0.0000 -0.0946
vn 0.9906 0.0000 -0.1366
vn 0.9913 0.0000 -0.1320
vn 0.9969 0.0000 -0.0782
vn 0.9943 0.0000 -0.1063
vn 0.9910 0.0000 -0.1342
vn 0.9910 0.0000 -0.1341
vn 0.9922 0.0000 -0.1248
vn 0.0000 0.0000 1.0000
vn 0.0000 0.0000 -1.0000
vn 0.6754 0.7373 -0.0141
vn -0.0733 0.9973 0.0018
vn 0.6791 0.7338 -0.0179
vn -0.0733 0.9973 0.0014
vn -0.0733 0.9973 0.0024
vn 0.6793 0.7335 -0.0244
vn -0.0733 0.9973 0.0028
vn 0.6795 0.7331 -0.0287
vn -0.0733 0.9973 0.0030
vn 0.6798 0.7328 -0.0309
vn 0.6802 0.7324 -0.0309
vn 0.6807 0.7320 -0.0288
vn 0.6812 0.7316 -0.0245
vn -0.0732 0.9973 0.0018
vn 0.6819 0.7313 -0.0180
vn -0.0732 0.9973 0.0014
vn 0.6857 0.7277 -0.0143
vn 0.0021 1.0000 -0.0002
vn 0.0021 1.0000 -0.0003
vn 0.0021 1.0000 -0.0004
vn 0.0662 0.9978 -0.0015
vn 0.0662 0.9978 -0.0019
vn 0.0662 0.9978 -0.0026
vn 0.0662 0.9978 -0.0030
vn 0.0662 0.9978 -0.0033
vn 0.9997 0.0000 -0.0262
vn 0.9998 0.0000 -0.0207
vn 0.9994 0.0000 -0.0357
vn 0.9991 0.0000 -0.0420
vn 0.9990 0.0000 -0.0451
vn 0.9995 0.0000 -0.0317
vn 0.9992 0.0000 -0.0396
vn 0.9990 0.0000 -0.0443
vn 0.9989 0.0000 -0.0459
# 90 vertex normals

vt 0.0018 1.0000 0.0000
vt 0.0583 -0.0000 0.0000
vt 0.0018 -0.0000 0.0000
vt 0.0583 1.0000 0.0000
vt 0.0021 1.0000 0.0000
vt 0.0587 -0.0000 0.0000
vt 0.0021 -0.0000 0.0000
vt 0.0587 1.0000 0.0000
vt 0.0022 1.0000 0.0000
vt 0.0022 -0.0000 0.0000
vt 0.0015 1.0000 0.0000
vt 0.0580 -0.0000 0.0000
vt 0.0015 -0.0000 0.0000
vt 0.0580 1.0000 0.0000
vt 0.0584 -0.0000 0.0000
vt 0.0584 1.0000 0.0000
vt 0.2582 1.0000 0.0000
vt 0.2582 -0.0000 0.0000
vt 0.2586 1.0000 0.0000
vt 0.2586 -0.0000 0.0000
vt 0.0019 -0.0000 0.0000
vt 0.0019 1.0000 0.0000
vt 0.2579 1.0000 0.0000
vt 0.0012 -0.0000 0.0000
vt 0.0012 1.0000 0.0000
vt 0.2579 -0.0000 0.0000
vt 0.0012 0.0000 0.0000
vt 0.2579 0.0000 0.0000
vt 0.2583 1.0000 0.0000
vt 0.2583 -0.0000 0.0000
vt 0.0015 0.0000 0.0000
vt 0.2583 0.0000 0.0000
vt 0.2016 1.0000 0.0000
vt 0.2580 -0.0000 0.0000
vt 0.2016 -0.0000 0.0000
vt 0.2580 1.0000 0.0000
vt 0.2020 1.0000 0.0000
vt 0.2584 -0.0000 0.0000
vt 0.2020 -0.0000 0.0000
vt 0.2584 1.0000 0.0000
vt 0.2013 1.0000 0.0000
vt 0.2577 -0.0000 0.0000
vt 0.2013 -0.0000 0.0000
vt 0.2577 1.0000 0.0000
vt 0.2017 1.0000 0.0000
vt 0.2017 -0.0000 0.0000
vt 0.0016 1.0000 0.0000
vt 0.1153 -0.0000 0.0000
vt 0.1153 1.0000 0.0000
vt 0.0016 -0.0000 0.0000
vt 0.1446 1.0000 0.0000
vt 0.1446 0.0000 0.0000
vt 0.1446 -0.0000 0.0000
vt 0.0329 0.0805 0.0000
vt 0.0329 0.0364 0.0000
vt 0.0000 0.0727 0.0000
vt 0.2048 0.0375 0.0000
vt 0.0551 0.0859 0.0000
vt 0.2048 0.0870 0.0000
vt 0.0551 0.0364 0.0000
vt 0.2271 0.0369 0.0000
vt 0.2271 0.0810 0.0000
vt 0.2600 0.0723 0.0000
vt 0.0581 -0.0000 0.0000
vt 0.0581 1.0000 0.0000
vt 0.2580 0.0000 0.0000
vt 0.0011 -0.0000 0.0000
vt 0.0011 1.0000 0.0000
vt 0.2581 -0.0000 0.0000
vt 0.2581 1.0000 0.0000
# 70 texture coords

g LevelCrossing_Rail_Insert_Single_End
s 1
f 1/1/1 2/2/2 3/3/3 
f 2/2/2 1/1/1 4/4/4 
f 3/1/3 5/2/5 6/3/6 
f 5/2/5 3/1/3 2/4/2 
f 6/5/6 7/6/7 8/7/8 
f 7/6/7 6/5/6 5/8/5 
f 8/9/8 9/6/9 10/10/10 
f 9/6/9 8/9/8 7/8/7 
f 10/11/10 11/12/9 12/13/11 
f 11/12/9 10/11/10 9/14/9 
f 12/11/11 13/12/12 14/13/13 
f 13/12/12 12/11/11 11/14/9 
f 14/1/13 15/15/14 16/3/15 
f 15/15/14 14/1/13 13/16/12 
f 16/1/15 17/15/16 18/3/17 
f 17/15/16 16/1/15 15/16/14 
f 18/1/17 19/15/4 20/3/18 
f 19/15/4 18/1/17 17/16/16 
s 2
f 21/17/19 22/13/19 23/11/19 
f 22/13/19 21/17/19 24/18/19 
f 24/17/19 25/13/19 22/11/19 
f 25/13/19 24/17/19 26/18/19 
f 26/17/19 27/13/19 25/11/19 
f 27/13/19 26/17/19 28/18/19 
f 28/19/19 29/3/19 27/1/19 
f 29/3/19 28/19/19 30/20/19 
f 30/19/19 31/21/19 29/22/19 
f 31/21/19 30/19/19 32/20/19 
f 32/23/19 33/24/19 31/25/19 
f 33/24/19 32/23/19 34/26/19 
f 34/23/19 35/27/19 33/25/19 
f 35/27/19 34/23/19 36/28/19 
f 36/29/19 37/13/19 35/11/19 
f 37/13/19 36/29/19 38/30/19 
f 38/29/19 39/31/19 37/11/19 
f 39/31/19 38/29/19 40/32/19 
s 1
f 41/33/20 42/34/21 43/35/22 
f 42/34/21 41/33/20 44/36/20 
f 43/33/22 45/34/23 46/35/24 
f 45/34/23 43/33/22 42/36/21 
f 46/37/24 47/38/25 48/39/25 
f 47/38/25 46/37/24 45/40/23 
f 48/37/25 49/38/26 50/39/26 
f 49/38/26 48/37/25 47/40/25 
f 50/41/26 51/42/26 52/43/26 
f 51/42/26 50/41/26 49/44/26 
f 52/41/26 53/42/27 54/43/27 
f 53/42/27 52/41/26 51/44/26 
f 54/33/27 55/34/28 56/35/29 
f 55/34/28 54/33/27 53/36/27 
f 56/45/29 57/34/30 58/46/31 
f 57/34/30 56/45/29 55/36/28 
f 58/33/31 59/34/32 60/35/32 
f 59/34/32 58/33/31 57/36/30 
f 44/47/33 61/48/33 62/49/33 
f 61/48/33 44/47/33 42/50/33 
f 42/47/34 63/48/34 61/49/34 
f 63/48/34 42/47/34 45/50/34 
f 45/47/35 64/48/35 63/49/35 
f 64/48/35 45/47/35 47/50/35 
f 47/47/36 65/48/36 64/49/36 
f 65/48/36 47/47/36 49/50/36 
f 49/47/37 66/48/37 65/49/37 
f 66/48/37 49/47/37 51/50/37 
f 51/47/38 67/48/38 66/49/38 
f 67/48/38 51/47/38 53/50/38 
f 53/47/35 68/48/35 67/49/35 
f 68/48/35 53/47/35 55/50/35 
f 55/47/34 69/48/34 68/49/34 
f 69/48/34 55/47/34 57/50/34 
f 57/47/33 70/48/33 69/49/33 
f 70/48/33 57/47/33 59/50/33 
f 1/47/1 71/48/39 72/49/40 
f 71/48/39 1/47/1 3/50/3 
f 3/47/3 73/48/41 71/49/39 
f 73/48/41 3/47/3 6/50/6 
f 6/47/6 74/48/42 73/49/41 
f 74/48/42 6/47/6 8/50/8 
f 8/47/8 75/48/43 74/49/42 
f 75/48/43 8/47/8 10/50/10 
f 10/47/10 76/48/43 75/49/43 
f 76/48/43 10/47/10 12/50/11 
f 12/47/11 77/48/44 76/49/43 
f 77/48/44 12/47/11 14/50/13 
f 14/47/13 78/48/45 77/49/44 
f 78/48/45 14/47/13 16/50/15 
f 16/47/15 79/48/46 78/49/45 
f 79/48/46 16/47/15 18/50/17 
f 18/47/17 80/48/33 79/49/46 
f 80/48/33 18/47/17 20/50/18 
f 21/32/40 81/51/40 82/52/40 
f 81/51/40 21/32/40 24/29/40 
f 24/32/47 83/51/47 81/53/47 
f 83/51/47 24/32/47 26/29/47 
f 26/30/35 84/51/35 83/53/35 
f 84/51/35 26/30/35 28/29/35 
f 28/30/36 85/51/36 84/53/36 
f 85/51/36 28/30/36 30/29/36 
f 30/30/48 86/51/48 85/53/48 
f 86/51/48 30/30/48 32/29/48 
f 32/30/49 87/51/49 86/53/49 
f 87/51/49 32/30/49 34/29/49 
f 34/30/35 88/51/35 87/53/35 
f 88/51/35 34/30/35 36/29/35 
f 36/30/34 89/51/34 88/53/34 
f 89/51/34 36/30/34 38/29/34 
f 38/30/33 90/51/33 89/52/33 
f 90/51/33 38/30/33 40/29/33 
f 23/32/33 91/51/50 92/52/33 
f 91/51/50 23/32/33 22/29/50 
f 22/32/50 93/51/51 91/53/50 
f 93/51/51 22/32/50 25/29/51 
f 25/30/51 94/51/42 93/53/51 
f 94/51/42 25/30/51 27/29/42 
f 27/30/42 95/51/52 94/53/42 
f 95/51/52 27/30/42 29/29/52 
f 29/30/52 96/51/53 95/53/52 
f 96/51/53 29/30/52 31/29/53 
f 31/30/53 97/51/54 96/53/53 
f 97/51/54 31/30/53 33/29/54 
f 33/30/54 98/51/51 97/53/54 
f 98/51/51 33/30/54 35/29/51 
f 35/30/51 99/51/46 98/53/51 
f 99/51/46 35/30/51 37/29/46 
f 37/30/46 100/51/33 99/52/46 
f 100/51/33 37/30/46 39/29/33 
s off
f 101/54/55 102/55/55 60/56/55 
f 103/57/55 104/58/55 105/59/55 
f 104/58/55 103/57/55 106/60/55 
f 107/61/55 108/62/55 109/63/55 
f 110/54/56 111/56/56 112/55/56 
f 113/57/56 114/58/56 115/60/56 
f 114/58/56 113/57/56 116/59/56 
f 117/61/56 4/63/56 118/62/56 
s 1
f 119/1/57 120/15/58 121/3/59 
f 120/15/58 119/1/57 122/16/60 
f 121/1/59 123/15/61 124/3/62 
f 123/15/61 121/1/59 120/16/58 
f 124/9/62 125/6/63 126/10/64 
f 125/6/63 124/9/62 123/8/61 
f 126/9/64 127/6/65 128/10/66 
f 127/6/65 126/9/64 125/8/63 
f 128/11/66 129/12/65 130/13/67 
f 129/12/65 128/11/66 127/14/65 
f 130/11/67 131/64/63 132/13/68 
f 131/64/63 130/11/67 129/65/65 
f 132/22/68 133/15/61 134/21/69 
f 133/15/61 132/22/68 131/16/63 
f 134/22/69 135/15/70 136/21/71 
f 135/15/70 134/22/69 133/16/61 
f 136/22/71 137/15/72 138/21/73 
f 137/15/72 136/22/71 135/16/70 
s 2
f 139/13/74 140/29/74 141/32/74 
f 140/29/74 139/13/74 142/11/74 
f 142/13/74 143/29/75 140/32/74 
f 143/29/75 142/13/74 144/11/75 
f 144/27/75 145/36/75 143/66/75 
f 145/36/75 144/27/75 146/25/75 
f 146/67/75 147/23/76 145/26/75 
f 147/23/76 146/67/75 148/68/76 
f 148/3/76 149/19/76 147/20/76 
f 149/19/76 148/3/76 150/1/76 
f 150/3/76 151/19/75 149/20/76 
f 151/19/75 150/3/76 152/1/75 
f 152/13/75 153/29/75 151/30/75 
f 153/29/75 152/13/75 154/11/75 
f 154/13/75 155/29/74 153/30/75 
f 155/29/74 154/13/75 156/11/74 
f 156/13/74 157/29/74 155/30/74 
f 157/29/74 156/13/74 158/11/74 
s 1
f 159/33/77 160/69/78 161/35/78 
f 160/69/78 159/33/77 162/70/77 
f 161/33/78 163/69/79 164/35/79 
f 163/69/79 161/33/78 160/70/78 
f 164/37/79 165/38/80 166/39/80 
f 165/38/80 164/37/79 163/40/79 
f 166/37/80 167/38/81 168/39/81 
f 167/38/81 166/37/80 165/40/80 
f 168/41/81 169/42/81 170/43/81 
f 169/42/81 168/41/81 167/44/81 
f 170/41/81 171/42/80 172/43/80 
f 171/42/80 170/41/81 169/44/81 
f 172/33/80 173/69/79 174/35/79 
f 173/69/79 172/33/80 171/70/80 
f 174/45/79 175/69/78 176/46/78 
f 175/69/78 174/45/79 173/70/79 
f 176/33/78 177/69/77 178/35/77 
f 177/69/77 176/33/78 175/70/78 
f 119/47/57 179/48/82 180/49/83 
f 179/48/82 119/47/57 121/50/59 
f 121/47/59 181/48/84 179/49/82 
f 181/48/84 121/47/59 124/50/62 
f 124/47/62 182/48/85 181/49/84 
f 182/48/85 124/47/62 126/50/64 
f 126/47/64 183/48/86 182/49/85 
f 183/48/86 126/47/64 128/50/66 
f 128/47/66 184/48/86 183/49/86 
f 184/48/86 128/47/66 130/50/67 
f 130/47/67 185/48/85 184/49/86 
f 185/48/85 130/47/67 132/50/68 
f 132/47/68 186/48/84 185/49/85 
f 186/48/84 132/47/68 134/50/69 
f 134/47/69 187/48/82 186/49/84 
f 187/48/82 134/47/69 136/50/71 
f 136/47/71 188/48/83 187/49/82 
f 188/48/83 136/47/71 138/50/73 
f 162/47/83 189/48/83 190/49/83 
f 189/48/83 162/47/83 160/50/83 
f 160/47/87 191/48/87 189/49/87 
f 191/48/87 160/47/87 163/50/87 
f 163/47/88 192/48/88 191/49/88 
f 192/48/88 163/47/88 165/50/88 
f 165/47/89 193/48/89 192/49/89 
f 193/48/89 165/47/89 167/50/89 
f 167/47/90 194/48/90 193/49/90 
f 194/48/90 167/47/90 169/50/90 
f 169/47/89 195/48/89 194/49/89 
f 195/48/89 169/47/89 171/50/89 
f 171/47/88 196/48/88 195/49/88 
f 196/48/88 171/47/88 173/50/88 
f 173/47/87 197/48/82 196/49/87 
f 197/48/82 173/47/87 198/50/82 
f 198/47/82 199/48/83 197/49/82 
f 199/48/83 198/47/82 177/50/83 
f 158/32/83 200/51/82 201/52/83 
f 200/51/82 158/32/83 156/29/82 
f 156/32/82 202/51/84 200/53/82 
f 202/51/84 156/32/82 154/29/84 
f 154/30/84 203/51/85 202/53/84 
f 203/51/85 154/30/84 152/29/85 
f 152/30/85 204/51/86 203/53/85 
f 204/51/86 152/30/85 150/29/86 
f 150/30/86 205/51/86 204/53/86 
f 205/51/86 150/30/86 148/29/86 
f 148/30/86 206/51/85 205/53/86 
f 206/51/85 148/30/86 146/29/85 
f 146/30/85 207/51/84 206/53/85 
f 207/51/84 146/30/85 144/29/84 
f 144/30/84 208/51/82 207/53/84 
f 208/51/82 144/30/84 142/29/82 
f 142/30/82 209/51/83 208/52/82 
f 209/51/83 142/30/82 139/29/83 
f 157/32/83 210/51/83 211/52/83 
f 210/51/83 157/32/83 155/29/83 
f 155/32/87 212/51/87 210/53/87 
f 212/51/87 155/32/87 153/29/87 
f 153/30/88 213/51/88 212/53/88 
f 213/51/88 153/30/88 151/29/88 
f 151/30/89 214/51/89 213/53/89 
f 214/51/89 151/30/89 149/29/89 
f 149/30/90 215/51/90 214/53/90 
f 215/51/90 149/30/90 147/29/90 
f 147/30/89 216/51/89 215/53/89 
f 216/51/89 147/30/89 145/29/89 
f 145/30/88 217/51/88 216/53/88 
f 217/51/88 145/30/88 143/29/88 
f 143/30/87 218/51/87 217/53/87 
f 218/51/87 143/30/87 140/29/87 
f 140/30/83 219/51/83 218/52/83 
f 219/51/83 140/30/83 141/29/83 
s off
f 177/54/55 199/55/55 178/56/55 
f 219/57/55 139/58/55 141/59/55 
f 139/58/55 219/57/55 209/60/55 
f 188/61/55 138/62/55 137/63/55 
f 162/54/56 159/56/56 190/55/56 
f 211/57/56 158/58/56 201/60/56 
f 158/58/56 211/57/56 157/59/56 
f 180/61/56 122/63/56 220/62/56 
# 0 polygons - 268 triangles

