# 3ds Max Wavefront OBJ Exporter v0.97b - (c)2007 guruware
# File Created: 15.09.2018 14:48:51

#
# object LevelCrossing_Station_Rail_Insert
#

v  6.8685 0.2229 -26.6672
v  6.8685 0.2217 -20.7413
v  7.2007 0.1996 -20.7413
v  7.2007 0.1996 -26.6672
v  6.8685 0.2217 -14.8154
v  7.2007 0.1996 -14.8154
v  6.8685 0.2217 -8.8895
v  7.2007 0.1996 -8.8895
v  6.8685 0.2217 -2.9635
v  7.2007 0.1996 -2.9635
v  6.8685 0.2217 2.9624
v  7.2007 0.1996 2.9624
v  6.8685 0.2217 8.8883
v  7.2007 0.1996 8.8883
v  6.8685 0.2217 14.8142
v  7.2007 0.1996 14.8142
v  6.8685 0.2217 20.7401
v  7.2007 0.1996 20.7401
v  6.8687 0.2224 26.6661
v  7.2008 0.1991 26.6661
v  6.6437 0.2386 -26.6672
v  5.1353 0.2387 -26.6672
v  5.1354 0.2400 -20.7413
v  6.6437 0.2366 -20.7413
v  5.1354 0.2400 -14.8154
v  6.6437 0.2366 -14.8154
v  5.1354 0.2400 -8.8895
v  6.6437 0.2366 -8.8895
v  5.1354 0.2400 -2.9635
v  6.6437 0.2366 -2.9635
v  5.1354 0.2400 2.9624
v  6.6437 0.2366 2.9624
v  5.1354 0.2400 8.8883
v  6.6437 0.2366 8.8883
v  5.1354 0.2400 14.8142
v  6.6437 0.2366 14.8142
v  5.1354 0.2400 20.7401
v  6.6437 0.2366 20.7401
v  5.1353 0.2382 26.6661
v  6.6437 0.2366 26.6661
v  1.2085 0.2369 26.6644
v  2.7172 0.2400 26.6644
v  2.7172 0.2400 20.7384
v  1.2085 0.2369 20.7384
v  2.7172 0.2400 14.8125
v  1.2085 0.2369 14.8125
v  2.7172 0.2400 8.8866
v  1.2085 0.2369 8.8866
v  2.7172 0.2400 2.9607
v  1.2085 0.2369 2.9607
v  2.7172 0.2400 -2.9652
v  1.2085 0.2369 -2.9652
v  2.7172 0.2400 -8.8912
v  1.2085 0.2369 -8.8912
v  2.7172 0.2400 -14.8171
v  1.2085 0.2369 -14.8171
v  2.7172 0.2400 -20.7430
v  1.2085 0.2369 -20.7430
v  2.7172 0.2400 -26.6689
v  1.2085 0.2369 -26.6689
v  0.6525 0.2000 -26.6689
v  0.6525 0.2000 -20.7430
v  0.9841 0.2220 -20.7430
v  0.9841 0.2220 -26.6689
v  0.6525 0.2000 -14.8171
v  0.9841 0.2220 -14.8171
v  0.6525 0.2000 -8.8912
v  0.9841 0.2220 -8.8912
v  0.6525 0.2000 -2.9652
v  0.9841 0.2220 -2.9652
v  0.6525 0.2000 2.9607
v  0.9841 0.2220 2.9607
v  0.6525 0.2000 8.8866
v  0.9841 0.2220 8.8866
v  0.6525 0.2000 14.8125
v  0.9841 0.2220 14.8125
v  0.6525 0.2000 20.7385
v  0.9841 0.2220 20.7384
v  0.6525 0.2000 26.6644
v  0.9841 0.2220 26.6644
v  6.8685 0.0992 -26.6672
v  6.8685 0.0980 -20.7413
v  6.8685 0.0980 -14.8154
v  6.8685 0.0980 -8.8895
v  6.8685 0.0980 -2.9635
v  6.8685 0.0980 2.9624
v  6.8685 0.0980 8.8883
v  6.8685 0.0980 14.8142
v  6.8685 0.0980 20.7401
v  6.8687 0.0987 26.6661
v  2.9422 0.2315 -26.6689
v  2.9422 0.0973 -26.6689
v  2.9420 0.0998 -20.7430
v  2.9420 0.2300 -20.7430
v  2.9420 0.0998 -14.8171
v  2.9420 0.2300 -14.8171
v  2.9420 0.0998 -8.8912
v  2.9420 0.2300 -8.8912
v  2.9420 0.0998 -2.9652
v  2.9420 0.2300 -2.9652
v  2.9420 0.0998 2.9607
v  2.9420 0.2300 2.9607
v  2.9420 0.0998 8.8866
v  2.9420 0.2300 8.8866
v  2.9420 0.0998 14.8125
v  2.9420 0.2300 14.8125
v  2.9420 0.0998 20.7384
v  2.9420 0.2300 20.7384
v  2.9420 0.0957 26.6644
v  2.9420 0.2300 26.6644
v  1.2085 0.0986 -26.6689
v  1.2085 0.0986 -20.7430
v  1.2085 0.0986 -14.8171
v  1.2085 0.0986 -8.8912
v  1.2085 0.0986 -2.9652
v  1.2085 0.0986 2.9607
v  1.2085 0.0986 8.8866
v  1.2085 0.0986 14.8125
v  1.2085 0.0986 20.7384
v  1.2085 0.0986 26.6644
v  5.1353 0.1004 -26.6672
v  5.1354 0.1016 -20.7413
v  5.1354 0.1016 -14.8154
v  5.1354 0.1016 -8.8895
v  5.1354 0.1016 -2.9635
v  5.1354 0.1016 2.9624
v  5.1354 0.1016 8.8883
v  5.1354 0.1016 14.8142
v  5.1354 0.1016 20.7401
v  5.1353 0.0999 26.6661
v  0.9841 0.0984 26.6644
v  2.7172 0.1016 26.6644
v  6.6438 0.0992 26.6661
v  6.6440 0.2396 26.6661
v  6.6437 0.1002 -26.6672
v  0.9841 0.0984 -26.6689
v  2.7172 0.1016 -26.6689
v  4.9105 0.2221 -26.6672
v  4.9105 0.2221 -20.7413
v  4.9103 0.2206 -14.8154
v  4.9105 0.2221 -8.8895
v  4.9103 0.2206 -2.9635
v  4.9105 0.2221 2.9624
v  4.9103 0.2206 8.8883
v  4.9105 0.2221 14.8142
v  4.9103 0.2206 20.7401
v  4.9104 0.2216 26.6661
v  4.9103 0.0822 26.6661
v  4.9106 0.0853 -26.6672
v  -0.9840 0.2229 -26.6672
v  -0.9840 0.2217 -20.7413
v  -0.6518 0.1996 -20.7413
v  -0.6518 0.1996 -26.6672
v  -0.9840 0.2217 -14.8154
v  -0.6518 0.1996 -14.8154
v  -0.9840 0.2217 -8.8895
v  -0.6518 0.1996 -8.8895
v  -0.9840 0.2217 -2.9635
v  -0.6518 0.1996 -2.9635
v  -0.9840 0.2217 2.9624
v  -0.6518 0.1996 2.9624
v  -0.9840 0.2217 8.8883
v  -0.6518 0.1996 8.8883
v  -0.9840 0.2217 14.8142
v  -0.6518 0.1996 14.8142
v  -0.9840 0.2217 20.7401
v  -0.6518 0.1996 20.7401
v  -0.9838 0.2224 26.6661
v  -0.6517 0.1991 26.6661
v  -1.2088 0.2386 -26.6672
v  -2.7172 0.2387 -26.6672
v  -2.7171 0.2400 -20.7413
v  -1.2088 0.2366 -20.7413
v  -2.7171 0.2400 -14.8154
v  -1.2088 0.2366 -14.8154
v  -2.7171 0.2400 -8.8895
v  -1.2088 0.2366 -8.8895
v  -2.7171 0.2400 -2.9635
v  -1.2088 0.2366 -2.9635
v  -2.7171 0.2400 2.9624
v  -1.2088 0.2366 2.9624
v  -2.7171 0.2400 8.8883
v  -1.2088 0.2366 8.8883
v  -2.7171 0.2400 14.8142
v  -1.2088 0.2366 14.8142
v  -2.7171 0.2400 20.7401
v  -1.2088 0.2366 20.7401
v  -2.7172 0.2382 26.6661
v  -1.2088 0.2366 26.6661
v  -6.6440 0.2369 26.6644
v  -5.1353 0.2400 26.6644
v  -5.1353 0.2400 20.7384
v  -6.6440 0.2369 20.7384
v  -5.1353 0.2400 14.8125
v  -6.6440 0.2369 14.8125
v  -5.1353 0.2400 8.8866
v  -6.6440 0.2369 8.8866
v  -5.1353 0.2400 2.9607
v  -6.6440 0.2369 2.9607
v  -5.1353 0.2400 -2.9652
v  -6.6440 0.2369 -2.9652
v  -5.1353 0.2400 -8.8912
v  -6.6440 0.2369 -8.8912
v  -5.1353 0.2400 -14.8171
v  -6.6440 0.2369 -14.8171
v  -5.1353 0.2400 -20.7430
v  -6.6440 0.2369 -20.7430
v  -5.1353 0.2400 -26.6689
v  -6.6440 0.2369 -26.6689
v  -7.2000 0.2000 -26.6689
v  -7.2000 0.2000 -20.7430
v  -6.8684 0.2220 -20.7430
v  -6.8684 0.2220 -26.6689
v  -7.2000 0.2000 -14.8171
v  -6.8684 0.2220 -14.8171
v  -7.2000 0.2000 -8.8912
v  -6.8684 0.2220 -8.8912
v  -7.2000 0.2000 -2.9652
v  -6.8684 0.2220 -2.9652
v  -7.2000 0.2000 2.9607
v  -6.8684 0.2220 2.9607
v  -7.2000 0.2000 8.8866
v  -6.8684 0.2220 8.8866
v  -7.2000 0.2000 14.8125
v  -6.8684 0.2220 14.8125
v  -7.2000 0.2000 20.7385
v  -6.8684 0.2220 20.7384
v  -7.2000 0.2000 26.6644
v  -6.8684 0.2220 26.6644
v  -0.9840 0.0992 -26.6672
v  -0.9840 0.0980 -20.7413
v  -0.9840 0.0980 -14.8154
v  -0.9840 0.0980 -8.8895
v  -0.9840 0.0980 -2.9635
v  -0.9840 0.0980 2.9624
v  -0.9840 0.0980 8.8883
v  -0.9840 0.0980 14.8142
v  -0.9840 0.0980 20.7401
v  -0.9838 0.0987 26.6661
v  -4.9103 0.2315 -26.6689
v  -4.9103 0.0973 -26.6689
v  -4.9105 0.0998 -20.7430
v  -4.9105 0.2300 -20.7430
v  -4.9105 0.0998 -14.8171
v  -4.9105 0.2300 -14.8171
v  -4.9105 0.0998 -8.8912
v  -4.9105 0.2300 -8.8912
v  -4.9105 0.0998 -2.9652
v  -4.9105 0.2300 -2.9652
v  -4.9105 0.0998 2.9607
v  -4.9105 0.2300 2.9607
v  -4.9105 0.0998 8.8866
v  -4.9105 0.2300 8.8866
v  -4.9105 0.0998 14.8125
v  -4.9105 0.2300 14.8125
v  -4.9105 0.0998 20.7384
v  -4.9105 0.2300 20.7384
v  -4.9105 0.0957 26.6644
v  -4.9105 0.2300 26.6644
v  -6.6440 0.0986 -26.6689
v  -6.6440 0.0986 -20.7430
v  -6.6440 0.0986 -14.8171
v  -6.6440 0.0986 -8.8912
v  -6.6440 0.0986 -2.9652
v  -6.6440 0.0986 2.9607
v  -6.6440 0.0986 8.8866
v  -6.6440 0.0986 14.8125
v  -6.6440 0.0986 20.7384
v  -6.6440 0.0986 26.6644
v  -2.7172 0.1004 -26.6672
v  -2.7171 0.1016 -20.7413
v  -2.7171 0.1016 -14.8154
v  -2.7171 0.1016 -8.8895
v  -2.7171 0.1016 -2.9635
v  -2.7171 0.1016 2.9624
v  -2.7171 0.1016 8.8883
v  -2.7171 0.1016 14.8142
v  -2.7171 0.1016 20.7401
v  -2.7172 0.0999 26.6661
v  -6.8684 0.0984 26.6644
v  -5.1353 0.1016 26.6644
v  -1.2087 0.0992 26.6661
v  -1.2085 0.2396 26.6661
v  -1.2088 0.1002 -26.6672
v  -6.8684 0.0984 -26.6689
v  -5.1353 0.1016 -26.6689
v  -2.9420 0.2221 -26.6672
v  -2.9420 0.2221 -20.7413
v  -2.9422 0.2206 -14.8154
v  -2.9420 0.2221 -8.8895
v  -2.9422 0.2206 -2.9635
v  -2.9420 0.2221 2.9624
v  -2.9422 0.2206 8.8883
v  -2.9420 0.2221 14.8142
v  -2.9422 0.2206 20.7401
v  -2.9421 0.2216 26.6661
v  -2.9422 0.0822 26.6661
v  -2.9419 0.0853 -26.6672
# 298 vertices

vn 0.0662 0.9978 -0.0000
vn 0.0698 0.9976 -0.0001
vn 0.0023 1.0000 -0.0000
vn 0.0001 1.0000 -0.0002
vn 0.0023 1.0000 0.0002
vn 0.0013 1.0000 -0.0000
vn 0.0011 1.0000 -0.0000
vn -0.0020 1.0000 -0.0000
vn -0.0021 1.0000 -0.0000
vn -0.0662 0.9978 -0.0000
vn -0.0663 0.9978 -0.0000
vn -0.0794 0.9968 -0.0000
vn -0.4935 0.8697 -0.0000
vn -1.0000 0.0000 -0.0000
vn 1.0000 0.0000 -0.0000
vn 0.0000 0.0000 1.0000
vn 0.0000 0.0000 -1.0000
vn 0.0048 1.0000 -0.0000
vn 0.0044 1.0000 -0.0001
vn 0.0042 1.0000 -0.0002
vn -0.0009 0.0000 1.0000
vn 0.0009 0.0000 -1.0000
vn -0.6819 0.7314 0.0000
vn -0.6833 0.7302 0.0001
vn 0.0664 0.9978 0.0001
vn 0.0700 0.9975 -0.0000
vn -0.6832 0.7302 -0.0000
vn 0.0664 0.9978 -0.0000
vn -0.6832 0.7302 0.0000
vn 0.0664 0.9978 0.0000
vn -0.6819 0.7315 -0.0001
vn 0.0699 0.9976 -0.0001
vn 0.0004 1.0000 -0.0001
vn 0.0021 1.0000 0.0001
vn 0.0022 1.0000 0.0001
vn 0.0013 1.0000 0.0000
vn -1.0000 0.0000 0.0000
vn 0.0046 1.0000 0.0002
vn 0.0048 1.0000 0.0003
vn 0.0041 1.0000 0.0000
vn 0.0047 1.0000 0.0001
vn 0.0041 1.0000 -0.0001
vn 0.0043 1.0000 -0.0002
# 43 vertex normals

vt 0.0018 1.0000 0.0000
vt 0.0018 -0.0000 0.0000
vt 0.0583 -0.0000 0.0000
vt 0.0583 1.0000 0.0000
vt 0.0021 1.0000 0.0000
vt 0.0021 -0.0000 0.0000
vt 0.0587 -0.0000 0.0000
vt 0.0587 1.0000 0.0000
vt 0.0022 1.0000 0.0000
vt 0.0022 -0.0000 0.0000
vt 0.0015 1.0000 0.0000
vt 0.0015 -0.0000 0.0000
vt 0.0580 -0.0000 0.0000
vt 0.0580 1.0000 0.0000
vt 0.0584 -0.0000 0.0000
vt 0.0584 1.0000 0.0000
vt 0.2582 1.0000 0.0000
vt 0.2582 -0.0000 0.0000
vt 0.2586 1.0000 0.0000
vt 0.2586 -0.0000 0.0000
vt 0.0019 1.0000 0.0000
vt 0.0019 -0.0000 0.0000
vt 0.2579 1.0000 0.0000
vt 0.0012 1.0000 0.0000
vt 0.0012 -0.0000 0.0000
vt 0.2579 -0.0000 0.0000
vt 0.0012 0.0000 0.0000
vt 0.2579 0.0000 0.0000
vt 0.2583 1.0000 0.0000
vt 0.2583 -0.0000 0.0000
vt 0.0015 0.0000 0.0000
vt 0.2583 0.0000 0.0000
vt 0.2580 0.0000 0.0000
vt 0.2580 1.0000 0.0000
vt 0.0011 -0.0000 0.0000
vt 0.0011 1.0000 0.0000
vt 0.2016 1.0000 0.0000
vt 0.2016 -0.0000 0.0000
vt 0.2581 -0.0000 0.0000
vt 0.2581 1.0000 0.0000
vt 0.2020 1.0000 0.0000
vt 0.2020 -0.0000 0.0000
vt 0.2584 -0.0000 0.0000
vt 0.2584 1.0000 0.0000
vt 0.2013 1.0000 0.0000
vt 0.2013 -0.0000 0.0000
vt 0.2577 -0.0000 0.0000
vt 0.2577 1.0000 0.0000
vt 0.2017 1.0000 0.0000
vt 0.2017 -0.0000 0.0000
vt 0.0016 1.0000 0.0000
vt 0.1153 1.0000 0.0000
vt 0.1153 -0.0000 0.0000
vt 0.0016 -0.0000 0.0000
vt 0.1446 0.0000 0.0000
vt 0.1446 1.0000 0.0000
vt 0.1446 -0.0000 0.0000
vt 0.0329 0.0805 0.0000
vt 0.0000 0.0727 0.0000
vt 0.0329 0.0364 0.0000
vt 0.2048 0.0375 0.0000
vt 0.2048 0.0870 0.0000
vt 0.0551 0.0859 0.0000
vt 0.0551 0.0364 0.0000
vt 0.2271 0.0369 0.0000
vt 0.2600 0.0723 0.0000
vt 0.2271 0.0810 0.0000
# 67 texture coords

g LevelCrossing_Station_Rail_Insert
s 1
f 1/1/1 2/2/1 3/3/1 
f 3/3/1 4/4/1 1/1/1 
f 2/1/1 5/2/1 6/3/1 
f 6/3/1 3/4/1 2/1/1 
f 5/5/1 7/6/1 8/7/1 
f 8/7/1 6/8/1 5/5/1 
f 7/9/1 9/10/1 10/7/1 
f 10/7/1 8/8/1 7/9/1 
f 9/11/1 11/12/1 12/13/1 
f 12/13/1 10/14/1 9/11/1 
f 11/11/1 13/12/1 14/13/1 
f 14/13/1 12/14/1 11/11/1 
f 13/1/1 15/2/1 16/15/1 
f 16/15/1 14/16/1 13/1/1 
f 15/1/1 17/2/1 18/15/1 
f 18/15/1 16/16/1 15/1/1 
f 17/1/1 19/2/1 20/15/2 
f 20/15/2 18/16/1 17/1/1 
s 2
f 21/17/3 22/11/4 23/12/3 
f 23/12/3 24/18/5 21/17/3 
f 24/17/5 23/11/3 25/12/3 
f 25/12/3 26/18/3 24/17/5 
f 26/17/3 25/11/3 27/12/3 
f 27/12/3 28/18/3 26/17/3 
f 28/19/3 27/1/3 29/2/3 
f 29/2/3 30/20/3 28/19/3 
f 30/19/3 29/21/3 31/22/3 
f 31/22/3 32/20/3 30/19/3 
f 32/23/3 31/24/3 33/25/3 
f 33/25/3 34/26/3 32/23/3 
f 34/23/3 33/24/3 35/27/3 
f 35/27/3 36/28/3 34/23/3 
f 36/29/3 35/11/3 37/12/3 
f 37/12/3 38/30/3 36/29/3 
f 38/29/3 37/11/3 39/31/6 
f 39/31/6 40/32/7 38/29/3 
f 41/12/8 42/32/8 43/29/9 
f 43/29/9 44/11/8 41/12/8 
f 44/12/8 43/32/9 45/29/9 
f 45/29/9 46/11/8 44/12/8 
f 46/27/8 45/33/9 47/34/8 
f 47/34/8 48/24/8 46/27/8 
f 48/35/8 47/26/8 49/23/8 
f 49/23/8 50/36/8 48/35/8 
f 50/2/8 49/20/8 51/19/8 
f 51/19/8 52/1/8 50/2/8 
f 52/2/8 51/20/8 53/19/9 
f 53/19/9 54/1/8 52/2/8 
f 54/12/8 53/30/9 55/29/8 
f 55/29/8 56/11/8 54/12/8 
f 56/12/8 55/30/8 57/29/9 
f 57/29/9 58/11/8 56/12/8 
f 58/12/8 57/30/9 59/29/8 
f 59/29/8 60/11/8 58/12/8 
s 1
f 61/37/10 62/38/11 63/39/11 
f 63/39/11 64/40/12 61/37/10 
f 62/37/11 65/38/11 66/39/11 
f 66/39/11 63/40/11 62/37/11 
f 65/41/11 67/42/11 68/43/11 
f 68/43/11 66/44/11 65/41/11 
f 67/41/11 69/42/11 70/43/11 
f 70/43/11 68/44/11 67/41/11 
f 69/45/11 71/46/11 72/47/11 
f 72/47/11 70/48/11 69/45/11 
f 71/45/11 73/46/11 74/47/13 
f 74/47/13 72/48/11 71/45/11 
f 73/37/11 75/38/11 76/39/11 
f 76/39/11 74/40/13 73/37/11 
f 75/49/11 77/50/11 78/39/11 
f 78/39/11 76/40/11 75/49/11 
f 77/37/11 79/38/10 80/39/10 
f 80/39/10 78/40/11 77/37/11 
f 1/51/14 81/52/14 82/53/14 
f 82/53/14 2/54/14 1/51/14 
f 2/51/14 82/52/14 83/53/14 
f 83/53/14 5/54/14 2/51/14 
f 5/51/14 83/52/14 84/53/14 
f 84/53/14 7/54/14 5/51/14 
f 7/51/14 84/52/14 85/53/14 
f 85/53/14 9/54/14 7/51/14 
f 9/51/14 85/52/14 86/53/14 
f 86/53/14 11/54/14 9/51/14 
f 11/51/14 86/52/14 87/53/14 
f 87/53/14 13/54/14 11/51/14 
f 13/51/14 87/52/14 88/53/14 
f 88/53/14 15/54/14 13/51/14 
f 15/51/14 88/52/14 89/53/14 
f 89/53/14 17/54/14 15/51/14 
f 17/51/14 89/52/14 90/53/14 
f 90/53/14 19/54/14 17/51/14 
f 91/51/14 92/52/14 93/53/14 
f 93/53/14 94/54/14 91/51/14 
f 94/51/14 93/52/14 95/53/14 
f 95/53/14 96/54/14 94/51/14 
f 96/51/14 95/52/14 97/53/14 
f 97/53/14 98/54/14 96/51/14 
f 98/51/14 97/52/14 99/53/14 
f 99/53/14 100/54/14 98/51/14 
f 100/51/14 99/52/14 101/53/14 
f 101/53/14 102/54/14 100/51/14 
f 102/51/14 101/52/14 103/53/14 
f 103/53/14 104/54/14 102/51/14 
f 104/51/14 103/52/14 105/53/14 
f 105/53/14 106/54/14 104/51/14 
f 106/51/14 105/52/14 107/53/14 
f 107/53/14 108/54/14 106/51/14 
f 108/51/14 107/52/14 109/53/14 
f 109/53/14 110/54/14 108/51/14 
f 60/32/14 111/55/14 112/56/14 
f 112/56/14 58/29/14 60/32/14 
f 58/32/14 112/57/14 113/56/14 
f 113/56/14 56/29/14 58/32/14 
f 56/30/14 113/57/14 114/56/14 
f 114/56/14 54/29/14 56/30/14 
f 54/30/14 114/57/14 115/56/14 
f 115/56/14 52/29/14 54/30/14 
f 52/30/14 115/57/14 116/56/14 
f 116/56/14 50/29/14 52/30/14 
f 50/30/14 116/57/14 117/56/14 
f 117/56/14 48/29/14 50/30/14 
f 48/30/14 117/57/14 118/56/14 
f 118/56/14 46/29/14 48/30/14 
f 46/30/14 118/57/14 119/56/14 
f 119/56/14 44/29/14 46/30/14 
f 44/30/14 119/55/14 120/56/14 
f 120/56/14 41/29/14 44/30/14 
f 22/32/14 121/55/14 122/56/14 
f 122/56/14 23/29/14 22/32/14 
f 23/32/14 122/57/14 123/56/14 
f 123/56/14 25/29/14 23/32/14 
f 25/30/14 123/57/14 124/56/14 
f 124/56/14 27/29/14 25/30/14 
f 27/30/14 124/57/14 125/56/14 
f 125/56/14 29/29/14 27/30/14 
f 29/30/14 125/57/14 126/56/14 
f 126/56/14 31/29/14 29/30/14 
f 31/30/14 126/57/14 127/56/14 
f 127/56/14 33/29/14 31/30/14 
f 33/30/14 127/57/14 128/56/14 
f 128/56/14 35/29/14 33/30/14 
f 35/30/14 128/57/15 129/56/15 
f 129/56/15 37/29/15 35/30/14 
f 37/30/14 129/55/15 130/56/14 
f 130/56/14 39/29/14 37/30/14 
s off
f 80/58/15 79/59/15 131/60/15 
f 132/61/16 42/62/15 41/63/16 
f 41/63/16 120/64/15 132/61/16 
f 133/61/16 134/62/16 39/63/16 
f 39/63/16 130/64/16 133/61/16 
f 90/65/16 20/66/16 19/67/16 
f 135/61/17 121/64/17 22/63/17 
f 22/63/17 21/62/17 135/61/17 
f 81/65/17 1/67/17 4/66/17 
f 64/58/17 136/60/17 61/59/17 
f 137/61/17 111/64/17 60/63/17 
f 60/63/17 59/62/17 137/61/17 
s 2
f 138/17/18 91/11/18 94/12/18 
f 94/12/18 139/18/18 138/17/18 
f 139/17/18 94/11/18 96/12/18 
f 96/12/18 140/18/18 139/17/18 
f 140/17/18 96/11/18 98/12/18 
f 98/12/18 141/18/18 140/17/18 
f 141/19/18 98/1/18 100/2/18 
f 100/2/18 142/20/18 141/19/18 
f 142/19/18 100/21/18 102/22/18 
f 102/22/18 143/20/18 142/19/18 
f 143/23/18 102/24/18 104/25/18 
f 104/25/18 144/26/18 143/23/18 
f 144/23/18 104/24/18 106/27/18 
f 106/27/18 145/28/18 144/23/18 
f 145/29/18 106/11/18 108/12/18 
f 108/12/18 146/30/18 145/29/18 
f 146/29/18 108/11/18 110/31/19 
f 110/31/19 147/32/20 146/29/18 
s off
f 148/61/21 147/62/21 110/63/21 
f 110/63/21 109/64/21 148/61/21 
f 149/61/22 91/63/22 138/62/22 
f 91/63/22 149/61/22 92/64/22 
s 1
f 150/1/23 151/2/24 152/3/25 
f 152/3/25 153/4/26 150/1/23 
f 151/1/24 154/2/27 155/3/28 
f 155/3/28 152/4/25 151/1/24 
f 154/5/27 156/6/27 157/7/28 
f 157/7/28 155/8/28 154/5/27 
f 156/9/27 158/10/27 159/7/28 
f 159/7/28 157/8/28 156/9/27 
f 158/11/27 160/12/27 161/13/28 
f 161/13/28 159/14/28 158/11/27 
f 160/11/27 162/12/27 163/13/28 
f 163/13/28 161/14/28 160/11/27 
f 162/1/27 164/2/27 165/15/28 
f 165/15/28 163/16/28 162/1/27 
f 164/1/27 166/2/29 167/15/30 
f 167/15/30 165/16/28 164/1/27 
f 166/1/29 168/2/31 169/15/32 
f 169/15/32 167/16/30 166/1/29 
s 2
f 170/17/33 171/11/4 172/12/34 
f 172/12/34 173/18/5 170/17/33 
f 173/17/5 172/11/34 174/12/3 
f 174/12/3 175/18/3 173/17/5 
f 175/17/3 174/11/3 176/12/3 
f 176/12/3 177/18/3 175/17/3 
f 177/19/3 176/1/3 178/2/3 
f 178/2/3 179/20/3 177/19/3 
f 179/19/3 178/21/3 180/22/3 
f 180/22/3 181/20/3 179/19/3 
f 181/23/3 180/24/3 182/25/3 
f 182/25/3 183/26/3 181/23/3 
f 183/23/3 182/24/3 184/27/3 
f 184/27/3 185/28/3 183/23/3 
f 185/29/3 184/11/3 186/12/5 
f 186/12/5 187/30/35 185/29/3 
f 187/29/35 186/11/5 188/31/36 
f 188/31/36 189/32/7 187/29/35 
f 190/12/9 191/32/9 192/29/9 
f 192/29/9 193/11/9 190/12/9 
f 193/12/9 192/32/9 194/29/9 
f 194/29/9 195/11/9 193/12/9 
f 195/27/9 194/33/9 196/34/9 
f 196/34/9 197/24/9 195/27/9 
f 197/35/9 196/26/9 198/23/9 
f 198/23/9 199/36/9 197/35/9 
f 199/2/9 198/20/9 200/19/9 
f 200/19/9 201/1/9 199/2/9 
f 201/2/9 200/20/9 202/19/9 
f 202/19/9 203/1/9 201/2/9 
f 203/12/9 202/30/9 204/29/9 
f 204/29/9 205/11/9 203/12/9 
f 205/12/9 204/30/9 206/29/9 
f 206/29/9 207/11/9 205/12/9 
f 207/12/9 206/30/9 208/29/9 
f 208/29/9 209/11/9 207/12/9 
s 1
f 210/37/10 211/38/10 212/39/10 
f 212/39/10 213/40/10 210/37/10 
f 211/37/10 214/38/10 215/39/10 
f 215/39/10 212/40/10 211/37/10 
f 214/41/10 216/42/10 217/43/10 
f 217/43/10 215/44/10 214/41/10 
f 216/41/10 218/42/10 219/43/10 
f 219/43/10 217/44/10 216/41/10 
f 218/45/10 220/46/10 221/47/10 
f 221/47/10 219/48/10 218/45/10 
f 220/45/10 222/46/10 223/47/10 
f 223/47/10 221/48/10 220/45/10 
f 222/37/10 224/38/10 225/39/10 
f 225/39/10 223/40/10 222/37/10 
f 224/49/10 226/50/10 227/39/10 
f 227/39/10 225/40/10 224/49/10 
f 226/37/10 228/38/10 229/39/10 
f 229/39/10 227/40/10 226/37/10 
f 150/51/23 230/52/14 231/53/14 
f 231/53/14 151/54/24 150/51/23 
f 151/51/24 231/52/14 232/53/14 
f 232/53/14 154/54/27 151/51/24 
f 154/51/27 232/52/14 233/53/14 
f 233/53/14 156/54/27 154/51/27 
f 156/51/27 233/52/14 234/53/14 
f 234/53/14 158/54/27 156/51/27 
f 158/51/27 234/52/14 235/53/14 
f 235/53/14 160/54/27 158/51/27 
f 160/51/27 235/52/14 236/53/14 
f 236/53/14 162/54/27 160/51/27 
f 162/51/27 236/52/14 237/53/14 
f 237/53/14 164/54/27 162/51/27 
f 164/51/27 237/52/14 238/53/37 
f 238/53/37 166/54/29 164/51/27 
f 166/51/29 238/52/37 239/53/37 
f 239/53/37 168/54/31 166/51/29 
f 240/51/14 241/52/14 242/53/14 
f 242/53/14 243/54/14 240/51/14 
f 243/51/14 242/52/14 244/53/14 
f 244/53/14 245/54/14 243/51/14 
f 245/51/14 244/52/14 246/53/14 
f 246/53/14 247/54/14 245/51/14 
f 247/51/14 246/52/14 248/53/14 
f 248/53/14 249/54/14 247/51/14 
f 249/51/14 248/52/14 250/53/14 
f 250/53/14 251/54/14 249/51/14 
f 251/51/14 250/52/14 252/53/14 
f 252/53/14 253/54/14 251/51/14 
f 253/51/14 252/52/14 254/53/14 
f 254/53/14 255/54/14 253/51/14 
f 255/51/14 254/52/14 256/53/14 
f 256/53/14 257/54/14 255/51/14 
f 257/51/14 256/52/14 258/53/14 
f 258/53/14 259/54/14 257/51/14 
f 209/32/14 260/55/14 261/56/14 
f 261/56/14 207/29/14 209/32/14 
f 207/32/14 261/57/14 262/56/14 
f 262/56/14 205/29/14 207/32/14 
f 205/30/14 262/57/14 263/56/14 
f 263/56/14 203/29/14 205/30/14 
f 203/30/14 263/57/14 264/56/14 
f 264/56/14 201/29/14 203/30/14 
f 201/30/14 264/57/14 265/56/14 
f 265/56/14 199/29/14 201/30/14 
f 199/30/14 265/57/14 266/56/14 
f 266/56/14 197/29/14 199/30/14 
f 197/30/14 266/57/14 267/56/14 
f 267/56/14 195/29/14 197/30/14 
f 195/30/14 267/57/14 268/56/14 
f 268/56/14 193/29/14 195/30/14 
f 193/30/14 268/55/14 269/56/14 
f 269/56/14 190/29/14 193/30/14 
f 171/32/37 270/55/37 271/56/37 
f 271/56/37 172/29/37 171/32/37 
f 172/32/37 271/57/37 272/56/14 
f 272/56/14 174/29/14 172/32/37 
f 174/30/14 272/57/14 273/56/14 
f 273/56/14 176/29/14 174/30/14 
f 176/30/14 273/57/14 274/56/14 
f 274/56/14 178/29/14 176/30/14 
f 178/30/14 274/57/14 275/56/14 
f 275/56/14 180/29/14 178/30/14 
f 180/30/14 275/57/14 276/56/14 
f 276/56/14 182/29/14 180/30/14 
f 182/30/14 276/57/14 277/56/14 
f 277/56/14 184/29/14 182/30/14 
f 184/30/14 277/57/14 278/56/14 
f 278/56/14 186/29/14 184/30/14 
f 186/30/14 278/55/14 279/56/14 
f 279/56/14 188/29/14 186/30/14 
s off
f 229/58/16 228/59/16 280/60/16 
f 281/61/16 191/62/16 190/63/16 
f 190/63/16 269/64/16 281/61/16 
f 282/61/16 283/62/16 188/63/16 
f 188/63/16 279/64/16 282/61/16 
f 239/65/16 169/66/16 168/67/16 
f 284/61/17 270/64/17 171/63/17 
f 171/63/17 170/62/17 284/61/17 
f 230/65/17 150/67/17 153/66/17 
f 213/58/17 285/60/17 210/59/17 
f 286/61/17 260/64/17 209/63/17 
f 209/63/17 208/62/17 286/61/17 
s 2
f 287/17/38 240/11/39 243/12/40 
f 243/12/40 288/18/40 287/17/38 
f 288/17/40 243/11/40 245/12/41 
f 245/12/41 289/18/41 288/17/40 
f 289/17/41 245/11/41 247/12/42 
f 247/12/42 290/18/42 289/17/41 
f 290/19/42 247/1/42 249/2/41 
f 249/2/41 291/20/41 290/19/42 
f 291/19/41 249/21/41 251/22/42 
f 251/22/42 292/20/42 291/19/41 
f 292/23/42 251/24/42 253/25/41 
f 253/25/41 293/26/41 292/23/42 
f 293/23/41 253/24/41 255/27/42 
f 255/27/42 294/28/42 293/23/41 
f 294/29/42 255/11/42 257/12/41 
f 257/12/41 295/30/41 294/29/42 
f 295/29/41 257/11/41 259/31/19 
f 259/31/19 296/32/43 295/29/41 
s off
f 297/61/21 296/62/21 259/63/21 
f 259/63/21 258/64/21 297/61/21 
f 298/61/22 240/63/22 287/62/22 
f 240/63/22 298/61/22 241/64/22 
# 0 polygons - 356 triangles

