# 3ds Max Wavefront OBJ Exporter v0.97b - (c)2007 guruware
# File Created: 04.10.2018 22:25:52

#
# object Ground_Pavement_LOD001
#

v  -0.0000 0.1000 32.0000
v  -0.0000 0.1000 16.0000
v  -9.0000 0.1000 16.0000
v  -9.0000 0.1000 32.0000
v  -0.0000 0.1000 -0.0000
v  -9.0000 0.1000 -0.0000
v  -0.0000 0.1000 -16.0000
v  -9.0000 0.1000 -16.0000
v  -0.0000 0.1000 -32.0000
v  -9.0000 0.1000 -32.0000
v  9.0000 0.1000 32.0000
v  9.0000 0.1000 16.0000
v  9.0000 0.1000 -0.0000
v  9.0000 0.1000 -16.0000
v  9.0000 0.1000 -32.0000
# 15 vertices

vn 0.0000 1.0000 -0.0000
# 1 vertex normals

vt 0.4980 0.0724 0.0000
vt 0.4979 0.2862 0.0000
vt 0.0670 0.2862 0.0000
vt 0.0670 0.0724 0.0000
vt 0.4979 0.5000 0.0000
vt 0.0670 0.5000 0.0000
vt 0.4979 0.7138 0.0000
vt 0.0670 0.7138 0.0000
vt 0.4979 0.9276 0.0000
vt 0.0670 0.9276 0.0000
vt 0.9289 0.0724 0.0000
vt 0.9289 0.2862 0.0000
vt 0.9289 0.5000 0.0000
vt 0.9289 0.7138 0.0000
vt 0.9289 0.9276 0.0000
# 15 texture coords

g Ground_Pavement_LOD001
s off
f 1/1/1 2/2/1 3/3/1 4/4/1 
f 2/2/1 5/5/1 6/6/1 3/3/1 
f 5/5/1 7/7/1 8/8/1 6/6/1 
f 7/7/1 9/9/1 10/10/1 8/8/1 
f 11/11/1 12/12/1 2/2/1 1/1/1 
f 12/12/1 13/13/1 5/5/1 2/2/1 
f 13/13/1 14/14/1 7/7/1 5/5/1 
f 14/14/1 15/15/1 9/9/1 7/7/1 
# 8 polygons

