# 3ds Max Wavefront OBJ Exporter v0.97b - (c)2007 guruware
# File Created: 24.02.2019 08:21:53

#
# object Object003
#

v  -5.9994 0.1750 -0.0000
v  -7.3742 0.1922 -16.0000
v  -3.3742 0.1922 -16.0000
v  -1.9994 0.1750 -0.0000
v  4.6250 0.1578 16.0000
v  0.6250 0.1578 16.0000
v  2.0000 0.1750 -0.0000
v  6.0000 0.1750 -0.0000
v  4.0000 0.1500 32.0000
v  0.0000 0.1500 32.0000
v  7.3750 0.1922 -16.0000
v  3.3750 0.1922 -16.0000
v  4.0000 0.2000 -32.0000
v  8.0000 0.2000 -32.0000
v  -0.6249 0.1578 16.0000
v  -4.6249 0.1578 16.0000
v  -4.0000 0.1500 32.0000
v  -4.0000 0.2000 -32.0000
v  -8.0000 0.2000 -32.0000
v  0.0000 0.1500 -0.0000
v  0.0000 0.1500 16.0000
v  -4.0000 0.1500 16.0000
v  -4.0000 0.1500 -0.0000
v  0.0000 0.1500 -16.0000
v  -4.0000 0.1500 -16.0000
v  -4.0000 0.1500 -32.0000
v  0.0000 0.1500 -32.0000
v  4.0000 0.1500 -16.0000
v  4.0000 0.1500 -0.0000
v  4.0000 0.1500 16.0000
v  4.0000 0.1500 -32.0000
# 31 vertices

vn 0.0000 1.0000 0.0011
vn 0.0000 1.0000 0.0008
vn 0.0000 1.0000 0.0005
vn 0.0000 1.0000 -0.0000
# 4 vertex normals

vt 1.0000 0.5000 0.0000
vt 1.0000 0.7500 0.0000
vt 0.5000 0.7500 0.0000
vt 0.5000 0.5000 0.0000
vt 0.0000 0.2500 0.0000
vt 0.5000 0.2500 0.0000
vt 0.0000 0.5000 0.0000
vt 0.0000 0.0000 0.0000
vt 0.5000 0.0000 0.0000
vt 0.0000 0.7500 0.0000
vt 0.5000 1.0000 0.0000
vt 0.0000 1.0000 0.0000
vt 1.0000 0.2500 0.0000
vt 1.0000 0.0000 0.0000
vt 1.0000 1.0000 0.0000
# 15 texture coords

g Object003
s 1
f 4/4/1 3/3/2 2/2/2 1/1/1 
f 8/7/1 7/4/1 6/6/2 5/5/2 
f 5/5/2 6/6/2 10/9/3 9/8/3 
f 14/12/3 13/11/3 12/3/2 11/10/2 
f 1/1/1 16/13/2 15/6/2 4/4/1 
f 16/13/2 17/14/3 10/9/3 15/6/2 
f 19/15/3 2/2/2 3/3/2 18/11/3 
f 7/4/1 8/7/1 11/10/2 12/3/2 
f 23/4/4 22/6/4 21/5/4 20/7/4 
f 22/6/4 17/9/4 10/8/4 21/5/4 
f 27/12/4 26/11/4 25/3/4 24/10/4 
f 29/4/4 28/3/4 24/2/4 20/1/4 
f 20/7/4 24/10/4 25/3/4 23/4/4 
f 20/1/4 21/13/4 30/6/4 29/4/4 
f 21/13/4 10/14/4 9/9/4 30/6/4 
f 27/15/4 24/2/4 28/3/4 31/11/4 
# 16 polygons

