# 3ds Max Wavefront OBJ Exporter v0.97b - (c)2007 guruware
# File Created: 25.09.2017 08:03:04

#
# object Slope_Pavement_Steel_Bar
#

v  8.4493 6.0000 -13.7143
v  8.4493 7.0000 -13.7143
v  7.5000 7.0000 -13.7143
v  -7.4997 7.0000 -13.7143
v  -8.4490 7.0000 -13.7143
v  -8.4490 6.0000 -13.7143
v  8.4493 6.0000 -32.0000
v  7.5000 7.0000 -32.0000
v  8.4493 7.0000 -32.0000
v  -8.4490 7.0000 -32.0000
v  -7.4997 7.0000 -32.0000
v  -8.4490 6.0000 -32.0000
v  8.4493 6.0000 -27.4286
v  7.5000 7.0000 -27.4286
v  8.4493 6.0000 -22.8571
v  7.5000 7.0000 -22.8571
v  8.4493 6.0000 -18.2857
v  7.5000 7.0000 -18.2857
v  -7.4997 7.0000 -27.4286
v  -8.4490 6.0000 -27.4286
v  -7.4997 7.0000 -22.8571
v  -8.4490 6.0000 -22.8571
v  -7.4997 7.0000 -18.2857
v  -8.4490 6.0000 -18.2857
# 24 vertices

vn 0.0000 0.0000 1.0000
vn 0.0000 0.0000 -1.0000
vn -0.7253 -0.6885 -0.0000
vn 0.7253 -0.6885 -0.0000
# 4 vertex normals

vt 0.9639 1.4242 0.0000
vt 0.9639 1.4659 0.0000
vt 0.9269 1.4659 0.0000
vt 0.9639 1.4620 0.0000
vt 0.9269 1.4620 0.0000
vt 0.9269 1.4203 0.0000
vt 0.9773 0.5565 0.0000
vt 0.9272 0.5565 0.0000
vt 0.9272 0.4851 0.0000
vt 0.9773 0.4851 0.0000
vt 0.9773 0.6280 0.0000
vt 0.9272 0.6280 0.0000
vt 0.9773 0.6994 0.0000
vt 0.9272 0.6994 0.0000
vt 0.9773 0.7708 0.0000
vt 0.9272 0.7708 0.0000
# 16 texture coords

g Slope_Pavement_Steel_Bar
s 4
f 1/1/1 2/2/1 3/3/1 
f 4/4/1 5/5/1 6/6/1 
f 7/1/2 8/3/2 9/2/2 
f 10/5/2 11/4/2 12/6/2 
s 8
f 13/7/3 14/8/3 8/9/3 
f 8/9/3 7/10/3 13/7/3 
f 15/11/3 16/12/3 14/8/3 13/7/3 
f 17/13/3 18/14/3 16/12/3 15/11/3 
f 1/15/3 3/16/3 18/14/3 17/13/3 
f 19/8/4 20/7/4 12/10/4 
f 12/10/4 11/9/4 19/8/4 
f 21/12/4 22/11/4 20/7/4 19/8/4 
f 23/14/4 24/13/4 22/11/4 21/12/4 
f 4/16/4 6/15/4 24/13/4 23/14/4 
# 6 polygons - 8 triangles

