# 3ds Max Wavefront OBJ Exporter v0.97b - (c)2007 guruware
# File Created: 07.09.2018 23:35:19

#
# object Slope_U_Node_Pavement_Steel_Fence
#

v  -3.6260 -0.0500 -25.0000
v  -3.6260 5.0006 -25.0000
v  -4.2260 5.0006 -25.0000
v  -4.2260 -0.0500 -25.0000
v  -3.6260 -0.0500 -27.0000
v  -3.6260 5.0006 -27.0000
v  -4.2260 -0.0500 -27.0000
v  -4.2260 5.0006 -27.0000
v  -4.2260 5.0006 -23.3333
v  -4.2260 5.0006 -28.6667
v  -3.6260 5.0006 -28.6667
v  -3.6260 5.0006 -23.3333
v  -3.6260 7.0006 -28.6667
v  -3.6260 7.0006 -23.3333
v  -4.2260 7.0006 -23.3333
v  -4.2260 7.0006 -28.6667
v  -4.2260 5.0006 -32.0000
v  -3.6260 5.0006 -32.0000
v  -3.6260 7.0006 -32.0000
v  -4.2260 7.0006 -32.0000
v  4.2260 0.0000 -25.0000
v  4.2260 5.0506 -25.0000
v  3.6260 5.0506 -25.0000
v  3.6260 0.0000 -25.0000
v  4.2260 0.0000 -27.0000
v  4.2260 5.0506 -27.0000
v  3.6260 0.0000 -27.0000
v  3.6260 5.0506 -27.0000
v  3.6260 5.0506 -23.3333
v  3.6260 5.0506 -28.6667
v  4.2260 5.0506 -28.6667
v  4.2260 5.0506 -23.3333
v  4.2260 7.0506 -28.6667
v  4.2260 7.0506 -23.3333
v  3.6260 7.0506 -23.3333
v  3.6260 7.0506 -28.6667
v  3.6260 5.0506 -32.0000
v  4.2260 5.0506 -32.0000
v  4.2260 7.0506 -32.0000
v  3.6260 7.0506 -32.0000
# 40 vertices

vn 0.0000 0.0000 1.0000
vn 1.0000 0.0000 -0.0000
vn 0.0000 0.0000 -1.0000
vn -1.0000 0.0000 -0.0000
vn 0.0000 -1.0000 -0.0000
# 5 vertex normals

vt 0.9655 0.0000 0.0000
vt 0.9655 1.0000 0.0000
vt 0.9268 1.0000 0.0000
vt 0.9268 0.0000 0.0000
vt 0.0000 0.5614 0.0000
vt 0.0000 0.2807 0.0000
vt 0.1214 0.2807 0.0000
vt 0.1214 0.5614 0.0000
vt 0.0000 0.1053 0.0000
vt 0.1214 0.1053 0.0000
# 10 texture coords

g Slope_U_Node_Pavement_Steel_Fence
s off
f 1/1/1 2/2/1 3/3/1 4/4/1 
f 5/1/2 6/2/2 2/3/2 1/4/2 
f 7/1/3 8/2/3 6/3/3 5/4/3 
f 4/1/4 3/2/4 8/3/4 7/4/4 
f 9/5/5 10/6/5 11/7/5 12/8/5 
f 12/5/2 11/6/2 13/7/2 14/8/2 
f 15/5/4 16/6/4 10/7/4 9/8/4 
f 10/6/5 17/9/5 18/10/5 11/7/5 
f 11/6/2 18/9/2 19/10/2 13/7/2 
f 16/6/4 20/9/4 17/10/4 10/7/4 
f 15/10/1 9/9/1 12/6/1 14/7/1 
f 21/1/1 22/2/1 23/3/1 24/4/1 
f 25/1/2 26/2/2 22/3/2 21/4/2 
f 27/1/3 28/2/3 26/3/3 25/4/3 
f 24/1/4 23/2/4 28/3/4 27/4/4 
f 29/5/5 30/6/5 31/7/5 32/8/5 
f 32/5/2 31/6/2 33/7/2 34/8/2 
f 35/5/4 36/6/4 30/7/4 29/8/4 
f 30/6/5 37/9/5 38/10/5 31/7/5 
f 31/6/2 38/9/2 39/10/2 33/7/2 
f 36/6/4 40/9/4 37/10/4 30/7/4 
f 35/10/1 29/9/1 32/6/1 34/7/1 
# 22 polygons

