# 3ds Max Wavefront OBJ Exporter v0.97b - (c)2007 guruware
# File Created: 25.09.2017 08:03:06

#
# object Slope_Node_Pavement_LOD
#

v  -7.0000 0.0000 32.0000
v  -7.0000 0.0500 -0.0000
v  -10.0000 0.0500 -0.0000
v  -10.0000 0.0000 32.0000
v  -7.0000 0.0500 -32.0000
v  -10.0000 0.0500 -32.0000
v  -10.0000 -0.3000 32.0000
v  -7.0000 -0.3000 32.0000
v  7.0000 0.0000 32.0000
v  7.0000 0.0500 -0.0000
v  0.0000 0.0500 -0.0000
v  0.0000 0.0000 32.0000
v  7.0000 0.0500 -32.0000
v  0.0000 0.0500 -32.0000
v  7.0000 -0.3000 32.0000
v  0.0000 -0.3000 32.0000
v  10.0000 0.0000 32.0000
v  10.0000 0.0500 -0.0000
v  10.0000 0.0500 -32.0000
v  10.0000 -0.3000 32.0000
v  9.7000 2.6500 32.0000
v  10.0000 2.6500 32.0000
v  10.0000 2.7000 -0.0000
v  9.7000 2.7000 -0.0000
v  10.0000 2.7000 -32.0000
v  9.7000 2.7000 -32.0000
v  9.7000 0.0000 32.0000
v  9.7000 0.0500 -32.0000
v  9.7000 0.0500 -0.0000
v  -10.0000 2.6500 32.0000
v  -9.7000 2.6500 32.0000
v  -9.7000 2.7000 -0.0000
v  -10.0000 2.7000 -0.0000
v  -9.7000 2.7000 -32.0000
v  -10.0000 2.7000 -32.0000
v  -9.7000 0.0000 32.0000
v  -9.7000 0.0500 -0.0000
v  -9.7000 0.0500 -32.0000
# 38 vertices

vn 0.0000 1.0000 0.0016
vn 0.0000 1.0000 -0.0000
vn 0.0000 0.0000 1.0000
vn 1.0000 0.0000 -0.0000
vn 0.0000 0.0000 -1.0000
vn -1.0000 0.0000 -0.0000
# 6 vertex normals

vt 0.0748 0.0000 0.0000
vt 0.0748 0.5000 0.0000
vt 0.0050 0.5000 0.0000
vt 0.0050 0.0000 0.0000
vt 0.0748 1.0000 0.0000
vt 0.0050 1.0000 0.0000
vt 0.2843 0.0000 0.0000
vt 0.2843 0.5000 0.0000
vt 0.1795 0.5000 0.0000
vt 0.1795 0.0000 0.0000
vt 0.2843 1.0000 0.0000
vt 0.1795 1.0000 0.0000
vt 0.3541 0.0000 0.0000
vt 0.3541 0.5000 0.0000
vt 0.3541 1.0000 0.0000
vt 0.6725 0.0000 0.0000
vt 0.7495 0.0000 0.0000
vt 0.7495 0.5000 0.0000
vt 0.6723 0.5000 0.0000
vt 0.6725 0.5000 0.0000
vt 0.7495 1.0000 0.0000
vt 0.6725 1.0000 0.0000
vt 0.7355 0.0000 0.0000
vt 0.7355 1.0000 0.0000
vt 0.6723 1.0000 0.0000
vt 0.6723 0.0000 0.0000
vt 0.7355 0.5000 0.0000
# 27 texture coords

g Slope_Node_Pavement_LOD
s off
f 1/1/1 2/2/1 3/3/1 
f 3/3/1 4/4/1 1/1/1 
f 2/2/2 5/5/2 6/6/2 
f 6/6/2 3/3/2 2/2/2 
f 7/4/3 8/1/3 1/1/3 
f 1/1/3 4/4/3 7/4/3 
f 9/7/1 10/8/1 11/9/1 
f 11/9/1 12/10/1 9/7/1 
f 10/8/2 13/11/2 14/12/2 
f 14/12/2 11/9/2 10/8/2 
f 15/7/3 9/7/3 12/10/3 
f 12/10/3 16/10/3 15/7/3 
f 17/13/1 18/14/1 10/8/1 
f 10/8/1 9/7/1 17/13/1 
f 18/14/2 19/15/2 13/11/2 
f 13/11/2 10/8/2 18/14/2 
f 20/13/3 17/13/3 9/7/3 
f 9/7/3 15/7/3 20/13/3 
f 12/10/1 11/9/1 2/2/1 
f 2/2/1 1/1/1 12/10/1 
f 11/9/2 14/12/2 5/5/2 
f 5/5/2 2/2/2 11/9/2 
f 16/10/3 12/10/3 1/1/3 
f 1/1/3 8/1/3 16/10/3 
f 21/16/1 22/17/1 23/18/1 
f 23/18/1 24/19/1 21/16/1 
f 24/20/2 23/18/2 25/21/2 
f 25/21/2 26/22/2 24/20/2 
f 27/23/3 17/24/3 22/25/3 
f 22/25/3 21/26/3 27/23/3 
f 17/23/4 18/27/4 23/19/4 
f 23/19/4 22/26/4 17/23/4 
f 18/27/4 19/24/4 25/25/4 
f 25/25/4 23/19/4 18/27/4 
f 19/23/5 28/24/5 26/25/5 
f 26/25/5 25/26/5 19/23/5 
f 29/27/6 24/19/6 26/26/6 
f 26/26/6 28/23/6 29/27/6 
f 27/24/6 21/25/6 24/19/6 
f 24/19/6 29/27/6 27/24/6 
f 30/16/1 31/17/1 32/18/1 
f 32/18/1 33/20/1 30/16/1 
f 33/20/2 32/18/2 34/21/2 
f 34/21/2 35/22/2 33/20/2 
f 4/23/3 36/24/3 31/25/3 
f 31/25/3 30/26/3 4/23/3 
f 36/23/4 37/27/4 32/19/4 
f 32/19/4 31/26/4 36/23/4 
f 37/27/4 38/24/4 34/25/4 
f 34/25/4 32/19/4 37/27/4 
f 38/23/5 6/24/5 35/25/5 
f 35/25/5 34/26/5 38/23/5 
f 3/27/6 33/19/6 35/26/6 
f 35/26/6 6/23/6 3/27/6 
f 4/24/6 30/25/6 33/19/6 
f 33/19/6 3/27/6 4/24/6 
# 0 polygons - 56 triangles

