# 3ds Max Wavefront OBJ Exporter v0.97b - (c)2007 guruware
# File Created: 25.09.2017 08:03:03

#
# object Slope_Pavement_Steel_Ground
#

v  -8.4500 0.0459 26.6667
v  -8.4502 0.0500 32.0000
v  8.4498 0.0500 32.0000
v  8.4500 0.0459 26.6667
v  8.4501 0.0167 -10.6667
v  -8.4498 0.0167 -10.6667
v  -8.4498 0.0209 -5.3333
v  8.4502 0.0209 -5.3333
v  -8.4498 0.0126 -16.0000
v  8.4503 0.0126 -16.0000
v  -8.4498 0.0084 -21.3333
v  8.4501 0.0084 -21.3333
v  -8.4498 0.0042 -26.6667
v  8.4501 0.0042 -26.6667
v  8.4500 0.0292 5.3333
v  8.4501 0.0251 -0.0000
v  -8.4498 0.0251 -0.0000
v  -8.4500 0.0292 5.3333
v  8.4501 0.0334 10.6699
v  -8.4498 0.0334 10.6699
v  8.4501 0.0376 16.0000
v  -8.4498 0.0376 16.0000
v  8.4501 0.0417 21.3301
v  -8.4499 0.0417 21.3301
v  8.4501 0.0000 -32.0000
v  -8.4498 0.0000 -32.0000
# 26 vertices

vn 0.0000 1.0000 -0.0008
vn -0.0000 1.0000 -0.0008
# 2 vertex normals

vt 0.4037 0.0833 0.0000
vt 0.4037 0.0000 0.0000
vt 0.7494 0.0000 0.0000
vt 0.7494 0.0833 0.0000
vt 0.7494 0.6666 0.0000
vt 0.4037 0.6666 0.0000
vt 0.4037 0.5833 0.0000
vt 0.7494 0.5833 0.0000
vt 0.4039 0.7499 0.0000
vt 0.7494 0.7499 0.0000
vt 0.4037 0.8333 0.0000
vt 0.7494 0.8333 0.0000
vt 0.4037 0.9166 0.0000
vt 0.7494 0.9166 0.0000
vt 0.7494 0.4166 0.0000
vt 0.7494 0.5000 0.0000
vt 0.4037 0.5000 0.0000
vt 0.4037 0.4166 0.0000
vt 0.7494 0.3333 0.0000
vt 0.4037 0.3333 0.0000
vt 0.7494 0.2500 0.0000
vt 0.4037 0.2500 0.0000
vt 0.7494 0.1667 0.0000
vt 0.4037 0.1667 0.0000
vt 0.7494 0.9999 0.0000
vt 0.4037 0.9999 0.0000
# 26 texture coords

g Slope_Pavement_Steel_Ground
s off
f 1/1/1 2/2/1 3/3/1 4/4/1 
f 5/5/2 6/6/2 7/7/2 8/8/2 
f 9/9/1 6/6/1 5/5/1 10/10/1 
f 11/11/1 9/9/1 10/10/1 12/12/1 
f 13/13/1 11/11/1 12/12/1 14/14/1 
f 15/15/1 16/16/1 17/17/1 18/18/1 
f 19/19/1 15/15/1 18/18/1 20/20/1 
f 21/21/1 19/19/1 20/20/1 22/22/1 
f 23/23/2 21/21/2 22/22/2 24/24/2 
f 4/4/2 23/23/2 24/24/2 1/1/2 
f 16/16/1 8/8/1 7/7/1 17/17/1 
f 14/14/1 25/25/1 26/26/1 13/13/1 
# 12 polygons

