# 3ds Max Wavefront OBJ Exporter v0.97b - (c)2007 guruware
# File Created: 25.09.2017 08:03:02

#
# object Slope_U_Node_Pavement_Steel
#

v  10.0000 8.2002 27.4317
v  10.0000 8.2002 32.0000
v  10.0000 -0.3000 32.0000
v  10.0000 -0.3000 27.4317
v  10.0000 8.2002 22.8602
v  10.0000 -0.3000 22.8602
v  10.0000 8.2002 18.2888
v  10.0000 -0.3000 18.2888
v  10.0000 8.2002 13.7174
v  10.0000 -0.3000 13.7174
v  10.0000 8.2002 9.1460
v  10.0000 -0.3000 9.1460
v  10.0000 8.2002 4.5745
v  10.0000 -0.3000 4.5745
v  10.0000 8.2002 0.0031
v  10.0000 -0.3000 0.0031
v  10.0000 8.2002 -4.5683
v  10.0000 -0.3000 -4.5683
v  10.0000 8.2002 -9.1398
v  10.0000 -0.3000 -9.1398
v  10.0000 8.2002 -13.7112
v  10.0000 -0.3000 -13.7112
v  10.0000 8.2002 -18.2826
v  10.0000 -0.3000 -18.2826
v  10.0000 8.2002 -22.8540
v  10.0000 -0.3000 -22.8540
v  10.0000 8.2002 -27.4255
v  10.0000 -0.3000 -27.4255
v  10.0000 8.2002 -32.0000
v  10.0000 -0.3000 -32.0000
v  -10.0000 8.2002 -32.0000
v  -10.0000 -0.3000 -32.0000
v  -10.0000 -0.3000 -27.4255
v  -10.0000 8.2002 -27.4255
v  -10.0000 -0.3000 -22.8540
v  -10.0000 8.2002 -22.8540
v  -10.0000 -0.3000 -18.2826
v  -10.0000 8.2002 -18.2826
v  -10.0000 -0.3000 -13.7112
v  -10.0000 8.2002 -13.7112
v  -10.0000 -0.3000 -9.1398
v  -10.0000 8.2002 -9.1398
v  -10.0000 -0.3000 -4.5683
v  -10.0000 8.2002 -4.5683
v  -10.0000 -0.3000 0.0031
v  -10.0000 8.2002 0.0031
v  -10.0000 -0.3000 4.5745
v  -10.0000 8.2002 4.5745
v  -10.0000 -0.3000 9.1460
v  -10.0000 8.2002 9.1460
v  -10.0000 -0.3000 13.7174
v  -10.0000 8.2002 13.7174
v  -10.0000 -0.3000 18.2888
v  -10.0000 8.2002 18.2888
v  -10.0000 -0.3000 22.8602
v  -10.0000 8.2002 22.8602
v  -10.0000 -0.3000 27.4317
v  -10.0000 8.2002 27.4317
v  -10.0000 -0.3000 32.0000
v  -10.0000 8.2002 32.0000
v  9.5000 8.0000 27.4324
v  9.5000 0.0000 27.4322
v  9.5000 0.0000 32.0000
v  9.5000 8.0000 32.0000
v  9.5000 8.0000 22.8613
v  9.5000 0.0000 22.8611
v  9.5000 8.0000 18.2901
v  9.5000 0.0000 18.2899
v  9.5000 8.0000 13.7189
v  9.5000 0.0000 13.7188
v  9.5000 8.0000 9.1476
v  9.5000 0.0000 9.1475
v  9.5000 8.0000 4.5762
v  9.5000 0.0000 4.5761
v  9.5000 8.0000 0.0048
v  9.5000 0.0000 0.0047
v  9.5000 8.0000 -4.5667
v  9.5000 0.0000 -4.5668
v  9.5000 8.0000 -9.1382
v  9.5000 0.0000 -9.1383
v  9.5000 8.0000 -13.7098
v  9.5000 0.0000 -13.7099
v  9.5000 8.0000 -18.2815
v  9.5000 0.0000 -18.2815
v  9.5000 8.0000 -22.8532
v  9.5000 0.0000 -22.8532
v  9.5000 8.0000 -27.4250
v  9.5000 0.0000 -27.4250
v  8.4500 6.9998 -32.0000
v  8.4500 0.0000 -32.0000
v  8.4500 0.0000 -27.4250
v  8.4500 6.9998 -27.4250
v  -8.4500 6.9998 -32.0000
v  -8.4500 6.9998 -27.4250
v  -8.4500 0.0000 -27.4250
v  -8.4500 0.0000 -32.0000
v  -9.5000 8.0000 -27.4250
v  -9.5000 8.0000 -22.8532
v  -9.5000 0.0000 -22.8532
v  -9.5000 0.0000 -27.4250
v  -9.5000 8.0000 -18.2815
v  -9.5000 0.0000 -18.2815
v  -9.5000 8.0000 -13.7098
v  -9.5000 0.0000 -13.7099
v  -9.5000 8.0000 -9.1382
v  -9.5000 0.0000 -9.1383
v  -9.5000 8.0000 -4.5667
v  -9.5000 0.0000 -4.5668
v  -9.5000 8.0000 0.0048
v  -9.5000 0.0000 0.0047
v  -9.5000 8.0000 4.5762
v  -9.5000 0.0000 4.5761
v  -9.5000 8.0000 9.1476
v  -9.5000 0.0000 9.1475
v  -9.5000 8.0000 13.7189
v  -9.5000 0.0000 13.7188
v  -9.5000 8.0000 18.2901
v  -9.5000 0.0000 18.2899
v  -9.5000 8.0000 22.8613
v  -9.5000 0.0000 22.8611
v  -9.5000 8.0000 27.4324
v  -9.5000 0.0000 27.4322
v  -9.5000 8.0000 32.0000
v  -9.5000 0.0000 32.0000
v  -7.4995 8.2002 27.4317
v  -7.4995 8.2002 32.0000
v  -7.4995 8.2002 22.8602
v  -7.4995 8.2002 18.2888
v  -7.4995 8.2002 13.7174
v  -7.4995 8.2002 9.1460
v  -7.4995 8.2002 4.5745
v  -7.4995 8.2002 0.0031
v  -7.4995 8.2002 -4.5683
v  -7.4995 8.2002 -9.1398
v  -7.4995 8.2002 -13.7112
v  -7.4995 8.2002 -18.2826
v  -7.4995 8.2002 -22.8540
v  -7.4995 8.2002 -27.4255
v  -7.4995 8.2002 -32.0000
v  -7.4995 8.0000 32.0000
v  -7.4995 8.0000 27.4324
v  7.5005 8.0000 27.4324
v  7.5005 8.0000 22.8613
v  7.5005 8.0000 18.2901
v  7.5005 8.0000 13.7189
v  7.5005 8.0000 9.1476
v  7.5005 8.0000 4.5762
v  7.5005 8.0000 0.0048
v  7.5005 8.0000 -4.5667
v  7.5005 8.0000 -9.1382
v  7.5005 8.0000 -13.7098
v  7.5005 8.0000 -18.2815
v  7.5005 8.0000 -22.8532
v  7.5005 8.0000 -27.4250
v  -7.4995 8.0000 -27.4250
v  -9.5000 8.0000 -32.0000
v  -7.4995 8.0000 -32.0000
v  7.5005 6.9998 -27.4250
v  7.5005 6.9998 -32.0000
v  8.4499 6.9998 -32.0000
v  8.4499 6.9998 -27.4250
v  -7.4995 6.9998 -27.4250
v  -7.4995 7.2134 -27.4250
v  0.0000 8.0000 -27.4250
v  0.0000 6.9998 -27.4250
v  9.5000 0.0000 -32.0000
v  9.5000 8.0000 -32.0000
v  -9.5000 0.0000 -32.0000
v  -8.4499 6.9998 -32.0000
v  -8.4499 0.0000 -32.0000
v  -7.4995 6.9998 -32.0000
v  -7.4995 7.2134 -32.0000
v  7.5005 8.0000 -32.0000
v  0.0000 8.0000 -32.0000
v  0.0000 6.9998 -32.0000
v  -7.4995 0.0000 27.4322
v  -7.4995 0.0000 32.0000
v  7.5005 0.0000 22.8611
v  7.5005 0.0000 27.4322
v  7.5005 0.0000 18.2899
v  7.5005 0.0000 13.7188
v  7.5005 0.0000 9.1475
v  7.5005 0.0000 4.5761
v  7.5005 0.0000 0.0047
v  7.5005 0.0000 -4.5667
v  9.5000 0.0000 -4.5667
v  7.5005 0.0000 -9.1383
v  7.5005 0.0000 -13.7099
v  7.5005 0.0000 -18.2815
v  7.5005 0.0000 -22.8532
v  7.5005 0.0000 -27.4250
v  -7.4995 0.0000 -32.0000
v  -7.4995 0.0000 -27.4250
v  7.5005 8.2002 27.4317
v  0.0000 8.2002 27.4317
v  0.0000 8.2002 32.0000
v  7.5005 8.2002 32.0000
v  7.5005 8.2002 22.8602
v  0.0000 8.2002 22.8602
v  7.5005 8.2002 18.2888
v  0.0000 8.2002 18.2888
v  7.5005 8.2002 13.7174
v  0.0000 8.2002 13.7174
v  7.5005 8.2002 9.1460
v  0.0000 8.2002 9.1460
v  7.5005 8.2002 4.5745
v  0.0000 8.2002 4.5745
v  7.5005 8.2002 0.0031
v  0.0000 8.2002 0.0031
v  7.5005 8.2002 -4.5683
v  0.0000 8.2002 -4.5683
v  7.5005 8.2002 -9.1398
v  0.0000 8.2002 -9.1398
v  7.5005 8.2002 -13.7112
v  0.0000 8.2002 -13.7112
v  7.5005 8.2002 -18.2826
v  0.0000 8.2002 -18.2826
v  7.5005 8.2002 -22.8540
v  0.0000 8.2002 -22.8540
v  7.5005 8.2002 -27.4255
v  0.0000 8.2002 -27.4255
v  7.5005 8.2002 -32.0000
v  0.0000 8.2002 -32.0000
v  7.5005 8.0000 32.0000
v  0.0000 8.0000 32.0000
v  0.0000 8.0000 27.4324
v  -7.4995 8.0000 22.8613
v  0.0000 8.0000 22.8613
v  -7.4995 8.0000 18.2901
v  0.0000 8.0000 18.2901
v  -7.4995 8.0000 13.7189
v  0.0000 8.0000 13.7189
v  -7.4995 8.0000 9.1476
v  0.0000 8.0000 9.1476
v  -7.4995 8.0000 4.5762
v  0.0000 8.0000 4.5762
v  -7.4995 8.0000 0.0048
v  0.0000 8.0000 0.0048
v  -7.4995 8.0000 -4.5667
v  0.0000 8.0000 -4.5667
v  -7.4995 8.0000 -9.1382
v  0.0000 8.0000 -9.1382
v  -7.4995 8.0000 -13.7098
v  0.0000 8.0000 -13.7098
v  -7.4995 8.0000 -18.2815
v  0.0000 8.0000 -18.2815
v  -7.4995 8.0000 -22.8532
v  0.0000 8.0000 -22.8532
v  0.0000 0.0000 27.4322
v  0.0000 0.0000 32.0000
v  7.5005 0.0000 32.0000
v  0.0000 0.0000 22.8611
v  -7.4995 0.0000 22.8611
v  0.0000 0.0000 18.2899
v  -7.4995 0.0000 18.2899
v  0.0000 0.0000 13.7188
v  -7.4995 0.0000 13.7188
v  0.0000 0.0000 9.1475
v  -7.4995 0.0000 9.1475
v  0.0000 0.0000 4.5761
v  -7.4995 0.0000 4.5761
v  0.0000 0.0000 0.0047
v  -7.4995 0.0000 0.0047
v  0.0000 0.0000 -4.5667
v  -7.4995 0.0000 -4.5668
v  0.0000 0.0000 -9.1383
v  -7.4995 0.0000 -9.1383
v  0.0000 0.0000 -13.7099
v  -7.4995 0.0000 -13.7099
v  0.0000 0.0000 -18.2815
v  -7.4995 0.0000 -18.2815
v  0.0000 0.0000 -22.8532
v  -7.4995 0.0000 -22.8532
v  0.0000 0.0000 -27.4250
v  7.5005 0.0000 -32.0000
v  0.0000 0.0000 -32.0000
# 276 vertices

vn 1.0000 0.0000 -0.0000
vn -1.0000 0.0000 -0.0000
vn 0.0000 1.0000 -0.0000
vn 0.0000 -1.0000 -0.0000
vn 0.0000 0.0000 1.0000
vn 0.0000 0.0000 -1.0000
# 6 vertex normals

vt 0.0000 0.0675 0.0000
vt 0.0000 0.0000 0.0000
vt 0.3834 0.0000 0.0000
vt 0.3834 0.0675 0.0000
vt 0.0000 0.1350 0.0000
vt 0.3834 0.1350 0.0000
vt 0.0000 0.2028 0.0000
vt 0.3834 0.2028 0.0000
vt 0.0000 0.2703 0.0000
vt 0.3834 0.2703 0.0000
vt 0.0000 0.3378 0.0000
vt 0.3834 0.3378 0.0000
vt 0.0000 0.4053 0.0000
vt 0.3834 0.4053 0.0000
vt 0.0000 0.4730 0.0000
vt 0.3834 0.4730 0.0000
vt 0.0000 0.5406 0.0000
vt 0.3834 0.5406 0.0000
vt 0.0000 0.6081 0.0000
vt 0.3834 0.6081 0.0000
vt 0.0000 0.6756 0.0000
vt 0.3834 0.6756 0.0000
vt 0.0000 0.7433 0.0000
vt 0.3834 0.7433 0.0000
vt 0.0000 0.8108 0.0000
vt 0.3834 0.8108 0.0000
vt 0.0000 0.8784 0.0000
vt 0.3834 0.8784 0.0000
vt 0.0000 0.9459 0.0000
vt 0.3834 0.9459 0.0000
vt 0.9658 0.3322 0.0000
vt 0.9658 -0.0014 0.0000
vt 0.9268 -0.0014 0.0000
vt 0.9268 0.3322 0.0000
vt 0.0274 0.7916 0.0000
vt 0.0274 1.0000 0.0000
vt -0.0000 1.0000 0.0000
vt -0.0000 0.7916 0.0000
vt 0.0547 0.7916 0.0000
vt 0.0547 1.0000 0.0000
vt 0.0821 0.7916 0.0000
vt 0.0821 1.0000 0.0000
vt 0.1095 0.7916 0.0000
vt 0.1095 1.0000 0.0000
vt 0.1369 0.7916 0.0000
vt 0.1369 1.0000 0.0000
vt 0.1642 0.7916 0.0000
vt 0.1642 1.0000 0.0000
vt 0.1916 0.7916 0.0000
vt 0.1916 1.0000 0.0000
vt 0.2190 0.7916 0.0000
vt 0.2190 1.0000 0.0000
vt 0.2463 0.7916 0.0000
vt 0.2463 1.0000 0.0000
vt 0.2737 0.7916 0.0000
vt 0.2737 1.0000 0.0000
vt 0.3011 0.7916 0.0000
vt 0.3011 1.0000 0.0000
vt 0.3285 0.7916 0.0000
vt 0.3285 1.0000 0.0000
vt 0.3558 0.7916 0.0000
vt 0.3558 1.0000 0.0000
vt 0.3832 0.7916 0.0000
vt 0.3832 1.0000 0.0000
vt -0.0000 0.8181 0.0000
vt 0.0274 0.8181 0.0000
vt 0.0274 0.1818 0.0000
vt 0.0547 0.1818 0.0000
vt 0.0547 0.0000 0.0000
vt 0.0274 0.0000 0.0000
vt 0.0821 0.1818 0.0000
vt 0.0821 0.0000 0.0000
vt 0.1095 0.1818 0.0000
vt 0.1095 0.0000 0.0000
vt 0.1369 0.1818 0.0000
vt 0.1369 0.0000 0.0000
vt 0.1642 0.1818 0.0000
vt 0.1642 0.0000 0.0000
vt 0.1916 0.1818 0.0000
vt 0.1916 0.0000 0.0000
vt 0.2190 0.1818 0.0000
vt 0.2190 0.0000 0.0000
vt 0.2463 0.1818 0.0000
vt 0.2463 0.0000 0.0000
vt 0.2737 0.1818 0.0000
vt 0.2737 0.0000 0.0000
vt 0.3011 0.1818 0.0000
vt 0.3011 0.0000 0.0000
vt 0.3285 0.1818 0.0000
vt 0.3285 0.0000 0.0000
vt 0.3558 0.1818 0.0000
vt 0.3558 0.0000 0.0000
vt 0.3558 0.8181 0.0000
vt 0.3832 0.8181 0.0000
vt 0.9268 0.3682 0.0000
vt 0.9658 0.3665 0.0000
vt 0.9658 0.3309 0.0000
vt 0.9268 0.3326 0.0000
vt 0.9658 0.3326 0.0000
vt 0.9268 0.6649 0.0000
vt 0.9268 0.3309 0.0000
vt 0.9658 0.6649 0.0000
vt 0.9268 0.6663 0.0000
vt 0.9268 0.5950 0.0000
vt 0.9352 0.5950 0.0000
vt 0.9658 0.5448 0.0000
vt 0.9658 0.6663 0.0000
vt 0.9268 0.8786 0.0000
vt 0.9268 0.6659 0.0000
vt 0.9658 0.6659 0.0000
vt 0.9658 0.9287 0.0000
vt 0.6876 0.0714 0.0000
vt 0.7510 0.0714 0.0000
vt 0.7510 0.0000 0.0000
vt 0.6876 0.0000 0.0000
vt 0.4659 0.1429 0.0000
vt 0.4659 0.0714 0.0000
vt 0.4026 0.0714 0.0000
vt 0.4026 0.1429 0.0000
vt 0.4659 0.2143 0.0000
vt 0.4026 0.2143 0.0000
vt 0.4659 0.2857 0.0000
vt 0.4026 0.2857 0.0000
vt 0.4659 0.3571 0.0000
vt 0.4026 0.3571 0.0000
vt 0.4659 0.4286 0.0000
vt 0.4026 0.4286 0.0000
vt 0.4659 0.5000 0.0000
vt 0.4026 0.5000 0.0000
vt 0.4659 0.5714 0.0000
vt 0.4026 0.5714 0.0000
vt 0.4659 0.6429 0.0000
vt 0.4026 0.6429 0.0000
vt 0.4659 0.7143 0.0000
vt 0.4026 0.7143 0.0000
vt 0.4659 0.7857 0.0000
vt 0.4026 0.7857 0.0000
vt 0.4659 0.8571 0.0000
vt 0.4026 0.8571 0.0000
vt 0.4659 0.9286 0.0000
vt 0.4026 0.9286 0.0000
vt 0.6876 1.0000 0.0000
vt 0.7510 1.0000 0.0000
vt 0.7510 0.9286 0.0000
vt 0.6876 0.9286 0.0000
vt 0.0274 0.2083 0.0000
vt 0.0274 0.5000 0.0000
vt -0.0000 0.5000 0.0000
vt -0.0000 0.2083 0.0000
vt 0.0547 0.2083 0.0000
vt 0.0547 0.5000 0.0000
vt 0.0821 0.2083 0.0000
vt 0.0821 0.5000 0.0000
vt 0.1095 0.2083 0.0000
vt 0.1095 0.5000 0.0000
vt 0.1369 0.2083 0.0000
vt 0.1369 0.5000 0.0000
vt 0.1642 0.2083 0.0000
vt 0.1642 0.5000 0.0000
vt 0.1916 0.2083 0.0000
vt 0.1916 0.5000 0.0000
vt 0.2190 0.2083 0.0000
vt 0.2190 0.5000 0.0000
vt 0.2463 0.2083 0.0000
vt 0.2463 0.5000 0.0000
vt 0.2737 0.2083 0.0000
vt 0.2737 0.5000 0.0000
vt 0.3011 0.2083 0.0000
vt 0.3011 0.5000 0.0000
vt 0.3285 0.2083 0.0000
vt 0.3285 0.5000 0.0000
vt 0.3558 0.2083 0.0000
vt 0.3558 0.5000 0.0000
vt 0.3832 0.2083 0.0000
vt 0.3832 0.5000 0.0000
vt -0.0000 0.1818 0.0000
vt 0.0547 0.8181 0.0000
vt 0.0821 0.8181 0.0000
vt 0.1095 0.8181 0.0000
vt 0.1369 0.8181 0.0000
vt 0.1642 0.8181 0.0000
vt 0.1916 0.8181 0.0000
vt 0.2190 0.8181 0.0000
vt 0.2463 0.8181 0.0000
vt 0.2737 0.8181 0.0000
vt 0.3011 0.8181 0.0000
vt 0.3285 0.8181 0.0000
vt 0.3832 0.1818 0.0000
vt 0.9658 0.6289 0.0000
vt 0.9658 0.4977 0.0000
vt 0.9268 0.4995 0.0000
vt 0.9268 0.6307 0.0000
vt 0.5768 0.0714 0.0000
vt 0.5768 0.0000 0.0000
vt 0.4659 0.0000 0.0000
vt 0.5768 0.1429 0.0000
vt 0.6876 0.1429 0.0000
vt 0.5768 0.2143 0.0000
vt 0.6876 0.2143 0.0000
vt 0.5768 0.2857 0.0000
vt 0.6876 0.2857 0.0000
vt 0.5768 0.3571 0.0000
vt 0.6876 0.3571 0.0000
vt 0.5768 0.4286 0.0000
vt 0.6876 0.4286 0.0000
vt 0.5768 0.5000 0.0000
vt 0.6876 0.5000 0.0000
vt 0.5768 0.5714 0.0000
vt 0.6876 0.5714 0.0000
vt 0.5768 0.6429 0.0000
vt 0.6876 0.6429 0.0000
vt 0.5768 0.7143 0.0000
vt 0.6876 0.7143 0.0000
vt 0.5768 0.7857 0.0000
vt 0.6876 0.7857 0.0000
vt 0.5768 0.8571 0.0000
vt 0.6876 0.8571 0.0000
vt 0.5768 0.9286 0.0000
vt 0.4659 1.0000 0.0000
vt 0.5768 1.0000 0.0000
vt 0.9658 1.0000 0.0000
vt 0.9268 1.0000 0.0000
vt -0.0000 0.0000 0.0000
vt 0.3832 0.0000 0.0000
vt 0.4026 0.0000 0.0000
vt 0.4026 1.0000 0.0000
vt 0.9658 0.6645 0.0000
vt 0.7510 0.1429 0.0000
vt 0.7510 0.2143 0.0000
vt 0.7510 0.2857 0.0000
vt 0.7510 0.3571 0.0000
vt 0.7510 0.4286 0.0000
vt 0.7510 0.5000 0.0000
vt 0.7510 0.5714 0.0000
vt 0.7510 0.6429 0.0000
vt 0.7510 0.7143 0.0000
vt 0.7510 0.7857 0.0000
vt 0.7510 0.8571 0.0000
# 238 texture coords

g Slope_U_Node_Pavement_Steel
s off
f 1/1/1 2/2/1 3/3/1 4/4/1 
f 5/5/1 1/1/1 4/4/1 6/6/1 
f 7/7/1 5/5/1 6/6/1 8/8/1 
f 9/9/1 7/7/1 8/8/1 10/10/1 
f 11/11/1 9/9/1 10/10/1 12/12/1 
f 13/13/1 11/11/1 12/12/1 14/14/1 
f 15/15/1 13/13/1 14/14/1 16/16/1 
f 17/17/1 15/15/1 16/16/1 18/18/1 
f 19/19/1 17/17/1 18/18/1 20/20/1 
f 21/21/1 19/19/1 20/20/1 22/22/1 
f 23/23/1 21/21/1 22/22/1 24/24/1 
f 25/25/1 23/23/1 24/24/1 26/26/1 
f 27/27/1 25/25/1 26/26/1 28/28/1 
f 29/29/1 27/27/1 28/28/1 30/30/1 
f 31/2/2 32/3/2 33/4/2 34/1/2 
f 34/1/2 33/4/2 35/6/2 36/5/2 
f 36/5/2 35/6/2 37/8/2 38/7/2 
f 38/7/2 37/8/2 39/10/2 40/9/2 
f 40/9/2 39/10/2 41/12/2 42/11/2 
f 42/11/2 41/12/2 43/14/2 44/13/2 
f 44/13/2 43/14/2 45/16/2 46/15/2 
f 46/15/2 45/16/2 47/18/2 48/17/2 
f 48/17/2 47/18/2 49/20/2 50/19/2 
f 50/19/2 49/20/2 51/22/2 52/21/2 
f 52/21/2 51/22/2 53/24/2 54/23/2 
f 54/23/2 53/24/2 55/26/2 56/25/2 
f 56/25/2 55/26/2 57/28/2 58/27/2 
f 58/27/2 57/28/2 59/30/2 60/29/2 
f 61/1/2 62/4/2 63/3/2 64/2/2 
f 65/5/2 66/6/2 62/4/2 61/1/2 
f 67/7/2 68/8/2 66/6/2 65/5/2 
f 69/9/2 70/10/2 68/8/2 67/7/2 
f 71/11/2 72/12/2 70/10/2 69/9/2 
f 73/13/2 74/14/2 72/12/2 71/11/2 
f 75/15/2 76/16/2 74/14/2 73/13/2 
f 77/17/2 78/18/2 76/16/2 75/15/2 
f 79/19/2 80/20/2 78/18/2 77/17/2 
f 81/21/2 82/22/2 80/20/2 79/19/2 
f 83/23/2 84/24/2 82/22/2 81/21/2 
f 85/25/2 86/26/2 84/24/2 83/23/2 
f 87/27/2 88/28/2 86/26/2 85/25/2 
f 89/31/2 90/32/2 91/33/2 92/34/2 
f 93/31/1 94/34/1 95/33/1 96/32/1 
f 97/1/1 98/5/1 99/6/1 100/4/1 
f 98/5/1 101/7/1 102/8/1 99/6/1 
f 101/7/1 103/9/1 104/10/1 102/8/1 
f 103/9/1 105/11/1 106/12/1 104/10/1 
f 105/11/1 107/13/1 108/14/1 106/12/1 
f 107/13/1 109/15/1 110/16/1 108/14/1 
f 109/15/1 111/17/1 112/18/1 110/16/1 
f 111/17/1 113/19/1 114/20/1 112/18/1 
f 113/19/1 115/21/1 116/22/1 114/20/1 
f 115/21/1 117/23/1 118/24/1 116/22/1 
f 117/23/1 119/25/1 120/26/1 118/24/1 
f 119/25/1 121/27/1 122/28/1 120/26/1 
f 121/27/1 123/29/1 124/30/1 122/28/1 
f 125/35/3 58/36/3 60/37/3 126/38/3 
f 127/39/3 56/40/3 58/36/3 125/35/3 
f 128/41/3 54/42/3 56/40/3 127/39/3 
f 129/43/3 52/44/3 54/42/3 128/41/3 
f 130/45/3 50/46/3 52/44/3 129/43/3 
f 131/47/3 48/48/3 50/46/3 130/45/3 
f 132/49/3 46/50/3 48/48/3 131/47/3 
f 133/51/3 44/52/3 46/50/3 132/49/3 
f 134/53/3 42/54/3 44/52/3 133/51/3 
f 135/55/3 40/56/3 42/54/3 134/53/3 
f 136/57/3 38/58/3 40/56/3 135/55/3 
f 137/59/3 36/60/3 38/58/3 136/57/3 
f 138/61/3 34/62/3 36/60/3 137/59/3 
f 139/63/3 31/64/3 34/62/3 138/61/3 
f 140/65/4 123/37/4 121/36/4 141/66/4 
f 142/67/4 143/68/4 65/69/4 61/70/4 
f 143/68/4 144/71/4 67/72/4 65/69/4 
f 144/71/4 145/73/4 69/74/4 67/72/4 
f 145/73/4 146/75/4 71/76/4 69/74/4 
f 146/75/4 147/77/4 73/78/4 71/76/4 
f 147/77/4 148/79/4 75/80/4 73/78/4 
f 148/79/4 149/81/4 77/82/4 75/80/4 
f 149/81/4 150/83/4 79/84/4 77/82/4 
f 150/83/4 151/85/4 81/86/4 79/84/4 
f 151/85/4 152/87/4 83/88/4 81/86/4 
f 152/87/4 153/89/4 85/90/4 83/88/4 
f 153/89/4 154/91/4 87/92/4 85/90/4 
f 155/93/4 97/62/4 156/64/4 157/94/4 
f 158/95/4 159/96/4 160/97/4 161/98/4 
f 88/32/5 87/99/5 161/98/5 91/33/5 
f 95/97/5 97/100/5 100/101/5 
f 95/97/5 94/102/5 97/100/5 
f 94/103/5 162/104/5 163/105/5 
f 94/103/5 163/105/5 155/106/5 
f 155/106/5 97/107/5 94/103/5 
f 154/108/5 164/109/5 165/110/5 158/111/5 
f 89/98/5 90/33/5 166/32/5 
f 166/32/5 167/99/5 89/98/5 
f 168/101/6 156/100/6 169/102/6 170/97/6 
f 169/103/5 171/104/5 172/105/5 
f 169/103/5 172/105/5 157/106/5 
f 157/106/5 156/107/5 169/103/5 
f 173/108/5 174/109/5 175/110/5 159/111/5 
f 176/112/3 122/113/3 124/114/3 177/115/3 
f 178/116/3 179/117/3 62/118/3 66/119/3 
f 180/120/3 178/116/3 66/119/3 68/121/3 
f 181/122/3 180/120/3 68/121/3 70/123/3 
f 182/124/3 181/122/3 70/123/3 72/125/3 
f 183/126/3 182/124/3 72/125/3 74/127/3 
f 184/128/3 183/126/3 74/127/3 76/129/3 
f 185/130/3 184/128/3 76/129/3 186/131/3 
f 187/132/3 185/130/3 186/131/3 80/133/3 
f 188/134/3 187/132/3 80/133/3 82/135/3 
f 189/136/3 188/134/3 82/135/3 84/137/3 
f 190/138/3 189/136/3 84/137/3 86/139/3 
f 191/140/3 190/138/3 86/139/3 88/141/3 
f 192/142/3 168/143/3 100/144/3 193/145/3 
f 194/146/3 195/147/3 196/148/3 197/149/3 
f 198/150/3 199/151/3 195/147/3 194/146/3 
f 200/152/3 201/153/3 199/151/3 198/150/3 
f 202/154/3 203/155/3 201/153/3 200/152/3 
f 204/156/3 205/157/3 203/155/3 202/154/3 
f 206/158/3 207/159/3 205/157/3 204/156/3 
f 208/160/3 209/161/3 207/159/3 206/158/3 
f 210/162/3 211/163/3 209/161/3 208/160/3 
f 212/164/3 213/165/3 211/163/3 210/162/3 
f 214/166/3 215/167/3 213/165/3 212/164/3 
f 216/168/3 217/169/3 215/167/3 214/166/3 
f 218/170/3 219/171/3 217/169/3 216/168/3 
f 220/172/3 221/173/3 219/171/3 218/170/3 
f 222/174/3 223/175/3 221/173/3 220/172/3 
f 224/176/4 225/148/4 226/147/4 142/67/4 
f 227/177/4 228/151/4 226/147/4 141/66/4 
f 229/178/4 230/153/4 228/151/4 227/177/4 
f 231/179/4 232/155/4 230/153/4 229/178/4 
f 233/180/4 234/157/4 232/155/4 231/179/4 
f 235/181/4 236/159/4 234/157/4 233/180/4 
f 237/182/4 238/161/4 236/159/4 235/181/4 
f 239/183/4 240/163/4 238/161/4 237/182/4 
f 241/184/4 242/165/4 240/163/4 239/183/4 
f 243/185/4 244/167/4 242/165/4 241/184/4 
f 245/186/4 246/169/4 244/167/4 243/185/4 
f 247/187/4 248/171/4 246/169/4 245/186/4 
f 155/93/4 164/173/4 248/171/4 247/187/4 
f 154/91/4 164/173/4 174/175/4 
f 174/175/4 173/188/4 154/91/4 
f 171/189/4 175/190/4 165/191/4 162/192/4 
f 179/117/3 249/193/3 250/194/3 251/195/3 
f 176/112/3 249/193/3 252/196/3 253/197/3 
f 253/197/3 252/196/3 254/198/3 255/199/3 
f 255/199/3 254/198/3 256/200/3 257/201/3 
f 257/201/3 256/200/3 258/202/3 259/203/3 
f 259/203/3 258/202/3 260/204/3 261/205/3 
f 261/205/3 260/204/3 262/206/3 263/207/3 
f 263/207/3 262/206/3 264/208/3 265/209/3 
f 265/209/3 264/208/3 266/210/3 267/211/3 
f 267/211/3 266/210/3 268/212/3 269/213/3 
f 269/213/3 268/212/3 270/214/3 271/215/3 
f 271/215/3 270/214/3 272/216/3 273/217/3 
f 273/217/3 272/216/3 274/218/3 193/145/3 
f 275/219/3 276/220/3 274/218/3 191/140/3 
f 228/151/4 143/68/4 142/67/4 226/147/4 
f 230/153/4 144/71/4 143/68/4 228/151/4 
f 232/155/4 145/73/4 144/71/4 230/153/4 
f 234/157/4 146/75/4 145/73/4 232/155/4 
f 236/159/4 147/77/4 146/75/4 234/157/4 
f 238/161/4 148/79/4 147/77/4 236/159/4 
f 240/163/4 149/81/4 148/79/4 238/161/4 
f 242/165/4 150/83/4 149/81/4 240/163/4 
f 244/167/4 151/85/4 150/83/4 242/165/4 
f 246/169/4 152/87/4 151/85/4 244/167/4 
f 248/171/4 153/89/4 152/87/4 246/169/4 
f 164/173/4 154/91/4 153/89/4 248/171/4 
f 165/191/4 175/190/4 159/96/4 
f 159/96/4 158/95/4 165/191/4 
f 154/108/5 158/111/5 161/221/5 87/222/5 
f 173/108/5 159/111/5 89/221/5 167/222/5 
f 249/193/3 179/117/3 178/116/3 252/196/3 
f 252/196/3 178/116/3 180/120/3 254/198/3 
f 254/198/3 180/120/3 181/122/3 256/200/3 
f 256/200/3 181/122/3 182/124/3 258/202/3 
f 258/202/3 182/124/3 183/126/3 260/204/3 
f 260/204/3 183/126/3 184/128/3 262/206/3 
f 262/206/3 184/128/3 185/130/3 264/208/3 
f 264/208/3 185/130/3 187/132/3 266/210/3 
f 266/210/3 187/132/3 188/134/3 268/212/3 
f 268/212/3 188/134/3 189/136/3 270/214/3 
f 270/214/3 189/136/3 190/138/3 272/216/3 
f 272/216/3 190/138/3 191/140/3 274/218/3 
f 1/70/3 194/146/3 197/149/3 2/223/3 
f 5/69/3 198/150/3 194/146/3 1/70/3 
f 7/72/3 200/152/3 198/150/3 5/69/3 
f 9/74/3 202/154/3 200/152/3 7/72/3 
f 11/76/3 204/156/3 202/154/3 9/74/3 
f 13/78/3 206/158/3 204/156/3 11/76/3 
f 15/80/3 208/160/3 206/158/3 13/78/3 
f 17/82/3 210/162/3 208/160/3 15/80/3 
f 19/84/3 212/164/3 210/162/3 17/82/3 
f 21/86/3 214/166/3 212/164/3 19/84/3 
f 23/88/3 216/168/3 214/166/3 21/86/3 
f 25/90/3 218/170/3 216/168/3 23/88/3 
f 27/92/3 220/172/3 218/170/3 25/90/3 
f 29/224/3 222/174/3 220/172/3 27/92/3 
f 64/223/4 224/176/4 142/67/4 61/70/4 
f 87/92/4 154/91/4 173/188/4 
f 173/188/4 167/224/4 87/92/4 
f 62/118/3 179/117/3 251/195/3 63/225/3 
f 166/226/3 275/219/3 191/140/3 88/141/3 
f 195/147/3 125/35/3 126/38/3 196/148/3 
f 199/151/3 127/39/3 125/35/3 195/147/3 
f 201/153/3 128/41/3 127/39/3 199/151/3 
f 203/155/3 129/43/3 128/41/3 201/153/3 
f 205/157/3 130/45/3 129/43/3 203/155/3 
f 207/159/3 131/47/3 130/45/3 205/157/3 
f 209/161/3 132/49/3 131/47/3 207/159/3 
f 211/163/3 133/51/3 132/49/3 209/161/3 
f 213/165/3 134/53/3 133/51/3 211/163/3 
f 215/167/3 135/55/3 134/53/3 213/165/3 
f 217/169/3 136/57/3 135/55/3 215/167/3 
f 219/171/3 137/59/3 136/57/3 217/169/3 
f 221/173/3 138/61/3 137/59/3 219/171/3 
f 223/175/3 139/63/3 138/61/3 221/173/3 
f 225/148/4 140/65/4 141/66/4 226/147/4 
f 164/173/4 155/93/4 157/94/4 174/175/4 
f 165/34/5 164/31/5 163/105/5 162/104/5 
f 163/105/5 164/31/5 155/106/5 
f 175/34/5 174/31/5 172/105/5 
f 172/105/5 171/104/5 175/34/5 
f 172/105/5 174/31/5 157/106/5 
f 249/193/3 176/112/3 177/115/3 250/194/3 
f 276/220/3 192/142/3 193/145/3 274/218/3 
f 119/40/4 227/177/4 141/66/4 121/36/4 
f 117/42/4 229/178/4 227/177/4 119/40/4 
f 115/44/4 231/179/4 229/178/4 117/42/4 
f 113/46/4 233/180/4 231/179/4 115/44/4 
f 111/48/4 235/181/4 233/180/4 113/46/4 
f 109/50/4 237/182/4 235/181/4 111/48/4 
f 107/52/4 239/183/4 237/182/4 109/50/4 
f 105/54/4 241/184/4 239/183/4 107/52/4 
f 103/56/4 243/185/4 241/184/4 105/54/4 
f 101/58/4 245/186/4 243/185/4 103/56/4 
f 98/60/4 247/187/4 245/186/4 101/58/4 
f 97/62/4 155/93/4 247/187/4 98/60/4 
f 93/227/4 171/189/4 162/192/4 94/103/4 
f 122/113/3 176/112/3 253/197/3 120/228/3 
f 120/228/3 253/197/3 255/199/3 118/229/3 
f 118/229/3 255/199/3 257/201/3 116/230/3 
f 116/230/3 257/201/3 259/203/3 114/231/3 
f 114/231/3 259/203/3 261/205/3 112/232/3 
f 112/232/3 261/205/3 263/207/3 110/233/3 
f 110/233/3 263/207/3 265/209/3 108/234/3 
f 108/234/3 265/209/3 267/211/3 106/235/3 
f 106/235/3 267/211/3 269/213/3 104/236/3 
f 104/236/3 269/213/3 271/215/3 102/237/3 
f 102/237/3 271/215/3 273/217/3 99/238/3 
f 99/238/3 273/217/3 193/145/3 100/144/3 
# 232 polygons - 20 triangles

