# 3ds Max Wavefront OBJ Exporter v0.97b - (c)2007 guruware
# File Created: 25.09.2017 08:03:06

#
# object Slope_Node_Pavement
#

v  10.2916 0.0500 5.3333
v  10.2500 0.0500 -0.0000
v  7.5000 0.0500 5.3333
v  7.5000 0.0500 -0.0000
v  0.0000 -0.1250 -0.0000
v  0.0000 -0.1542 -5.3333
v  -7.5000 -0.1250 -0.0000
v  -7.5000 -0.1542 -5.3333
v  -10.2084 0.0500 -5.3333
v  -10.2500 0.0500 -0.0000
v  -7.5000 0.0500 -5.3333
v  -7.5000 0.0500 -0.0000
v  7.5000 -0.1250 -0.0000
v  7.5000 -0.0958 5.3333
v  -7.5000 0.0500 5.3333
v  -7.5000 -0.0958 5.3333
v  10.0420 0.0500 -26.6667
v  10.0004 0.0500 -32.0000
v  7.5000 0.0500 -26.6667
v  7.5000 0.0500 -32.0000
v  10.0836 0.0500 -21.3333
v  7.5000 0.0500 -21.3333
v  10.1252 0.0500 -16.0000
v  7.5000 0.0500 -16.0000
v  10.1668 0.0500 -10.6667
v  7.5000 0.0500 -10.6667
v  10.2084 0.0500 -5.3333
v  7.5000 0.0500 -5.3333
v  7.5000 0.0500 26.6667
v  7.5000 0.0500 32.0000
v  10.4580 0.0500 26.6667
v  10.4996 0.0500 32.0000
v  7.5000 0.0500 21.3333
v  10.4164 0.0500 21.3333
v  7.5000 0.0500 16.0000
v  10.3748 0.0500 16.0000
v  7.5000 0.0500 10.6667
v  10.3332 0.0500 10.6667
v  0.0000 0.0500 32.0000
v  0.0000 0.0208 26.6667
v  -7.5000 0.0500 32.0000
v  -7.5000 0.0208 26.6667
v  0.0000 -0.0083 21.3333
v  -7.5000 -0.0083 21.3333
v  0.0000 -0.0375 16.0000
v  -7.5000 -0.0375 16.0000
v  0.0000 -0.0667 10.6667
v  -7.5000 -0.0667 10.6667
v  0.0000 -0.0958 5.3333
v  0.0000 -0.3000 -32.0000
v  0.0000 -0.2708 -26.6667
v  7.5000 -0.3000 -32.0000
v  7.5000 -0.2708 -26.6667
v  0.0000 -0.2417 -21.3333
v  7.5000 -0.2417 -21.3333
v  0.0000 -0.2125 -16.0000
v  7.5000 -0.2125 -16.0000
v  0.0000 -0.1833 -10.6667
v  7.5000 -0.1833 -10.6667
v  7.5000 -0.1542 -5.3333
v  -10.4580 0.0500 26.6667
v  -10.4996 0.0500 32.0000
v  -7.5000 0.0500 26.6667
v  -10.4164 0.0500 21.3333
v  -7.5000 0.0500 21.3333
v  -10.3748 0.0500 16.0000
v  -7.5000 0.0500 16.0000
v  -10.3332 0.0500 10.6667
v  -7.5000 0.0500 10.6667
v  -10.2916 0.0500 5.3333
v  -7.5000 0.0500 -26.6667
v  -7.5000 0.0500 -32.0000
v  -10.0420 0.0500 -26.6667
v  -10.0004 0.0500 -32.0000
v  -7.5000 0.0500 -21.3333
v  -10.0836 0.0500 -21.3333
v  -7.5000 0.0500 -16.0000
v  -10.1252 0.0500 -16.0000
v  -7.5000 0.0500 -10.6667
v  -10.1668 0.0500 -10.6667
v  7.5000 0.0208 26.6667
v  7.5000 -0.0083 21.3333
v  7.5000 -0.0375 16.0000
v  7.5000 -0.0667 10.6667
v  -7.5000 -0.3000 -32.0000
v  -7.5000 -0.2708 -26.6667
v  -7.5000 -0.2417 -21.3333
v  -7.5000 -0.2125 -16.0000
v  -7.5000 -0.1833 -10.6667
v  -13.0000 -3.1150 -0.0000
v  -13.0000 -3.1150 -5.3333
v  13.0000 -3.1150 -0.0000
v  13.0000 -3.1150 5.3333
v  -13.0000 -3.1150 32.0000
v  -13.0000 -3.1150 26.6667
v  -13.0000 -3.1150 21.3333
v  -13.0000 -3.1150 16.0000
v  -13.0000 -3.1150 10.6667
v  -13.0000 -3.1150 5.3333
v  -13.0000 -3.1150 -32.0000
v  -13.0000 -3.1150 -26.6667
v  -13.0000 -3.1150 -21.3333
v  -13.0000 -3.1150 -16.0000
v  -13.0000 -3.1150 -10.6667
v  13.0000 -3.1150 -32.0000
v  13.0000 -3.1150 -26.6667
v  13.0000 -3.1150 -21.3333
v  13.0000 -3.1150 -16.0000
v  13.0000 -3.1150 -10.6667
v  13.0000 -3.1150 -5.3333
v  13.0000 -3.1150 32.0000
v  13.0000 -3.1150 26.6667
v  13.0000 -3.1150 21.3333
v  13.0000 -3.1150 16.0000
v  13.0000 -3.1150 10.6667
v  -10.0004 -0.2500 -32.0000
v  10.0004 -0.2500 -32.0000
v  -10.4996 -0.2500 32.0000
v  10.4996 -0.2500 32.0000
# 119 vertices

vn 0.0000 1.0000 -0.0000
vn 0.0000 1.0000 -0.0055
vn -0.0000 1.0000 -0.0055
vn -1.0000 0.0000 -0.0000
vn 1.0000 0.0000 -0.0000
vn 0.0000 1.0000 -0.0027
vn -0.0000 1.0000 -0.0027
vn -0.7548 0.6559 -0.0059
vn -0.7500 0.6615 -0.0000
vn 0.7548 0.6559 -0.0059
vn 0.7598 0.6502 -0.0000
vn -0.7847 0.6199 -0.0061
vn -0.7797 0.6262 -0.0000
vn -0.7797 0.6262 -0.0061
vn -0.7747 0.6324 -0.0000
vn -0.7747 0.6324 -0.0060
vn -0.7697 0.6384 -0.0000
vn -0.7697 0.6384 -0.0060
vn -0.7647 0.6444 -0.0000
vn -0.7647 0.6443 -0.0060
vn -0.7598 0.6502 -0.0000
vn -0.7598 0.6502 -0.0059
vn -0.7549 0.6559 -0.0000
vn -0.7258 0.6879 -0.0000
vn -0.7306 0.6828 -0.0057
vn -0.7306 0.6828 -0.0000
vn -0.7354 0.6776 -0.0057
vn -0.7354 0.6776 -0.0000
vn -0.7402 0.6723 -0.0058
vn -0.7402 0.6724 -0.0000
vn -0.7451 0.6670 -0.0058
vn -0.7451 0.6670 -0.0000
vn -0.7499 0.6615 -0.0058
vn 0.7258 0.6879 -0.0057
vn 0.7306 0.6828 -0.0000
vn 0.7306 0.6828 -0.0057
vn 0.7354 0.6776 -0.0000
vn 0.7354 0.6776 -0.0057
vn 0.7402 0.6724 -0.0000
vn 0.7402 0.6723 -0.0058
vn 0.7451 0.6670 -0.0000
vn 0.7451 0.6670 -0.0058
vn 0.7500 0.6615 -0.0000
vn 0.7499 0.6615 -0.0058
vn 0.7549 0.6559 -0.0000
vn 0.7847 0.6199 -0.0000
vn 0.7797 0.6262 -0.0061
vn 0.7797 0.6262 -0.0000
vn 0.7747 0.6324 -0.0060
vn 0.7747 0.6324 -0.0000
vn 0.7697 0.6384 -0.0060
vn 0.7697 0.6384 -0.0000
vn 0.7647 0.6443 -0.0060
vn 0.7647 0.6444 -0.0000
vn 0.7598 0.6502 -0.0059
vn 0.0000 0.0000 -1.0000
vn 0.0000 0.0000 1.0000
# 57 vertex normals

vt 0.8067 0.5833 0.0000
vt 0.8067 0.5000 0.0000
vt 1.0001 0.5833 0.0000
vt 1.0001 0.5000 0.0000
vt 0.1372 0.5000 0.0000
vt 0.1372 0.5833 0.0000
vt 0.0001 0.5000 0.0000
vt 0.0001 0.5833 0.0000
vt 0.9807 0.5000 0.0000
vt 0.9807 0.4167 0.0000
vt 1.0001 0.4167 0.0000
vt 0.8067 0.0833 0.0000
vt 0.8067 0.0000 0.0000
vt 1.0001 0.0833 0.0000
vt 1.0001 0.0000 0.0000
vt 0.8067 0.1667 0.0000
vt 1.0001 0.1667 0.0000
vt 0.8067 0.2500 0.0000
vt 1.0001 0.2500 0.0000
vt 0.8067 0.3333 0.0000
vt 1.0001 0.3333 0.0000
vt 0.8067 0.4167 0.0000
vt 1.0001 0.9167 0.0000
vt 1.0001 1.0000 0.0000
vt 0.8067 0.9167 0.0000
vt 0.8067 1.0000 0.0000
vt 1.0001 0.8333 0.0000
vt 0.8067 0.8333 0.0000
vt 1.0001 0.7500 0.0000
vt 0.8067 0.7500 0.0000
vt 1.0001 0.6667 0.0000
vt 0.8067 0.6667 0.0000
vt 0.1372 0.0000 0.0000
vt 0.1372 0.0833 0.0000
vt 0.0001 0.0000 0.0000
vt 0.0001 0.0833 0.0000
vt 0.1372 0.1667 0.0000
vt 0.0001 0.1667 0.0000
vt 0.1372 0.2500 0.0000
vt 0.0001 0.2500 0.0000
vt 0.1372 0.3333 0.0000
vt 0.0001 0.3333 0.0000
vt 0.1372 0.4167 0.0000
vt 0.0001 0.4167 0.0000
vt 0.1372 1.0000 0.0000
vt 0.1372 0.9167 0.0000
vt 0.0001 1.0000 0.0000
vt 0.0001 0.9167 0.0000
vt 0.1372 0.8333 0.0000
vt 0.0001 0.8333 0.0000
vt 0.1372 0.7500 0.0000
vt 0.0001 0.7500 0.0000
vt 0.1372 0.6667 0.0000
vt 0.0001 0.6667 0.0000
vt 0.9807 1.0000 0.0000
vt 0.9807 0.9167 0.0000
vt 0.9807 0.8333 0.0000
vt 0.9807 0.7500 0.0000
vt 0.9807 0.6667 0.0000
vt 0.9807 0.5833 0.0000
vt 0.9807 0.0833 0.0000
vt 0.9807 -0.0000 0.0000
vt 0.9807 0.1667 0.0000
vt 0.9807 0.2500 0.0000
vt 0.9807 0.3333 0.0000
vt 1.0001 -0.0000 0.0000
vt 0.0000 0.5000 0.0000
vt 0.0000 0.5832 0.0000
vt 0.1384 0.5000 0.0000
vt 0.1384 0.5832 0.0000
vt 0.0000 0.4168 0.0000
vt 0.1376 0.5000 0.0000
vt 0.1376 0.4168 0.0000
vt 0.0000 0.0008 0.0000
vt 0.0000 0.0840 0.0000
vt 0.1384 0.0008 0.0000
vt 0.1384 0.0840 0.0000
vt 0.0000 0.1672 0.0000
vt 0.1384 0.1672 0.0000
vt 0.0000 0.2504 0.0000
vt 0.1384 0.2504 0.0000
vt 0.0000 0.3336 0.0000
vt 0.1384 0.3336 0.0000
vt 0.1384 0.4168 0.0000
vt 0.1384 0.9992 0.0000
vt 0.1384 0.9160 0.0000
vt 0.0000 0.9992 0.0000
vt 0.0000 0.9160 0.0000
vt 0.1384 0.8328 0.0000
vt 0.0000 0.8328 0.0000
vt 0.1384 0.7496 0.0000
vt 0.0000 0.7496 0.0000
vt 0.1384 0.6664 0.0000
vt 0.0000 0.6664 0.0000
vt 0.1376 0.9992 0.0000
vt 0.1376 0.9160 0.0000
vt 0.1376 0.8328 0.0000
vt 0.1376 0.7496 0.0000
vt 0.1376 0.6664 0.0000
vt 0.1376 0.5832 0.0000
vt 0.1376 0.0008 0.0000
vt 0.1376 0.0840 0.0000
vt 0.1376 0.1672 0.0000
vt 0.1376 0.2504 0.0000
vt 0.1376 0.3336 0.0000
vt 0.5000 0.5000 0.0000
# 106 texture coords

g Slope_Node_Pavement
s 1
f 1/1/1 2/2/1 3/3/1 
f 4/4/1 3/3/1 2/2/1 
f 5/5/2 6/6/3 7/7/3 
f 8/8/3 7/7/3 6/6/3 
f 9/1/1 10/2/1 11/3/1 
f 12/4/1 11/3/1 10/2/1 
s off
f 13/9/4 14/10/4 4/4/4 
f 3/11/4 4/4/4 14/10/4 
f 12/4/5 15/11/5 7/9/5 
f 16/10/5 7/9/5 15/11/5 
s 1
f 17/12/1 18/13/1 19/14/1 
f 20/15/1 19/14/1 18/13/1 
f 21/16/1 17/12/1 22/17/1 
f 19/14/1 22/17/1 17/12/1 
f 23/18/1 21/16/1 24/19/1 
f 22/17/1 24/19/1 21/16/1 
f 25/20/1 23/18/1 26/21/1 
f 24/19/1 26/21/1 23/18/1 
f 27/22/1 25/20/1 28/11/1 
f 26/21/1 28/11/1 25/20/1 
f 2/2/1 27/22/1 4/4/1 
f 28/11/1 4/4/1 27/22/1 
f 29/23/1 30/24/6 31/25/1 
f 32/26/1 31/25/1 30/24/6 
f 33/27/1 29/23/1 34/28/1 
f 31/25/1 34/28/1 29/23/1 
f 35/29/1 33/27/1 36/30/1 
f 34/28/1 36/30/1 33/27/1 
f 37/31/1 35/29/1 38/32/1 
f 36/30/1 38/32/1 35/29/1 
f 3/3/1 37/31/1 1/1/1 
f 38/32/1 1/1/1 37/31/1 
f 39/33/2 40/34/2 41/35/7 
f 42/36/3 41/35/7 40/34/2 
f 40/34/2 43/37/3 42/36/3 
f 44/38/3 42/36/3 43/37/3 
f 43/37/3 45/39/3 44/38/3 
f 46/40/3 44/38/3 45/39/3 
f 45/39/3 47/41/3 46/40/3 
f 48/42/2 46/40/3 47/41/3 
f 47/41/3 49/43/2 48/42/2 
f 16/44/2 48/42/2 49/43/2 
f 49/43/2 5/5/2 16/44/2 
f 7/7/3 16/44/2 5/5/2 
s off
f 50/45/2 51/46/2 52/47/2 
f 53/48/2 52/47/2 51/46/2 
f 51/46/2 54/49/2 53/48/2 
f 55/50/2 53/48/2 54/49/2 
f 54/49/2 56/51/2 55/50/2 
s 1
f 57/52/3 55/50/3 56/51/3 
f 56/51/3 58/53/3 57/52/3 
f 59/54/3 57/52/3 58/53/3 
f 58/53/3 6/6/3 59/54/3 
f 60/8/3 59/54/3 6/6/3 
f 61/12/1 62/13/1 63/14/1 
f 41/15/7 63/14/1 62/13/1 
f 64/16/1 61/12/1 65/17/1 
f 63/14/1 65/17/1 61/12/1 
f 66/18/1 64/16/1 67/19/1 
f 65/17/1 67/19/1 64/16/1 
f 68/20/1 66/18/1 69/21/1 
f 67/19/1 69/21/1 66/18/1 
f 70/22/1 68/20/1 15/11/1 
f 69/21/1 15/11/1 68/20/1 
f 10/2/1 70/22/1 12/4/1 
f 15/11/1 12/4/1 70/22/1 
f 71/23/1 72/24/1 73/25/1 
f 74/26/1 73/25/1 72/24/1 
f 75/27/1 71/23/1 76/28/1 
f 73/25/1 76/28/1 71/23/1 
f 77/29/1 75/27/1 78/30/1 
f 76/28/1 78/30/1 75/27/1 
f 79/31/1 77/29/1 80/32/1 
f 78/30/1 80/32/1 77/29/1 
f 11/3/1 79/31/1 9/1/1 
f 80/32/1 9/1/1 79/31/1 
s off
f 52/55/4 53/56/4 20/24/4 
f 19/23/4 20/24/4 53/56/4 
f 53/56/4 55/57/4 19/23/4 
f 22/27/4 19/23/4 55/57/4 
f 55/57/4 57/58/4 22/27/4 
f 24/29/4 22/27/4 57/58/4 
f 57/58/4 59/59/4 24/29/4 
f 26/31/4 24/29/4 59/59/4 
f 59/59/4 60/60/4 26/31/4 
f 28/3/4 26/31/4 60/60/4 
f 60/60/4 13/9/4 28/3/4 
f 4/4/4 28/3/4 13/9/4 
f 81/61/4 30/62/4 29/14/4 
f 29/14/4 33/17/4 81/61/4 
f 82/63/4 81/61/4 33/17/4 
f 33/17/4 35/19/4 82/63/4 
f 83/64/4 82/63/4 35/19/4 
f 35/19/4 37/21/4 83/64/4 
f 84/65/4 83/64/4 37/21/4 
f 37/21/4 3/11/4 84/65/4 
f 14/10/4 84/65/4 3/11/4 
f 72/24/5 71/23/5 85/55/5 
f 86/56/5 85/55/5 71/23/5 
f 71/23/5 75/27/5 86/56/5 
f 87/57/5 86/56/5 75/27/5 
f 75/27/5 77/29/5 87/57/5 
f 88/58/5 87/57/5 77/29/5 
f 77/29/5 79/31/5 88/58/5 
f 89/59/5 88/58/5 79/31/5 
f 79/31/5 11/3/5 89/59/5 
f 8/60/5 89/59/5 11/3/5 
f 11/3/5 12/4/5 8/60/5 
f 7/9/5 8/60/5 12/4/5 
f 63/14/5 41/66/5 42/61/5 
f 42/61/5 44/63/5 63/14/5 
f 65/17/5 63/14/5 44/63/5 
f 44/63/5 46/64/5 65/17/5 
f 67/19/5 65/17/5 46/64/5 
f 46/64/5 48/65/5 67/19/5 
f 69/21/5 67/19/5 48/65/5 
f 48/65/5 16/10/5 69/21/5 
f 15/11/5 69/21/5 16/10/5 
s 1
f 60/8/3 6/6/3 13/7/3 
f 5/5/2 13/7/3 6/6/3 
f 81/36/3 40/34/2 30/35/6 
f 39/33/2 30/35/6 40/34/2 
f 82/38/3 43/37/3 81/36/3 
f 40/34/2 81/36/3 43/37/3 
f 83/40/2 45/39/3 82/38/3 
f 43/37/3 82/38/3 45/39/3 
f 84/42/2 47/41/3 83/40/2 
f 45/39/3 83/40/2 47/41/3 
f 14/44/2 49/43/2 84/42/2 
f 47/41/3 84/42/2 49/43/2 
f 13/7/3 5/5/2 14/44/2 
f 49/43/2 14/44/2 5/5/2 
s off
f 86/48/2 51/46/2 85/47/2 
f 50/45/2 85/47/2 51/46/2 
f 87/50/2 54/49/2 86/48/2 
f 51/46/2 86/48/2 54/49/2 
s 1
f 88/52/3 56/51/3 87/50/3 
s off
f 54/49/2 87/50/2 56/51/2 
s 1
f 89/54/3 58/53/3 88/52/3 
f 56/51/3 88/52/3 58/53/3 
f 8/8/3 6/6/3 89/54/3 
f 58/53/3 89/54/3 6/6/3 
s off
f 10/67/8 9/68/8 90/69/8 
f 91/70/9 90/69/9 9/68/9 
f 2/67/10 1/71/10 92/72/10 
f 93/73/11 92/72/11 1/71/11 
f 62/74/12 61/75/12 94/76/12 
f 95/77/13 94/76/13 61/75/13 
f 61/75/14 64/78/14 95/77/14 
f 96/79/15 95/77/15 64/78/15 
f 64/78/16 66/80/16 96/79/16 
f 97/81/17 96/79/17 66/80/17 
f 66/80/18 68/82/18 97/81/18 
f 98/83/19 97/81/19 68/82/19 
f 68/82/20 70/71/20 98/83/20 
f 99/84/21 98/83/21 70/71/21 
f 70/71/22 10/67/22 99/84/22 
f 90/69/23 99/84/23 10/67/23 
f 100/85/24 101/86/24 74/87/24 
f 73/88/25 74/87/25 101/86/25 
f 101/86/26 102/89/26 73/88/26 
f 76/90/27 73/88/27 102/89/27 
f 102/89/28 103/91/28 76/90/28 
f 78/92/29 76/90/29 103/91/29 
f 103/91/30 104/93/30 78/92/30 
f 80/94/31 78/92/31 104/93/31 
f 104/93/32 91/70/32 80/94/32 
f 9/68/33 80/94/33 91/70/33 
f 18/87/34 17/88/34 105/95/34 
f 106/96/35 105/95/35 17/88/35 
f 17/88/36 21/90/36 106/96/36 
f 107/97/37 106/96/37 21/90/37 
f 21/90/38 23/92/38 107/97/38 
f 108/98/39 107/97/39 23/92/39 
f 23/92/40 25/94/40 108/98/40 
f 109/99/41 108/98/41 25/94/41 
f 25/94/42 27/68/42 109/99/42 
f 110/100/43 109/99/43 27/68/43 
f 27/68/44 2/67/44 110/100/44 
f 92/72/45 110/100/45 2/67/45 
f 111/101/46 112/102/46 32/74/46 
f 31/75/47 32/74/47 112/102/47 
f 112/102/48 113/103/48 31/75/48 
f 34/78/49 31/75/49 113/103/49 
f 113/103/50 114/104/50 34/78/50 
f 36/80/51 34/78/51 114/104/51 
f 114/104/52 115/105/52 36/80/52 
f 38/82/53 36/80/53 115/105/53 
f 115/105/54 93/73/54 38/82/54 
f 1/71/55 38/82/55 93/73/55 
f 85/55/56 116/106/56 74/26/56 
f 72/24/56 85/55/56 74/26/56 
f 117/106/56 52/47/56 18/13/56 
f 20/15/56 18/13/56 52/47/56 
f 118/106/57 41/55/57 62/26/57 
f 119/106/57 32/13/57 30/47/57 
# 0 polygons - 196 triangles

