# 3ds Max Wavefront OBJ Exporter v0.97b - (c)2007 guruware
# File Created: 25.09.2017 08:03:02

#
# object Station_Node_Insert_Pavement_Steel
#

v  -2.9951 0.0530 -31.4902
v  -6.9996 0.0000 -31.4902
v  -6.9544 0.0000 -26.2418
v  -2.9496 0.0530 -26.2418
v  -6.8431 0.0000 -20.9936
v  -2.8380 0.0530 -20.9935
v  -6.6789 0.0000 -15.7452
v  -2.6735 0.0530 -15.7452
v  -6.4750 0.0000 -10.4967
v  -1.4693 0.0530 -10.4967
v  -6.2447 0.0000 -5.2484
v  -1.2387 0.0530 -5.2484
v  -6.0012 0.0000 -0.0001
v  -0.9949 0.0530 -0.0000
v  -5.7577 0.0000 5.2483
v  -0.7511 0.0530 5.2483
v  -5.5275 0.0000 10.4967
v  -0.5205 0.0530 10.4967
v  -5.3238 0.0000 15.7451
v  -0.3165 0.0530 15.7451
v  -5.1598 0.0000 20.9935
v  -0.1522 0.0530 20.9935
v  -5.0488 0.0000 26.2418
v  -0.0409 0.0530 26.2418
v  -5.0040 0.0000 31.4902
v  0.0043 0.0530 31.4902
v  -2.9948 -0.3000 -31.4902
v  -6.9921 -0.3000 -31.4902
v  -6.9469 -0.3000 -26.2418
v  -6.8356 -0.3000 -20.9935
v  -6.6714 -0.3000 -15.7452
v  -6.4675 -0.3000 -10.4967
v  -6.2372 -0.3000 -5.2484
v  -5.9937 -0.3000 -0.0000
v  -5.7502 -0.3000 5.2483
v  -5.5200 -0.3000 10.4967
v  -5.3163 -0.3000 15.7451
v  -5.1524 -0.3000 20.9935
v  -5.0414 -0.3000 26.2418
v  -4.9966 -0.3000 31.4902
v  0.0046 -0.3000 31.4902
v  0.0049 0.0530 31.4902
v  5.0040 0.0000 31.4902
v  5.0488 0.0000 26.2418
v  0.0499 0.0530 26.2418
v  5.1598 0.0000 20.9935
v  0.1612 0.0530 20.9935
v  5.3238 0.0000 15.7451
v  0.3255 0.0530 15.7451
v  5.5275 0.0000 10.4967
v  0.5295 0.0530 10.4967
v  5.7577 0.0000 5.2483
v  0.7601 0.0530 5.2483
v  6.0012 0.0000 -0.0001
v  1.0039 0.0530 -0.0001
v  6.2447 0.0000 -5.2484
v  1.2477 0.0530 -5.2484
v  6.4750 0.0000 -10.4967
v  1.4783 0.0530 -10.4967
v  6.6789 0.0000 -15.7452
v  1.6825 0.0530 -15.7452
v  6.8431 0.0000 -20.9936
v  1.8470 0.0530 -20.9936
v  6.9544 0.0000 -26.2418
v  2.9586 0.0530 -26.2418
v  6.9996 0.0000 -31.4902
v  3.0041 0.0530 -31.4902
v  4.9966 -0.3000 31.4902
v  5.0414 -0.3000 26.2418
v  5.1524 -0.3000 20.9935
v  5.3163 -0.3000 15.7451
v  5.5200 -0.3000 10.4967
v  5.7502 -0.3000 5.2483
v  5.9937 -0.3000 -0.0001
v  6.2372 -0.3000 -5.2484
v  6.4675 -0.3000 -10.4967
v  6.6714 -0.3000 -15.7452
v  6.8356 -0.3000 -20.9936
v  6.9469 -0.3000 -26.2418
v  6.9921 -0.3000 -31.4902
v  3.0038 -0.3000 -31.4902
v  0.0045 0.0530 -10.4967
v  0.0045 0.0530 -5.2484
v  0.0045 0.0530 -15.7452
v  0.0045 0.0530 -20.9935
v  0.0045 0.0530 -26.2418
v  0.0045 0.0530 -0.0000
v  0.0045 0.0530 5.2483
v  0.0045 0.0530 10.4967
v  0.0045 0.0530 15.7451
v  0.0045 0.0530 20.9935
v  0.0045 0.0530 26.2418
v  0.0045 0.0530 -31.4902
v  -0.0699 0.1011 10.9007
v  -0.0512 0.1011 11.0611
v  -0.0325 0.1003 10.9007
# 96 vertices

vn -0.0132 0.9999 0.0001
vn -0.0132 0.9999 0.0002
vn -0.0132 0.9999 0.0003
vn -0.0132 0.9999 0.0005
vn -0.0126 0.9999 0.0010
vn -0.0111 0.9999 0.0011
vn -0.0106 0.9999 0.0014
vn -0.0106 0.9999 0.0005
vn -0.0106 0.9999 0.0004
vn -0.0106 0.9999 0.0003
vn -0.0106 0.9999 0.0002
vn -0.0106 0.9999 0.0001
vn 0.0000 0.0000 -1.0000
vn -0.9997 -0.0250 0.0086
vn -0.9996 -0.0250 0.0149
vn -0.9993 -0.0250 0.0262
vn -0.9991 -0.0250 0.0350
vn -0.9988 -0.0250 0.0413
vn -0.9987 -0.0250 0.0451
vn -0.9986 -0.0250 0.0463
vn -0.9994 -0.0247 0.0262
vn -0.9996 -0.0247 0.0148
vn -0.9997 -0.0247 0.0085
vn 0.0000 0.0000 1.0000
vn 0.0106 0.9999 0.0001
vn 0.0106 0.9999 0.0002
vn 0.0106 0.9999 0.0003
vn 0.0106 0.9999 0.0004
vn 0.0106 0.9999 0.0005
vn 0.0111 0.9999 0.0008
vn 0.0126 0.9999 0.0008
vn 0.0133 0.9999 0.0015
vn 0.0133 0.9999 0.0001
vn 0.0000 -0.0000 1.0000
vn 0.9997 -0.0247 0.0085
vn 0.9996 -0.0247 0.0148
vn 0.9994 -0.0247 0.0262
vn 0.9991 -0.0250 0.0350
vn 0.9988 -0.0250 0.0413
vn 0.9987 -0.0250 0.0451
vn 0.9986 -0.0250 0.0463
vn 0.9993 -0.0250 0.0262
vn 0.9996 -0.0250 0.0149
vn 0.9997 -0.0250 0.0086
vn 0.0000 1.0000 -0.0000
vn 0.0000 1.0000 0.0000
vn 0.0214 0.9998 -0.0025
vn -0.0000 1.0000 -0.0000
vn -0.0000 1.0000 0.0000
# 49 vertex normals

vt 1.7272 0.0003 0.0000
vt 0.9877 0.0003 0.0000
vt 0.9877 1.0000 0.0000
vt 1.7272 1.0000 0.0000
vt 0.0042 0.0003 0.0000
vt 0.7324 0.0003 0.0000
vt 0.0000 0.0000 0.0000
vt 0.0833 0.0000 0.0000
vt 0.0833 1.0000 0.0000
vt 0.0000 1.0000 0.0000
vt 0.1667 0.0000 0.0000
vt 0.1667 1.0000 0.0000
vt 0.2500 0.0000 0.0000
vt 0.2500 1.0000 0.0000
vt -0.0010 0.0000 0.0000
vt -0.0010 1.0000 0.0000
vt 0.0823 0.0000 0.0000
vt 0.0823 1.0000 0.0000
vt 0.1657 0.0000 0.0000
vt 0.1657 1.0000 0.0000
vt 0.2490 0.0000 0.0000
vt 0.2490 1.0000 0.0000
vt 0.3323 0.0000 0.0000
vt 0.3323 1.0000 0.0000
vt 0.4157 0.0000 0.0000
vt 0.4157 1.0000 0.0000
vt 0.4990 0.0000 0.0000
vt 0.4990 1.0000 0.0000
vt 0.5823 0.0000 0.0000
vt 0.5823 1.0000 0.0000
vt 0.6657 0.0000 0.0000
vt 0.6657 1.0000 0.0000
vt 0.7324 1.0000 0.0000
vt 0.0042 1.0000 0.0000
vt 1.7087 1.0000 0.0000
vt 0.9693 1.0000 0.0000
vt 0.9693 0.0003 0.0000
vt 1.7087 0.0003 0.0000
vt 0.7249 1.0000 0.0000
vt -0.0005 1.0000 0.0000
vt -0.0005 0.0003 0.0000
vt 0.7249 0.0003 0.0000
vt 0.5931 1.0000 0.0000
vt 0.5964 0.0000 0.0000
vt 0.7329 0.0000 0.0000
vt 0.7332 1.0000 0.0000
vt 0.5930 1.0000 0.0000
vt 0.5831 1.0000 0.0000
vt 0.5840 0.0002 0.0000
vt 0.5831 0.9972 0.0000
vt 0.7329 0.0001 0.0000
vt 0.6571 0.0000 0.0000
vt 0.6549 1.0000 0.0000
vt 0.6731 0.0000 0.0000
vt 0.6737 1.0000 0.0000
vt 0.6851 1.0000 0.0000
vt 0.7018 0.0000 0.0000
vt 0.7116 1.0000 0.0000
vt 0.7226 0.0000 0.0000
vt 0.3561 0.0759 0.0000
vt 0.3562 0.0759 0.0000
vt 0.3584 0.9965 0.0000
vt 0.3561 0.9965 0.0000
vt 0.3538 0.9965 0.0000
vt 0.5831 0.0000 0.0000
vt 1.0013 0.3347 0.0000
vt 1.0013 0.3248 0.0000
vt 0.9901 0.3347 0.0000
vt 0.5832 0.9972 0.0000
vt 0.7227 0.0000 0.0000
vt 0.7330 0.0000 0.0000
vt 0.5832 0.0000 0.0000
# 72 texture coords

g Station_Node_Insert_Pavement_Steel
s 4
f 1/1/1 2/2/1 3/3/2 
f 3/3/2 4/4/2 1/1/1 
f 4/1/2 3/2/2 5/3/3 
f 5/3/3 6/4/3 4/1/2 
f 6/1/3 5/2/3 7/3/4 
f 7/3/4 8/4/5 6/1/3 
f 8/1/5 7/2/4 9/3/6 
f 9/3/6 10/4/7 8/1/5 
f 10/1/7 9/2/6 11/3/8 
f 11/3/8 12/4/8 10/1/7 
f 12/1/8 11/2/8 13/3/8 
f 13/3/8 14/4/8 12/1/8 
f 14/1/8 13/2/8 15/3/8 
f 15/3/8 16/4/8 14/1/8 
f 16/1/8 15/2/8 17/3/9 
f 17/3/9 18/4/9 16/1/8 
f 18/1/9 17/2/9 19/3/9 
f 19/3/9 20/4/9 18/1/9 
f 20/1/9 19/2/9 21/3/10 
f 21/3/10 22/4/10 20/1/9 
f 22/1/10 21/2/10 23/3/11 
f 23/3/11 24/4/11 22/1/10 
f 24/1/11 23/2/11 25/3/12 
f 25/3/12 26/4/12 24/1/11 
s 8
f 27/5/13 28/6/13 2/6/13 
f 2/6/13 1/5/13 27/5/13 
s 16
f 28/7/14 29/8/15 3/9/15 
f 3/9/15 2/10/14 28/7/14 
f 29/8/15 30/11/16 5/12/16 
f 5/12/16 3/9/15 29/8/15 
f 30/11/16 31/13/17 7/14/17 
f 7/14/17 5/12/16 30/11/16 
f 31/13/17 32/15/18 9/16/18 
f 9/16/18 7/14/17 31/13/17 
f 32/15/18 33/17/19 11/18/19 
f 11/18/19 9/16/18 32/15/18 
f 33/17/19 34/19/20 13/20/20 
f 13/20/20 11/18/19 33/17/19 
f 34/19/20 35/21/19 15/22/19 
f 15/22/19 13/20/20 34/19/20 
f 35/21/19 36/23/18 17/24/18 
f 17/24/18 15/22/19 35/21/19 
f 36/23/18 37/25/17 19/26/17 
f 19/26/17 17/24/18 36/23/18 
f 37/25/17 38/27/21 21/28/21 
f 21/28/21 19/26/17 37/25/17 
f 38/27/21 39/29/22 23/30/22 
f 23/30/22 21/28/21 38/27/21 
f 39/29/22 40/31/23 25/32/23 
f 25/32/23 23/30/22 39/29/22 
s 32
f 40/33/24 41/34/24 26/34/24 
f 26/34/24 25/33/24 40/33/24 
s 4
f 42/35/25 43/36/25 44/37/26 
f 44/37/26 45/38/26 42/35/25 
f 45/35/26 44/36/26 46/37/27 
f 46/37/27 47/38/27 45/35/26 
f 47/35/27 46/36/27 48/37/28 
f 48/37/28 49/38/28 47/35/27 
f 49/35/28 48/36/28 50/37/28 
f 50/37/28 51/38/28 49/35/28 
f 51/35/28 50/36/28 52/37/29 
f 52/37/29 53/38/29 51/35/28 
f 53/35/29 52/36/29 54/37/29 
f 54/37/29 55/38/29 53/35/29 
f 55/35/29 54/36/29 56/37/29 
f 56/37/29 57/38/29 55/35/29 
f 57/35/29 56/36/29 58/37/28 
f 58/37/28 59/38/28 57/35/29 
f 59/35/28 58/36/28 60/37/28 
f 60/37/28 61/38/28 59/35/28 
f 61/35/28 60/36/28 62/37/27 
f 62/37/27 63/38/30 61/35/28 
f 63/35/30 62/36/27 64/37/31 
f 64/37/31 65/38/32 63/35/30 
f 65/35/32 64/36/31 66/37/33 
f 66/37/33 67/38/33 65/35/32 
s 8
f 41/39/34 68/40/34 43/40/34 
f 43/40/34 42/39/34 41/39/34 
s 16
f 68/7/35 69/8/36 44/9/36 
f 44/9/36 43/10/35 68/7/35 
f 69/8/36 70/11/37 46/12/37 
f 46/12/37 44/9/36 69/8/36 
f 70/11/37 71/13/38 48/14/38 
f 48/14/38 46/12/37 70/11/37 
f 71/13/38 72/15/39 50/16/39 
f 50/16/39 48/14/38 71/13/38 
f 72/15/39 73/17/40 52/18/40 
f 52/18/40 50/16/39 72/15/39 
f 73/17/40 74/19/41 54/20/41 
f 54/20/41 52/18/40 73/17/40 
f 74/19/41 75/21/40 56/22/40 
f 56/22/40 54/20/41 74/19/41 
f 75/21/40 76/23/39 58/24/39 
f 58/24/39 56/22/40 75/21/40 
f 76/23/39 77/25/38 60/26/38 
f 60/26/38 58/24/39 76/23/39 
f 77/25/38 78/27/42 62/28/42 
f 62/28/42 60/26/38 77/25/38 
f 78/27/42 79/29/43 64/30/43 
f 64/30/43 62/28/42 78/27/42 
f 79/29/43 80/31/44 66/32/44 
f 66/32/44 64/30/43 79/29/43 
s 32
f 80/41/13 81/42/13 67/42/13 
f 67/42/13 66/41/13 80/41/13 
s off
f 82/43/45 83/44/45 57/45/45 
f 57/45/45 59/46/45 82/43/45 
f 84/47/45 82/44/45 59/45/45 
f 59/45/45 61/46/45 84/47/45 
f 85/48/45 84/49/45 61/45/45 
f 61/45/45 63/46/45 85/48/45 
f 86/50/45 85/49/45 63/45/45 
f 63/45/45 65/46/45 86/50/45 
f 83/43/45 87/44/45 55/51/45 
f 55/51/45 57/46/45 83/43/45 
f 87/43/45 88/52/45 53/45/45 
f 53/45/45 55/46/45 87/43/45 
f 88/53/45 89/54/45 51/45/45 
f 51/45/45 53/46/45 88/53/45 
f 89/55/45 90/54/45 49/45/45 
f 49/45/45 51/46/45 89/55/45 
f 90/56/45 91/57/45 47/45/45 
f 47/45/45 49/46/45 90/56/45 
f 91/58/45 92/59/45 45/45/45 
f 45/45/45 47/46/45 91/58/45 
f 26/60/45 42/61/45 45/62/45 
f 26/60/45 45/62/45 92/63/45 
f 92/63/45 24/64/45 26/60/45 
f 93/48/45 86/65/45 65/45/45 
f 65/45/46 67/46/46 93/48/46 
s 4
f 94/66/47 95/67/47 96/68/47 
s off
f 82/43/45 10/46/45 12/45/45 
f 12/45/45 83/44/45 82/43/45 
f 84/43/48 8/46/48 10/45/48 
f 10/45/45 82/44/45 84/43/45 
f 85/48/49 6/46/49 8/45/49 
f 8/45/48 84/49/48 85/48/48 
f 86/69/49 4/46/49 6/45/49 
f 6/45/48 85/49/48 86/69/48 
f 83/43/45 12/46/45 14/45/45 
f 14/45/45 87/44/45 83/43/45 
f 87/43/45 14/46/45 16/45/45 
f 16/45/45 88/52/45 87/43/45 
f 88/53/45 16/46/45 18/45/45 
f 18/45/45 89/54/45 88/53/45 
f 18/46/45 20/45/45 90/54/45 
f 90/54/45 89/55/45 18/46/45 
f 20/46/45 22/45/45 91/57/45 
f 91/57/45 90/56/45 20/46/45 
f 22/46/45 24/45/45 92/70/45 
f 92/70/45 91/58/45 22/46/45 
f 1/46/49 4/71/49 86/72/49 
f 86/72/48 93/48/48 1/46/48 
# 0 polygons - 152 triangles

