# 3ds Max Wavefront OBJ Exporter v0.97b - (c)2007 guruware
# File Created: 25.09.2017 08:03:01

#
# object Station_Node_ThirdRail
#

v  7.5651 0.3517 -26.6645
v  7.5630 0.3516 -31.9979
v  7.5641 0.5045 -26.6645
v  7.5651 0.3517 -21.3312
v  7.3419 0.3515 -21.3312
v  7.5641 0.5045 -31.9979
v  7.3409 0.5042 -26.6646
v  7.3419 0.3515 -21.3323
v  7.3409 0.5042 -31.9979
v  7.3419 0.3515 -26.6656
v  -7.5662 0.5059 -32.0011
v  -7.5662 0.5059 -26.6678
v  -7.3430 0.5056 -32.0011
v  -7.3430 0.5056 -26.6678
v  -7.3452 0.3529 -32.0016
v  -7.5652 0.3531 -21.3336
v  -7.3420 0.3529 -21.3335
v  -7.3420 0.3529 -26.6667
v  -7.5652 0.3531 -26.6678
v  -7.5652 0.3531 -21.3345
v  -7.5631 0.3531 -32.0022
v  7.3451 0.3515 -31.9989
v  -7.3682 -0.2993 -26.9705
v  -7.3904 0.3527 -26.9958
v  -7.5441 -0.2993 -26.9705
v  -7.5219 0.3527 -26.9958
v  -7.5441 -0.2993 -27.1705
v  -7.5219 0.3527 -27.1452
v  -7.3682 -0.2993 -27.1705
v  -7.3904 0.3527 -27.1452
v  7.5434 -0.3007 -26.9631
v  7.5212 0.3513 -26.9884
v  7.3675 -0.3007 -26.9631
v  7.3897 0.3513 -26.9884
v  7.3675 -0.3007 -27.1631
v  7.3897 0.3513 -27.1378
v  7.5434 -0.3007 -27.1631
v  7.5212 0.3513 -27.1378
v  7.5651 0.5897 -26.6645
v  7.5630 0.5896 -31.9979
v  7.5641 0.6184 -26.6645
v  7.5641 0.6184 -21.3312
v  7.3409 0.6182 -21.3312
v  7.5641 0.6184 -31.9979
v  7.3408 0.6182 -26.6646
v  7.3419 0.5895 -21.3323
v  7.3408 0.6182 -31.9979
v  7.3419 0.5895 -26.6656
v  7.5651 0.5897 -21.3312
v  -7.5662 0.6198 -32.0011
v  -7.5662 0.6198 -26.6678
v  -7.3431 0.6196 -32.0011
v  -7.3431 0.6196 -26.6678
v  -7.3452 0.5909 -32.0016
v  -7.5663 0.6198 -21.3345
v  -7.3431 0.6196 -21.3344
v  -7.3420 0.5909 -26.6667
v  -7.5652 0.5911 -26.6678
v  -7.5652 0.5911 -21.3345
v  -7.5631 0.5911 -32.0022
v  7.3451 0.5895 -31.9989
v  -7.3420 0.5909 -21.3335
v  -7.5936 0.2527 -27.1705
v  -7.3186 0.2527 -27.1705
v  -7.5936 0.2527 -26.9705
v  -7.3186 0.2527 -26.9705
v  -7.3186 0.3527 -26.9705
v  -7.3186 0.3527 -27.1705
v  -7.5936 0.3527 -26.9705
v  -7.5936 0.3527 -27.1705
v  7.3182 0.2513 -27.1631
v  7.5932 0.2513 -27.1631
v  7.3182 0.2513 -26.9631
v  7.5932 0.2513 -26.9631
v  7.5932 0.3513 -26.9631
v  7.5932 0.3513 -27.1631
v  7.3182 0.3513 -26.9631
v  7.3182 0.3513 -27.1631
# 78 vertices

vn 1.0000 0.0065 -0.0002
vn 1.0000 -0.0069 -0.0000
vn 1.0000 0.0064 -0.0002
vn -0.0009 0.9996 0.0286
vn -0.0013 0.9999 0.0143
vn -0.0013 1.0000 -0.0000
vn -0.0014 0.9999 0.0143
vn -1.0000 -0.0065 -0.0000
vn -0.9996 -0.0271 -0.0006
vn -1.0000 -0.0067 -0.0000
vn 0.0013 1.0000 -0.0000
vn 0.0013 0.9999 0.0143
vn 0.9999 -0.0144 -0.0000
vn 1.0000 0.0064 -0.0003
vn 0.9999 -0.0140 -0.0000
vn 0.0009 0.9996 0.0286
vn 1.0000 0.0065 -0.0000
vn 1.0000 0.0065 -0.0003
vn -0.9998 -0.0203 -0.0004
vn -0.9998 -0.0200 -0.0004
vn 1.0000 -0.0072 -0.0000
vn -0.9996 -0.0275 -0.0006
vn 0.0000 0.0388 0.9992
vn 0.0000 0.0388 -0.9992
vn 0.9994 0.0340 -0.0000
vn -0.9994 0.0340 -0.0000
vn 0.9994 0.0348 -0.0002
vn 0.9993 -0.0379 -0.0000
vn 0.9994 0.0347 -0.0002
vn -0.0009 1.0000 -0.0000
vn -0.0009 1.0000 0.0000
vn -0.9994 -0.0348 0.0000
vn -0.9993 -0.0383 0.0000
vn -0.9890 -0.1478 -0.0006
vn -0.9993 -0.0385 -0.0000
vn 0.9994 0.0348 -0.0000
vn 0.0009 1.0000 -0.0000
vn 0.0009 1.0000 0.0000
vn 0.9973 -0.0730 -0.0000
vn 0.9993 0.0381 -0.0003
vn 0.9974 -0.0726 -0.0000
vn 0.9993 0.0383 -0.0000
vn 0.9993 0.0383 -0.0003
vn -0.9994 -0.0349 -0.0000
vn -0.9993 -0.0383 -0.0000
vn -0.9994 -0.0348 -0.0000
vn -0.9942 -0.1074 -0.0004
vn -0.9942 -0.1071 -0.0004
vn 0.9993 -0.0382 -0.0000
vn -0.9890 -0.1482 -0.0006
vn 0.0000 -1.0000 -0.0000
vn 0.0000 1.0000 -0.0000
vn 0.0000 0.0000 1.0000
vn 1.0000 0.0000 -0.0000
vn 0.0000 0.0000 -1.0000
vn -1.0000 0.0000 -0.0000
vn 0.0000 -0.0383 0.9993
vn -0.0049 -0.0002 1.0000
vn -0.0004 -0.0000 1.0000
vn -0.0044 0.0312 0.9995
# 60 vertex normals

vt 0.8504 0.9981 0.0000
vt 0.8504 0.0002 0.0000
vt 0.5638 0.9980 0.0000
vt 0.7806 0.9982 0.0000
vt 0.7806 0.0002 0.0000
vt 0.6153 0.9981 0.0000
vt 0.7806 0.9981 0.0000
vt 0.6153 0.9980 0.0000
vt 0.5638 -0.0000 0.0000
vt 0.8504 0.0001 0.0000
vt 0.5638 0.0001 0.0000
vt 0.7806 0.0003 0.0000
vt 0.5638 0.9979 0.0000
vt 0.8504 0.9982 0.0000
vt 0.5638 0.9981 0.0000
vt 0.8504 0.0003 0.0000
vt 0.6153 0.0001 0.0000
vt 0.6153 0.0002 0.0000
vt 0.8504 0.9980 0.0000
vt 0.5638 0.0002 0.0000
vt 0.7689 0.0002 0.0000
vt 0.7689 0.9978 0.0000
vt 0.8504 0.9978 0.0000
vt 0.2167 0.9978 0.0000
vt 0.2167 -0.0001 0.0000
vt 0.0531 0.9979 0.0000
vt 0.2167 0.9980 0.0000
vt 0.2167 0.0000 0.0000
vt 0.0531 0.9980 0.0000
vt 0.2167 0.9979 0.0000
vt 0.0531 -0.0001 0.0000
vt 0.0531 0.0000 0.0000
vt 0.2167 0.0001 0.0000
vt 0.0531 0.9978 0.0000
vt 0.0531 0.0001 0.0000
vt 0.2167 -0.0002 0.0000
vt 0.2167 0.9977 0.0000
vt 0.8555 0.8489 0.0000
vt 0.9971 0.8489 0.0000
vt 1.0000 0.0999 0.0000
vt 0.8519 0.0998 0.0000
vt 0.9971 0.9489 0.0000
vt 0.8555 0.9489 0.0000
vt 0.9013 0.8910 0.0000
vt 0.9013 0.9539 0.0000
vt 0.9642 0.8910 0.0000
vt 0.9642 0.9539 0.0000
vt 0.9820 0.9000 0.0000
vt 0.9820 1.0000 0.0000
vt 0.9627 0.9000 0.0000
vt 0.9627 1.0000 0.0000
vt 0.8555 0.8490 0.0000
vt 0.9971 0.8490 0.0000
vt 1.0000 0.1000 0.0000
vt 0.8518 0.0999 0.0000
vt 0.9971 0.9490 0.0000
vt 0.8555 0.9490 0.0000
vt 0.8518 -0.0001 0.0000
# 58 texture coords

g Station_Node_ThirdRail
s 2
f 1/1/1 2/2/2 3/3/3 
s 1
f 4/4/4 3/5/5 5/6/4 
f 3/7/5 6/5/6 7/8/7 
s 2
f 5/9/8 7/3/8 8/10/8 
f 7/11/8 9/3/9 10/2/10 
s 1
f 11/7/11 12/12/12 13/6/11 
s 2
f 13/9/13 14/13/14 15/10/15 
s 1
f 12/4/12 16/5/16 14/6/12 
s 2
f 14/9/14 17/3/17 18/10/18 
f 19/14/10 20/2/8 12/15/8 
f 21/14/19 19/16/10 11/15/20 
f 3/3/3 2/2/2 6/11/21 
s 1
f 7/8/7 6/5/6 9/17/6 
s 2
f 10/2/10 9/3/9 22/1/22 
s 1
f 5/6/4 3/5/5 7/17/7 
s 2
f 8/10/8 7/3/8 10/1/10 
f 4/15/17 1/2/1 3/11/3 
s 1
f 13/6/11 12/12/12 14/18/12 
s 2
f 15/10/15 14/13/14 18/19/18 
f 11/15/20 19/16/10 12/20/8 
s 1
f 14/6/12 16/5/16 17/17/16 
s 2
f 12/15/8 20/2/8 16/11/8 
s 1
f 23/21/23 24/22/23 25/2/23 
f 26/23/23 25/2/23 24/22/23 
f 27/21/24 28/22/24 29/2/24 
f 30/23/24 29/2/24 28/22/24 
s 2
f 30/22/25 24/23/25 29/21/25 
f 23/2/25 29/21/25 24/23/25 
f 26/22/26 28/23/26 25/21/26 
f 27/2/26 25/21/26 28/23/26 
s 1
f 31/21/23 32/22/23 33/2/23 
f 34/23/23 33/2/23 32/22/23 
f 35/21/24 36/22/24 37/2/24 
f 38/23/24 37/2/24 36/22/24 
s 2
f 38/22/25 32/23/25 37/21/25 
f 31/2/25 37/21/25 32/23/25 
f 34/22/26 36/23/26 33/21/26 
f 35/2/26 33/21/26 36/23/26 
f 39/24/27 40/25/28 41/26/29 
s 1
f 42/27/30 41/28/31 43/29/31 
f 41/30/31 44/28/30 45/26/31 
s 2
f 43/31/32 45/26/33 46/25/32 
f 45/32/33 47/26/34 48/28/35 
f 49/30/36 39/25/27 42/29/36 
s 1
f 50/30/37 51/33/38 52/29/37 
s 2
f 52/31/39 53/34/40 54/25/41 
s 1
f 51/27/38 55/28/38 53/29/38 
s 2
f 53/31/40 56/26/42 57/25/43 
f 58/27/44 59/28/45 51/29/46 
f 60/30/47 58/28/44 50/29/48 
f 41/26/29 40/28/28 44/32/49 
s 1
f 45/26/31 44/28/30 47/32/30 
s 2
f 48/25/35 47/29/34 61/24/50 
s 1
f 43/29/31 41/25/31 45/32/31 
s 2
f 46/25/32 45/26/33 48/30/35 
f 42/29/36 39/25/27 41/32/29 
s 1
f 52/29/37 51/33/38 53/35/38 
s 2
f 54/36/41 53/26/40 57/37/43 
f 50/29/48 58/28/44 51/35/46 
s 1
f 53/29/38 55/28/38 56/32/37 
s 2
f 57/25/43 56/26/42 62/30/42 
f 51/29/46 59/25/45 55/32/45 
f 63/38/51 64/39/51 65/38/51 
f 66/39/51 65/38/51 64/39/51 
s 4
f 67/40/52 68/40/52 69/41/52 
f 70/41/52 69/41/52 68/40/52 
s 8
f 66/39/53 67/42/53 65/38/53 
f 69/43/53 65/38/53 67/42/53 
s 16
f 64/44/54 68/45/54 66/46/54 
f 67/47/54 66/46/54 68/45/54 
s 32
f 63/38/55 70/43/55 64/39/55 
f 68/42/55 64/39/55 70/43/55 
s 64
f 65/48/56 69/49/56 63/50/56 
f 70/51/56 63/50/56 69/49/56 
s 2
f 71/52/51 72/53/51 73/52/51 
f 74/53/51 73/52/51 72/53/51 
s 4
f 75/54/52 76/54/52 77/55/52 
f 78/55/52 77/55/52 76/54/52 
s 8
f 74/53/53 75/56/53 73/52/53 
f 77/57/53 73/52/53 75/56/53 
s 16
f 72/50/54 76/51/54 74/48/54 
f 75/49/54 74/48/54 76/51/54 
s 32
f 71/52/55 78/57/55 72/53/55 
f 76/56/55 72/53/55 78/57/55 
s 64
f 73/58/56 77/55/56 71/58/56 
f 78/55/56 71/58/56 77/55/56 
s off
f 43/29/57 46/25/57 42/27/57 
f 49/30/58 42/27/58 46/25/58 
f 55/28/59 59/28/59 56/26/59 
f 62/30/60 56/26/60 59/28/60 
# 0 polygons - 90 triangles

