# 3ds Max Wavefront OBJ Exporter v0.97b - (c)2007 guruware
# File Created: 04.09.2018 17:07:08

#
# object Box002
#

v  9.1000 0.0000 -16.0000
v  9.1000 0.0000 -32.0000
v  -9.1000 0.0000 -32.0000
v  -9.1000 0.0000 -16.0000
v  9.1000 0.0000 0.0000
v  -9.1000 0.0000 -0.0000
v  9.1000 0.0000 16.0000
v  -9.1000 0.0000 16.0000
v  9.1000 0.0000 32.0000
v  -9.1000 0.0000 32.0000
v  9.1000 7.2000 -16.0000
v  9.1000 7.2000 -32.0000
v  9.1000 7.2000 0.0000
v  9.1000 7.2000 16.0000
v  9.1000 7.2000 32.0000
v  -9.1000 7.2000 -16.0000
v  -9.1000 7.2000 -32.0000
v  -9.1000 7.2000 -0.0000
v  -9.1000 7.2000 16.0000
v  -9.1000 7.2000 32.0000
# 20 vertices

vn 0.0000 1.0000 -0.0000
vn -1.0000 0.0000 -0.0000
vn 0.0000 -1.0000 -0.0000
vn 1.0000 0.0000 -0.0000
# 4 vertex normals

vt 0.3740 0.2500 0.0000
vt 0.3740 0.0000 0.0000
vt -0.0000 0.0000 0.0000
vt -0.0000 0.2500 0.0000
vt 0.3740 0.5000 0.0000
vt -0.0000 0.5000 0.0000
vt 0.3740 0.7500 0.0000
vt -0.0000 0.7500 0.0000
vt 0.3740 1.0000 0.0000
vt -0.0000 1.0000 0.0000
# 10 texture coords

g Box002
s 8
f 1/1/1 2/2/1 3/3/1 4/4/1 
f 5/5/1 1/1/1 4/4/1 6/6/1 
f 7/7/1 5/5/1 6/6/1 8/8/1 
f 9/9/1 7/7/1 8/8/1 10/10/1 
s 16
f 11/1/2 12/2/2 2/3/2 1/4/2 
f 13/5/2 11/1/2 1/4/2 5/6/2 
f 14/7/2 13/5/2 5/6/2 7/8/2 
f 15/9/2 14/7/2 7/8/2 9/10/2 
s 32
f 16/1/3 17/2/3 12/3/3 11/4/3 
f 18/5/3 16/1/3 11/4/3 13/6/3 
f 19/7/3 18/5/3 13/6/3 14/8/3 
f 20/9/3 19/7/3 14/8/3 15/10/3 
s 64
f 4/1/4 3/2/4 17/3/4 16/4/4 
f 6/5/4 4/1/4 16/4/4 18/6/4 
f 8/7/4 6/5/4 18/6/4 19/8/4 
f 10/9/4 8/7/4 19/8/4 20/10/4 
# 16 polygons

