# 3ds Max Wavefront OBJ Exporter v0.97b - (c)2007 guruware
# File Created: 25.09.2017 08:03:00

#
# object Tunnel_Node_Pavement_Steel_Bar
#

v  9.9000 7.0000 32.0003
v  9.9000 8.0000 32.0003
v  8.9507 8.0000 32.0003
v  8.2253 7.5000 0.0002
v  8.1217 7.4286 -4.5713
v  9.0711 6.4286 -4.5713
v  9.1747 6.5000 0.0002
v  -8.9507 8.0000 32.0003
v  -9.9000 8.0000 32.0003
v  -9.9000 7.0000 32.0003
v  -9.1745 6.5000 0.0002
v  -9.0709 6.4286 -4.5713
v  -8.1215 7.4286 -4.5713
v  -8.2252 7.5000 0.0002
v  8.8470 7.9286 27.4289
v  9.7964 6.9286 27.4289
v  8.7434 7.8571 22.8574
v  9.6928 6.8571 22.8574
v  8.6398 7.7857 18.2860
v  9.5891 6.7857 18.2859
v  8.5362 7.7143 13.7145
v  9.4855 6.7143 13.7145
v  8.4326 7.6429 9.1431
v  9.3819 6.6429 9.1431
v  8.3289 7.5714 4.5716
v  9.2783 6.5714 4.5716
v  8.4493 6.0000 -32.0000
v  8.5530 6.0714 -27.4285
v  7.6036 7.0714 -27.4286
v  7.5000 7.0000 -32.0000
v  8.6566 6.1429 -22.8571
v  7.7072 7.1429 -22.8571
v  8.7602 6.2143 -18.2856
v  7.8109 7.2143 -18.2856
v  8.8638 6.2857 -13.7142
v  7.9145 7.2857 -13.7142
v  8.9674 6.3571 -9.1427
v  8.0181 7.3571 -9.1427
v  -9.7964 6.9286 27.4289
v  -8.8470 7.9286 27.4289
v  -9.6927 6.8571 22.8574
v  -8.7434 7.8571 22.8574
v  -9.5891 6.7857 18.2860
v  -8.6397 7.7857 18.2860
v  -9.4854 6.7143 13.7145
v  -8.5361 7.7143 13.7145
v  -9.3818 6.6429 9.1431
v  -8.4324 7.6429 9.1431
v  -9.2781 6.5714 4.5716
v  -8.3288 7.5714 4.5716
v  -7.4997 7.0000 -32.0000
v  -7.6033 7.0714 -27.4285
v  -8.5526 6.0714 -27.4285
v  -8.4490 6.0000 -32.0000
v  -7.7069 7.1429 -22.8571
v  -8.6563 6.1429 -22.8571
v  -7.8106 7.2143 -18.2856
v  -8.7599 6.2143 -18.2856
v  -7.9142 7.2857 -13.7142
v  -8.8636 6.2857 -13.7142
v  -8.0179 7.3571 -9.1427
v  -8.9672 6.3571 -9.1427
v  8.4493 7.0000 -32.0000
v  -8.4490 7.0000 -32.0000
# 64 vertices

vn 0.0000 0.0000 1.0000
vn -0.7249 -0.6883 0.0272
vn -0.7250 -0.6883 0.0272
vn 0.7250 -0.6882 0.0272
vn 0.7250 -0.6883 0.0272
vn -0.7250 -0.6882 0.0272
vn 0.0000 0.0000 -1.0000
# 7 vertex normals

vt 0.9639 0.9391 0.0000
vt 0.9639 0.9808 0.0000
vt 0.9269 0.9808 0.0000
vt 0.9272 0.5000 0.0000
vt 0.9272 0.4286 0.0000
vt 0.9770 0.4286 0.0000
vt 0.9770 0.5000 0.0000
vt 0.9639 0.9769 0.0000
vt 0.9269 0.9769 0.0000
vt 0.9269 0.9352 0.0000
vt 0.9272 1.0000 0.0000
vt 0.9272 0.9286 0.0000
vt 0.9770 0.9286 0.0000
vt 0.9770 1.0000 0.0000
vt 0.9272 0.8571 0.0000
vt 0.9770 0.8571 0.0000
vt 0.9272 0.7857 0.0000
vt 0.9770 0.7857 0.0000
vt 0.9272 0.7143 0.0000
vt 0.9770 0.7143 0.0000
vt 0.9272 0.6429 0.0000
vt 0.9770 0.6429 0.0000
vt 0.9272 0.5714 0.0000
vt 0.9770 0.5714 0.0000
vt 0.9770 0.0000 0.0000
vt 0.9770 0.0714 0.0000
vt 0.9272 0.0714 0.0000
vt 0.9272 0.0000 0.0000
vt 0.9770 0.1429 0.0000
vt 0.9272 0.1429 0.0000
vt 0.9770 0.2143 0.0000
vt 0.9272 0.2143 0.0000
vt 0.9770 0.2857 0.0000
vt 0.9272 0.2857 0.0000
vt 0.9770 0.3571 0.0000
vt 0.9272 0.3571 0.0000
# 36 texture coords

g Tunnel_Node_Pavement_Steel_Bar
s 4
f 1/1/1 2/2/1 3/3/1 
s 8
f 4/4/2 5/5/3 6/6/2 7/7/2 
s 4
f 8/8/1 9/9/1 10/10/1 
s 8
f 11/7/4 12/6/5 13/5/5 14/4/4 
f 3/11/6 15/12/2 16/13/3 1/14/6 
f 15/12/2 17/15/3 18/16/2 16/13/3 
f 17/15/3 19/17/6 20/18/6 18/16/2 
f 19/17/6 21/19/6 22/20/6 20/18/6 
f 21/19/6 23/21/6 24/22/6 22/20/6 
f 23/21/6 25/23/2 26/24/3 24/22/6 
f 25/23/2 4/4/2 7/7/2 26/24/3 
f 27/25/6 28/26/2 29/27/3 30/28/6 
f 28/26/2 31/29/3 32/30/2 29/27/3 
f 31/29/3 33/31/6 34/32/6 32/30/2 
f 33/31/6 35/33/6 36/34/6 34/32/6 
f 35/33/6 37/35/6 38/36/6 36/34/6 
f 37/35/6 6/6/2 5/5/3 38/36/6 
f 10/14/4 39/13/5 40/12/5 8/11/4 
f 39/13/5 41/16/4 42/15/4 40/12/5 
f 41/16/4 43/18/5 44/17/5 42/15/4 
f 43/18/5 45/20/4 46/19/4 44/17/5 
f 45/20/4 47/22/5 48/21/5 46/19/4 
f 47/22/5 49/24/4 50/23/4 48/21/5 
f 49/24/4 11/7/4 14/4/4 50/23/4 
f 51/28/4 52/27/4 53/26/4 54/25/4 
f 52/27/4 55/30/5 56/29/5 53/26/4 
f 55/30/5 57/32/4 58/31/4 56/29/5 
f 57/32/4 59/34/5 60/33/5 58/31/4 
f 59/34/5 61/36/4 62/35/4 60/33/5 
f 61/36/4 13/5/5 12/6/5 62/35/4 
s 4
f 27/1/7 30/3/7 63/2/7 
f 51/8/7 54/10/7 64/9/7 
# 28 polygons - 4 triangles

