# 3ds Max Wavefront OBJ Exporter v0.97b - (c)2007 guruware
# File Created: 25.09.2017 08:02:59

#
# object Tunnel_Pavement_LOD
#

v  0.0000 8.2000 32.0000
v  0.0000 8.2000 16.0000
v  -10.0000 8.2000 16.0000
v  -10.0000 8.2000 32.0000
v  0.0000 8.2000 -0.0000
v  0.0000 8.2000 -16.0000
v  -10.0000 8.2000 -16.0000
v  -10.0000 8.2000 -0.0000
v  10.0000 -0.3000 16.0000
v  10.0000 8.2000 16.0000
v  10.0000 8.2000 32.0000
v  10.0000 -0.3000 32.0000
v  10.0000 -0.3000 -16.0000
v  10.0000 8.2000 -16.0000
v  10.0000 8.2000 -0.0000
v  10.0000 -0.3000 -0.0000
v  -10.0000 -0.3000 -16.0000
v  -10.0000 8.2000 -32.0000
v  -10.0000 -0.3000 -32.0000
v  -10.0000 -0.3000 16.0000
v  -10.0000 -0.3000 -0.0000
v  -9.5000 0.0000 16.0001
v  0.0000 0.0000 16.0001
v  0.0000 0.0000 32.0001
v  -9.5000 0.0000 32.0001
v  -9.5000 0.0000 -16.0000
v  0.0000 0.0000 -16.0000
v  0.0000 0.0000 -0.0000
v  -9.5000 0.0000 -0.0000
v  0.0000 8.0000 32.0001
v  0.0000 8.0000 16.0001
v  -9.5000 8.0000 16.0001
v  -9.5000 8.0000 32.0001
v  0.0000 8.0000 -0.0000
v  0.0000 8.0000 -16.0000
v  -9.5000 8.0000 -16.0000
v  -9.5000 8.0000 -0.0000
v  9.5000 0.0000 16.0001
v  9.5000 8.0000 16.0001
v  9.5000 8.0000 32.0001
v  9.5000 0.0000 32.0001
v  9.5000 0.0000 -16.0000
v  9.5000 8.0000 -16.0000
v  9.5000 8.0000 -0.0000
v  9.5000 0.0000 -0.0000
v  -9.5000 8.0000 -32.0000
v  -9.5000 0.0000 -32.0000
v  9.5000 0.0000 -32.0000
v  0.0000 0.0000 -32.0000
v  0.0000 8.2000 -32.0000
v  10.0000 -0.3000 -32.0000
v  10.0000 8.2000 -32.0000
v  -10.0000 -0.3000 32.0000
v  0.0000 8.0000 -32.0000
v  9.5000 8.0000 -32.0000
# 55 vertices

vn 0.0000 1.0000 -0.0000
vn 1.0000 0.0000 -0.0000
vn -1.0000 0.0000 -0.0000
vn 0.0000 -1.0000 -0.0000
# 4 vertex normals

vt 0.4464 0.0000 0.0000
vt 0.4464 0.2500 0.0000
vt 0.2342 0.2500 0.0000
vt 0.2342 0.0000 0.0000
vt 0.4464 0.5000 0.0000
vt 0.4464 0.7500 0.0000
vt 0.2342 0.7500 0.0000
vt 0.2342 0.5000 0.0000
vt 0.3403 0.0000 0.0000
vt 0.3403 1.0000 0.0000
vt 0.2342 1.0000 0.0000
vt 0.5525 0.0000 0.0000
vt 0.5525 1.0000 0.0000
vt 0.4464 1.0000 0.0000
vt 0.1416 0.2500 0.0000
vt 0.0712 0.2500 0.0000
vt 0.0712 0.0000 0.0000
vt 0.1416 0.0000 0.0000
vt 0.1416 0.7500 0.0000
vt 0.0712 0.7500 0.0000
vt 0.0712 0.5000 0.0000
vt 0.1416 0.5000 0.0000
vt 0.6587 0.0000 0.0000
vt 0.6587 0.2500 0.0000
vt 0.6587 0.5000 0.0000
vt 0.6587 0.7500 0.0000
vt 0.0008 0.5000 0.0000
vt 0.0008 0.2500 0.0000
vt 0.0008 1.0000 0.0000
vt 0.0008 0.7500 0.0000
vt 0.0712 1.0000 0.0000
vt 0.6587 1.0000 0.0000
vt 0.1416 1.0000 0.0000
vt 0.0008 0.0000 0.0000
# 34 texture coords

g Tunnel_Pavement_LOD
s 4
f 1/1/1 2/2/1 3/3/1 
f 3/3/1 4/4/1 1/1/1 
f 5/5/1 6/6/1 7/7/1 
f 7/7/1 8/8/1 5/5/1 
s 16
f 9/9/2 10/10/2 11/11/2 
f 11/11/2 12/4/2 9/9/2 
f 13/12/2 14/13/2 15/14/2 
f 15/14/2 16/1/2 13/12/2 
s 64
f 17/9/3 7/10/3 18/11/3 
f 18/11/3 19/4/3 17/9/3 
f 20/12/3 3/13/3 8/14/3 
f 8/14/3 21/1/3 20/12/3 
s 2
f 22/15/4 23/16/4 24/17/4 
f 24/17/4 25/18/4 22/15/4 
f 26/19/4 27/20/4 28/21/4 
f 28/21/4 29/22/4 26/19/4 
s 4
f 30/1/1 31/2/1 32/3/1 
f 32/3/1 33/4/1 30/1/1 
f 34/5/1 35/6/1 36/7/1 
f 36/7/1 37/8/1 34/5/1 
s 16
f 38/9/2 39/10/2 40/11/2 
f 40/11/2 41/4/2 38/9/2 
f 42/12/2 43/13/2 44/14/2 
f 44/14/2 45/1/2 42/12/2 
s 64
f 26/9/3 36/10/3 46/11/3 
f 46/11/3 47/4/3 26/9/3 
f 22/12/3 32/13/3 37/14/3 
f 37/14/3 29/1/3 22/12/3 
s 4
f 11/23/1 10/24/1 2/2/1 
f 2/2/1 1/1/1 11/23/1 
f 15/25/1 14/26/1 6/6/1 
f 6/6/1 5/5/1 15/25/1 
s 2
f 45/27/4 38/28/4 23/16/4 
f 23/16/4 28/21/4 45/27/4 
f 48/29/4 42/30/4 27/20/4 
f 27/20/4 49/31/4 48/29/4 
s 4
f 40/23/1 39/24/1 31/2/1 
f 31/2/1 30/1/1 40/23/1 
f 44/25/1 43/26/1 35/6/1 
f 35/6/1 34/5/1 44/25/1 
f 5/5/1 8/8/1 3/3/1 
f 3/3/1 2/2/1 5/5/1 
f 50/14/1 18/11/1 7/7/1 
f 7/7/1 6/6/1 50/14/1 
s 16
f 16/1/2 15/14/2 10/10/2 
f 10/10/2 9/9/2 16/1/2 
f 51/23/2 52/32/2 14/13/2 
f 14/13/2 13/12/2 51/23/2 
s 64
f 21/1/3 8/14/3 7/10/3 
f 7/10/3 17/9/3 21/1/3 
f 53/23/3 4/32/3 3/13/3 
f 3/13/3 20/12/3 53/23/3 
s 2
f 29/22/4 28/21/4 23/16/4 
f 23/16/4 22/15/4 29/22/4 
f 47/33/4 49/31/4 27/20/4 
f 27/20/4 26/19/4 47/33/4 
s 4
f 34/5/1 37/8/1 32/3/1 
f 32/3/1 31/2/1 34/5/1 
f 54/14/1 46/11/1 36/7/1 
f 36/7/1 35/6/1 54/14/1 
s 16
f 45/1/2 44/14/2 39/10/2 
f 39/10/2 38/9/2 45/1/2 
f 48/23/2 55/32/2 43/13/2 
f 43/13/2 42/12/2 48/23/2 
s 64
f 29/1/3 37/14/3 36/10/3 
f 36/10/3 26/9/3 29/1/3 
f 25/23/3 33/32/3 32/13/3 
f 32/13/3 22/12/3 25/23/3 
s 4
f 15/25/1 5/5/1 2/2/1 
f 2/2/1 10/24/1 15/25/1 
f 52/32/1 50/14/1 6/6/1 
f 6/6/1 14/26/1 52/32/1 
s 2
f 41/34/4 24/17/4 23/16/4 
f 23/16/4 38/28/4 41/34/4 
f 45/27/4 28/21/4 27/20/4 
f 27/20/4 42/30/4 45/27/4 
s 4
f 44/25/1 34/5/1 31/2/1 
f 31/2/1 39/24/1 44/25/1 
f 55/32/1 54/14/1 35/6/1 
f 35/6/1 43/26/1 55/32/1 
# 0 polygons - 80 triangles

