# 3ds Max Wavefront OBJ Exporter v0.97b - (c)2007 guruware
# File Created: 08.09.2018 20:44:03

#
# object Box006
#

v  -10.0000 1.0000 -0.0000
v  -10.0000 1.0000 16.0000
v  -9.7000 1.0000 16.0000
v  -9.7000 1.0000 -0.0000
v  -7.5000 -4.0000 -0.0000
v  -7.5000 -4.0000 16.0000
v  -10.0000 -4.0000 16.0000
v  -10.0000 -4.0000 -0.0000
v  10.0000 0.0000 -0.0000
v  10.0000 0.0000 16.0000
v  10.0000 -4.0000 16.0000
v  10.0000 -4.0000 -0.0000
v  -10.0000 0.0000 -0.0000
v  -10.0000 0.0000 -16.0000
v  -10.0000 -4.0000 -16.0000
v  -9.7000 0.0000 -0.0000
v  -9.7000 0.0000 16.0000
v  -7.5000 0.0000 16.0000
v  -7.5000 0.0000 -0.0000
v  9.7000 1.0000 -0.0000
v  9.7000 1.0000 16.0000
v  10.0000 1.0000 16.0000
v  10.0000 1.0000 -0.0000
v  7.5000 -4.0000 -0.0000
v  7.5000 -4.0000 -16.0000
v  10.0000 -4.0000 -16.0000
v  7.5000 0.0000 -0.0000
v  7.5000 0.0000 16.0000
v  9.7000 0.0000 16.0000
v  9.7000 0.0000 -0.0000
v  0.0000 -4.0000 -0.0000
v  0.0000 -4.0000 -16.0000
v  0.0000 0.0000 -0.0000
v  0.0000 0.0000 16.0000
v  -10.0000 1.0000 -32.0000
v  -10.0000 1.0000 -16.0000
v  -9.7000 1.0000 -16.0000
v  -9.7000 1.0000 -32.0000
v  -9.7000 1.0000 32.0000
v  -10.0000 1.0000 32.0000
v  -7.5000 -4.0000 -32.0000
v  -7.5000 -4.0000 -16.0000
v  -10.0000 -4.0000 -32.0000
v  -10.0000 -4.0000 32.0000
v  -7.5000 -4.0000 32.0000
v  10.0000 0.0000 -32.0000
v  10.0000 0.0000 -16.0000
v  10.0000 -4.0000 -32.0000
v  10.0000 -4.0000 32.0000
v  10.0000 0.0000 32.0000
v  -10.0000 0.0000 32.0000
v  -10.0000 0.0000 16.0000
v  -10.0000 0.0000 -32.0000
v  -9.7000 0.0000 -32.0000
v  -9.7000 0.0000 -16.0000
v  -7.5000 0.0000 -16.0000
v  -7.5000 0.0000 -32.0000
v  -7.5000 0.0000 32.0000
v  -9.7000 0.0000 32.0000
v  9.7000 1.0000 -32.0000
v  9.7000 1.0000 -16.0000
v  10.0000 1.0000 -16.0000
v  10.0000 1.0000 -32.0000
v  10.0000 1.0000 32.0000
v  9.7000 1.0000 32.0000
v  7.5000 -4.0000 32.0000
v  7.5000 -4.0000 16.0000
v  7.5000 -4.0000 -32.0000
v  7.5000 0.0000 -32.0000
v  7.5000 0.0000 -16.0000
v  9.7000 0.0000 -16.0000
v  9.7000 0.0000 -32.0000
v  9.7000 0.0000 32.0000
v  7.5000 0.0000 32.0000
v  0.0000 -4.0000 32.0000
v  0.0000 -4.0000 16.0000
v  0.0000 -4.0000 -32.0000
v  0.0000 0.0000 -32.0000
v  0.0000 0.0000 -16.0000
v  0.0000 0.0000 32.0000
# 80 vertices

vn 0.0000 1.0000 -0.0000
vn 0.0000 -1.0000 -0.0000
vn 1.0000 0.0000 -0.0000
vn -1.0000 0.0000 -0.0000
vn 0.0000 0.0000 1.0000
vn 0.0000 0.0000 -1.0000
# 6 vertex normals

vt 1.0000 0.5000 0.0000
vt 1.0000 0.4286 0.0000
vt 0.9750 0.0714 0.0000
vt 0.9750 0.5000 0.0000
vt 0.1250 0.5000 0.0000
vt 0.1250 0.2500 0.0000
vt 0.0000 0.5000 0.0000
vt 0.5000 0.0000 0.0000
vt 0.2500 0.0000 0.0000
vt 0.5000 2.0000 0.0000
vt 0.5000 1.0000 0.0000
vt 0.4286 1.0000 0.0000
vt 0.9750 0.4286 0.0000
vt 0.8750 0.2500 0.0000
vt 0.8750 0.5000 0.0000
vt 0.0250 0.5000 0.0000
vt 0.0250 0.4286 0.0000
vt 0.8750 0.7500 0.0000
vt 1.0000 0.5714 0.0000
vt 0.0500 0.5000 0.0000
vt 0.5000 0.5000 0.0000
vt 0.5000 0.7500 0.0000
vt 0.5000 0.2500 0.0000
vt 1.1682 0.9091 0.0000
vt 2.0000 1.5000 0.0000
vt 0.9750 0.5714 0.0000
vt 0.9750 1.0000 0.0000
vt 0.9750 0.0000 0.0000
vt 0.9937 0.2500 0.0000
vt 0.1250 1.0000 0.0000
vt 0.0682 0.8182 0.0000
vt 0.0000 0.5714 0.0000
vt 0.0000 1.0000 0.0000
vt 0.0000 0.2500 0.0000
vt 0.1250 0.0000 0.0000
vt 0.6563 0.7500 0.0000
vt 0.5714 1.0000 0.0000
vt 0.9286 1.0000 0.0000
vt 0.9750 0.9286 0.0000
vt 0.8750 1.0000 0.0000
vt 0.8750 0.0000 0.0000
vt 0.0292 0.4167 0.0000
vt 0.0500 1.5000 0.0000
vt 0.0250 0.0000 0.0000
vt 2.0000 0.5000 0.0000
vt 0.0250 0.5714 0.0000
vt 0.0000 0.4286 0.0000
vt 0.0000 0.9286 0.0000
# 48 texture coords

g Box006
s 2
f 1/1/1 2/2/1 3/3/1 4/4/1 
s 4
f 5/5/2 6/6/2 7/7/2 8/7/2 
s 16
f 9/8/3 10/9/3 11/10/3 12/11/3 
s 64
f 13/8/4 14/9/4 15/12/4 8/11/4 
s 2
f 16/4/1 17/13/1 18/14/1 19/15/1 
f 20/16/1 21/17/1 22/7/1 23/7/1 
s 4
f 24/15/2 25/18/2 26/19/2 12/1/2 
s 2
f 27/5/1 28/6/1 29/20/1 30/16/1 
s 4
f 31/21/2 32/22/2 25/18/2 24/15/2 
s 2
f 33/21/1 34/23/1 28/6/1 27/5/1 
f 35/24/1 36/25/1 37/26/1 38/27/1 
f 36/25/1 1/1/1 4/4/1 37/26/1 
f 39/28/1 3/3/1 2/2/1 40/29/1 
s 4
f 41/30/2 42/31/2 15/32/2 43/33/2 
f 42/31/2 5/5/2 8/7/2 15/32/2 
f 44/34/2 7/7/2 6/6/2 45/35/2 
s 16
f 46/29/3 47/36/3 26/37/3 48/24/3 
f 47/36/3 9/8/3 12/11/3 26/37/3 
f 49/33/3 11/10/3 10/9/3 50/34/3 
s 64
f 51/29/4 52/36/4 7/38/4 44/24/4 
f 52/36/4 13/8/4 8/11/4 7/38/4 
f 43/33/4 15/12/4 14/9/4 53/34/4 
s 2
f 54/27/1 55/39/1 56/18/1 57/40/1 
f 55/39/1 16/4/1 19/15/1 56/18/1 
f 58/41/1 18/14/1 17/13/1 59/28/1 
f 60/42/1 61/43/1 62/32/1 63/33/1 
f 61/43/1 20/16/1 23/7/1 62/32/1 
f 64/34/1 22/7/1 21/17/1 65/44/1 
s 4
f 66/41/2 67/14/2 11/45/2 49/29/2 
f 67/14/2 24/15/2 12/1/2 11/45/2 
f 48/24/2 26/19/2 25/18/2 68/40/2 
s 2
f 69/30/1 70/31/1 71/46/1 72/42/1 
f 70/31/1 27/5/1 30/16/1 71/46/1 
f 73/44/1 29/20/1 28/6/1 74/35/1 
s 4
f 75/8/2 76/23/2 67/14/2 66/41/2 
f 76/23/2 31/21/2 24/15/2 67/14/2 
f 77/11/2 32/22/2 42/31/2 41/30/2 
s 2
f 78/11/1 79/22/1 70/31/1 69/30/1 
f 79/22/1 33/21/1 27/5/1 70/31/1 
f 80/8/1 34/23/1 18/14/1 58/41/1 
s 4
f 42/31/2 32/22/2 31/21/2 5/5/2 
s 2
f 18/14/1 34/23/1 33/21/1 19/15/1 
s 4
f 6/6/2 76/23/2 75/8/2 45/35/2 
f 5/5/2 31/21/2 76/23/2 6/6/2 
f 25/18/2 32/22/2 77/11/2 68/40/2 
s 2
f 56/18/1 79/22/1 78/11/1 57/40/1 
f 19/15/1 33/21/1 79/22/1 56/18/1 
f 28/6/1 34/23/1 80/8/1 74/35/1 
s off
f 59/28/5 39/28/5 40/29/5 51/29/5 
f 17/13/3 3/3/3 39/28/3 59/28/3 
f 16/4/3 4/4/3 3/3/3 17/13/3 
f 55/39/3 37/26/3 4/4/3 16/4/3 
f 54/27/3 38/27/3 37/26/3 55/39/3 
f 53/24/6 35/24/6 38/27/6 54/27/6 
f 14/25/4 36/25/4 35/24/4 53/24/4 
f 13/1/4 1/1/4 36/25/4 14/19/4 
f 52/2/4 2/2/4 1/1/4 13/1/4 
f 51/29/4 40/29/4 2/2/4 52/45/4 
f 10/47/3 22/7/3 64/34/3 50/34/3 
f 9/7/3 23/7/3 22/7/3 10/47/3 
f 47/48/3 62/32/3 23/7/3 9/7/3 
f 46/33/3 63/33/3 62/32/3 47/48/3 
f 72/42/6 60/42/6 63/33/6 46/33/6 
f 71/46/4 61/43/4 60/42/4 72/42/4 
f 30/16/4 20/16/4 61/43/4 71/46/4 
f 29/20/4 21/17/4 20/16/4 30/16/4 
f 73/44/4 65/44/4 21/17/4 29/20/4 
f 50/34/5 64/34/5 65/44/5 73/44/5 
# 68 polygons

