# 3ds Max Wavefront OBJ Exporter v0.97b - (c)2007 guruware
# File Created: 13.12.2016 00:00:10

#
# object Object002
#

v  0.0000 0.1200 32.0000
v  0.6367 0.1138 32.0000
v  0.6367 0.1138 26.6667
v  0.0000 0.1200 26.6667
v  0.6367 0.1138 -32.0000
v  0.0000 0.1200 -32.0000
v  0.0000 0.1200 -26.6667
v  0.6367 0.1138 -26.6667
v  1.5163 0.1011 32.0000
v  2.4060 0.0829 32.0000
v  2.4060 0.0829 26.6667
v  1.5163 0.1011 26.6667
v  2.4060 0.0829 -32.0000
v  1.5163 0.1011 -32.0000
v  1.5163 0.1011 -26.6667
v  2.4060 0.0829 -26.6667
v  -0.6368 0.1138 32.0000
v  -0.6368 0.1138 26.6667
v  -0.6368 0.1138 -32.0000
v  -0.6368 0.1138 -26.6667
v  -2.4060 0.0829 32.0000
v  -1.5160 0.1011 32.0000
v  -1.5160 0.1011 26.6667
v  -2.4060 0.0829 26.6667
v  -1.5160 0.1011 -32.0000
v  -2.4060 0.0829 -32.0000
v  -2.4060 0.0829 -26.6667
v  -1.5160 0.1011 -26.6667
v  0.0045 0.0530 31.5039
v  4.0037 0.0000 31.5039
v  4.0037 0.0000 26.2555
v  0.0045 0.0530 26.2555
v  4.0037 0.0000 21.0071
v  0.0045 0.0530 21.0071
v  4.0037 0.0000 15.7588
v  0.0045 0.0530 15.7588
v  4.0037 0.0000 10.5104
v  0.0045 0.0530 10.5104
v  4.0037 0.0000 5.2620
v  0.0045 0.0530 5.2620
v  4.0037 0.0000 0.0136
v  0.0045 0.0530 0.0136
v  4.0037 0.0000 -5.2347
v  0.0045 0.0530 -5.2347
v  4.0037 0.0000 -10.4831
v  0.0045 0.0530 -10.4831
v  4.0037 0.0000 -15.7315
v  0.0045 0.0530 -15.7315
v  4.0037 0.0000 -20.9799
v  0.0045 0.0530 -20.9799
v  4.0037 0.0000 -26.2282
v  0.0045 0.0530 -26.2282
v  4.0037 0.0000 -31.4766
v  0.0045 0.0530 -31.4766
v  0.0045 -0.3000 31.5039
v  3.9963 -0.3000 31.5039
v  3.9963 -0.3000 26.2555
v  3.9963 -0.3000 21.0071
v  3.9963 -0.3000 15.7588
v  3.9963 -0.3000 10.5104
v  3.9963 -0.3000 5.2620
v  3.9963 -0.3000 0.0136
v  3.9963 -0.3000 -5.2347
v  3.9963 -0.3000 -10.4831
v  3.9963 -0.3000 -15.7315
v  3.9963 -0.3000 -20.9799
v  3.9963 -0.3000 -26.2282
v  3.9963 -0.3000 -31.4766
v  0.0045 -0.3000 -31.4766
v  0.0045 -0.3000 -26.2282
v  0.0045 -0.3000 26.2555
v  -4.0037 0.0000 -31.4766
v  -4.0037 0.0000 -26.2282
v  -4.0037 0.0000 -20.9799
v  0.0045 0.0530 -20.9798
v  -4.0037 0.0000 -15.7315
v  -4.0037 0.0000 -10.4831
v  -4.0037 0.0000 -5.2347
v  -4.0037 0.0000 0.0136
v  0.0045 0.0530 0.0137
v  -4.0037 0.0000 5.2620
v  -4.0037 0.0000 10.5104
v  -4.0037 0.0000 15.7588
v  -4.0037 0.0000 21.0071
v  0.0045 0.0530 21.0072
v  -4.0037 0.0000 26.2555
v  -4.0037 0.0000 31.5039
v  -3.9963 -0.3000 -31.4766
v  -3.9963 -0.3000 -26.2282
v  -3.9963 -0.3000 -20.9798
v  -3.9963 -0.3000 -15.7315
v  -3.9963 -0.3000 -10.4831
v  -3.9963 -0.3000 -5.2347
v  -3.9963 -0.3000 0.0137
v  -3.9963 -0.3000 5.2620
v  -3.9963 -0.3000 10.5104
v  -3.9963 -0.3000 15.7588
v  -3.9963 -0.3000 21.0072
v  -3.9963 -0.3000 26.2555
v  -3.9963 -0.3000 31.5039
# 100 vertices

vn 0.0098 1.0000 -0.0000
vn 0.0205 0.9998 -0.0000
vn -0.0098 1.0000 -0.0000
vn -0.0205 0.9998 -0.0000
vn 0.0133 0.9999 -0.0000
vn 0.0000 0.0000 1.0000
vn 0.9997 -0.0249 -0.0000
vn 0.0000 0.0000 -1.0000
vn -1.0000 0.0000 -0.0000
vn -0.0132 0.9999 -0.0000
vn -0.9997 -0.0249 -0.0000
vn 1.0000 0.0000 -0.0000
# 12 vertex normals

vt 0.8690 0.0021 0.0000
vt 1.0014 0.0021 0.0000
vt 1.0014 0.3322 0.0000
vt 0.8690 0.3322 0.0000
vt 1.0019 1.0000 0.0000
vt 0.7340 1.0000 0.0000
vt 0.7340 0.6699 0.0000
vt 1.0019 0.6699 0.0000
vt 0.7366 1.0000 0.0000
vt 0.8690 1.0000 0.0000
vt 0.8690 0.6699 0.0000
vt 0.7366 0.6699 0.0000
vt 0.7359 1.0000 0.0000
vt 1.0024 1.0000 0.0000
vt 1.0024 0.6699 0.0000
vt 0.7359 0.6699 0.0000
vt 0.7249 1.0000 0.0000
vt -0.0192 1.0000 0.0000
vt -0.0192 0.0003 0.0000
vt 0.7249 0.0003 0.0000
vt 0.0000 0.0000 0.0000
vt 0.0833 0.0000 0.0000
vt 0.0833 1.0000 0.0000
vt 0.0000 1.0000 0.0000
vt 0.1667 0.0000 0.0000
vt 0.1667 1.0000 0.0000
vt 0.2500 0.0000 0.0000
vt 0.2500 1.0000 0.0000
vt -0.0010 0.0000 0.0000
vt -0.0010 1.0000 0.0000
vt 0.0823 0.0000 0.0000
vt 0.0823 1.0000 0.0000
vt 0.1657 0.0000 0.0000
vt 0.1657 1.0000 0.0000
vt 0.2490 0.0000 0.0000
vt 0.2490 1.0000 0.0000
vt 0.3323 0.0000 0.0000
vt 0.3323 1.0000 0.0000
vt 0.4157 0.0000 0.0000
vt 0.4157 1.0000 0.0000
vt 0.4990 0.0000 0.0000
vt 0.4990 1.0000 0.0000
vt 0.5823 0.0000 0.0000
vt 0.5823 1.0000 0.0000
vt 0.6657 0.0000 0.0000
vt 0.6657 1.0000 0.0000
vt -0.0145 0.0003 0.0000
vt 0.7440 0.0003 0.0000
vt 0.7440 1.0000 0.0000
vt -0.0145 1.0000 0.0000
# 50 texture coords

g Object002
s 4
f 1/1/1 2/2/1 3/3/1 
f 3/3/1 4/4/1 1/1/1 
f 5/2/1 6/1/1 7/4/1 
f 7/4/1 8/3/1 5/2/1 
f 9/5/2 10/6/2 11/7/2 
f 11/7/2 12/8/2 9/5/2 
f 13/6/2 14/5/2 15/8/2 
f 15/8/2 16/7/2 13/6/2 
f 17/9/3 1/10/3 4/11/3 
f 4/11/3 18/12/3 17/9/3 
f 6/10/3 19/9/3 20/12/3 
f 20/12/3 7/11/3 6/10/3 
f 21/13/4 22/14/4 23/15/4 
f 23/15/4 24/16/4 21/13/4 
f 25/14/4 26/13/4 27/16/4 
f 27/16/4 28/15/4 25/14/4 
f 29/17/5 30/18/5 31/19/5 
f 31/19/5 32/20/5 29/17/5 
f 32/17/5 31/18/5 33/19/5 
f 33/19/5 34/20/5 32/17/5 
f 34/17/5 33/18/5 35/19/5 
f 35/19/5 36/20/5 34/17/5 
f 36/17/5 35/18/5 37/19/5 
f 37/19/5 38/20/5 36/17/5 
f 38/17/5 37/18/5 39/19/5 
f 39/19/5 40/20/5 38/17/5 
f 40/17/5 39/18/5 41/19/5 
f 41/19/5 42/20/5 40/17/5 
f 42/17/5 41/18/5 43/19/5 
f 43/19/5 44/20/5 42/17/5 
f 44/17/5 43/18/5 45/19/5 
f 45/19/5 46/20/5 44/17/5 
f 46/17/5 45/18/5 47/19/5 
f 47/19/5 48/20/5 46/17/5 
f 48/17/5 47/18/5 49/19/5 
f 49/19/5 50/20/5 48/17/5 
f 50/17/5 49/18/5 51/19/5 
f 51/19/5 52/20/5 50/17/5 
f 52/17/5 51/18/5 53/19/5 
f 53/19/5 54/20/5 52/17/5 
s 8
f 55/17/6 56/18/6 30/18/6 
f 30/18/6 29/17/6 55/17/6 
s 16
f 56/21/7 57/22/7 31/23/7 
f 31/23/7 30/24/7 56/21/7 
f 57/22/7 58/25/7 33/26/7 
f 33/26/7 31/23/7 57/22/7 
f 58/25/7 59/27/7 35/28/7 
f 35/28/7 33/26/7 58/25/7 
f 59/27/7 60/29/7 37/30/7 
f 37/30/7 35/28/7 59/27/7 
f 60/29/7 61/31/7 39/32/7 
f 39/32/7 37/30/7 60/29/7 
f 61/31/7 62/33/7 41/34/7 
f 41/34/7 39/32/7 61/31/7 
f 62/33/7 63/35/7 43/36/7 
f 43/36/7 41/34/7 62/33/7 
f 63/35/7 64/37/7 45/38/7 
f 45/38/7 43/36/7 63/35/7 
f 64/37/7 65/39/7 47/40/7 
f 47/40/7 45/38/7 64/37/7 
f 65/39/7 66/41/7 49/42/7 
f 49/42/7 47/40/7 65/39/7 
f 66/41/7 67/43/7 51/44/7 
f 51/44/7 49/42/7 66/41/7 
f 67/43/7 68/45/7 53/46/7 
f 53/46/7 51/44/7 67/43/7 
s 32
f 68/19/8 69/20/8 54/20/8 
f 54/20/8 53/19/8 68/19/8 
s 64
f 69/21/9 70/22/9 52/23/9 
f 52/23/9 54/24/9 69/21/9 
f 71/43/9 55/45/9 29/46/9 
f 29/46/9 32/44/9 71/43/9 
s 4
f 54/47/10 72/48/10 73/49/10 
f 73/49/10 52/50/10 54/47/10 
f 52/47/10 73/48/10 74/49/10 
f 74/49/10 75/50/10 52/47/10 
f 75/47/10 74/48/10 76/49/10 
f 76/49/10 48/50/10 75/47/10 
f 48/47/10 76/48/10 77/49/10 
f 77/49/10 46/50/10 48/47/10 
f 46/47/10 77/48/10 78/49/10 
f 78/49/10 44/50/10 46/47/10 
f 44/47/10 78/48/10 79/49/10 
f 79/49/10 80/50/10 44/47/10 
f 80/47/10 79/48/10 81/49/10 
f 81/49/10 40/50/10 80/47/10 
f 40/47/10 81/48/10 82/49/10 
f 82/49/10 38/50/10 40/47/10 
f 38/47/10 82/48/10 83/49/10 
f 83/49/10 36/50/10 38/47/10 
f 36/47/10 83/48/10 84/49/10 
f 84/49/10 85/50/10 36/47/10 
f 85/47/10 84/48/10 86/49/10 
f 86/49/10 32/50/10 85/47/10 
f 32/47/10 86/48/10 87/49/10 
f 87/49/10 29/50/10 32/47/10 
s 8
f 69/47/8 88/48/8 72/48/8 
f 72/48/8 54/47/8 69/47/8 
s 16
f 88/21/11 89/22/11 73/23/11 
f 73/23/11 72/24/11 88/21/11 
f 89/22/11 90/25/11 74/26/11 
f 74/26/11 73/23/11 89/22/11 
f 90/25/11 91/27/11 76/28/11 
f 76/28/11 74/26/11 90/25/11 
f 91/27/11 92/29/11 77/30/11 
f 77/30/11 76/28/11 91/27/11 
f 92/29/11 93/31/11 78/32/11 
f 78/32/11 77/30/11 92/29/11 
f 93/31/11 94/33/11 79/34/11 
f 79/34/11 78/32/11 93/31/11 
f 94/33/11 95/35/11 81/36/11 
f 81/36/11 79/34/11 94/33/11 
f 95/35/11 96/37/11 82/38/11 
f 82/38/11 81/36/11 95/35/11 
f 96/37/11 97/39/11 83/40/11 
f 83/40/11 82/38/11 96/37/11 
f 97/39/11 98/41/11 84/42/11 
f 84/42/11 83/40/11 97/39/11 
f 98/41/11 99/43/11 86/44/11 
f 86/44/11 84/42/11 98/41/11 
f 99/43/11 100/45/11 87/46/11 
f 87/46/11 86/44/11 99/43/11 
s 32
f 100/49/6 55/50/6 29/50/6 
f 29/50/6 87/49/6 100/49/6 
s 64
f 55/21/12 71/22/12 32/23/12 
f 32/23/12 29/24/12 55/21/12 
f 70/43/12 69/45/12 54/46/12 
f 54/46/12 52/44/12 70/43/12 
# 128 faces

