# 3ds Max Wavefront OBJ Exporter v0.97b - (c)2007 guruware
# File Created: 27.08.2016 14:44:05

#
# object Box005
#

v  3.2500 -1.1500 0.0005
v  3.2500 -1.1500 -15.9995
v  2.5000 -5.0182 -16.1585
v  2.5000 -3.0000 0.0005
v  -3.2500 -1.1500 0.0005
v  -2.5000 -3.0000 0.0005
v  -2.5000 -5.0182 -16.1585
v  -3.2500 -1.1500 -15.9995
v  4.7500 -1.1500 0.0005
v  -4.7500 -1.1500 0.0005
v  -4.7500 -1.1500 16.0005
v  4.7500 -1.1500 16.0005
v  -5.0000 -0.0000 0.0005
v  5.0000 0.0000 0.0005
v  5.0000 0.0000 16.0005
v  -5.0000 -0.0000 16.0005
v  -4.7500 -1.1500 -15.9995
v  -5.0000 -0.0000 -15.9995
v  4.5000 -0.0000 0.0005
v  4.5000 -0.0000 16.0005
v  4.3750 1.3000 0.0005
v  5.1500 1.3000 0.0005
v  5.1500 1.3000 16.0005
v  4.3750 1.3000 16.0005
v  5.1500 1.3000 -15.9995
v  5.0000 0.0000 -15.9995
v  -4.5000 -0.0000 0.0005
v  -5.0000 0.0000 0.0005
v  -5.0000 0.0000 16.0005
v  -4.5000 -0.0000 16.0005
v  -5.1500 1.3000 0.0005
v  -4.3750 1.3000 0.0005
v  -4.3750 1.3000 16.0005
v  -5.1500 1.3000 16.0005
v  -5.0000 0.0000 -15.9995
v  -5.1500 1.3000 -15.9995
v  2.5000 -9.4346 32.0006
v  3.2500 -1.1500 32.0006
v  3.2500 -1.1500 16.0006
v  2.5000 -5.0182 16.1595
v  2.5000 -9.4346 -31.9995
v  3.2500 -1.1500 -31.9995
v  -3.2500 -1.1500 32.0005
v  -2.5000 -9.4346 32.0005
v  -2.5000 -5.0182 16.1594
v  -3.2500 -1.1500 16.0005
v  -2.5000 -9.4346 -31.9995
v  -3.2500 -1.1500 -31.9995
v  4.7500 -1.1500 -31.9995
v  -4.7500 -1.1500 -31.9995
v  4.7500 -1.1500 -15.9995
v  -4.7500 -1.1500 32.0005
v  4.7500 -1.1500 32.0005
v  -5.0000 -0.0000 -31.9995
v  5.0000 0.0000 -31.9995
v  5.0000 0.0000 32.0005
v  -5.0000 -0.0000 32.0005
v  4.5000 -0.0000 -31.9995
v  4.5000 -0.0000 -15.9995
v  4.5000 -0.0000 32.0005
v  4.3750 1.3000 -31.9995
v  5.1500 1.3000 -31.9995
v  4.3750 1.3000 -15.9995
v  5.1500 1.3000 32.0005
v  4.3750 1.3000 32.0005
v  -4.5000 -0.0000 -31.9995
v  -5.0000 0.0000 -31.9995
v  -4.5000 -0.0000 -15.9995
v  -5.0000 0.0000 32.0005
v  -4.5000 -0.0000 32.0005
v  -5.1500 1.3000 -31.9995
v  -4.3750 1.3000 -31.9995
v  -4.3750 1.3000 -15.9995
v  -4.3750 1.3000 32.0005
v  -5.1500 1.3000 32.0005
v  -0.5967 0.7582 32.0026
v  -0.5967 0.7582 16.0016
v  0.5834 0.7580 15.9974
v  0.5834 0.7580 31.9984
v  -0.5967 0.7582 0.0005
v  0.5834 0.7580 -0.0037
v  -0.5967 0.7582 -16.0005
v  0.5834 0.7580 -16.0047
v  -0.5967 0.7582 -32.0016
v  0.5834 0.7580 -32.0058
# 85 vertices

vn 0.9320 -0.3620 0.0199
vn 0.9843 -0.1759 0.0180
vn 0.9796 -0.1983 0.0323
vn 0.9316 -0.3628 0.0217
vn -0.9320 -0.3620 0.0199
vn -0.9316 -0.3628 0.0217
vn -0.9796 -0.1983 0.0323
vn -0.9843 -0.1759 0.0180
vn -0.0000 -0.9923 0.1239
vn 0.0000 -1.0000 -0.0000
vn -0.0000 1.0000 -0.0000
vn 0.9772 -0.2124 -0.0000
vn -0.9772 -0.2124 -0.0000
vn 0.0000 1.0000 -0.0000
vn -0.9954 -0.0957 -0.0000
vn 0.9934 -0.1146 -0.0000
vn -0.0000 -1.0000 -0.0000
vn 0.9954 -0.0957 -0.0000
vn -0.9934 -0.1146 -0.0000
vn 0.9943 -0.1067 -0.0087
vn 0.9959 -0.0902 -0.0000
vn 0.9825 -0.1837 -0.0293
vn 0.9806 -0.1918 -0.0409
vn 0.9943 -0.1067 0.0087
vn -0.9942 -0.1057 -0.0212
vn -0.9956 -0.0901 -0.0251
vn -0.9844 -0.1752 -0.0142
vn -0.9801 -0.1982 -0.0113
vn -0.9943 -0.1067 0.0087
vn -0.9959 -0.0902 -0.0000
vn 0.0000 -0.9633 -0.2686
vn 0.0000 -0.9923 -0.1239
vn -0.0000 -0.9633 0.2686
vn 0.0002 1.0000 -0.0000
# 34 vertex normals

vt 0.3268 0.5000 0.0000
vt 0.3268 0.7500 0.0000
vt 0.6892 0.7500 0.0000
vt 0.6892 0.5000 0.0000
vt 0.2800 0.4999 0.0000
vt 0.6892 0.4999 0.0000
vt 0.6892 0.7524 0.0000
vt 0.2800 0.7524 0.0000
vt 0.0000 0.5000 0.0000
vt 1.0000 0.5000 0.0000
vt 1.0000 0.2500 0.0000
vt 0.0000 0.2500 0.0000
vt 0.1400 0.5000 0.0000
vt 0.1400 0.2500 0.0000
vt 0.2123 0.5000 0.0000
vt 0.3158 0.5000 0.0000
vt 0.3158 0.2500 0.0000
vt 0.2123 0.2500 0.0000
vt 0.8187 0.5000 0.0000
vt 0.7728 0.5000 0.0000
vt 0.7728 0.2500 0.0000
vt 0.8187 0.2500 0.0000
vt 0.7000 0.5000 0.0000
vt 0.7562 0.5000 0.0000
vt 0.7562 0.7500 0.0000
vt 0.7000 0.7500 0.0000
vt 0.6892 -0.0000 0.0000
vt 0.3268 -0.0000 0.0000
vt 0.3268 0.2500 0.0000
vt 0.6892 0.2500 0.0000
vt 0.6892 1.0000 0.0000
vt 0.3268 1.0000 0.0000
vt 0.2800 0.0000 0.0000
vt 0.6892 0.2475 0.0000
vt 0.2800 0.2475 0.0000
vt 0.6892 0.9999 0.0000
vt 0.2800 0.9999 0.0000
vt 0.0000 1.0000 0.0000
vt 1.0000 1.0000 0.0000
vt 1.0000 0.7500 0.0000
vt 0.0000 0.7500 0.0000
vt 1.0000 0.0000 0.0000
vt 0.0000 0.0000 0.0000
vt 0.1400 1.0000 0.0000
vt 0.1400 0.7500 0.0000
vt 0.1400 0.0000 0.0000
vt 0.2123 1.0000 0.0000
vt 0.3158 1.0000 0.0000
vt 0.3158 0.7500 0.0000
vt 0.2123 0.7500 0.0000
vt 0.3158 -0.0000 0.0000
vt 0.2123 0.0000 0.0000
vt 0.8187 1.0000 0.0000
vt 0.7728 1.0000 0.0000
vt 0.7728 0.7500 0.0000
vt 0.8187 0.7500 0.0000
vt 0.7728 0.0000 0.0000
vt 0.8187 0.0000 0.0000
vt 0.7000 0.0000 0.0000
vt 0.7562 0.0000 0.0000
vt 0.7562 0.2500 0.0000
vt 0.7000 0.2500 0.0000
vt 0.7562 1.0000 0.0000
vt 0.7000 1.0000 0.0000
vt 0.1732 0.0000 0.0000
vt 0.1732 0.2500 0.0000
vt 0.2101 0.2500 0.0000
vt 0.2101 0.0000 0.0000
vt 0.1732 0.5000 0.0000
vt 0.2101 0.5000 0.0000
vt 0.1732 0.7500 0.0000
vt 0.2101 0.7500 0.0000
vt 0.1732 1.0000 0.0000
vt 0.2101 1.0000 0.0000
# 74 texture coords

g Box005
s 16
f 3/3/3 2/2/2 1/1/1 
f 1/1/1 4/4/4 3/3/3 
s 64
f 7/3/7 6/4/6 5/1/5 
f 5/1/5 8/2/8 7/3/7 
s off
f 3/7/9 4/6/9 6/5/9 
f 6/5/9 7/8/9 3/7/9 
s 2
f 11/11/10 10/10/10 9/9/10 
f 9/9/10 12/12/10 11/11/10 
s 4
f 15/14/11 14/13/11 13/9/11 
f 13/9/11 16/12/11 15/14/11 
s 16
f 12/17/12 9/16/12 14/15/12 
f 14/15/12 15/18/12 12/17/12 
s 64
f 17/17/13 10/16/13 13/15/13 
f 13/15/13 18/18/13 17/17/13 
s 2
f 20/12/10 19/9/10 14/10/10 
f 14/10/10 15/11/10 20/12/10 
s 4
f 23/21/14 22/20/14 21/19/14 
f 21/19/14 24/22/14 23/21/14 
s 16
f 24/25/15 21/24/15 19/23/15 
f 19/23/15 20/26/15 24/25/15 
s 64
f 25/18/16 22/15/16 14/16/16 
f 14/16/16 26/17/16 25/18/16 
s 2
f 29/11/17 28/10/17 27/9/17 
f 27/9/17 30/12/17 29/11/17 
s 4
f 33/22/14 32/19/14 31/20/14 
f 31/20/14 34/21/14 33/22/14 
s 16
f 30/26/18 27/23/18 32/24/18 
f 32/24/18 33/25/18 30/26/18 
s 64
f 35/17/19 28/16/19 31/15/19 
f 31/15/19 36/18/19 35/17/19 
s 16
f 39/29/22 38/28/21 37/27/20 
f 37/27/20 40/30/23 39/29/22 
f 39/29/22 40/30/23 4/4/4 
f 4/4/4 1/1/1 39/29/22 
f 2/2/2 3/3/3 41/31/24 
f 41/31/24 42/32/21 2/2/2 
s 64
f 45/30/27 44/27/26 43/28/25 
f 43/28/25 46/29/28 45/30/27 
f 6/4/6 45/30/27 46/29/28 
f 46/29/28 5/1/5 6/4/6 
f 8/2/8 48/32/30 47/31/29 
f 47/31/29 7/3/7 8/2/8 
s off
f 40/34/31 37/27/31 44/33/31 
f 44/33/31 45/35/31 40/34/31 
f 4/6/32 40/34/32 45/35/32 
f 45/35/32 6/5/32 4/6/32 
f 7/8/33 47/37/33 41/36/33 
f 41/36/33 3/7/33 7/8/33 
s 2
f 17/40/10 50/39/10 49/38/10 
f 49/38/10 51/41/10 17/40/10 
f 10/10/10 17/40/10 51/41/10 
f 51/41/10 9/9/10 10/10/10 
f 12/12/10 53/43/10 52/42/10 
f 52/42/10 11/11/10 12/12/10 
s 4
f 26/45/11 55/44/11 54/38/11 
f 54/38/11 18/41/11 26/45/11 
f 14/13/11 26/45/11 18/41/11 
f 18/41/11 13/9/11 14/13/11 
f 16/12/11 57/43/11 56/46/11 
f 56/46/11 15/14/11 16/12/11 
s 16
f 51/49/12 49/48/12 55/47/12 
f 55/47/12 26/50/12 51/49/12 
f 9/16/12 51/49/12 26/50/12 
f 26/50/12 14/15/12 9/16/12 
f 15/18/12 56/52/12 53/51/12 
f 53/51/12 12/17/12 15/18/12 
s 64
f 11/49/13 52/48/13 57/47/13 
f 57/47/13 16/50/13 11/49/13 
f 10/16/13 11/49/13 16/50/13 
f 16/50/13 13/15/13 10/16/13 
f 18/18/13 54/52/13 50/51/13 
f 50/51/13 17/17/13 18/18/13 
s 2
f 59/41/10 58/38/10 55/39/10 
f 55/39/10 26/40/10 59/41/10 
f 19/9/10 59/41/10 26/40/10 
f 26/40/10 14/10/10 19/9/10 
f 15/11/10 56/42/10 60/43/10 
f 60/43/10 20/12/10 15/11/10 
s 4
f 25/55/14 62/54/14 61/53/14 
f 61/53/14 63/56/14 25/55/14 
f 22/20/14 25/55/14 63/56/14 
f 63/56/14 21/19/14 22/20/14 
f 24/22/14 65/58/14 64/57/14 
f 64/57/14 23/21/14 24/22/14 
s 16
f 63/61/15 61/60/15 58/59/15 
f 58/59/15 59/62/15 63/61/15 
f 21/24/15 63/61/15 59/62/15 
f 59/62/15 19/23/15 21/24/15 
f 20/26/15 60/64/15 65/63/15 
f 65/63/15 24/25/15 20/26/15 
s 64
f 23/50/16 64/47/16 56/48/16 
f 56/48/16 15/49/16 23/50/16 
f 22/15/16 23/50/16 15/49/16 
f 15/49/16 14/16/16 22/15/16 
f 26/17/16 55/51/16 62/52/16 
f 62/52/16 25/18/16 26/17/16 
s 2
f 35/40/17 67/39/17 66/38/17 
f 66/38/17 68/41/17 35/40/17 
f 28/10/17 35/40/17 68/41/17 
f 68/41/17 27/9/17 28/10/17 
f 30/12/17 70/43/17 69/42/17 
f 69/42/17 29/11/17 30/12/17 
s 4
f 73/56/14 72/53/14 71/54/14 
f 71/54/14 36/55/14 73/56/14 
f 32/19/14 73/56/14 36/55/14 
f 36/55/14 31/20/14 32/19/14 
f 34/21/14 75/57/14 74/58/14 
f 74/58/14 33/22/14 34/21/14 
s 16
f 68/62/18 66/59/18 72/60/18 
f 72/60/18 73/61/18 68/62/18 
f 27/23/18 68/62/18 73/61/18 
f 73/61/18 32/24/18 27/23/18 
f 33/25/18 74/63/18 70/64/18 
f 70/64/18 30/26/18 33/25/18 
s 64
f 29/49/19 69/48/19 75/47/19 
f 75/47/19 34/50/19 29/49/19 
f 28/16/19 29/49/19 34/50/19 
f 34/50/19 31/15/19 28/16/19 
f 36/18/19 71/52/19 67/51/19 
f 67/51/19 35/17/19 36/18/19 
s 1
f 78/67/34 77/66/34 76/65/34 
f 76/65/34 79/68/34 78/67/34 
f 81/70/34 80/69/34 77/66/34 
f 77/66/34 78/67/34 81/70/34 
f 83/72/34 82/71/34 80/69/34 
f 80/69/34 81/70/34 83/72/34 
f 85/74/34 84/73/34 82/71/34 
f 82/71/34 83/72/34 85/74/34 
# 128 faces

