# 3ds Max Wavefront OBJ Exporter v0.97b - (c)2007 guruware
# File Created: 27.08.2016 15:48:07

#
# object Box005
#

v  -0.0000 0.0000 0.0005
v  -0.0000 0.0000 16.0005
v  -5.0000 -0.0000 16.0005
v  -5.0000 -0.0000 0.0005
v  4.7500 -1.1500 0.0005
v  4.7500 -1.1500 16.0005
v  5.0000 0.0000 16.0005
v  5.0000 0.0000 0.0005
v  -4.7500 -1.1500 0.0005
v  -4.7500 -1.1500 -15.9995
v  -5.0000 -0.0000 -15.9995
v  4.5000 -0.0000 0.0005
v  4.5000 -0.0000 16.0005
v  5.1500 1.3000 0.0005
v  5.1500 1.3000 16.0005
v  4.3750 1.3000 16.0005
v  4.3750 1.3000 0.0005
v  5.1500 1.3000 -15.9995
v  5.0000 0.0000 -15.9995
v  -5.0000 0.0000 0.0005
v  -5.0000 0.0000 16.0005
v  -4.5000 -0.0000 16.0005
v  -4.5000 -0.0000 0.0005
v  -4.3750 1.3000 0.0005
v  -4.3750 1.3000 16.0005
v  -5.1500 1.3000 16.0005
v  -5.1500 1.3000 0.0005
v  -5.0000 0.0000 -15.9995
v  -5.1500 1.3000 -15.9995
v  -0.0000 0.0000 -15.9995
v  4.7500 -1.1500 -15.9995
v  -4.7500 -1.1500 16.0005
v  4.5000 -0.0000 -15.9995
v  4.3750 1.3000 -15.9995
v  -4.5000 -0.0000 -15.9995
v  -4.3750 1.3000 -15.9995
v  0.5834 0.7580 -0.0037
v  0.5834 0.7580 15.9974
v  -0.5967 0.7582 16.0016
v  -0.5967 0.7582 0.0005
v  0.5834 0.7580 -32.0058
v  0.5834 0.7580 -16.0047
v  -0.5967 0.7582 -16.0005
v  -0.5967 0.7582 -32.0016
v  5.0000 0.0000 -31.9995
v  -0.0000 0.0000 -31.9995
v  4.1250 -1.1500 -15.9995
v  4.1250 -1.1500 0.0005
v  4.1250 -1.1500 16.0005
v  4.1250 -1.1500 32.0005
v  4.7500 -1.1500 32.0005
v  -3.5000 -2.7000 0.0005
v  -3.5000 -2.7000 16.0005
v  3.5000 -2.7000 16.0005
v  3.5000 -2.7000 0.0005
v  -4.1250 -1.1500 16.0005
v  -4.1250 -1.1500 0.0005
v  -4.7500 -1.1500 -31.9995
v  -4.1250 -1.1500 -15.9995
v  -4.1250 -1.1500 -31.9995
v  -3.5000 -2.7000 -31.9995
v  -3.5000 -2.7000 -15.9995
v  3.5000 -2.7000 -15.9995
v  3.5000 -2.7000 -31.9995
v  3.5000 -2.7000 32.0005
v  4.1250 -1.1500 -31.9995
v  -4.1250 -1.1500 32.0005
v  -3.5000 -2.7000 32.0005
v  -0.0000 0.0000 32.0005
v  -5.0000 -0.0000 32.0005
v  5.0000 0.0000 32.0005
v  -5.0000 -0.0000 -31.9995
v  4.5000 -0.0000 32.0005
v  5.1500 1.3000 32.0005
v  4.3750 1.3000 32.0005
v  5.1500 1.3000 -31.9995
v  -5.0000 0.0000 32.0005
v  -4.5000 -0.0000 32.0005
v  -4.3750 1.3000 32.0005
v  -5.1500 1.3000 32.0005
v  -5.0000 0.0000 -31.9995
v  -5.1500 1.3000 -31.9995
v  4.7500 -1.1500 -31.9995
v  -4.7500 -1.1500 32.0005
v  4.5000 -0.0000 -31.9995
v  4.3750 1.3000 -31.9995
v  -4.5000 -0.0000 -31.9995
v  -4.3750 1.3000 -31.9995
v  0.5834 0.7580 31.9984
v  -0.5967 0.7582 32.0026
# 90 vertices

vn -0.0000 1.0000 -0.0000
vn 0.9772 -0.2124 -0.0000
vn -0.9772 -0.2124 -0.0000
vn 0.0000 -1.0000 -0.0000
vn 0.0000 1.0000 -0.0000
vn -0.9954 -0.0957 -0.0000
vn 0.9934 -0.1146 -0.0000
vn -0.0000 -1.0000 -0.0000
vn 0.9954 -0.0957 -0.0000
vn -0.9934 -0.1146 -0.0000
vn 0.0002 1.0000 -0.0000
vn 0.9274 -0.3740 -0.0000
vn 0.0000 0.0000 -1.0000
vn -0.9274 -0.3740 0.0000
vn -0.9274 -0.3740 -0.0000
vn 0.0000 -0.0000 1.0000
vn -0.0000 -0.0000 1.0000
# 17 vertex normals

vt 0.0700 0.5000 0.0000
vt 0.0700 0.2500 0.0000
vt 0.0000 0.2500 0.0000
vt 0.0000 0.5000 0.0000
vt 0.3158 0.5000 0.0000
vt 0.3158 0.2500 0.0000
vt 0.2123 0.2500 0.0000
vt 0.2123 0.5000 0.0000
vt 1.0000 0.2500 0.0000
vt 1.0000 0.5000 0.0000
vt 0.7728 0.5000 0.0000
vt 0.7728 0.2500 0.0000
vt 0.8187 0.2500 0.0000
vt 0.8187 0.5000 0.0000
vt 0.7562 0.5000 0.0000
vt 0.7562 0.7500 0.0000
vt 0.7000 0.7500 0.0000
vt 0.7000 0.5000 0.0000
vt 0.0000 0.7500 0.0000
vt 0.0700 0.7500 0.0000
vt 0.2123 0.7500 0.0000
vt 0.3158 0.7500 0.0000
vt 1.0000 0.7500 0.0000
vt 0.8187 0.7500 0.0000
vt 0.7728 0.7500 0.0000
vt 0.7000 0.2500 0.0000
vt 0.7562 0.2500 0.0000
vt 0.2101 0.5000 0.0000
vt 0.2101 0.2500 0.0000
vt 0.1732 0.2500 0.0000
vt 0.1732 0.5000 0.0000
vt 0.2101 1.0000 0.0000
vt 0.2101 0.7500 0.0000
vt 0.1732 0.7500 0.0000
vt 0.1732 1.0000 0.0000
vt 0.1400 0.5000 0.0000
vt 0.1400 0.2500 0.0000
vt 0.1400 1.0000 0.0000
vt 0.1400 0.7500 0.0000
vt 0.0700 1.0000 0.0000
vt 0.1366 0.7499 0.0000
vt 0.1200 0.7499 0.0000
vt 0.1200 0.5000 0.0000
vt 0.1366 0.5000 0.0000
vt 0.1366 0.2500 0.0000
vt 0.1200 0.2500 0.0000
vt 0.1200 0.0000 0.0000
vt 0.1366 0.0000 0.0000
vt 0.0268 0.5000 0.0000
vt 0.0268 0.2500 0.0000
vt 0.0102 0.5000 0.0000
vt 0.0102 0.2500 0.0000
vt 0.0102 0.9999 0.0000
vt 0.0102 0.7499 0.0000
vt 0.0268 0.7499 0.0000
vt 0.0268 0.9999 0.0000
vt 0.1200 0.9999 0.0000
vt 0.7645 0.2500 0.0000
vt 0.7038 0.2500 0.0000
vt 0.7038 0.0000 0.0000
vt 0.7645 0.0000 0.0000
vt 0.7645 0.7499 0.0000
vt 0.7038 0.7499 0.0000
vt 0.7038 0.4999 0.0000
vt 0.7645 0.4999 0.0000
vt 0.7645 0.9999 0.0000
vt 0.7038 0.9999 0.0000
vt 0.0268 0.0000 0.0000
vt 0.0700 0.0000 0.0000
vt 0.0000 0.0000 0.0000
vt 0.3158 -0.0000 0.0000
vt 0.2123 0.0000 0.0000
vt 1.0000 0.0000 0.0000
vt 0.7728 0.0000 0.0000
vt 0.8187 0.0000 0.0000
vt 0.7562 1.0000 0.0000
vt 0.7000 1.0000 0.0000
vt 0.0000 1.0000 0.0000
vt 0.2123 1.0000 0.0000
vt 0.3158 1.0000 0.0000
vt 1.0000 1.0000 0.0000
vt 0.8187 1.0000 0.0000
vt 0.7728 1.0000 0.0000
vt 0.7000 0.0000 0.0000
vt 0.7562 0.0000 0.0000
vt 0.2101 0.0000 0.0000
vt 0.1732 0.0000 0.0000
vt 0.1400 0.0000 0.0000
vt 0.1366 0.9999 0.0000
vt 0.0102 0.0000 0.0000
vt 0.7038 -0.0000 0.0000
# 91 texture coords

g Box005
s 4
f 3/3/1 2/2/1 1/1/1 
f 1/1/1 4/4/1 3/3/1 
s 16
f 7/7/2 6/6/2 5/5/2 
f 5/5/2 8/8/2 7/7/2 
s 64
f 11/7/3 10/6/3 9/5/3 
f 9/5/3 4/8/3 11/7/3 
s 2
f 7/9/4 13/3/4 12/4/4 
f 12/4/4 8/10/4 7/9/4 
s 4
f 16/13/5 15/12/5 14/11/5 
f 14/11/5 17/14/5 16/13/5 
s 16
f 13/17/6 16/16/6 17/15/6 
f 17/15/6 12/18/6 13/17/6 
s 64
f 19/6/7 18/7/7 14/8/7 
f 14/8/7 8/5/7 19/6/7 
s 2
f 22/3/8 21/9/8 20/10/8 
f 20/10/8 23/4/8 22/3/8 
s 4
f 26/12/5 25/13/5 24/14/5 
f 24/14/5 27/11/5 26/12/5 
s 16
f 25/16/9 22/17/9 23/18/9 
f 23/18/9 24/15/9 25/16/9 
s 64
f 29/7/10 28/6/10 20/5/10 
f 20/5/10 27/8/10 29/7/10 
s 4
f 1/1/1 30/20/1 11/19/1 
f 11/19/1 4/4/1 1/1/1 
s 16
f 5/5/2 31/22/2 19/21/2 
f 19/21/2 8/8/2 5/5/2 
s 64
f 9/5/3 32/22/3 3/21/3 
f 3/21/3 4/8/3 9/5/3 
s 2
f 12/4/4 33/19/4 19/23/4 
f 19/23/4 8/10/4 12/4/4 
s 4
f 14/11/5 18/25/5 34/24/5 
f 34/24/5 17/14/5 14/11/5 
s 16
f 17/15/6 34/27/6 33/26/6 
f 33/26/6 12/18/6 17/15/6 
s 64
f 14/8/7 15/21/7 7/22/7 
f 7/22/7 8/5/7 14/8/7 
s 2
f 20/10/8 28/23/8 35/19/8 
f 35/19/8 23/4/8 20/10/8 
s 4
f 24/14/5 36/24/5 29/25/5 
f 29/25/5 27/11/5 24/14/5 
s 16
f 23/18/9 35/26/9 36/27/9 
f 36/27/9 24/15/9 23/18/9 
s 64
f 20/5/10 21/22/10 26/21/10 
f 26/21/10 27/8/10 20/5/10 
s 1
f 39/30/11 38/29/11 37/28/11 
f 37/28/11 40/31/11 39/30/11 
f 43/34/11 42/33/11 41/32/11 
f 41/32/11 44/35/11 43/34/11 
s 4
f 2/2/1 7/37/1 8/36/1 
f 8/36/1 1/1/1 2/2/1 
f 30/20/1 19/39/1 45/38/1 
f 45/38/1 46/40/1 30/20/1 
s 1
f 48/43/4 47/42/4 31/41/4 
f 31/41/4 5/44/4 48/43/4 
f 50/47/4 49/46/4 6/45/4 
f 6/45/4 51/48/4 50/47/4 
f 54/46/4 53/50/4 52/49/4 
f 52/49/4 55/43/4 54/46/4 
f 56/50/4 32/52/4 9/51/4 
f 9/51/4 57/49/4 56/50/4 
f 59/55/4 10/54/4 58/53/4 
f 58/53/4 60/56/4 59/55/4 
f 63/42/4 62/55/4 61/56/4 
f 61/56/4 64/57/4 63/42/4 
s off
f 65/60/12 54/59/12 49/58/12 
f 49/58/12 50/61/12 65/60/12 
f 55/64/12 63/63/12 47/62/12 
f 47/62/12 48/65/12 55/64/12 
f 61/56/13 60/56/13 66/57/13 
f 66/57/13 64/57/13 61/56/13 
f 61/66/14 62/62/14 59/63/14 
f 59/63/15 60/67/15 61/66/15 
f 52/65/15 53/58/15 56/59/15 
f 56/59/15 57/64/15 52/65/15 
f 65/47/16 50/47/16 67/68/16 
f 67/68/17 68/68/17 65/47/17 
s 4
f 3/3/1 70/70/1 69/69/1 
f 69/69/1 2/2/1 3/3/1 
s 16
f 7/7/2 71/72/2 51/71/2 
f 51/71/2 6/6/2 7/7/2 
s 64
f 11/7/3 72/72/3 58/71/3 
f 58/71/3 10/6/3 11/7/3 
s 2
f 7/9/4 71/73/4 73/70/4 
f 73/70/4 13/3/4 7/9/4 
s 4
f 16/13/5 75/75/5 74/74/5 
f 74/74/5 15/12/5 16/13/5 
s 16
f 13/17/6 73/77/6 75/76/6 
f 75/76/6 16/16/6 13/17/6 
s 64
f 19/6/7 45/71/7 76/72/7 
f 76/72/7 18/7/7 19/6/7 
s 2
f 22/3/8 78/70/8 77/73/8 
f 77/73/8 21/9/8 22/3/8 
s 4
f 26/12/5 80/74/5 79/75/5 
f 79/75/5 25/13/5 26/12/5 
s 16
f 25/16/9 79/76/9 78/77/9 
f 78/77/9 22/17/9 25/16/9 
s 64
f 29/7/10 82/72/10 81/71/10 
f 81/71/10 28/6/10 29/7/10 
s 4
f 30/20/1 46/40/1 72/78/1 
f 72/78/1 11/19/1 30/20/1 
s 16
f 31/22/2 83/80/2 45/79/2 
f 45/79/2 19/21/2 31/22/2 
s 64
f 32/22/3 84/80/3 70/79/3 
f 70/79/3 3/21/3 32/22/3 
s 2
f 33/19/4 85/78/4 45/81/4 
f 45/81/4 19/23/4 33/19/4 
s 4
f 18/25/5 76/83/5 86/82/5 
f 86/82/5 34/24/5 18/25/5 
s 16
f 34/27/6 86/85/6 85/84/6 
f 85/84/6 33/26/6 34/27/6 
s 64
f 15/21/7 74/79/7 71/80/7 
f 71/80/7 7/22/7 15/21/7 
s 2
f 28/23/8 81/81/8 87/78/8 
f 87/78/8 35/19/8 28/23/8 
s 4
f 36/24/5 88/82/5 82/83/5 
f 82/83/5 29/25/5 36/24/5 
s 16
f 35/26/9 87/84/9 88/85/9 
f 88/85/9 36/27/9 35/26/9 
s 64
f 21/22/10 77/80/10 80/79/10 
f 80/79/10 26/21/10 21/22/10 
s 1
f 39/30/11 90/87/11 89/86/11 
f 89/86/11 38/29/11 39/30/11 
f 43/34/11 40/31/11 37/28/11 
f 37/28/11 42/33/11 43/34/11 
s 4
f 2/2/1 69/69/1 71/88/1 
f 71/88/1 7/37/1 2/2/1 
f 30/20/1 1/1/1 8/36/1 
f 8/36/1 19/39/1 30/20/1 
s 1
f 47/42/4 66/57/4 83/89/4 
f 83/89/4 31/41/4 47/42/4 
f 49/46/4 48/43/4 5/44/4 
f 5/44/4 6/45/4 49/46/4 
f 54/46/4 65/47/4 68/68/4 
f 68/68/4 53/50/4 54/46/4 
f 56/50/4 67/68/4 84/90/4 
f 84/90/4 32/52/4 56/50/4 
f 59/55/4 57/49/4 9/51/4 
f 9/51/4 10/54/4 59/55/4 
f 63/42/4 55/43/4 52/49/4 
f 52/49/4 62/55/4 63/42/4 
s off
f 54/59/12 55/64/12 48/65/12 
f 48/65/12 49/58/12 54/59/12 
f 63/63/12 64/67/12 66/66/12 
f 66/66/12 47/62/12 63/63/12 
f 62/62/15 52/65/15 57/64/15 
f 57/64/14 59/63/14 62/62/14 
f 53/58/15 68/61/15 67/91/15 
f 67/91/15 56/59/15 53/58/15 
# 148 faces

