# 3ds Max Wavefront OBJ Exporter v0.97b - (c)2007 guruware
# File Created: 12.12.2016 21:31:49

#
# object Box003
#

v  -3.2924 -2.2000 32.0010
v  0.0000 -2.2000 32.0010
v  3.2924 -2.2000 32.0010
v  3.2924 0.0500 32.0010
v  -3.2924 0.0000 0.0042
v  -3.2924 -2.2500 0.0042
v  -3.2924 0.0500 32.0010
v  -3.5000 0.0500 31.9979
v  -3.5000 0.0000 0.0011
v  -5.0001 0.0000 0.0011
v  -5.0001 0.0500 31.9979
v  0.0000 -2.2500 -31.9990
v  0.0000 -2.2500 0.0042
v  -3.2924 -2.2500 -31.9990
v  3.2924 0.0000 0.0042
v  3.2924 -2.2500 0.0042
v  3.2924 -2.2500 -31.9990
v  3.2924 0.0000 -31.9990
v  -3.2924 0.0000 -31.9990
v  5.0001 0.0500 31.9979
v  3.5000 0.0500 31.9979
v  3.5000 0.0000 -32.0021
v  3.5000 0.0000 0.0011
v  5.0001 0.0000 0.0011
v  5.0001 0.0000 -32.0021
v  0.0000 0.0000 0.0011
v  0.0000 0.0500 31.9979
v  -3.5000 0.0000 -32.0021
v  0.0000 0.0000 -32.0021
v  -5.0001 0.0000 -32.0021
# 30 vertices

vn 0.0000 -1.0000 -0.0000
vn 1.0000 0.0000 -0.0000
vn -1.0000 0.0000 -0.0000
vn 0.0000 1.0000 -0.0000
# 4 vertex normals

vt 0.7331 1.0000 0.0000
vt 0.8205 1.0000 0.0000
vt 0.8205 0.5000 0.0000
vt 0.9079 -0.0000 0.0000
vt 0.8205 -0.0000 0.0000
vt 0.9535 -0.0001 0.0000
vt 0.7331 -0.0001 0.0000
vt 0.9535 1.0000 0.0000
vt 0.7331 -0.0000 0.0000
vt 0.9535 -0.0000 0.0000
vt -0.0511 0.0000 0.0000
vt -0.0511 1.0000 0.0000
vt -0.1567 1.0000 0.0000
vt -0.1567 0.0000 0.0000
vt 0.8205 -0.0001 0.0000
vt 0.9535 0.0000 0.0000
vt 0.7331 0.0000 0.0000
vt -0.0511 0.1500 0.0000
vt 0.5472 1.0000 0.0000
vt 0.4416 1.0000 0.0000
vt 0.4416 0.8500 0.0000
vt 0.4416 0.0000 0.0000
vt 0.5472 0.0000 0.0000
vt 0.9079 1.0000 0.0000
vt 0.1953 1.0000 0.0000
vt 0.1953 0.0000 0.0000
vt 0.9079 -0.0001 0.0000
vt 0.1953 0.5000 0.0000
# 28 texture coords

g Box003
s 2
f 1/1/1 2/2/1 2/3/1 
f 3/4/1 2/5/1 2/3/1 
s 16
f 3/6/2 4/7/2 4/1/2 
f 4/1/2 3/8/2 3/6/2 
s 64
f 5/9/3 6/10/3 1/8/3 
f 1/8/3 7/1/3 5/9/3 
s 1
f 8/11/4 9/12/4 10/13/4 
f 10/13/4 11/14/4 8/11/4 
s 2
f 12/2/1 13/15/1 6/7/1 
f 6/7/1 14/1/1 12/2/1 
f 13/2/1 2/15/1 1/7/1 
f 1/7/1 6/1/1 13/2/1 
s 16
f 15/1/2 16/8/2 17/16/2 
f 17/16/2 18/17/2 15/1/2 
f 4/1/2 3/8/2 16/10/2 
f 16/10/2 15/9/2 4/1/2 
s 64
f 1/8/1 7/1/1 7/7/3 
f 7/7/3 1/6/1 1/8/1 
f 6/8/3 5/1/3 19/17/3 
f 19/17/3 14/16/3 6/8/3 
s 1
f 11/14/4 8/11/4 8/18/4 
f 20/19/4 21/20/4 21/21/4 
f 22/20/4 23/22/4 24/23/4 
f 24/23/4 25/19/4 22/20/4 
s 2
f 3/4/4 2/3/1 2/2/1 
f 2/2/1 3/24/1 3/4/4 
f 2/3/1 2/5/1 1/9/1 
f 1/9/1 1/1/1 2/3/1 
s 1
f 21/22/4 23/20/4 26/25/4 
f 26/25/4 27/26/4 21/22/4 
s 2
f 17/24/1 16/27/1 13/15/1 
f 13/15/1 12/2/1 17/24/1 
f 16/24/1 3/27/1 2/15/1 
f 2/15/1 13/2/1 16/24/1 
s 1
f 21/21/4 27/28/4 27/26/4 
f 27/26/4 21/22/4 21/21/4 
f 8/18/4 27/28/4 27/25/4 
f 27/25/4 8/12/4 8/18/4 
f 28/12/4 9/11/4 26/26/4 
f 26/26/4 29/25/4 28/12/4 
f 21/21/4 21/20/4 27/25/4 
f 27/25/4 27/28/4 21/21/4 
f 29/25/4 26/26/4 23/22/4 
f 23/22/4 22/20/4 29/25/4 
f 20/23/4 24/19/4 23/20/4 
f 23/20/4 21/22/4 20/23/4 
f 20/19/4 21/21/4 21/22/4 
f 21/22/4 20/23/4 20/19/4 
f 27/26/4 26/25/4 9/12/4 
f 9/12/4 8/11/4 27/26/4 
f 27/28/4 8/18/4 8/11/4 
f 8/11/4 27/26/4 27/28/4 
f 11/14/4 8/18/4 8/12/4 
f 8/12/4 11/13/4 11/14/4 
f 30/13/4 10/14/4 9/11/4 
f 9/11/4 28/12/4 30/13/4 
# 56 faces

