# 3ds Max Wavefront OBJ Exporter v0.97b - (c)2007 guruware
# File Created: 27.08.2016 15:38:13

#
# object Box008
#

v  -3.5000 -0.0000 0.0005
v  -3.5000 -0.0000 32.0005
v  -5.0000 -0.0000 32.0005
v  -5.0000 -0.0000 0.0005
v  4.7500 -1.1500 0.0005
v  4.7500 -1.1500 32.0005
v  5.0000 0.0000 32.0005
v  5.0000 0.0000 0.0005
v  -4.7500 -1.1500 0.0005
v  -4.7500 -1.1500 -31.9995
v  -5.0000 -0.0000 -31.9995
v  4.5000 -0.0000 0.0005
v  4.5000 -0.0000 32.0005
v  4.3750 1.3000 0.0005
v  5.1500 1.3000 0.0005
v  5.1500 1.3000 32.0005
v  4.3750 1.3000 32.0005
v  5.1500 1.3000 -31.9995
v  5.0000 0.0000 -31.9995
v  -4.5000 -0.0000 0.0005
v  -5.0000 0.0000 0.0005
v  -5.0000 0.0000 32.0005
v  -4.5000 -0.0000 32.0005
v  -5.1500 1.3000 0.0005
v  -4.3750 1.3000 0.0005
v  -4.3750 1.3000 32.0005
v  -5.1500 1.3000 32.0005
v  -5.0000 0.0000 -31.9995
v  -5.1500 1.3000 -31.9995
v  -3.5000 -0.0000 -31.9995
v  4.7500 -1.1500 -31.9995
v  -4.7500 -1.1500 32.0005
v  4.5000 -0.0000 -31.9995
v  4.3750 1.3000 -31.9995
v  -4.5000 -0.0000 -31.9995
v  -4.3750 1.3000 -31.9995
v  -0.0000 0.7581 -32.0037
v  -0.0000 0.7581 -21.3354
v  -0.5967 0.7582 -21.3354
v  -0.5967 0.7582 -32.0016
v  3.5000 0.0000 0.0005
v  3.5000 0.0000 32.0005
v  -0.0000 0.0000 32.0005
v  -0.0000 0.0000 0.0005
v  3.5000 0.0000 -31.9995
v  -0.0000 0.0000 -31.9995
v  0.5834 0.7580 -32.0058
v  0.5834 0.7580 -21.3354
v  4.1250 -1.1500 -31.9995
v  4.1250 -1.1500 0.0005
v  4.1250 -1.1500 32.0005
v  -0.0000 -2.7000 0.0005
v  -0.0000 -2.7000 32.0005
v  3.5000 -2.7000 32.0005
v  3.5000 -2.7000 0.0005
v  -4.1250 -1.1500 32.0005
v  -4.1250 -1.1500 0.0005
v  -4.1250 -1.1500 -31.9995
v  -0.0000 -2.7000 -31.9995
v  3.5000 -2.7000 -31.9995
v  -3.5000 -2.7000 0.0005
v  -3.5000 -2.7000 32.0005
v  -3.5000 -2.7000 -31.9995
v  0.0000 -1.1500 -31.9995
v  0.0000 -1.1500 32.0005
# 65 vertices

vn -0.0000 1.0000 -0.0000
vn 0.9772 -0.2124 -0.0000
vn -0.9772 -0.2124 -0.0000
vn 0.0000 -1.0000 -0.0000
vn 0.0000 1.0000 -0.0000
vn -0.9954 -0.0957 -0.0000
vn 0.9934 -0.1146 -0.0000
vn -0.0000 -1.0000 -0.0000
vn 0.9954 -0.0957 -0.0000
vn -0.9934 -0.1146 -0.0000
vn 0.0002 1.0000 -0.0000
vn 0.9274 -0.3740 -0.0000
vn 0.0000 0.0000 -1.0000
vn -0.9274 -0.3740 0.0000
vn -0.9274 -0.3740 -0.0000
vn 0.0000 -0.0000 1.0000
vn -0.0000 -0.0000 1.0000
# 17 vertex normals

vt 0.0210 0.5000 0.0000
vt 0.0210 0.0000 0.0000
vt 0.0000 0.0000 0.0000
vt 0.0000 0.5000 0.0000
vt 0.3158 0.5000 0.0000
vt 0.3158 -0.0000 0.0000
vt 0.2123 0.0000 0.0000
vt 0.2123 0.5000 0.0000
vt 1.0000 0.5000 0.0000
vt 1.0000 0.0000 0.0000
vt 0.8187 0.5000 0.0000
vt 0.7728 0.5000 0.0000
vt 0.7728 0.0000 0.0000
vt 0.8187 0.0000 0.0000
vt 0.7562 0.5000 0.0000
vt 0.7562 1.0000 0.0000
vt 0.7000 1.0000 0.0000
vt 0.7000 0.5000 0.0000
vt 0.0000 1.0000 0.0000
vt 0.0210 1.0000 0.0000
vt 0.2123 1.0000 0.0000
vt 0.3158 1.0000 0.0000
vt 1.0000 1.0000 0.0000
vt 0.8187 1.0000 0.0000
vt 0.7728 1.0000 0.0000
vt 0.7000 0.0000 0.0000
vt 0.7562 0.0000 0.0000
vt 0.1919 1.0000 0.0000
vt 0.1919 0.8333 0.0000
vt 0.1732 0.8334 0.0000
vt 0.1732 1.0000 0.0000
vt 0.1190 0.5000 0.0000
vt 0.1190 0.0000 0.0000
vt 0.0700 0.0000 0.0000
vt 0.0700 0.5000 0.0000
vt 0.1190 1.0000 0.0000
vt 0.0700 1.0000 0.0000
vt 0.2101 1.0000 0.0000
vt 0.2101 0.8333 0.0000
vt 0.1400 0.5000 0.0000
vt 0.1400 0.0000 0.0000
vt 0.1400 1.0000 0.0000
vt 0.1366 0.9999 0.0000
vt 0.1200 0.9999 0.0000
vt 0.1200 0.5000 0.0000
vt 0.1366 0.5000 0.0000
vt 0.1200 0.0000 0.0000
vt 0.1366 0.0000 0.0000
vt 0.0734 0.5000 0.0000
vt 0.0734 0.0000 0.0000
vt 0.0102 0.5000 0.0000
vt 0.0102 0.0000 0.0000
vt 0.0268 0.0000 0.0000
vt 0.0268 0.5000 0.0000
vt 0.0102 0.9999 0.0000
vt 0.0268 0.9999 0.0000
vt 0.0734 0.9999 0.0000
vt 0.7645 0.0000 0.0000
vt 0.7645 0.4999 0.0000
vt 0.7038 0.4999 0.0000
vt 0.7038 0.0000 0.0000
vt 0.7645 0.9999 0.0000
vt 0.7038 0.9999 0.0000
vt 0.7038 -0.0000 0.0000
# 64 texture coords

g Box008
s 4
f 3/3/1 2/2/1 1/1/1 
f 1/1/1 4/4/1 3/3/1 
s 16
f 7/7/2 6/6/2 5/5/2 
f 5/5/2 8/8/2 7/7/2 
s 64
f 11/7/3 10/6/3 9/5/3 
f 9/5/3 4/8/3 11/7/3 
s 2
f 13/3/4 12/4/4 8/9/4 
f 8/9/4 7/10/4 13/3/4 
s 4
f 16/13/5 15/12/5 14/11/5 
f 14/11/5 17/14/5 16/13/5 
s 16
f 13/17/6 17/16/6 14/15/6 
f 14/15/6 12/18/6 13/17/6 
s 64
f 19/6/7 18/7/7 15/8/7 
f 15/8/7 8/5/7 19/6/7 
s 2
f 22/10/8 21/9/8 20/4/8 
f 20/4/8 23/3/8 22/10/8 
s 4
f 26/14/5 25/11/5 24/12/5 
f 24/12/5 27/13/5 26/14/5 
s 16
f 26/16/9 23/17/9 20/18/9 
f 20/18/9 25/15/9 26/16/9 
s 64
f 29/7/10 28/6/10 21/5/10 
f 21/5/10 24/8/10 29/7/10 
s 4
f 1/1/1 30/20/1 11/19/1 
f 11/19/1 4/4/1 1/1/1 
s 16
f 31/22/2 19/21/2 8/8/2 
f 8/8/2 5/5/2 31/22/2 
s 64
f 32/22/3 3/21/3 4/8/3 
f 4/8/3 9/5/3 32/22/3 
s 2
f 12/4/4 33/19/4 19/23/4 
f 19/23/4 8/9/4 12/4/4 
s 4
f 15/12/5 18/25/5 34/24/5 
f 34/24/5 14/11/5 15/12/5 
s 16
f 34/27/6 33/26/6 12/18/6 
f 12/18/6 14/15/6 34/27/6 
s 64
f 16/21/7 7/22/7 8/5/7 
f 8/5/7 15/8/7 16/21/7 
s 2
f 21/9/8 28/23/8 35/19/8 
f 35/19/8 20/4/8 21/9/8 
s 4
f 25/11/5 36/24/5 29/25/5 
f 29/25/5 24/12/5 25/11/5 
s 16
f 35/26/9 36/27/9 25/15/9 
f 25/15/9 20/18/9 35/26/9 
s 64
f 22/22/10 27/21/10 24/8/10 
f 24/8/10 21/5/10 22/22/10 
s 1
f 39/30/11 38/29/11 37/28/11 
f 37/28/11 40/31/11 39/30/11 
s 4
f 43/34/1 42/33/1 41/32/1 
f 41/32/1 44/35/1 43/34/1 
f 44/35/1 41/32/1 45/36/1 
f 45/36/1 46/37/1 44/35/1 
s 1
f 38/29/11 48/39/11 47/38/11 
f 47/38/11 37/28/11 38/29/11 
s 4
f 42/33/1 7/41/1 8/40/1 
f 8/40/1 41/32/1 42/33/1 
f 41/32/1 8/40/1 19/42/1 
f 19/42/1 45/36/1 41/32/1 
f 2/2/1 43/34/1 44/35/1 
f 44/35/1 1/1/1 2/2/1 
f 1/1/1 44/35/1 46/37/1 
f 46/37/1 30/20/1 1/1/1 
s 1
f 50/45/4 49/44/4 31/43/4 
f 31/43/4 5/46/4 50/45/4 
f 51/47/4 50/45/4 5/46/4 
f 5/46/4 6/48/4 51/47/4 
f 54/47/4 53/50/4 52/49/4 
f 52/49/4 55/45/4 54/47/4 
f 56/53/4 32/52/4 9/51/4 
f 9/51/4 57/54/4 56/53/4 
f 57/54/4 9/51/4 10/55/4 
f 10/55/4 58/56/4 57/54/4 
f 55/45/4 52/49/4 59/57/4 
f 59/57/4 60/44/4 55/45/4 
f 53/50/4 62/53/4 61/54/4 
f 61/54/4 52/49/4 53/50/4 
f 52/49/4 61/54/4 63/56/4 
f 63/56/4 59/57/4 52/49/4 
s off
f 55/60/12 50/59/12 51/58/12 
f 51/58/12 54/61/12 55/60/12 
f 60/63/12 49/62/12 50/59/12 
f 50/59/12 55/60/12 60/63/12 
f 59/57/13 64/57/13 49/44/13 
f 49/44/13 60/44/13 59/57/13 
f 63/56/13 58/56/13 64/57/13 
f 64/57/13 59/57/13 63/56/13 
f 61/59/14 57/60/14 58/63/14 
f 58/63/14 63/62/14 61/59/14 
f 62/58/15 56/64/15 57/60/15 
f 57/60/15 61/59/15 62/58/15 
f 53/50/16 65/50/16 56/53/16 
f 56/53/16 62/53/16 53/50/16 
f 54/47/16 51/47/16 65/50/16 
f 65/50/17 53/50/17 54/47/17 
# 92 faces

