# 3ds Max Wavefront OBJ Exporter v0.97b - (c)2007 guruware
# File Created: 09.12.2016 07:29:29

#
# object Box015
#

v  -3.2924 -2.2500 32.0042
v  -3.2924 -2.2500 16.0042
v  3.2924 -2.2500 16.0042
v  3.2924 -2.2500 32.0042
v  -3.2924 -2.2500 0.0042
v  3.2924 -2.2500 0.0042
v  -3.2924 -2.2500 -15.9958
v  3.2924 -2.2500 -15.9958
v  -3.2924 -2.2500 -31.9958
v  3.2924 -2.2500 -31.9958
v  3.2924 0.0000 16.0042
v  3.2924 0.0000 32.0042
v  3.2924 0.0000 0.0042
v  3.2924 0.0000 -15.9958
v  3.2924 0.0000 -31.9958
v  -3.2924 0.0000 -15.9958
v  -3.2924 0.0000 -31.9958
v  -3.2924 0.0000 0.0042
v  -3.2924 0.0000 16.0042
v  -3.2924 0.0000 32.0042
v  -5.0001 0.0000 32.0011
v  5.0001 0.0000 32.0011
v  5.0001 0.0000 16.0011
v  -5.0001 0.0000 16.0011
v  5.0001 0.0000 0.0011
v  -5.0001 0.0000 0.0011
v  5.0001 0.0000 -15.9989
v  -5.0001 0.0000 -15.9989
v  5.0001 0.0000 -31.9989
v  -5.0001 0.0000 -31.9989
# 30 vertices

vn 0.0000 -1.0000 -0.0000
vn 1.0000 0.0000 -0.0000
vn -1.0000 0.0000 -0.0000
vn 0.0000 1.0000 -0.0000
# 4 vertex normals

vt 0.7331 0.0000 0.0000
vt 0.7331 1.0000 0.0000
vt 0.9079 1.0000 0.0000
vt 0.9079 0.0000 0.0000
vt 0.9535 1.0000 0.0000
vt 0.9535 -0.0000 0.0000
vt 0.0000 0.0000 0.0000
vt 0.5472 0.0000 0.0000
vt 0.5472 1.0000 0.0000
vt 0.0000 1.0000 0.0000
# 10 texture coords

g Box015
s 2
f 1/1/1 2/2/1 3/3/1 
f 3/3/1 4/4/1 1/1/1 
f 2/1/1 5/2/1 6/3/1 
f 6/3/1 3/4/1 2/1/1 
f 5/1/1 7/2/1 8/3/1 
f 8/3/1 6/4/1 5/1/1 
f 7/1/1 9/2/1 10/3/1 
f 10/3/1 8/4/1 7/1/1 
s 16
f 4/5/2 3/6/2 11/1/2 
f 11/1/2 12/2/2 4/5/2 
f 3/5/2 6/6/2 13/1/2 
f 13/1/2 11/2/2 3/5/2 
f 6/5/2 8/6/2 14/1/2 
f 14/1/2 13/2/2 6/5/2 
f 8/5/2 10/6/2 15/1/2 
f 15/1/2 14/2/2 8/5/2 
s 64
f 9/6/3 7/5/3 16/2/3 
f 16/2/3 17/1/3 9/6/3 
f 7/6/3 5/5/3 18/2/3 
f 18/2/3 16/1/3 7/6/3 
f 5/6/3 2/5/3 19/2/3 
f 19/2/3 18/1/3 5/6/3 
f 2/6/3 1/5/3 20/2/3 
f 20/2/3 19/1/3 2/6/3 
s 1
f 21/7/4 22/8/4 23/9/4 
f 23/9/4 24/10/4 21/7/4 
f 24/7/4 23/8/4 25/9/4 
f 25/9/4 26/10/4 24/7/4 
f 26/7/4 25/8/4 27/9/4 
f 27/9/4 28/10/4 26/7/4 
f 28/7/4 27/8/4 29/9/4 
f 29/9/4 30/10/4 28/7/4 
# 32 faces

