# 3ds Max Wavefront OBJ Exporter v0.97b - (c)2007 guruware
# File Created: 26.10.2016 00:15:07

#
# object Cone001
#

v  2.8000 28.0317 -0.0000
v  1.3670 26.9601 -0.9932
v  2.2652 28.0317 -1.1756
v  1.6897 26.9601 0.0000
v  0.8652 28.0317 -1.7150
v  0.5221 26.9601 -1.6070
v  -0.8652 28.0317 -1.7150
v  -0.5221 26.9601 -1.6070
v  -1.3670 26.9601 -0.9932
v  -2.2652 28.0317 -1.1756
v  -2.8000 28.0317 0.0000
v  -1.6897 26.9601 0.0000
v  -1.3670 26.9601 0.9932
v  -2.2652 28.0317 1.1756
v  -0.8655 28.0354 1.7149
v  -0.5221 26.9601 1.6070
v  0.8650 28.0354 1.7149
v  0.5221 26.9601 1.6070
v  1.3670 26.9601 0.9932
v  2.2652 28.0317 1.1756
v  1.7500 16.7120 -0.0000
v  1.4158 0.0000 -1.0286
v  1.4158 16.7120 -1.0286
v  1.7500 0.0000 -0.0000
v  0.5408 0.0000 -1.6643
v  0.5408 16.7120 -1.6643
v  -0.5408 0.0000 -1.6643
v  -0.5408 16.7120 -1.6643
v  -1.4158 0.0000 -1.0286
v  -1.4158 16.7120 -1.0286
v  -1.7500 0.0000 0.0000
v  -1.7500 16.7120 0.0000
v  -1.4158 0.0000 1.0286
v  -1.4158 16.7120 1.0286
v  -0.5408 0.0000 1.6643
v  -0.5408 16.7120 1.6643
v  0.5408 0.0000 1.6643
v  0.5408 16.7120 1.6643
v  1.4158 0.0000 1.0286
v  1.4158 16.7120 1.0286
v  1.2135 26.9218 0.8817
v  1.2135 16.6176 0.8817
v  1.5000 26.9218 -0.0000
v  1.5000 16.6176 -0.0000
v  0.4635 16.6176 1.4266
v  0.4635 26.9218 1.4266
v  -0.4635 26.9218 1.4266
v  -0.4635 16.6176 1.4266
v  -1.2135 26.9218 0.8817
v  -1.2135 16.6176 0.8817
v  -1.5000 26.9218 -0.0000
v  -1.5000 16.6176 -0.0000
v  -1.2135 26.9218 -0.8817
v  -1.2135 16.6176 -0.8817
v  -0.4635 26.9218 -1.4266
v  -0.4635 16.6176 -1.4266
v  0.4635 16.6176 -1.4266
v  0.4635 26.9218 -1.4266
v  1.2135 26.9218 -0.8817
v  1.2135 16.6176 -0.8817
v  1.6897 26.9601 -0.0000
v  1.3308 26.7046 -0.9669
v  1.6450 26.7046 -0.0000
v  0.5083 26.7046 -1.5645
v  -0.5083 26.7046 -1.5645
v  -1.3308 26.7046 -0.9669
v  -1.6450 26.7046 0.0000
v  -1.3308 26.7046 0.9669
v  -0.5083 26.7046 1.5645
v  0.5083 26.7046 1.5645
v  1.3308 26.7046 0.9669
v  2.9216 28.0317 1.7152
v  -2.9219 28.0317 -1.7150
v  2.9219 28.0317 -1.7150
v  -2.9221 28.0391 1.7145
v  -2.9756 28.2233 2.0000
v  2.9756 28.2233 2.0000
v  3.1882 28.2233 1.7500
v  3.1882 28.2233 -1.7500
v  2.9756 28.2233 -2.0000
v  -2.9756 28.2233 -2.0000
v  -3.1882 28.2233 1.7500
v  -3.1882 28.2233 -1.7500
v  -3.6345 29.7277 2.1750
v  -3.4432 29.7277 2.4000
v  3.6345 29.7277 2.1750
v  3.4432 29.7277 2.4000
v  3.6345 29.7277 -2.1750
v  3.4432 29.7277 -2.4000
v  -3.6345 29.7277 -2.1750
v  -3.4432 29.7277 -2.4000
v  1.4158 -1.0000 -1.0286
v  1.7500 -1.0000 -0.0000
v  0.5408 -1.0000 -1.6643
v  -0.5408 -1.0000 -1.6643
v  -1.4158 -1.0000 -1.0286
v  -1.7500 -1.0000 0.0000
v  -1.4158 -1.0000 1.0286
v  -0.5408 -1.0000 1.6643
v  0.5408 -1.0000 1.6643
v  1.4158 -1.0000 1.0286
# 101 vertices

vn 0.7175 -0.6966 -0.0000
vn 0.5729 -0.5229 -0.6312
vn 0.6295 -0.5901 -0.5055
vn 0.2608 -0.2623 -0.9291
vn 0.1870 -0.2175 -0.9580
vn -0.2608 -0.2623 -0.9291
vn -0.1870 -0.2175 -0.9580
vn -0.5729 -0.5229 -0.6312
vn -0.6295 -0.5901 -0.5055
vn -0.7175 -0.6966 0.0000
vn -0.5728 -0.5225 0.6316
vn -0.6294 -0.5897 0.5061
vn -0.2603 -0.2615 0.9294
vn -0.1869 -0.2169 0.9581
vn 0.2602 -0.2614 0.9295
vn 0.1869 -0.2169 0.9581
vn 0.5728 -0.5225 0.6316
vn 0.6294 -0.5897 0.5061
vn 0.0000 -1.0000 -0.0000
vn 1.0000 0.0000 -0.0000
vn 0.8090 0.0000 -0.5878
vn 0.3090 0.0000 -0.9511
vn -0.3090 0.0000 -0.9511
vn -0.8090 0.0000 -0.5878
vn -1.0000 0.0000 0.0000
vn -0.8090 0.0000 0.5878
vn -0.3090 0.0000 0.9511
vn 0.3090 0.0000 0.9511
vn 0.8090 0.0000 0.5878
vn 0.0000 1.0000 -0.0000
vn 1.0000 0.0000 0.0000
vn -1.0000 0.0000 -0.0000
vn 0.9851 -0.1722 -0.0000
vn 0.5722 -0.7070 -0.4157
vn 0.7969 -0.1722 -0.5790
vn 0.7073 -0.7070 -0.0000
vn 0.3044 -0.1722 -0.9368
vn 0.2186 -0.7070 -0.6726
vn -0.3044 -0.1722 -0.9368
vn -0.2186 -0.7070 -0.6726
vn -0.5722 -0.7070 -0.4157
vn -0.7969 -0.1722 -0.5790
vn -0.9851 -0.1722 0.0000
vn -0.7073 -0.7070 0.0000
vn -0.5722 -0.7070 0.4157
vn -0.7969 -0.1722 0.5790
vn -0.3044 -0.1722 0.9368
vn -0.2186 -0.7070 0.6726
vn 0.3044 -0.1722 0.9368
vn 0.2186 -0.7070 0.6726
vn 0.5722 -0.7070 0.4157
vn 0.7969 -0.1722 0.5790
vn 0.2045 -0.9631 0.1749
vn -0.2054 -0.9631 -0.1736
vn 0.2047 -0.9633 -0.1737
vn -0.2015 -0.9643 0.1716
vn -0.0006 -0.8350 0.5503
vn 0.5839 -0.8118 0.0000
vn -0.0000 -0.8298 -0.5580
vn -0.5767 -0.8169 0.0009
vn -0.4817 -0.7748 0.4095
vn 0.4931 -0.7623 0.4193
vn 0.4933 -0.7620 -0.4194
vn -0.4933 -0.7620 -0.4194
vn -0.6190 -0.5830 0.5263
vn 0.6190 -0.5830 0.5263
vn 0.6190 -0.5830 -0.5263
vn -0.6190 -0.5830 -0.5263
vn 0.8706 -0.4920 -0.0000
vn -0.0000 -0.4052 -0.9142
vn -0.8706 -0.4920 0.0000
vn 0.0000 -0.4052 0.9142
vn 0.9511 0.0000 -0.3090
vn 0.5878 0.0000 -0.8090
vn -0.0000 0.0000 -1.0000
vn -0.5878 0.0000 -0.8090
vn -0.9511 0.0000 -0.3090
vn -0.9511 0.0000 0.3090
vn -0.5878 0.0000 0.8090
vn 0.0000 0.0000 1.0000
vn 0.5878 0.0000 0.8090
vn 0.9511 0.0000 0.3090
# 82 vertex normals

vt 0.1461 0.4143 0.0000
vt 0.0001 0.2577 0.0000
vt 0.1437 0.2577 0.0000
vt 0.0025 0.3825 0.0000
vt 0.1437 0.4117 0.0000
vt 0.0001 0.3800 0.0000
vt 0.1442 0.7340 0.0000
vt 0.1442 0.8947 0.0000
vt 0.0006 0.8630 0.0000
vt 0.0006 0.7340 0.0000
vt 0.1442 0.6585 0.0000
vt 0.0006 0.4977 0.0000
vt 0.1442 0.4977 0.0000
vt 0.0006 0.6361 0.0000
vt 0.1461 0.4149 0.0000
vt 0.0025 0.3831 0.0000
vt 0.1442 0.8986 0.0000
vt 0.0006 0.8668 0.0000
vt 0.1461 0.2577 0.0000
vt 0.0025 0.2577 0.0000
vt 0.1442 0.6583 0.0000
vt 0.0006 0.6360 0.0000
vt 0.6681 2.5000 0.0000
vt 1.0604 2.7850 0.0000
vt 0.9106 2.5788 0.0000
vt 0.2758 3.0400 0.0000
vt 1.0604 3.0400 0.0000
vt 0.2758 2.7850 0.0000
vt 0.6681 3.3250 0.0000
vt 0.9106 3.2462 0.0000
vt 0.4256 2.5788 0.0000
vt 0.4256 3.2462 0.0000
vt 0.1323 0.0000 0.0000
vt 0.0000 0.9402 0.0000
vt 0.0000 -0.0000 0.0000
vt 0.1323 0.9402 0.0000
vt -0.0000 0.0000 0.0000
vt 0.1328 0.9402 0.0000
vt 0.1328 0.0000 0.0000
vt -0.0000 0.9402 0.0000
vt 0.1320 -0.0000 0.0000
vt 0.1320 0.9402 0.0000
vt 0.0000 0.0000 0.0000
vt 0.1320 0.0000 0.0000
vt 0.1325 0.0000 0.0000
vt 0.1325 0.9402 0.0000
vt 0.1322 0.9402 0.0000
vt 0.1322 0.0000 0.0000
vt 0.5732 0.5641 0.0000
vt 0.6097 0.5965 0.0000
vt 0.5368 0.5965 0.0000
vt 0.6097 0.6254 0.0000
vt 0.5507 0.6488 0.0000
vt 0.5732 0.6578 0.0000
vt 0.5368 0.6254 0.0000
vt 0.5507 0.5731 0.0000
vt 0.5958 0.5731 0.0000
vt 0.5958 0.6488 0.0000
vt 0.3475 1.0000 0.0000
vt 0.3475 -0.0000 0.0000
vt 0.4346 1.0000 0.0000
vt 0.4346 -0.0000 0.0000
vt 0.4386 -0.0000 0.0000
vt 0.5212 1.0000 0.0000
vt 0.4386 1.0000 0.0000
vt 0.5212 -0.0000 0.0000
vt 0.3903 1.0000 0.0000
vt 0.3903 0.0000 0.0000
vt 0.4704 1.0000 0.0000
vt 0.4704 0.0000 0.0000
vt 0.5245 1.0000 0.0000
vt 0.5245 0.0000 0.0000
vt 0.4419 1.0000 0.0000
vt 0.4419 0.0000 0.0000
vt 0.4352 1.0000 0.0000
vt 0.4352 -0.0000 0.0000
vt 0.3481 1.0000 0.0000
vt 0.3481 -0.0000 0.0000
vt 0.5292 1.0000 0.0000
vt 0.5292 -0.0000 0.0000
vt 0.4421 1.0000 0.0000
vt 0.4421 -0.0000 0.0000
vt 0.4400 1.0000 0.0000
vt 0.4400 0.0000 0.0000
vt 0.5226 1.0000 0.0000
vt 0.5226 0.0000 0.0000
vt 0.3565 0.0000 0.0000
vt 0.3565 1.0000 0.0000
vt 0.5225 1.0000 0.0000
vt 0.5225 -0.0000 0.0000
vt 0.4399 1.0000 0.0000
vt 0.4399 -0.0000 0.0000
vt 0.4342 1.0000 0.0000
vt 0.4342 -0.0000 0.0000
vt 0.3471 1.0000 0.0000
vt 0.3471 -0.0000 0.0000
vt 0.5709 0.8336 0.0000
vt 0.6131 0.9985 0.0000
vt 0.5709 0.9985 0.0000
vt 0.6131 0.8336 0.0000
vt 0.5709 0.3343 0.0000
vt 0.5709 0.1675 0.0000
vt 0.6131 0.1675 0.0000
vt 0.6131 0.3343 0.0000
vt 0.6131 0.5007 0.0000
vt 0.5709 0.5007 0.0000
vt 0.6131 0.6667 0.0000
vt 0.5709 0.6667 0.0000
vt 0.5808 0.3768 0.0000
vt 0.6207 0.4619 0.0000
vt 0.6054 0.4003 0.0000
vt 0.5410 0.5381 0.0000
vt 0.5410 0.4619 0.0000
vt 0.5808 0.6232 0.0000
vt 0.6054 0.5997 0.0000
vt 0.6207 0.5381 0.0000
vt 0.5562 0.4003 0.0000
vt 0.5562 0.5997 0.0000
vt 0.6681 2.4125 0.0000
vt 1.1436 2.7580 0.0000
vt 0.1926 2.7580 0.0000
vt 1.1436 3.0670 0.0000
vt 0.9620 3.3170 0.0000
vt 0.3742 3.3170 0.0000
vt 0.6681 3.4125 0.0000
vt 0.1926 3.0670 0.0000
vt 0.3742 2.5080 0.0000
vt 0.9620 2.5080 0.0000
vt 0.9808 0.5908 0.0000
vt 0.8202 0.0265 0.0000
vt 0.8202 0.5908 0.0000
vt 0.9808 0.0265 0.0000
vt 0.6262 1.0004 0.0000
vt 0.6262 0.0004 0.0000
vt 0.5472 0.9670 0.0000
vt 0.5472 0.0337 0.0000
vt 0.5472 0.9379 0.0000
vt 0.5472 0.0629 0.0000
vt 0.5756 0.9454 0.0000
vt 0.6237 0.9615 0.0000
vt 0.5565 0.9704 0.0000
vt 0.5895 0.0031 0.0000
vt 0.6190 0.0054 0.0000
vt 0.6006 1.0009 0.0000
vt 0.5463 0.0009 0.0000
vt 0.5463 1.0009 0.0000
vt 0.6006 0.0009 0.0000
vt 0.6383 0.0469 0.0000
vt 0.9495 0.8281 0.0000
vt 0.6383 0.9531 0.0000
vt 0.9495 0.1719 0.0000
vt 0.6383 0.0263 0.0000
vt 0.6383 0.9737 0.0000
vt 0.9495 0.8684 0.0000
vt 0.9495 0.1316 0.0000
vt 0.9493 0.6567 0.0000
vt 0.6524 0.6567 0.0000
vt 0.6524 0.3433 0.0000
vt 0.9493 0.3433 0.0000
vt 0.9576 0.6420 0.0000
vt 0.6442 0.6420 0.0000
vt 0.6442 0.3580 0.0000
vt 0.9576 0.3580 0.0000
vt 0.0000 1.0000 0.0000
vt 0.1323 1.0000 0.0000
vt 0.1328 1.0000 0.0000
vt -0.0000 1.0000 0.0000
vt 0.1320 1.0000 0.0000
vt 0.1325 1.0000 0.0000
vt 0.1322 1.0000 0.0000
# 170 texture coords

g Cone001
s off
f 1/1/1 2/2/2 3/3/3 
f 2/2/2 1/1/1 4/4/1 
f 3/5/3 2/6/2 5/3/4 
f 2/6/2 6/2/5 5/3/4 
f 7/7/6 5/8/4 6/9/5 
f 7/7/6 6/9/5 8/10/7 
f 7/11/6 9/12/8 10/13/9 
f 9/12/8 7/11/6 8/14/7 
f 11/7/10 10/8/9 9/9/8 
f 11/7/10 9/9/8 12/10/10 
f 11/15/10 13/2/11 14/3/12 
f 13/2/11 11/15/10 12/16/10 
f 14/17/12 13/18/11 15/7/13 
f 13/18/11 16/10/14 15/7/13 
f 17/19/15 15/15/13 16/16/14 
f 17/19/15 16/16/14 18/20/16 
f 17/21/15 19/12/17 20/13/18 
f 19/12/17 17/21/15 18/22/16 
f 1/13/1 20/11/18 19/14/17 
f 1/13/1 19/14/17 4/12/1 
f 12/23/19 16/24/19 13/25/19 
f 6/26/19 18/27/19 8/28/19 
f 12/23/19 8/28/19 16/24/19 
f 18/27/19 4/29/19 19/30/19 
f 16/24/19 8/28/19 18/27/19 
f 8/28/19 12/23/19 9/31/19 
f 4/29/19 18/27/19 6/26/19 
f 4/29/19 6/26/19 2/32/19 
f 21/33/20 22/34/21 23/35/21 
f 22/34/21 21/33/20 24/36/20 
f 23/37/21 25/38/22 26/39/22 
f 25/38/22 23/37/21 22/40/21 
f 26/41/22 27/34/23 28/35/23 
f 27/34/23 26/41/22 25/42/22 
f 28/43/23 29/42/24 30/44/24 
f 29/42/24 28/43/23 27/34/23 
f 30/39/24 31/40/25 32/37/25 
f 31/40/25 30/39/24 29/38/24 
f 32/37/25 33/36/26 34/33/26 
f 33/36/26 32/37/25 31/40/25 
f 34/45/26 35/40/27 36/43/27 
f 35/40/27 34/45/26 33/46/26 
f 36/43/27 37/47/28 38/48/28 
f 37/47/28 36/43/27 35/34/27 
f 38/48/28 39/40/29 40/43/29 
f 39/40/29 38/48/28 37/47/28 
f 40/37/29 24/46/20 21/45/20 
f 24/46/20 40/37/29 39/40/29 
f 32/49/30 36/50/30 28/51/30 
f 38/52/30 23/53/30 36/50/30 
f 23/53/30 38/52/30 21/54/30 
f 28/51/30 36/50/30 23/53/30 
f 28/51/30 23/53/30 26/55/30 
f 32/49/30 28/51/30 30/56/30 
f 36/50/30 32/49/30 34/57/30 
f 21/54/30 38/52/30 40/58/30 
f 41/59/29 42/60/29 43/61/31 
f 43/61/31 42/60/29 44/62/31 
f 45/63/28 41/64/29 46/65/28 
f 41/64/29 45/63/28 42/66/29 
f 47/67/27 48/68/27 46/69/28 
f 46/69/28 48/68/27 45/70/28 
f 49/71/26 50/72/26 47/73/27 
f 47/73/27 50/72/26 48/74/27 
f 51/75/32 52/76/32 49/77/26 
f 49/77/26 52/76/32 50/78/26 
f 53/79/24 54/80/24 51/81/32 
f 51/81/32 54/80/24 52/82/32 
f 55/83/23 56/84/23 53/85/24 
f 53/85/24 56/84/23 54/86/24 
f 57/87/22 55/83/23 58/88/22 
f 55/83/23 57/87/22 56/84/23 
f 59/89/21 60/90/21 58/91/22 
f 58/91/22 60/90/21 57/92/22 
f 43/93/31 44/94/31 59/95/21 
f 59/95/21 44/94/31 60/96/21 
f 61/97/33 62/98/34 2/99/35 
f 62/98/34 61/97/33 63/100/36 
f 6/101/37 2/102/35 62/103/34 
f 6/101/37 62/103/34 64/104/38 
f 8/101/39 6/102/37 64/103/38 
f 8/101/39 64/103/38 65/104/40 
f 8/101/39 66/105/41 9/106/42 
f 66/105/41 8/101/39 65/104/40 
f 12/106/43 9/101/42 66/104/41 
f 12/106/43 66/104/41 67/105/44 
f 12/106/43 68/107/45 13/108/46 
f 68/107/45 12/106/43 67/105/44 
f 16/108/47 13/106/46 68/105/45 
f 16/108/47 68/105/45 69/107/48 
f 18/97/49 16/108/47 69/107/48 
f 18/97/49 69/107/48 70/100/50 
f 18/108/49 71/100/51 19/97/52 
f 71/100/51 18/108/49 70/107/50 
f 61/99/33 19/97/52 71/100/51 
f 61/99/33 71/100/51 63/98/36 
f 67/109/44 69/110/48 68/111/45 
f 64/112/38 67/109/44 65/113/40 
f 69/110/48 63/114/36 71/115/51 
f 64/112/38 69/110/48 67/109/44 
f 69/110/48 71/115/51 70/116/50 
f 65/113/40 67/109/44 66/117/41 
f 63/114/36 69/110/48 64/112/38 
f 63/114/36 64/112/38 62/118/34 
f 12/119/30 16/120/30 8/121/30 
f 18/122/30 8/121/30 16/120/30 
f 8/121/30 19/123/30 2/124/30 
f 2/124/30 19/123/30 61/125/30 
f 8/121/30 2/124/30 6/126/30 
f 12/119/30 8/121/30 9/127/30 
f 16/120/30 12/119/30 13/128/30 
f 19/123/30 8/121/30 18/122/30 
f 72/129/53 73/130/54 74/131/55 
f 73/130/54 72/129/53 75/132/56 
f 75/133/57 72/134/57 76/135/57 
f 77/136/57 76/135/57 72/134/57 
f 74/134/58 78/137/58 72/133/58 
f 78/137/58 74/134/58 79/138/58 
f 73/134/59 80/135/59 74/133/59 
f 80/135/59 73/134/59 81/136/59 
f 82/138/60 83/137/60 75/134/60 
f 75/134/60 83/137/60 73/133/60 
f 82/139/61 75/140/56 76/141/61 
f 77/136/62 72/134/53 78/142/62 
f 79/138/63 74/134/55 80/143/63 
f 81/136/64 73/134/54 83/142/64 
f 84/144/65 76/145/65 85/146/65 
f 76/145/65 84/144/65 82/147/65 
f 78/147/66 86/144/66 77/145/66 
f 87/146/66 77/145/66 86/144/66 
f 88/146/67 80/147/67 89/144/67 
f 80/147/67 88/146/67 79/145/67 
f 83/145/68 90/146/68 81/147/68 
f 91/144/68 81/147/68 90/146/68 
f 86/148/69 79/149/69 88/150/69 
f 79/149/69 86/148/69 78/151/69 
f 91/152/70 89/153/70 80/154/70 
f 91/152/70 80/154/70 81/155/70 
f 84/148/71 90/150/71 83/149/71 
f 84/148/71 83/149/71 82/151/71 
f 87/153/72 85/152/72 76/155/72 
f 87/153/72 76/155/72 77/154/72 
f 89/156/30 91/157/30 85/158/30 
f 89/156/30 87/159/30 88/160/30 
f 85/158/30 91/157/30 90/161/30 
f 85/158/30 90/161/30 84/162/30 
f 87/159/30 89/156/30 85/158/30 
f 88/160/30 87/159/30 86/163/30 
f 22/34/73 24/36/73 92/164/73 
f 24/36/73 93/165/73 92/164/73 
f 25/38/74 22/40/74 94/166/74 
f 22/40/74 92/167/74 94/166/74 
f 27/34/75 25/42/75 95/164/75 
f 25/42/75 94/168/75 95/164/75 
f 29/42/76 27/34/76 96/168/76 
f 27/34/76 95/164/76 96/168/76 
f 31/40/77 29/38/77 97/167/77 
f 29/38/77 96/166/77 97/167/77 
f 33/36/78 31/40/78 98/165/78 
f 31/40/78 97/167/78 98/165/78 
f 35/40/79 33/46/79 99/167/79 
f 33/46/79 98/169/79 99/167/79 
f 37/47/80 35/34/80 100/170/80 
f 35/34/80 99/164/80 100/170/80 
f 39/40/81 37/47/81 101/167/81 
f 37/47/81 100/170/81 101/167/81 
f 24/46/82 39/40/82 93/169/82 
f 39/40/82 101/167/82 93/169/82 
# 168 faces

