# 3ds Max Wavefront OBJ Exporter v0.97b - (c)2007 guruware
# File Created: 28.06.2016 17:37:47

#
# object Plane005
#

v  -6.0000 -0.0000 32.0000
v  -6.0000 0.0000 -32.0000
v  -9.0000 -3.1650 -32.0000
v  -9.0000 -3.1650 32.0000
v  6.0000 0.0000 -32.0000
v  6.0000 -0.0000 32.0000
v  9.0000 -3.1650 32.0000
v  9.0000 -3.1650 -32.0000
v  6.0000 0.7000 -32.0000
v  5.5000 0.7000 -32.0000
v  5.5000 0.7000 32.0000
v  6.0000 0.7000 32.0000
v  -5.5000 -0.3000 -32.0000
v  -5.5000 -0.3000 32.0000
v  5.5000 -0.3000 32.0000
v  5.5000 -0.3000 -32.0000
v  -6.0000 0.7000 -32.0000
v  -6.0000 0.7000 32.0000
v  -5.5000 0.7000 32.0000
v  -5.5000 0.7000 -32.0000
v  3.4916 0.0000 31.5000
v  4.3256 0.0000 31.5000
v  4.3256 0.0000 11.1732
v  3.4916 0.0000 11.1732
v  3.4916 -0.3000 31.5000
v  4.3256 -0.3000 31.5000
v  4.3256 -0.3000 11.1732
v  3.4916 -0.3000 11.1732
v  1.0208 0.4579 -0.0063
v  1.2199 0.4580 -0.0062
v  1.2199 0.4580 -5.3395
v  1.0208 0.4579 -5.3396
v  1.0208 0.1522 -0.0063
v  1.0208 0.1522 -5.3396
v  1.2199 0.1522 -0.0062
v  1.2199 0.4580 5.3271
v  1.2199 0.1522 5.3271
v  1.0208 0.4577 32.0000
v  1.2199 0.4578 32.0000
v  1.2199 0.4580 26.6605
v  1.0208 0.4579 26.6604
v  1.2199 0.4580 21.3271
v  1.0208 0.4579 21.3270
v  1.2199 0.4580 15.9938
v  1.0208 0.4579 15.9937
v  1.2199 0.4580 10.6605
v  1.0208 0.4579 10.6604
v  1.0208 0.4579 5.3270
v  1.2199 0.4580 -32.0062
v  1.0208 0.4579 -32.0063
v  1.0208 0.4579 -26.6730
v  1.2199 0.4580 -26.6729
v  1.0208 0.4579 -21.3396
v  1.2199 0.4580 -21.3395
v  1.0208 0.4579 -16.0063
v  1.2199 0.4580 -16.0062
v  1.0208 0.4579 -10.6730
v  1.2199 0.4580 -10.6729
v  1.0208 0.1520 32.0000
v  1.0208 0.1522 26.6604
v  1.0208 0.1522 21.3270
v  1.0208 0.1522 15.9937
v  1.0208 0.1522 10.6604
v  1.0208 0.1522 5.3270
v  1.0208 0.1522 -32.0063
v  1.0208 0.1522 -26.6730
v  1.0208 0.1522 -21.3396
v  1.0208 0.1522 -16.0063
v  1.0208 0.1522 -10.6730
v  1.2199 0.1522 -32.0062
v  1.2199 0.1522 -26.6729
v  1.2199 0.1522 -21.3395
v  1.2199 0.1522 -16.0062
v  1.2199 0.1522 -10.6729
v  1.2199 0.1522 -5.3395
v  1.2199 0.1520 32.0000
v  1.2199 0.1522 26.6605
v  1.2199 0.1522 21.3271
v  1.2199 0.1522 15.9938
v  1.2199 0.1522 10.6605
v  1.7657 0.0000 31.5000
v  2.5997 0.0000 31.5000
v  2.5997 0.0000 11.1732
v  1.7657 0.0000 11.1732
v  1.7657 -0.3000 31.5000
v  2.5997 -0.3000 31.5000
v  2.5997 -0.3000 11.1732
v  1.7657 -0.3000 11.1732
v  -3.4920 0.0000 11.1732
v  -4.3260 0.0000 11.1732
v  -4.3260 0.0000 31.5000
v  -3.4920 0.0000 31.5000
v  -3.4920 -0.3000 11.1732
v  -4.3260 -0.3000 11.1732
v  -4.3260 -0.3000 31.5000
v  -3.4920 -0.3000 31.5000
v  -1.0213 0.4579 0.0063
v  -1.2203 0.4580 0.0062
v  -1.2203 0.4580 5.3395
v  -1.0212 0.4579 5.3396
v  -1.0213 0.1522 0.0063
v  -1.0212 0.1522 5.3396
v  -1.2203 0.1522 0.0062
v  -1.2203 0.4580 -5.3271
v  -1.2203 0.1522 -5.3271
v  -1.0213 0.4577 -32.0000
v  -1.2203 0.4578 -32.0000
v  -1.2203 0.4580 -26.6605
v  -1.0213 0.4579 -26.6604
v  -1.2203 0.4580 -21.3271
v  -1.0213 0.4579 -21.3270
v  -1.2203 0.4580 -15.9938
v  -1.0213 0.4579 -15.9937
v  -1.2203 0.4580 -10.6605
v  -1.0213 0.4579 -10.6604
v  -1.0213 0.4579 -5.3270
v  -1.2203 0.4580 32.0062
v  -1.0212 0.4579 32.0063
v  -1.0212 0.4579 26.6730
v  -1.2203 0.4580 26.6729
v  -1.0212 0.4579 21.3396
v  -1.2203 0.4580 21.3395
v  -1.0212 0.4579 16.0063
v  -1.2203 0.4580 16.0062
v  -1.0212 0.4579 10.6730
v  -1.2203 0.4580 10.6729
v  -1.0213 0.1520 -32.0000
v  -1.0213 0.1522 -26.6604
v  -1.0213 0.1522 -21.3270
v  -1.0213 0.1522 -15.9937
v  -1.0213 0.1522 -10.6604
v  -1.0213 0.1522 -5.3270
v  -1.0212 0.1522 32.0063
v  -1.0212 0.1522 26.6730
v  -1.0212 0.1522 21.3396
v  -1.0212 0.1522 16.0063
v  -1.0212 0.1522 10.6730
v  -1.2203 0.1522 32.0062
v  -1.2203 0.1522 26.6729
v  -1.2203 0.1522 21.3395
v  -1.2203 0.1522 16.0062
v  -1.2203 0.1522 10.6729
v  -1.2203 0.1522 5.3395
v  -1.2203 0.1520 -32.0000
v  -1.2203 0.1522 -26.6605
v  -1.2203 0.1522 -21.3271
v  -1.2203 0.1522 -15.9938
v  -1.2203 0.1522 -10.6605
v  -1.7662 0.0000 11.1732
v  -2.6002 0.0000 11.1732
v  -2.6001 0.0000 31.5000
v  -1.7661 0.0000 31.5000
v  -1.7662 -0.3000 11.1732
v  -2.6002 -0.3000 11.1732
v  -2.6001 -0.3000 31.5000
v  -1.7661 -0.3000 31.5000
v  3.4915 -0.0000 10.1732
v  4.3255 -0.0000 10.1732
v  4.3255 -0.0000 -10.1537
v  3.4915 -0.0000 -10.1537
v  3.4915 -0.3000 10.1732
v  4.3255 -0.3000 10.1732
v  4.3255 -0.3000 -10.1537
v  3.4915 -0.3000 -10.1537
v  1.7657 -0.0000 10.1732
v  2.5997 -0.0000 10.1732
v  2.5997 -0.0000 -10.1537
v  1.7657 -0.0000 -10.1537
v  1.7657 -0.3000 10.1732
v  2.5997 -0.3000 10.1732
v  2.5997 -0.3000 -10.1537
v  1.7657 -0.3000 -10.1537
v  1.0703 -0.3000 1.0000
v  1.1703 -0.3000 1.0000
v  1.1703 0.1520 1.0000
v  1.0703 0.1520 1.0000
v  1.1703 -0.3000 -1.0000
v  1.1703 0.1520 -1.0000
v  1.0703 -0.3000 -1.0000
v  1.0703 0.1520 -1.0000
v  -3.4920 -0.0000 -10.1537
v  -4.3260 -0.0000 -10.1537
v  -4.3260 -0.0000 10.1732
v  -3.4920 -0.0000 10.1732
v  -3.4920 -0.3000 -10.1537
v  -4.3260 -0.3000 -10.1537
v  -4.3260 -0.3000 10.1732
v  -3.4920 -0.3000 10.1732
v  -1.7662 -0.0000 -10.1537
v  -2.6002 -0.0000 -10.1537
v  -2.6002 -0.0000 10.1732
v  -1.7662 -0.0000 10.1732
v  -1.7662 -0.3000 -10.1537
v  -2.6002 -0.3000 -10.1537
v  -2.6002 -0.3000 10.1732
v  -1.7662 -0.3000 10.1732
v  3.4915 -0.0000 -11.1536
v  4.3255 -0.0000 -11.1536
v  4.3255 -0.0000 -31.4805
v  3.4915 -0.0000 -31.4805
v  3.4915 -0.3000 -11.1536
v  4.3255 -0.3000 -11.1536
v  4.3255 -0.3000 -31.4805
v  3.4915 -0.3000 -31.4805
v  1.7657 -0.0000 -11.1537
v  2.5997 -0.0000 -11.1537
v  2.5997 -0.0000 -31.4805
v  1.7657 -0.0000 -31.4805
v  1.7657 -0.3000 -11.1537
v  2.5997 -0.3000 -11.1537
v  2.5997 -0.3000 -31.4805
v  1.7657 -0.3000 -31.4805
v  -3.4920 -0.0000 -31.4805
v  -4.3260 -0.0000 -31.4805
v  -4.3260 -0.0000 -11.1537
v  -3.4920 -0.0000 -11.1537
v  -3.4920 -0.3000 -31.4805
v  -4.3260 -0.3000 -31.4805
v  -4.3260 -0.3000 -11.1537
v  -3.4920 -0.3000 -11.1537
v  -1.7662 -0.0000 -31.4805
v  -2.6002 -0.0000 -31.4805
v  -2.6002 -0.0000 -11.1536
v  -1.7662 -0.0000 -11.1536
v  -1.7662 -0.3000 -31.4805
v  -2.6002 -0.3000 -31.4805
v  -2.6002 -0.3000 -11.1536
v  -1.7662 -0.3000 -11.1536
v  1.0700 -0.2998 -31.0000
v  1.1700 -0.2998 -31.0000
v  1.1700 0.1522 -31.0000
v  1.0700 0.1522 -31.0000
v  1.1700 -0.2998 -32.0000
v  1.1700 0.1522 -32.0000
v  1.1703 -0.3000 31.0000
v  1.0703 -0.3000 31.0000
v  1.0703 0.1520 31.0000
v  1.1703 0.1520 31.0000
v  1.0703 -0.3000 32.0000
v  1.0703 0.1520 32.0000
v  1.0700 0.1522 -32.0000
v  1.0700 -0.2998 -32.0000
v  1.1703 0.1520 32.0000
v  1.1703 -0.3000 32.0000
v  -1.1708 -0.2998 1.0062
v  -1.0708 -0.2998 1.0062
v  -1.0708 0.1522 1.0062
v  -1.1708 0.1522 1.0062
v  -1.0708 -0.2998 -0.9938
v  -1.0708 0.1522 -0.9938
v  -1.1708 -0.2998 -0.9938
v  -1.1708 0.1522 -0.9938
v  -1.1711 -0.2996 -30.9938
v  -1.0711 -0.2996 -30.9938
v  -1.0711 0.1524 -30.9938
v  -1.1711 0.1524 -30.9938
v  -1.0711 -0.2996 -31.9938
v  -1.0711 0.1524 -31.9938
v  -1.0708 -0.2998 31.0062
v  -1.1708 -0.2998 31.0062
v  -1.1708 0.1522 31.0062
v  -1.0708 0.1522 31.0062
v  -1.1708 -0.2998 32.0062
v  -1.1708 0.1522 32.0062
v  -1.1711 0.1524 -31.9938
v  -1.1711 -0.2996 -31.9938
v  -1.0708 0.1522 32.0062
v  -1.0708 -0.2998 32.0062
# 268 vertices

vn -0.7258 0.6879 0.0000
vn 0.7258 0.6879 0.0000
vn -0.0000 1.0000 0.0000
vn 0.0000 1.0000 0.0000
vn 1.0000 0.0000 -0.0000
vn -1.0000 0.0000 -0.0000
vn 0.0000 1.0000 -0.0000
vn 0.0000 0.0000 1.0000
vn 0.0000 0.0000 -1.0000
vn -0.0001 1.0000 -0.0000
vn -0.0001 1.0000 0.0000
vn -1.0000 0.0000 0.0000
vn 0.0001 1.0000 -0.0000
# 13 vertex normals

vt 0.0175 0.0000 0.0000
vt 0.0175 1.0000 0.0000
vt 0.0359 1.0000 0.0000
vt 0.0359 0.0000 0.0000
vt 0.6255 1.0000 0.0000
vt 0.5010 1.0000 0.0000
vt 0.5010 0.0000 0.0000
vt 0.6255 0.0000 0.0000
vt 0.0001 1.0000 0.0000
vt 0.0001 0.0000 0.0000
vt 0.2742 0.0000 0.0000
vt 0.2742 1.0000 0.0000
vt 0.5484 0.0000 0.0000
vt 0.5484 1.0000 0.0000
vt 0.4495 1.0000 0.0000
vt 0.4495 0.0000 0.0000
vt 0.3094 0.0000 0.0000
vt 0.4029 0.0000 0.0000
vt 0.4029 1.0000 0.0000
vt 0.3094 1.0000 0.0000
vt 0.5055 0.0000 0.0000
vt 0.5055 0.0457 0.0000
vt 0.4075 0.0457 0.0000
vt 0.4075 0.0000 0.0000
vt 0.5020 0.0000 0.0000
vt 0.5020 1.0000 0.0000
vt 0.4040 1.0000 0.0000
vt 0.4040 -0.0000 0.0000
vt 1.0000 0.5000 0.0000
vt 0.9799 0.5000 0.0000
vt 0.9799 0.4167 0.0000
vt 1.0000 0.4167 0.0000
vt 0.2749 0.5000 0.0000
vt 0.3093 0.5000 0.0000
vt 0.3093 0.5833 0.0000
vt 0.2749 0.5833 0.0000
vt 1.0000 1.0000 0.0000
vt 0.9799 1.0000 0.0000
vt 0.9799 0.9167 0.0000
vt 1.0000 0.9167 0.0000
vt 0.9799 0.8333 0.0000
vt 1.0000 0.8333 0.0000
vt 0.9799 0.7500 0.0000
vt 1.0000 0.7500 0.0000
vt 0.9799 0.6667 0.0000
vt 1.0000 0.6667 0.0000
vt 0.9799 0.5833 0.0000
vt 1.0000 0.5833 0.0000
vt 0.9799 0.0000 0.0000
vt 1.0000 0.0000 0.0000
vt 1.0000 0.0833 0.0000
vt 0.9799 0.0833 0.0000
vt 1.0000 0.1667 0.0000
vt 0.9799 0.1667 0.0000
vt 1.0000 0.2500 0.0000
vt 0.9799 0.2500 0.0000
vt 1.0000 0.3333 0.0000
vt 0.9799 0.3333 0.0000
vt 0.2749 0.0000 0.0000
vt 0.3093 0.0000 0.0000
vt 0.3093 0.0833 0.0000
vt 0.2749 0.0833 0.0000
vt 0.3093 0.1667 0.0000
vt 0.2749 0.1667 0.0000
vt 0.3093 0.2500 0.0000
vt 0.2749 0.2500 0.0000
vt 0.3093 0.3333 0.0000
vt 0.2749 0.3333 0.0000
vt 0.3093 0.4167 0.0000
vt 0.2749 0.4167 0.0000
vt 0.3093 1.0000 0.0000
vt 0.2749 1.0000 0.0000
vt 0.2749 0.9167 0.0000
vt 0.3093 0.9167 0.0000
vt 0.2749 0.8333 0.0000
vt 0.3093 0.8333 0.0000
vt 0.2749 0.7500 0.0000
vt 0.3093 0.7500 0.0000
vt 0.2749 0.6667 0.0000
vt 0.3093 0.6667 0.0000
vt 0.4028 -0.0000 0.0000
vt 0.5000 -0.0000 0.0000
vt 0.5000 1.0000 0.0000
vt 0.4028 1.0000 0.0000
vt 0.4534 -0.0000 0.0000
vt 0.4534 1.0000 0.0000
vt 0.5000 0.0000 0.0000
vt 0.4495 -0.0000 0.0000
vt 1.4438 2.7010 0.0000
vt 1.4438 3.7010 0.0000
vt 0.9438 3.7010 0.0000
vt 0.9438 2.7010 0.0000
# 92 texture coords

g Plane005
s 1
f 1/1/1 2/2/1 3/2/1 
f 3/2/1 4/1/1 1/1/1 
f 5/3/2 6/4/2 7/4/2 
f 7/4/2 8/3/2 5/3/2 
f 9/5/3 10/6/3 11/7/3 
f 11/7/3 12/8/3 9/5/3 
f 13/9/3 14/10/3 15/11/3 
f 15/11/3 16/12/3 13/9/3 
f 17/6/4 18/7/4 19/8/4 
f 19/8/4 20/5/4 17/6/4 
s off
f 6/7/5 5/6/5 9/5/5 
f 9/5/5 12/8/5 6/7/5 
f 2/8/6 1/5/6 18/6/6 
f 18/6/6 17/7/6 2/8/6 
f 11/13/6 10/14/6 16/15/6 
f 16/15/6 15/16/6 11/13/6 
f 13/15/5 20/14/5 19/13/5 
f 19/13/5 14/16/5 13/15/5 
s 4
f 21/17/7 22/18/7 23/19/7 
f 23/19/7 24/20/7 21/17/7 
s 8
f 25/21/8 26/22/8 22/23/8 
f 22/23/8 21/24/8 25/21/8 
s 16
f 26/25/5 27/26/5 23/27/5 
f 23/27/5 22/28/5 26/25/5 
s 32
f 27/21/9 28/22/9 24/23/9 
f 24/23/9 23/24/9 27/21/9 
s 64
f 28/25/6 25/26/6 21/27/6 
f 21/27/6 24/28/6 28/25/6 
s off
f 29/29/10 30/30/10 31/31/10 
f 31/31/10 32/32/10 29/29/10 
f 33/33/6 29/34/6 32/35/6 
f 32/35/6 34/36/6 33/33/6 
f 35/33/5 30/34/5 36/35/5 
f 36/35/5 37/36/5 35/33/5 
f 38/37/11 39/38/11 40/39/11 
f 40/39/11 41/40/11 38/37/11 
f 41/40/10 40/39/10 42/41/10 
f 42/41/10 43/42/10 41/40/10 
f 43/42/10 42/41/10 44/43/10 
f 44/43/10 45/44/10 43/42/10 
f 45/44/10 44/43/10 46/45/10 
f 46/45/10 47/46/10 45/44/10 
f 47/46/10 46/45/10 36/47/10 
f 36/47/10 48/48/10 47/46/10 
f 48/48/10 36/47/10 30/30/10 
f 30/30/10 29/29/10 48/48/10 
f 49/49/10 50/50/10 51/51/10 
f 51/51/10 52/52/10 49/49/10 
f 52/52/10 51/51/10 53/53/10 
f 53/53/10 54/54/10 52/52/10 
f 54/54/10 53/53/10 55/55/10 
f 55/55/10 56/56/10 54/54/10 
f 56/56/10 55/55/10 57/57/10 
f 57/57/10 58/58/10 56/56/10 
f 58/58/10 57/57/10 32/32/10 
f 32/32/10 31/31/10 58/58/10 
f 59/59/6 38/60/6 41/61/6 
f 41/61/6 60/62/6 59/59/6 
f 60/62/6 41/61/6 43/63/6 
f 43/63/6 61/64/6 60/62/6 
f 61/64/6 43/63/6 45/65/6 
f 45/65/6 62/66/6 61/64/6 
f 62/66/6 45/65/6 47/67/6 
f 47/67/6 63/68/6 62/66/6 
f 63/68/6 47/67/6 48/69/6 
f 48/69/6 64/70/6 63/68/6 
f 64/70/6 48/69/6 29/34/6 
f 29/34/6 33/33/6 64/70/6 
f 50/71/6 65/72/6 66/73/6 
f 66/73/6 51/74/6 50/71/6 
f 51/74/6 66/73/6 67/75/6 
f 67/75/6 53/76/6 51/74/6 
f 53/76/6 67/75/6 68/77/6 
f 68/77/6 55/78/6 53/76/6 
f 55/78/6 68/77/6 69/79/6 
f 69/79/6 57/80/6 55/78/6 
f 57/80/6 69/79/6 34/36/6 
f 34/36/6 32/35/6 57/80/6 
f 70/59/5 49/60/5 52/61/5 
f 52/61/5 71/62/5 70/59/5 
f 71/62/5 52/61/5 54/63/5 
f 54/63/5 72/64/5 71/62/5 
f 72/64/5 54/63/5 56/65/5 
f 56/65/5 73/66/5 72/64/5 
f 73/66/5 56/65/5 58/67/5 
f 58/67/5 74/68/5 73/66/5 
f 74/68/5 58/67/5 31/69/5 
f 31/69/5 75/70/5 74/68/5 
f 75/70/5 31/69/5 30/34/5 
f 30/34/5 35/33/5 75/70/5 
f 39/71/5 76/72/5 77/73/5 
f 77/73/5 40/74/5 39/71/5 
f 40/74/5 77/73/5 78/75/5 
f 78/75/5 42/76/5 40/74/5 
f 42/76/5 78/75/5 79/77/5 
f 79/77/5 44/78/5 42/76/5 
f 44/78/5 79/77/5 80/79/5 
f 80/79/5 46/80/5 44/78/5 
f 46/80/5 80/79/5 37/36/5 
f 37/36/5 36/35/5 46/80/5 
s 4
f 81/17/7 82/18/7 83/19/7 
f 83/19/7 84/20/7 81/17/7 
s 8
f 85/21/8 86/22/8 82/23/8 
f 82/23/8 81/24/8 85/21/8 
s 16
f 86/25/5 87/26/5 83/27/5 
f 83/27/5 82/28/5 86/25/5 
s 32
f 87/21/9 88/22/9 84/23/9 
f 84/23/9 83/24/9 87/21/9 
s 64
f 88/25/6 85/26/6 81/27/6 
f 81/27/6 84/28/6 88/25/6 
s 4
f 89/19/7 90/20/7 91/17/7 
f 91/17/7 92/18/7 89/19/7 
s 8
f 93/21/9 94/22/9 90/23/9 
f 90/23/9 89/24/9 93/21/9 
s 16
f 94/25/12 95/26/12 91/27/12 
f 91/27/12 90/28/12 94/25/12 
s 32
f 95/21/8 96/22/8 92/23/8 
f 92/23/8 91/24/8 95/21/8 
s 64
f 96/25/5 93/26/5 89/27/5 
f 89/27/5 92/28/5 96/25/5 
s off
f 97/29/13 98/30/13 99/31/13 
f 99/31/13 100/32/13 97/29/13 
f 101/33/5 97/34/5 100/35/5 
f 100/35/5 102/36/5 101/33/5 
f 103/33/12 98/34/12 104/35/12 
f 104/35/12 105/36/12 103/33/12 
f 106/37/13 107/38/13 108/39/13 
f 108/39/13 109/40/13 106/37/13 
f 109/40/13 108/39/13 110/41/13 
f 110/41/13 111/42/13 109/40/13 
f 111/42/13 110/41/13 112/43/13 
f 112/43/13 113/44/13 111/42/13 
f 113/44/13 112/43/13 114/45/13 
f 114/45/13 115/46/13 113/44/13 
f 115/46/13 114/45/13 104/47/13 
f 104/47/13 116/48/13 115/46/13 
f 116/48/13 104/47/13 98/30/13 
f 98/30/13 97/29/13 116/48/13 
f 117/49/13 118/50/13 119/51/13 
f 119/51/13 120/52/13 117/49/13 
f 120/52/13 119/51/13 121/53/13 
f 121/53/13 122/54/13 120/52/13 
f 122/54/13 121/53/13 123/55/13 
f 123/55/13 124/56/13 122/54/13 
f 124/56/13 123/55/13 125/57/13 
f 125/57/13 126/58/13 124/56/13 
f 126/58/13 125/57/13 100/32/13 
f 100/32/13 99/31/13 126/58/13 
f 127/59/5 106/60/5 109/61/5 
f 109/61/5 128/62/5 127/59/5 
f 128/62/5 109/61/5 111/63/5 
f 111/63/5 129/64/5 128/62/5 
f 129/64/5 111/63/5 113/65/5 
f 113/65/5 130/66/5 129/64/5 
f 130/66/5 113/65/5 115/67/5 
f 115/67/5 131/68/5 130/66/5 
f 131/68/5 115/67/5 116/69/5 
f 116/69/5 132/70/5 131/68/5 
f 132/70/5 116/69/5 97/34/5 
f 97/34/5 101/33/5 132/70/5 
f 118/71/5 133/72/5 134/73/5 
f 134/73/5 119/74/5 118/71/5 
f 119/74/5 134/73/5 135/75/5 
f 135/75/5 121/76/5 119/74/5 
f 121/76/5 135/75/5 136/77/5 
f 136/77/5 123/78/5 121/76/5 
f 123/78/5 136/77/5 137/79/5 
f 137/79/5 125/80/5 123/78/5 
f 125/80/5 137/79/5 102/36/5 
f 102/36/5 100/35/5 125/80/5 
f 138/59/12 117/60/12 120/61/12 
f 120/61/12 139/62/12 138/59/12 
f 139/62/12 120/61/12 122/63/12 
f 122/63/12 140/64/12 139/62/12 
f 140/64/12 122/63/12 124/65/12 
f 124/65/12 141/66/12 140/64/12 
f 141/66/12 124/65/12 126/67/12 
f 126/67/12 142/68/12 141/66/12 
f 142/68/12 126/67/12 99/69/12 
f 99/69/12 143/70/12 142/68/12 
f 143/70/12 99/69/12 98/34/12 
f 98/34/12 103/33/12 143/70/12 
f 107/71/12 144/72/12 145/73/12 
f 145/73/12 108/74/12 107/71/12 
f 108/74/12 145/73/12 146/75/12 
f 146/75/12 110/76/12 108/74/12 
f 110/76/12 146/75/12 147/77/12 
f 147/77/12 112/78/12 110/76/12 
f 112/78/12 147/77/12 148/79/12 
f 148/79/12 114/80/12 112/78/12 
f 114/80/12 148/79/12 105/36/12 
f 105/36/12 104/35/12 114/80/12 
s 4
f 149/19/7 150/20/7 151/17/7 
f 151/17/7 152/18/7 149/19/7 
s 8
f 153/21/9 154/22/9 150/23/9 
f 150/23/9 149/24/9 153/21/9 
s 16
f 154/25/12 155/26/12 151/27/12 
f 151/27/12 150/28/12 154/25/12 
s 32
f 155/21/8 156/22/8 152/23/8 
f 152/23/8 151/24/8 155/21/8 
s 64
f 156/25/5 153/26/5 149/27/5 
f 149/27/5 152/28/5 156/25/5 
s 4
f 157/17/7 158/18/7 159/19/7 
f 159/19/7 160/20/7 157/17/7 
s 8
f 161/21/8 162/22/8 158/23/8 
f 158/23/8 157/24/8 161/21/8 
s 16
f 162/27/5 163/28/5 159/25/5 
f 159/25/5 158/26/5 162/27/5 
s 32
f 163/21/9 164/22/9 160/23/9 
f 160/23/9 159/24/9 163/21/9 
s 64
f 164/27/6 161/28/6 157/25/6 
f 157/25/6 160/26/6 164/27/6 
s 4
f 165/17/7 166/18/7 167/19/7 
f 167/19/7 168/20/7 165/17/7 
s 8
f 169/21/8 170/22/8 166/23/8 
f 166/23/8 165/24/8 169/21/8 
s 16
f 170/27/5 171/28/5 167/25/5 
f 167/25/5 166/26/5 170/27/5 
s 32
f 171/21/9 172/22/9 168/23/9 
f 168/23/9 167/24/9 171/21/9 
s 64
f 172/27/6 169/28/6 165/25/6 
f 165/25/6 168/26/6 172/27/6 
s 8
f 173/81/8 174/82/8 175/83/8 
f 175/83/8 176/84/8 173/81/8 
s 16
f 174/84/5 177/81/5 178/85/5 
f 178/85/5 175/86/5 174/84/5 
s 32
f 177/81/9 179/82/9 180/83/9 
f 180/83/9 178/84/9 177/81/9 
s 64
f 179/84/6 173/81/6 176/85/6 
f 176/85/6 180/86/6 179/84/6 
s 4
f 181/19/7 182/20/7 183/17/7 
f 183/17/7 184/18/7 181/19/7 
s 8
f 185/21/9 186/22/9 182/23/9 
f 182/23/9 181/24/9 185/21/9 
s 16
f 186/27/12 187/28/12 183/25/12 
f 183/25/12 182/26/12 186/27/12 
s 32
f 187/21/8 188/22/8 184/23/8 
f 184/23/8 183/24/8 187/21/8 
s 64
f 188/27/5 185/28/5 181/25/5 
f 181/25/5 184/26/5 188/27/5 
s 4
f 189/19/7 190/20/7 191/17/7 
f 191/17/7 192/18/7 189/19/7 
s 8
f 193/21/9 194/22/9 190/23/9 
f 190/23/9 189/24/9 193/21/9 
s 16
f 194/27/12 195/28/12 191/25/12 
f 191/25/12 190/26/12 194/27/12 
s 32
f 195/21/8 196/22/8 192/23/8 
f 192/23/8 191/24/8 195/21/8 
s 64
f 196/27/5 193/28/5 189/25/5 
f 189/25/5 192/26/5 196/27/5 
s 4
f 197/17/7 198/18/7 199/19/7 
f 199/19/7 200/20/7 197/17/7 
s 8
f 201/21/8 202/22/8 198/23/8 
f 198/23/8 197/24/8 201/21/8 
s 16
f 202/27/5 203/28/5 199/25/5 
f 199/25/5 198/26/5 202/27/5 
s 32
f 203/21/9 204/22/9 200/23/9 
f 200/23/9 199/24/9 203/21/9 
s 64
f 204/27/6 201/28/6 197/25/6 
f 197/25/6 200/26/6 204/27/6 
s 4
f 205/17/7 206/18/7 207/19/7 
f 207/19/7 208/20/7 205/17/7 
s 8
f 209/21/8 210/22/8 206/23/8 
f 206/23/8 205/24/8 209/21/8 
s 16
f 210/27/5 211/28/5 207/25/5 
f 207/25/5 206/26/5 210/27/5 
s 32
f 211/21/9 212/22/9 208/23/9 
f 208/23/9 207/24/9 211/21/9 
s 64
f 212/27/6 209/28/6 205/25/6 
f 205/25/6 208/26/6 212/27/6 
s 4
f 213/19/7 214/20/7 215/17/7 
f 215/17/7 216/18/7 213/19/7 
s 8
f 217/21/9 218/22/9 214/23/9 
f 214/23/9 213/24/9 217/21/9 
s 16
f 218/27/12 219/28/12 215/25/12 
f 215/25/12 214/26/12 218/27/12 
s 32
f 219/21/8 220/22/8 216/23/8 
f 216/23/8 215/24/8 219/21/8 
s 64
f 220/27/5 217/28/5 213/25/5 
f 213/25/5 216/26/5 220/27/5 
s 4
f 221/19/7 222/20/7 223/17/7 
f 223/17/7 224/18/7 221/19/7 
s 8
f 225/21/9 226/22/9 222/23/9 
f 222/23/9 221/24/9 225/21/9 
s 16
f 226/27/12 227/28/12 223/25/12 
f 223/25/12 222/26/12 226/27/12 
s 32
f 227/21/8 228/22/8 224/23/8 
f 224/23/8 223/24/8 227/21/8 
s 64
f 228/27/5 225/28/5 221/25/5 
f 221/25/5 224/26/5 228/27/5 
s 8
f 229/81/8 230/82/8 231/83/8 
f 231/83/8 232/84/8 229/81/8 
s 16
f 233/83/5 234/15/5 231/16/5 
f 231/16/5 230/87/5 233/83/5 
s 32
f 235/81/9 236/82/9 237/83/9 
f 237/83/9 238/84/9 235/81/9 
s 64
f 239/83/6 240/15/6 237/88/6 
f 237/88/6 236/82/6 239/83/6 
f 229/89/6 232/90/6 241/91/6 
f 241/91/6 242/92/6 229/89/6 
s 16
f 235/83/5 238/15/5 243/88/5 
f 243/88/5 244/82/5 235/83/5 
s 8
f 245/81/8 246/82/8 247/83/8 
f 247/83/8 248/84/8 245/81/8 
s 16
f 246/84/5 249/81/5 250/85/5 
f 250/85/5 247/86/5 246/84/5 
s 32
f 249/81/9 251/82/9 252/83/9 
f 252/83/9 250/84/9 249/81/9 
s 64
f 251/84/6 245/81/6 248/85/6 
f 248/85/6 252/86/6 251/84/6 
s 8
f 253/81/8 254/82/8 255/83/8 
f 255/83/8 256/84/8 253/81/8 
s 16
f 257/83/5 258/15/5 255/16/5 
f 255/16/5 254/87/5 257/83/5 
s 32
f 259/81/9 260/82/9 261/83/9 
f 261/83/9 262/84/9 259/81/9 
s 64
f 263/83/6 264/15/6 261/88/6 
f 261/88/6 260/82/6 263/83/6 
f 253/89/6 256/90/6 265/91/6 
f 265/91/6 266/92/6 253/89/6 
s 16
f 259/83/5 262/15/5 267/88/5 
f 267/88/5 268/82/5 259/83/5 
# 322 faces

