# 3ds Max Wavefront OBJ Exporter v0.97b - (c)2007 guruware
# File Created: 19.08.2016 17:30:30

#
# object Plane005
#

v  -8.0000 -3.1650 -0.0000
v  -5.0000 0.0000 -0.0000
v  -5.0000 0.0000 -5.3333
v  -8.0000 -3.1650 -5.3333
v  8.0000 -3.1650 -0.0000
v  5.0000 0.0000 -0.0000
v  5.0000 0.0000 5.3333
v  8.0000 -3.1650 5.3333
v  -8.0000 -3.1650 32.0000
v  -5.0000 0.0000 32.0000
v  -5.0000 0.0000 26.6667
v  -8.0000 -3.1650 26.6667
v  -5.0000 0.0000 21.3333
v  -8.0000 -3.1650 21.3333
v  -5.0000 0.0000 16.0000
v  -8.0000 -3.1650 16.0000
v  -5.0000 0.0000 10.6667
v  -8.0000 -3.1650 10.6667
v  -5.0000 0.0000 5.3333
v  -8.0000 -3.1650 5.3333
v  -5.0000 0.0000 -32.0000
v  -8.0000 -3.1650 -32.0000
v  -8.0000 -3.1650 -26.6667
v  -5.0000 0.0000 -26.6667
v  -8.0000 -3.1650 -21.3333
v  -5.0000 0.0000 -21.3333
v  -8.0000 -3.1650 -16.0000
v  -5.0000 0.0000 -16.0000
v  -8.0000 -3.1650 -10.6667
v  -5.0000 0.0000 -10.6667
v  8.0000 -3.1650 -32.0000
v  5.0000 0.0000 -32.0000
v  5.0000 0.0000 -26.6667
v  8.0000 -3.1650 -26.6667
v  5.0000 0.0000 -21.3333
v  8.0000 -3.1650 -21.3333
v  5.0000 0.0000 -16.0000
v  8.0000 -3.1650 -16.0000
v  5.0000 0.0000 -10.6667
v  8.0000 -3.1650 -10.6667
v  5.0000 0.0000 -5.3333
v  8.0000 -3.1650 -5.3333
v  5.0000 0.0000 32.0000
v  8.0000 -3.1650 32.0000
v  8.0000 -3.1650 26.6667
v  5.0000 0.0000 26.6667
v  8.0000 -3.1650 21.3333
v  5.0000 0.0000 21.3333
v  8.0000 -3.1650 16.0000
v  5.0000 0.0000 16.0000
v  8.0000 -3.1650 10.6667
v  5.0000 0.0000 10.6667
v  -2.5000 0.0000 5.3333
v  -2.5000 0.0000 -0.0000
v  -2.5000 0.0000 10.6667
v  -2.5000 0.0000 16.0000
v  -2.5000 0.0000 21.3333
v  -2.5000 0.0000 26.6667
v  2.5000 0.0000 26.6667
v  2.5000 0.0000 32.0000
v  -2.5000 0.0000 -5.3333
v  2.5000 0.0000 -10.6667
v  2.5000 0.0000 -5.3333
v  2.5000 0.0000 -16.0000
v  2.5000 0.0000 -21.3333
v  2.5000 0.0000 -26.6667
v  -2.5000 0.0000 -26.6667
v  -2.5000 0.0000 -32.0000
v  -2.5000 0.0000 32.0000
v  0.0000 0.0000 32.0000
v  0.0000 0.0000 26.6667
v  2.5000 0.0000 -0.0000
v  2.5000 0.0000 5.3333
v  2.5000 0.0000 10.6667
v  2.5000 0.0000 16.0000
v  2.5000 0.0000 21.3333
v  0.0000 0.0000 -10.6667
v  0.0000 0.0000 -5.3333
v  0.0000 0.0000 -16.0000
v  0.0000 0.0000 -21.3333
v  0.0000 0.0000 -26.6667
v  2.5000 0.0000 -32.0000
v  0.0000 0.0000 5.3333
v  0.0000 0.0000 -0.0000
v  0.0000 0.0000 10.6667
v  0.0000 0.0000 16.0000
v  0.0000 0.0000 21.3333
v  0.0000 0.0000 -32.0000
v  -2.5000 0.0000 -10.6667
v  -2.5000 0.0000 -16.0000
v  -2.5000 0.0000 -21.3333
v  2.5000 -0.5000 32.0000
v  5.0000 -0.5000 32.0000
v  -2.5000 -0.5000 32.0000
v  0.0000 -0.5000 32.0000
v  0.5834 0.7580 -32.0062
v  0.3602 0.7579 -32.0063
v  0.3602 0.7578 -26.6688
v  0.5834 0.7580 -26.6687
v  0.3602 0.4522 -21.3365
v  0.5834 0.4524 -21.3359
v  0.3664 0.4522 -32.0031
v  0.3602 0.4522 -26.6698
v  0.5766 0.4522 -32.0031
v  0.5834 0.4524 -26.6687
v  -0.3603 0.7577 -32.0000
v  -0.5835 0.7578 -32.0000
v  -0.5835 0.7580 -26.6646
v  -0.3603 0.7578 -26.6646
v  -0.5835 0.4524 -21.3308
v  -0.3668 0.4521 -31.9969
v  -0.3603 0.4522 -26.6635
v  -0.3603 0.4522 -21.3302
v  -0.5772 0.4522 -31.9969
v  -0.5835 0.4524 -26.6646
v  -0.5624 -0.3000 -26.1869
v  -0.3865 -0.3000 -26.1869
v  -0.3865 0.4520 -26.1869
v  -0.5624 0.4520 -26.1869
v  -0.3865 -0.3000 -26.3869
v  -0.5624 -0.3000 -26.3869
v  -0.5624 0.4520 -26.3869
v  -0.3865 0.4520 -26.3869
v  0.3858 -0.3000 -26.1869
v  0.5617 -0.3000 -26.1869
v  0.5617 0.4520 -26.1869
v  0.3858 0.4520 -26.1869
v  0.5617 -0.3000 -26.3869
v  0.3858 -0.3000 -26.3869
v  0.3858 0.4520 -26.3869
v  0.5617 0.4520 -26.3869
v  -5.0000 -0.5000 32.0000
# 132 vertices

vn -0.7258 0.6879 -0.0000
vn -0.4403 0.8979 -0.0000
vn -0.3950 0.9187 -0.0000
vn 0.7258 0.6879 -0.0000
vn 0.3950 0.9187 -0.0000
vn -0.5214 0.8533 -0.0000
vn 0.5214 0.8533 -0.0000
vn 0.0000 1.0000 -0.0000
vn 0.0995 0.9950 -0.0000
vn -0.0995 0.9950 -0.0000
vn 0.0000 0.0000 1.0000
vn -0.0004 1.0000 -0.0000
vn -0.0009 1.0000 -0.0000
vn -0.0010 0.9984 0.0572
vn -0.9998 -0.0203 -0.0012
vn -1.0000 0.0000 -0.0000
vn 0.9998 -0.0222 -0.0000
vn 1.0000 0.0000 -0.0013
vn 0.0004 1.0000 -0.0000
vn 0.0009 0.9984 0.0572
vn 0.9998 -0.0213 -0.0000
vn 1.0000 0.0000 -0.0000
vn -0.9998 -0.0206 -0.0012
vn 0.0007 0.9984 0.0572
vn -0.0009 0.9984 0.0572
vn 0.0009 1.0000 -0.0000
vn 1.0000 0.0000 -0.0012
vn 0.0000 0.0000 -1.0000
# 28 vertex normals

vt 0.0175 0.5000 0.0000
vt 0.0175 0.5833 0.0000
vt 0.0359 0.5000 0.0000
vt 0.0359 0.4167 0.0000
vt 0.0175 0.0000 0.0000
vt 0.0175 0.0833 0.0000
vt 0.0175 0.1667 0.0000
vt 0.0175 0.2500 0.0000
vt 0.0175 0.3333 0.0000
vt 0.0175 0.4167 0.0000
vt 0.0175 1.0000 0.0000
vt 0.0175 0.9167 0.0000
vt 0.0175 0.8333 0.0000
vt 0.0175 0.7500 0.0000
vt 0.0175 0.6667 0.0000
vt 0.0359 1.0000 0.0000
vt 0.0359 0.9167 0.0000
vt 0.0359 0.8333 0.0000
vt 0.0359 0.7500 0.0000
vt 0.0359 0.6667 0.0000
vt 0.0359 0.5833 0.0000
vt 0.0359 0.0000 0.0000
vt 0.0359 0.0833 0.0000
vt 0.0359 0.1667 0.0000
vt 0.0359 0.2500 0.0000
vt 0.0359 0.3333 0.0000
vt 0.1196 0.4167 0.0000
vt 0.3104 0.4167 0.0000
vt 0.3104 0.5000 0.0000
vt 0.1196 0.5000 0.0000
vt 0.1196 0.3333 0.0000
vt 0.3104 0.3333 0.0000
vt 0.1196 0.2500 0.0000
vt 0.3104 0.2500 0.0000
vt 0.1196 0.1667 0.0000
vt 0.3104 0.1667 0.0000
vt 0.1196 0.0833 0.0000
vt 0.3104 0.0833 0.0000
vt 0.6919 0.0833 0.0000
vt 0.6919 0.0000 0.0000
vt 0.8826 0.0000 0.0000
vt 0.8826 0.0833 0.0000
vt 0.3104 0.5833 0.0000
vt 0.1196 0.5833 0.0000
vt 0.8826 0.6667 0.0000
vt 0.6919 0.6667 0.0000
vt 0.6919 0.5833 0.0000
vt 0.8826 0.5833 0.0000
vt 0.8826 0.7500 0.0000
vt 0.6919 0.7500 0.0000
vt 0.8826 0.8333 0.0000
vt 0.6919 0.8333 0.0000
vt 0.8826 0.9167 0.0000
vt 0.6919 0.9167 0.0000
vt 0.3104 0.9167 0.0000
vt 0.3104 1.0000 0.0000
vt 0.1196 1.0000 0.0000
vt 0.1196 0.9167 0.0000
vt 0.3104 0.0000 0.0000
vt 0.5011 0.0000 0.0000
vt 0.5011 0.0833 0.0000
vt 0.8826 0.4167 0.0000
vt 0.8826 0.5000 0.0000
vt 0.6919 0.5000 0.0000
vt 0.6919 0.4167 0.0000
vt 0.8826 0.3333 0.0000
vt 0.6919 0.3333 0.0000
vt 0.8826 0.2500 0.0000
vt 0.6919 0.2500 0.0000
vt 0.8826 0.1667 0.0000
vt 0.6919 0.1667 0.0000
vt 0.5011 0.6667 0.0000
vt 0.5011 0.5833 0.0000
vt 0.5011 0.7500 0.0000
vt 0.5011 0.8333 0.0000
vt 0.5011 0.9167 0.0000
vt 0.8826 1.0000 0.0000
vt 0.6919 1.0000 0.0000
vt 0.5011 0.4167 0.0000
vt 0.5011 0.5000 0.0000
vt 0.5011 0.3333 0.0000
vt 0.5011 0.2500 0.0000
vt 0.5011 0.1667 0.0000
vt 0.5011 1.0000 0.0000
vt 0.1196 0.0000 0.0000
vt 0.1196 0.6667 0.0000
vt 0.3104 0.6667 0.0000
vt 0.1196 0.7500 0.0000
vt 0.3104 0.7500 0.0000
vt 0.1196 0.8333 0.0000
vt 0.3104 0.8333 0.0000
vt 0.0809 0.2500 0.0000
vt -0.0000 0.2500 0.0000
vt 0.0000 0.0000 0.0000
vt 0.0809 0.0000 0.0000
vt 0.0809 0.7500 0.0000
vt -0.0000 0.7500 0.0000
vt -0.0000 0.5000 0.0000
vt 0.0809 0.5000 0.0000
vt 0.2031 0.0047 0.0000
vt 0.1830 0.0047 0.0000
vt 0.1830 0.0880 0.0000
vt 0.2031 0.0881 0.0000
vt 0.1830 0.1714 0.0000
vt 0.2031 0.1715 0.0000
vt 0.1750 1.0000 0.0000
vt 0.2094 1.0000 0.0000
vt 0.2094 0.9167 0.0000
vt 0.1750 0.9166 0.0000
vt 0.1749 0.0000 0.0000
vt 0.1405 0.0000 0.0000
vt 0.1405 0.0833 0.0000
vt 0.1749 0.0834 0.0000
vt 0.1830 0.9938 0.0000
vt 0.2031 0.9938 0.0000
vt 0.2031 0.9215 0.0000
vt 0.1830 0.9214 0.0000
vt 0.2031 0.8381 0.0000
vt 0.2094 0.0000 0.0000
vt 0.1750 0.0000 0.0000
vt 0.1750 0.0832 0.0000
vt 0.2094 0.0833 0.0000
vt 0.1922 0.1666 0.0000
vt 0.1405 1.0000 0.0000
vt 0.1749 1.0000 0.0000
vt 0.1749 0.9168 0.0000
vt 0.1405 0.9167 0.0000
vt 0.1577 0.8334 0.0000
vt 0.1830 0.8380 0.0000
vt 0.1922 0.8332 0.0000
vt 0.1577 0.1668 0.0000
vt 0.1431 0.4991 0.0000
vt 0.1431 0.7472 0.0000
vt 0.1732 0.7472 0.0000
vt 0.1732 0.4991 0.0000
vt 0.1431 0.7473 0.0000
vt 0.1732 0.7473 0.0000
vt 0.0809 1.0000 0.0000
vt -0.0000 1.0000 0.0000
# 139 texture coords

g Plane005
s off
f 1/1/1 2/1/2 3/2/3 
f 3/2/3 4/2/1 1/1/1 
f 5/3/4 6/3/5 7/4/5 
f 7/4/5 8/4/4 5/3/4 
f 9/5/1 10/5/1 11/6/3 
f 11/6/3 12/6/1 9/5/1 
f 12/6/1 11/6/3 13/7/3 
f 13/7/3 14/7/1 12/6/1 
f 14/7/1 13/7/3 15/8/3 
f 15/8/3 16/8/1 14/7/1 
f 16/8/1 15/8/3 17/9/3 
f 17/9/3 18/9/1 16/8/1 
f 18/9/1 17/9/3 19/10/3 
f 19/10/3 20/10/1 18/9/1 
f 20/10/1 19/10/3 2/1/2 
f 2/1/2 1/1/1 20/10/1 
f 21/11/1 22/11/1 23/12/1 
f 23/12/1 24/12/6 21/11/1 
f 24/12/6 23/12/1 25/13/1 
f 25/13/1 26/13/3 24/12/6 
f 26/13/3 25/13/1 27/14/1 
f 27/14/1 28/14/3 26/13/3 
f 28/14/3 27/14/1 29/15/1 
f 29/15/1 30/15/3 28/14/3 
f 30/15/3 29/15/1 4/2/1 
f 4/2/1 3/2/3 30/15/3 
f 31/16/4 32/16/4 33/17/5 
f 33/17/5 34/17/4 31/16/4 
f 34/17/4 33/17/5 35/18/5 
f 35/18/5 36/18/4 34/17/4 
f 36/18/4 35/18/5 37/19/5 
f 37/19/5 38/19/4 36/18/4 
f 38/19/4 37/19/5 39/20/5 
f 39/20/5 40/20/4 38/19/4 
f 40/20/4 39/20/5 41/21/5 
f 41/21/5 42/21/4 40/20/4 
f 42/21/4 41/21/5 6/3/5 
f 6/3/5 5/3/4 42/21/4 
f 43/22/5 44/22/4 45/23/4 
f 45/23/4 46/23/7 43/22/5 
f 46/23/7 45/23/4 47/24/4 
f 47/24/4 48/24/5 46/23/7 
f 48/24/5 47/24/4 49/25/4 
f 49/25/4 50/25/5 48/24/5 
f 50/25/5 49/25/4 51/26/4 
f 51/26/4 52/26/5 50/25/5 
f 52/26/5 51/26/4 8/4/4 
f 8/4/4 7/4/5 52/26/5 
f 19/27/3 53/28/8 54/29/8 
f 54/29/8 2/30/8 19/27/3 
f 17/31/3 55/32/8 53/28/8 
f 53/28/8 19/27/3 17/31/3 
f 15/33/3 56/34/8 55/32/8 
f 55/32/8 17/31/3 15/33/3 
f 13/35/3 57/36/8 56/34/8 
f 56/34/8 15/33/3 13/35/3 
f 11/37/8 58/38/8 57/36/8 
f 57/36/8 13/35/8 11/37/8 
f 59/39/8 60/40/8 43/41/5 
f 43/41/5 46/42/9 59/39/8 
f 2/30/8 54/29/8 61/43/8 
f 61/43/8 3/44/3 2/30/8 
f 39/45/5 62/46/8 63/47/8 
f 63/47/8 41/48/5 39/45/5 
f 37/49/5 64/50/8 62/46/8 
f 62/46/8 39/45/5 37/49/5 
f 35/51/5 65/52/8 64/50/8 
f 64/50/8 37/49/5 35/51/5 
f 33/53/5 66/54/8 65/52/8 
f 65/52/8 35/51/5 33/53/5 
f 67/55/8 68/56/8 21/57/8 
f 21/57/8 24/58/10 67/55/8 
f 58/38/8 69/59/8 70/60/8 
f 70/60/8 71/61/8 58/38/8 
f 7/62/8 6/63/8 72/64/8 
f 72/64/8 73/65/8 7/62/8 
f 52/66/8 7/62/8 73/65/8 
f 73/65/8 74/67/8 52/66/8 
f 50/68/8 52/66/8 74/67/8 
f 74/67/8 75/69/8 50/68/8 
f 48/70/8 50/68/8 75/69/8 
f 75/69/8 76/71/8 48/70/8 
f 46/42/8 48/70/8 76/71/8 
f 76/71/8 59/39/8 46/42/8 
f 71/61/8 70/60/8 60/40/8 
f 60/40/8 59/39/8 71/61/8 
f 6/63/8 41/48/8 63/47/8 
f 63/47/8 72/64/8 6/63/8 
f 77/72/8 78/73/8 63/47/8 
f 63/47/8 62/46/8 77/72/8 
f 79/74/8 77/72/8 62/46/8 
f 62/46/8 64/50/8 79/74/8 
f 80/75/8 79/74/8 64/50/8 
f 64/50/8 65/52/8 80/75/8 
f 81/76/8 80/75/8 65/52/8 
f 65/52/8 66/54/8 81/76/8 
f 33/53/8 32/77/8 82/78/8 
f 82/78/8 66/54/8 33/53/8 
f 83/79/8 84/80/8 54/29/8 
f 54/29/8 53/28/8 83/79/8 
f 85/81/8 83/79/8 53/28/8 
f 53/28/8 55/32/8 85/81/8 
f 86/82/8 85/81/8 55/32/8 
f 55/32/8 56/34/8 86/82/8 
f 87/83/8 86/82/8 56/34/8 
f 56/34/8 57/36/8 87/83/8 
f 71/61/8 87/83/8 57/36/8 
f 57/36/8 58/38/8 71/61/8 
f 84/80/8 78/73/8 61/43/8 
f 61/43/8 54/29/8 84/80/8 
f 81/76/8 88/84/8 68/56/8 
f 68/56/8 67/55/8 81/76/8 
f 11/37/8 10/85/8 69/59/8 
f 69/59/8 58/38/8 11/37/8 
f 30/86/8 3/44/8 61/43/8 
f 61/43/8 89/87/8 30/86/8 
f 28/88/8 30/86/8 89/87/8 
f 89/87/8 90/89/8 28/88/8 
f 26/90/8 28/88/8 90/89/8 
f 90/89/8 91/91/8 26/90/8 
f 24/58/8 26/90/8 91/91/8 
f 91/91/8 67/55/8 24/58/8 
f 89/87/8 61/43/8 78/73/8 
f 78/73/8 77/72/8 89/87/8 
f 90/89/8 89/87/8 77/72/8 
f 77/72/8 79/74/8 90/89/8 
f 91/91/8 90/89/8 79/74/8 
f 79/74/8 80/75/8 91/91/8 
f 67/55/8 91/91/8 80/75/8 
f 80/75/8 81/76/8 67/55/8 
f 73/65/8 72/64/8 84/80/8 
f 84/80/8 83/79/8 73/65/8 
f 74/67/8 73/65/8 83/79/8 
f 83/79/8 85/81/8 74/67/8 
f 75/69/8 74/67/8 85/81/8 
f 85/81/8 86/82/8 75/69/8 
f 76/71/8 75/69/8 86/82/8 
f 86/82/8 87/83/8 76/71/8 
f 59/39/8 76/71/8 87/83/8 
f 87/83/8 71/61/8 59/39/8 
f 72/64/8 63/47/8 78/73/8 
f 78/73/8 84/80/8 72/64/8 
f 66/54/8 82/78/8 88/84/8 
f 88/84/8 81/76/8 66/54/8 
f 60/92/11 92/93/11 93/94/8 
f 93/94/8 43/95/8 60/92/11 
f 69/96/11 94/97/11 95/98/11 
f 95/98/11 70/99/11 69/96/11 
f 96/100/12 97/101/12 98/102/12 
f 98/102/13 99/103/13 96/100/13 
f 100/104/14 101/105/14 99/103/14 
f 97/106/15 102/107/15 103/108/15 
f 103/108/16 98/109/16 97/106/16 
f 104/110/17 96/111/17 99/112/17 
f 99/112/18 105/113/18 104/110/18 
f 106/114/19 107/115/19 108/116/19 
f 109/117/20 108/116/20 110/118/20 
f 111/119/21 106/120/21 109/121/21 
f 112/122/22 109/121/22 113/123/22 
f 107/124/23 114/125/23 115/126/23 
f 108/127/16 115/126/16 110/128/16 
f 113/129/24 109/117/24 110/118/24 
f 98/102/25 100/104/25 99/103/25 
f 103/108/16 100/130/16 98/109/16 
f 99/112/22 101/131/22 105/113/22 
f 109/117/26 106/114/26 108/116/26 
f 112/122/27 111/119/27 109/121/27 
f 108/127/16 107/124/16 115/126/16 
f 116/132/11 117/133/11 118/134/11 
f 118/134/11 119/135/11 116/132/11 
f 120/132/28 121/133/28 122/134/28 
f 122/134/28 123/135/28 120/132/28 
f 120/132/22 123/136/22 118/137/22 
f 118/137/22 117/135/22 120/132/22 
f 116/132/16 119/136/16 122/137/16 
f 122/137/16 121/135/16 116/132/16 
f 124/132/11 125/133/11 126/134/11 
f 126/134/11 127/135/11 124/132/11 
f 128/132/28 129/133/28 130/134/28 
f 130/134/28 131/135/28 128/132/28 
f 128/132/22 131/136/22 126/137/22 
f 126/137/22 125/135/22 128/132/22 
f 124/132/16 127/136/16 130/137/16 
f 130/137/16 129/135/16 124/132/16 
f 70/99/11 95/98/11 92/93/11 
f 92/93/11 60/92/11 70/99/11 
f 10/138/11 132/139/11 94/97/11 
f 94/97/11 69/96/11 10/138/11 
# 188 faces

