# 3ds Max Wavefront OBJ Exporter v0.97b - (c)2007 guruware
# File Created: 07.09.2016 01:09:56

#
# object Ground_Level_Crossing_0
#

v  0.0068 0.2000 -5.3333
v  -3.5000 0.2000 -5.3333
v  -3.5000 0.2000 -0.0000
v  0.0048 0.2000 -0.0000
v  5.9931 -0.3000 -5.3333
v  3.5000 0.2000 -5.3333
v  3.5000 0.2000 -0.0000
v  5.9931 -0.3000 -0.0000
v  -6.0031 -0.3000 5.3333
v  -3.5000 0.2000 5.3333
v  -6.0031 -0.3000 -0.0000
v  -0.0050 0.2000 26.6667
v  -3.5000 0.2000 26.6667
v  -3.5000 0.2000 32.0000
v  -0.0070 0.2000 32.0000
v  -0.0030 0.2000 21.3333
v  -3.5000 0.2000 21.3333
v  -0.0010 0.2000 16.0000
v  -3.5000 0.2000 16.0000
v  0.0008 0.2000 10.6667
v  -3.5000 0.2000 10.6667
v  0.0028 0.2000 5.3333
v  0.0106 0.2000 -16.0000
v  0.0126 0.2000 -21.3333
v  -3.5000 0.2000 -21.3333
v  -3.5000 0.2000 -16.0000
v  0.0088 0.2000 -10.6667
v  -3.5000 0.2000 -10.6667
v  5.9931 -0.3000 26.6667
v  3.5000 0.2000 26.6667
v  3.5000 0.2000 32.0000
v  5.9931 -0.3000 32.0000
v  5.9931 -0.3000 21.3333
v  3.5000 0.2000 21.3333
v  5.9931 -0.3000 16.0000
v  3.5000 0.2000 16.0000
v  5.9931 -0.3000 10.6667
v  3.5000 0.2000 10.6667
v  5.9931 -0.3000 5.3333
v  3.5000 0.2000 5.3333
v  3.5000 0.2000 -16.0000
v  5.9931 -0.3000 -16.0000
v  5.9931 -0.3000 -21.3333
v  3.5000 0.2000 -21.3333
v  3.5000 0.2000 -10.6667
v  5.9931 -0.3000 -10.6667
v  -6.0031 -0.3000 -16.0000
v  -6.0038 -0.3000 -21.3333
v  -6.0031 -0.3000 -10.6667
v  -6.0031 -0.3000 -5.3333
v  -6.0031 -0.3000 26.6667
v  -6.0031 -0.3000 32.0000
v  -6.0031 -0.3000 21.3333
v  -6.0031 -0.3000 16.0000
v  -6.0031 -0.3000 10.6667
v  0.3602 0.4522 -31.0032
v  0.5834 0.4524 -31.0026
v  0.5834 0.7580 -32.0037
v  -0.3603 0.7578 -31.9996
v  -0.5835 0.7580 -31.9996
v  -0.5835 0.4524 -30.9974
v  -0.3454 0.4841 -31.9995
v  -0.3603 0.4522 -30.9969
v  -0.5835 0.4524 -31.9996
v  0.3602 0.7578 -32.0038
v  0.3387 0.4841 -32.0016
v  0.5834 0.4524 -32.0037
v  -2.4861 0.5000 -26.6667
v  -2.2095 -0.3000 -26.6667
v  -2.2112 -0.3000 -32.0000
v  -2.4849 0.5000 -32.0000
v  -4.9455 -0.3000 -32.0000
v  -5.2084 0.5000 -32.0000
v  -5.2069 0.5000 -26.6667
v  -4.9425 -0.3000 -26.6667
v  -0.8691 0.5000 -32.0000
v  -1.1377 -0.3000 -32.0000
v  -1.1347 -0.3000 -26.6667
v  -0.8676 0.5000 -26.6667
v  -3.5915 0.5000 -32.0000
v  -3.8711 -0.3000 -32.0000
v  -3.8695 -0.3000 -26.6667
v  -3.5927 0.5000 -26.6667
v  -4.1448 0.5000 -32.0000
v  -4.4137 -0.3000 -32.0000
v  -4.4108 -0.3000 -26.6667
v  -4.1434 0.5000 -26.6667
v  -4.6766 0.5000 -32.0000
v  -4.6752 0.5000 -26.6667
v  -6.0060 -0.3000 -26.6667
v  -5.7387 0.5000 -26.6667
v  -5.7402 0.5000 -32.0000
v  -6.0060 -0.3000 -32.0000
v  -5.4743 -0.3000 -26.6667
v  -5.4743 -0.3000 -32.0000
v  -0.6065 -0.3000 -32.0000
v  -0.6035 -0.3000 -26.6667
v  -0.3364 0.5000 -26.6667
v  -1.9301 0.5000 -26.6667
v  -1.6659 -0.3000 -26.6667
v  -1.6689 -0.3000 -32.0000
v  -1.9316 0.5000 -32.0000
v  -1.3989 0.5000 -26.6667
v  -1.4003 0.5000 -32.0000
v  -3.0420 0.5000 -26.6667
v  -2.7655 -0.3000 -26.6667
v  -2.7645 -0.3000 -32.0000
v  -3.0382 0.5000 -32.0000
v  -3.3178 -0.3000 -32.0000
v  -3.3189 -0.3000 -26.6667
v  -0.0044 -0.3003 -32.0001
v  -0.0015 -0.3003 -26.6668
v  0.3279 0.5000 -26.6667
v  2.4761 0.5000 -26.6667
v  2.4749 0.5000 -32.0000
v  2.1953 -0.3000 -32.0000
v  2.1966 -0.3000 -26.6667
v  4.9295 -0.3000 -32.0000
v  4.9296 -0.3000 -26.6667
v  5.1969 0.5000 -26.6667
v  5.1984 0.5000 -32.0000
v  0.8591 0.5000 -32.0000
v  0.8577 0.5000 -26.6667
v  1.1218 -0.3000 -26.6667
v  1.1218 -0.3000 -32.0000
v  3.5815 0.5000 -32.0000
v  3.5827 0.5000 -26.6667
v  3.8566 -0.3000 -26.6667
v  3.8552 -0.3000 -32.0000
v  4.1348 0.5000 -32.0000
v  4.1334 0.5000 -26.6667
v  4.3978 -0.3000 -26.6667
v  4.3978 -0.3000 -32.0000
v  4.6652 0.5000 -26.6667
v  4.6666 0.5000 -32.0000
v  5.9931 -0.3000 -26.6667
v  5.9931 -0.3000 -32.0000
v  5.7302 0.5000 -32.0000
v  5.7287 0.5000 -26.6667
v  5.4613 -0.3000 -32.0000
v  5.4613 -0.3000 -26.6667
v  0.5906 -0.3000 -26.6667
v  0.5906 -0.3000 -32.0000
v  1.9201 0.5000 -26.6667
v  1.9216 0.5000 -32.0000
v  1.6530 -0.3000 -32.0000
v  1.6530 -0.3000 -26.6667
v  1.3903 0.5000 -32.0000
v  1.3889 0.5000 -26.6667
v  3.0321 0.5000 -26.6667
v  3.0282 0.5000 -32.0000
v  2.7486 -0.3000 -32.0000
v  2.7526 -0.3000 -26.6667
v  3.3059 -0.3000 -26.6667
v  3.3019 -0.3000 -32.0000
v  -2.4872 0.5000 -21.3333
v  -2.2079 -0.3000 -21.3333
v  -5.2055 0.5000 -21.3333
v  -4.9396 -0.3000 -21.3333
v  -1.1318 -0.3000 -21.3333
v  -0.8662 0.5000 -21.3333
v  -3.8679 -0.3000 -21.3333
v  -3.5939 0.5000 -21.3333
v  -4.4078 -0.3000 -21.3333
v  -4.1420 0.5000 -21.3333
v  -4.6737 0.5000 -21.3333
v  -5.7372 0.5000 -21.3333
v  -5.4713 -0.3000 -21.3333
v  -0.6006 -0.3000 -21.3333
v  -0.3350 0.5000 -21.3333
v  -1.9286 0.5000 -21.3333
v  -1.6630 -0.3000 -21.3333
v  -1.3974 0.5000 -21.3333
v  -3.0459 0.5000 -21.3333
v  -2.7666 -0.3000 -21.3333
v  -3.3199 -0.3000 -21.3333
v  -0.0025 -0.3002 -21.3334
v  0.3279 0.5000 -21.3333
v  2.4773 0.5000 -21.3333
v  2.1979 -0.3000 -21.3333
v  4.9296 -0.3000 -21.3333
v  5.1955 0.5000 -21.3333
v  0.8562 0.5000 -21.3333
v  1.1218 -0.3000 -21.3333
v  3.5839 0.5000 -21.3333
v  3.8580 -0.3000 -21.3333
v  4.1320 0.5000 -21.3333
v  4.3978 -0.3000 -21.3333
v  4.6637 0.5000 -21.3333
v  5.7272 0.5000 -21.3333
v  5.4613 -0.3000 -21.3333
v  0.5906 -0.3000 -21.3333
v  1.9186 0.5000 -21.3333
v  1.6530 -0.3000 -21.3333
v  1.3874 0.5000 -21.3333
v  3.0359 0.5000 -21.3333
v  2.7566 -0.3000 -21.3333
v  3.3099 -0.3000 -21.3333
v  -3.0063 -0.3000 -21.3333
v  -3.0063 -0.3000 -26.6667
v  -0.0065 -0.3000 -26.6667
v  2.9933 -0.3000 -21.3333
v  2.9933 -0.3000 -26.6667
v  -3.0063 -0.3000 -32.0000
v  -0.0065 -0.3000 -32.0000
v  2.9933 -0.3000 -32.0000
v  5.9931 0.0000 -32.0000
v  -6.0060 0.0000 -32.0000
# 208 vertices

vn 0.0000 1.0000 -0.0000
vn 0.2568 0.9665 -0.0000
vn 0.3722 0.9282 -0.0000
vn -0.2570 0.9664 -0.0000
vn -0.3709 0.9287 -0.0000
vn -0.3709 0.9287 0.0000
vn -0.3708 0.9287 0.0000
vn -0.1888 0.9820 0.0000
vn -0.0033 0.9564 0.2919
vn 0.0017 0.9565 0.2917
vn 0.9996 0.0272 0.0083
vn -1.0000 0.0000 -0.0000
vn 0.0001 0.9566 0.2915
vn -0.0020 0.9564 0.2921
vn -0.9992 0.0394 0.0120
vn 1.0000 0.0000 -0.0000
vn 0.9855 0.1695 -0.0000
vn 0.9867 0.1626 -0.0002
vn -0.9863 0.1651 0.0002
vn -0.9852 0.1714 0.0000
vn -0.9862 0.1653 0.0002
vn -0.9864 0.1644 0.0001
vn 0.9865 0.1635 -0.0001
vn -0.9864 0.1645 0.0003
vn 0.9867 0.1625 -0.0002
vn 0.9855 0.1695 0.0002
vn -0.9851 0.1722 -0.0001
vn -0.9851 0.1722 0.0001
vn -0.9852 0.1714 -0.0002
vn 0.9857 0.1687 0.0001
vn 0.9857 0.1687 -0.0001
vn -0.9782 0.2076 -0.0007
vn 0.9780 0.2086 -0.0009
vn -0.9862 0.1653 -0.0001
vn 0.9867 0.1625 0.0001
vn 0.9867 0.1626 0.0001
vn 0.9871 0.1604 0.0003
vn -0.9863 0.1651 -0.0001
vn -0.9851 0.1722 0.0004
vn 0.9855 0.1695 -0.0002
vn 0.9855 0.1695 0.0000
vn 0.9857 0.1687 -0.0004
vn -0.9852 0.1714 0.0002
vn -0.9852 0.1714 -0.0000
vn 0.9852 0.1712 -0.0000
vn 0.9865 0.1635 -0.0002
vn -0.9864 0.1643 0.0002
vn -0.9855 0.1697 0.0000
vn -0.9864 0.1644 0.0002
vn -0.9864 0.1646 0.0002
vn 0.9866 0.1634 -0.0002
vn 0.9852 0.1712 0.0002
vn -0.9851 0.1721 -0.0001
vn -0.9851 0.1721 0.0001
vn -0.9855 0.1697 -0.0002
vn 0.9856 0.1688 0.0001
vn 0.9856 0.1688 -0.0001
vn -0.9794 0.2020 -0.0000
vn 0.9789 0.2042 -0.0000
vn -0.9864 0.1644 -0.0001
vn 0.9866 0.1634 0.0001
vn 0.9865 0.1635 0.0001
vn 0.9868 0.1620 -0.0000
vn -0.9864 0.1643 -0.0001
vn -0.9851 0.1721 0.0004
vn 0.9852 0.1712 -0.0002
vn 0.9852 0.1712 0.0000
vn 0.9856 0.1688 -0.0004
vn -0.9855 0.1697 0.0002
vn -0.9855 0.1697 -0.0000
vn 0.0000 1.0000 0.0000
vn -0.0000 1.0000 0.0000
vn -0.0000 1.0000 -0.0000
vn -0.0000 0.0000 -1.0000
vn 0.0000 0.0000 1.0000
# 75 vertex normals

vt 0.7422 0.7230 0.0000
vt 0.3911 0.7230 0.0000
vt 0.3911 0.9711 0.0000
vt 0.7423 0.9711 0.0000
vt 0.1761 0.7460 0.0000
vt 0.4224 0.7460 0.0000
vt 0.4224 0.9943 0.0000
vt 0.1761 0.9943 0.0000
vt 0.1745 0.2498 0.0000
vt 0.4208 0.2498 0.0000
vt 0.4208 0.0016 0.0000
vt 0.1745 0.0016 0.0000
vt 0.7428 0.9002 0.0000
vt 0.3911 0.9002 0.0000
vt 0.3911 1.0000 0.0000
vt 0.7429 1.0000 0.0000
vt 0.7427 0.8003 0.0000
vt 0.3911 0.8003 0.0000
vt 0.7410 0.7150 0.0000
vt 0.3894 0.7150 0.0000
vt 0.3894 0.9631 0.0000
vt 0.7411 0.9631 0.0000
vt 0.7409 0.5392 0.0000
vt 0.3894 0.5392 0.0000
vt 0.3894 0.7873 0.0000
vt 0.7410 0.7873 0.0000
vt 0.7408 0.2238 0.0000
vt 0.3894 0.2238 0.0000
vt 0.3894 0.4722 0.0000
vt 0.7409 0.4722 0.0000
vt 0.7407 0.0427 0.0000
vt 0.3894 0.0427 0.0000
vt 0.3894 0.2908 0.0000
vt 0.7408 0.2908 0.0000
vt 0.7420 0.2506 0.0000
vt 0.7419 0.0025 0.0000
vt 0.3911 0.0025 0.0000
vt 0.3911 0.2506 0.0000
vt 0.7421 0.4987 0.0000
vt 0.3911 0.4987 0.0000
vt 0.7422 0.7471 0.0000
vt 0.3911 0.7471 0.0000
vt 0.1761 0.9001 0.0000
vt 0.4224 0.9001 0.0000
vt 0.4224 1.0000 0.0000
vt 0.1761 1.0000 0.0000
vt 0.1761 0.8001 0.0000
vt 0.4224 0.8001 0.0000
vt 0.1745 0.7466 0.0000
vt 0.4208 0.7466 0.0000
vt 0.4208 0.9949 0.0000
vt 0.1745 0.9949 0.0000
vt 0.1745 0.4984 0.0000
vt 0.4208 0.4984 0.0000
vt 0.4224 0.2492 0.0000
vt 0.1761 0.2492 0.0000
vt 0.1761 0.0009 0.0000
vt 0.4224 0.0009 0.0000
vt 0.4224 0.4975 0.0000
vt 0.1761 0.4975 0.0000
vt 0.7440 0.9002 0.0000
vt 0.7441 1.0000 0.0000
vt 0.3891 1.0000 0.0000
vt 0.3891 0.9002 0.0000
vt 0.7439 0.8003 0.0000
vt 0.3891 0.8003 0.0000
vt 0.7422 0.7150 0.0000
vt 0.7423 0.9631 0.0000
vt 0.3875 0.9631 0.0000
vt 0.3875 0.7150 0.0000
vt 0.7421 0.5392 0.0000
vt 0.7422 0.7873 0.0000
vt 0.3875 0.7873 0.0000
vt 0.3875 0.5392 0.0000
vt 0.7420 0.2238 0.0000
vt 0.7421 0.4722 0.0000
vt 0.3875 0.4722 0.0000
vt 0.3875 0.2238 0.0000
vt 0.7419 0.0427 0.0000
vt 0.7420 0.2908 0.0000
vt 0.3875 0.2908 0.0000
vt 0.3875 0.0427 0.0000
vt 0.7434 0.7242 0.0000
vt 0.7435 0.9711 0.0000
vt 0.3891 0.9711 0.0000
vt 0.3891 0.7242 0.0000
vt 0.7433 0.4999 0.0000
vt 0.7434 0.7483 0.0000
vt 0.3891 0.7483 0.0000
vt 0.3891 0.4999 0.0000
vt 0.7432 0.2506 0.0000
vt 0.3891 0.2506 0.0000
vt 0.7431 0.0025 0.0000
vt 0.3891 0.0025 0.0000
vt 0.1084 0.1714 0.0000
vt 0.0883 0.1715 0.0000
vt 0.0883 0.0881 0.0000
vt 0.1084 0.9214 0.0000
vt 0.0883 0.9215 0.0000
vt 0.0883 0.8381 0.0000
vt 0.0128 0.0833 0.0000
vt 0.0472 0.0832 0.0000
vt 0.0300 0.1666 0.0000
vt 0.1262 0.9167 0.0000
vt 0.0689 0.9168 0.0000
vt 0.0975 0.8334 0.0000
vt 0.1084 0.8380 0.0000
vt 0.1084 0.0880 0.0000
vt 0.0128 0.9167 0.0000
vt 0.0300 0.8332 0.0000
vt 0.0472 0.9166 0.0000
vt 0.1262 0.0833 0.0000
vt 0.0975 0.1668 0.0000
vt 0.0689 0.0834 0.0000
vt 0.9641 0.0833 0.0000
vt 0.9301 0.0833 0.0000
vt 0.9298 0.0000 0.0000
vt 0.9634 0.0000 0.0000
vt 0.8451 0.0000 0.0000
vt 0.8834 0.0000 0.0000
vt 0.8834 0.0833 0.0000
vt 0.8451 0.0833 0.0000
vt 0.8828 0.0000 0.0000
vt 0.9212 0.0000 0.0000
vt 0.9212 0.0833 0.0000
vt 0.8828 0.0833 0.0000
vt 0.9641 0.0000 0.0000
vt 0.9977 0.0000 0.0000
vt 0.9981 0.0833 0.0000
vt 0.9648 0.0833 0.0000
vt 0.8784 0.0000 0.0000
vt 0.9166 0.0000 0.0000
vt 0.9166 0.0833 0.0000
vt 0.8784 0.0833 0.0000
vt 0.9549 0.0000 0.0000
vt 0.9549 0.0833 0.0000
vt 0.9931 0.0000 0.0000
vt 0.9931 0.0833 0.0000
vt 0.9598 0.0833 0.0000
vt 0.9598 0.0000 0.0000
vt 0.9981 0.0000 0.0000
vt 0.9216 0.0833 0.0000
vt 0.9216 0.0000 0.0000
vt 0.9397 0.0000 0.0000
vt 0.9782 0.0000 0.0000
vt 0.9782 0.0833 0.0000
vt 0.9397 0.0833 0.0000
vt 0.8443 0.0000 0.0000
vt 0.8443 0.0833 0.0000
vt 0.8962 0.0833 0.0000
vt 0.8577 0.0833 0.0000
vt 0.8577 0.0000 0.0000
vt 0.8962 0.0000 0.0000
vt 0.9596 0.0833 0.0000
vt 0.9596 0.0000 0.0000
vt 0.8982 0.0833 0.0000
vt 0.8642 0.0833 0.0000
vt 0.8632 0.0000 0.0000
vt 0.8968 0.0000 0.0000
vt 0.9970 0.0000 0.0000
vt 0.9305 0.0000 0.0000
vt 0.9315 0.0833 0.0000
vt 0.8448 0.0000 0.0000
vt 0.3584 0.0000 0.0000
vt 0.4292 0.0000 0.0000
vt 0.4292 0.5000 0.0000
vt 0.3584 0.5000 0.0000
vt 0.5000 0.0000 0.0000
vt 0.5000 0.5000 0.0000
vt 0.5708 0.0000 0.0000
vt 0.5708 0.5000 0.0000
vt 0.6416 0.0000 0.0000
vt 0.6416 0.5000 0.0000
vt 0.4292 1.0000 0.0000
vt 0.3584 1.0000 0.0000
vt 0.5000 1.0000 0.0000
vt 0.5708 1.0000 0.0000
vt 0.6416 1.0000 0.0000
vt 0.3928 0.1667 0.0000
vt 0.8237 0.1667 0.0000
vt 0.5018 0.1667 0.0000
vt 0.6088 0.1667 0.0000
vt 0.9402 0.0181 0.0000
vt 0.9831 0.0181 0.0000
vt 0.9831 0.9939 0.0000
vt 0.9402 0.9939 0.0000
# 186 texture coords

g Ground_Level_Crossing_0
s 1
f 1/1/1 2/2/1 3/3/1 
f 3/3/1 4/4/1 1/1/1 
f 5/5/2 6/6/2 7/7/3 
f 7/7/3 8/8/2 5/5/2 
f 9/9/4 10/10/4 3/11/5 
f 3/11/5 11/12/4 9/9/4 
f 12/13/1 13/14/1 14/15/1 
f 14/15/1 15/16/1 12/13/1 
f 16/17/1 17/18/1 13/14/1 
f 13/14/1 12/13/1 16/17/1 
f 18/19/1 19/20/1 17/21/1 
f 17/21/1 16/22/1 18/19/1 
f 20/23/1 21/24/1 19/25/1 
f 19/25/1 18/26/1 20/23/1 
f 22/27/1 10/28/1 21/29/1 
f 21/29/1 20/30/1 22/27/1 
f 4/31/1 3/32/1 10/33/1 
f 10/33/1 22/34/1 4/31/1 
f 23/35/1 24/36/1 25/37/1 
f 25/37/1 26/38/1 23/35/1 
f 27/39/2 23/35/1 26/38/1 
f 26/38/1 28/40/1 27/39/2 
f 1/41/1 27/39/2 28/40/1 
f 28/40/1 2/42/1 1/41/1 
f 29/43/2 30/44/2 31/45/2 
f 31/45/2 32/46/2 29/43/2 
f 33/47/2 34/48/2 30/44/2 
f 30/44/2 29/43/2 33/47/2 
f 35/49/2 36/50/2 34/51/2 
f 34/51/2 33/52/2 35/49/2 
f 37/53/2 38/54/3 36/50/2 
f 36/50/2 35/49/2 37/53/2 
f 39/9/2 40/10/2 38/54/3 
f 38/54/3 37/53/2 39/9/2 
f 8/12/2 7/11/3 40/10/2 
f 40/10/2 39/9/2 8/12/2 
f 41/55/3 42/56/4 43/57/2 
f 43/57/2 44/58/2 41/55/3 
f 45/59/4 46/60/4 42/56/4 
f 42/56/4 41/55/3 45/59/4 
f 6/6/2 5/5/2 46/60/4 
f 46/60/4 45/59/4 6/6/2 
f 47/56/4 26/55/6 25/58/7 
f 25/58/7 48/57/8 47/56/4 
f 49/60/4 28/59/5 26/55/6 
f 26/55/6 47/56/4 49/60/4 
f 50/5/4 2/6/5 28/59/5 
f 28/59/5 49/60/4 50/5/4 
f 11/8/4 3/7/5 2/6/5 
f 2/6/5 50/5/4 11/8/4 
f 13/44/5 51/43/1 52/46/1 
f 52/46/1 14/45/5 13/44/5 
f 17/48/1 53/47/5 51/43/1 
f 51/43/1 13/44/5 17/48/1 
f 19/50/5 54/49/5 53/52/5 
f 53/52/5 17/51/1 19/50/5 
f 21/54/5 55/53/5 54/49/5 
f 54/49/5 19/50/5 21/54/5 
f 10/10/4 9/9/4 55/53/5 
f 55/53/5 21/54/5 10/10/4 
f 12/61/1 15/62/1 31/63/1 
f 31/63/1 30/64/1 12/61/1 
f 16/65/1 12/61/1 30/64/1 
f 30/64/1 34/66/1 16/65/1 
f 18/67/1 16/68/1 34/69/1 
f 34/69/1 36/70/1 18/67/1 
f 20/71/1 18/72/1 36/73/1 
f 36/73/1 38/74/1 20/71/1 
f 22/75/1 20/76/1 38/77/1 
f 38/77/1 40/78/1 22/75/1 
f 4/79/1 22/80/1 40/81/1 
f 40/81/1 7/82/1 4/79/1 
f 1/83/1 4/84/1 7/85/1 
f 7/85/1 6/86/1 1/83/1 
f 27/87/2 1/88/1 6/89/1 
f 6/89/1 45/90/1 27/87/2 
f 23/91/1 27/87/2 45/90/1 
f 45/90/1 41/92/1 23/91/1 
f 24/93/1 23/91/1 41/92/1 
f 41/92/1 44/94/1 24/93/1 
s off
f 56/95/9 57/96/9 58/97/9 
f 59/98/10 60/99/10 61/100/10 
f 62/101/11 59/102/11 63/103/11 
f 60/104/12 64/105/12 61/106/12 
f 63/107/13 59/98/13 61/100/13 
f 65/108/14 56/95/14 58/97/14 
f 66/109/15 56/110/15 65/111/15 
f 58/112/16 57/113/16 67/114/16 
f 68/115/17 69/116/17 70/117/17 
f 70/117/17 71/118/17 68/115/17 
f 72/119/18 73/120/18 74/121/18 
f 74/121/18 75/122/18 72/119/18 
f 76/123/19 77/124/19 78/125/19 
f 78/125/19 79/126/19 76/123/19 
f 80/127/20 81/128/20 82/129/20 
f 82/129/20 83/130/20 80/127/20 
f 84/131/21 85/132/21 86/133/21 
f 86/133/21 87/134/21 84/131/21 
f 85/132/18 88/135/18 89/136/18 
f 89/136/18 86/133/18 85/132/18 
f 88/135/21 72/137/21 75/138/21 
f 75/138/21 89/136/21 88/135/21 
f 90/129/22 91/139/22 92/140/22 
f 92/140/22 93/141/22 90/129/22 
f 91/139/23 94/142/23 95/143/23 
f 95/143/23 92/140/23 91/139/23 
f 94/142/22 74/121/22 73/120/22 
f 73/120/22 95/143/22 94/142/22 
f 62/144/24 96/145/24 97/146/24 
f 97/146/24 98/147/24 62/144/24 
f 96/148/25 76/123/25 79/126/25 
f 79/126/25 97/149/25 96/148/25 
f 99/150/25 100/151/25 101/152/25 
f 101/152/25 102/153/25 99/150/25 
f 100/129/19 103/154/19 104/155/19 
f 104/155/19 101/141/19 100/129/19 
f 103/154/25 78/125/25 77/124/25 
f 77/124/25 104/155/25 103/154/25 
f 105/156/26 106/157/26 107/158/26 
f 107/158/26 108/159/26 105/156/26 
f 106/129/27 68/115/27 71/118/27 
f 71/118/27 107/160/27 106/129/27 
f 102/153/28 70/117/28 69/116/28 
f 69/116/28 99/150/28 102/153/28 
f 108/159/29 109/161/29 110/162/29 
f 110/162/29 105/156/29 108/159/29 
f 109/161/30 80/127/30 83/130/30 
f 83/130/30 110/162/30 109/161/30 
f 87/134/31 82/122/31 81/163/31 
f 81/163/31 84/131/31 87/134/31 
f 66/144/32 111/145/32 112/146/32 
f 112/146/32 113/147/32 66/144/32 
f 111/148/33 62/123/33 98/126/33 
f 98/126/33 112/149/33 111/148/33 
f 114/115/28 115/118/28 116/117/28 
f 116/117/28 117/116/28 114/115/28 
f 118/119/34 119/122/34 120/121/34 
f 120/121/34 121/120/34 118/119/34 
f 122/123/35 123/126/35 124/125/35 
f 124/125/35 125/124/35 122/123/35 
f 126/127/31 127/130/31 128/129/31 
f 128/129/31 129/128/31 126/127/31 
f 130/131/36 131/134/36 132/133/36 
f 132/133/36 133/132/36 130/131/36 
f 133/132/34 132/133/34 134/136/34 
f 134/136/34 135/135/34 133/132/34 
f 135/135/36 134/136/36 119/138/36 
f 119/138/36 118/137/36 135/135/36 
f 136/129/36 137/141/36 138/140/36 
f 138/140/36 139/139/36 136/129/36 
f 139/139/34 138/140/34 140/143/34 
f 140/143/34 141/142/34 139/139/34 
f 141/142/36 140/143/36 121/120/36 
f 121/120/36 120/121/36 141/142/36 
f 66/144/37 113/147/37 142/146/37 
f 142/146/37 143/145/37 66/144/37 
f 143/148/38 142/149/38 123/126/38 
f 123/126/38 122/123/38 143/148/38 
f 144/150/38 145/153/38 146/152/38 
f 146/152/38 147/151/38 144/150/38 
f 147/129/35 146/141/35 148/155/35 
f 148/155/35 149/154/35 147/129/35 
f 149/154/38 148/155/38 125/124/38 
f 125/124/38 124/125/38 149/154/38 
f 150/156/39 151/159/39 152/158/39 
f 152/158/39 153/157/39 150/156/39 
f 153/129/40 152/160/40 115/118/40 
f 115/118/40 114/115/40 153/129/40 
f 145/153/41 144/150/41 117/116/41 
f 117/116/41 116/117/41 145/153/41 
f 151/159/42 150/156/42 154/162/42 
f 154/162/42 155/161/42 151/159/42 
f 155/161/43 154/162/43 127/130/43 
f 127/130/43 126/127/43 155/161/43 
f 131/134/44 130/131/44 129/163/44 
f 129/163/44 128/122/44 131/134/44 
f 156/115/45 157/116/45 69/117/45 
f 69/117/45 68/118/45 156/115/45 
f 75/119/46 74/120/46 158/121/46 
f 158/121/46 159/122/46 75/119/46 
f 79/123/47 78/124/47 160/125/47 
f 160/125/47 161/126/47 79/123/47 
f 83/127/48 82/128/48 162/129/48 
f 162/129/48 163/130/48 83/127/48 
f 87/131/49 86/132/49 164/133/49 
f 164/133/49 165/134/49 87/131/49 
f 86/132/46 89/135/46 166/136/46 
f 166/136/46 164/133/46 86/132/46 
f 89/135/49 75/137/49 159/138/49 
f 159/138/49 166/136/49 89/135/49 
f 48/129/50 167/139/50 91/140/50 
f 91/140/50 90/141/50 48/129/50 
f 167/139/46 168/142/46 94/143/46 
f 94/143/46 91/140/46 167/139/46 
f 168/142/49 158/121/49 74/120/49 
f 74/120/49 94/143/49 168/142/49 
f 98/144/47 97/145/47 169/146/47 
f 169/146/47 170/147/47 98/144/47 
f 97/148/51 79/123/51 161/126/51 
f 161/126/51 169/149/51 97/148/51 
f 171/150/51 172/151/51 100/152/51 
f 100/152/51 99/153/51 171/150/51 
f 172/129/47 173/154/47 103/155/47 
f 103/155/47 100/141/47 172/129/47 
f 173/154/51 160/125/51 78/124/51 
f 78/124/51 103/155/51 173/154/51 
f 174/156/52 175/157/52 106/158/52 
f 106/158/52 105/159/52 174/156/52 
f 175/129/53 156/115/53 68/118/53 
f 68/118/53 106/160/53 175/129/53 
f 99/153/54 69/117/54 157/116/54 
f 157/116/54 171/150/54 99/153/54 
f 105/159/55 110/161/55 176/162/55 
f 176/162/55 174/156/55 105/159/55 
f 110/161/56 83/127/56 163/130/56 
f 163/130/56 176/162/56 110/161/56 
f 165/134/57 162/122/57 82/163/57 
f 82/163/57 87/131/57 165/134/57 
f 113/144/58 112/145/58 177/146/58 
f 177/146/58 178/147/58 113/144/58 
f 112/148/59 98/123/59 170/126/59 
f 170/126/59 177/149/59 112/148/59 
f 179/115/54 114/118/54 117/117/54 
f 117/117/54 180/116/54 179/115/54 
f 119/119/60 181/122/60 182/121/60 
f 182/121/60 120/120/60 119/119/60 
f 123/123/61 183/126/61 184/125/61 
f 184/125/61 124/124/61 123/123/61 
f 127/127/57 185/130/57 186/129/57 
f 186/129/57 128/128/57 127/127/57 
f 131/131/62 187/134/62 188/133/62 
f 188/133/62 132/132/62 131/131/62 
f 132/132/60 188/133/60 189/136/60 
f 189/136/60 134/135/60 132/132/60 
f 134/135/62 189/136/62 181/138/62 
f 181/138/62 119/137/62 134/135/62 
f 43/129/62 136/141/62 139/140/62 
f 139/140/62 190/139/62 43/129/62 
f 190/139/60 139/140/60 141/143/60 
f 141/143/60 191/142/60 190/139/60 
f 191/142/62 141/143/62 120/120/62 
f 120/120/62 182/121/62 191/142/62 
f 113/144/63 178/147/63 192/146/63 
f 192/146/63 142/145/63 113/144/63 
f 142/148/64 192/149/64 183/126/64 
f 183/126/64 123/123/64 142/148/64 
f 193/150/64 144/153/64 147/152/64 
f 147/152/64 194/151/64 193/150/64 
f 194/129/61 147/141/61 149/155/61 
f 149/155/61 195/154/61 194/129/61 
f 195/154/64 149/155/64 124/124/64 
f 124/124/64 184/125/64 195/154/64 
f 196/156/65 150/159/65 153/158/65 
f 153/158/65 197/157/65 196/156/65 
f 197/129/66 153/160/66 114/118/66 
f 114/118/66 179/115/66 197/129/66 
f 144/153/67 193/150/67 180/116/67 
f 180/116/67 117/117/67 144/153/67 
f 150/159/68 196/156/68 198/162/68 
f 198/162/68 154/161/68 150/159/68 
f 154/161/69 198/162/69 185/130/69 
f 185/130/69 127/127/69 154/161/69 
f 187/134/70 131/131/70 128/163/70 
f 128/163/70 186/122/70 187/134/70 
s 1
f 48/164/8 199/165/71 200/166/71 
f 200/166/71 90/167/1 48/164/8 
f 199/165/71 177/168/72 201/169/72 
f 201/169/72 200/166/71 199/165/71 
f 177/168/72 202/170/72 203/171/72 
f 203/171/72 201/169/72 177/168/72 
f 202/170/72 43/172/73 136/173/73 
f 136/173/73 203/171/72 202/170/72 
f 90/167/1 200/166/71 204/174/1 
f 204/174/1 93/175/1 90/167/1 
f 200/166/71 201/169/72 205/176/1 
f 205/176/1 204/174/1 200/166/71 
f 201/169/72 203/171/72 206/177/1 
f 206/177/1 205/176/1 201/169/72 
f 203/171/72 136/173/73 137/178/1 
f 137/178/1 206/177/1 203/171/72 
s off
f 192/146/74 177/146/74 169/146/74 
f 168/142/74 48/164/74 25/179/74 
f 159/138/74 168/142/74 25/179/74 
f 164/133/74 159/138/74 25/179/74 
f 162/122/74 164/133/74 25/179/74 
f 176/162/74 162/122/74 25/179/74 
f 175/157/74 176/162/74 25/179/74 
f 157/116/74 175/157/74 25/179/74 
f 172/151/74 157/116/74 25/179/74 
f 160/125/74 172/151/74 25/179/74 
f 169/146/74 160/125/74 25/179/74 
f 192/146/74 169/146/74 25/179/74 
f 184/125/74 192/146/74 25/179/74 
f 194/151/74 184/125/74 25/179/74 
f 180/116/74 194/151/74 25/179/74 
f 197/157/74 180/116/74 25/179/74 
f 198/162/74 197/157/74 25/179/74 
f 186/122/74 198/162/74 25/179/74 
f 188/133/74 186/122/74 25/179/74 
f 181/138/74 188/133/74 25/179/74 
f 191/142/74 181/138/74 25/179/74 
f 43/180/74 191/142/74 25/179/74 
f 43/180/74 25/179/74 24/181/74 
f 43/180/74 24/181/74 44/182/74 
f 137/183/75 207/184/75 208/185/75 
f 208/185/75 93/186/75 137/183/75 
# 306 faces

