# 3ds Max Wavefront OBJ Exporter v0.97b - (c)2007 guruware
# File Created: 12.12.2016 21:20:20

#
# object Plane007
#

v  -5.0000 0.0500 32.0000
v  5.0000 0.0500 32.0000
v  5.0000 0.0500 16.0000
v  -5.0000 0.0500 16.0000
v  5.0000 0.0500 -0.0000
v  -5.0000 0.0500 -0.0000
v  5.0000 0.0500 -16.0000
v  -5.0000 0.0500 -16.0000
v  5.0000 0.0500 -32.0000
v  -5.0000 0.0500 -32.0000
v  4.7000 2.7000 32.0000
v  5.0000 2.7000 32.0000
v  5.0000 2.7000 16.0000
v  4.7000 2.7000 16.0000
v  5.0000 2.7000 -0.0000
v  4.7000 2.7000 -0.0000
v  5.0000 2.7000 -16.0000
v  4.7000 2.7000 -16.0000
v  5.0000 2.7000 -32.0000
v  4.7000 2.7000 -32.0000
v  4.7000 0.0500 32.0000
v  4.7000 0.0500 -32.0000
v  4.7000 0.0500 -16.0000
v  4.7000 0.0500 -0.0000
v  4.7000 0.0500 16.0000
v  -5.0000 2.7000 32.0000
v  -4.7000 2.7000 32.0000
v  -4.7000 2.7000 16.0000
v  -5.0000 2.7000 16.0000
v  -4.7000 2.7000 -0.0000
v  -5.0000 2.7000 -0.0000
v  -4.7000 2.7000 -16.0000
v  -5.0000 2.7000 -16.0000
v  -4.7000 2.7000 -32.0000
v  -5.0000 2.7000 -32.0000
v  -4.7000 0.0500 32.0000
v  -4.7000 0.0500 16.0000
v  -4.7000 0.0500 -0.0000
v  -4.7000 0.0500 -16.0000
v  -4.7000 0.0500 -32.0000
# 40 vertices

vn 0.0000 1.0000 -0.0000
vn 0.0000 0.0000 1.0000
vn 1.0000 0.0000 -0.0000
vn 0.0000 0.0000 -1.0000
vn -1.0000 0.0000 -0.0000
# 5 vertex normals

vt 0.1154 0.0000 0.0000
vt 0.8805 0.0000 0.0000
vt 0.8805 0.2500 0.0000
vt 0.1154 0.2500 0.0000
vt 0.8805 0.5000 0.0000
vt 0.1154 0.5000 0.0000
vt 0.8805 0.7500 0.0000
vt 0.1154 0.7500 0.0000
vt 0.8805 1.0000 0.0000
vt 0.1154 1.0000 0.0000
vt 0.0000 1.3175 0.0000
vt 1.0000 1.3175 0.0000
vt 1.0000 1.5675 0.0000
vt 0.0000 1.5675 0.0000
vt 0.0000 0.2500 0.0000
vt 1.0000 0.2500 0.0000
vt 1.0000 0.5000 0.0000
vt 0.0000 0.5000 0.0000
vt 1.0000 0.7500 0.0000
vt 0.0000 0.7500 0.0000
vt 1.0000 1.0000 0.0000
vt 0.0000 1.0000 0.0000
vt 0.9860 0.0000 0.0000
vt 0.9860 1.0000 0.0000
vt 0.9228 1.0000 0.0000
vt 0.9228 0.0000 0.0000
vt 0.9860 0.2500 0.0000
vt 0.9228 0.2500 0.0000
vt 0.9860 0.5000 0.0000
vt 0.9228 0.5000 0.0000
vt 0.9860 0.7500 0.0000
vt 0.9228 0.7500 0.0000
vt 0.0000 0.0000 0.0000
vt 1.0000 0.0000 0.0000
# 34 texture coords

g Plane007
s 1
f 1/1/1 2/2/1 3/3/1 
f 3/3/1 4/4/1 1/1/1 
f 4/4/1 3/3/1 5/5/1 
f 5/5/1 6/6/1 4/4/1 
f 6/6/1 5/5/1 7/7/1 
f 7/7/1 8/8/1 6/6/1 
f 8/8/1 7/7/1 9/9/1 
f 9/9/1 10/10/1 8/8/1 
s 4
f 11/11/1 12/12/1 13/13/1 
f 13/13/1 14/14/1 11/11/1 
f 14/15/1 13/16/1 15/17/1 
f 15/17/1 16/18/1 14/15/1 
f 16/18/1 15/17/1 17/19/1 
f 17/19/1 18/20/1 16/18/1 
f 18/20/1 17/19/1 19/21/1 
f 19/21/1 20/22/1 18/20/1 
s 8
f 21/23/2 2/24/2 12/25/2 
f 12/25/2 11/26/2 21/23/2 
s 16
f 2/23/3 3/27/3 13/28/3 
f 13/28/3 12/26/3 2/23/3 
f 3/27/3 5/29/3 15/30/3 
f 15/30/3 13/28/3 3/27/3 
f 5/29/3 7/31/3 17/32/3 
f 17/32/3 15/30/3 5/29/3 
f 7/31/3 9/24/3 19/25/3 
f 19/25/3 17/32/3 7/31/3 
s 32
f 9/23/4 22/24/4 20/25/4 
f 20/25/4 19/26/4 9/23/4 
s 64
f 22/23/5 23/27/5 18/28/5 
f 18/28/5 20/26/5 22/23/5 
f 23/27/5 24/29/5 16/30/5 
f 16/30/5 18/28/5 23/27/5 
f 24/29/5 25/31/5 14/32/5 
f 14/32/5 16/30/5 24/29/5 
f 25/31/5 21/24/5 11/25/5 
f 11/25/5 14/32/5 25/31/5 
s 4
f 26/33/1 27/34/1 28/16/1 
f 28/16/1 29/15/1 26/33/1 
f 29/15/1 28/16/1 30/17/1 
f 30/17/1 31/18/1 29/15/1 
f 31/18/1 30/17/1 32/19/1 
f 32/19/1 33/20/1 31/18/1 
f 33/20/1 32/19/1 34/21/1 
f 34/21/1 35/22/1 33/20/1 
s 8
f 1/23/2 36/24/2 27/25/2 
f 27/25/2 26/26/2 1/23/2 
s 16
f 36/23/3 37/27/3 28/28/3 
f 28/28/3 27/26/3 36/23/3 
f 37/27/3 38/29/3 30/30/3 
f 30/30/3 28/28/3 37/27/3 
f 38/29/3 39/31/3 32/32/3 
f 32/32/3 30/30/3 38/29/3 
f 39/31/3 40/24/3 34/25/3 
f 34/25/3 32/32/3 39/31/3 
s 32
f 40/23/4 10/24/4 35/25/4 
f 35/25/4 34/26/4 40/23/4 
s 64
f 10/23/5 8/27/5 33/28/5 
f 33/28/5 35/26/5 10/23/5 
f 8/27/5 6/29/5 31/30/5 
f 31/30/5 33/28/5 8/27/5 
f 6/29/5 4/31/5 29/32/5 
f 29/32/5 31/30/5 6/29/5 
f 4/31/5 1/24/5 26/25/5 
f 26/25/5 29/32/5 4/31/5 
# 64 faces

