# 3ds Max Wavefront OBJ Exporter v0.97b - (c)2007 guruware
# File Created: 15.11.2016 23:20:09

#
# object Plane008
#

v  -8.0000 -3.1650 -0.0000
v  -5.0000 0.0500 -0.0000
v  -5.0000 0.0500 -5.3333
v  -8.0000 -3.1650 -5.3333
v  8.0000 -3.1650 -0.0000
v  5.0000 0.0500 -0.0000
v  5.0000 0.0500 5.3333
v  8.0000 -3.1650 5.3333
v  -8.0000 -3.1650 32.0000
v  -5.0000 0.0500 32.0000
v  -5.0000 0.0500 26.6667
v  -8.0000 -3.1650 26.6667
v  -5.0000 0.0500 21.3333
v  -8.0000 -3.1650 21.3333
v  -5.0000 0.0500 16.0000
v  -8.0000 -3.1650 16.0000
v  -5.0000 0.0500 10.6667
v  -8.0000 -3.1650 10.6667
v  -5.0000 0.0500 5.3333
v  -8.0000 -3.1650 5.3333
v  -5.0000 0.0500 -32.0000
v  -8.0000 -3.1650 -32.0000
v  -8.0000 -3.1650 -26.6667
v  -5.0000 0.0500 -26.6667
v  -8.0000 -3.1650 -21.3333
v  -5.0000 0.0500 -21.3333
v  -8.0000 -3.1650 -16.0000
v  -5.0000 0.0500 -16.0000
v  -8.0000 -3.1650 -10.6667
v  -5.0000 0.0500 -10.6667
v  8.0000 -3.1650 -32.0000
v  5.0000 0.0500 -32.0000
v  5.0000 0.0500 -26.6667
v  8.0000 -3.1650 -26.6667
v  5.0000 0.0500 -21.3333
v  8.0000 -3.1650 -21.3333
v  5.0000 0.0500 -16.0000
v  8.0000 -3.1650 -16.0000
v  5.0000 0.0500 -10.6667
v  8.0000 -3.1650 -10.6667
v  5.0000 0.0500 -5.3333
v  8.0000 -3.1650 -5.3333
v  5.0000 0.0500 32.0000
v  8.0000 -3.1650 32.0000
v  8.0000 -3.1650 26.6667
v  5.0000 0.0500 26.6667
v  8.0000 -3.1650 21.3333
v  5.0000 0.0500 21.3333
v  8.0000 -3.1650 16.0000
v  5.0000 0.0500 16.0000
v  8.0000 -3.1650 10.6667
v  5.0000 0.0500 10.6667
v  -3.0000 0.0500 5.3333
v  -3.0000 0.0500 -0.0000
v  -3.0000 0.0500 10.6667
v  -3.0000 0.0500 16.0000
v  -3.0000 0.0500 21.3333
v  -3.0000 0.0500 26.6667
v  3.0000 0.0500 26.6667
v  3.0000 0.0500 32.0000
v  -3.0000 0.0500 -5.3333
v  3.0000 0.0500 -10.6667
v  3.0000 0.0500 -5.3333
v  3.0000 0.0500 -16.0000
v  3.0000 0.0500 -21.3333
v  3.0000 0.0500 -26.6667
v  -3.0000 0.0500 -26.6667
v  -3.0000 0.0500 -32.0000
v  -3.0000 0.0500 32.0000
v  0.0000 0.0500 32.0000
v  0.0000 0.0500 26.6667
v  3.0000 0.0500 -0.0000
v  3.0000 0.0500 5.3333
v  3.0000 0.0500 10.6667
v  3.0000 0.0500 16.0000
v  3.0000 0.0500 21.3333
v  0.0000 0.0500 -10.6667
v  0.0000 0.0500 -5.3333
v  0.0000 0.0500 -16.0000
v  0.0000 0.0500 -21.3333
v  0.0000 0.0500 -26.6667
v  3.0000 0.0500 -32.0000
v  0.0000 0.0500 5.3333
v  0.0000 0.0500 -0.0000
v  0.0000 0.0500 10.6667
v  0.0000 0.0500 16.0000
v  0.0000 0.0500 21.3333
v  0.0000 0.0500 -32.0000
v  -3.0000 0.0500 -10.6667
v  -3.0000 0.0500 -16.0000
v  -3.0000 0.0500 -21.3333
v  3.0000 -0.5000 32.0000
v  5.0000 -0.5000 32.0000
v  -3.0000 -0.5000 32.0000
v  0.0000 -0.5000 32.0000
v  0.5834 0.7580 -32.0062
v  0.3602 0.7579 -32.0063
v  0.3602 0.7578 -26.6688
v  0.5834 0.7580 -26.6687
v  0.3602 0.4522 -21.3365
v  0.5834 0.4524 -21.3359
v  0.3664 0.4522 -32.0031
v  0.3602 0.4522 -26.6698
v  0.5766 0.4522 -32.0031
v  0.5834 0.4524 -26.6687
v  -0.3603 0.7577 -32.0000
v  -0.5835 0.7578 -32.0000
v  -0.5835 0.7580 -26.6646
v  -0.3603 0.7578 -26.6646
v  -0.5835 0.4524 -21.3308
v  -0.3668 0.4521 -31.9969
v  -0.3603 0.4522 -26.6635
v  -0.3603 0.4522 -21.3302
v  -0.5772 0.4522 -31.9969
v  -0.5835 0.4524 -26.6646
v  -0.5624 -0.3000 -26.1869
v  -0.3865 -0.3000 -26.1869
v  -0.3865 0.4520 -26.1869
v  -0.5624 0.4520 -26.1869
v  -0.3865 -0.3000 -26.3869
v  -0.5624 -0.3000 -26.3869
v  -0.5624 0.4520 -26.3869
v  -0.3865 0.4520 -26.3869
v  0.3858 -0.3000 -26.1869
v  0.5617 -0.3000 -26.1869
v  0.5617 0.4520 -26.1869
v  0.3858 0.4520 -26.1869
v  0.5617 -0.3000 -26.3869
v  0.3858 -0.3000 -26.3869
v  0.3858 0.4520 -26.3869
v  0.5617 0.4520 -26.3869
v  -5.0000 -0.5000 32.0000
# 132 vertices

vn -0.7258 0.6879 -0.0000
vn -0.4403 0.8979 -0.0000
vn -0.3950 0.9187 -0.0000
vn 0.7258 0.6879 -0.0000
vn 0.3950 0.9187 -0.0000
vn 0.5214 0.8533 -0.0000
vn 0.0000 1.0000 -0.0000
vn 0.0995 0.9950 -0.0000
vn 0.0000 0.0000 1.0000
vn -0.0004 1.0000 -0.0000
vn -0.0009 1.0000 -0.0000
vn -0.0010 0.9984 0.0572
vn -0.9998 -0.0203 -0.0012
vn -1.0000 0.0000 -0.0000
vn 0.9998 -0.0222 -0.0000
vn 1.0000 0.0000 -0.0013
vn 0.0004 1.0000 -0.0000
vn 0.0009 0.9984 0.0572
vn 0.9998 -0.0213 -0.0000
vn 1.0000 0.0000 -0.0000
vn -0.9998 -0.0206 -0.0012
vn 0.0007 0.9984 0.0572
vn -0.0009 0.9984 0.0572
vn 0.0009 1.0000 -0.0000
vn 1.0000 0.0000 -0.0012
vn 0.0000 0.0000 -1.0000
# 26 vertex normals

vt 0.1216 0.5000 0.0000
vt 0.1365 0.5000 0.0000
vt 0.1365 0.5833 0.0000
vt 0.1216 0.5833 0.0000
vt 0.1365 0.4167 0.0000
vt 0.1216 0.4167 0.0000
vt 0.1216 -0.0000 0.0000
vt 0.1365 -0.0000 0.0000
vt 0.1365 0.0833 0.0000
vt 0.1216 0.0833 0.0000
vt 0.1365 0.1667 0.0000
vt 0.1216 0.1667 0.0000
vt 0.1365 0.2500 0.0000
vt 0.1216 0.2500 0.0000
vt 0.1365 0.3333 0.0000
vt 0.1216 0.3333 0.0000
vt 0.1365 1.0000 0.0000
vt 0.1216 1.0000 0.0000
vt 0.1216 0.9167 0.0000
vt 0.1365 0.9167 0.0000
vt 0.1216 0.8333 0.0000
vt 0.1365 0.8333 0.0000
vt 0.1216 0.7500 0.0000
vt 0.1365 0.7500 0.0000
vt 0.1216 0.6667 0.0000
vt 0.1365 0.6667 0.0000
vt 0.1196 0.4167 0.0000
vt 0.3104 0.4167 0.0000
vt 0.3104 0.5000 0.0000
vt 0.1196 0.5000 0.0000
vt 0.1196 0.3333 0.0000
vt 0.3104 0.3333 0.0000
vt 0.1196 0.2500 0.0000
vt 0.3104 0.2500 0.0000
vt 0.1196 0.1667 0.0000
vt 0.3104 0.1667 0.0000
vt 0.1196 0.0833 0.0000
vt 0.3104 0.0833 0.0000
vt 0.6919 0.0833 0.0000
vt 0.6919 0.0000 0.0000
vt 0.8826 0.0000 0.0000
vt 0.8826 0.0833 0.0000
vt 0.3104 0.5833 0.0000
vt 0.1196 0.5833 0.0000
vt 0.8826 0.6667 0.0000
vt 0.6919 0.6667 0.0000
vt 0.6919 0.5833 0.0000
vt 0.8826 0.5833 0.0000
vt 0.8826 0.7500 0.0000
vt 0.6919 0.7500 0.0000
vt 0.8826 0.8333 0.0000
vt 0.6919 0.8333 0.0000
vt 0.8826 0.9167 0.0000
vt 0.6919 0.9167 0.0000
vt 0.3104 0.9167 0.0000
vt 0.3104 1.0000 0.0000
vt 0.1196 1.0000 0.0000
vt 0.1196 0.9167 0.0000
vt 0.3104 0.0000 0.0000
vt 0.5011 0.0000 0.0000
vt 0.5011 0.0833 0.0000
vt 0.8826 0.4167 0.0000
vt 0.8826 0.5000 0.0000
vt 0.6919 0.5000 0.0000
vt 0.6919 0.4167 0.0000
vt 0.8826 0.3333 0.0000
vt 0.6919 0.3333 0.0000
vt 0.8826 0.2500 0.0000
vt 0.6919 0.2500 0.0000
vt 0.8826 0.1667 0.0000
vt 0.6919 0.1667 0.0000
vt 0.5011 0.6667 0.0000
vt 0.5011 0.5833 0.0000
vt 0.5011 0.7500 0.0000
vt 0.5011 0.8333 0.0000
vt 0.5011 0.9167 0.0000
vt 0.8826 1.0000 0.0000
vt 0.6919 1.0000 0.0000
vt 0.5011 0.4167 0.0000
vt 0.5011 0.5000 0.0000
vt 0.5011 0.3333 0.0000
vt 0.5011 0.2500 0.0000
vt 0.5011 0.1667 0.0000
vt 0.5011 1.0000 0.0000
vt 0.1196 0.0000 0.0000
vt 0.1196 0.6667 0.0000
vt 0.3104 0.6667 0.0000
vt 0.1196 0.7500 0.0000
vt 0.3104 0.7500 0.0000
vt 0.1196 0.8333 0.0000
vt 0.3104 0.8333 0.0000
vt 0.0809 0.2500 0.0000
vt -0.0000 0.2500 0.0000
vt 0.0000 0.0000 0.0000
vt 0.0809 0.0000 0.0000
vt 0.0809 0.7500 0.0000
vt -0.0000 0.7500 0.0000
vt -0.0000 0.5000 0.0000
vt 0.0809 0.5000 0.0000
vt 0.8927 0.0047 0.0000
vt 0.9128 0.0047 0.0000
vt 0.9128 0.0880 0.0000
vt 0.8927 0.0881 0.0000
vt 0.9128 0.1714 0.0000
vt 0.8927 0.1715 0.0000
vt 0.9208 1.0000 0.0000
vt 0.8864 1.0000 0.0000
vt 0.8864 0.9167 0.0000
vt 0.9208 0.9166 0.0000
vt 0.9209 0.0000 0.0000
vt 0.9553 0.0000 0.0000
vt 0.9553 0.0833 0.0000
vt 0.9209 0.0834 0.0000
vt 0.9128 0.9938 0.0000
vt 0.8927 0.9938 0.0000
vt 0.8927 0.9215 0.0000
vt 0.9128 0.9214 0.0000
vt 0.8927 0.8381 0.0000
vt 0.8864 0.0000 0.0000
vt 0.9208 0.0000 0.0000
vt 0.9208 0.0832 0.0000
vt 0.8864 0.0833 0.0000
vt 0.9036 0.1666 0.0000
vt 0.9553 1.0000 0.0000
vt 0.9209 1.0000 0.0000
vt 0.9209 0.9168 0.0000
vt 0.9553 0.9167 0.0000
vt 0.9381 0.8334 0.0000
vt 0.9128 0.8380 0.0000
vt 0.9036 0.8332 0.0000
vt 0.9381 0.1668 0.0000
vt 0.9527 0.4991 0.0000
vt 0.9527 0.7472 0.0000
vt 0.9226 0.7472 0.0000
vt 0.9226 0.4991 0.0000
vt 0.9527 0.7473 0.0000
vt 0.9226 0.7473 0.0000
vt 0.0809 1.0000 0.0000
vt -0.0000 1.0000 0.0000
# 139 texture coords

g Plane008
s off
f 1/1/1 2/2/2 3/3/3 
f 3/3/3 4/4/1 1/1/1 
f 5/1/4 6/2/5 7/5/5 
f 7/5/5 8/6/4 5/1/4 
f 9/7/1 10/8/1 11/9/1 
f 11/9/1 12/10/1 9/7/1 
f 12/10/1 11/9/1 13/11/3 
f 13/11/3 14/12/1 12/10/1 
f 14/12/1 13/11/3 15/13/3 
f 15/13/3 16/14/1 14/12/1 
f 16/14/1 15/13/3 17/15/3 
f 17/15/3 18/16/1 16/14/1 
f 18/16/1 17/15/3 19/5/3 
f 19/5/3 20/6/1 18/16/1 
f 20/6/1 19/5/3 2/2/2 
f 2/2/2 1/1/1 20/6/1 
f 21/17/1 22/18/1 23/19/1 
f 23/19/1 24/20/1 21/17/1 
f 24/20/1 23/19/1 25/21/1 
f 25/21/1 26/22/3 24/20/1 
f 26/22/3 25/21/1 27/23/1 
f 27/23/1 28/24/3 26/22/3 
f 28/24/3 27/23/1 29/25/1 
f 29/25/1 30/26/3 28/24/3 
f 30/26/3 29/25/1 4/4/1 
f 4/4/1 3/3/3 30/26/3 
f 31/18/4 32/17/4 33/20/4 
f 33/20/4 34/19/4 31/18/4 
f 34/19/4 33/20/4 35/22/5 
f 35/22/5 36/21/4 34/19/4 
f 36/21/4 35/22/5 37/24/5 
f 37/24/5 38/23/4 36/21/4 
f 38/23/4 37/24/5 39/26/5 
f 39/26/5 40/25/4 38/23/4 
f 40/25/4 39/26/5 41/3/4 
f 41/3/4 42/4/4 40/25/4 
f 42/4/4 41/3/4 6/2/5 
f 6/2/5 5/1/4 42/4/4 
f 43/8/4 44/7/4 45/10/4 
f 45/10/4 46/9/6 43/8/4 
f 46/9/6 45/10/4 47/12/4 
f 47/12/4 48/11/5 46/9/6 
f 48/11/5 47/12/4 49/14/4 
f 49/14/4 50/13/5 48/11/5 
f 50/13/5 49/14/4 51/16/4 
f 51/16/4 52/15/5 50/13/5 
f 52/15/5 51/16/4 8/6/4 
f 8/6/4 7/5/5 52/15/5 
f 19/27/3 53/28/7 54/29/7 
f 54/29/7 2/30/7 19/27/3 
f 17/31/3 55/32/7 53/28/7 
f 53/28/7 19/27/3 17/31/3 
f 15/33/3 56/34/7 55/32/7 
f 55/32/7 17/31/3 15/33/3 
f 13/35/3 57/36/7 56/34/7 
f 56/34/7 15/33/3 13/35/3 
f 11/37/7 58/38/7 57/36/7 
f 57/36/7 13/35/7 11/37/7 
f 59/39/7 60/40/7 43/41/7 
f 43/41/7 46/42/8 59/39/7 
f 2/30/7 54/29/7 61/43/7 
f 61/43/7 3/44/3 2/30/7 
f 39/45/5 62/46/7 63/47/7 
f 63/47/7 41/48/7 39/45/5 
f 37/49/5 64/50/7 62/46/7 
f 62/46/7 39/45/5 37/49/5 
f 35/51/5 65/52/7 64/50/7 
f 64/50/7 37/49/5 35/51/5 
f 33/53/7 66/54/7 65/52/7 
f 65/52/7 35/51/5 33/53/7 
f 67/55/7 68/56/7 21/57/7 
f 21/57/7 24/58/7 67/55/7 
f 58/38/7 69/59/7 70/60/7 
f 70/60/7 71/61/7 58/38/7 
f 7/62/7 6/63/7 72/64/7 
f 72/64/7 73/65/7 7/62/7 
f 52/66/7 7/62/7 73/65/7 
f 73/65/7 74/67/7 52/66/7 
f 50/68/7 52/66/7 74/67/7 
f 74/67/7 75/69/7 50/68/7 
f 48/70/7 50/68/7 75/69/7 
f 75/69/7 76/71/7 48/70/7 
f 46/42/7 48/70/7 76/71/7 
f 76/71/7 59/39/7 46/42/7 
f 71/61/7 70/60/7 60/40/7 
f 60/40/7 59/39/7 71/61/7 
f 6/63/7 41/48/7 63/47/7 
f 63/47/7 72/64/7 6/63/7 
f 77/72/7 78/73/7 63/47/7 
f 63/47/7 62/46/7 77/72/7 
f 79/74/7 77/72/7 62/46/7 
f 62/46/7 64/50/7 79/74/7 
f 80/75/7 79/74/7 64/50/7 
f 64/50/7 65/52/7 80/75/7 
f 81/76/7 80/75/7 65/52/7 
f 65/52/7 66/54/7 81/76/7 
f 33/53/7 32/77/7 82/78/7 
f 82/78/7 66/54/7 33/53/7 
f 83/79/7 84/80/7 54/29/7 
f 54/29/7 53/28/7 83/79/7 
f 85/81/7 83/79/7 53/28/7 
f 53/28/7 55/32/7 85/81/7 
f 86/82/7 85/81/7 55/32/7 
f 55/32/7 56/34/7 86/82/7 
f 87/83/7 86/82/7 56/34/7 
f 56/34/7 57/36/7 87/83/7 
f 71/61/7 87/83/7 57/36/7 
f 57/36/7 58/38/7 71/61/7 
f 84/80/7 78/73/7 61/43/7 
f 61/43/7 54/29/7 84/80/7 
f 81/76/7 88/84/7 68/56/7 
f 68/56/7 67/55/7 81/76/7 
f 11/37/7 10/85/7 69/59/7 
f 69/59/7 58/38/7 11/37/7 
f 30/86/7 3/44/7 61/43/7 
f 61/43/7 89/87/7 30/86/7 
f 28/88/7 30/86/7 89/87/7 
f 89/87/7 90/89/7 28/88/7 
f 26/90/7 28/88/7 90/89/7 
f 90/89/7 91/91/7 26/90/7 
f 24/58/7 26/90/7 91/91/7 
f 91/91/7 67/55/7 24/58/7 
f 89/87/7 61/43/7 78/73/7 
f 78/73/7 77/72/7 89/87/7 
f 90/89/7 89/87/7 77/72/7 
f 77/72/7 79/74/7 90/89/7 
f 91/91/7 90/89/7 79/74/7 
f 79/74/7 80/75/7 91/91/7 
f 67/55/7 91/91/7 80/75/7 
f 80/75/7 81/76/7 67/55/7 
f 73/65/7 72/64/7 84/80/7 
f 84/80/7 83/79/7 73/65/7 
f 74/67/7 73/65/7 83/79/7 
f 83/79/7 85/81/7 74/67/7 
f 75/69/7 74/67/7 85/81/7 
f 85/81/7 86/82/7 75/69/7 
f 76/71/7 75/69/7 86/82/7 
f 86/82/7 87/83/7 76/71/7 
f 59/39/7 76/71/7 87/83/7 
f 87/83/7 71/61/7 59/39/7 
f 72/64/7 63/47/7 78/73/7 
f 78/73/7 84/80/7 72/64/7 
f 66/54/7 82/78/7 88/84/7 
f 88/84/7 81/76/7 66/54/7 
f 60/92/9 92/93/9 93/94/7 
f 93/94/7 43/95/9 60/92/9 
f 69/96/9 94/97/9 95/98/9 
f 95/98/9 70/99/9 69/96/9 
f 96/100/10 97/101/10 98/102/10 
f 98/102/11 99/103/11 96/100/11 
f 100/104/12 101/105/12 99/103/12 
f 97/106/13 102/107/13 103/108/13 
f 103/108/14 98/109/14 97/106/14 
f 104/110/15 96/111/15 99/112/15 
f 99/112/16 105/113/16 104/110/16 
f 106/114/17 107/115/17 108/116/17 
f 109/117/18 108/116/18 110/118/18 
f 111/119/19 106/120/19 109/121/19 
f 112/122/20 109/121/20 113/123/20 
f 107/124/21 114/125/21 115/126/21 
f 108/127/14 115/126/14 110/128/14 
f 113/129/22 109/117/22 110/118/22 
f 98/102/23 100/104/23 99/103/23 
f 103/108/14 100/130/14 98/109/14 
f 99/112/20 101/131/20 105/113/20 
f 109/117/24 106/114/24 108/116/24 
f 112/122/25 111/119/25 109/121/25 
f 108/127/14 107/124/14 115/126/14 
f 116/132/9 117/133/9 118/134/9 
f 118/134/9 119/135/9 116/132/9 
f 120/132/26 121/133/26 122/134/26 
f 122/134/26 123/135/26 120/132/26 
f 120/132/20 123/136/20 118/137/20 
f 118/137/20 117/135/20 120/132/20 
f 116/132/14 119/136/14 122/137/14 
f 122/137/14 121/135/14 116/132/14 
f 124/132/9 125/133/9 126/134/9 
f 126/134/9 127/135/9 124/132/9 
f 128/132/26 129/133/26 130/134/26 
f 130/134/26 131/135/26 128/132/26 
f 128/132/20 131/136/20 126/137/20 
f 126/137/20 125/135/20 128/132/20 
f 124/132/14 127/136/14 130/137/14 
f 130/137/14 129/135/14 124/132/14 
f 70/99/9 95/98/9 92/93/9 
f 92/93/9 60/92/9 70/99/9 
f 10/138/9 132/139/9 94/97/9 
f 94/97/9 69/96/9 10/138/9 
# 188 faces

