# 3ds Max Wavefront OBJ Exporter v0.97b - (c)2007 guruware
# File Created: 10.09.2016 07:56:24

#
# object Plane012
#

v  -3.0000 0.0000 32.0000
v  -3.0000 0.0000 -0.0000
v  -5.0000 0.0000 -0.0000
v  -5.0000 0.0000 32.0000
v  -3.0000 0.0000 -32.0000
v  -5.0000 0.0000 -32.0000
v  -5.0000 -0.3000 32.0000
v  -3.0000 -0.3000 32.0000
v  3.0000 0.0000 32.0000
v  3.0000 0.0000 -0.0000
v  0.0000 0.0000 -0.0000
v  0.0000 0.0000 32.0000
v  3.0000 0.0000 -32.0000
v  0.0000 0.0000 -32.0000
v  3.0000 -0.3000 32.0000
v  -0.0000 -0.3000 32.0000
v  5.0000 0.0000 32.0000
v  5.0000 0.0000 -0.0000
v  5.0000 0.0000 -32.0000
v  5.0000 -0.3000 32.0000
# 20 vertices

vn 0.0000 1.0000 -0.0000
vn 0.0000 -0.0000 1.0000
vn -0.0000 -0.0000 1.0000
vn 0.0000 0.0000 1.0000
# 4 vertex normals

vt 0.2684 0.0000 0.0000
vt 0.2684 0.5000 0.0000
vt 0.1154 0.5000 0.0000
vt 0.1154 0.0000 0.0000
vt 0.2684 1.0000 0.0000
vt 0.1154 1.0000 0.0000
vt 1.0000 1.0000 1.0000
vt 0.7275 0.0000 0.0000
vt 0.7275 0.5000 0.0000
vt 0.4980 0.5000 0.0000
vt 0.4980 0.0000 0.0000
vt 0.7275 1.0000 0.0000
vt 0.4980 1.0000 0.0000
vt 0.8805 0.0000 0.0000
vt 0.8805 0.5000 0.0000
vt 0.8805 1.0000 0.0000
# 16 texture coords

g Plane012
s 1
f 1/1/1 2/2/1 3/3/1 
f 3/3/1 4/4/1 1/1/1 
f 2/2/1 5/5/1 6/6/1 
f 6/6/1 3/3/1 2/2/1 
s off
f 7/7/2 8/7/2 1/1/2 
f 1/1/2 4/4/2 7/7/2 
s 1
f 9/8/1 10/9/1 11/10/1 
f 11/10/1 12/11/1 9/8/1 
f 10/9/1 13/12/1 14/13/1 
f 14/13/1 11/10/1 10/9/1 
s off
f 15/7/3 9/8/3 12/11/3 
f 12/11/3 16/7/3 15/7/3 
s 1
f 17/14/1 18/15/1 10/9/1 
f 10/9/1 9/8/1 17/14/1 
f 18/15/1 19/16/1 13/12/1 
f 13/12/1 10/9/1 18/15/1 
s off
f 20/7/4 17/14/4 9/8/4 
f 9/8/4 15/7/4 20/7/4 
s 1
f 12/11/1 11/10/1 2/2/1 
f 2/2/1 1/1/1 12/11/1 
f 11/10/1 14/13/1 5/5/1 
f 5/5/1 2/2/1 11/10/1 
s off
f 16/7/3 12/11/3 1/1/3 
f 1/1/3 8/7/3 16/7/3 
# 24 faces

