# 3ds Max Wavefront OBJ Exporter v0.97b - (c)2007 guruware
# File Created: 04.11.2016 17:46:50

#
# object Plane013
#

v  -3.0000 0.0000 32.0000
v  -3.0000 0.0000 -0.0000
v  -5.0000 0.0000 -0.0000
v  -5.0000 0.0000 32.0000
v  -3.0000 0.0000 -32.0000
v  -5.0000 0.0000 -32.0000
v  3.0000 0.0000 32.0000
v  3.0000 0.0000 -0.0000
v  0.0000 0.0000 -0.0000
v  0.0000 0.0000 32.0000
v  3.0000 0.0000 -32.0000
v  0.0000 0.0000 -32.0000
v  5.0000 0.0000 32.0000
v  5.0000 0.0000 -0.0000
v  5.0000 0.0000 -32.0000
v  4.7000 2.6500 32.0000
v  5.0000 2.6500 32.0000
v  5.0000 2.6500 -0.0000
v  4.7000 2.6500 -0.0000
v  5.0000 2.6500 -32.0000
v  4.7000 2.6500 -32.0000
v  4.7000 0.0000 32.0000
v  4.7000 0.0000 -32.0000
v  4.7000 0.0000 -0.0000
v  -5.0000 2.6500 32.0000
v  -4.7000 2.6500 32.0000
v  -4.7000 2.6500 -0.0000
v  -5.0000 2.6500 -0.0000
v  -4.7000 2.6500 -32.0000
v  -5.0000 2.6500 -32.0000
v  -4.7000 0.0000 32.0000
v  -4.7000 0.0000 -0.0000
v  -4.7000 0.0000 -32.0000
# 33 vertices

vn 0.0000 1.0000 -0.0000
vn 0.0000 0.0000 1.0000
vn 1.0000 0.0000 -0.0000
vn 0.0000 0.0000 -1.0000
vn -1.0000 0.0000 -0.0000
# 5 vertex normals

vt 0.2677 0.0000 0.0000
vt 0.2677 0.5000 0.0000
vt 0.1175 0.5000 0.0000
vt 0.1175 0.0000 0.0000
vt 0.2677 1.0000 0.0000
vt 0.1175 1.0000 0.0000
vt 0.7182 0.0000 0.0000
vt 0.7182 0.5000 0.0000
vt 0.4929 0.5000 0.0000
vt 0.4929 0.0000 0.0000
vt 0.7182 1.0000 0.0000
vt 0.4929 1.0000 0.0000
vt 0.8684 0.0000 0.0000
vt 0.8684 0.5000 0.0000
vt 0.8684 1.0000 0.0000
vt 0.0000 1.3175 0.0000
vt 1.0000 1.3175 0.0000
vt 1.0000 1.8175 0.0000
vt 0.0000 1.8175 0.0000
vt 0.0000 0.5000 0.0000
vt 1.0000 0.5000 0.0000
vt 1.0000 1.0000 0.0000
vt 0.0000 1.0000 0.0000
vt 0.9860 0.0000 0.0000
vt 0.9860 1.0000 0.0000
vt 0.9228 1.0000 0.0000
vt 0.9228 0.0000 0.0000
vt 0.9860 0.5000 0.0000
vt 0.9228 0.5000 0.0000
vt 0.0000 0.0000 0.0000
vt 1.0000 0.0000 0.0000
# 31 texture coords

g Plane013
s off
f 1/1/1 2/2/1 3/3/1 
f 3/3/1 4/4/1 1/1/1 
f 2/2/1 5/5/1 6/6/1 
f 6/6/1 3/3/1 2/2/1 
f 7/7/1 8/8/1 9/9/1 
f 9/9/1 10/10/1 7/7/1 
f 8/8/1 11/11/1 12/12/1 
f 12/12/1 9/9/1 8/8/1 
f 13/13/1 14/14/1 8/8/1 
f 8/8/1 7/7/1 13/13/1 
f 14/14/1 15/15/1 11/11/1 
f 11/11/1 8/8/1 14/14/1 
f 10/10/1 9/9/1 2/2/1 
f 2/2/1 1/1/1 10/10/1 
f 9/9/1 12/12/1 5/5/1 
f 5/5/1 2/2/1 9/9/1 
f 16/16/1 17/17/1 18/18/1 
f 18/18/1 19/19/1 16/16/1 
f 19/20/1 18/21/1 20/22/1 
f 20/22/1 21/23/1 19/20/1 
f 22/24/2 13/25/2 17/26/2 
f 17/26/2 16/27/2 22/24/2 
f 13/24/3 14/28/3 18/29/3 
f 18/29/3 17/27/3 13/24/3 
f 14/28/3 15/25/3 20/26/3 
f 20/26/3 18/29/3 14/28/3 
f 15/24/4 23/25/4 21/26/4 
f 21/26/4 20/27/4 15/24/4 
f 24/28/5 19/29/5 21/27/5 
f 21/27/5 23/24/5 24/28/5 
f 22/25/5 16/26/5 19/29/5 
f 19/29/5 24/28/5 22/25/5 
f 25/30/1 26/31/1 27/21/1 
f 27/21/1 28/20/1 25/30/1 
f 28/20/1 27/21/1 29/22/1 
f 29/22/1 30/23/1 28/20/1 
f 4/24/2 31/25/2 26/26/2 
f 26/26/2 25/27/2 4/24/2 
f 31/24/3 32/28/3 27/29/3 
f 27/29/3 26/27/3 31/24/3 
f 32/28/3 33/25/3 29/26/3 
f 29/26/3 27/29/3 32/28/3 
f 33/24/4 6/25/4 30/26/4 
f 30/26/4 29/27/4 33/24/4 
f 3/28/5 28/29/5 30/27/5 
f 30/27/5 6/24/5 3/28/5 
f 4/25/5 25/26/5 28/29/5 
f 28/29/5 3/28/5 4/25/5 
# 48 faces

