# 3ds Max Wavefront OBJ Exporter v0.97b - (c)2007 guruware
# File Created: 05.09.2016 22:13:13

#
# object Ground_Level_Crossing_0
#

v  -2.2443 0.2000 -0.0000
v  0.0048 0.2000 -0.0000
v  0.0068 0.2000 -5.3333
v  -2.2443 0.2000 -5.3333
v  2.2305 0.2000 -0.0000
v  5.9931 -0.3000 -0.0000
v  5.9931 -0.3000 -5.3333
v  2.2305 0.2000 -5.3333
v  -6.0031 -0.3000 -0.0000
v  -6.0031 -0.3000 5.3333
v  -2.2443 0.2000 5.3333
v  -2.2443 0.2000 32.0000
v  -0.0070 0.2000 32.0000
v  -0.0050 0.2000 26.6667
v  -2.2443 0.2000 26.6667
v  -0.0030 0.2000 21.3333
v  -2.2443 0.2000 21.3333
v  -0.0010 0.2000 16.0000
v  -2.2443 0.2000 16.0000
v  0.0008 0.2000 10.6667
v  -2.2443 0.2000 10.6667
v  0.0028 0.2000 5.3333
v  -2.2443 0.2000 -26.6667
v  -2.2443 0.2000 -21.3333
v  0.0126 0.2000 -21.3333
v  0.0146 0.2000 -26.6667
v  -1.1148 0.2000 -26.6667
v  -2.2443 0.2000 -16.0000
v  0.0106 0.2000 -16.0000
v  -2.2443 0.2000 -10.6667
v  0.0088 0.2000 -10.6667
v  2.2305 0.2000 32.0000
v  5.9931 -0.3000 32.0000
v  5.9931 -0.3000 26.6667
v  2.2305 0.2000 26.6667
v  5.9931 -0.3000 21.3333
v  2.2305 0.2000 21.3333
v  5.9931 -0.3000 16.0000
v  2.2305 0.2000 16.0000
v  5.9931 -0.3000 10.6667
v  2.2305 0.2000 10.6667
v  5.9931 -0.3000 5.3333
v  2.2305 0.2000 5.3333
v  3.3055 0.0571 -26.6667
v  2.2305 0.2000 -26.6667
v  2.2305 0.2000 -21.3333
v  4.3805 -0.0857 -26.6667
v  5.4556 -0.2286 -26.6667
v  5.9931 -0.3000 -26.6667
v  5.9931 -0.3000 -21.3333
v  2.2305 0.2000 -16.0000
v  5.9931 -0.3000 -16.0000
v  2.2305 0.2000 -10.6667
v  5.9931 -0.3000 -10.6667
v  -5.4661 -0.2286 -26.6667
v  -6.0031 -0.3000 -26.6667
v  -6.0031 -0.3000 -21.3333
v  -4.3922 -0.0857 -26.6667
v  -3.3182 0.0571 -26.6667
v  -6.0031 -0.3000 -16.0000
v  -6.0031 -0.3000 -10.6667
v  -6.0031 -0.3000 -5.3333
v  -6.0031 -0.3000 32.0000
v  -6.0031 -0.3000 26.6667
v  -6.0031 -0.3000 21.3333
v  -6.0031 -0.3000 16.0000
v  -6.0031 -0.3000 10.6667
v  1.1225 0.2000 -26.6667
v  0.3602 0.4522 -31.0032
v  0.5834 0.4524 -31.0026
v  0.5834 0.7580 -32.0037
v  -0.3603 0.7578 -31.9996
v  -0.5835 0.7580 -31.9996
v  -0.5835 0.4524 -30.9974
v  -0.3603 0.4522 -31.9985
v  -0.3603 0.4522 -30.9969
v  -0.5835 0.4524 -31.9996
v  0.3602 0.7578 -32.0038
v  0.3602 0.4522 -32.0048
v  0.5834 0.4524 -32.0037
v  -1.1116 0.2000 -26.6667
v  -1.1164 0.0000 -32.0000
v  -1.6745 0.0000 -32.0000
v  -1.6751 -0.3000 -26.6667
v  3.8414 0.0000 -32.0000
v  3.8355 -0.3000 -26.6667
v  4.3718 -0.0857 -26.6667
v  4.3777 0.0000 -32.0000
v  -4.3758 0.0000 -32.0000
v  -4.3818 -0.0857 -26.6667
v  -3.8460 -0.3000 -26.6667
v  -3.8400 0.0000 -32.0000
v  1.1160 0.0000 -32.0000
v  1.1209 0.2000 -26.6667
v  1.6737 -0.3000 -26.6667
v  1.6741 0.0000 -32.0000
v  2.2322 0.0000 -32.0000
v  2.2265 0.2000 -26.6667
v  2.7628 -0.3000 -26.6667
v  2.7686 0.0000 -32.0000
v  3.2991 0.0571 -26.6667
v  3.3050 0.0000 -32.0000
v  5.9809 -0.3000 -26.6667
v  5.9869 0.0000 -32.0000
v  5.4505 0.0000 -32.0000
v  5.4445 -0.2286 -26.6667
v  4.9141 0.0000 -32.0000
v  4.9082 -0.3000 -26.6667
v  -5.9832 0.0000 -32.0000
v  -5.9892 -0.3000 -26.6667
v  -5.4534 -0.2286 -26.6667
v  -5.4474 0.0000 -32.0000
v  -4.9176 -0.3000 -26.6667
v  -4.9116 0.0000 -32.0000
v  -2.2386 0.2000 -26.6667
v  -2.2326 0.0000 -32.0000
v  -2.7684 0.0000 -32.0000
v  -2.7744 -0.3000 -26.6667
v  -3.3042 0.0000 -32.0000
v  -3.3102 0.0571 -26.6667
v  0.0154 0.2000 -26.6667
v  -0.0002 0.0000 -32.0000
v  -0.5583 0.0000 -32.0000
v  -0.5481 -0.3000 -26.6667
v  0.5682 -0.3000 -26.6667
v  0.5579 0.0000 -32.0000
# 126 vertices

vn 0.0000 1.0000 -0.0000
vn 0.2568 0.9665 -0.0000
vn -0.2570 0.9664 -0.0000
vn 0.0000 1.0000 0.0000
vn 0.2568 0.9665 0.0000
vn 0.0258 0.9997 0.0000
vn -0.2570 0.9664 0.0000
vn -0.0000 0.0000 -1.0000
vn -0.0033 0.9564 0.2919
vn 0.0017 0.9565 0.2917
vn 1.0000 0.0000 -0.0000
vn -1.0000 0.0000 -0.0000
vn 0.0001 0.9566 0.2915
vn -0.0020 0.9564 0.2921
vn -0.6654 0.7465 0.0071
vn -0.3707 0.9282 0.0334
vn 0.3710 0.9280 0.0338
vn 0.6689 0.7433 0.0068
vn 0.6817 0.7316 0.0072
vn -0.5540 0.8323 0.0186
vn 0.5540 0.8323 0.0193
vn 0.1318 0.9901 0.0491
vn -0.1318 0.9901 0.0490
vn 0.3707 0.9281 0.0338
vn -0.1319 0.9900 0.0490
vn 0.1319 0.9900 0.0491
vn -0.3710 0.9280 0.0333
vn -0.6821 0.7312 0.0065
vn 0.5544 0.8320 0.0193
vn -0.5544 0.8320 0.0186
vn -0.6653 0.7465 0.0078
vn 0.6654 0.7465 0.0065
vn 0.6654 0.7465 0.0072
vn 0.6689 0.7433 0.0062
vn -0.6689 0.7433 0.0074
vn -0.6689 0.7433 0.0068
# 36 vertex normals

vt 0.3928 0.5000 0.0000
vt 0.5014 0.5000 0.0000
vt 0.5015 0.4167 0.0000
vt 0.3928 0.4167 0.0000
vt 0.6088 0.5000 0.0000
vt 0.8237 0.5000 0.0000
vt 0.8237 0.4167 0.0000
vt 0.6088 0.4167 0.0000
vt 0.1768 0.5000 0.0000
vt 0.1768 0.5833 0.0000
vt 0.3928 0.5833 0.0000
vt 0.3928 1.0000 0.0000
vt 0.5008 1.0000 0.0000
vt 0.5009 0.9167 0.0000
vt 0.3928 0.9167 0.0000
vt 0.5010 0.8333 0.0000
vt 0.3928 0.8333 0.0000
vt 0.5011 0.7500 0.0000
vt 0.3928 0.7500 0.0000
vt 0.5012 0.6667 0.0000
vt 0.3928 0.6667 0.0000
vt 0.5013 0.5833 0.0000
vt 0.3928 0.0833 0.0000
vt 0.3928 0.1667 0.0000
vt 0.5018 0.1667 0.0000
vt 0.5019 0.0833 0.0000
vt 0.4474 0.0833 0.0000
vt 0.3928 0.2500 0.0000
vt 0.5017 0.2500 0.0000
vt 0.3928 0.3333 0.0000
vt 0.5016 0.3333 0.0000
vt 0.6088 1.0000 0.0000
vt 0.8237 1.0000 0.0000
vt 0.8237 0.9167 0.0000
vt 0.6088 0.9167 0.0000
vt 0.8237 0.8333 0.0000
vt 0.6088 0.8333 0.0000
vt 0.8237 0.7500 0.0000
vt 0.6088 0.7500 0.0000
vt 0.8237 0.6667 0.0000
vt 0.6088 0.6667 0.0000
vt 0.8237 0.5833 0.0000
vt 0.6088 0.5833 0.0000
vt 0.6702 0.0833 0.0000
vt 0.6088 0.0833 0.0000
vt 0.6088 0.1667 0.0000
vt 0.7316 0.0833 0.0000
vt 0.7930 0.0833 0.0000
vt 0.8237 0.0833 0.0000
vt 0.8237 0.1667 0.0000
vt 0.6088 0.2500 0.0000
vt 0.8237 0.2500 0.0000
vt 0.6088 0.3333 0.0000
vt 0.8237 0.3333 0.0000
vt 0.2077 0.0833 0.0000
vt 0.1768 0.0833 0.0000
vt 0.1768 0.1667 0.0000
vt 0.2694 0.0833 0.0000
vt 0.3311 0.0833 0.0000
vt 0.1768 0.2500 0.0000
vt 0.1768 0.3333 0.0000
vt 0.1768 0.4167 0.0000
vt 0.1768 1.0000 0.0000
vt 0.1768 0.9167 0.0000
vt 0.1768 0.8333 0.0000
vt 0.1768 0.7500 0.0000
vt 0.1768 0.6667 0.0000
vt 0.5554 0.0833 0.0000
vt 0.1084 0.1714 0.0000
vt 0.0883 0.1715 0.0000
vt 0.0883 0.0881 0.0000
vt 0.1084 0.9214 0.0000
vt 0.0883 0.9215 0.0000
vt 0.0883 0.8381 0.0000
vt 0.0128 0.0833 0.0000
vt 0.0472 0.0832 0.0000
vt 0.0300 0.1666 0.0000
vt 0.1262 0.9167 0.0000
vt 0.0689 0.9168 0.0000
vt 0.0975 0.8334 0.0000
vt 0.1084 0.8380 0.0000
vt 0.1084 0.0880 0.0000
vt 0.0128 0.9167 0.0000
vt 0.0300 0.8332 0.0000
vt 0.0472 0.9166 0.0000
vt 0.1262 0.0833 0.0000
vt 0.0975 0.1668 0.0000
vt 0.0689 0.0834 0.0000
vt 0.9641 0.0833 0.0000
vt 0.9634 0.0000 0.0000
vt 0.9298 0.0000 0.0000
vt 0.9301 0.0833 0.0000
vt 0.8451 0.0000 0.0000
vt 0.8451 0.0833 0.0000
vt 0.8834 0.0833 0.0000
vt 0.8834 0.0000 0.0000
vt 0.8828 0.0000 0.0000
vt 0.8828 0.0833 0.0000
vt 0.9212 0.0833 0.0000
vt 0.9212 0.0000 0.0000
vt 0.9641 0.0000 0.0000
vt 0.9648 0.0833 0.0000
vt 0.9981 0.0833 0.0000
vt 0.9977 0.0000 0.0000
vt 0.8784 0.0000 0.0000
vt 0.8784 0.0833 0.0000
vt 0.9166 0.0833 0.0000
vt 0.9166 0.0000 0.0000
vt 0.9549 0.0833 0.0000
vt 0.9549 0.0000 0.0000
vt 0.9931 0.0833 0.0000
vt 0.9931 0.0000 0.0000
vt 0.9981 0.0000 0.0000
vt 0.9598 0.0000 0.0000
vt 0.9598 0.0833 0.0000
vt 0.9216 0.0000 0.0000
vt 0.9216 0.0833 0.0000
vt 0.9013 0.0000 0.0000
vt 0.9013 0.0833 0.0000
vt 0.9397 0.0833 0.0000
vt 0.9397 0.0000 0.0000
vt 0.9782 0.0833 0.0000
vt 0.9782 0.0000 0.0000
vt 0.8443 0.0000 0.0000
vt 0.8443 0.0833 0.0000
vt 0.8962 0.0833 0.0000
vt 0.8962 0.0000 0.0000
vt 0.8577 0.0000 0.0000
vt 0.8577 0.0833 0.0000
vt 0.9596 0.0000 0.0000
vt 0.9596 0.0833 0.0000
vt 0.8982 0.0833 0.0000
vt 0.8968 0.0000 0.0000
vt 0.8632 0.0000 0.0000
vt 0.8642 0.0833 0.0000
vt 0.9970 0.0000 0.0000
vt 0.9315 0.0833 0.0000
vt 0.9305 0.0000 0.0000
vt 0.8448 0.0000 0.0000
# 139 texture coords

g Ground_Level_Crossing_0
s 1
f 1/1/1 2/2/1 3/3/1 
f 3/3/1 4/4/1 1/1/1 
f 5/5/2 6/6/2 7/7/2 
f 7/7/2 8/8/2 5/5/2 
f 1/1/3 9/9/3 10/10/3 
f 10/10/3 11/11/3 1/1/3 
f 12/12/1 13/13/1 14/14/1 
f 14/14/1 15/15/1 12/12/1 
f 15/15/1 14/14/1 16/16/1 
f 16/16/1 17/17/1 15/15/1 
f 17/17/1 16/16/1 18/18/1 
f 18/18/1 19/19/1 17/17/1 
f 19/19/1 18/18/1 20/20/1 
f 20/20/1 21/21/1 19/19/1 
f 21/21/1 20/20/1 22/22/1 
f 22/22/1 11/11/1 21/21/1 
f 11/11/1 22/22/1 2/2/1 
f 2/2/1 1/1/1 11/11/1 
f 23/23/4 24/24/1 25/25/1 
f 25/25/4 26/26/4 27/27/4 
f 27/27/4 23/23/4 25/25/4 
f 24/24/1 28/28/1 29/29/1 
f 29/29/1 25/25/1 24/24/1 
f 28/28/1 30/30/1 31/31/2 
f 31/31/2 29/29/1 28/28/1 
f 30/30/1 4/4/1 3/3/1 
f 3/3/1 31/31/2 30/30/1 
f 32/32/2 33/33/2 34/34/2 
f 34/34/2 35/35/2 32/32/2 
f 35/35/2 34/34/2 36/36/2 
f 36/36/2 37/37/2 35/35/2 
f 37/37/2 36/36/2 38/38/2 
f 38/38/2 39/39/2 37/37/2 
f 39/39/2 38/38/2 40/40/2 
f 40/40/2 41/41/2 39/39/2 
f 41/41/2 40/40/2 42/42/2 
f 42/42/2 43/43/2 41/41/2 
f 43/43/2 42/42/2 6/6/2 
f 6/6/2 5/5/2 43/43/2 
f 44/44/5 45/45/5 46/46/6 
f 47/47/5 44/44/5 46/46/6 
f 48/48/5 47/47/5 46/46/6 
f 49/49/5 48/48/5 46/46/6 
f 46/46/2 50/50/2 49/49/2 
f 50/50/2 46/46/2 51/51/2 
f 51/51/2 52/52/3 50/50/2 
f 52/52/3 51/51/2 53/53/3 
f 53/53/3 54/54/3 52/52/3 
f 54/54/3 53/53/3 8/8/2 
f 8/8/2 7/7/2 54/54/3 
f 55/55/7 56/56/7 57/57/7 
f 58/58/7 55/55/7 57/57/7 
f 59/59/7 58/58/7 57/57/7 
f 23/23/7 59/59/7 57/57/7 
f 57/57/3 24/24/3 23/23/3 
f 24/24/3 57/57/3 60/60/3 
f 60/60/3 28/28/3 24/24/3 
f 28/28/3 60/60/3 61/61/3 
f 61/61/3 30/30/3 28/28/3 
f 30/30/3 61/61/3 62/62/3 
f 62/62/3 4/4/3 30/30/3 
f 4/4/3 62/62/3 9/9/3 
f 9/9/3 1/1/3 4/4/3 
f 63/63/1 12/12/3 15/15/3 
f 15/15/3 64/64/1 63/63/1 
f 64/64/1 15/15/3 17/17/1 
f 17/17/1 65/65/3 64/64/1 
f 65/65/3 17/17/1 19/19/3 
f 19/19/3 66/66/3 65/65/3 
f 66/66/3 19/19/3 21/21/3 
f 21/21/3 67/67/3 66/66/3 
f 67/67/3 21/21/3 11/11/3 
f 11/11/3 10/10/3 67/67/3 
f 32/32/1 35/35/1 14/14/1 
f 14/14/1 13/13/1 32/32/1 
f 35/35/1 37/37/1 16/16/1 
f 16/16/1 14/14/1 35/35/1 
f 37/37/1 39/39/1 18/18/1 
f 18/18/1 16/16/1 37/37/1 
f 39/39/1 41/41/1 20/20/1 
f 20/20/1 18/18/1 39/39/1 
f 41/41/1 43/43/1 22/22/1 
f 22/22/1 20/20/1 41/41/1 
f 43/43/1 5/5/1 2/2/1 
f 2/2/1 22/22/1 43/43/1 
f 5/5/1 8/8/1 3/3/1 
f 3/3/1 2/2/1 5/5/1 
f 8/8/1 53/53/1 31/31/2 
f 31/31/2 3/3/1 8/8/1 
f 53/53/1 51/51/1 29/29/1 
f 29/29/1 31/31/2 53/53/1 
f 51/51/1 46/46/6 25/25/1 
f 25/25/1 29/29/1 51/51/1 
f 46/46/6 45/45/1 68/68/1 
f 68/68/1 26/26/1 46/46/6 
f 26/26/1 25/25/1 46/46/6 
s off
f 59/59/8 23/23/8 27/27/8 
f 58/58/8 59/59/8 27/27/8 
f 55/55/8 58/58/8 27/27/8 
f 68/68/8 45/45/8 44/44/8 
f 26/26/8 68/68/8 44/44/8 
f 27/27/8 26/26/8 44/44/8 
f 55/55/8 27/27/8 44/44/8 
f 56/56/8 55/55/8 44/44/8 
f 56/56/8 44/44/8 47/47/8 
f 56/56/8 47/47/8 48/48/8 
f 56/56/8 48/48/8 49/49/8 
f 69/69/9 70/70/9 71/71/9 
f 72/72/10 73/73/10 74/74/10 
f 75/75/11 72/76/11 76/77/11 
f 73/78/12 77/79/12 74/80/12 
f 76/81/13 72/72/13 74/74/13 
f 78/82/14 69/69/14 71/71/14 
f 79/83/12 69/84/12 78/85/12 
f 71/86/11 70/87/11 80/88/11 
f 81/89/15 82/90/15 83/91/15 
f 83/91/15 84/92/15 81/89/15 
f 85/93/16 86/94/16 87/95/16 
f 87/95/16 88/96/16 85/93/16 
f 89/97/17 90/98/17 91/99/17 
f 91/99/17 92/100/17 89/97/17 
f 93/101/18 94/102/18 95/103/18 
f 95/103/18 96/104/18 93/101/18 
f 97/105/19 98/106/19 99/107/19 
f 99/107/19 100/108/19 97/105/19 
f 100/108/20 99/107/20 101/109/20 
f 101/109/20 102/110/20 100/108/20 
f 102/110/21 101/109/21 86/111/21 
f 86/111/21 85/112/21 102/110/21 
f 103/103/22 104/113/22 105/114/22 
f 105/114/22 106/115/22 103/103/22 
f 106/115/23 105/114/23 107/116/23 
f 107/116/23 108/117/23 106/115/23 
f 108/117/24 107/116/24 88/96/24 
f 88/96/24 87/95/24 108/117/24 
f 109/118/25 110/119/25 111/120/25 
f 111/120/25 112/121/25 109/118/25 
f 112/121/26 111/120/26 113/122/26 
f 113/122/26 114/123/26 112/121/26 
f 114/124/27 113/125/27 90/98/27 
f 90/98/27 89/97/27 114/124/27 
f 115/126/28 116/127/28 117/128/28 
f 117/128/28 118/129/28 115/126/28 
f 118/103/29 117/113/29 119/130/29 
f 119/130/29 120/131/29 118/103/29 
f 120/131/30 119/130/30 92/100/30 
f 92/100/30 91/99/30 120/131/30 
f 121/132/31 122/133/31 123/134/31 
f 123/134/31 124/135/31 121/132/31 
f 124/103/32 123/136/32 82/90/32 
f 82/90/32 81/89/32 124/103/32 
f 116/127/33 115/126/33 84/92/33 
f 84/92/33 83/91/33 116/127/33 
f 122/133/34 121/132/34 125/137/34 
f 125/137/34 126/138/34 122/133/34 
f 126/138/35 125/137/35 94/102/35 
f 94/102/35 93/101/35 126/138/35 
f 98/106/36 97/105/36 96/139/36 
f 96/139/36 95/94/36 98/106/36 
# 159 faces

