# 3ds Max Wavefront OBJ Exporter v0.97b - (c)2007 guruware
# File Created: 01.07.2016 23:40:05

#
# object Plane005
#

v  -8.0000 -3.1650 -0.0000
v  -5.0000 0.0000 -0.0000
v  -5.0000 0.0000 -5.3333
v  -8.0000 -3.1650 -5.3333
v  8.0000 -3.1650 -0.0000
v  5.0000 0.0000 -0.0000
v  5.0000 -0.0000 5.3333
v  8.0000 -3.1650 5.3333
v  3.5000 0.0750 -0.0000
v  3.5000 0.0750 5.3333
v  -3.5000 -0.3000 -0.0000
v  0.0000 -0.3000 -0.0000
v  0.0000 -0.3000 -5.3333
v  -3.5000 -0.3000 -5.3333
v  -3.5000 0.0750 -0.0000
v  -3.5000 0.0750 -5.3333
v  3.5000 -0.3000 -0.0000
v  3.5000 -0.3000 5.3333
v  -3.5000 0.0750 5.3333
v  -3.5000 -0.3000 5.3333
v  0.6211 0.4580 -32.0062
v  0.3226 0.4579 -32.0063
v  0.3226 0.4578 -26.6688
v  0.6210 0.4580 -26.6687
v  0.3226 0.1522 -21.3359
v  0.6211 0.1524 -21.3354
v  0.3308 0.1522 -32.0031
v  0.3226 0.1522 -26.6698
v  0.6120 0.1522 -32.0031
v  0.6211 0.1524 -26.6687
v  -0.3226 0.4577 -32.0000
v  -0.6212 0.4578 -32.0000
v  -0.6211 0.4580 -26.6646
v  -0.3226 0.4578 -26.6646
v  -0.6211 0.1524 -21.3307
v  -0.3314 0.1521 -31.9969
v  -0.3226 0.1522 -26.6635
v  -0.3226 0.1522 -21.3302
v  -0.6127 0.1522 -31.9969
v  -0.6212 0.1524 -26.6646
v  -8.0000 -3.1650 32.0000
v  -5.0000 -0.0000 32.0000
v  -5.0000 -0.0000 26.6667
v  -8.0000 -3.1650 26.6667
v  -5.0000 -0.0000 21.3333
v  -8.0000 -3.1650 21.3333
v  -5.0000 -0.0000 16.0000
v  -8.0000 -3.1650 16.0000
v  -5.0000 -0.0000 10.6667
v  -8.0000 -3.1650 10.6667
v  -5.0000 -0.0000 5.3333
v  -8.0000 -3.1650 5.3333
v  -5.0000 0.0000 -32.0000
v  -8.0000 -3.1650 -32.0000
v  -8.0000 -3.1650 -26.6667
v  -5.0000 0.0000 -26.6667
v  -8.0000 -3.1650 -21.3333
v  -5.0000 0.0000 -21.3333
v  -8.0000 -3.1650 -16.0000
v  -5.0000 0.0000 -16.0000
v  -8.0000 -3.1650 -10.6667
v  -5.0000 0.0000 -10.6667
v  8.0000 -3.1650 -32.0000
v  5.0000 0.0000 -32.0000
v  5.0000 0.0000 -26.6667
v  8.0000 -3.1650 -26.6667
v  5.0000 0.0000 -21.3333
v  8.0000 -3.1650 -21.3333
v  5.0000 0.0000 -16.0000
v  8.0000 -3.1650 -16.0000
v  5.0000 0.0000 -10.6667
v  8.0000 -3.1650 -10.6667
v  5.0000 0.0000 -5.3333
v  8.0000 -3.1650 -5.3333
v  5.0000 -0.0000 32.0000
v  8.0000 -3.1650 32.0000
v  8.0000 -3.1650 26.6667
v  5.0000 -0.0000 26.6667
v  8.0000 -3.1650 21.3333
v  5.0000 -0.0000 21.3333
v  8.0000 -3.1650 16.0000
v  5.0000 -0.0000 16.0000
v  8.0000 -3.1650 10.6667
v  5.0000 -0.0000 10.6667
v  3.5000 0.0750 -32.0000
v  3.5000 0.0750 -26.6667
v  3.5000 0.0750 -21.3333
v  3.5000 0.0750 -16.0000
v  3.5000 0.0750 -10.6667
v  3.5000 0.0750 -5.3333
v  3.5000 0.0750 32.0000
v  3.5000 0.0750 26.6667
v  3.5000 0.0750 21.3333
v  3.5000 0.0750 16.0000
v  3.5000 0.0750 10.6667
v  -3.5000 -0.3000 32.0000
v  0.0000 -0.3000 32.0000
v  0.0000 -0.3000 26.6667
v  -3.5000 -0.3000 26.6667
v  0.0000 -0.3000 21.3333
v  -3.5000 -0.3000 21.3333
v  0.0000 -0.3000 16.0000
v  -3.5000 -0.3000 16.0000
v  0.0000 -0.3000 10.6667
v  -3.5000 -0.3000 10.6667
v  0.0000 -0.3000 5.3333
v  3.5000 -0.3000 -32.0000
v  0.0000 -0.3000 -32.0000
v  0.0000 -0.3000 -26.6667
v  3.5000 -0.3000 -26.6667
v  0.0000 -0.3000 -21.3333
v  3.5000 -0.3000 -21.3333
v  0.0000 -0.3000 -16.0000
v  3.5000 -0.3000 -16.0000
v  0.0000 -0.3000 -10.6667
v  3.5000 -0.3000 -10.6667
v  3.5000 -0.3000 -5.3333
v  -3.5000 0.0750 32.0000
v  -3.5000 0.0750 26.6667
v  -3.5000 0.0750 21.3333
v  -3.5000 0.0750 16.0000
v  -3.5000 0.0750 10.6667
v  -3.5000 0.0750 -32.0000
v  -3.5000 0.0750 -26.6667
v  -3.5000 0.0750 -21.3333
v  -3.5000 0.0750 -16.0000
v  -3.5000 0.0750 -10.6667
v  3.5000 -0.3000 32.0000
v  3.5000 -0.3000 26.6667
v  3.5000 -0.3000 21.3333
v  3.5000 -0.3000 16.0000
v  3.5000 -0.3000 10.6667
v  -3.5000 -0.3000 -32.0000
v  -3.5000 -0.3000 -26.6667
v  -3.5000 -0.3000 -21.3333
v  -3.5000 -0.3000 -16.0000
v  -3.5000 -0.3000 -10.6667
v  0.3836 -0.3000 -26.1869
v  0.5595 -0.3000 -26.1869
v  0.5595 0.1520 -26.1869
v  0.3836 0.1520 -26.1869
v  0.5595 -0.3000 -26.3869
v  0.3836 -0.3000 -26.3869
v  0.3836 0.1520 -26.3869
v  0.5595 0.1520 -26.3869
v  -0.5598 -0.2998 -26.1820
v  -0.3838 -0.3001 -26.1820
v  -0.3838 0.1519 -26.1820
v  -0.5598 0.1522 -26.1820
v  -0.3838 -0.3001 -26.3820
v  -0.3838 0.1519 -26.3820
v  -0.5598 -0.2998 -26.3820
v  -0.5598 0.1522 -26.3820
# 153 vertices

vn -0.7258 0.6879 0.0000
vn -0.4178 0.9085 0.0000
vn 0.7258 0.6879 0.0000
vn 0.4178 0.9085 0.0000
vn 0.0499 0.9988 0.0000
vn -0.0000 1.0000 0.0000
vn -0.0499 0.9988 0.0000
vn -1.0000 0.0000 -0.0000
vn 1.0000 0.0000 -0.0000
vn -0.0001 1.0000 0.0000
vn -0.0005 1.0000 -0.0000
vn -0.0005 0.9984 0.0572
vn -0.9996 -0.0270 -0.0015
vn -1.0000 -0.0000 0.0000
vn 0.9996 -0.0298 0.0000
vn 1.0000 0.0004 -0.0017
vn 0.0001 1.0000 -0.0000
vn 0.0004 0.9984 0.0572
vn 0.9996 -0.0287 0.0000
vn 1.0000 -0.0000 -0.0000
vn -0.9996 -0.0277 -0.0016
vn -1.0000 0.0004 0.0000
vn 0.0003 0.9984 0.0572
vn 1.0000 0.0004 0.0000
vn 0.0005 1.0000 -0.0000
vn 1.0000 -0.0000 -0.0016
vn -0.7071 0.0000 0.7071
vn 0.7071 0.0000 0.7071
vn 0.7071 0.0000 -0.7071
vn -0.7071 0.0000 -0.7071
vn -0.7067 0.0000 0.7075
vn 0.7075 0.0000 0.7067
vn 0.7067 0.0000 0.7075
vn -0.7075 0.0000 0.7067
vn 0.7075 0.0000 -0.7067
vn 0.7067 0.0000 -0.7075
vn -0.7067 0.0000 -0.7075
vn -0.7075 0.0000 -0.7067
# 38 vertex normals

vt 0.0175 0.5000 0.0000
vt 0.0175 0.5833 0.0000
vt 0.0359 0.5000 0.0000
vt 0.0359 0.4167 0.0000
vt 0.6255 0.5000 0.0000
vt 0.5010 0.5000 0.0000
vt 0.5010 0.4167 0.0000
vt 0.6255 0.4167 0.0000
vt 0.0046 0.5042 0.0000
vt 0.1407 0.5042 0.0000
vt 0.1407 0.5870 0.0000
vt 0.0046 0.5870 0.0000
vt 0.6255 0.5833 0.0000
vt 0.5010 0.5833 0.0000
vt 0.5484 0.5000 0.0000
vt 0.4495 0.5000 0.0000
vt 0.4495 0.4167 0.0000
vt 0.5484 0.4167 0.0000
vt 0.2812 0.0047 0.0000
vt 0.3013 0.0047 0.0000
vt 0.3013 0.0880 0.0000
vt 0.2812 0.0881 0.0000
vt 0.3013 0.1714 0.0000
vt 0.2812 0.1715 0.0000
vt 0.3093 1.0000 0.0000
vt 0.2749 1.0000 0.0000
vt 0.2749 0.9167 0.0000
vt 0.3093 0.9166 0.0000
vt 0.2749 0.0000 0.0000
vt 0.3093 0.0000 0.0000
vt 0.3093 0.0833 0.0000
vt 0.2749 0.0834 0.0000
vt 0.3013 0.9938 0.0000
vt 0.2812 0.9938 0.0000
vt 0.2812 0.9215 0.0000
vt 0.3013 0.9214 0.0000
vt 0.2812 0.8381 0.0000
vt 0.3093 0.0832 0.0000
vt 0.2749 0.0833 0.0000
vt 0.2921 0.1666 0.0000
vt 0.2749 0.9168 0.0000
vt 0.3093 0.9167 0.0000
vt 0.2749 0.8334 0.0000
vt 0.0175 0.0000 0.0000
vt 0.0175 0.0833 0.0000
vt 0.0175 0.1667 0.0000
vt 0.0175 0.2500 0.0000
vt 0.0175 0.3333 0.0000
vt 0.0175 0.4167 0.0000
vt 0.0175 1.0000 0.0000
vt 0.0175 0.9167 0.0000
vt 0.0175 0.8333 0.0000
vt 0.0175 0.7500 0.0000
vt 0.0175 0.6667 0.0000
vt 0.0359 1.0000 0.0000
vt 0.0359 0.9167 0.0000
vt 0.0359 0.8333 0.0000
vt 0.0359 0.7500 0.0000
vt 0.0359 0.6667 0.0000
vt 0.0359 0.5833 0.0000
vt 0.0359 0.0000 0.0000
vt 0.0359 0.0833 0.0000
vt 0.0359 0.1667 0.0000
vt 0.0359 0.2500 0.0000
vt 0.0359 0.3333 0.0000
vt 0.6255 1.0000 0.0000
vt 0.5010 1.0000 0.0000
vt 0.5010 0.9167 0.0000
vt 0.6255 0.9167 0.0000
vt 0.5010 0.8333 0.0000
vt 0.6255 0.8333 0.0000
vt 0.5010 0.7500 0.0000
vt 0.6255 0.7500 0.0000
vt 0.5010 0.6667 0.0000
vt 0.6255 0.6667 0.0000
vt 0.5010 0.0000 0.0000
vt 0.6255 0.0000 0.0000
vt 0.6255 0.0833 0.0000
vt 0.5010 0.0833 0.0000
vt 0.6255 0.1667 0.0000
vt 0.5010 0.1667 0.0000
vt 0.6255 0.2500 0.0000
vt 0.5010 0.2500 0.0000
vt 0.6255 0.3333 0.0000
vt 0.5010 0.3333 0.0000
vt 0.0046 0.0002 0.0000
vt 0.1407 0.0002 0.0000
vt 0.1407 0.0901 0.0000
vt 0.0046 0.0901 0.0000
vt 0.1407 0.1729 0.0000
vt 0.0046 0.1729 0.0000
vt 0.1407 0.2558 0.0000
vt 0.0046 0.2558 0.0000
vt 0.1407 0.3386 0.0000
vt 0.0046 0.3386 0.0000
vt 0.1407 0.4214 0.0000
vt 0.0046 0.4214 0.0000
vt 0.2726 0.9922 0.0000
vt 0.1407 0.9922 0.0000
vt 0.1407 0.9182 0.0000
vt 0.2726 0.9182 0.0000
vt 0.1407 0.8354 0.0000
vt 0.2726 0.8354 0.0000
vt 0.1407 0.7526 0.0000
vt 0.2726 0.7526 0.0000
vt 0.1407 0.6698 0.0000
vt 0.2726 0.6698 0.0000
vt 0.2726 0.5870 0.0000
vt 0.5484 1.0000 0.0000
vt 0.4495 1.0000 0.0000
vt 0.4495 0.9167 0.0000
vt 0.5484 0.9167 0.0000
vt 0.4495 0.8333 0.0000
vt 0.5484 0.8333 0.0000
vt 0.4495 0.7500 0.0000
vt 0.5484 0.7500 0.0000
vt 0.4495 0.6667 0.0000
vt 0.5484 0.6667 0.0000
vt 0.4495 0.5833 0.0000
vt 0.5484 0.5833 0.0000
vt 0.4495 0.0000 0.0000
vt 0.5484 0.0000 0.0000
vt 0.5484 0.0833 0.0000
vt 0.4495 0.0833 0.0000
vt 0.5484 0.1667 0.0000
vt 0.4495 0.1667 0.0000
vt 0.5484 0.2500 0.0000
vt 0.4495 0.2500 0.0000
vt 0.5484 0.3333 0.0000
vt 0.4495 0.3333 0.0000
vt 0.3013 0.8380 0.0000
vt 0.2749 0.8333 0.0000
vt 0.2921 0.1668 0.0000
vt 0.2726 0.5042 0.0000
vt 0.2726 0.0002 0.0000
vt 0.2726 0.0901 0.0000
vt 0.2726 0.1729 0.0000
vt 0.2726 0.2558 0.0000
vt 0.2726 0.3386 0.0000
vt 0.2726 0.4214 0.0000
vt 0.0046 0.9922 0.0000
vt 0.0046 0.9182 0.0000
vt 0.0046 0.8354 0.0000
vt 0.0046 0.7526 0.0000
vt 0.0046 0.6698 0.0000
vt 0.3290 0.9411 0.0000
vt 0.3873 0.9411 0.0000
vt 0.3873 0.9645 0.0000
vt 0.3290 0.9645 0.0000
vt 0.3593 0.9411 0.0000
vt 0.3593 0.9645 0.0000
# 151 texture coords

g Plane005
s 1
f 1/1/1 2/1/2 3/2/2 
f 3/2/2 4/2/1 1/1/1 
f 5/3/3 6/3/4 7/4/4 
f 7/4/4 8/4/3 5/3/3 
f 6/5/4 9/6/5 10/7/5 
f 10/7/5 7/8/4 6/5/4 
f 11/9/6 12/10/6 13/11/6 
f 13/11/6 14/12/6 11/9/6 
f 2/6/2 15/5/7 16/13/7 
f 16/13/7 3/14/2 2/6/2 
s off
f 9/15/8 17/16/8 18/17/8 
f 18/17/8 10/18/8 9/15/8 
f 11/16/9 15/15/9 19/18/9 
f 19/18/9 20/17/9 11/16/9 
f 21/19/10 22/20/10 23/21/10 
f 23/21/11 24/22/11 21/19/11 
f 25/23/12 26/24/12 24/22/12 
f 22/25/13 27/26/13 28/27/13 
f 28/27/14 23/28/14 22/25/14 
f 29/29/15 21/30/15 24/31/15 
f 24/31/16 30/32/16 29/29/16 
f 31/33/17 32/34/17 33/35/17 
f 34/36/18 33/35/18 35/37/18 
f 36/29/19 31/30/19 34/38/19 
f 37/39/20 34/38/20 38/40/20 
f 32/25/21 39/26/21 40/41/21 
f 33/42/22 40/41/22 35/43/22 
s 1
f 41/44/1 42/44/2 43/45/2 
f 43/45/2 44/45/1 41/44/1 
f 44/45/1 43/45/2 45/46/2 
f 45/46/2 46/46/1 44/45/1 
f 46/46/1 45/46/2 47/47/2 
f 47/47/2 48/47/1 46/46/1 
f 48/47/1 47/47/2 49/48/2 
f 49/48/2 50/48/1 48/47/1 
f 50/48/1 49/48/2 51/49/2 
f 51/49/2 52/49/1 50/48/1 
f 52/49/1 51/49/2 2/1/2 
f 2/1/2 1/1/1 52/49/1 
f 53/50/2 54/50/1 55/51/1 
f 55/51/1 56/51/2 53/50/2 
f 56/51/2 55/51/1 57/52/1 
f 57/52/1 58/52/2 56/51/2 
f 58/52/2 57/52/1 59/53/1 
f 59/53/1 60/53/2 58/52/2 
f 60/53/2 59/53/1 61/54/1 
f 61/54/1 62/54/2 60/53/2 
f 62/54/2 61/54/1 4/2/1 
f 4/2/1 3/2/2 62/54/2 
f 63/55/3 64/55/4 65/56/4 
f 65/56/4 66/56/3 63/55/3 
f 66/56/3 65/56/4 67/57/4 
f 67/57/4 68/57/3 66/56/3 
f 68/57/3 67/57/4 69/58/4 
f 69/58/4 70/58/3 68/57/3 
f 70/58/3 69/58/4 71/59/4 
f 71/59/4 72/59/3 70/58/3 
f 72/59/3 71/59/4 73/60/4 
f 73/60/4 74/60/3 72/59/3 
f 74/60/3 73/60/4 6/3/4 
f 6/3/4 5/3/3 74/60/3 
f 75/61/4 76/61/3 77/62/3 
f 77/62/3 78/62/4 75/61/4 
f 78/62/4 77/62/3 79/63/3 
f 79/63/3 80/63/4 78/62/4 
f 80/63/4 79/63/3 81/64/3 
f 81/64/3 82/64/4 80/63/4 
f 82/64/4 81/64/3 83/65/3 
f 83/65/3 84/65/4 82/64/4 
f 84/65/4 83/65/3 8/4/3 
f 8/4/3 7/4/4 84/65/4 
f 64/66/4 85/67/5 86/68/5 
f 86/68/5 65/69/4 64/66/4 
f 65/69/4 86/68/5 87/70/5 
f 87/70/5 67/71/4 65/69/4 
f 67/71/4 87/70/5 88/72/5 
f 88/72/5 69/73/4 67/71/4 
f 69/73/4 88/72/5 89/74/5 
f 89/74/5 71/75/4 69/73/4 
f 71/75/4 89/74/5 90/14/5 
f 90/14/5 73/13/4 71/75/4 
f 73/13/4 90/14/5 9/6/5 
f 9/6/5 6/5/4 73/13/4 
f 91/76/5 75/77/4 78/78/4 
f 78/78/4 92/79/5 91/76/5 
f 92/79/5 78/78/4 80/80/4 
f 80/80/4 93/81/5 92/79/5 
f 93/81/5 80/80/4 82/82/4 
f 82/82/4 94/83/5 93/81/5 
f 94/83/5 82/82/4 84/84/4 
f 84/84/4 95/85/5 94/83/5 
f 95/85/5 84/84/4 7/8/4 
f 7/8/4 10/7/5 95/85/5 
f 96/86/6 97/87/6 98/88/6 
f 98/88/6 99/89/6 96/86/6 
f 99/89/6 98/88/6 100/90/6 
f 100/90/6 101/91/6 99/89/6 
f 101/91/6 100/90/6 102/92/6 
f 102/92/6 103/93/6 101/91/6 
f 103/93/6 102/92/6 104/94/6 
f 104/94/6 105/95/6 103/93/6 
f 105/95/6 104/94/6 106/96/6 
f 106/96/6 20/97/6 105/95/6 
f 20/97/6 106/96/6 12/10/6 
f 12/10/6 11/9/6 20/97/6 
f 107/98/6 108/99/6 109/100/6 
f 109/100/6 110/101/6 107/98/6 
f 110/101/6 109/100/6 111/102/6 
f 111/102/6 112/103/6 110/101/6 
f 112/103/6 111/102/6 113/104/6 
f 113/104/6 114/105/6 112/103/6 
f 114/105/6 113/104/6 115/106/6 
f 115/106/6 116/107/6 114/105/6 
f 116/107/6 115/106/6 13/11/6 
f 13/11/6 117/108/6 116/107/6 
f 42/76/2 118/77/7 119/78/7 
f 119/78/7 43/79/2 42/76/2 
f 43/79/2 119/78/7 120/80/7 
f 120/80/7 45/81/2 43/79/2 
f 45/81/2 120/80/7 121/82/7 
f 121/82/7 47/83/2 45/81/2 
f 47/83/2 121/82/7 122/84/7 
f 122/84/7 49/85/2 47/83/2 
f 49/85/2 122/84/7 19/8/7 
f 19/8/7 51/7/2 49/85/2 
f 51/7/2 19/8/7 15/5/7 
f 15/5/7 2/6/2 51/7/2 
f 123/66/7 53/67/2 56/68/2 
f 56/68/2 124/69/7 123/66/7 
f 124/69/7 56/68/2 58/70/2 
f 58/70/2 125/71/7 124/69/7 
f 125/71/7 58/70/2 60/72/2 
f 60/72/2 126/73/7 125/71/7 
f 126/73/7 60/72/2 62/74/2 
f 62/74/2 127/75/7 126/73/7 
f 127/75/7 62/74/2 3/14/2 
f 3/14/2 16/13/7 127/75/7 
s off
f 85/109/8 107/110/8 110/111/8 
f 110/111/8 86/112/8 85/109/8 
f 86/112/8 110/111/8 112/113/8 
f 112/113/8 87/114/8 86/112/8 
f 87/114/8 112/113/8 114/115/8 
f 114/115/8 88/116/8 87/114/8 
f 88/116/8 114/115/8 116/117/8 
f 116/117/8 89/118/8 88/116/8 
f 89/118/8 116/117/8 117/119/8 
f 117/119/8 90/120/8 89/118/8 
f 90/120/8 117/119/8 17/16/8 
f 17/16/8 9/15/8 90/120/8 
f 128/121/8 91/122/8 92/123/8 
f 92/123/8 129/124/8 128/121/8 
f 129/124/8 92/123/8 93/125/8 
f 93/125/8 130/126/8 129/124/8 
f 130/126/8 93/125/8 94/127/8 
f 94/127/8 131/128/8 130/126/8 
f 131/128/8 94/127/8 95/129/8 
f 95/129/8 132/130/8 131/128/8 
f 132/130/8 95/129/8 10/18/8 
f 10/18/8 18/17/8 132/130/8 
f 133/110/9 123/109/9 124/112/9 
f 124/112/9 134/111/9 133/110/9 
f 134/111/9 124/112/9 125/114/9 
f 125/114/9 135/113/9 134/111/9 
f 135/113/9 125/114/9 126/116/9 
f 126/116/9 136/115/9 135/113/9 
f 136/115/9 126/116/9 127/118/9 
f 127/118/9 137/117/9 136/115/9 
f 137/117/9 127/118/9 16/120/9 
f 16/120/9 14/119/9 137/117/9 
f 14/119/9 16/120/9 15/15/9 
f 15/15/9 11/16/9 14/119/9 
f 118/122/9 96/121/9 99/124/9 
f 99/124/9 119/123/9 118/122/9 
f 119/123/9 99/124/9 101/126/9 
f 101/126/9 120/125/9 119/123/9 
f 120/125/9 101/126/9 103/128/9 
f 103/128/9 121/127/9 120/125/9 
f 121/127/9 103/128/9 105/130/9 
f 105/130/9 122/129/9 121/127/9 
f 122/129/9 105/130/9 20/17/9 
f 20/17/9 19/18/9 122/129/9 
f 38/131/23 34/36/23 35/37/23 
f 23/21/12 25/23/12 24/22/12 
f 28/27/14 25/132/14 23/28/14 
f 24/31/24 26/133/24 30/32/24 
f 34/36/25 31/33/25 33/35/25 
f 37/39/26 36/29/26 34/38/26 
f 33/42/22 32/25/22 40/41/22 
s 1
f 17/134/6 117/108/6 13/11/6 
f 13/11/6 12/10/6 17/134/6 
f 128/135/6 129/136/6 98/88/6 
f 98/88/6 97/87/6 128/135/6 
f 129/136/6 130/137/6 100/90/6 
f 100/90/6 98/88/6 129/136/6 
f 130/137/6 131/138/6 102/92/6 
f 102/92/6 100/90/6 130/137/6 
f 131/138/6 132/139/6 104/94/6 
f 104/94/6 102/92/6 131/138/6 
f 132/139/6 18/140/6 106/96/6 
f 106/96/6 104/94/6 132/139/6 
f 18/140/6 17/134/6 12/10/6 
f 12/10/6 106/96/6 18/140/6 
f 133/141/6 134/142/6 109/100/6 
f 109/100/6 108/99/6 133/141/6 
f 134/142/6 135/143/6 111/102/6 
f 111/102/6 109/100/6 134/142/6 
f 135/143/6 136/144/6 113/104/6 
f 113/104/6 111/102/6 135/143/6 
f 136/144/6 137/145/6 115/106/6 
f 115/106/6 113/104/6 136/144/6 
f 137/145/6 14/12/6 13/11/6 
f 13/11/6 115/106/6 137/145/6 
f 138/146/27 139/147/28 140/148/28 
f 140/148/28 141/149/27 138/146/27 
f 142/146/29 143/147/30 144/148/30 
f 144/148/30 145/149/29 142/146/29 
f 146/146/31 147/147/32 148/148/33 
f 148/148/33 149/149/34 146/146/31 
f 150/146/35 151/150/36 148/151/33 
f 148/151/33 147/149/32 150/146/35 
f 150/146/35 152/147/37 153/148/38 
f 153/148/38 151/149/36 150/146/35 
f 142/146/29 145/150/29 140/151/28 
f 140/151/28 139/149/28 142/146/29 
f 138/146/27 141/150/27 144/151/30 
f 144/151/30 143/149/30 138/146/27 
f 146/146/31 149/150/34 153/151/38 
f 153/151/38 152/149/37 146/146/31 
# 228 faces

