# 3ds Max Wavefront OBJ Exporter v0.97b - (c)2007 guruware
# File Created: 10.09.2016 13:03:58

#
# object Plane005
#

v  -8.0000 -3.1350 -0.0000
v  -5.0000 -0.0000 -0.0000
v  -5.0000 -0.0000 -5.3333
v  -8.0000 -3.1300 -5.3333
v  8.0000 -3.1350 -0.0000
v  5.0000 -0.0000 -0.0000
v  5.0000 -0.0000 5.3333
v  8.0000 -3.1400 5.3333
v  -8.0000 -3.1650 32.0000
v  -5.0000 -0.0000 32.0000
v  -5.0000 -0.0000 26.6667
v  -8.0000 -3.1600 26.6667
v  -5.0000 -0.0000 21.3333
v  -8.0000 -3.1550 21.3333
v  -5.0000 -0.0000 16.0000
v  -8.0000 -3.1500 16.0000
v  -5.0000 -0.0000 10.6667
v  -8.0000 -3.1450 10.6667
v  -5.0000 -0.0000 5.3333
v  -8.0000 -3.1400 5.3333
v  -5.0000 -0.0000 -32.0000
v  -8.0000 -3.1150 -32.0000
v  -8.0000 -3.1150 -26.6667
v  -5.0000 -0.0000 -26.6667
v  -8.0000 -3.1150 -21.3333
v  -5.0000 -0.0000 -21.3333
v  -8.0000 -3.1200 -16.0000
v  -5.0000 -0.0000 -16.0000
v  -8.0000 -3.1250 -10.6667
v  -5.0000 -0.0000 -10.6667
v  8.0000 -3.1150 -32.0000
v  5.0000 -0.0000 -32.0000
v  5.0000 -0.0000 -26.6667
v  8.0000 -3.1150 -26.6667
v  5.0000 -0.0000 -21.3333
v  8.0000 -3.1150 -21.3333
v  5.0000 -0.0000 -16.0000
v  8.0000 -3.1200 -16.0000
v  5.0000 -0.0000 -10.6667
v  8.0000 -3.1250 -10.6667
v  5.0000 -0.0000 -5.3333
v  8.0000 -3.1300 -5.3333
v  5.0000 -0.0000 32.0000
v  8.0000 -3.1650 32.0000
v  8.0000 -3.1600 26.6667
v  5.0000 -0.0000 26.6667
v  8.0000 -3.1550 21.3333
v  5.0000 -0.0000 21.3333
v  8.0000 -3.1500 16.0000
v  5.0000 -0.0000 16.0000
v  8.0000 -3.1450 10.6667
v  5.0000 -0.0000 10.6667
v  -2.5000 -0.0000 5.3333
v  -2.5000 -0.0000 -0.0000
v  -2.5000 -0.0000 10.6667
v  -2.5000 -0.0000 16.0000
v  -2.5000 -0.0000 21.3333
v  -2.5000 -0.0000 26.6667
v  2.5000 -0.0000 26.6667
v  2.5000 -0.0000 32.0000
v  -2.5000 -0.0000 -5.3333
v  2.5000 -0.0000 -10.6667
v  2.5000 -0.0000 -5.3333
v  2.5000 -0.0000 -16.0000
v  2.5000 -0.0000 -21.3333
v  2.5000 -0.0000 -26.6667
v  -2.5000 -0.0000 -26.6667
v  -2.5000 -0.0000 -32.0000
v  -2.5000 -0.0000 32.0000
v  0.0000 -0.0000 32.0000
v  0.0000 -0.0000 26.6667
v  2.5000 -0.0000 -0.0000
v  2.5000 -0.0000 5.3333
v  2.5000 -0.0000 10.6667
v  2.5000 -0.0000 16.0000
v  2.5000 -0.0000 21.3333
v  0.0000 -0.0000 -10.6667
v  0.0000 -0.0000 -5.3333
v  0.0000 -0.0000 -16.0000
v  0.0000 -0.0000 -21.3333
v  0.0000 -0.0000 -26.6667
v  2.5000 -0.0000 -32.0000
v  0.0000 -0.0000 5.3333
v  0.0000 -0.0000 -0.0000
v  0.0000 -0.0000 10.6667
v  0.0000 -0.0000 16.0000
v  0.0000 -0.0000 21.3333
v  0.0000 -0.0000 -32.0000
v  -2.5000 -0.0000 -10.6667
v  -2.5000 -0.0000 -16.0000
v  -2.5000 -0.0000 -21.3333
v  2.5000 -0.5000 32.0000
v  5.0000 -0.5000 32.0000
v  -2.5000 -0.5000 32.0000
v  0.0000 -0.5000 32.0000
v  -5.0000 -0.5000 32.0000
v  0.5834 0.7580 -32.0062
v  0.3602 0.7579 -32.0063
v  0.3602 0.7578 -26.6688
v  0.5834 0.7580 -26.6687
v  0.3602 0.4522 -21.3365
v  0.5834 0.4524 -21.3359
v  0.3664 0.4522 -32.0031
v  0.3602 0.4522 -26.6698
v  0.5766 0.4522 -32.0031
v  0.5834 0.4524 -26.6687
v  -0.3603 0.7577 -32.0000
v  -0.5835 0.7578 -32.0000
v  -0.5835 0.7580 -26.6646
v  -0.3603 0.7578 -26.6646
v  -0.5835 0.4524 -21.3308
v  -0.3668 0.4521 -31.9969
v  -0.3603 0.4522 -26.6635
v  -0.3603 0.4522 -21.3302
v  -0.5772 0.4522 -31.9969
v  -0.5835 0.4524 -26.6646
v  -0.5624 -0.0500 -26.1869
v  -0.3865 -0.0500 -26.1869
v  -0.3865 0.4520 -26.1869
v  -0.5624 0.4520 -26.1869
v  -0.3865 -0.0500 -26.3869
v  -0.5624 -0.0500 -26.3869
v  -0.5624 0.4520 -26.3869
v  -0.3865 0.4520 -26.3869
v  0.3858 0.0000 -26.1869
v  0.5617 0.0000 -26.1869
v  0.5617 0.4520 -26.1869
v  0.3858 0.4520 -26.1869
v  0.5617 0.0000 -26.3869
v  0.3858 0.0000 -26.3869
v  0.3858 0.4520 -26.3869
v  0.5617 0.4520 -26.3869
# 132 vertices

vn -0.7258 0.6879 -0.0000
vn -0.4403 0.8979 -0.0000
vn -0.3950 0.9187 -0.0000
vn 0.7258 0.6879 -0.0000
vn 0.3950 0.9187 -0.0000
vn -0.5214 0.8533 -0.0000
vn 0.5214 0.8533 -0.0000
vn 0.0000 1.0000 -0.0000
vn 0.0995 0.9950 -0.0000
vn -0.0995 0.9950 -0.0000
vn 0.0000 0.0000 1.0000
vn -0.0004 1.0000 0.0000
vn -0.0009 1.0000 -0.0000
vn -0.0010 0.9984 0.0572
vn -0.9998 -0.0203 -0.0012
vn -1.0000 0.0000 -0.0000
vn 0.9998 -0.0222 -0.0000
vn 1.0000 0.0000 -0.0013
vn 0.0004 1.0000 -0.0000
vn 0.0009 0.9984 0.0572
vn 0.9998 -0.0213 0.0000
vn 1.0000 -0.0000 -0.0000
vn -0.9998 -0.0206 -0.0012
vn -1.0000 0.0000 0.0000
vn 0.0007 0.9984 0.0572
vn -0.0009 0.9984 0.0572
vn -1.0000 -0.0000 0.0000
vn 1.0000 0.0000 -0.0000
vn 0.0009 1.0000 -0.0000
vn 1.0000 -0.0000 -0.0012
vn 0.0000 0.0000 -1.0000
vn -0.0000 0.0000 -1.0000
vn -1.0000 -0.0000 -0.0000
# 33 vertex normals

vt 0.1212 0.5000 0.0000
vt 0.1385 0.5000 0.0000
vt 0.1385 0.5833 0.0000
vt 0.1212 0.5833 0.0000
vt 0.1212 0.0000 0.0000
vt 0.1385 0.0000 0.0000
vt 0.1385 0.0833 0.0000
vt 0.1212 0.0833 0.0000
vt 0.1385 0.1667 0.0000
vt 0.1212 0.1667 0.0000
vt 0.1385 0.2500 0.0000
vt 0.1212 0.2500 0.0000
vt 0.1385 0.3333 0.0000
vt 0.1212 0.3333 0.0000
vt 0.1385 0.4166 0.0000
vt 0.1212 0.4166 0.0000
vt 0.1385 0.9999 0.0000
vt 0.1212 0.9999 0.0000
vt 0.1212 0.9166 0.0000
vt 0.1385 0.9166 0.0000
vt 0.1212 0.8333 0.0000
vt 0.1385 0.8333 0.0000
vt 0.1212 0.7499 0.0000
vt 0.1385 0.7499 0.0000
vt 0.1212 0.6666 0.0000
vt 0.1385 0.6666 0.0000
vt 0.1212 -0.0000 0.0000
vt 0.1196 0.4167 0.0000
vt 0.3104 0.4167 0.0000
vt 0.3104 0.5000 0.0000
vt 0.1196 0.5000 0.0000
vt 0.1196 0.3333 0.0000
vt 0.3104 0.3333 0.0000
vt 0.1196 0.2500 0.0000
vt 0.3104 0.2500 0.0000
vt 0.1196 0.1667 0.0000
vt 0.3104 0.1667 0.0000
vt 0.1196 0.0833 0.0000
vt 0.3104 0.0833 0.0000
vt 0.6919 0.0833 0.0000
vt 0.6919 0.0000 0.0000
vt 0.8826 0.0000 0.0000
vt 0.8826 0.0833 0.0000
vt 0.3104 0.5833 0.0000
vt 0.1196 0.5833 0.0000
vt 0.8826 0.6667 0.0000
vt 0.6919 0.6667 0.0000
vt 0.6919 0.5833 0.0000
vt 0.8826 0.5833 0.0000
vt 0.8826 0.7500 0.0000
vt 0.6919 0.7500 0.0000
vt 0.8826 0.8333 0.0000
vt 0.6919 0.8333 0.0000
vt 0.8826 0.9167 0.0000
vt 0.6919 0.9167 0.0000
vt 0.3104 0.9167 0.0000
vt 0.3104 1.0000 0.0000
vt 0.1196 1.0000 0.0000
vt 0.1196 0.9167 0.0000
vt 0.3104 0.0000 0.0000
vt 0.5011 0.0000 0.0000
vt 0.5011 0.0833 0.0000
vt 0.8826 0.4167 0.0000
vt 0.8826 0.5000 0.0000
vt 0.6919 0.5000 0.0000
vt 0.6919 0.4167 0.0000
vt 0.8826 0.3333 0.0000
vt 0.6919 0.3333 0.0000
vt 0.8826 0.2500 0.0000
vt 0.6919 0.2500 0.0000
vt 0.8826 0.1667 0.0000
vt 0.6919 0.1667 0.0000
vt 0.5011 0.6667 0.0000
vt 0.5011 0.5833 0.0000
vt 0.5011 0.7500 0.0000
vt 0.5011 0.8333 0.0000
vt 0.5011 0.9167 0.0000
vt 0.8826 1.0000 0.0000
vt 0.6919 1.0000 0.0000
vt 0.5011 0.4167 0.0000
vt 0.5011 0.5000 0.0000
vt 0.5011 0.3333 0.0000
vt 0.5011 0.2500 0.0000
vt 0.5011 0.1667 0.0000
vt 0.5011 1.0000 0.0000
vt 0.1196 0.0000 0.0000
vt 0.1196 0.6667 0.0000
vt 0.3104 0.6667 0.0000
vt 0.1196 0.7500 0.0000
vt 0.3104 0.7500 0.0000
vt 0.1196 0.8333 0.0000
vt 0.3104 0.8333 0.0000
vt 0.0809 0.2500 0.0000
vt -0.0000 0.2500 0.0000
vt 0.0000 0.0000 0.0000
vt 0.0809 0.0000 0.0000
vt 0.0809 0.7500 0.0000
vt -0.0000 0.7500 0.0000
vt -0.0000 0.5000 0.0000
vt 0.0809 0.5000 0.0000
vt 0.0809 1.0000 0.0000
vt -0.0000 1.0000 0.0000
vt 0.8927 0.0047 0.0000
vt 0.9128 0.0047 0.0000
vt 0.9128 0.0880 0.0000
vt 0.8927 0.0881 0.0000
vt 0.9128 0.1714 0.0000
vt 0.8927 0.1715 0.0000
vt 0.9208 1.0000 0.0000
vt 0.8864 1.0000 0.0000
vt 0.8864 0.9167 0.0000
vt 0.9208 0.9166 0.0000
vt 0.9209 0.0000 0.0000
vt 0.9553 0.0000 0.0000
vt 0.9553 0.0833 0.0000
vt 0.9209 0.0834 0.0000
vt 0.9128 0.9938 0.0000
vt 0.8927 0.9938 0.0000
vt 0.8927 0.9215 0.0000
vt 0.9128 0.9214 0.0000
vt 0.8927 0.8381 0.0000
vt 0.8864 0.0000 0.0000
vt 0.9208 0.0000 0.0000
vt 0.9208 0.0832 0.0000
vt 0.8864 0.0833 0.0000
vt 0.9036 0.1666 0.0000
vt 0.9553 1.0000 0.0000
vt 0.9209 1.0000 0.0000
vt 0.9209 0.9168 0.0000
vt 0.9553 0.9167 0.0000
vt 0.9381 0.8334 0.0000
vt 0.9128 0.8380 0.0000
vt 0.9036 0.8332 0.0000
vt 0.9381 0.1668 0.0000
vt 0.9527 0.4991 0.0000
vt 0.9527 0.7472 0.0000
vt 0.9226 0.7472 0.0000
vt 0.9226 0.4991 0.0000
vt 0.9527 0.7473 0.0000
vt 0.9226 0.7473 0.0000
# 140 texture coords

g Plane005
s 1
f 1/1/1 2/2/2 3/3/3 
f 3/3/3 4/4/1 1/1/1 
f 5/1/4 6/2/5 7/3/5 
f 7/3/5 8/4/4 5/1/4 
f 9/5/1 10/6/1 11/7/3 
f 11/7/3 12/8/1 9/5/1 
f 12/8/1 11/7/3 13/9/3 
f 13/9/3 14/10/1 12/8/1 
f 14/10/1 13/9/3 15/11/3 
f 15/11/3 16/12/1 14/10/1 
f 16/12/1 15/11/3 17/13/3 
f 17/13/3 18/14/1 16/12/1 
f 18/14/1 17/13/3 19/15/3 
f 19/15/3 20/16/1 18/14/1 
f 20/16/1 19/15/3 2/2/2 
f 2/2/2 1/1/1 20/16/1 
f 21/17/1 22/18/1 23/19/1 
f 23/19/1 24/20/6 21/17/1 
f 24/20/6 23/19/1 25/21/1 
f 25/21/1 26/22/3 24/20/6 
f 26/22/3 25/21/1 27/23/1 
f 27/23/1 28/24/3 26/22/3 
f 28/24/3 27/23/1 29/25/1 
f 29/25/1 30/26/3 28/24/3 
f 30/26/3 29/25/1 4/4/1 
f 4/4/1 3/3/3 30/26/3 
f 31/27/4 32/6/4 33/7/5 
f 33/7/5 34/8/4 31/27/4 
f 34/8/4 33/7/5 35/9/5 
f 35/9/5 36/10/4 34/8/4 
f 36/10/4 35/9/5 37/11/5 
f 37/11/5 38/12/4 36/10/4 
f 38/12/4 37/11/5 39/13/5 
f 39/13/5 40/14/4 38/12/4 
f 40/14/4 39/13/5 41/15/5 
f 41/15/5 42/16/4 40/14/4 
f 42/16/4 41/15/5 6/2/5 
f 6/2/5 5/1/4 42/16/4 
f 43/17/5 44/18/4 45/19/4 
f 45/19/4 46/20/7 43/17/5 
f 46/20/7 45/19/4 47/21/4 
f 47/21/4 48/22/5 46/20/7 
f 48/22/5 47/21/4 49/23/4 
f 49/23/4 50/24/5 48/22/5 
f 50/24/5 49/23/4 51/25/4 
f 51/25/4 52/26/5 50/24/5 
f 52/26/5 51/25/4 8/4/4 
f 8/4/4 7/3/5 52/26/5 
f 19/28/3 53/29/8 54/30/8 
f 54/30/8 2/31/8 19/28/3 
f 17/32/3 55/33/8 53/29/8 
f 53/29/8 19/28/3 17/32/3 
f 15/34/3 56/35/8 55/33/8 
f 55/33/8 17/32/3 15/34/3 
f 13/36/3 57/37/8 56/35/8 
f 56/35/8 15/34/3 13/36/3 
f 11/38/8 58/39/8 57/37/8 
f 57/37/8 13/36/8 11/38/8 
f 59/40/8 60/41/8 43/42/5 
f 43/42/5 46/43/9 59/40/8 
f 2/31/8 54/30/8 61/44/8 
f 61/44/8 3/45/3 2/31/8 
f 39/46/5 62/47/8 63/48/8 
f 63/48/8 41/49/5 39/46/5 
f 37/50/5 64/51/8 62/47/8 
f 62/47/8 39/46/5 37/50/5 
f 35/52/5 65/53/8 64/51/8 
f 64/51/8 37/50/5 35/52/5 
f 33/54/5 66/55/8 65/53/8 
f 65/53/8 35/52/5 33/54/5 
f 67/56/8 68/57/8 21/58/8 
f 21/58/8 24/59/10 67/56/8 
f 58/39/8 69/60/8 70/61/8 
f 70/61/8 71/62/8 58/39/8 
f 7/63/8 6/64/8 72/65/8 
f 72/65/8 73/66/8 7/63/8 
f 52/67/8 7/63/8 73/66/8 
f 73/66/8 74/68/8 52/67/8 
f 50/69/8 52/67/8 74/68/8 
f 74/68/8 75/70/8 50/69/8 
f 48/71/8 50/69/8 75/70/8 
f 75/70/8 76/72/8 48/71/8 
f 46/43/8 48/71/8 76/72/8 
f 76/72/8 59/40/8 46/43/8 
f 71/62/8 70/61/8 60/41/8 
f 60/41/8 59/40/8 71/62/8 
f 6/64/8 41/49/8 63/48/8 
f 63/48/8 72/65/8 6/64/8 
f 77/73/8 78/74/8 63/48/8 
f 63/48/8 62/47/8 77/73/8 
f 79/75/8 77/73/8 62/47/8 
f 62/47/8 64/51/8 79/75/8 
f 80/76/8 79/75/8 64/51/8 
f 64/51/8 65/53/8 80/76/8 
f 81/77/8 80/76/8 65/53/8 
f 65/53/8 66/55/8 81/77/8 
f 33/54/8 32/78/8 82/79/8 
f 82/79/8 66/55/8 33/54/8 
f 83/80/8 84/81/8 54/30/8 
f 54/30/8 53/29/8 83/80/8 
f 85/82/8 83/80/8 53/29/8 
f 53/29/8 55/33/8 85/82/8 
f 86/83/8 85/82/8 55/33/8 
f 55/33/8 56/35/8 86/83/8 
f 87/84/8 86/83/8 56/35/8 
f 56/35/8 57/37/8 87/84/8 
f 71/62/8 87/84/8 57/37/8 
f 57/37/8 58/39/8 71/62/8 
f 84/81/8 78/74/8 61/44/8 
f 61/44/8 54/30/8 84/81/8 
f 81/77/8 88/85/8 68/57/8 
f 68/57/8 67/56/8 81/77/8 
f 11/38/8 10/86/8 69/60/8 
f 69/60/8 58/39/8 11/38/8 
f 30/87/8 3/45/8 61/44/8 
f 61/44/8 89/88/8 30/87/8 
f 28/89/8 30/87/8 89/88/8 
f 89/88/8 90/90/8 28/89/8 
f 26/91/8 28/89/8 90/90/8 
f 90/90/8 91/92/8 26/91/8 
f 24/59/8 26/91/8 91/92/8 
f 91/92/8 67/56/8 24/59/8 
f 89/88/8 61/44/8 78/74/8 
f 78/74/8 77/73/8 89/88/8 
f 90/90/8 89/88/8 77/73/8 
f 77/73/8 79/75/8 90/90/8 
f 91/92/8 90/90/8 79/75/8 
f 79/75/8 80/76/8 91/92/8 
f 67/56/8 91/92/8 80/76/8 
f 80/76/8 81/77/8 67/56/8 
f 73/66/8 72/65/8 84/81/8 
f 84/81/8 83/80/8 73/66/8 
f 74/68/8 73/66/8 83/80/8 
f 83/80/8 85/82/8 74/68/8 
f 75/70/8 74/68/8 85/82/8 
f 85/82/8 86/83/8 75/70/8 
f 76/72/8 75/70/8 86/83/8 
f 86/83/8 87/84/8 76/72/8 
f 59/40/8 76/72/8 87/84/8 
f 87/84/8 71/62/8 59/40/8 
f 72/65/8 63/48/8 78/74/8 
f 78/74/8 84/81/8 72/65/8 
f 66/55/8 82/79/8 88/85/8 
f 88/85/8 81/77/8 66/55/8 
f 60/93/11 92/94/11 93/95/8 
f 93/95/8 43/96/8 60/93/11 
f 69/97/11 94/98/11 95/99/11 
f 95/99/11 70/100/11 69/97/11 
f 70/100/11 95/99/11 92/94/11 
f 92/94/11 60/93/11 70/100/11 
f 10/101/11 96/102/11 94/98/11 
f 94/98/11 69/97/11 10/101/11 
s off
f 97/103/12 98/104/12 99/105/12 
f 99/105/13 100/106/13 97/103/13 
f 101/107/14 102/108/14 100/106/14 
f 98/109/15 103/110/15 104/111/15 
f 104/111/16 99/112/16 98/109/16 
f 105/113/17 97/114/17 100/115/17 
f 100/115/18 106/116/18 105/113/18 
f 107/117/19 108/118/19 109/119/19 
f 110/120/20 109/119/20 111/121/20 
f 112/122/21 107/123/21 110/124/21 
f 113/125/22 110/124/22 114/126/22 
f 108/127/23 115/128/23 116/129/23 
f 109/130/24 116/129/24 111/131/24 
f 114/132/25 110/120/25 111/121/25 
f 99/105/26 101/107/26 100/106/26 
f 104/111/27 101/133/27 99/112/27 
f 100/115/28 102/134/28 106/116/28 
f 110/120/29 107/117/29 109/119/29 
f 113/125/30 112/122/30 110/124/30 
f 109/130/16 108/127/16 116/129/16 
f 117/135/11 118/136/11 119/137/11 
f 119/137/11 120/138/11 117/135/11 
f 121/135/31 122/136/31 123/137/31 
f 123/137/31 124/138/31 121/135/31 
f 121/135/28 124/139/28 119/140/28 
f 119/140/28 118/138/28 121/135/28 
f 117/135/16 120/139/16 123/140/16 
f 123/140/16 122/138/16 117/135/16 
f 125/135/11 126/136/11 127/137/11 
f 127/137/11 128/138/11 125/135/11 
f 129/135/31 130/136/31 131/137/31 
f 131/137/32 132/138/32 129/135/32 
f 129/135/28 132/139/28 127/140/28 
f 127/140/28 126/138/28 129/135/28 
f 125/135/24 128/139/24 131/140/24 
f 131/140/33 130/138/33 125/135/33 
# 188 faces

