# 3ds Max Wavefront OBJ Exporter v0.97b - (c)2007 guruware
# File Created: 28.08.2016 09:17:34

#
# object Plane007
#

v  -0.0000 -0.0000 32.0000
v  -0.0000 -0.0000 -0.0000
v  -2.5000 -0.0000 -0.0000
v  -2.5000 -0.0000 32.0000
v  -0.0000 -0.0000 -32.0000
v  -2.5000 -0.0000 -32.0000
v  4.7000 2.6500 32.0000
v  5.0000 2.6500 32.0000
v  5.0000 2.6500 -0.0000
v  4.7000 2.6500 -0.0000
v  5.0000 2.6500 -32.0000
v  4.7000 2.6500 -32.0000
v  4.7000 -0.0000 32.0000
v  5.0000 -0.0000 32.0000
v  5.0000 -0.0000 -0.0000
v  5.0000 -0.0000 -32.0000
v  4.7000 -0.0000 -32.0000
v  4.7000 -0.0000 -0.0000
v  -5.0000 2.6500 32.0000
v  -4.7000 2.6500 32.0000
v  -4.7000 2.6500 -0.0000
v  -5.0000 2.6500 -0.0000
v  -4.7000 2.6500 -32.0000
v  -5.0000 2.6500 -32.0000
v  -5.0000 0.0000 32.0000
v  -4.7000 0.0000 32.0000
v  -4.7000 0.0000 -0.0000
v  -4.7000 0.0000 -32.0000
v  -5.0000 0.0000 -32.0000
v  -5.0000 0.0000 -0.0000
v  2.5000 -0.0000 -0.0000
v  2.5000 -0.0000 32.0000
v  -5.0000 -0.0000 -0.0000
v  -5.0000 -0.0000 32.0000
v  2.5000 -0.0000 -32.0000
v  -5.0000 -0.0000 -32.0000
# 36 vertices

vn 0.0000 1.0000 -0.0000
vn 0.0000 0.0000 1.0000
vn 1.0000 0.0000 -0.0000
vn 0.0000 0.0000 -1.0000
vn -1.0000 0.0000 -0.0000
# 5 vertex normals

vt 0.4979 0.0000 0.0000
vt 0.4979 0.5000 0.0000
vt 0.3067 0.5000 0.0000
vt 0.3067 0.0000 0.0000
vt 0.4979 1.0000 0.0000
vt 0.3067 1.0000 0.0000
vt 0.0000 1.3175 0.0000
vt 1.0000 1.3175 0.0000
vt 1.0000 1.8175 0.0000
vt 0.0000 1.8175 0.0000
vt 0.0000 0.5000 0.0000
vt 1.0000 0.5000 0.0000
vt 1.0000 1.0000 0.0000
vt 0.0000 1.0000 0.0000
vt 0.9860 0.0000 0.0000
vt 0.9860 1.0000 0.0000
vt 0.9228 1.0000 0.0000
vt 0.9228 0.0000 0.0000
vt 0.9860 0.5000 0.0000
vt 0.9228 0.5000 0.0000
vt 0.0000 0.0000 0.0000
vt 1.0000 0.0000 0.0000
vt 0.8805 0.0000 0.0000
vt 0.8805 0.5000 0.0000
vt 0.6892 0.5000 0.0000
vt 0.6892 0.0000 0.0000
vt 0.1154 0.5000 0.0000
vt 0.1154 0.0000 0.0000
vt 0.8805 1.0000 0.0000
vt 0.6892 1.0000 0.0000
vt 0.1154 1.0000 0.0000
# 31 texture coords

g Plane007
s 1
f 1/1/1 2/2/1 3/3/1 
f 3/3/1 4/4/1 1/1/1 
f 2/2/1 5/5/1 6/6/1 
f 6/6/1 3/3/1 2/2/1 
s 4
f 7/7/1 8/8/1 9/9/1 
f 9/9/1 10/10/1 7/7/1 
f 10/11/1 9/12/1 11/13/1 
f 11/13/1 12/14/1 10/11/1 
s 8
f 13/15/2 14/16/2 8/17/2 
f 8/17/2 7/18/2 13/15/2 
s 16
f 14/15/3 15/19/3 9/20/3 
f 9/20/3 8/18/3 14/15/3 
f 15/19/3 16/16/3 11/17/3 
f 11/17/3 9/20/3 15/19/3 
s 32
f 16/15/4 17/16/4 12/17/4 
f 12/17/4 11/18/4 16/15/4 
s 64
f 18/19/5 10/20/5 12/18/5 
f 12/18/5 17/15/5 18/19/5 
f 13/16/5 7/17/5 10/20/5 
f 10/20/5 18/19/5 13/16/5 
s 4
f 19/21/1 20/22/1 21/12/1 
f 21/12/1 22/11/1 19/21/1 
f 22/11/1 21/12/1 23/13/1 
f 23/13/1 24/14/1 22/11/1 
s 8
f 25/15/2 26/16/2 20/17/2 
f 20/17/2 19/18/2 25/15/2 
s 16
f 26/15/3 27/19/3 21/20/3 
f 21/20/3 20/18/3 26/15/3 
f 27/19/3 28/16/3 23/17/3 
f 23/17/3 21/20/3 27/19/3 
s 32
f 28/15/4 29/16/4 24/17/4 
f 24/17/4 23/18/4 28/15/4 
s 64
f 30/19/5 22/20/5 24/18/5 
f 24/18/5 29/15/5 30/19/5 
f 25/16/5 19/17/5 22/20/5 
f 22/20/5 30/19/5 25/16/5 
s 1
f 14/23/1 15/24/1 31/25/1 
f 31/25/1 32/26/1 14/23/1 
f 32/26/1 31/25/1 2/2/1 
f 2/2/1 1/1/1 32/26/1 
f 33/27/1 34/28/1 4/4/1 
f 4/4/1 3/3/1 33/27/1 
f 15/24/1 16/29/1 35/30/1 
f 35/30/1 31/25/1 15/24/1 
f 31/25/1 35/30/1 5/5/1 
f 5/5/1 2/2/1 31/25/1 
f 36/31/1 33/27/1 3/3/1 
f 3/3/1 6/6/1 36/31/1 
# 48 faces

