# 3ds Max Wavefront OBJ Exporter v0.97b - (c)2007 guruware
# File Created: 07.07.2016 23:45:28

#
# object Object003
#

v  1.0192 0.3382 -0.0023
v  1.1743 0.3582 -0.0022
v  1.1743 0.3582 -5.3355
v  1.0192 0.3382 -5.3356
v  1.2338 0.0002 -32.0023
v  0.9592 0.0002 -32.0023
v  1.0192 0.3382 -32.0023
v  1.1743 0.3582 -32.0023
v  0.9592 0.0002 -0.0023
v  0.9592 0.0002 -5.3356
v  1.2338 0.0000 32.0040
v  1.1743 0.3582 32.0040
v  1.0192 0.3382 32.0040
v  0.9592 0.0000 32.0040
v  1.2338 0.0002 -0.0022
v  1.1743 0.3582 5.3310
v  1.2338 0.0002 5.3310
v  2.9075 0.3382 -0.0023
v  2.7522 0.3582 -0.0023
v  2.7522 0.3582 5.3310
v  2.9075 0.3382 5.3310
v  2.6922 0.0000 32.0040
v  2.9670 0.0000 32.0040
v  2.9075 0.3382 32.0040
v  2.7522 0.3582 32.0040
v  2.9670 0.0002 -0.0023
v  2.9670 0.0002 5.3310
v  2.6922 0.0002 -32.0023
v  2.7522 0.3582 -32.0023
v  2.9075 0.3382 -32.0023
v  2.9670 0.0002 -32.0023
v  2.6922 0.0002 -0.0023
v  2.7522 0.3582 -5.3356
v  2.6922 0.0002 -5.3356
v  1.1743 0.3582 26.6644
v  1.0192 0.3382 26.6644
v  1.1743 0.3582 21.3311
v  1.0192 0.3382 21.3309
v  1.1743 0.3582 15.9977
v  1.0192 0.3382 15.9977
v  1.1743 0.3582 10.6644
v  1.0192 0.3382 10.6644
v  1.0192 0.3382 5.3310
v  1.0192 0.3382 -26.6691
v  1.1743 0.3582 -26.6689
v  1.0192 0.3382 -21.3356
v  1.1743 0.3582 -21.3356
v  1.0192 0.3382 -16.0023
v  1.1743 0.3582 -16.0023
v  1.0192 0.3382 -10.6691
v  1.1743 0.3582 -10.6690
v  0.9592 0.0002 26.6644
v  0.9592 0.0002 21.3309
v  0.9592 0.0002 15.9977
v  0.9592 0.0002 10.6644
v  0.9592 0.0002 5.3310
v  0.9592 0.0002 -26.6691
v  0.9592 0.0002 -21.3356
v  0.9592 0.0002 -16.0023
v  0.9592 0.0002 -10.6691
v  1.2338 0.0002 -26.6689
v  1.2338 0.0002 -21.3356
v  1.2338 0.0002 -16.0023
v  1.2338 0.0002 -10.6690
v  1.2338 0.0002 -5.3355
v  1.2338 0.0002 26.6644
v  1.2338 0.0002 21.3311
v  1.2338 0.0002 15.9977
v  1.2338 0.0002 10.6644
v  2.7522 0.3582 -26.6691
v  2.9075 0.3382 -26.6691
v  2.7522 0.3582 -21.3356
v  2.9075 0.3382 -21.3356
v  2.7522 0.3582 -16.0023
v  2.9075 0.3382 -16.0023
v  2.7522 0.3582 -10.6691
v  2.9075 0.3382 -10.6691
v  2.9075 0.3382 -5.3356
v  2.9075 0.3382 26.6644
v  2.7522 0.3582 26.6644
v  2.9075 0.3382 21.3309
v  2.7522 0.3582 21.3309
v  2.9075 0.3382 15.9977
v  2.7522 0.3582 15.9977
v  2.9075 0.3382 10.6644
v  2.7522 0.3582 10.6644
v  2.9670 0.0002 -26.6691
v  2.9670 0.0002 -21.3356
v  2.9670 0.0002 -16.0023
v  2.9670 0.0002 -10.6691
v  2.9670 0.0002 -5.3356
v  2.9670 0.0002 26.6644
v  2.9670 0.0002 21.3309
v  2.9670 0.0002 15.9977
v  2.9670 0.0002 10.6644
v  2.6922 0.0002 26.6644
v  2.6922 0.0002 21.3309
v  2.6922 0.0002 15.9977
v  2.6922 0.0002 10.6644
v  2.6922 0.0002 5.3310
v  2.6922 0.0002 -26.6691
v  2.6922 0.0002 -21.3356
v  2.6922 0.0002 -16.0023
v  2.6922 0.0002 -10.6691
v  -1.0192 0.3382 0.0024
v  -1.1743 0.3582 0.0023
v  -1.1743 0.3582 5.3355
v  -1.0192 0.3382 5.3356
v  -1.2342 0.0006 32.0023
v  -0.9596 0.0006 32.0023
v  -1.0192 0.3382 32.0023
v  -1.1743 0.3582 32.0023
v  -0.9596 0.0006 0.0024
v  -0.9596 0.0006 5.3356
v  -1.2342 0.0004 -32.0039
v  -1.1743 0.3582 -32.0040
v  -1.0192 0.3382 -32.0040
v  -0.9596 0.0004 -32.0040
v  -1.2342 0.0006 0.0023
v  -1.1743 0.3582 -5.3310
v  -1.2342 0.0006 -5.3310
v  -2.9075 0.3382 0.0024
v  -2.7522 0.3582 0.0024
v  -2.7522 0.3582 -5.3309
v  -2.9075 0.3382 -5.3309
v  -2.6926 0.0004 -32.0040
v  -2.9675 0.0004 -32.0039
v  -2.9075 0.3382 -32.0040
v  -2.7522 0.3582 -32.0040
v  -2.9675 0.0006 0.0024
v  -2.9675 0.0006 -5.3309
v  -2.6926 0.0006 32.0023
v  -2.7522 0.3582 32.0023
v  -2.9075 0.3382 32.0023
v  -2.9675 0.0006 32.0023
v  -2.6926 0.0006 0.0024
v  -2.7522 0.3582 5.3356
v  -2.6926 0.0006 5.3356
v  -1.1743 0.3582 -26.6644
v  -1.0192 0.3382 -26.6644
v  -1.1743 0.3582 -21.3311
v  -1.0192 0.3382 -21.3309
v  -1.1743 0.3582 -15.9978
v  -1.0192 0.3382 -15.9977
v  -1.1743 0.3582 -10.6644
v  -1.0192 0.3382 -10.6643
v  -1.0192 0.3382 -5.3309
v  -1.0192 0.3382 26.6691
v  -1.1743 0.3582 26.6689
v  -1.0192 0.3382 21.3356
v  -1.1743 0.3582 21.3356
v  -1.0192 0.3382 16.0023
v  -1.1743 0.3582 16.0023
v  -1.0192 0.3382 10.6691
v  -1.1743 0.3582 10.6690
v  -0.9596 0.0006 -26.6644
v  -0.9596 0.0006 -21.3309
v  -0.9596 0.0006 -15.9977
v  -0.9596 0.0006 -10.6643
v  -0.9596 0.0006 -5.3309
v  -0.9596 0.0006 26.6691
v  -0.9596 0.0006 21.3356
v  -0.9596 0.0006 16.0023
v  -0.9596 0.0006 10.6691
v  -1.2342 0.0006 26.6689
v  -1.2342 0.0006 21.3356
v  -1.2342 0.0006 16.0023
v  -1.2342 0.0006 10.6690
v  -1.2342 0.0006 5.3355
v  -1.2342 0.0006 -26.6644
v  -1.2342 0.0006 -21.3311
v  -1.2342 0.0006 -15.9978
v  -1.2342 0.0006 -10.6644
v  -2.7522 0.3582 26.6691
v  -2.9075 0.3382 26.6691
v  -2.7522 0.3582 21.3356
v  -2.9075 0.3382 21.3356
v  -2.7522 0.3582 16.0023
v  -2.9075 0.3382 16.0023
v  -2.7522 0.3582 10.6691
v  -2.9075 0.3382 10.6691
v  -2.9075 0.3382 5.3356
v  -2.9075 0.3382 -26.6644
v  -2.7522 0.3582 -26.6644
v  -2.9075 0.3382 -21.3309
v  -2.7522 0.3582 -21.3309
v  -2.9075 0.3382 -15.9977
v  -2.7522 0.3582 -15.9977
v  -2.9075 0.3382 -10.6643
v  -2.7522 0.3582 -10.6643
v  -2.9675 0.0006 26.6691
v  -2.9675 0.0006 21.3356
v  -2.9675 0.0006 16.0023
v  -2.9675 0.0006 10.6691
v  -2.9675 0.0006 5.3356
v  -2.9675 0.0006 -26.6644
v  -2.9675 0.0006 -21.3309
v  -2.9675 0.0006 -15.9977
v  -2.9675 0.0006 -10.6643
v  -2.6926 0.0006 -26.6644
v  -2.6926 0.0006 -21.3309
v  -2.6926 0.0006 -15.9977
v  -2.6926 0.0006 -10.6643
v  -2.6926 0.0006 -5.3309
v  -2.6926 0.0006 26.6691
v  -2.6926 0.0006 21.3356
v  -2.6926 0.0006 16.0023
v  -2.6926 0.0006 10.6691
# 208 vertices

vn -0.7510 0.6603 -0.0000
vn 0.6603 0.7510 -0.0000
vn 0.0007 0.0000 -1.0000
vn -1.0000 0.0000 -0.0000
vn 0.0000 0.0000 1.0000
vn 1.0000 0.0000 -0.0000
vn 0.7509 0.6604 -0.0000
vn -0.6604 0.7509 -0.0000
vn 0.0000 0.0000 -1.0000
vn 0.6602 0.7511 -0.0000
vn -0.7511 0.6602 -0.0000
vn 0.7510 0.6603 -0.0000
vn -0.6603 0.7510 -0.0000
vn -0.0007 0.0000 1.0000
vn -0.7509 0.6604 -0.0000
vn 0.6604 0.7509 -0.0000
vn -0.6602 0.7511 -0.0000
vn 0.7511 0.6602 -0.0000
# 18 vertex normals

vt 0.9920 0.5000 0.0000
vt 0.7536 0.5000 0.0000
vt 0.7536 0.4167 0.0000
vt 0.9920 0.4167 0.0000
vt 0.2920 0.0000 0.0000
vt 0.7412 0.0000 0.0000
vt 0.7412 1.0000 0.0000
vt 0.2920 1.0000 0.0000
vt 0.7420 0.5000 0.0000
vt 0.2667 0.5000 0.0000
vt 0.2667 0.4162 0.0000
vt 0.7420 0.4162 0.0000
vt 0.9920 1.0000 0.0000
vt 0.7536 1.0000 0.0000
vt 0.7536 0.9167 0.0000
vt 0.9920 0.9167 0.0000
vt 0.7536 0.8333 0.0000
vt 0.9920 0.8333 0.0000
vt 0.7536 0.7500 0.0000
vt 0.9920 0.7500 0.0000
vt 0.7536 0.6667 0.0000
vt 0.9920 0.6667 0.0000
vt 0.7536 0.5833 0.0000
vt 0.9920 0.5833 0.0000
vt 0.7536 0.0000 0.0000
vt 0.9920 0.0000 0.0000
vt 0.9920 0.0833 0.0000
vt 0.7536 0.0833 0.0000
vt 0.9920 0.1667 0.0000
vt 0.7536 0.1667 0.0000
vt 0.9920 0.2500 0.0000
vt 0.7536 0.2500 0.0000
vt 0.9920 0.3333 0.0000
vt 0.7536 0.3333 0.0000
vt 0.7420 1.0030 0.0000
vt 0.2667 1.0030 0.0000
vt 0.2667 0.9192 0.0000
vt 0.7420 0.9192 0.0000
vt 0.2667 0.8353 0.0000
vt 0.7420 0.8353 0.0000
vt 0.2667 0.7515 0.0000
vt 0.7420 0.7515 0.0000
vt 0.2667 0.6677 0.0000
vt 0.7420 0.6677 0.0000
vt 0.2667 0.5838 0.0000
vt 0.7420 0.5838 0.0000
vt 0.2667 -0.0030 0.0000
vt 0.7420 -0.0030 0.0000
vt 0.7420 0.0808 0.0000
vt 0.2667 0.0808 0.0000
vt 0.7420 0.1647 0.0000
vt 0.2667 0.1647 0.0000
vt 0.7420 0.2485 0.0000
vt 0.2667 0.2485 0.0000
vt 0.7420 0.3323 0.0000
vt 0.2667 0.3323 0.0000
# 56 texture coords

g Object003
s 1
f 1/1/1 2/2/2 3/3/2 
f 3/3/2 4/4/1 1/1/1 
s off
f 5/5/3 6/6/3 7/7/3 
f 7/7/3 8/8/3 5/5/3 
s 1
f 9/9/4 1/10/1 4/11/1 
f 4/11/1 10/12/4 9/9/4 
s off
f 11/6/5 12/7/5 13/8/5 
f 13/8/5 14/5/5 11/6/5 
s 1
f 15/9/6 2/10/2 16/11/2 
f 16/11/2 17/12/6 15/9/6 
f 18/1/7 19/2/8 20/3/8 
f 20/3/8 21/4/7 18/1/7 
s off
f 22/5/5 23/6/5 24/7/5 
f 24/7/5 25/8/5 22/5/5 
s 1
f 26/9/6 18/10/7 21/11/7 
f 21/11/7 27/12/6 26/9/6 
s off
f 28/6/9 29/7/9 30/8/9 
f 30/8/9 31/5/9 28/6/9 
s 1
f 32/9/4 19/10/8 33/11/8 
f 33/11/8 34/12/4 32/9/4 
f 13/13/1 12/14/2 35/15/2 
f 35/15/2 36/16/1 13/13/1 
f 36/16/1 35/15/2 37/17/2 
f 37/17/2 38/18/1 36/16/1 
f 38/18/1 37/17/2 39/19/2 
f 39/19/2 40/20/1 38/18/1 
f 40/20/1 39/19/2 41/21/2 
f 41/21/2 42/22/1 40/20/1 
f 42/22/1 41/21/2 16/23/2 
f 16/23/2 43/24/1 42/22/1 
f 43/24/1 16/23/2 2/2/2 
f 2/2/2 1/1/1 43/24/1 
f 8/25/10 7/26/11 44/27/1 
f 44/27/1 45/28/2 8/25/10 
f 45/28/2 44/27/1 46/29/1 
f 46/29/1 47/30/2 45/28/2 
f 47/30/2 46/29/1 48/31/1 
f 48/31/1 49/32/2 47/30/2 
f 49/32/2 48/31/1 50/33/1 
f 50/33/1 51/34/2 49/32/2 
f 51/34/2 50/33/1 4/4/1 
f 4/4/1 3/3/2 51/34/2 
f 14/35/4 13/36/1 36/37/1 
f 36/37/1 52/38/4 14/35/4 
f 52/38/4 36/37/1 38/39/1 
f 38/39/1 53/40/4 52/38/4 
f 53/40/4 38/39/1 40/41/1 
f 40/41/1 54/42/4 53/40/4 
f 54/42/4 40/41/1 42/43/1 
f 42/43/1 55/44/4 54/42/4 
f 55/44/4 42/43/1 43/45/1 
f 43/45/1 56/46/4 55/44/4 
f 56/46/4 43/45/1 1/10/1 
f 1/10/1 9/9/4 56/46/4 
f 7/47/11 6/48/4 57/49/4 
f 57/49/4 44/50/1 7/47/11 
f 44/50/1 57/49/4 58/51/4 
f 58/51/4 46/52/1 44/50/1 
f 46/52/1 58/51/4 59/53/4 
f 59/53/4 48/54/1 46/52/1 
f 48/54/1 59/53/4 60/55/4 
f 60/55/4 50/56/1 48/54/1 
f 50/56/1 60/55/4 10/12/4 
f 10/12/4 4/11/1 50/56/1 
f 5/35/6 8/36/10 45/37/2 
f 45/37/2 61/38/6 5/35/6 
f 61/38/6 45/37/2 47/39/2 
f 47/39/2 62/40/6 61/38/6 
f 62/40/6 47/39/2 49/41/2 
f 49/41/2 63/42/6 62/40/6 
f 63/42/6 49/41/2 51/43/2 
f 51/43/2 64/44/6 63/42/6 
f 64/44/6 51/43/2 3/45/2 
f 3/45/2 65/46/6 64/44/6 
f 65/46/6 3/45/2 2/10/2 
f 2/10/2 15/9/6 65/46/6 
f 12/47/2 11/48/6 66/49/6 
f 66/49/6 35/50/2 12/47/2 
f 35/50/2 66/49/6 67/51/6 
f 67/51/6 37/52/2 35/50/2 
f 37/52/2 67/51/6 68/53/6 
f 68/53/6 39/54/2 37/52/2 
f 39/54/2 68/53/6 69/55/6 
f 69/55/6 41/56/2 39/54/2 
f 41/56/2 69/55/6 17/12/6 
f 17/12/6 16/11/2 41/56/2 
f 30/13/7 29/14/8 70/15/8 
f 70/15/8 71/16/7 30/13/7 
f 71/16/7 70/15/8 72/17/8 
f 72/17/8 73/18/7 71/16/7 
f 73/18/7 72/17/8 74/19/8 
f 74/19/8 75/20/7 73/18/7 
f 75/20/7 74/19/8 76/21/8 
f 76/21/8 77/22/7 75/20/7 
f 77/22/7 76/21/8 33/23/8 
f 33/23/8 78/24/7 77/22/7 
f 78/24/7 33/23/8 19/2/8 
f 19/2/8 18/1/7 78/24/7 
f 25/25/8 24/26/7 79/27/7 
f 79/27/7 80/28/8 25/25/8 
f 80/28/8 79/27/7 81/29/7 
f 81/29/7 82/30/8 80/28/8 
f 82/30/8 81/29/7 83/31/7 
f 83/31/7 84/32/8 82/30/8 
f 84/32/8 83/31/7 85/33/7 
f 85/33/7 86/34/8 84/32/8 
f 86/34/8 85/33/7 21/4/7 
f 21/4/7 20/3/8 86/34/8 
f 31/35/6 30/36/7 71/37/7 
f 71/37/7 87/38/6 31/35/6 
f 87/38/6 71/37/7 73/39/7 
f 73/39/7 88/40/6 87/38/6 
f 88/40/6 73/39/7 75/41/7 
f 75/41/7 89/42/6 88/40/6 
f 89/42/6 75/41/7 77/43/7 
f 77/43/7 90/44/6 89/42/6 
f 90/44/6 77/43/7 78/45/7 
f 78/45/7 91/46/6 90/44/6 
f 91/46/6 78/45/7 18/10/7 
f 18/10/7 26/9/6 91/46/6 
f 24/47/7 23/48/6 92/49/6 
f 92/49/6 79/50/7 24/47/7 
f 79/50/7 92/49/6 93/51/6 
f 93/51/6 81/52/7 79/50/7 
f 81/52/7 93/51/6 94/53/6 
f 94/53/6 83/54/7 81/52/7 
f 83/54/7 94/53/6 95/55/6 
f 95/55/6 85/56/7 83/54/7 
f 85/56/7 95/55/6 27/12/6 
f 27/12/6 21/11/7 85/56/7 
f 22/35/4 25/36/8 80/37/8 
f 80/37/8 96/38/4 22/35/4 
f 96/38/4 80/37/8 82/39/8 
f 82/39/8 97/40/4 96/38/4 
f 97/40/4 82/39/8 84/41/8 
f 84/41/8 98/42/4 97/40/4 
f 98/42/4 84/41/8 86/43/8 
f 86/43/8 99/44/4 98/42/4 
f 99/44/4 86/43/8 20/45/8 
f 20/45/8 100/46/4 99/44/4 
f 100/46/4 20/45/8 19/10/8 
f 19/10/8 32/9/4 100/46/4 
f 29/47/8 28/48/4 101/49/4 
f 101/49/4 70/50/8 29/47/8 
f 70/50/8 101/49/4 102/51/4 
f 102/51/4 72/52/8 70/50/8 
f 72/52/8 102/51/4 103/53/4 
f 103/53/4 74/54/8 72/52/8 
f 74/54/8 103/53/4 104/55/4 
f 104/55/4 76/56/8 74/54/8 
f 76/56/8 104/55/4 34/12/4 
f 34/12/4 33/11/8 76/56/8 
f 105/1/12 106/2/13 107/3/13 
f 107/3/13 108/4/12 105/1/12 
s off
f 109/5/14 110/6/14 111/7/14 
f 111/7/14 112/8/14 109/5/14 
s 1
f 113/9/6 105/10/12 108/11/12 
f 108/11/12 114/12/6 113/9/6 
s off
f 115/6/9 116/7/9 117/8/9 
f 117/8/9 118/5/9 115/6/9 
s 1
f 119/9/4 106/10/13 120/11/13 
f 120/11/13 121/12/4 119/9/4 
f 122/1/15 123/2/16 124/3/16 
f 124/3/16 125/4/15 122/1/15 
s off
f 126/5/9 127/6/9 128/7/9 
f 128/7/9 129/8/9 126/5/9 
s 1
f 130/9/4 122/10/15 125/11/15 
f 125/11/15 131/12/4 130/9/4 
s off
f 132/6/5 133/7/5 134/8/5 
f 134/8/5 135/5/5 132/6/5 
s 1
f 136/9/6 123/10/16 137/11/16 
f 137/11/16 138/12/6 136/9/6 
f 117/13/12 116/14/13 139/15/13 
f 139/15/13 140/16/12 117/13/12 
f 140/16/12 139/15/13 141/17/13 
f 141/17/13 142/18/12 140/16/12 
f 142/18/12 141/17/13 143/19/13 
f 143/19/13 144/20/12 142/18/12 
f 144/20/12 143/19/13 145/21/13 
f 145/21/13 146/22/12 144/20/12 
f 146/22/12 145/21/13 120/23/13 
f 120/23/13 147/24/12 146/22/12 
f 147/24/12 120/23/13 106/2/13 
f 106/2/13 105/1/12 147/24/12 
f 112/25/17 111/26/18 148/27/12 
f 148/27/12 149/28/13 112/25/17 
f 149/28/13 148/27/12 150/29/12 
f 150/29/12 151/30/13 149/28/13 
f 151/30/13 150/29/12 152/31/12 
f 152/31/12 153/32/13 151/30/13 
f 153/32/13 152/31/12 154/33/12 
f 154/33/12 155/34/13 153/32/13 
f 155/34/13 154/33/12 108/4/12 
f 108/4/12 107/3/13 155/34/13 
f 118/35/6 117/36/12 140/37/12 
f 140/37/12 156/38/6 118/35/6 
f 156/38/6 140/37/12 142/39/12 
f 142/39/12 157/40/6 156/38/6 
f 157/40/6 142/39/12 144/41/12 
f 144/41/12 158/42/6 157/40/6 
f 158/42/6 144/41/12 146/43/12 
f 146/43/12 159/44/6 158/42/6 
f 159/44/6 146/43/12 147/45/12 
f 147/45/12 160/46/6 159/44/6 
f 160/46/6 147/45/12 105/10/12 
f 105/10/12 113/9/6 160/46/6 
f 111/47/18 110/48/6 161/49/6 
f 161/49/6 148/50/12 111/47/18 
f 148/50/12 161/49/6 162/51/6 
f 162/51/6 150/52/12 148/50/12 
f 150/52/12 162/51/6 163/53/6 
f 163/53/6 152/54/12 150/52/12 
f 152/54/12 163/53/6 164/55/6 
f 164/55/6 154/56/12 152/54/12 
f 154/56/12 164/55/6 114/12/6 
f 114/12/6 108/11/12 154/56/12 
f 109/35/4 112/36/17 149/37/13 
f 149/37/13 165/38/4 109/35/4 
f 165/38/4 149/37/13 151/39/13 
f 151/39/13 166/40/4 165/38/4 
f 166/40/4 151/39/13 153/41/13 
f 153/41/13 167/42/4 166/40/4 
f 167/42/4 153/41/13 155/43/13 
f 155/43/13 168/44/4 167/42/4 
f 168/44/4 155/43/13 107/45/13 
f 107/45/13 169/46/4 168/44/4 
f 169/46/4 107/45/13 106/10/13 
f 106/10/13 119/9/4 169/46/4 
f 116/47/13 115/48/4 170/49/4 
f 170/49/4 139/50/13 116/47/13 
f 139/50/13 170/49/4 171/51/4 
f 171/51/4 141/52/13 139/50/13 
f 141/52/13 171/51/4 172/53/4 
f 172/53/4 143/54/13 141/52/13 
f 143/54/13 172/53/4 173/55/4 
f 173/55/4 145/56/13 143/54/13 
f 145/56/13 173/55/4 121/12/4 
f 121/12/4 120/11/13 145/56/13 
f 134/13/15 133/14/16 174/15/16 
f 174/15/16 175/16/15 134/13/15 
f 175/16/15 174/15/16 176/17/16 
f 176/17/16 177/18/15 175/16/15 
f 177/18/15 176/17/16 178/19/16 
f 178/19/16 179/20/15 177/18/15 
f 179/20/15 178/19/16 180/21/16 
f 180/21/16 181/22/15 179/20/15 
f 181/22/15 180/21/16 137/23/16 
f 137/23/16 182/24/15 181/22/15 
f 182/24/15 137/23/16 123/2/16 
f 123/2/16 122/1/15 182/24/15 
f 129/25/16 128/26/15 183/27/15 
f 183/27/15 184/28/16 129/25/16 
f 184/28/16 183/27/15 185/29/15 
f 185/29/15 186/30/16 184/28/16 
f 186/30/16 185/29/15 187/31/15 
f 187/31/15 188/32/16 186/30/16 
f 188/32/16 187/31/15 189/33/15 
f 189/33/15 190/34/16 188/32/16 
f 190/34/16 189/33/15 125/4/15 
f 125/4/15 124/3/16 190/34/16 
f 135/35/4 134/36/15 175/37/15 
f 175/37/15 191/38/4 135/35/4 
f 191/38/4 175/37/15 177/39/15 
f 177/39/15 192/40/4 191/38/4 
f 192/40/4 177/39/15 179/41/15 
f 179/41/15 193/42/4 192/40/4 
f 193/42/4 179/41/15 181/43/15 
f 181/43/15 194/44/4 193/42/4 
f 194/44/4 181/43/15 182/45/15 
f 182/45/15 195/46/4 194/44/4 
f 195/46/4 182/45/15 122/10/15 
f 122/10/15 130/9/4 195/46/4 
f 128/47/15 127/48/4 196/49/4 
f 196/49/4 183/50/15 128/47/15 
f 183/50/15 196/49/4 197/51/4 
f 197/51/4 185/52/15 183/50/15 
f 185/52/15 197/51/4 198/53/4 
f 198/53/4 187/54/15 185/52/15 
f 187/54/15 198/53/4 199/55/4 
f 199/55/4 189/56/15 187/54/15 
f 189/56/15 199/55/4 131/12/4 
f 131/12/4 125/11/15 189/56/15 
f 126/35/6 129/36/16 184/37/16 
f 184/37/16 200/38/6 126/35/6 
f 200/38/6 184/37/16 186/39/16 
f 186/39/16 201/40/6 200/38/6 
f 201/40/6 186/39/16 188/41/16 
f 188/41/16 202/42/6 201/40/6 
f 202/42/6 188/41/16 190/43/16 
f 190/43/16 203/44/6 202/42/6 
f 203/44/6 190/43/16 124/45/16 
f 124/45/16 204/46/6 203/44/6 
f 204/46/6 124/45/16 123/10/16 
f 123/10/16 136/9/6 204/46/6 
f 133/47/16 132/48/6 205/49/6 
f 205/49/6 174/50/16 133/47/16 
f 174/50/16 205/49/6 206/51/6 
f 206/51/6 176/52/16 174/50/16 
f 176/52/16 206/51/6 207/53/6 
f 207/53/6 178/54/16 176/52/16 
f 178/54/16 207/53/6 208/55/6 
f 208/55/6 180/56/16 178/54/16 
f 180/56/16 208/55/6 138/12/6 
f 138/12/6 137/11/16 180/56/16 
# 0 polygons - 304 triangles

