# 3ds Max Wavefront OBJ Exporter v0.97b - (c)2007 guruware
# File Created: 16.11.2016 01:09:43

#
# object Plane013
#

v  0.3602 0.7578 -0.0021
v  0.5834 0.7580 -0.0021
v  0.5834 0.7580 -5.3354
v  0.3634 0.4522 -0.0031
v  0.3602 0.7578 -5.3354
v  0.5834 0.7580 5.3313
v  0.5834 0.4524 5.3313
v  0.5813 0.4523 -0.0021
v  0.3602 0.7577 32.0000
v  0.5834 0.7578 32.0000
v  0.5834 0.7580 26.6646
v  0.3602 0.7578 26.6646
v  0.5834 0.7580 21.3313
v  0.3602 0.7578 21.3312
v  0.5834 0.7580 15.9979
v  0.3602 0.7578 15.9979
v  0.5834 0.7580 10.6646
v  0.3602 0.7578 10.6646
v  0.3602 0.7578 5.3312
v  0.5834 0.7580 -32.0062
v  0.3602 0.7579 -32.0063
v  0.3602 0.7578 -26.6688
v  0.5834 0.7580 -26.6687
v  0.3602 0.7578 -21.3354
v  0.5834 0.7580 -21.3354
v  0.3602 0.7578 -16.0021
v  0.5834 0.7580 -16.0021
v  0.3602 0.7578 -10.6688
v  0.5834 0.7580 -10.6687
v  0.3666 0.4520 32.0000
v  0.3602 0.4522 26.6635
v  0.3602 0.4522 21.3302
v  0.3602 0.4522 15.9969
v  0.3602 0.4522 10.6635
v  0.3602 0.4522 5.3302
v  0.3664 0.4522 -32.0031
v  0.3602 0.4522 -26.6698
v  0.3602 0.4522 -21.3365
v  0.3602 0.4522 -16.0031
v  0.3602 0.4522 -10.6698
v  0.3602 0.4522 -5.3365
v  0.5766 0.4522 -32.0031
v  0.5834 0.4524 -26.6687
v  0.5834 0.4524 -21.3354
v  0.5834 0.4524 -16.0021
v  0.5834 0.4524 -10.6687
v  0.5834 0.4524 -5.3354
v  0.5769 0.4520 32.0000
v  0.5834 0.4524 26.6646
v  0.5834 0.4524 21.3313
v  0.5834 0.4524 15.9979
v  0.5834 0.4524 10.6646
v  -0.3603 0.7578 0.0021
v  -0.5835 0.7580 0.0021
v  -0.5835 0.7580 5.3354
v  -0.3635 0.4522 0.0016
v  -0.3603 0.7578 5.3354
v  -0.5835 0.7580 -5.3313
v  -0.5835 0.4524 -5.3313
v  -0.5814 0.4524 0.0010
v  -0.3603 0.7577 -32.0000
v  -0.5835 0.7578 -32.0000
v  -0.5835 0.7580 -26.6646
v  -0.3603 0.7578 -26.6646
v  -0.5835 0.7580 -21.3313
v  -0.3603 0.7578 -21.3312
v  -0.5835 0.7580 -15.9979
v  -0.3603 0.7578 -15.9979
v  -0.5835 0.7580 -10.6646
v  -0.3603 0.7578 -10.6646
v  -0.3603 0.7578 -5.3312
v  -0.5835 0.7580 32.0062
v  -0.3603 0.7579 32.0063
v  -0.3603 0.7578 26.6688
v  -0.5835 0.7580 26.6687
v  -0.3603 0.7578 21.3354
v  -0.5835 0.7580 21.3354
v  -0.3603 0.7578 16.0021
v  -0.5835 0.7580 16.0021
v  -0.3603 0.7578 10.6688
v  -0.5835 0.7580 10.6687
v  -0.3668 0.4521 -31.9969
v  -0.3603 0.4522 -26.6635
v  -0.3603 0.4522 -21.3302
v  -0.3603 0.4522 -15.9969
v  -0.3603 0.4522 -10.6635
v  -0.3603 0.4522 -5.3302
v  -0.3667 0.4521 32.0063
v  -0.3603 0.4522 26.6698
v  -0.3603 0.4522 21.3365
v  -0.3603 0.4522 16.0031
v  -0.3603 0.4522 10.6698
v  -0.3603 0.4522 5.3365
v  -0.5770 0.4522 32.0062
v  -0.5835 0.4524 26.6687
v  -0.5835 0.4524 21.3354
v  -0.5835 0.4524 16.0021
v  -0.5835 0.4524 10.6687
v  -0.5835 0.4524 5.3354
v  -0.5772 0.4522 -31.9969
v  -0.5835 0.4524 -26.6646
v  -0.5835 0.4524 -21.3313
v  -0.5835 0.4524 -15.9979
v  -0.5835 0.4524 -10.6646
v  -0.5624 0.0000 -4.6388
v  -0.3865 0.0000 -4.6388
v  -0.3865 0.4520 -4.6388
v  -0.5624 0.4520 -4.6388
v  -0.3865 0.0000 -4.8388
v  -0.5624 0.0000 -4.8388
v  -0.5624 0.4520 -4.8388
v  -0.3865 0.4520 -4.8388
v  -0.5624 0.0000 5.0327
v  -0.3865 0.0000 5.0327
v  -0.3865 0.4520 5.0327
v  -0.5624 0.4520 5.0327
v  -0.3865 0.0000 4.8327
v  -0.5624 0.0000 4.8327
v  -0.5624 0.4520 4.8327
v  -0.3865 0.4520 4.8327
v  -0.5624 0.0000 -26.1869
v  -0.3865 0.0000 -26.1869
v  -0.3865 0.4520 -26.1869
v  -0.5624 0.4520 -26.1869
v  -0.3865 0.0000 -26.3869
v  -0.5624 0.0000 -26.3869
v  -0.5624 0.4520 -26.3869
v  -0.3865 0.4520 -26.3869
v  -0.5624 0.0000 -16.5154
v  -0.3865 0.0000 -16.5154
v  -0.3865 0.4520 -16.5154
v  -0.5624 0.4520 -16.5154
v  -0.3865 0.0000 -16.7154
v  -0.5624 0.0000 -16.7154
v  -0.5624 0.4520 -16.7154
v  -0.3865 0.4520 -16.7154
v  -0.5624 0.0000 16.5509
v  -0.3865 0.0000 16.5509
v  -0.3865 0.4520 16.5509
v  -0.5624 0.4520 16.5509
v  -0.3865 0.0000 16.3509
v  -0.5624 0.0000 16.3509
v  -0.5624 0.4520 16.3509
v  -0.3865 0.4520 16.3509
v  -0.5624 0.0000 26.2224
v  -0.3865 0.0000 26.2224
v  -0.3865 0.4520 26.2224
v  -0.5624 0.4520 26.2224
v  -0.3865 0.0000 26.0224
v  -0.5624 0.0000 26.0224
v  -0.5624 0.4520 26.0224
v  -0.3865 0.4520 26.0224
v  -5.0000 0.0000 -0.0000
v  -5.0000 0.0000 5.3333
v  5.0000 0.0000 5.3333
v  5.0000 0.0000 -0.0000
v  -5.0000 0.0000 10.6667
v  5.0000 0.0000 10.6667
v  -5.0000 0.0000 16.0000
v  5.0000 0.0000 16.0000
v  -5.0000 0.0000 21.3333
v  5.0000 0.0000 21.3333
v  -5.0000 0.0000 26.6667
v  5.0000 0.0000 26.6667
v  -5.0000 0.0000 32.0000
v  5.0000 0.0000 32.0000
v  -5.0000 0.0000 -5.3333
v  5.0000 0.0000 -5.3333
v  5.0000 0.0000 -10.6667
v  -5.0000 0.0000 -10.6667
v  5.0000 0.0000 -16.0000
v  -5.0000 0.0000 -16.0000
v  5.0000 0.0000 -21.3333
v  -5.0000 0.0000 -21.3333
v  5.0000 0.0000 -26.6667
v  -5.0000 0.0000 -26.6667
v  5.0000 0.0000 -32.0000
v  -5.0000 0.0000 -32.0000
v  0.3858 0.0000 -4.6388
v  0.5617 0.0000 -4.6388
v  0.5617 0.4520 -4.6388
v  0.3858 0.4520 -4.6388
v  0.5617 0.0000 -4.8388
v  0.3858 0.0000 -4.8388
v  0.3858 0.4520 -4.8388
v  0.5617 0.4520 -4.8388
v  0.3858 0.0000 5.0327
v  0.5617 0.0000 5.0327
v  0.5617 0.4520 5.0327
v  0.3858 0.4520 5.0327
v  0.5617 0.0000 4.8327
v  0.3858 0.0000 4.8327
v  0.3858 0.4520 4.8327
v  0.5617 0.4520 4.8327
v  0.3858 0.0000 -26.1869
v  0.5617 0.0000 -26.1869
v  0.5617 0.4520 -26.1869
v  0.3858 0.4520 -26.1869
v  0.5617 0.0000 -26.3869
v  0.3858 0.0000 -26.3869
v  0.3858 0.4520 -26.3869
v  0.5617 0.4520 -26.3869
v  0.3858 0.0000 -16.5154
v  0.5617 0.0000 -16.5154
v  0.5617 0.4520 -16.5154
v  0.3858 0.4520 -16.5154
v  0.5617 0.0000 -16.7154
v  0.3858 0.0000 -16.7154
v  0.3858 0.4520 -16.7154
v  0.5617 0.4520 -16.7154
v  0.3858 0.0000 16.5509
v  0.5617 0.0000 16.5509
v  0.5617 0.4520 16.5509
v  0.3858 0.4520 16.5509
v  0.5617 0.0000 16.3509
v  0.3858 0.0000 16.3509
v  0.3858 0.4520 16.3509
v  0.5617 0.4520 16.3509
v  0.3858 0.0000 26.2224
v  0.5617 0.0000 26.2224
v  0.5617 0.4520 26.2224
v  0.3858 0.4520 26.2224
v  0.5617 0.0000 26.0224
v  0.3858 0.0000 26.0224
v  0.3858 0.4520 26.0224
v  0.5617 0.4520 26.0224
# 226 vertices

vn -0.0007 1.0000 -0.0000
vn -0.9999 -0.0137 -0.0000
vn 1.0000 0.0003 -0.0005
vn -0.0003 1.0000 -0.0000
vn -0.9996 -0.0278 -0.0000
vn -1.0000 0.0000 -0.0000
vn -0.9996 -0.0268 -0.0015
vn 0.9996 -0.0297 -0.0000
vn 1.0000 0.0003 -0.0017
vn 1.0000 0.0003 -0.0000
vn 1.0000 -0.0092 0.0005
vn 0.9996 -0.0288 0.0016
vn 0.0007 1.0000 -0.0000
vn 0.9999 -0.0141 -0.0000
vn -1.0000 0.0003 0.0005
vn 0.0003 1.0000 -0.0000
vn 0.9996 -0.0288 -0.0000
vn 1.0000 0.0000 -0.0000
vn 0.9996 -0.0281 0.0016
vn -0.9996 -0.0284 -0.0000
vn -1.0000 0.0003 0.0016
vn -1.0000 0.0003 -0.0000
vn -1.0000 -0.0092 -0.0005
vn -0.9996 -0.0278 -0.0016
vn 0.0000 0.0000 1.0000
vn 0.0000 0.0000 -1.0000
vn 1.0000 -0.0093 -0.0000
vn -0.0005 1.0000 -0.0000
vn -0.9999 -0.0139 -0.0008
vn -1.0000 -0.0091 -0.0000
vn 0.0005 1.0000 -0.0000
vn 0.9999 -0.0140 0.0008
vn 0.7071 0.0000 -0.7071
vn 0.7071 0.0000 0.7071
vn -0.7071 0.0000 0.7071
vn -0.7071 0.0000 -0.7071
vn -1.0000 0.0000 0.0008
vn 1.0000 0.0004 -0.0000
vn -1.0000 0.0004 -0.0000
vn 1.0000 0.0000 -0.0016
vn 1.0000 0.0000 -0.0008
vn -1.0000 0.0000 0.0016
vn 0.0000 1.0000 -0.0000
vn -0.3950 0.9187 -0.0000
vn 0.3950 0.9187 -0.0000
vn 0.5214 0.8533 -0.0000
vn 0.0995 0.9950 -0.0000
vn -0.5214 0.8533 -0.0000
vn -0.0995 0.9950 -0.0000
# 49 vertex normals

vt 0.9125 0.5047 0.0000
vt 0.8924 0.5047 0.0000
vt 0.8924 0.4215 0.0000
vt 0.8861 0.5000 0.0000
vt 0.9205 0.4999 0.0000
vt 0.9205 0.5832 0.0000
vt 0.9550 0.5833 0.0000
vt 0.9206 0.5834 0.0000
vt 0.9206 0.5001 0.0000
vt 0.9125 0.9938 0.0000
vt 0.8924 0.9938 0.0000
vt 0.8924 0.9215 0.0000
vt 0.9125 0.9214 0.0000
vt 0.8924 0.8381 0.0000
vt 0.9125 0.8380 0.0000
vt 0.8924 0.7548 0.0000
vt 0.9125 0.7547 0.0000
vt 0.8924 0.6715 0.0000
vt 0.9125 0.6714 0.0000
vt 0.8924 0.5881 0.0000
vt 0.9125 0.5880 0.0000
vt 0.8924 0.5048 0.0000
vt 0.8924 0.0047 0.0000
vt 0.9125 0.0047 0.0000
vt 0.9125 0.0880 0.0000
vt 0.8924 0.0881 0.0000
vt 0.9125 0.1714 0.0000
vt 0.8924 0.1715 0.0000
vt 0.9125 0.2547 0.0000
vt 0.8924 0.2548 0.0000
vt 0.9125 0.3380 0.0000
vt 0.8924 0.3381 0.0000
vt 0.9125 0.4214 0.0000
vt 0.8861 0.0000 0.0000
vt 0.9205 0.0000 0.0000
vt 0.9205 0.0832 0.0000
vt 0.8861 0.0833 0.0000
vt 0.9205 0.1666 0.0000
vt 0.8861 0.1667 0.0000
vt 0.9205 0.2499 0.0000
vt 0.8861 0.2500 0.0000
vt 0.9205 0.3332 0.0000
vt 0.8861 0.3333 0.0000
vt 0.9205 0.4166 0.0000
vt 0.8861 0.4167 0.0000
vt 0.9205 1.0000 0.0000
vt 0.8861 1.0000 0.0000
vt 0.8861 0.9167 0.0000
vt 0.9205 0.9166 0.0000
vt 0.8861 0.8333 0.0000
vt 0.9205 0.8332 0.0000
vt 0.8861 0.7500 0.0000
vt 0.9205 0.7499 0.0000
vt 0.8861 0.6667 0.0000
vt 0.9205 0.6666 0.0000
vt 0.8861 0.5833 0.0000
vt 0.9206 0.0000 0.0000
vt 0.9550 0.0000 0.0000
vt 0.9550 0.0833 0.0000
vt 0.9206 0.0834 0.0000
vt 0.9550 0.1667 0.0000
vt 0.9206 0.1668 0.0000
vt 0.9550 0.2500 0.0000
vt 0.9206 0.2501 0.0000
vt 0.9550 0.3333 0.0000
vt 0.9206 0.3334 0.0000
vt 0.9550 0.4167 0.0000
vt 0.9206 0.4168 0.0000
vt 0.9550 0.5000 0.0000
vt 0.9550 1.0000 0.0000
vt 0.9206 1.0000 0.0000
vt 0.9206 0.9168 0.0000
vt 0.9550 0.9167 0.0000
vt 0.9206 0.8334 0.0000
vt 0.9550 0.8333 0.0000
vt 0.9206 0.7501 0.0000
vt 0.9550 0.7500 0.0000
vt 0.9206 0.6668 0.0000
vt 0.9550 0.6667 0.0000
vt 0.9524 0.4991 0.0000
vt 0.9524 0.7472 0.0000
vt 0.9223 0.7472 0.0000
vt 0.9223 0.4991 0.0000
vt 0.9524 0.7473 0.0000
vt 0.9223 0.7473 0.0000
vt 0.1196 0.5000 0.0000
vt 0.1196 0.4167 0.0000
vt 0.8826 0.4167 0.0000
vt 0.8826 0.5000 0.0000
vt 0.1196 0.3333 0.0000
vt 0.8826 0.3333 0.0000
vt 0.1196 0.2500 0.0000
vt 0.8826 0.2500 0.0000
vt 0.1196 0.1667 0.0000
vt 0.8826 0.1667 0.0000
vt 0.1196 0.0833 0.0000
vt 0.8826 0.0833 0.0000
vt 0.1196 0.0000 0.0000
vt 0.8826 0.0000 0.0000
vt 0.1196 0.5833 0.0000
vt 0.8826 0.5833 0.0000
vt 0.8826 0.6667 0.0000
vt 0.1196 0.6667 0.0000
vt 0.8826 0.7500 0.0000
vt 0.1196 0.7500 0.0000
vt 0.8826 0.8333 0.0000
vt 0.1196 0.8333 0.0000
vt 0.8826 0.9167 0.0000
vt 0.1196 0.9167 0.0000
vt 0.8826 1.0000 0.0000
vt 0.1196 1.0000 0.0000
# 111 texture coords

g Plane013
s off
f 1/1/1 2/2/1 3/3/1 
f 4/4/2 1/5/2 5/6/2 
f 6/7/3 7/8/3 8/9/3 
f 9/10/4 10/11/4 11/12/4 
f 12/13/1 11/12/1 13/14/1 
f 14/15/1 13/14/1 15/16/1 
f 16/17/1 15/16/1 17/18/1 
f 18/19/1 17/18/1 6/20/1 
f 19/21/1 6/20/1 2/22/1 
f 20/23/4 21/24/4 22/25/4 
f 22/25/1 23/26/1 20/23/1 
f 24/27/1 25/28/1 23/26/1 
f 26/29/1 27/30/1 25/28/1 
f 28/31/1 29/32/1 27/30/1 
f 5/33/1 3/3/1 29/32/1 
f 30/34/5 9/35/5 12/36/5 
f 31/37/6 12/36/6 14/38/6 
f 32/39/6 14/38/6 16/40/6 
f 33/41/6 16/40/6 18/42/6 
f 34/43/6 18/42/6 19/44/6 
f 35/45/6 19/44/6 1/5/6 
f 21/46/7 36/47/7 37/48/7 
f 37/48/6 22/49/6 21/46/6 
f 38/50/6 24/51/6 22/49/6 
f 39/52/6 26/53/6 24/51/6 
f 40/54/6 28/55/6 26/53/6 
f 41/56/6 5/6/6 28/55/6 
f 42/57/8 20/58/8 23/59/8 
f 23/59/9 43/60/9 42/57/9 
f 25/61/10 44/62/10 43/60/10 
f 27/63/10 45/64/10 44/62/10 
f 29/65/10 46/66/10 45/64/10 
f 3/67/10 47/68/10 46/66/10 
f 2/69/11 8/9/11 47/68/11 
f 10/70/12 48/71/12 49/72/12 
f 11/73/10 49/72/10 50/74/10 
f 13/75/10 50/74/10 51/76/10 
f 15/77/10 51/76/10 52/78/10 
f 17/79/10 52/78/10 7/8/10 
f 53/1/13 54/2/13 55/3/13 
f 56/4/14 53/5/14 57/6/14 
f 58/7/15 59/8/15 60/9/15 
f 61/10/16 62/11/16 63/12/16 
f 64/13/13 63/12/13 65/14/13 
f 66/15/13 65/14/13 67/16/13 
f 68/17/13 67/16/13 69/18/13 
f 70/19/13 69/18/13 58/20/13 
f 71/21/13 58/20/13 54/22/13 
f 72/23/16 73/24/16 74/25/16 
f 74/25/13 75/26/13 72/23/13 
f 76/27/13 77/28/13 75/26/13 
f 78/29/13 79/30/13 77/28/13 
f 80/31/13 81/32/13 79/30/13 
f 57/33/13 55/3/13 81/32/13 
f 82/34/17 61/35/17 64/36/17 
f 83/37/18 64/36/18 66/38/18 
f 84/39/18 66/38/18 68/40/18 
f 85/41/18 68/40/18 70/42/18 
f 86/43/18 70/42/18 71/44/18 
f 87/45/18 71/44/18 53/5/18 
f 73/46/19 88/47/19 89/48/19 
f 89/48/18 74/49/18 73/46/18 
f 90/50/18 76/51/18 74/49/18 
f 91/52/18 78/53/18 76/51/18 
f 92/54/18 80/55/18 78/53/18 
f 93/56/18 57/6/18 80/55/18 
f 94/57/20 72/58/20 75/59/20 
f 75/59/21 95/60/21 94/57/21 
f 77/61/22 96/62/22 95/60/22 
f 79/63/22 97/64/22 96/62/22 
f 81/65/22 98/66/22 97/64/22 
f 55/67/22 99/68/22 98/66/22 
f 54/69/23 60/9/23 99/68/23 
f 62/70/24 100/71/24 101/72/24 
f 63/73/22 101/72/22 102/74/22 
f 65/75/22 102/74/22 103/76/22 
f 67/77/22 103/76/22 104/78/22 
f 69/79/22 104/78/22 59/8/22 
f 105/80/25 106/81/25 107/82/25 
f 107/82/25 108/83/25 105/80/25 
f 109/80/26 110/81/26 111/82/26 
f 111/82/26 112/83/26 109/80/26 
f 2/69/27 6/7/27 8/9/27 
f 1/1/28 19/21/28 2/22/28 
f 4/4/29 35/45/29 1/5/29 
f 54/69/30 58/7/30 60/9/30 
f 53/1/31 71/21/31 54/22/31 
f 56/4/32 87/45/32 53/5/32 
f 109/80/33 112/84/33 107/85/34 
f 107/85/34 106/83/34 109/80/33 
f 105/80/35 108/84/35 111/85/36 
f 111/85/36 110/83/36 105/80/35 
f 5/33/28 1/1/28 3/3/28 
f 41/56/37 4/4/37 5/6/37 
f 3/67/38 2/69/38 47/68/38 
f 71/21/31 70/19/31 58/20/31 
f 87/45/18 86/43/18 71/44/18 
f 58/7/39 69/79/39 59/8/39 
f 28/31/28 5/33/28 29/32/28 
f 40/54/6 41/56/6 28/55/6 
f 29/65/38 3/67/38 46/66/38 
f 70/19/31 68/17/31 69/18/31 
f 86/43/18 85/41/18 70/42/18 
f 69/79/39 67/77/39 104/78/39 
f 26/29/28 28/31/28 27/30/28 
f 39/52/6 40/54/6 26/53/6 
f 27/63/38 29/65/38 45/64/38 
f 68/17/31 66/15/31 67/16/31 
f 85/41/18 84/39/18 68/40/18 
f 67/77/39 65/75/39 103/76/39 
f 24/27/28 26/29/28 25/28/28 
f 38/50/6 39/52/6 24/51/6 
f 25/61/38 27/63/38 44/62/38 
f 66/15/31 64/13/31 65/14/31 
f 84/39/18 83/37/18 66/38/18 
f 65/75/39 63/73/39 102/74/39 
f 22/25/28 24/27/28 23/26/28 
f 37/48/6 38/50/6 22/49/6 
f 23/59/38 25/61/38 43/60/38 
f 64/13/31 61/10/31 63/12/31 
f 83/37/40 82/34/40 64/36/40 
f 63/73/39 62/70/39 101/72/39 
f 19/21/28 18/19/28 6/20/28 
f 35/45/6 34/43/6 19/44/6 
f 6/7/38 17/79/38 7/8/38 
f 57/33/31 53/1/31 55/3/31 
f 93/56/41 56/4/41 57/6/41 
f 55/67/39 54/69/39 99/68/39 
f 18/19/28 16/17/28 17/18/28 
f 34/43/6 33/41/6 18/42/6 
f 17/79/38 15/77/38 52/78/38 
f 80/31/31 57/33/31 81/32/31 
f 92/54/18 93/56/18 80/55/18 
f 81/65/39 55/67/39 98/66/39 
f 16/17/28 14/15/28 15/16/28 
f 33/41/6 32/39/6 16/40/6 
f 15/77/38 13/75/38 51/76/38 
f 78/29/31 80/31/31 79/30/31 
f 91/52/18 92/54/18 78/53/18 
f 79/63/39 81/65/39 97/64/39 
f 14/15/28 12/13/28 13/14/28 
f 32/39/6 31/37/6 14/38/6 
f 13/75/38 11/73/38 50/74/38 
f 76/27/31 78/29/31 77/28/31 
f 90/50/18 91/52/18 76/51/18 
f 77/61/39 79/63/39 96/62/39 
f 12/13/28 9/10/28 11/12/28 
f 31/37/42 30/34/42 12/36/42 
f 11/73/38 10/70/38 49/72/38 
f 74/25/31 76/27/31 75/26/31 
f 89/48/18 90/50/18 74/49/18 
f 75/59/39 77/61/39 95/60/39 
f 113/80/35 114/81/34 115/82/34 
f 115/82/34 116/83/35 113/80/35 
f 117/80/33 118/81/36 119/82/36 
f 119/82/36 120/83/33 117/80/33 
f 117/80/33 120/84/33 115/85/34 
f 115/85/34 114/83/34 117/80/33 
f 113/80/35 116/84/35 119/85/36 
f 119/85/36 118/83/36 113/80/35 
f 121/80/35 122/81/34 123/82/34 
f 123/82/34 124/83/35 121/80/35 
f 125/80/33 126/81/36 127/82/36 
f 127/82/36 128/83/33 125/80/33 
f 125/80/33 128/84/33 123/85/34 
f 123/85/34 122/83/34 125/80/33 
f 121/80/35 124/84/35 127/85/36 
f 127/85/36 126/83/36 121/80/35 
f 129/80/35 130/81/34 131/82/34 
f 131/82/34 132/83/35 129/80/35 
f 133/80/33 134/81/36 135/82/36 
f 135/82/36 136/83/33 133/80/33 
f 133/80/33 136/84/33 131/85/34 
f 131/85/34 130/83/34 133/80/33 
f 129/80/35 132/84/35 135/85/36 
f 135/85/36 134/83/36 129/80/35 
f 137/80/35 138/81/34 139/82/34 
f 139/82/34 140/83/35 137/80/35 
f 141/80/33 142/81/36 143/82/36 
f 143/82/36 144/83/33 141/80/33 
f 141/80/33 144/84/33 139/85/34 
f 139/85/34 138/83/34 141/80/33 
f 137/80/35 140/84/35 143/85/36 
f 143/85/36 142/83/36 137/80/35 
f 145/80/35 146/81/34 147/82/34 
f 147/82/34 148/83/35 145/80/35 
f 149/80/33 150/81/36 151/82/36 
f 151/82/36 152/83/33 149/80/33 
f 149/80/33 152/84/33 147/85/34 
f 147/85/34 146/83/34 149/80/33 
f 145/80/35 148/84/35 151/85/36 
f 151/85/36 150/83/36 145/80/35 
f 153/86/43 154/87/44 155/88/45 
f 155/88/45 156/89/45 153/86/43 
f 154/87/44 157/90/44 158/91/45 
f 158/91/45 155/88/45 154/87/44 
f 157/90/44 159/92/44 160/93/45 
f 160/93/45 158/91/45 157/90/44 
f 159/92/44 161/94/44 162/95/45 
f 162/95/45 160/93/45 159/92/44 
f 161/94/44 163/96/44 164/97/46 
f 164/97/46 162/95/45 161/94/44 
f 164/97/47 163/96/44 165/98/43 
f 165/98/43 166/99/45 164/97/47 
f 167/100/44 153/86/43 156/89/45 
f 156/89/45 168/101/45 167/100/44 
f 168/101/45 169/102/45 170/103/44 
f 170/103/44 167/100/44 168/101/45 
f 169/102/45 171/104/45 172/105/44 
f 172/105/44 170/103/44 169/102/45 
f 171/104/45 173/106/45 174/107/44 
f 174/107/44 172/105/44 171/104/45 
f 173/106/45 175/108/45 176/109/48 
f 176/109/48 174/107/44 173/106/45 
f 176/109/49 175/108/45 177/110/43 
f 177/110/43 178/111/43 176/109/49 
f 179/80/25 180/81/25 181/82/25 
f 181/82/25 182/83/25 179/80/25 
f 183/80/26 184/81/26 185/82/26 
f 185/82/26 186/83/26 183/80/26 
f 183/80/18 186/84/18 181/85/18 
f 181/85/18 180/83/18 183/80/18 
f 179/80/6 182/84/6 185/85/6 
f 185/85/6 184/83/6 179/80/6 
f 187/80/25 188/81/25 189/82/25 
f 189/82/25 190/83/25 187/80/25 
f 191/80/26 192/81/26 193/82/26 
f 193/82/26 194/83/26 191/80/26 
f 191/80/18 194/84/18 189/85/18 
f 189/85/18 188/83/18 191/80/18 
f 187/80/6 190/84/6 193/85/6 
f 193/85/6 192/83/6 187/80/6 
f 195/80/25 196/81/25 197/82/25 
f 197/82/25 198/83/25 195/80/25 
f 199/80/26 200/81/26 201/82/26 
f 201/82/26 202/83/26 199/80/26 
f 199/80/18 202/84/18 197/85/18 
f 197/85/18 196/83/18 199/80/18 
f 195/80/6 198/84/6 201/85/6 
f 201/85/6 200/83/6 195/80/6 
f 203/80/25 204/81/25 205/82/25 
f 205/82/25 206/83/25 203/80/25 
f 207/80/26 208/81/26 209/82/26 
f 209/82/26 210/83/26 207/80/26 
f 207/80/18 210/84/18 205/85/18 
f 205/85/18 204/83/18 207/80/18 
f 203/80/6 206/84/6 209/85/6 
f 209/85/6 208/83/6 203/80/6 
f 211/80/25 212/81/25 213/82/25 
f 213/82/25 214/83/25 211/80/25 
f 215/80/26 216/81/26 217/82/26 
f 217/82/26 218/83/26 215/80/26 
f 215/80/18 218/84/18 213/85/18 
f 213/85/18 212/83/18 215/80/18 
f 211/80/6 214/84/6 217/85/6 
f 217/85/6 216/83/6 211/80/6 
f 219/80/25 220/81/25 221/82/25 
f 221/82/25 222/83/25 219/80/25 
f 223/80/26 224/81/26 225/82/26 
f 225/82/26 226/83/26 223/80/26 
f 223/80/18 226/84/18 221/85/18 
f 221/85/18 220/83/18 223/80/18 
f 219/80/6 222/84/6 225/85/6 
f 225/85/6 224/83/6 219/80/6 
# 264 faces

