# 3ds Max Wavefront OBJ Exporter v0.97b - (c)2007 guruware
# File Created: 16.11.2016 01:02:32

#
# object Object001
#

v  -8.0000 -3.2150 -0.0000
v  -5.0000 -0.0000 -0.0000
v  -5.0000 -0.0000 -5.3333
v  -8.0000 -3.2150 -5.3333
v  8.0000 -3.2150 -0.0000
v  5.0000 -0.0000 -0.0000
v  5.0000 -0.0000 5.3333
v  8.0000 -3.2150 5.3333
v  -8.0000 -3.2150 32.0000
v  -5.0000 -0.0000 32.0000
v  -5.0000 -0.0000 26.6667
v  -8.0000 -3.2150 26.6667
v  -5.0000 -0.0000 21.3333
v  -8.0000 -3.2150 21.3333
v  -5.0000 -0.0000 16.0000
v  -8.0000 -3.2150 16.0000
v  -5.0000 -0.0000 10.6667
v  -8.0000 -3.2150 10.6667
v  -5.0000 -0.0000 5.3333
v  -8.0000 -3.2150 5.3333
v  -5.0000 -0.0000 -32.0000
v  -8.0000 -3.2150 -32.0000
v  -8.0000 -3.2150 -26.6667
v  -5.0000 -0.0000 -26.6667
v  -8.0000 -3.2150 -21.3333
v  -5.0000 -0.0000 -21.3333
v  -8.0000 -3.2150 -16.0000
v  -5.0000 -0.0000 -16.0000
v  -8.0000 -3.2150 -10.6667
v  -5.0000 -0.0000 -10.6667
v  8.0000 -3.2150 -32.0000
v  5.0000 -0.0000 -32.0000
v  5.0000 -0.0000 -26.6667
v  8.0000 -3.2150 -26.6667
v  5.0000 -0.0000 -21.3333
v  8.0000 -3.2150 -21.3333
v  5.0000 -0.0000 -16.0000
v  8.0000 -3.2150 -16.0000
v  5.0000 -0.0000 -10.6667
v  8.0000 -3.2150 -10.6667
v  5.0000 -0.0000 -5.3333
v  8.0000 -3.2150 -5.3333
v  5.0000 -0.0000 32.0000
v  8.0000 -3.2150 32.0000
v  8.0000 -3.2150 26.6667
v  5.0000 -0.0000 26.6667
v  8.0000 -3.2150 21.3333
v  5.0000 -0.0000 21.3333
v  8.0000 -3.2150 16.0000
v  5.0000 -0.0000 16.0000
v  8.0000 -3.2150 10.6667
v  5.0000 -0.0000 10.6667
v  0.3605 0.7578 0.0042
v  0.5837 0.7580 0.0042
v  0.5837 0.7580 -5.3291
v  0.3637 0.4522 0.0032
v  0.3605 0.7578 -5.3291
v  0.5837 0.7580 5.3376
v  0.5837 0.4524 5.3376
v  0.5816 0.4523 0.0042
v  0.3605 0.7577 32.0063
v  0.5837 0.7578 32.0063
v  0.5837 0.7580 26.6709
v  0.3605 0.7578 26.6709
v  0.5837 0.7580 21.3376
v  0.3605 0.7578 21.3375
v  0.5837 0.7580 16.0042
v  0.3605 0.7578 16.0042
v  0.5837 0.7580 10.6709
v  0.3605 0.7578 10.6709
v  0.3605 0.7578 5.3375
v  0.5837 0.7580 -31.9999
v  0.3605 0.7579 -32.0000
v  0.3605 0.7578 -26.6625
v  0.5837 0.7580 -26.6624
v  0.3605 0.7578 -21.3291
v  0.5837 0.7580 -21.3291
v  0.3605 0.7578 -15.9958
v  0.5837 0.7580 -15.9958
v  0.3605 0.7578 -10.6625
v  0.5837 0.7580 -10.6624
v  0.3669 0.4520 32.0063
v  0.3605 0.4522 26.6698
v  0.3605 0.4522 21.3365
v  0.3605 0.4522 16.0032
v  0.3605 0.4522 10.6698
v  0.3605 0.4522 5.3365
v  0.3667 0.4522 -31.9968
v  0.3605 0.4522 -26.6635
v  0.3605 0.4522 -21.3302
v  0.3605 0.4522 -15.9968
v  0.3605 0.4522 -10.6635
v  0.3605 0.4522 -5.3302
v  0.5769 0.4522 -31.9968
v  0.5837 0.4524 -26.6624
v  0.5837 0.4524 -21.3291
v  0.5837 0.4524 -15.9958
v  0.5837 0.4524 -10.6624
v  0.5837 0.4524 -5.3291
v  0.5772 0.4520 32.0063
v  0.5837 0.4524 26.6709
v  0.5837 0.4524 21.3376
v  0.5837 0.4524 16.0042
v  0.5837 0.4524 10.6709
v  -0.3600 0.7578 0.0084
v  -0.5832 0.7580 0.0084
v  -0.5832 0.7580 5.3417
v  -0.3632 0.4522 0.0079
v  -0.3600 0.7578 5.3417
v  -0.5832 0.7580 -5.3250
v  -0.5832 0.4524 -5.3250
v  -0.5811 0.4524 0.0073
v  -0.3600 0.7577 -31.9937
v  -0.5832 0.7578 -31.9937
v  -0.5832 0.7580 -26.6583
v  -0.3600 0.7578 -26.6583
v  -0.5832 0.7580 -21.3250
v  -0.3600 0.7578 -21.3249
v  -0.5832 0.7580 -15.9916
v  -0.3600 0.7578 -15.9916
v  -0.5832 0.7580 -10.6583
v  -0.3600 0.7578 -10.6583
v  -0.3600 0.7578 -5.3249
v  -0.5832 0.7580 32.0125
v  -0.3600 0.7579 32.0126
v  -0.3600 0.7578 26.6751
v  -0.5832 0.7580 26.6750
v  -0.3600 0.7578 21.3417
v  -0.5832 0.7580 21.3417
v  -0.3600 0.7578 16.0084
v  -0.5832 0.7580 16.0084
v  -0.3600 0.7578 10.6751
v  -0.5832 0.7580 10.6750
v  -0.3665 0.4521 -31.9906
v  -0.3600 0.4522 -26.6572
v  -0.3600 0.4522 -21.3239
v  -0.3600 0.4522 -15.9906
v  -0.3600 0.4522 -10.6572
v  -0.3600 0.4522 -5.3239
v  -0.3664 0.4521 32.0126
v  -0.3600 0.4522 26.6761
v  -0.3600 0.4522 21.3428
v  -0.3600 0.4522 16.0094
v  -0.3600 0.4522 10.6761
v  -0.3600 0.4522 5.3428
v  -0.5767 0.4522 32.0125
v  -0.5832 0.4524 26.6750
v  -0.5832 0.4524 21.3417
v  -0.5832 0.4524 16.0084
v  -0.5832 0.4524 10.6750
v  -0.5832 0.4524 5.3417
v  -0.5769 0.4522 -31.9906
v  -0.5832 0.4524 -26.6583
v  -0.5832 0.4524 -21.3250
v  -0.5832 0.4524 -15.9916
v  -0.5832 0.4524 -10.6583
v  -0.5621 0.0000 -4.6325
v  -0.3862 0.0000 -4.6325
v  -0.3862 0.4520 -4.6325
v  -0.5621 0.4520 -4.6325
v  -0.3862 0.0000 -4.8325
v  -0.5621 0.0000 -4.8325
v  -0.5621 0.4520 -4.8325
v  -0.3862 0.4520 -4.8325
v  -0.5621 0.0000 5.0390
v  -0.3862 0.0000 5.0390
v  -0.3862 0.4520 5.0390
v  -0.5621 0.4520 5.0390
v  -0.3862 0.0000 4.8390
v  -0.5621 0.0000 4.8390
v  -0.5621 0.4520 4.8390
v  -0.3862 0.4520 4.8390
v  -0.5621 0.0000 -26.1806
v  -0.3862 0.0000 -26.1806
v  -0.3862 0.4520 -26.1806
v  -0.5621 0.4520 -26.1806
v  -0.3862 0.0000 -26.3806
v  -0.5621 0.0000 -26.3806
v  -0.5621 0.4520 -26.3806
v  -0.3862 0.4520 -26.3806
v  -0.5621 0.0000 -16.5091
v  -0.3862 0.0000 -16.5091
v  -0.3862 0.4520 -16.5091
v  -0.5621 0.4520 -16.5091
v  -0.3862 0.0000 -16.7091
v  -0.5621 0.0000 -16.7091
v  -0.5621 0.4520 -16.7091
v  -0.3862 0.4520 -16.7091
v  -0.5621 0.0000 16.5572
v  -0.3862 0.0000 16.5572
v  -0.3862 0.4520 16.5572
v  -0.5621 0.4520 16.5572
v  -0.3862 0.0000 16.3572
v  -0.5621 0.0000 16.3572
v  -0.5621 0.4520 16.3572
v  -0.3862 0.4520 16.3572
v  -0.5621 0.0000 26.2287
v  -0.3862 0.0000 26.2287
v  -0.3862 0.4520 26.2287
v  -0.5621 0.4520 26.2287
v  -0.3862 0.0000 26.0287
v  -0.5621 0.0000 26.0287
v  -0.5621 0.4520 26.0287
v  -0.3862 0.4520 26.0287
v  0.3861 0.0000 -4.6325
v  0.5620 0.0000 -4.6325
v  0.5620 0.4520 -4.6325
v  0.3861 0.4520 -4.6325
v  0.5620 0.0000 -4.8325
v  0.3861 0.0000 -4.8325
v  0.3861 0.4520 -4.8325
v  0.5620 0.4520 -4.8325
v  0.3861 0.0000 5.0390
v  0.5620 0.0000 5.0390
v  0.5620 0.4520 5.0390
v  0.3861 0.4520 5.0390
v  0.5620 0.0000 4.8390
v  0.3861 0.0000 4.8390
v  0.3861 0.4520 4.8390
v  0.5620 0.4520 4.8390
v  0.3861 0.0000 -26.1806
v  0.5620 0.0000 -26.1806
v  0.5620 0.4520 -26.1806
v  0.3861 0.4520 -26.1806
v  0.5620 0.0000 -26.3806
v  0.3861 0.0000 -26.3806
v  0.3861 0.4520 -26.3806
v  0.5620 0.4520 -26.3806
v  0.3861 0.0000 -16.5091
v  0.5620 0.0000 -16.5091
v  0.5620 0.4520 -16.5091
v  0.3861 0.4520 -16.5091
v  0.5620 0.0000 -16.7091
v  0.3861 0.0000 -16.7091
v  0.3861 0.4520 -16.7091
v  0.5620 0.4520 -16.7091
v  0.3861 0.0000 16.5572
v  0.5620 0.0000 16.5572
v  0.5620 0.4520 16.5572
v  0.3861 0.4520 16.5572
v  0.5620 0.0000 16.3572
v  0.3861 0.0000 16.3572
v  0.3861 0.4520 16.3572
v  0.5620 0.4520 16.3572
v  0.3861 0.0000 26.2287
v  0.5620 0.0000 26.2287
v  0.5620 0.4520 26.2287
v  0.3861 0.4520 26.2287
v  0.5620 0.0000 26.0287
v  0.3861 0.0000 26.0287
v  0.3861 0.4520 26.0287
v  0.5620 0.4520 26.0287
# 252 vertices

vn -0.7311 0.6822 -0.0000
vn -0.3986 0.9171 -0.0000
vn 0.7311 0.6822 -0.0000
vn 0.3986 0.9171 -0.0000
vn -0.0009 1.0000 -0.0000
vn -0.9999 -0.0105 -0.0000
vn 1.0000 0.0000 -0.0004
vn -0.0005 1.0000 -0.0000
vn -0.9998 -0.0209 -0.0000
vn -1.0000 0.0000 -0.0000
vn -0.9998 -0.0203 -0.0012
vn 0.9998 -0.0222 -0.0000
vn 1.0000 0.0000 -0.0013
vn 1.0000 0.0000 -0.0000
vn 1.0000 -0.0069 0.0004
vn 0.9998 -0.0212 0.0012
vn 0.0009 1.0000 -0.0000
vn 0.9999 -0.0105 -0.0000
vn -1.0000 0.0000 0.0004
vn 0.0005 1.0000 -0.0000
vn 0.9998 -0.0213 -0.0000
vn 0.9998 -0.0209 0.0012
vn -0.9998 -0.0213 -0.0000
vn -1.0000 0.0000 0.0012
vn -1.0000 -0.0069 -0.0004
vn -0.9998 -0.0206 -0.0012
vn 0.0000 0.0000 1.0000
vn 0.0000 0.0000 -1.0000
vn 1.0000 -0.0069 -0.0000
vn -0.9999 -0.0105 -0.0006
vn -1.0000 -0.0069 -0.0000
vn 0.9999 -0.0105 0.0006
vn -1.0000 0.0000 0.0006
vn 1.0000 0.0000 -0.0012
vn 1.0000 0.0000 -0.0006
# 35 vertex normals

vt 0.2002 0.5042 0.0000
vt 0.2083 0.5042 0.0000
vt 0.2083 0.5868 0.0000
vt 0.2002 0.5868 0.0000
vt 0.2008 0.5042 0.0000
vt 0.2089 0.5042 0.0000
vt 0.2089 0.5868 0.0000
vt 0.2008 0.5868 0.0000
vt 0.2002 0.0084 0.0000
vt 0.2083 0.0084 0.0000
vt 0.2083 0.0911 0.0000
vt 0.2002 0.0911 0.0000
vt 0.2083 0.1737 0.0000
vt 0.2002 0.1737 0.0000
vt 0.2083 0.2563 0.0000
vt 0.2002 0.2563 0.0000
vt 0.2083 0.3390 0.0000
vt 0.2002 0.3390 0.0000
vt 0.2083 0.4216 0.0000
vt 0.2002 0.4216 0.0000
vt 0.2083 1.0000 0.0000
vt 0.2002 1.0000 0.0000
vt 0.2002 0.9174 0.0000
vt 0.2083 0.9174 0.0000
vt 0.2002 0.8347 0.0000
vt 0.2083 0.8347 0.0000
vt 0.2002 0.7521 0.0000
vt 0.2083 0.7521 0.0000
vt 0.2002 0.6695 0.0000
vt 0.2083 0.6695 0.0000
vt 0.2008 0.0084 0.0000
vt 0.2089 0.0084 0.0000
vt 0.2089 0.0911 0.0000
vt 0.2008 0.0911 0.0000
vt 0.2089 0.1737 0.0000
vt 0.2008 0.1737 0.0000
vt 0.2089 0.2563 0.0000
vt 0.2008 0.2563 0.0000
vt 0.2089 0.3390 0.0000
vt 0.2008 0.3390 0.0000
vt 0.2089 0.4216 0.0000
vt 0.2008 0.4216 0.0000
vt 0.2089 1.0000 0.0000
vt 0.2008 1.0000 0.0000
vt 0.2008 0.9174 0.0000
vt 0.2089 0.9174 0.0000
vt 0.2008 0.8347 0.0000
vt 0.2089 0.8347 0.0000
vt 0.2008 0.7521 0.0000
vt 0.2089 0.7521 0.0000
vt 0.2008 0.6695 0.0000
vt 0.2089 0.6695 0.0000
vt 0.1967 0.5000 0.0000
vt 0.1967 0.4167 0.0000
vt 0.9280 0.4167 0.0000
vt 0.9280 0.5000 0.0000
vt 0.1967 0.3333 0.0000
vt 0.9280 0.3333 0.0000
vt 0.1967 0.2500 0.0000
vt 0.9280 0.2500 0.0000
vt 0.1967 0.1667 0.0000
vt 0.9280 0.1667 0.0000
vt 0.1967 0.0833 0.0000
vt 0.9280 0.0833 0.0000
vt 0.1967 0.0000 0.0000
vt 0.9280 0.0000 0.0000
vt 0.1967 0.5833 0.0000
vt 0.9280 0.5833 0.0000
vt 0.9280 0.6667 0.0000
vt 0.1967 0.6667 0.0000
vt 0.9280 0.7500 0.0000
vt 0.1967 0.7500 0.0000
vt 0.9280 0.8333 0.0000
vt 0.1967 0.8333 0.0000
vt 0.9280 0.9167 0.0000
vt 0.1967 0.9167 0.0000
vt 0.9280 1.0000 0.0000
vt 0.1967 1.0000 0.0000
vt 0.9569 0.5047 0.0000
vt 0.9368 0.5047 0.0000
vt 0.9368 0.4215 0.0000
vt 0.9305 0.5000 0.0000
vt 0.9649 0.4999 0.0000
vt 0.9649 0.5832 0.0000
vt 0.9994 0.5833 0.0000
vt 0.9650 0.5834 0.0000
vt 0.9650 0.5001 0.0000
vt 0.9569 0.9938 0.0000
vt 0.9368 0.9938 0.0000
vt 0.9368 0.9215 0.0000
vt 0.9569 0.9214 0.0000
vt 0.9368 0.8381 0.0000
vt 0.9569 0.8380 0.0000
vt 0.9368 0.7548 0.0000
vt 0.9569 0.7547 0.0000
vt 0.9368 0.6715 0.0000
vt 0.9569 0.6714 0.0000
vt 0.9368 0.5881 0.0000
vt 0.9569 0.5880 0.0000
vt 0.9368 0.5048 0.0000
vt 0.9368 0.0047 0.0000
vt 0.9569 0.0047 0.0000
vt 0.9569 0.0880 0.0000
vt 0.9368 0.0881 0.0000
vt 0.9569 0.1714 0.0000
vt 0.9368 0.1715 0.0000
vt 0.9569 0.2547 0.0000
vt 0.9368 0.2548 0.0000
vt 0.9569 0.3380 0.0000
vt 0.9368 0.3381 0.0000
vt 0.9569 0.4214 0.0000
vt 0.9305 0.0000 0.0000
vt 0.9649 0.0000 0.0000
vt 0.9649 0.0832 0.0000
vt 0.9305 0.0833 0.0000
vt 0.9649 0.1666 0.0000
vt 0.9305 0.1667 0.0000
vt 0.9649 0.2499 0.0000
vt 0.9305 0.2500 0.0000
vt 0.9649 0.3332 0.0000
vt 0.9305 0.3333 0.0000
vt 0.9649 0.4166 0.0000
vt 0.9305 0.4167 0.0000
vt 0.9649 1.0000 0.0000
vt 0.9305 1.0000 0.0000
vt 0.9305 0.9167 0.0000
vt 0.9649 0.9166 0.0000
vt 0.9305 0.8333 0.0000
vt 0.9649 0.8332 0.0000
vt 0.9305 0.7500 0.0000
vt 0.9649 0.7499 0.0000
vt 0.9305 0.6667 0.0000
vt 0.9649 0.6666 0.0000
vt 0.9305 0.5833 0.0000
vt 0.9650 0.0000 0.0000
vt 0.9994 0.0000 0.0000
vt 0.9994 0.0833 0.0000
vt 0.9650 0.0834 0.0000
vt 0.9994 0.1667 0.0000
vt 0.9650 0.1668 0.0000
vt 0.9994 0.2500 0.0000
vt 0.9650 0.2501 0.0000
vt 0.9994 0.3333 0.0000
vt 0.9650 0.3334 0.0000
vt 0.9994 0.4167 0.0000
vt 0.9650 0.4168 0.0000
vt 0.9994 0.5000 0.0000
vt 0.9994 1.0000 0.0000
vt 0.9650 1.0000 0.0000
vt 0.9650 0.9168 0.0000
vt 0.9994 0.9167 0.0000
vt 0.9650 0.8334 0.0000
vt 0.9994 0.8333 0.0000
vt 0.9650 0.7501 0.0000
vt 0.9994 0.7500 0.0000
vt 0.9650 0.6668 0.0000
vt 0.9994 0.6667 0.0000
vt 0.9968 0.4991 0.0000
vt 0.9968 0.7472 0.0000
vt 0.9667 0.7472 0.0000
vt 0.9667 0.4991 0.0000
vt 0.9968 0.7473 0.0000
vt 0.9667 0.7473 0.0000
# 163 texture coords

g Object001
s 1
f 1/1/1 2/2/2 3/3/2 
f 3/3/2 4/4/1 1/1/1 
f 5/5/3 6/6/4 7/7/4 
f 7/7/4 8/8/3 5/5/3 
f 9/9/1 10/10/2 11/11/2 
f 11/11/2 12/12/1 9/9/1 
f 12/12/1 11/11/2 13/13/2 
f 13/13/2 14/14/1 12/12/1 
f 14/14/1 13/13/2 15/15/2 
f 15/15/2 16/16/1 14/14/1 
f 16/16/1 15/15/2 17/17/2 
f 17/17/2 18/18/1 16/16/1 
f 18/18/1 17/17/2 19/19/2 
f 19/19/2 20/20/1 18/18/1 
f 20/20/1 19/19/2 2/2/2 
f 2/2/2 1/1/1 20/20/1 
f 21/21/2 22/22/1 23/23/1 
f 23/23/1 24/24/2 21/21/2 
f 24/24/2 23/23/1 25/25/1 
f 25/25/1 26/26/2 24/24/2 
f 26/26/2 25/25/1 27/27/1 
f 27/27/1 28/28/2 26/26/2 
f 28/28/2 27/27/1 29/29/1 
f 29/29/1 30/30/2 28/28/2 
f 30/30/2 29/29/1 4/4/1 
f 4/4/1 3/3/2 30/30/2 
f 31/31/3 32/32/4 33/33/4 
f 33/33/4 34/34/3 31/31/3 
f 34/34/3 33/33/4 35/35/4 
f 35/35/4 36/36/3 34/34/3 
f 36/36/3 35/35/4 37/37/4 
f 37/37/4 38/38/3 36/36/3 
f 38/38/3 37/37/4 39/39/4 
f 39/39/4 40/40/3 38/38/3 
f 40/40/3 39/39/4 41/41/4 
f 41/41/4 42/42/3 40/40/3 
f 42/42/3 41/41/4 6/6/4 
f 6/6/4 5/5/3 42/42/3 
f 43/43/4 44/44/3 45/45/3 
f 45/45/3 46/46/4 43/43/4 
f 46/46/4 45/45/3 47/47/3 
f 47/47/3 48/48/4 46/46/4 
f 48/48/4 47/47/3 49/49/3 
f 49/49/3 50/50/4 48/48/4 
f 50/50/4 49/49/3 51/51/3 
f 51/51/3 52/52/4 50/50/4 
f 52/52/4 51/51/3 8/8/3 
f 8/8/3 7/7/4 52/52/4 
f 2/53/2 19/54/2 7/55/4 
f 7/55/4 6/56/4 2/53/2 
f 19/54/2 17/57/2 52/58/4 
f 52/58/4 7/55/4 19/54/2 
f 17/57/2 15/59/2 50/60/4 
f 50/60/4 52/58/4 17/57/2 
f 15/59/2 13/61/2 48/62/4 
f 48/62/4 50/60/4 15/59/2 
f 13/61/2 11/63/2 46/64/4 
f 46/64/4 48/62/4 13/61/2 
f 46/64/4 11/63/2 10/65/2 
f 10/65/2 43/66/4 46/64/4 
f 3/67/2 2/53/2 6/56/4 
f 6/56/4 41/68/4 3/67/2 
f 41/68/4 39/69/4 30/70/2 
f 30/70/2 3/67/2 41/68/4 
f 39/69/4 37/71/4 28/72/2 
f 28/72/2 30/70/2 39/69/4 
f 37/71/4 35/73/4 26/74/2 
f 26/74/2 28/72/2 37/71/4 
f 35/73/4 33/75/4 24/76/2 
f 24/76/2 26/74/2 35/73/4 
f 24/76/2 33/75/4 32/77/4 
f 32/77/4 21/78/2 24/76/2 
s off
f 53/79/5 54/80/5 55/81/5 
f 56/82/6 53/83/6 57/84/6 
f 58/85/7 59/86/7 60/87/7 
f 61/88/8 62/89/8 63/90/8 
f 64/91/5 63/90/5 65/92/5 
f 66/93/5 65/92/5 67/94/5 
f 68/95/5 67/94/5 69/96/5 
f 70/97/5 69/96/5 58/98/5 
f 71/99/5 58/98/5 54/100/5 
f 72/101/8 73/102/8 74/103/8 
f 74/103/5 75/104/5 72/101/5 
f 76/105/5 77/106/5 75/104/5 
f 78/107/5 79/108/5 77/106/5 
f 80/109/5 81/110/5 79/108/5 
f 57/111/5 55/81/5 81/110/5 
f 82/112/9 61/113/9 64/114/9 
f 83/115/10 64/114/10 66/116/10 
f 84/117/10 66/116/10 68/118/10 
f 85/119/10 68/118/10 70/120/10 
f 86/121/10 70/120/10 71/122/10 
f 87/123/10 71/122/10 53/83/10 
f 73/124/11 88/125/11 89/126/11 
f 89/126/10 74/127/10 73/124/10 
f 90/128/10 76/129/10 74/127/10 
f 91/130/10 78/131/10 76/129/10 
f 92/132/10 80/133/10 78/131/10 
f 93/134/10 57/84/10 80/133/10 
f 94/135/12 72/136/12 75/137/12 
f 75/137/13 95/138/13 94/135/13 
f 77/139/14 96/140/14 95/138/14 
f 79/141/14 97/142/14 96/140/14 
f 81/143/14 98/144/14 97/142/14 
f 55/145/14 99/146/14 98/144/14 
f 54/147/15 60/87/15 99/146/15 
f 62/148/16 100/149/16 101/150/16 
f 63/151/14 101/150/14 102/152/14 
f 65/153/14 102/152/14 103/154/14 
f 67/155/14 103/154/14 104/156/14 
f 69/157/14 104/156/14 59/86/14 
f 105/79/17 106/80/17 107/81/17 
f 108/82/18 105/83/18 109/84/18 
f 110/85/19 111/86/19 112/87/19 
f 113/88/20 114/89/20 115/90/20 
f 116/91/17 115/90/17 117/92/17 
f 118/93/17 117/92/17 119/94/17 
f 120/95/17 119/94/17 121/96/17 
f 122/97/17 121/96/17 110/98/17 
f 123/99/17 110/98/17 106/100/17 
f 124/101/20 125/102/20 126/103/20 
f 126/103/17 127/104/17 124/101/17 
f 128/105/17 129/106/17 127/104/17 
f 130/107/17 131/108/17 129/106/17 
f 132/109/17 133/110/17 131/108/17 
f 109/111/17 107/81/17 133/110/17 
f 134/112/21 113/113/21 116/114/21 
f 135/115/14 116/114/14 118/116/14 
f 136/117/14 118/116/14 120/118/14 
f 137/119/14 120/118/14 122/120/14 
f 138/121/14 122/120/14 123/122/14 
f 139/123/14 123/122/14 105/83/14 
f 125/124/22 140/125/22 141/126/22 
f 141/126/14 126/127/14 125/124/14 
f 142/128/14 128/129/14 126/127/14 
f 143/130/14 130/131/14 128/129/14 
f 144/132/14 132/133/14 130/131/14 
f 145/134/14 109/84/14 132/133/14 
f 146/135/23 124/136/23 127/137/23 
f 127/137/24 147/138/24 146/135/24 
f 129/139/10 148/140/10 147/138/10 
f 131/141/10 149/142/10 148/140/10 
f 133/143/10 150/144/10 149/142/10 
f 107/145/10 151/146/10 150/144/10 
f 106/147/25 112/87/25 151/146/25 
f 114/148/26 152/149/26 153/150/26 
f 115/151/10 153/150/10 154/152/10 
f 117/153/10 154/152/10 155/154/10 
f 119/155/10 155/154/10 156/156/10 
f 121/157/10 156/156/10 111/86/10 
f 157/158/27 158/159/27 159/160/27 
f 159/160/27 160/161/27 157/158/27 
f 161/158/28 162/159/28 163/160/28 
f 163/160/28 164/161/28 161/158/28 
f 54/147/29 58/85/29 60/87/29 
f 53/79/5 71/99/5 54/100/5 
f 56/82/30 87/123/30 53/83/30 
f 106/147/31 110/85/31 112/87/31 
f 105/79/17 123/99/17 106/100/17 
f 108/82/32 139/123/32 105/83/32 
f 161/158/14 164/162/14 159/163/14 
f 159/163/14 158/161/14 161/158/14 
f 157/158/10 160/162/10 163/163/10 
f 163/163/10 162/161/10 157/158/10 
f 57/111/5 53/79/5 55/81/5 
f 93/134/33 56/82/33 57/84/33 
f 55/145/14 54/147/14 99/146/14 
f 123/99/17 122/97/17 110/98/17 
f 139/123/14 138/121/14 123/122/14 
f 110/85/10 121/157/10 111/86/10 
f 80/109/5 57/111/5 81/110/5 
f 92/132/10 93/134/10 80/133/10 
f 81/143/14 55/145/14 98/144/14 
f 122/97/17 120/95/17 121/96/17 
f 138/121/14 137/119/14 122/120/14 
f 121/157/10 119/155/10 156/156/10 
f 78/107/5 80/109/5 79/108/5 
f 91/130/10 92/132/10 78/131/10 
f 79/141/14 81/143/14 97/142/14 
f 120/95/17 118/93/17 119/94/17 
f 137/119/14 136/117/14 120/118/14 
f 119/155/10 117/153/10 155/154/10 
f 76/105/5 78/107/5 77/106/5 
f 90/128/10 91/130/10 76/129/10 
f 77/139/14 79/141/14 96/140/14 
f 118/93/17 116/91/17 117/92/17 
f 136/117/14 135/115/14 118/116/14 
f 117/153/10 115/151/10 154/152/10 
f 74/103/5 76/105/5 75/104/5 
f 89/126/10 90/128/10 74/127/10 
f 75/137/14 77/139/14 95/138/14 
f 116/91/17 113/88/17 115/90/17 
f 135/115/34 134/112/34 116/114/34 
f 115/151/10 114/148/10 153/150/10 
f 71/99/5 70/97/5 58/98/5 
f 87/123/10 86/121/10 71/122/10 
f 58/85/14 69/157/14 59/86/14 
f 109/111/17 105/79/17 107/81/17 
f 145/134/35 108/82/35 109/84/35 
f 107/145/10 106/147/10 151/146/10 
f 70/97/5 68/95/5 69/96/5 
f 86/121/10 85/119/10 70/120/10 
f 69/157/14 67/155/14 104/156/14 
f 132/109/17 109/111/17 133/110/17 
f 144/132/14 145/134/14 132/133/14 
f 133/143/10 107/145/10 150/144/10 
f 68/95/5 66/93/5 67/94/5 
f 85/119/10 84/117/10 68/118/10 
f 67/155/14 65/153/14 103/154/14 
f 130/107/17 132/109/17 131/108/17 
f 143/130/14 144/132/14 130/131/14 
f 131/141/10 133/143/10 149/142/10 
f 66/93/5 64/91/5 65/92/5 
f 84/117/10 83/115/10 66/116/10 
f 65/153/14 63/151/14 102/152/14 
f 128/105/17 130/107/17 129/106/17 
f 142/128/14 143/130/14 128/129/14 
f 129/139/10 131/141/10 148/140/10 
f 64/91/5 61/88/5 63/90/5 
f 83/115/24 82/112/24 64/114/24 
f 63/151/14 62/148/14 101/150/14 
f 126/103/17 128/105/17 127/104/17 
f 141/126/14 142/128/14 126/127/14 
f 127/137/10 129/139/10 147/138/10 
f 165/158/27 166/159/27 167/160/27 
f 167/160/27 168/161/27 165/158/27 
f 169/158/28 170/159/28 171/160/28 
f 171/160/28 172/161/28 169/158/28 
f 169/158/14 172/162/14 167/163/14 
f 167/163/14 166/161/14 169/158/14 
f 165/158/10 168/162/10 171/163/10 
f 171/163/10 170/161/10 165/158/10 
f 173/158/27 174/159/27 175/160/27 
f 175/160/27 176/161/27 173/158/27 
f 177/158/28 178/159/28 179/160/28 
f 179/160/28 180/161/28 177/158/28 
f 177/158/14 180/162/14 175/163/14 
f 175/163/14 174/161/14 177/158/14 
f 173/158/10 176/162/10 179/163/10 
f 179/163/10 178/161/10 173/158/10 
f 181/158/27 182/159/27 183/160/27 
f 183/160/27 184/161/27 181/158/27 
f 185/158/28 186/159/28 187/160/28 
f 187/160/28 188/161/28 185/158/28 
f 185/158/14 188/162/14 183/163/14 
f 183/163/14 182/161/14 185/158/14 
f 181/158/10 184/162/10 187/163/10 
f 187/163/10 186/161/10 181/158/10 
f 189/158/27 190/159/27 191/160/27 
f 191/160/27 192/161/27 189/158/27 
f 193/158/28 194/159/28 195/160/28 
f 195/160/28 196/161/28 193/158/28 
f 193/158/14 196/162/14 191/163/14 
f 191/163/14 190/161/14 193/158/14 
f 189/158/10 192/162/10 195/163/10 
f 195/163/10 194/161/10 189/158/10 
f 197/158/27 198/159/27 199/160/27 
f 199/160/27 200/161/27 197/158/27 
f 201/158/28 202/159/28 203/160/28 
f 203/160/28 204/161/28 201/158/28 
f 201/158/14 204/162/14 199/163/14 
f 199/163/14 198/161/14 201/158/14 
f 197/158/10 200/162/10 203/163/10 
f 203/163/10 202/161/10 197/158/10 
f 205/158/27 206/159/27 207/160/27 
f 207/160/27 208/161/27 205/158/27 
f 209/158/28 210/159/28 211/160/28 
f 211/160/28 212/161/28 209/158/28 
f 209/158/14 212/162/14 207/163/14 
f 207/163/14 206/161/14 209/158/14 
f 205/158/10 208/162/10 211/163/10 
f 211/163/10 210/161/10 205/158/10 
f 213/158/27 214/159/27 215/160/27 
f 215/160/27 216/161/27 213/158/27 
f 217/158/28 218/159/28 219/160/28 
f 219/160/28 220/161/28 217/158/28 
f 217/158/14 220/162/14 215/163/14 
f 215/163/14 214/161/14 217/158/14 
f 213/158/10 216/162/10 219/163/10 
f 219/163/10 218/161/10 213/158/10 
f 221/158/27 222/159/27 223/160/27 
f 223/160/27 224/161/27 221/158/27 
f 225/158/28 226/159/28 227/160/28 
f 227/160/28 228/161/28 225/158/28 
f 225/158/14 228/162/14 223/163/14 
f 223/163/14 222/161/14 225/158/14 
f 221/158/10 224/162/10 227/163/10 
f 227/163/10 226/161/10 221/158/10 
f 229/158/27 230/159/27 231/160/27 
f 231/160/27 232/161/27 229/158/27 
f 233/158/28 234/159/28 235/160/28 
f 235/160/28 236/161/28 233/158/28 
f 233/158/14 236/162/14 231/163/14 
f 231/163/14 230/161/14 233/158/14 
f 229/158/10 232/162/10 235/163/10 
f 235/163/10 234/161/10 229/158/10 
f 237/158/27 238/159/27 239/160/27 
f 239/160/27 240/161/27 237/158/27 
f 241/158/28 242/159/28 243/160/28 
f 243/160/28 244/161/28 241/158/28 
f 241/158/14 244/162/14 239/163/14 
f 239/163/14 238/161/14 241/158/14 
f 237/158/10 240/162/10 243/163/10 
f 243/163/10 242/161/10 237/158/10 
f 245/158/27 246/159/27 247/160/27 
f 247/160/27 248/161/27 245/158/27 
f 249/158/28 250/159/28 251/160/28 
f 251/160/28 252/161/28 249/158/28 
f 249/158/14 252/162/14 247/163/14 
f 247/163/14 246/161/14 249/158/14 
f 245/158/10 248/162/10 251/163/10 
f 251/163/10 250/161/10 245/158/10 
# 312 faces

