# 3ds Max Wavefront OBJ Exporter v0.97b - (c)2007 guruware
# File Created: 28.06.2016 07:05:50

#
# object Object001
#

v  2.0766 0.2410 -0.0063
v  2.2757 0.3051 -0.0062
v  2.2757 0.3051 -5.3395
v  2.0766 0.2410 -5.3396
v  2.4006 -0.0647 -32.0062
v  1.9666 -0.0647 -32.0063
v  2.0766 0.2410 -32.0063
v  2.2757 0.3051 -32.0062
v  1.9666 -0.0647 -0.0063
v  1.9666 -0.0647 -5.3396
v  2.3997 -0.0649 32.0000
v  2.2749 0.3049 32.0000
v  2.0758 0.2408 32.0000
v  1.9658 -0.0649 32.0000
v  2.4006 -0.0647 -0.0062
v  2.2757 0.3051 5.3271
v  2.4006 -0.0647 5.3271
v  4.0166 0.2410 -0.0063
v  3.8166 0.3051 -0.0063
v  3.8166 0.3051 5.3270
v  4.0166 0.2410 5.3270
v  3.6918 -0.0649 32.0000
v  4.1254 -0.0649 32.0000
v  4.0158 0.2408 32.0000
v  3.8158 0.3049 32.0000
v  4.1262 -0.0647 -0.0063
v  4.1262 -0.0647 5.3270
v  3.6926 -0.0647 -32.0063
v  3.8166 0.3051 -32.0063
v  4.0166 0.2410 -32.0063
v  4.1262 -0.0647 -32.0063
v  3.6926 -0.0647 -0.0063
v  3.8166 0.3051 -5.3396
v  3.6926 -0.0647 -5.3396
v  2.2757 0.3051 26.6605
v  2.0766 0.2410 26.6604
v  2.2757 0.3051 21.3271
v  2.0766 0.2410 21.3270
v  2.2757 0.3051 15.9938
v  2.0766 0.2410 15.9937
v  2.2757 0.3051 10.6605
v  2.0766 0.2410 10.6604
v  2.0766 0.2410 5.3270
v  2.0766 0.2410 -26.6730
v  2.2757 0.3051 -26.6729
v  2.0766 0.2410 -21.3396
v  2.2757 0.3051 -21.3395
v  2.0766 0.2410 -16.0063
v  2.2757 0.3051 -16.0062
v  2.0766 0.2410 -10.6730
v  2.2757 0.3051 -10.6729
v  1.9666 -0.0647 26.6604
v  1.9666 -0.0647 21.3270
v  1.9666 -0.0647 15.9937
v  1.9666 -0.0647 10.6604
v  1.9666 -0.0647 5.3270
v  1.9666 -0.0647 -26.6730
v  1.9666 -0.0647 -21.3396
v  1.9666 -0.0647 -16.0063
v  1.9666 -0.0647 -10.6730
v  2.4006 -0.0647 -26.6729
v  2.4006 -0.0647 -21.3395
v  2.4006 -0.0647 -16.0062
v  2.4006 -0.0647 -10.6729
v  2.4006 -0.0647 -5.3395
v  2.4005 -0.0647 26.6605
v  2.4005 -0.0647 21.3271
v  2.4005 -0.0647 15.9938
v  2.4005 -0.0647 10.6605
v  3.8166 0.3051 -26.6730
v  4.0166 0.2410 -26.6730
v  3.8166 0.3051 -21.3396
v  4.0166 0.2410 -21.3396
v  3.8166 0.3051 -16.0063
v  4.0166 0.2410 -16.0063
v  3.8166 0.3051 -10.6730
v  4.0166 0.2410 -10.6730
v  4.0166 0.2410 -5.3396
v  4.0166 0.2410 26.6604
v  3.8166 0.3051 26.6604
v  4.0166 0.2410 21.3270
v  3.8166 0.3051 21.3270
v  4.0166 0.2410 15.9937
v  3.8166 0.3051 15.9937
v  4.0166 0.2410 10.6604
v  3.8166 0.3051 10.6604
v  4.1262 -0.0647 -26.6730
v  4.1262 -0.0647 -21.3396
v  4.1262 -0.0647 -16.0063
v  4.1262 -0.0647 -10.6730
v  4.1262 -0.0647 -5.3396
v  4.1262 -0.0647 26.6604
v  4.1262 -0.0647 21.3270
v  4.1262 -0.0647 15.9937
v  4.1262 -0.0647 10.6604
v  3.6926 -0.0647 26.6604
v  3.6926 -0.0647 21.3270
v  3.6926 -0.0647 15.9937
v  3.6926 -0.0647 10.6604
v  3.6926 -0.0647 5.3270
v  3.6926 -0.0647 -26.6730
v  3.6926 -0.0647 -21.3396
v  3.6926 -0.0647 -16.0063
v  3.6926 -0.0647 -10.6730
v  -2.0770 0.2410 0.0063
v  -2.2761 0.3051 0.0062
v  -2.2761 0.3051 5.3395
v  -2.0770 0.2410 5.3396
v  -2.4010 -0.0647 32.0062
v  -1.9670 -0.0647 32.0063
v  -2.0770 0.2410 32.0063
v  -2.2761 0.3051 32.0062
v  -1.9670 -0.0647 0.0063
v  -1.9670 -0.0647 5.3396
v  -2.4001 -0.0649 -32.0000
v  -2.2753 0.3049 -32.0000
v  -2.0762 0.2408 -32.0000
v  -1.9662 -0.0649 -32.0000
v  -2.4010 -0.0647 0.0062
v  -2.2761 0.3051 -5.3271
v  -2.4010 -0.0647 -5.3271
v  -4.0170 0.2410 0.0063
v  -3.8170 0.3051 0.0063
v  -3.8170 0.3051 -5.3270
v  -4.0170 0.2410 -5.3270
v  -3.6922 -0.0649 -32.0000
v  -4.1258 -0.0649 -32.0000
v  -4.0162 0.2408 -32.0000
v  -3.8162 0.3049 -32.0000
v  -4.1266 -0.0647 0.0063
v  -4.1266 -0.0647 -5.3270
v  -3.6930 -0.0647 32.0063
v  -3.8170 0.3051 32.0063
v  -4.0170 0.2410 32.0063
v  -4.1266 -0.0647 32.0063
v  -3.6930 -0.0647 0.0063
v  -3.8170 0.3051 5.3396
v  -3.6930 -0.0647 5.3396
v  -2.2761 0.3051 -26.6605
v  -2.0770 0.2410 -26.6604
v  -2.2761 0.3051 -21.3271
v  -2.0770 0.2410 -21.3270
v  -2.2761 0.3051 -15.9938
v  -2.0770 0.2410 -15.9937
v  -2.2761 0.3051 -10.6605
v  -2.0770 0.2410 -10.6604
v  -2.0770 0.2410 -5.3270
v  -2.0770 0.2410 26.6730
v  -2.2761 0.3051 26.6729
v  -2.0770 0.2410 21.3396
v  -2.2761 0.3051 21.3395
v  -2.0770 0.2410 16.0063
v  -2.2761 0.3051 16.0062
v  -2.0770 0.2410 10.6730
v  -2.2761 0.3051 10.6729
v  -1.9670 -0.0647 -26.6604
v  -1.9670 -0.0647 -21.3270
v  -1.9670 -0.0647 -15.9937
v  -1.9670 -0.0647 -10.6604
v  -1.9670 -0.0647 -5.3270
v  -1.9670 -0.0647 26.6730
v  -1.9670 -0.0647 21.3396
v  -1.9670 -0.0647 16.0063
v  -1.9670 -0.0647 10.6730
v  -2.4010 -0.0647 26.6729
v  -2.4010 -0.0647 21.3395
v  -2.4010 -0.0647 16.0062
v  -2.4010 -0.0647 10.6729
v  -2.4010 -0.0647 5.3395
v  -2.4009 -0.0647 -26.6605
v  -2.4009 -0.0647 -21.3271
v  -2.4009 -0.0647 -15.9938
v  -2.4009 -0.0647 -10.6605
v  -3.8170 0.3051 26.6730
v  -4.0170 0.2410 26.6730
v  -3.8170 0.3051 21.3396
v  -4.0170 0.2410 21.3396
v  -3.8170 0.3051 16.0063
v  -4.0170 0.2410 16.0063
v  -3.8170 0.3051 10.6730
v  -4.0170 0.2410 10.6730
v  -4.0170 0.2410 5.3396
v  -4.0170 0.2410 -26.6604
v  -3.8170 0.3051 -26.6604
v  -4.0170 0.2410 -21.3270
v  -3.8170 0.3051 -21.3270
v  -4.0170 0.2410 -15.9937
v  -3.8170 0.3051 -15.9937
v  -4.0170 0.2410 -10.6604
v  -3.8170 0.3051 -10.6604
v  -4.1266 -0.0647 26.6730
v  -4.1266 -0.0647 21.3396
v  -4.1266 -0.0647 16.0063
v  -4.1266 -0.0647 10.6730
v  -4.1266 -0.0647 5.3396
v  -4.1266 -0.0647 -26.6604
v  -4.1266 -0.0647 -21.3270
v  -4.1266 -0.0647 -15.9937
v  -4.1266 -0.0647 -10.6604
v  -3.6930 -0.0647 -26.6604
v  -3.6930 -0.0647 -21.3270
v  -3.6930 -0.0647 -15.9937
v  -3.6930 -0.0647 -10.6604
v  -3.6930 -0.0647 -5.3270
v  -3.6930 -0.0647 26.6730
v  -3.6930 -0.0647 21.3396
v  -3.6930 -0.0647 16.0063
v  -3.6930 -0.0647 10.6730
# 208 vertices

vn -0.6950 0.7190 -0.0000
vn 0.4500 0.8930 -0.0000
vn 0.0003 0.0000 -1.0000
vn 0.0002 -0.0001 -1.0000
vn 0.0005 0.0002 -1.0000
vn -0.9409 0.3386 -0.0000
vn 0.0000 0.0000 1.0000
vn 0.9474 0.3200 -0.0000
vn 0.9474 0.3200 0.0000
vn 0.6950 0.7191 -0.0000
vn -0.4516 0.8922 -0.0000
vn 0.9413 0.3375 -0.0000
vn 0.0000 0.0000 -1.0000
vn -0.9481 0.3179 -0.0000
vn -0.6950 0.7190 -0.0001
vn 0.4501 0.8930 0.0001
vn 0.4502 0.8929 0.0001
vn 0.4501 0.8930 -0.0000
vn 0.4501 0.8930 0.0000
vn 0.4499 0.8931 -0.0000
vn -0.6951 0.7189 -0.0000
vn -0.9409 0.3386 -0.0001
vn 0.9475 0.3198 0.0002
vn 0.9475 0.3198 0.0001
vn 0.9475 0.3198 -0.0000
vn 0.9475 0.3198 0.0000
vn -0.4517 0.8922 -0.0000
vn 0.6949 0.7191 0.0001
vn 0.6950 0.7190 0.0001
vn 0.9413 0.3375 0.0002
vn 0.9413 0.3375 0.0001
vn -0.9481 0.3179 -0.0001
vn 0.6950 0.7190 -0.0000
vn -0.4500 0.8930 0.0000
vn -0.0003 0.0000 1.0000
vn -0.0002 -0.0001 1.0000
vn -0.0005 0.0002 1.0000
vn 0.9409 0.3386 -0.0000
vn -0.9474 0.3200 0.0000
vn -0.9474 0.3200 -0.0000
vn -0.6950 0.7191 0.0000
vn 0.4516 0.8922 -0.0000
vn -0.9413 0.3375 0.0000
vn 0.9481 0.3179 -0.0000
vn -0.4501 0.8930 -0.0001
vn -0.4502 0.8929 -0.0001
vn 0.6950 0.7190 0.0000
vn -0.4501 0.8930 0.0000
vn -0.4501 0.8930 -0.0000
vn -0.4499 0.8931 0.0000
vn 0.6951 0.7189 -0.0000
vn 0.9409 0.3386 0.0001
vn -0.9475 0.3198 -0.0002
vn -0.9475 0.3198 -0.0001
vn -0.9475 0.3198 0.0000
vn -0.9475 0.3198 -0.0000
vn 0.4517 0.8922 0.0000
vn -0.6949 0.7191 -0.0001
vn 0.4516 0.8922 0.0000
vn -0.9413 0.3375 -0.0002
vn -0.9413 0.3375 -0.0001
vn 0.9481 0.3179 0.0001
# 62 vertex normals

vt 1.0000 0.5000 0.0000
vt 0.0000 0.5000 0.0000
vt 0.0000 0.4167 0.0000
vt 1.0000 0.4167 0.0000
vt 0.0000 0.0000 0.0000
vt 1.0000 0.0000 0.0000
vt 1.0000 1.0000 0.0000
vt 0.0000 1.0000 0.0000
vt 0.5000 0.0000 0.0000
vt 0.5000 1.0000 0.0000
vt 0.4167 1.0000 0.0000
vt 0.4167 0.0000 0.0000
vt 0.0000 0.9167 0.0000
vt 1.0000 0.9167 0.0000
vt 0.0000 0.8333 0.0000
vt 1.0000 0.8333 0.0000
vt 0.0000 0.7500 0.0000
vt 1.0000 0.7500 0.0000
vt 0.0000 0.6667 0.0000
vt 1.0000 0.6667 0.0000
vt 0.0000 0.5833 0.0000
vt 1.0000 0.5833 0.0000
vt 1.0000 0.0833 0.0000
vt 0.0000 0.0833 0.0000
vt 1.0000 0.1667 0.0000
vt 0.0000 0.1667 0.0000
vt 1.0000 0.2500 0.0000
vt 0.0000 0.2500 0.0000
vt 1.0000 0.3333 0.0000
vt 0.0000 0.3333 0.0000
vt 0.9167 1.0000 0.0000
vt 0.9167 0.0000 0.0000
vt 0.8333 1.0000 0.0000
vt 0.8333 0.0000 0.0000
vt 0.7500 1.0000 0.0000
vt 0.7500 0.0000 0.0000
vt 0.6667 1.0000 0.0000
vt 0.6667 0.0000 0.0000
vt 0.5833 1.0000 0.0000
vt 0.5833 0.0000 0.0000
vt 0.0833 0.0000 0.0000
vt 0.0833 1.0000 0.0000
vt 0.1667 0.0000 0.0000
vt 0.1667 1.0000 0.0000
vt 0.2500 0.0000 0.0000
vt 0.2500 1.0000 0.0000
vt 0.3333 0.0000 0.0000
vt 0.3333 1.0000 0.0000
# 48 texture coords

g Object001
s 1
f 1/1/1 2/2/2 3/3/2 
f 3/3/2 4/4/1 1/1/1 
s 2
f 5/5/3 6/6/4 7/7/3 
f 7/7/3 8/8/5 5/5/3 
s 1
f 9/9/6 1/10/1 4/11/1 
f 4/11/1 10/12/6 9/9/6 
s 2
f 11/6/7 12/7/7 13/8/7 
f 13/8/7 14/5/7 11/6/7 
s 1
f 15/9/8 2/10/2 16/11/2 
f 16/11/2 17/12/9 15/9/8 
f 18/1/10 19/2/11 20/3/11 
f 20/3/11 21/4/10 18/1/10 
s 2
f 22/5/7 23/6/7 24/7/7 
f 24/7/7 25/8/7 22/5/7 
s 1
f 26/9/12 18/10/10 21/11/10 
f 21/11/10 27/12/12 26/9/12 
s 2
f 28/6/13 29/7/13 30/8/13 
f 30/8/13 31/5/13 28/6/13 
s 1
f 32/9/14 19/10/11 33/11/11 
f 33/11/11 34/12/14 32/9/14 
f 13/7/15 12/8/16 35/13/17 
f 35/13/17 36/14/1 13/7/15 
f 36/14/1 35/13/17 37/15/18 
f 37/15/18 38/16/1 36/14/1 
f 38/16/1 37/15/18 39/17/18 
f 39/17/18 40/18/1 38/16/1 
f 40/18/1 39/17/18 41/19/19 
f 41/19/19 42/20/1 40/18/1 
f 42/20/1 41/19/19 16/21/2 
f 16/21/2 43/22/1 42/20/1 
f 43/22/1 16/21/2 2/2/2 
f 2/2/2 1/1/1 43/22/1 
f 8/5/20 7/6/21 44/23/1 
f 44/23/1 45/24/2 8/5/20 
f 45/24/2 44/23/1 46/25/1 
f 46/25/1 47/26/2 45/24/2 
f 47/26/2 46/25/1 48/27/1 
f 48/27/1 49/28/2 47/26/2 
f 49/28/2 48/27/1 50/29/1 
f 50/29/1 51/30/2 49/28/2 
f 51/30/2 50/29/1 4/4/1 
f 4/4/1 3/3/2 51/30/2 
f 14/6/22 13/7/15 36/31/1 
f 36/31/1 52/32/22 14/6/22 
f 52/32/22 36/31/1 38/33/1 
f 38/33/1 53/34/6 52/32/22 
f 53/34/6 38/33/1 40/35/1 
f 40/35/1 54/36/6 53/34/6 
f 54/36/6 40/35/1 42/37/1 
f 42/37/1 55/38/6 54/36/6 
f 55/38/6 42/37/1 43/39/1 
f 43/39/1 56/40/6 55/38/6 
f 56/40/6 43/39/1 1/10/1 
f 1/10/1 9/9/6 56/40/6 
f 7/8/21 6/5/6 57/41/6 
f 57/41/6 44/42/1 7/8/21 
f 44/42/1 57/41/6 58/43/6 
f 58/43/6 46/44/1 44/42/1 
f 46/44/1 58/43/6 59/45/6 
f 59/45/6 48/46/1 46/44/1 
f 48/46/1 59/45/6 60/47/6 
f 60/47/6 50/48/1 48/46/1 
f 50/48/1 60/47/6 10/12/6 
f 10/12/6 4/11/1 50/48/1 
f 5/6/8 8/7/20 45/31/2 
f 45/31/2 61/32/8 5/6/8 
f 61/32/8 45/31/2 47/33/2 
f 47/33/2 62/34/8 61/32/8 
f 62/34/8 47/33/2 49/35/2 
f 49/35/2 63/36/8 62/34/8 
f 63/36/8 49/35/2 51/37/2 
f 51/37/2 64/38/8 63/36/8 
f 64/38/8 51/37/2 3/39/2 
f 3/39/2 65/40/8 64/38/8 
f 65/40/8 3/39/2 2/10/2 
f 2/10/2 15/9/8 65/40/8 
f 12/8/16 11/5/23 66/41/24 
f 66/41/24 35/42/17 12/8/16 
f 35/42/17 66/41/24 67/43/25 
f 67/43/25 37/44/18 35/42/17 
f 37/44/18 67/43/25 68/45/25 
f 68/45/25 39/46/18 37/44/18 
f 39/46/18 68/45/25 69/47/26 
f 69/47/26 41/48/19 39/46/18 
f 41/48/19 69/47/26 17/12/9 
f 17/12/9 16/11/2 41/48/19 
f 30/7/10 29/8/11 70/13/11 
f 70/13/11 71/14/10 30/7/10 
f 71/14/10 70/13/11 72/15/11 
f 72/15/11 73/16/10 71/14/10 
f 73/16/10 72/15/11 74/17/11 
f 74/17/11 75/18/10 73/16/10 
f 75/18/10 74/17/11 76/19/11 
f 76/19/11 77/20/10 75/18/10 
f 77/20/10 76/19/11 33/21/11 
f 33/21/11 78/22/10 77/20/10 
f 78/22/10 33/21/11 19/2/11 
f 19/2/11 18/1/10 78/22/10 
f 25/5/27 24/6/28 79/23/29 
f 79/23/29 80/24/11 25/5/27 
f 80/24/11 79/23/29 81/25/10 
f 81/25/10 82/26/11 80/24/11 
f 82/26/11 81/25/10 83/27/10 
f 83/27/10 84/28/11 82/26/11 
f 84/28/11 83/27/10 85/29/10 
f 85/29/10 86/30/11 84/28/11 
f 86/30/11 85/29/10 21/4/10 
f 21/4/10 20/3/11 86/30/11 
f 31/6/12 30/7/10 71/31/10 
f 71/31/10 87/32/12 31/6/12 
f 87/32/12 71/31/10 73/33/10 
f 73/33/10 88/34/12 87/32/12 
f 88/34/12 73/33/10 75/35/10 
f 75/35/10 89/36/12 88/34/12 
f 89/36/12 75/35/10 77/37/10 
f 77/37/10 90/38/12 89/36/12 
f 90/38/12 77/37/10 78/39/10 
f 78/39/10 91/40/12 90/38/12 
f 91/40/12 78/39/10 18/10/10 
f 18/10/10 26/9/12 91/40/12 
f 24/8/28 23/5/30 92/41/31 
f 92/41/31 79/42/29 24/8/28 
f 79/42/29 92/41/31 93/43/12 
f 93/43/12 81/44/10 79/42/29 
f 81/44/10 93/43/12 94/45/12 
f 94/45/12 83/46/10 81/44/10 
f 83/46/10 94/45/12 95/47/12 
f 95/47/12 85/48/10 83/46/10 
f 85/48/10 95/47/12 27/12/12 
f 27/12/12 21/11/10 85/48/10 
f 22/6/32 25/7/27 80/31/11 
f 80/31/11 96/32/32 22/6/32 
f 96/32/32 80/31/11 82/33/11 
f 82/33/11 97/34/14 96/32/32 
f 97/34/14 82/33/11 84/35/11 
f 84/35/11 98/36/14 97/34/14 
f 98/36/14 84/35/11 86/37/11 
f 86/37/11 99/38/14 98/36/14 
f 99/38/14 86/37/11 20/39/11 
f 20/39/11 100/40/14 99/38/14 
f 100/40/14 20/39/11 19/10/11 
f 19/10/11 32/9/14 100/40/14 
f 29/8/11 28/5/14 101/41/14 
f 101/41/14 70/42/11 29/8/11 
f 70/42/11 101/41/14 102/43/14 
f 102/43/14 72/44/11 70/42/11 
f 72/44/11 102/43/14 103/45/14 
f 103/45/14 74/46/11 72/44/11 
f 74/46/11 103/45/14 104/47/14 
f 104/47/14 76/48/11 74/46/11 
f 76/48/11 104/47/14 34/12/14 
f 34/12/14 33/11/11 76/48/11 
f 105/1/33 106/2/34 107/3/34 
f 107/3/34 108/4/33 105/1/33 
s 2
f 109/5/35 110/6/36 111/7/35 
f 111/7/35 112/8/37 109/5/35 
s 1
f 113/9/38 105/10/33 108/11/33 
f 108/11/33 114/12/38 113/9/38 
s 2
f 115/6/13 116/7/13 117/8/13 
f 117/8/13 118/5/13 115/6/13 
s 1
f 119/9/39 106/10/34 120/11/34 
f 120/11/34 121/12/40 119/9/39 
f 122/1/41 123/2/42 124/3/42 
f 124/3/42 125/4/41 122/1/41 
s 2
f 126/5/13 127/6/13 128/7/13 
f 128/7/13 129/8/13 126/5/13 
s 1
f 130/9/43 122/10/41 125/11/41 
f 125/11/41 131/12/43 130/9/43 
s 2
f 132/6/7 133/7/7 134/8/7 
f 134/8/7 135/5/7 132/6/7 
s 1
f 136/9/44 123/10/42 137/11/42 
f 137/11/42 138/12/44 136/9/44 
f 117/7/29 116/8/45 139/13/46 
f 139/13/46 140/14/47 117/7/29 
f 140/14/47 139/13/46 141/15/48 
f 141/15/48 142/16/33 140/14/47 
f 142/16/33 141/15/48 143/17/48 
f 143/17/48 144/18/33 142/16/33 
f 144/18/33 143/17/48 145/19/49 
f 145/19/49 146/20/33 144/18/33 
f 146/20/33 145/19/49 120/21/34 
f 120/21/34 147/22/33 146/20/33 
f 147/22/33 120/21/34 106/2/34 
f 106/2/34 105/1/33 147/22/33 
f 112/5/50 111/6/51 148/23/33 
f 148/23/33 149/24/34 112/5/50 
f 149/24/34 148/23/33 150/25/33 
f 150/25/33 151/26/34 149/24/34 
f 151/26/34 150/25/33 152/27/33 
f 152/27/33 153/28/34 151/26/34 
f 153/28/34 152/27/33 154/29/33 
f 154/29/33 155/30/34 153/28/34 
f 155/30/34 154/29/33 108/4/33 
f 108/4/33 107/3/34 155/30/34 
f 118/6/52 117/7/29 140/31/47 
f 140/31/47 156/32/52 118/6/52 
f 156/32/52 140/31/47 142/33/33 
f 142/33/33 157/34/38 156/32/52 
f 157/34/38 142/33/33 144/35/33 
f 144/35/33 158/36/38 157/34/38 
f 158/36/38 144/35/33 146/37/33 
f 146/37/33 159/38/38 158/36/38 
f 159/38/38 146/37/33 147/39/33 
f 147/39/33 160/40/38 159/38/38 
f 160/40/38 147/39/33 105/10/33 
f 105/10/33 113/9/38 160/40/38 
f 111/8/51 110/5/38 161/41/38 
f 161/41/38 148/42/33 111/8/51 
f 148/42/33 161/41/38 162/43/38 
f 162/43/38 150/44/33 148/42/33 
f 150/44/33 162/43/38 163/45/38 
f 163/45/38 152/46/33 150/44/33 
f 152/46/33 163/45/38 164/47/38 
f 164/47/38 154/48/33 152/46/33 
f 154/48/33 164/47/38 114/12/38 
f 114/12/38 108/11/33 154/48/33 
f 109/6/39 112/7/50 149/31/34 
f 149/31/34 165/32/39 109/6/39 
f 165/32/39 149/31/34 151/33/34 
f 151/33/34 166/34/39 165/32/39 
f 166/34/39 151/33/34 153/35/34 
f 153/35/34 167/36/39 166/34/39 
f 167/36/39 153/35/34 155/37/34 
f 155/37/34 168/38/39 167/36/39 
f 168/38/39 155/37/34 107/39/34 
f 107/39/34 169/40/39 168/38/39 
f 169/40/39 107/39/34 106/10/34 
f 106/10/34 119/9/39 169/40/39 
f 116/8/45 115/5/53 170/41/54 
f 170/41/54 139/42/46 116/8/45 
f 139/42/46 170/41/54 171/43/55 
f 171/43/55 141/44/48 139/42/46 
f 141/44/48 171/43/55 172/45/55 
f 172/45/55 143/46/48 141/44/48 
f 143/46/48 172/45/55 173/47/56 
f 173/47/56 145/48/49 143/46/48 
f 145/48/49 173/47/56 121/12/40 
f 121/12/40 120/11/34 145/48/49 
f 134/7/41 133/8/42 174/13/42 
f 174/13/42 175/14/41 134/7/41 
f 175/14/41 174/13/42 176/15/42 
f 176/15/42 177/16/41 175/14/41 
f 177/16/41 176/15/42 178/17/42 
f 178/17/42 179/18/41 177/16/41 
f 179/18/41 178/17/42 180/19/42 
f 180/19/42 181/20/41 179/18/41 
f 181/20/41 180/19/42 137/21/42 
f 137/21/42 182/22/41 181/20/41 
f 182/22/41 137/21/42 123/2/42 
f 123/2/42 122/1/41 182/22/41 
f 129/5/57 128/6/58 183/23/15 
f 183/23/15 184/24/59 129/5/57 
f 184/24/59 183/23/15 185/25/41 
f 185/25/41 186/26/42 184/24/59 
f 186/26/42 185/25/41 187/27/41 
f 187/27/41 188/28/42 186/26/42 
f 188/28/42 187/27/41 189/29/41 
f 189/29/41 190/30/42 188/28/42 
f 190/30/42 189/29/41 125/4/41 
f 125/4/41 124/3/42 190/30/42 
f 135/6/43 134/7/41 175/31/41 
f 175/31/41 191/32/43 135/6/43 
f 191/32/43 175/31/41 177/33/41 
f 177/33/41 192/34/43 191/32/43 
f 192/34/43 177/33/41 179/35/41 
f 179/35/41 193/36/43 192/34/43 
f 193/36/43 179/35/41 181/37/41 
f 181/37/41 194/38/43 193/36/43 
f 194/38/43 181/37/41 182/39/41 
f 182/39/41 195/40/43 194/38/43 
f 195/40/43 182/39/41 122/10/41 
f 122/10/41 130/9/43 195/40/43 
f 128/8/58 127/5/60 196/41/61 
f 196/41/61 183/42/15 128/8/58 
f 183/42/15 196/41/61 197/43/43 
f 197/43/43 185/44/41 183/42/15 
f 185/44/41 197/43/43 198/45/43 
f 198/45/43 187/46/41 185/44/41 
f 187/46/41 198/45/43 199/47/43 
f 199/47/43 189/48/41 187/46/41 
f 189/48/41 199/47/43 131/12/43 
f 131/12/43 125/11/41 189/48/41 
f 126/6/62 129/7/57 184/31/59 
f 184/31/59 200/32/62 126/6/62 
f 200/32/62 184/31/59 186/33/42 
f 186/33/42 201/34/44 200/32/62 
f 201/34/44 186/33/42 188/35/42 
f 188/35/42 202/36/44 201/34/44 
f 202/36/44 188/35/42 190/37/42 
f 190/37/42 203/38/44 202/36/44 
f 203/38/44 190/37/42 124/39/42 
f 124/39/42 204/40/44 203/38/44 
f 204/40/44 124/39/42 123/10/42 
f 123/10/42 136/9/44 204/40/44 
f 133/8/42 132/5/44 205/41/44 
f 205/41/44 174/42/42 133/8/42 
f 174/42/42 205/41/44 206/43/44 
f 206/43/44 176/44/42 174/42/42 
f 176/44/42 206/43/44 207/45/44 
f 207/45/44 178/46/42 176/44/42 
f 178/46/42 207/45/44 208/47/44 
f 208/47/44 180/48/42 178/46/42 
f 180/48/42 208/47/44 138/12/44 
f 138/12/44 137/11/42 180/48/42 
# 304 faces

