# 3ds Max Wavefront OBJ Exporter v0.97b - (c)2007 guruware
# File Created: 05.01.2017 23:00:00

#
# object Slope_Node_Pavement
#

v  3.5000 0.0500 5.3333
v  6.2916 0.0500 5.3333
v  6.2500 0.0500 -0.0000
v  3.5000 0.0500 -0.0000
v  -3.5000 -0.3000 0.0000
v  0.0000 -0.3000 0.0000
v  -0.0000 -0.3000 -5.3333
v  -3.5000 -0.3000 -5.3333
v  -3.5000 0.0500 -5.3333
v  -6.2084 0.0500 -5.3333
v  -6.2500 0.0500 -0.0000
v  -3.5000 0.0500 -0.0000
v  3.5000 -0.3000 0.0000
v  3.5000 -0.3000 5.3333
v  -3.5000 0.0500 5.3333
v  -3.5000 -0.3000 5.3333
v  3.5000 0.0500 -26.6667
v  6.0420 0.0500 -26.6667
v  6.0004 0.0500 -32.0000
v  3.5000 0.0500 -32.0000
v  3.5000 0.0500 -21.3333
v  6.0836 0.0500 -21.3333
v  3.5000 0.0500 -16.0000
v  6.1252 0.0500 -16.0000
v  3.5000 0.0500 -10.6667
v  6.1668 0.0500 -10.6667
v  3.5000 0.0500 -5.3333
v  6.2084 0.0500 -5.3333
v  6.4580 0.0500 26.6667
v  3.5000 0.0500 26.6667
v  3.5000 0.0500 32.0000
v  6.4996 0.0500 32.0000
v  6.4164 0.0500 21.3333
v  3.5000 0.0500 21.3333
v  6.3748 0.0500 16.0000
v  3.5000 0.0500 16.0000
v  6.3332 0.0500 10.6667
v  3.5000 0.0500 10.6667
v  -3.5000 -0.3000 32.0000
v  0.0000 -0.3000 32.0000
v  0.0000 -0.3000 26.6667
v  -3.5000 -0.3000 26.6667
v  -0.0000 -0.3000 21.3333
v  -3.5000 -0.3000 21.3333
v  0.0000 -0.3000 16.0000
v  -3.5000 -0.3000 16.0000
v  0.0000 -0.3000 10.6667
v  -3.5000 -0.3000 10.6667
v  -0.0000 -0.3000 5.3333
v  3.5000 -0.3000 -32.0000
v  -0.0000 -0.3000 -32.0000
v  -0.0000 -0.3000 -26.6667
v  3.5000 -0.3000 -26.6667
v  -0.0000 -0.3000 -21.3333
v  3.5000 -0.3000 -21.3333
v  -0.0000 -0.3000 -16.0000
v  3.5000 -0.3000 -16.0000
v  -0.0000 -0.3000 -10.6667
v  3.5000 -0.3000 -10.6667
v  3.5000 -0.3000 -5.3333
v  -3.5000 0.0500 26.6667
v  -6.4580 0.0500 26.6667
v  -6.4996 0.0500 32.0000
v  -3.5000 0.0500 32.0000
v  -3.5000 0.0500 21.3333
v  -6.4164 0.0500 21.3333
v  -3.5000 0.0500 16.0000
v  -6.3748 0.0500 16.0000
v  -3.5000 0.0500 10.6667
v  -6.3332 0.0500 10.6667
v  -6.2916 0.0500 5.3333
v  -6.0420 0.0500 -26.6667
v  -3.5000 0.0500 -26.6667
v  -3.5000 0.0500 -32.0000
v  -6.0004 0.0500 -32.0000
v  -6.0836 0.0500 -21.3333
v  -3.5000 0.0500 -21.3333
v  -6.1252 0.0500 -16.0000
v  -3.5000 0.0500 -16.0000
v  -6.1668 0.0500 -10.6667
v  -3.5000 0.0500 -10.6667
v  3.5000 -0.3000 32.0000
v  3.5000 -0.3000 26.6667
v  3.5000 -0.3000 21.3333
v  3.5000 -0.3000 16.0000
v  3.5000 -0.3000 10.6667
v  -3.5000 -0.3000 -32.0000
v  -3.5000 -0.3000 -26.6667
v  -3.5000 -0.3000 -21.3333
v  -3.5000 -0.3000 -16.0000
v  -3.5000 -0.3000 -10.6667
v  -9.0000 -3.1150 -0.0000
v  -9.0000 -3.1150 -5.3333
v  9.0000 -3.1150 -0.0000
v  9.0000 -3.1150 5.3333
v  -9.0000 -3.1150 32.0000
v  -9.0000 -3.1150 26.6667
v  -9.0000 -3.1150 21.3333
v  -9.0000 -3.1150 16.0000
v  -9.0000 -3.1150 10.6667
v  -9.0000 -3.1150 5.3333
v  -9.0000 -3.1150 -32.0000
v  -9.0000 -3.1150 -26.6667
v  -9.0000 -3.1150 -21.3333
v  -9.0000 -3.1150 -16.0000
v  -9.0000 -3.1150 -10.6667
v  9.0000 -3.1150 -32.0000
v  9.0000 -3.1150 -26.6667
v  9.0000 -3.1150 -21.3333
v  9.0000 -3.1150 -16.0000
v  9.0000 -3.1150 -10.6667
v  9.0000 -3.1150 -5.3333
v  9.0000 -3.1150 32.0000
v  9.0000 -3.1150 26.6667
v  9.0000 -3.1150 21.3333
v  9.0000 -3.1150 16.0000
v  9.0000 -3.1150 10.6667
v  -6.0004 -0.2500 -32.0000
v  6.0004 -0.2500 -32.0000
v  -6.4996 -0.2500 32.0000
v  6.4996 -0.2500 32.0000
# 121 vertices

vn 0.0000 1.0000 -0.0000
vn -1.0000 0.0000 -0.0000
vn 1.0000 0.0000 -0.0000
vn -0.0000 1.0000 -0.0000
vn 0.0000 1.0000 0.0000
vn -0.0000 1.0000 0.0000
vn -1.0000 0.0000 0.0000
vn 1.0000 -0.0000 -0.0000
vn -0.7548 0.6559 -0.0059
vn -0.7500 0.6615 -0.0000
vn 0.7548 0.6559 -0.0059
vn 0.7598 0.6502 -0.0000
vn -0.7847 0.6199 -0.0061
vn -0.7797 0.6262 -0.0000
vn -0.7797 0.6262 -0.0061
vn -0.7747 0.6324 -0.0000
vn -0.7747 0.6324 -0.0060
vn -0.7697 0.6384 -0.0000
vn -0.7697 0.6384 -0.0060
vn -0.7647 0.6444 -0.0000
vn -0.7647 0.6443 -0.0060
vn -0.7598 0.6502 -0.0000
vn -0.7598 0.6502 -0.0059
vn -0.7549 0.6559 -0.0000
vn -0.7258 0.6879 -0.0000
vn -0.7306 0.6828 -0.0057
vn -0.7306 0.6828 -0.0000
vn -0.7354 0.6776 -0.0057
vn -0.7354 0.6776 -0.0000
vn -0.7402 0.6723 -0.0058
vn -0.7402 0.6724 -0.0000
vn -0.7451 0.6670 -0.0058
vn -0.7451 0.6670 -0.0000
vn -0.7499 0.6615 -0.0058
vn 0.7258 0.6879 -0.0057
vn 0.7306 0.6828 -0.0000
vn 0.7306 0.6828 -0.0057
vn 0.7354 0.6776 -0.0000
vn 0.7354 0.6776 -0.0057
vn 0.7402 0.6724 -0.0000
vn 0.7402 0.6723 -0.0058
vn 0.7451 0.6670 -0.0000
vn 0.7451 0.6670 -0.0058
vn 0.7500 0.6615 -0.0000
vn 0.7499 0.6615 -0.0058
vn 0.7549 0.6559 -0.0000
vn 0.7847 0.6199 -0.0000
vn 0.7797 0.6262 -0.0061
vn 0.7797 0.6262 -0.0000
vn 0.7747 0.6324 -0.0060
vn 0.7747 0.6324 -0.0000
vn 0.7697 0.6384 -0.0060
vn 0.7697 0.6384 -0.0000
vn 0.7647 0.6443 -0.0060
vn 0.7647 0.6444 -0.0000
vn 0.7598 0.6502 -0.0059
vn 0.0000 -0.0000 -1.0000
vn -0.0000 0.0000 -1.0000
vn 0.0000 0.0000 1.0000
vn -0.0000 0.0000 1.0000
# 60 vertex normals

vt 1.0001 0.5833 0.0000
vt 0.8067 0.5833 0.0000
vt 0.8067 0.5000 0.0000
vt 1.0001 0.5000 0.0000
vt 0.0001 0.5000 0.0000
vt 0.1372 0.5000 0.0000
vt 0.1372 0.5833 0.0000
vt 0.0001 0.5833 0.0000
vt 0.9807 0.5000 0.0000
vt 0.9807 0.4167 0.0000
vt 1.0001 0.4167 0.0000
vt 1.0001 0.0833 0.0000
vt 0.8067 0.0833 0.0000
vt 0.8067 0.0000 0.0000
vt 1.0001 0.0000 0.0000
vt 1.0001 0.1667 0.0000
vt 0.8067 0.1667 0.0000
vt 1.0001 0.2500 0.0000
vt 0.8067 0.2500 0.0000
vt 1.0001 0.3333 0.0000
vt 0.8067 0.3333 0.0000
vt 0.8067 0.4167 0.0000
vt 0.8067 0.9167 0.0000
vt 1.0001 0.9167 0.0000
vt 1.0001 1.0000 0.0000
vt 0.8067 1.0000 0.0000
vt 0.8067 0.8333 0.0000
vt 1.0001 0.8333 0.0000
vt 0.8067 0.7500 0.0000
vt 1.0001 0.7500 0.0000
vt 0.8067 0.6667 0.0000
vt 1.0001 0.6667 0.0000
vt 0.0001 0.0000 0.0000
vt 0.1372 0.0000 0.0000
vt 0.1372 0.0833 0.0000
vt 0.0001 0.0833 0.0000
vt 0.1372 0.1667 0.0000
vt 0.0001 0.1667 0.0000
vt 0.1372 0.2500 0.0000
vt 0.0001 0.2500 0.0000
vt 0.1372 0.3333 0.0000
vt 0.0001 0.3333 0.0000
vt 0.1372 0.4167 0.0000
vt 0.0001 0.4167 0.0000
vt 0.0001 1.0000 0.0000
vt 0.1372 1.0000 0.0000
vt 0.1372 0.9167 0.0000
vt 0.0001 0.9167 0.0000
vt 0.1372 0.8333 0.0000
vt 0.0001 0.8333 0.0000
vt 0.1372 0.7500 0.0000
vt 0.0001 0.7500 0.0000
vt 0.1372 0.6667 0.0000
vt 0.0001 0.6667 0.0000
vt 0.9807 1.0000 0.0000
vt 0.9807 0.9167 0.0000
vt 0.9807 0.8333 0.0000
vt 0.9807 0.7500 0.0000
vt 0.9807 0.6667 0.0000
vt 0.9807 0.5833 0.0000
vt 0.9807 -0.0000 0.0000
vt 1.0001 -0.0000 0.0000
vt 0.9807 0.0833 0.0000
vt 0.9807 0.1667 0.0000
vt 0.9807 0.2500 0.0000
vt 0.9807 0.3333 0.0000
vt 0.1384 0.5000 0.0000
vt 0.0000 0.5000 0.0000
vt 0.0000 0.5832 0.0000
vt 0.1384 0.5832 0.0000
vt 0.1376 0.5000 0.0000
vt 0.0000 0.4168 0.0000
vt 0.1376 0.4168 0.0000
vt 0.1384 0.0008 0.0000
vt 0.0000 0.0008 0.0000
vt 0.0000 0.0840 0.0000
vt 0.1384 0.0840 0.0000
vt 0.0000 0.1672 0.0000
vt 0.1384 0.1672 0.0000
vt 0.0000 0.2504 0.0000
vt 0.1384 0.2504 0.0000
vt 0.0000 0.3336 0.0000
vt 0.1384 0.3336 0.0000
vt 0.1384 0.4168 0.0000
vt 0.0000 0.9992 0.0000
vt 0.1384 0.9992 0.0000
vt 0.1384 0.9160 0.0000
vt 0.0000 0.9160 0.0000
vt 0.1384 0.8328 0.0000
vt 0.0000 0.8328 0.0000
vt 0.1384 0.7496 0.0000
vt 0.0000 0.7496 0.0000
vt 0.1384 0.6664 0.0000
vt 0.0000 0.6664 0.0000
vt 0.1376 0.9992 0.0000
vt 0.1376 0.9160 0.0000
vt 0.1376 0.8328 0.0000
vt 0.1376 0.7496 0.0000
vt 0.1376 0.6664 0.0000
vt 0.1376 0.5832 0.0000
vt 0.1376 0.0008 0.0000
vt 0.1376 0.0840 0.0000
vt 0.1376 0.1672 0.0000
vt 0.1376 0.2504 0.0000
vt 0.1376 0.3336 0.0000
vt 0.5000 0.5000 0.0000
# 106 texture coords

g Slope_Node_Pavement
s 1
f 1/1/1 2/2/1 3/3/1 
f 3/3/1 4/4/1 1/1/1 
f 5/5/1 6/6/1 7/7/1 
f 7/7/1 8/8/1 5/5/1 
f 9/1/1 10/2/1 11/3/1 
f 11/3/1 12/4/1 9/1/1 
s off
f 4/4/2 13/9/2 14/10/2 
f 14/10/2 1/11/2 4/4/2 
f 5/9/3 12/4/3 15/11/3 
f 15/11/3 16/10/3 5/9/3 
s 1
f 17/12/1 18/13/1 19/14/1 
f 19/14/1 20/15/1 17/12/1 
f 21/16/1 22/17/1 18/13/1 
f 18/13/1 17/12/1 21/16/1 
f 23/18/1 24/19/1 22/17/1 
f 22/17/1 21/16/1 23/18/1 
f 25/20/1 26/21/1 24/19/1 
f 24/19/1 23/18/1 25/20/1 
f 27/11/1 28/22/1 26/21/1 
f 26/21/1 25/20/1 27/11/1 
f 4/4/1 3/3/1 28/22/1 
f 28/22/1 27/11/1 4/4/1 
f 29/23/4 30/24/1 31/25/4 
f 31/25/4 32/26/4 29/23/4 
f 33/27/1 34/28/1 30/24/1 
f 30/24/1 29/23/4 33/27/1 
f 35/29/1 36/30/1 34/28/1 
f 34/28/1 33/27/1 35/29/1 
f 37/31/1 38/32/1 36/30/1 
f 36/30/1 35/29/1 37/31/1 
f 2/2/1 1/1/1 38/32/1 
f 38/32/1 37/31/1 2/2/1 
f 39/33/1 40/34/1 41/35/5 
f 41/35/5 42/36/1 39/33/1 
f 42/36/1 41/35/5 43/37/1 
f 43/37/1 44/38/1 42/36/1 
f 44/38/1 43/37/1 45/39/1 
f 45/39/1 46/40/1 44/38/1 
f 46/40/1 45/39/1 47/41/1 
f 47/41/1 48/42/1 46/40/1 
f 48/42/1 47/41/1 49/43/1 
f 49/43/1 16/44/1 48/42/1 
f 16/44/1 49/43/1 6/6/1 
f 6/6/1 5/5/1 16/44/1 
s off
f 50/45/1 51/46/1 52/47/1 
f 52/47/1 53/48/1 50/45/1 
f 53/48/1 52/47/1 54/49/1 
f 54/49/1 55/50/1 53/48/1 
f 55/50/1 54/49/1 56/51/1 
s 1
f 56/51/1 57/52/1 55/50/1 
f 57/52/1 56/51/1 58/53/1 
f 58/53/1 59/54/1 57/52/1 
f 59/54/1 58/53/1 7/7/1 
f 7/7/1 60/8/1 59/54/1 
f 61/12/6 62/13/5 63/14/6 
f 63/14/6 64/15/6 61/12/6 
f 65/16/1 66/17/1 62/13/5 
f 62/13/5 61/12/6 65/16/1 
f 67/18/1 68/19/1 66/17/1 
f 66/17/1 65/16/1 67/18/1 
f 69/20/1 70/21/1 68/19/1 
f 68/19/1 67/18/1 69/20/1 
f 15/11/1 71/22/1 70/21/1 
f 70/21/1 69/20/1 15/11/1 
f 12/4/1 11/3/1 71/22/1 
f 71/22/1 15/11/1 12/4/1 
f 72/23/1 73/24/1 74/25/1 
f 74/25/1 75/26/1 72/23/1 
f 76/27/1 77/28/1 73/24/1 
f 73/24/1 72/23/1 76/27/1 
f 78/29/1 79/30/1 77/28/1 
f 77/28/1 76/27/1 78/29/1 
f 80/31/1 81/32/1 79/30/1 
f 79/30/1 78/29/1 80/31/1 
f 10/2/1 9/1/1 81/32/1 
f 81/32/1 80/31/1 10/2/1 
s off
f 20/25/2 50/55/2 53/56/2 
f 53/56/2 17/24/2 20/25/2 
f 17/24/2 53/56/2 55/57/2 
f 55/57/2 21/28/2 17/24/2 
f 21/28/2 55/57/2 57/58/2 
f 57/58/2 23/30/2 21/28/2 
f 23/30/2 57/58/2 59/59/2 
f 59/59/2 25/32/2 23/30/2 
f 25/32/2 59/59/2 60/60/2 
f 60/60/2 27/1/2 25/32/2 
f 27/1/7 60/60/7 13/9/7 
f 13/9/2 4/4/2 27/1/2 
f 82/61/7 31/62/7 30/12/7 
f 30/12/7 83/63/7 82/61/7 
f 83/63/2 30/12/2 34/16/2 
f 34/16/7 84/64/7 83/63/7 
f 84/64/2 34/16/2 36/18/2 
f 36/18/2 85/65/2 84/64/2 
f 85/65/2 36/18/2 38/20/2 
f 38/20/2 86/66/2 85/65/2 
f 86/66/2 38/20/2 1/11/2 
f 1/11/7 14/10/7 86/66/7 
f 87/55/3 74/25/3 73/24/3 
f 73/24/3 88/56/3 87/55/3 
f 88/56/3 73/24/3 77/28/3 
f 77/28/3 89/57/3 88/56/3 
f 89/57/3 77/28/3 79/30/3 
f 79/30/3 90/58/3 89/57/3 
f 90/58/3 79/30/3 81/32/3 
f 81/32/3 91/59/3 90/58/3 
f 91/59/3 81/32/3 9/1/3 
f 9/1/3 8/60/3 91/59/3 
f 8/60/3 9/1/3 12/4/3 
f 12/4/3 5/9/3 8/60/3 
f 64/62/8 39/61/8 42/63/8 
f 42/63/3 61/12/3 64/62/3 
f 61/12/3 42/63/3 44/64/3 
f 44/64/3 65/16/3 61/12/3 
f 65/16/3 44/64/3 46/65/3 
f 46/65/3 67/18/3 65/16/3 
f 67/18/3 46/65/3 48/66/3 
f 48/66/3 69/20/3 67/18/3 
f 69/20/3 48/66/3 16/10/3 
f 16/10/3 15/11/3 69/20/3 
s 1
f 13/5/1 60/8/1 7/7/1 
f 7/7/1 6/6/1 13/5/1 
f 82/33/5 83/36/5 41/35/5 
f 41/35/5 40/34/1 82/33/5 
f 83/36/5 84/38/1 43/37/1 
f 43/37/1 41/35/5 83/36/5 
f 84/38/1 85/40/1 45/39/1 
f 45/39/1 43/37/1 84/38/1 
f 85/40/1 86/42/1 47/41/1 
f 47/41/1 45/39/1 85/40/1 
f 86/42/1 14/44/1 49/43/1 
f 49/43/1 47/41/1 86/42/1 
f 14/44/1 13/5/1 6/6/1 
f 6/6/1 49/43/1 14/44/1 
s off
f 87/45/1 88/48/1 52/47/1 
f 52/47/1 51/46/1 87/45/1 
f 88/48/1 89/50/1 54/49/1 
f 54/49/1 52/47/1 88/48/1 
s 1
f 89/50/1 90/52/1 56/51/1 
s off
f 56/51/1 54/49/1 89/50/1 
s 1
f 90/52/1 91/54/1 58/53/1 
f 58/53/1 56/51/1 90/52/1 
f 91/54/1 8/8/1 7/7/1 
f 7/7/1 58/53/1 91/54/1 
s off
f 92/67/9 11/68/9 10/69/9 
f 10/69/10 93/70/10 92/67/10 
f 94/71/11 3/68/11 2/72/11 
f 2/72/12 95/73/12 94/71/12 
f 96/74/13 63/75/13 62/76/13 
f 62/76/14 97/77/14 96/74/14 
f 97/77/15 62/76/15 66/78/15 
f 66/78/16 98/79/16 97/77/16 
f 98/79/17 66/78/17 68/80/17 
f 68/80/18 99/81/18 98/79/18 
f 99/81/19 68/80/19 70/82/19 
f 70/82/20 100/83/20 99/81/20 
f 100/83/21 70/82/21 71/72/21 
f 71/72/22 101/84/22 100/83/22 
f 101/84/23 71/72/23 11/68/23 
f 11/68/24 92/67/24 101/84/24 
f 75/85/25 102/86/25 103/87/25 
f 103/87/26 72/88/26 75/85/26 
f 72/88/27 103/87/27 104/89/27 
f 104/89/28 76/90/28 72/88/28 
f 76/90/29 104/89/29 105/91/29 
f 105/91/30 78/92/30 76/90/30 
f 78/92/31 105/91/31 106/93/31 
f 106/93/32 80/94/32 78/92/32 
f 80/94/33 106/93/33 93/70/33 
f 93/70/34 10/69/34 80/94/34 
f 107/95/35 19/85/35 18/88/35 
f 18/88/36 108/96/36 107/95/36 
f 108/96/37 18/88/37 22/90/37 
f 22/90/38 109/97/38 108/96/38 
f 109/97/39 22/90/39 24/92/39 
f 24/92/40 110/98/40 109/97/40 
f 110/98/41 24/92/41 26/94/41 
f 26/94/42 111/99/42 110/98/42 
f 111/99/43 26/94/43 28/69/43 
f 28/69/44 112/100/44 111/99/44 
f 112/100/45 28/69/45 3/68/45 
f 3/68/46 94/71/46 112/100/46 
f 32/75/47 113/101/47 114/102/47 
f 114/102/48 29/76/48 32/75/48 
f 29/76/49 114/102/49 115/103/49 
f 115/103/50 33/78/50 29/76/50 
f 33/78/51 115/103/51 116/104/51 
f 116/104/52 35/80/52 33/78/52 
f 35/80/53 116/104/53 117/105/53 
f 117/105/54 37/82/54 35/80/54 
f 37/82/55 117/105/55 95/73/55 
f 95/73/56 2/72/56 37/82/56 
f 75/26/57 87/55/57 118/106/57 
f 75/26/57 74/25/57 87/55/57 
f 19/14/58 119/106/58 50/45/58 
f 50/45/57 20/15/57 19/14/57 
f 63/26/59 120/106/59 39/55/59 
f 63/26/59 39/55/59 64/25/59 
f 32/14/60 31/15/60 82/45/60 
f 82/45/59 121/106/59 32/14/59 
# 200 faces

