# 3ds Max Wavefront OBJ Exporter v0.97b - (c)2007 guruware
# File Created: 09.09.2016 01:40:27

#
# object Box012
#

v  -5.0000 0.0000 16.0005
v  0.0000 0.0000 16.0005
v  0.0000 0.0000 -0.0000
v  -5.0000 0.0000 0.0002
v  5.0000 0.0000 16.0005
v  4.5000 0.0000 16.0005
v  4.5000 0.0000 0.0005
v  5.0000 0.0000 0.0002
v  -4.5000 0.0000 16.0005
v  -4.5000 0.0000 0.0005
v  4.5000 0.0000 -15.9995
v  5.0000 0.0000 -15.9999
v  -5.0000 0.0000 -15.9999
v  -4.5000 0.0000 -15.9995
v  0.0000 0.0000 -16.0000
v  5.0000 0.0000 -31.9995
v  0.0000 0.0000 -31.9995
v  -5.0000 0.0000 32.0005
v  0.0000 0.0000 32.0005
v  5.0000 0.0000 32.0005
v  4.5000 0.0000 32.0005
v  -4.5000 0.0000 32.0005
v  -5.0000 0.0000 -31.9995
v  4.5000 0.0000 -31.9995
v  -4.5000 0.0000 -31.9995
v  4.3301 6.0329 8.0032
v  4.3301 2.0141 32.0032
v  6.0003 2.0141 32.0032
v  6.0003 6.0329 8.0032
v  4.3301 -0.0002 32.0032
v  6.0003 -0.0002 32.0032
v  6.0003 -0.0002 8.0032
v  4.3301 9.7695 -7.2489
v  6.0003 9.7695 -7.2489
v  6.0003 -2.1679 -7.2489
v  4.3301 -2.1679 -7.2489
v  4.3301 -0.0002 8.0032
v  6.0003 11.9372 -15.9969
v  -6.0003 11.9369 -15.9968
v  -6.0003 9.7692 -7.2489
v  6.0003 7.8043 -7.2489
v  -6.0003 7.8040 -7.2489
v  -6.0003 7.8040 -15.9968
v  6.0003 7.8043 -15.9969
v  -6.0003 6.0326 8.0032
v  -6.0003 2.0138 32.0032
v  -4.3301 2.0138 32.0032
v  -4.3301 6.0326 8.0032
v  -6.0003 -0.0005 32.0032
v  -4.3301 -0.0005 32.0032
v  -4.3301 -0.0005 8.0032
v  -6.0003 -2.1682 -7.2489
v  -6.0003 -0.0005 8.0032
v  -1.6566 7.0492 -7.2489
v  -1.6566 7.8043 -7.2489
v  -4.3301 7.8040 -7.2489
v  -4.3301 6.4465 -7.2489
v  1.6566 7.0495 -7.2489
v  4.3301 6.4468 -7.2489
v  4.3301 7.8043 -7.2489
v  1.6566 7.8046 -7.2489
v  -3.2140 6.3304 -7.2489
v  -3.2140 6.3304 -9.7411
v  -0.0001 7.3929 -9.3732
v  -0.0001 7.3929 -6.8811
v  -3.8569 7.0961 -9.4802
v  -3.8569 7.0961 -6.9881
v  -0.0001 8.3929 -6.8810
v  -0.0001 8.3929 -9.3732
v  3.2139 6.3304 -7.2490
v  3.2144 6.3300 -9.3732
v  4.9239 3.3684 -9.7411
v  4.9239 3.3684 -7.2489
v  -4.9241 3.3684 -7.2490
v  -4.9241 3.3684 -9.7411
v  3.8566 7.0961 -9.4802
v  3.8566 7.0961 -6.9881
v  5.1960 5.4998 -6.9881
v  5.1960 5.4998 -9.4802
v  -5.1963 5.4998 -9.4802
v  -5.1963 5.4998 -6.9880
v  5.9998 8.2000 -32.0032
v  -6.0001 8.2000 -32.0032
v  -6.0001 8.2000 -16.0032
v  5.9998 8.2000 -16.0032
v  5.9998 -2.3000 -16.0032
v  -6.0001 -2.3000 -16.0032
v  5.9998 -2.3000 -32.0032
v  -6.0001 -2.3000 -32.0032
v  -4.3301 9.7692 -7.2489
v  -4.3301 -2.1682 -7.2489
v  4.3299 -2.3000 -16.0032
v  4.3301 11.9370 -15.9969
v  -4.3299 11.9370 -15.9969
v  -4.3301 -2.3000 -16.0032
# 95 vertices

vn 0.0000 1.0000 -0.0000
vn 0.0000 -1.0000 -0.0000
vn 0.0000 0.9794 0.2017
vn 0.0000 0.9863 0.1652
vn 0.0000 0.0000 1.0000
vn 1.0000 0.0000 -0.0000
vn 0.0000 0.0000 -1.0000
vn -1.0000 0.0000 -0.0000
vn 0.0000 0.9706 0.2405
vn 0.6214 -0.7835 -0.0000
vn 0.6418 -0.7669 -0.0000
vn 0.0110 -0.9999 -0.0000
vn -0.5654 0.8248 -0.0000
vn -0.5615 0.8275 -0.0000
vn 0.1025 -0.2106 0.9722
vn 0.0939 -0.2346 0.9675
vn 0.0448 -0.0219 0.9988
vn 0.0253 -0.0280 0.9993
vn -0.6214 -0.7835 -0.0000
vn -0.6411 -0.7675 -0.0000
vn -0.8661 -0.5000 -0.0000
vn -0.8660 -0.5000 -0.0000
vn 0.8660 -0.5000 -0.0000
vn 0.5654 0.8248 -0.0000
vn 0.5615 0.8275 -0.0000
vn 0.7661 0.6428 -0.0000
vn -0.7661 0.6428 -0.0000
vn -0.1378 -0.1946 0.9711
vn -0.1377 -0.1872 0.9726
vn -0.1662 -0.1161 0.9792
vn -0.1249 -0.1048 0.9866
vn 0.1758 -0.1124 0.9780
vn 0.1702 -0.0983 0.9805
vn 0.0000 0.9713 0.2380
vn 1.0000 0.0000 -0.0001
vn 1.0000 -0.0000 -0.0000
vn -0.8962 0.0000 -0.4436
vn -0.8964 0.0002 -0.4433
# 38 vertex normals

vt 0.0000 0.2500 0.0000
vt 0.0700 0.2500 0.0000
vt 0.0700 0.5000 0.0000
vt 0.0000 0.5000 0.0000
vt 1.0000 0.2500 0.0000
vt 1.0000 0.5000 0.0000
vt 0.0000 0.7500 0.0000
vt 1.0000 0.7500 0.0000
vt 0.1400 0.2500 0.0000
vt 0.1400 0.5000 0.0000
vt 0.0700 0.7500 0.0000
vt 0.1400 0.7500 0.0000
vt 0.1400 1.0000 0.0000
vt 0.0700 1.0000 0.0000
vt 0.0000 0.0000 0.0000
vt 0.0700 0.0000 0.0000
vt 1.0000 0.0000 0.0000
vt 0.0000 1.0000 0.0000
vt 1.0000 1.0000 0.0000
vt 0.1400 0.0000 0.0000
vt 0.7604 0.5000 0.0000
vt 0.7604 0.0000 0.0000
vt 0.8207 0.0000 0.0000
vt 0.8207 0.5000 0.0000
vt 0.5858 1.0000 0.0000
vt 0.4905 1.0000 0.0000
vt 0.4905 0.9335 0.0000
vt 0.5858 0.9335 0.0000
vt 0.5562 1.0000 0.0000
vt 0.6726 1.0000 0.0000
vt 0.6726 0.5000 0.0000
vt 0.4544 0.5000 0.0000
vt 0.2923 0.3647 0.0000
vt 0.6539 0.3647 0.0000
vt 0.5883 1.0000 0.0000
vt 0.4055 1.0000 0.0000
vt 0.3752 1.0000 0.0000
vt 0.6650 1.0000 0.0000
vt 0.6650 0.5120 0.0000
vt 0.3752 0.5120 0.0000
vt 0.9753 1.0000 0.0000
vt 0.9753 0.0000 0.0000
vt 0.8243 0.0000 0.0000
vt 0.8243 1.0000 0.0000
vt 0.6691 1.0000 0.0000
vt 0.6691 0.0000 0.0000
vt 0.2194 0.0000 0.0000
vt 0.2194 1.0000 0.0000
vt 0.4286 0.3647 0.0000
vt 0.6580 0.3647 0.0000
vt 0.6163 1.0000 0.0000
vt 0.5003 1.0000 0.0000
vt 0.4072 0.2500 0.0000
vt 0.4883 0.2500 0.0000
vt 0.4883 0.5000 0.0000
vt 0.4072 0.5000 0.0000
vt 0.4883 0.7500 0.0000
vt 0.4072 0.7500 0.0000
vt 0.4883 1.0000 0.0000
vt 0.4072 1.0000 0.0000
vt 0.4072 0.0000 0.0000
vt 0.4883 0.0000 0.0000
vt 0.8119 1.0000 0.0000
vt 0.8119 0.0000 0.0000
vt 0.7697 0.0000 0.0000
vt 0.7697 1.0000 0.0000
vt 0.8207 1.0000 0.0000
vt 0.7604 1.0000 0.0000
vt 0.4285 0.3647 0.0000
vt 0.2924 0.3647 0.0000
vt 0.3869 0.0003 0.0000
vt 0.6605 0.0001 0.0000
vt 0.6785 0.0154 0.0000
vt 0.3668 0.0062 0.0000
vt 0.3673 1.0000 0.0000
vt 0.6785 0.8487 0.0000
# 76 texture coords

g Box012
s 4
f 1/1/1 2/2/1 3/3/1 
f 3/3/1 4/4/1 1/1/1 
s 2
f 5/5/2 6/1/2 7/4/2 
f 7/4/2 8/6/2 5/5/2 
f 9/1/2 1/5/2 4/6/2 
f 4/6/2 10/4/2 9/1/2 
f 7/4/2 11/7/2 12/8/2 
f 12/8/2 8/6/2 7/4/2 
f 4/6/2 13/8/2 14/7/2 
f 14/7/2 10/4/2 4/6/2 
s 4
f 2/2/1 5/9/1 8/10/1 
f 8/10/1 3/3/1 2/2/1 
f 15/11/1 12/12/1 16/13/1 
f 16/13/1 17/14/1 15/11/1 
f 1/1/1 18/15/1 19/16/1 
f 19/16/1 2/2/1 1/1/1 
s 2
f 5/5/2 20/17/2 21/15/2 
f 21/15/2 6/1/2 5/5/2 
f 9/1/2 22/15/2 18/17/2 
f 18/17/2 1/5/2 9/1/2 
s 4
f 15/11/1 17/14/1 23/18/1 
f 23/18/1 13/7/1 15/11/1 
s 2
f 11/7/2 24/18/2 16/19/2 
f 16/19/2 12/8/2 11/7/2 
f 13/8/2 23/19/2 25/18/2 
f 25/18/2 14/7/2 13/8/2 
s 4
f 2/2/1 19/16/1 20/20/1 
f 20/20/1 5/9/1 2/2/1 
f 26/21/3 27/22/4 28/23/4 
f 28/23/4 29/24/3 26/21/3 
s 8
f 28/25/5 27/26/5 30/27/5 
f 30/27/5 31/28/5 28/25/5 
s 16
f 28/29/6 31/30/6 32/31/6 
f 32/31/6 29/32/6 28/29/6 
s 32
f 33/19/7 34/18/7 35/15/7 
f 35/15/7 36/17/7 33/19/7 
s 64
f 33/33/8 36/34/8 37/35/8 
f 37/35/8 26/36/8 33/33/8 
s 2
f 38/37/9 39/38/9 40/39/9 
f 40/39/9 34/40/9 38/37/9 
s 8
f 41/41/5 34/42/5 40/43/5 
f 40/43/5 42/44/5 41/41/5 
s 32
f 43/45/7 39/46/7 38/47/7 
f 38/47/7 44/48/7 43/45/7 
s 4
f 45/21/3 46/22/4 47/23/4 
f 47/23/4 48/24/3 45/21/3 
s 8
f 47/25/5 46/26/5 49/27/5 
f 49/27/5 50/28/5 47/25/5 
s 16
f 47/29/6 50/30/6 51/31/6 
f 51/31/6 48/32/6 47/29/6 
s 64
f 40/49/8 52/50/8 53/51/8 
f 53/51/8 45/52/8 40/49/8 
s 8
f 54/41/5 55/42/5 56/43/5 
f 56/43/5 57/44/5 54/41/5 
f 58/41/5 59/44/5 60/43/5 
f 60/43/5 61/42/5 58/41/5 
s 2
f 62/53/10 63/54/11 64/55/12 
f 64/55/12 65/56/2 62/53/10 
s 4
f 66/57/13 67/58/14 68/56/1 
f 68/56/1 69/55/1 66/57/13 
s 8
f 67/57/15 62/58/16 65/56/17 
f 65/56/17 68/55/18 67/57/15 
s 2
f 70/58/19 71/57/20 72/59/21 
f 72/59/21 73/60/22 70/58/19 
f 65/56/2 64/55/12 71/57/20 
f 71/57/20 70/58/19 65/56/2 
f 63/54/11 62/53/10 74/61/23 
f 74/61/23 75/62/23 63/54/11 
s 4
f 76/54/24 77/53/25 78/61/26 
f 78/61/26 79/62/26 76/54/24 
f 69/55/1 68/56/1 77/53/25 
f 77/53/25 76/54/24 69/55/1 
f 67/58/14 66/57/13 80/59/27 
f 80/59/27 81/60/27 67/58/14 
s 8
f 77/54/28 70/53/29 73/61/30 
f 73/61/30 78/62/31 77/54/28 
f 68/55/18 65/56/17 70/53/29 
f 70/53/29 77/54/28 68/55/18 
f 62/58/16 67/57/15 81/59/32 
f 81/59/32 74/60/33 62/58/16 
s 2
f 82/48/1 83/45/1 84/46/1 
f 84/46/1 85/47/1 82/48/1 
s 8
f 86/63/5 85/64/5 84/65/5 
f 84/65/5 87/66/5 86/63/5 
s 16
f 88/45/6 82/46/6 85/47/6 
f 85/47/6 86/48/6 88/45/6 
s 64
f 87/45/8 84/46/8 83/47/8 
f 83/47/8 89/48/8 87/45/8 
s 4
f 26/21/3 29/24/3 34/67/34 
f 34/67/34 33/68/34 26/21/3 
s 16
f 29/36/6 32/35/6 35/34/6 
f 35/50/6 34/69/6 29/52/6 
s 64
f 26/32/8 37/31/8 30/30/8 
f 30/30/8 27/29/8 26/32/8 
s 4
f 45/21/3 48/24/3 90/67/34 
f 90/67/34 40/68/34 45/21/3 
s 16
f 48/36/6 51/35/6 91/34/6 
f 91/34/6 90/70/6 48/36/6 
s 64
f 45/32/8 53/31/8 49/30/8 
f 49/30/8 46/29/8 45/32/8 
s off
f 40/49/8 39/71/8 87/72/8 
f 87/72/8 52/50/8 40/49/8 
f 34/69/35 35/50/35 86/72/35 
f 86/72/6 38/71/6 34/69/6 
s 4
f 4/1/1 3/2/1 15/3/1 
f 15/3/1 13/4/1 4/1/1 
f 3/2/1 8/9/1 12/10/1 
f 12/10/1 15/3/1 3/2/1 
s off
f 36/73/36 92/74/36 93/75/36 
f 36/73/6 93/75/6 33/76/6 
f 91/73/37 90/76/37 94/75/37 
f 91/73/38 94/75/38 95/74/38 
# 112 faces

