# 3ds Max Wavefront OBJ Exporter v0.97b - (c)2007 guruware
# File Created: 17.12.2016 23:22:06

#
# object Object016
#

v  0.5824 0.5052 -26.6682
v  0.5834 0.3524 -26.6682
v  0.5813 0.3523 -32.0016
v  0.3602 0.3522 -21.3349
v  0.5834 0.3524 -21.3349
v  0.3592 0.5049 -26.6683
v  0.5824 0.5052 -32.0016
v  0.3602 0.3522 -21.3360
v  0.3602 0.3522 -26.6693
v  0.3592 0.5049 -32.0016
v  -0.3613 0.5049 -31.9974
v  -0.5845 0.5052 -31.9974
v  -0.5845 0.5052 -26.6641
v  -0.3635 0.3522 -31.9979
v  -0.3613 0.5049 -26.6641
v  -0.5835 0.3524 -21.3299
v  -0.3603 0.3522 -26.6630
v  -0.3603 0.3522 -21.3298
v  -0.5835 0.3524 -26.6641
v  -0.5835 0.3524 -21.3308
v  -0.5814 0.3524 -31.9985
v  0.3634 0.3522 -32.0026
v  -0.5624 -0.3000 -26.9668
v  -0.3865 -0.3000 -26.9668
v  -0.4087 0.3520 -26.9921
v  -0.5402 0.3520 -26.9921
v  -0.3865 -0.3000 -27.1668
v  -0.5624 -0.3000 -27.1668
v  -0.5402 0.3520 -27.1415
v  -0.4087 0.3520 -27.1415
v  0.3858 -0.3000 -26.9668
v  0.5617 -0.3000 -26.9668
v  0.5395 0.3520 -26.9921
v  0.4080 0.3520 -26.9921
v  0.5617 -0.3000 -27.1668
v  0.3858 -0.3000 -27.1668
v  0.4080 0.3520 -27.1415
v  0.5395 0.3520 -27.1415
v  0.5824 0.6191 -26.6682
v  0.5834 0.5904 -26.6682
v  0.5813 0.5903 -32.0016
v  0.3592 0.6189 -21.3349
v  0.5824 0.6191 -21.3349
v  0.3591 0.6189 -26.6683
v  0.5824 0.6191 -32.0016
v  0.3602 0.5902 -21.3360
v  0.3602 0.5902 -26.6693
v  0.3591 0.6189 -32.0016
v  0.5834 0.5904 -21.3349
v  -0.3614 0.6189 -31.9974
v  -0.5845 0.6191 -31.9974
v  -0.5845 0.6191 -26.6641
v  -0.3635 0.5902 -31.9979
v  -0.3614 0.6189 -26.6641
v  -0.5846 0.6191 -21.3308
v  -0.3603 0.5902 -26.6630
v  -0.3614 0.6189 -21.3307
v  -0.5835 0.5904 -26.6641
v  -0.5835 0.5904 -21.3308
v  -0.5814 0.5904 -31.9985
v  0.3634 0.5902 -32.0026
v  -0.3603 0.5902 -21.3298
v  -0.6119 0.2520 -26.9668
v  -0.6119 0.2520 -27.1668
v  -0.3369 0.2520 -27.1668
v  -0.3369 0.2520 -26.9668
v  -0.6119 0.3520 -26.9668
v  -0.3369 0.3520 -26.9668
v  -0.3369 0.3520 -27.1668
v  -0.6119 0.3520 -27.1668
v  0.3365 0.2520 -26.9668
v  0.3365 0.2520 -27.1668
v  0.6115 0.2520 -27.1668
v  0.6115 0.2520 -26.9668
v  0.3365 0.3520 -26.9668
v  0.6115 0.3520 -26.9668
v  0.6115 0.3520 -27.1668
v  0.3365 0.3520 -27.1668
# 78 vertices

vn 1.0000 -0.0001 -0.0002
vn 1.0000 0.0000 -0.0002
vn 1.0000 -0.0066 -0.0000
vn -0.0009 1.0000 -0.0000
vn -1.0000 0.0000 -0.0000
vn -1.0000 -0.0002 -0.0000
vn -0.9999 -0.0101 -0.0006
vn 1.0000 0.0000 -0.0000
vn 0.0009 1.0000 -0.0000
vn 0.9999 -0.0101 -0.0000
vn 0.9999 -0.0105 -0.0000
vn 1.0000 -0.0002 -0.0003
vn 1.0000 0.0000 -0.0003
vn -1.0000 -0.0001 -0.0000
vn -1.0000 -0.0066 -0.0004
vn -1.0000 -0.0069 -0.0004
vn 1.0000 -0.0069 -0.0000
vn -0.9999 -0.0105 -0.0006
vn 0.0000 0.0000 1.0000
vn 0.0000 0.0000 -1.0000
vn 0.9993 0.0365 -0.0002
vn 0.9993 0.0366 -0.0002
vn 0.9993 -0.0362 -0.0000
vn -0.0009 1.0000 0.0000
vn -0.9993 -0.0366 0.0000
vn -0.9993 -0.0368 -0.0000
vn -0.9892 -0.1463 -0.0006
vn 0.9993 0.0366 -0.0000
vn 0.0009 1.0000 0.0000
vn 0.9972 -0.0744 -0.0000
vn 0.9972 -0.0748 -0.0000
vn 0.9993 0.0364 -0.0003
vn 0.9993 0.0366 -0.0003
vn 0.9993 0.0366 0.0000
vn -0.9993 -0.0366 -0.0000
vn -0.9993 -0.0367 -0.0000
vn -0.9940 -0.1090 -0.0004
vn -0.9940 -0.1092 -0.0004
vn 0.9993 -0.0365 -0.0000
vn -0.9892 -0.1466 -0.0006
vn 0.0000 -1.0000 -0.0000
vn 0.0000 1.0000 -0.0000
vn -0.0024 -0.0194 0.9998
vn -0.0024 0.0155 0.9999
# 44 vertex normals

vt 0.5638 0.9980 0.0000
vt 0.8504 0.9981 0.0000
vt 0.8504 0.0002 0.0000
vt 0.5638 0.9981 0.0000
vt 0.6096 0.9982 0.0000
vt 0.6096 0.0002 0.0000
vt 0.6096 0.9981 0.0000
vt 0.8504 0.0001 0.0000
vt 0.5638 -0.0000 0.0000
vt 0.5638 0.0001 0.0000
vt 0.8504 0.9982 0.0000
vt 0.6096 0.0003 0.0000
vt 0.5638 0.9979 0.0000
vt 0.8504 0.0003 0.0000
vt 0.5638 0.0002 0.0000
vt 0.8504 0.9980 0.0000
vt 0.7689 0.0002 0.0000
vt 0.7689 0.9978 0.0000
vt 0.8504 0.9978 0.0000
vt 0.0531 0.9979 0.0000
vt 0.2167 0.9978 0.0000
vt 0.2167 -0.0001 0.0000
vt 0.0531 0.9980 0.0000
vt 0.2167 0.9980 0.0000
vt 0.2167 0.0000 0.0000
vt 0.2167 0.9979 0.0000
vt 0.0531 -0.0001 0.0000
vt 0.0531 0.0000 0.0000
vt 0.2167 0.0001 0.0000
vt 0.0531 0.9978 0.0000
vt 0.0531 0.0001 0.0000
vt 0.2167 0.9977 0.0000
vt 0.2167 -0.0002 0.0000
vt 0.8555 0.8489 0.0000
vt 0.9971 0.8489 0.0000
vt 0.8519 0.0998 0.0000
vt 1.0000 0.0999 0.0000
vt 0.9971 0.9489 0.0000
vt 0.8555 0.9489 0.0000
vt 0.9642 0.8910 0.0000
vt 0.9013 0.8910 0.0000
vt 0.9013 0.9539 0.0000
vt 0.9642 0.9539 0.0000
vt 0.9627 0.9000 0.0000
vt 0.9820 0.9000 0.0000
vt 0.9820 1.0000 0.0000
vt 0.9627 1.0000 0.0000
vt 0.8555 0.8490 0.0000
vt 0.9971 0.8490 0.0000
vt 0.8518 0.0999 0.0000
vt 1.0000 0.1000 0.0000
vt 0.9971 0.9490 0.0000
vt 0.8555 0.9490 0.0000
vt 0.8518 -0.0001 0.0000
# 54 texture coords

g Object016
s 2
f 1/1/1 2/2/2 3/3/3 
s 1
f 4/4/4 5/5/4 1/6/4 
f 6/1/4 1/7/4 7/6/4 
s 2
f 8/8/5 4/9/5 6/1/5 
f 9/3/6 6/10/5 10/1/7 
f 5/4/8 5/11/8 2/3/2 
s 1
f 11/4/9 12/7/9 13/12/9 
s 2
f 14/8/10 11/9/11 15/13/12 
s 1
f 15/4/9 13/5/9 16/6/9 
s 2
f 17/8/13 15/9/12 18/1/8 
f 13/4/5 19/11/14 20/3/5 
f 12/4/15 21/11/16 19/14/14 
f 7/10/17 1/1/1 3/3/3 
s 1
f 10/10/4 6/1/4 7/6/4 
s 2
f 22/2/18 9/3/6 10/1/7 
s 1
f 6/10/4 4/4/4 1/6/4 
s 2
f 9/2/6 8/8/5 6/1/5 
f 1/10/1 5/4/8 2/3/2 
s 1
f 15/15/9 11/4/9 13/12/9 
s 2
f 17/16/13 14/8/10 15/13/12 
f 13/15/5 12/4/15 19/14/14 
s 1
f 18/10/9 15/4/9 16/6/9 
s 2
f 18/2/8 17/8/13 18/1/8 
f 16/10/5 13/4/5 20/3/5 
s 1
f 23/3/19 24/17/19 25/18/19 
f 25/18/19 26/19/19 23/3/19 
f 27/3/20 28/17/20 29/18/20 
f 29/18/20 30/19/20 27/3/20 
s 2
f 27/17/8 30/18/8 25/19/8 
f 25/19/8 24/3/8 27/17/8 
f 23/17/5 26/18/5 29/19/5 
f 29/19/5 28/3/5 23/17/5 
s 1
f 31/3/19 32/17/19 33/18/19 
f 33/18/19 34/19/19 31/3/19 
f 35/3/20 36/17/20 37/18/20 
f 37/18/20 38/19/20 35/3/20 
s 2
f 35/17/8 38/18/8 33/19/8 
f 33/19/8 32/3/8 35/17/8 
f 31/17/5 34/18/5 37/19/5 
f 37/19/5 36/3/5 31/17/5 
f 39/20/21 40/21/22 41/22/23 
s 1
f 42/23/24 43/24/24 39/25/4 
f 44/20/4 39/26/4 45/25/4 
s 2
f 46/22/25 42/27/25 44/20/25 
f 47/25/26 44/28/25 48/20/27 
f 43/23/28 49/26/28 40/22/22 
s 1
f 50/23/29 51/26/29 52/29/29 
s 2
f 53/22/30 50/27/31 54/30/32 
s 1
f 54/23/29 52/24/29 55/25/29 
s 2
f 56/22/33 54/27/32 57/20/34 
f 52/23/35 58/24/36 59/25/35 
f 51/23/37 60/26/38 58/25/36 
f 45/28/39 39/20/21 41/25/23 
s 1
f 48/28/4 44/20/4 45/25/4 
s 2
f 61/21/40 47/22/26 48/23/27 
s 1
f 44/28/4 42/23/24 39/22/4 
s 2
f 47/26/26 46/22/25 44/20/25 
f 39/28/21 43/23/28 40/22/22 
s 1
f 54/31/29 50/23/29 52/29/29 
s 2
f 56/32/33 53/33/30 54/20/32 
f 52/31/35 51/23/37 58/25/36 
s 1
f 57/28/29 54/23/29 55/25/29 
s 2
f 62/26/28 56/22/33 57/20/34 
f 55/28/35 52/23/35 59/22/35 
f 63/34/41 64/34/41 65/35/41 
f 65/35/41 66/35/41 63/34/41 
s 4
f 67/36/42 68/37/42 69/37/42 
f 69/37/42 70/36/42 67/36/42 
s 8
f 63/34/19 66/35/19 68/38/19 
f 68/38/19 67/39/19 63/34/19 
s 16
f 66/40/8 65/41/8 69/42/8 
f 69/42/8 68/43/8 66/40/8 
s 32
f 65/35/20 64/34/20 70/39/20 
f 70/39/20 69/38/20 65/35/20 
s 64
f 64/44/5 63/45/5 67/46/5 
f 67/46/5 70/47/5 64/44/5 
s 2
f 71/48/41 72/48/41 73/49/41 
f 73/49/41 74/49/41 71/48/41 
s 4
f 75/50/42 76/51/42 77/51/42 
f 77/51/42 78/50/42 75/50/42 
s 8
f 71/48/19 74/49/19 76/52/19 
f 76/52/19 75/53/19 71/48/19 
s 16
f 74/45/8 73/44/8 77/47/8 
f 77/47/8 76/46/8 74/45/8 
s 32
f 73/49/20 72/48/20 78/53/20 
f 78/53/20 77/52/20 73/49/20 
s 64
f 72/54/5 71/54/5 75/50/5 
f 75/50/5 78/50/5 72/54/5 
s off
f 43/24/43 42/23/43 46/22/43 
f 46/22/43 49/26/43 43/24/43 
f 57/20/44 55/25/44 59/25/44 
f 59/25/44 62/26/44 57/20/44 
# 92 faces

