# 3ds Max Wavefront OBJ Exporter v0.97b - (c)2007 guruware
# File Created: 29.12.2016 07:16:31

#
# object ThirdRail_Node
#

v  0.5834 0.3524 -26.6682
v  0.5813 0.3523 -32.0016
v  0.5824 0.5052 -26.6682
v  0.5834 0.3524 -21.3349
v  0.3602 0.3522 -21.3349
v  0.5824 0.5052 -32.0016
v  0.3592 0.5049 -26.6683
v  0.3602 0.3522 -21.3360
v  0.3592 0.5049 -32.0016
v  0.3602 0.3522 -26.6693
v  -0.5845 0.5052 -31.9974
v  -0.5845 0.5052 -26.6641
v  -0.3613 0.5049 -31.9974
v  -0.3613 0.5049 -26.6641
v  -0.3635 0.3522 -31.9979
v  -0.5835 0.3524 -21.3299
v  -0.3603 0.3522 -21.3298
v  -0.3603 0.3522 -26.6630
v  -0.5835 0.3524 -26.6641
v  -0.5835 0.3524 -21.3308
v  -0.5814 0.3524 -31.9985
v  0.3634 0.3522 -32.0026
v  -0.3865 -0.3000 -26.9668
v  -0.4087 0.3520 -26.9921
v  -0.5624 -0.3000 -26.9668
v  -0.5402 0.3520 -26.9921
v  -0.5624 -0.3000 -27.1668
v  -0.5402 0.3520 -27.1415
v  -0.3865 -0.3000 -27.1668
v  -0.4087 0.3520 -27.1415
v  0.5617 -0.3000 -26.9668
v  0.5395 0.3520 -26.9921
v  0.3858 -0.3000 -26.9668
v  0.4080 0.3520 -26.9921
v  0.3858 -0.3000 -27.1668
v  0.4080 0.3520 -27.1415
v  0.5617 -0.3000 -27.1668
v  0.5395 0.3520 -27.1415
v  0.5834 0.5904 -26.6682
v  0.5813 0.5903 -32.0016
v  0.5824 0.6191 -26.6682
v  0.5824 0.6191 -21.3349
v  0.3592 0.6189 -21.3349
v  0.5824 0.6191 -32.0016
v  0.3591 0.6189 -26.6683
v  0.3602 0.5902 -21.3360
v  0.3591 0.6189 -32.0016
v  0.3602 0.5902 -26.6693
v  0.5834 0.5904 -21.3349
v  -0.5845 0.6191 -31.9974
v  -0.5845 0.6191 -26.6641
v  -0.3614 0.6189 -31.9974
v  -0.3614 0.6189 -26.6641
v  -0.3635 0.5902 -31.9979
v  -0.5846 0.6191 -21.3308
v  -0.3614 0.6189 -21.3307
v  -0.3603 0.5902 -26.6630
v  -0.5835 0.5904 -26.6641
v  -0.5835 0.5904 -21.3308
v  -0.5814 0.5904 -31.9985
v  0.3634 0.5902 -32.0026
v  -0.3603 0.5902 -21.3298
v  -0.6119 0.2520 -27.1668
v  -0.3369 0.2520 -27.1668
v  -0.6119 0.2520 -26.9668
v  -0.3369 0.2520 -26.9668
v  -0.3369 0.3520 -26.9668
v  -0.3369 0.3520 -27.1668
v  -0.6119 0.3520 -26.9668
v  -0.6119 0.3520 -27.1668
v  0.3365 0.2520 -27.1668
v  0.6115 0.2520 -27.1668
v  0.3365 0.2520 -26.9668
v  0.6115 0.2520 -26.9668
v  0.6115 0.3520 -26.9668
v  0.6115 0.3520 -27.1668
v  0.3365 0.3520 -26.9668
v  0.3365 0.3520 -27.1668
# 78 vertices

vn 1.0000 0.0065 -0.0002
vn 1.0000 -0.0069 -0.0000
vn 1.0000 0.0064 -0.0002
vn -0.0009 0.9996 0.0286
vn -0.0013 0.9999 0.0143
vn -0.0013 1.0000 -0.0000
vn -0.0014 0.9999 0.0143
vn -1.0000 -0.0065 -0.0000
vn -0.9996 -0.0271 -0.0006
vn -1.0000 -0.0067 -0.0000
vn 0.0013 1.0000 -0.0000
vn 0.0013 0.9999 0.0143
vn 0.9999 -0.0144 -0.0000
vn 1.0000 0.0064 -0.0003
vn 0.9999 -0.0140 -0.0000
vn 0.0009 0.9996 0.0286
vn 1.0000 0.0065 -0.0000
vn 1.0000 0.0065 -0.0003
vn -0.9998 -0.0203 -0.0004
vn -0.9998 -0.0200 -0.0004
vn 1.0000 -0.0072 -0.0000
vn -0.9996 -0.0275 -0.0006
vn 0.0000 0.0388 0.9992
vn 0.0000 0.0388 -0.9992
vn 0.9994 0.0340 -0.0000
vn -0.9994 0.0340 -0.0000
vn 0.9994 0.0348 -0.0002
vn 0.9993 -0.0379 -0.0000
vn 0.9994 0.0347 -0.0002
vn -0.0009 1.0000 -0.0000
vn -0.0009 1.0000 0.0000
vn -0.9994 -0.0348 0.0000
vn -0.9993 -0.0383 0.0000
vn -0.9890 -0.1478 -0.0006
vn -0.9993 -0.0385 -0.0000
vn 0.9994 0.0348 -0.0000
vn 0.0009 1.0000 -0.0000
vn 0.0009 1.0000 0.0000
vn 0.9973 -0.0730 -0.0000
vn 0.9993 0.0381 -0.0003
vn 0.9974 -0.0726 -0.0000
vn 0.9993 0.0383 -0.0000
vn 0.9993 0.0383 -0.0003
vn -0.9994 -0.0349 -0.0000
vn -0.9993 -0.0383 -0.0000
vn -0.9994 -0.0348 -0.0000
vn -0.9942 -0.1074 -0.0004
vn -0.9942 -0.1071 -0.0004
vn 0.9993 -0.0382 -0.0000
vn -0.9890 -0.1482 -0.0006
vn 0.0000 -1.0000 -0.0000
vn 0.0000 1.0000 -0.0000
vn 0.0000 0.0000 1.0000
vn 1.0000 0.0000 -0.0000
vn 0.0000 0.0000 -1.0000
vn -1.0000 0.0000 -0.0000
vn 0.0000 -0.0383 0.9993
vn -0.0049 -0.0002 1.0000
vn -0.0004 -0.0000 1.0000
vn -0.0044 0.0312 0.9995
# 60 vertex normals

vt 0.8504 0.9981 0.0000
vt 0.8504 0.0002 0.0000
vt 0.5638 0.9980 0.0000
vt 0.6096 0.9982 0.0000
vt 0.6096 0.0002 0.0000
vt 0.5638 0.9981 0.0000
vt 0.6096 0.9981 0.0000
vt 0.5638 -0.0000 0.0000
vt 0.8504 0.0001 0.0000
vt 0.5638 0.0001 0.0000
vt 0.6096 0.0003 0.0000
vt 0.5638 0.9979 0.0000
vt 0.8504 0.9982 0.0000
vt 0.8504 0.0003 0.0000
vt 0.5638 0.0002 0.0000
vt 0.8504 0.9980 0.0000
vt 0.7689 0.0002 0.0000
vt 0.7689 0.9978 0.0000
vt 0.8504 0.9978 0.0000
vt 0.2167 0.9978 0.0000
vt 0.2167 -0.0001 0.0000
vt 0.0531 0.9979 0.0000
vt 0.2167 0.9980 0.0000
vt 0.2167 0.0000 0.0000
vt 0.0531 0.9980 0.0000
vt 0.2167 0.9979 0.0000
vt 0.0531 -0.0001 0.0000
vt 0.0531 0.0000 0.0000
vt 0.2167 0.0001 0.0000
vt 0.0531 0.9978 0.0000
vt 0.0531 0.0001 0.0000
vt 0.2167 -0.0002 0.0000
vt 0.2167 0.9977 0.0000
vt 0.8555 0.8489 0.0000
vt 0.9971 0.8489 0.0000
vt 1.0000 0.0999 0.0000
vt 0.8519 0.0998 0.0000
vt 0.9971 0.9489 0.0000
vt 0.8555 0.9489 0.0000
vt 0.9013 0.8910 0.0000
vt 0.9013 0.9539 0.0000
vt 0.9642 0.8910 0.0000
vt 0.9642 0.9539 0.0000
vt 0.9820 0.9000 0.0000
vt 0.9820 1.0000 0.0000
vt 0.9627 0.9000 0.0000
vt 0.9627 1.0000 0.0000
vt 0.8555 0.8490 0.0000
vt 0.9971 0.8490 0.0000
vt 1.0000 0.1000 0.0000
vt 0.8518 0.0999 0.0000
vt 0.9971 0.9490 0.0000
vt 0.8555 0.9490 0.0000
vt 0.8518 -0.0001 0.0000
# 54 texture coords

g ThirdRail_Node
s 2
f 1/1/1 2/2/2 3/3/3 
s 1
f 4/4/4 3/5/5 5/6/4 
f 3/7/5 6/5/6 7/3/7 
s 2
f 5/8/8 7/3/8 8/9/8 
f 7/10/8 9/3/9 10/2/10 
s 1
f 11/7/11 12/11/12 13/6/11 
s 2
f 13/8/13 14/12/14 15/9/15 
s 1
f 12/4/12 16/5/16 14/6/12 
s 2
f 14/8/14 17/3/17 18/9/18 
f 19/13/10 20/2/8 12/6/8 
f 21/13/19 19/14/10 11/6/20 
f 3/3/3 2/2/2 6/10/21 
s 1
f 7/3/7 6/5/6 9/10/6 
s 2
f 10/2/10 9/3/9 22/1/22 
s 1
f 5/6/4 3/5/5 7/10/7 
s 2
f 8/9/8 7/3/8 10/1/10 
f 4/6/17 1/2/1 3/10/3 
s 1
f 13/6/11 12/11/12 14/15/12 
s 2
f 15/9/15 14/12/14 18/16/18 
f 11/6/20 19/14/10 12/15/8 
s 1
f 14/6/12 16/5/16 17/10/16 
s 2
f 12/6/8 20/2/8 16/10/8 
s 1
f 23/17/23 24/18/23 25/2/23 
f 26/19/23 25/2/23 24/18/23 
f 27/17/24 28/18/24 29/2/24 
f 30/19/24 29/2/24 28/18/24 
s 2
f 30/18/25 24/19/25 29/17/25 
f 23/2/25 29/17/25 24/19/25 
f 26/18/26 28/19/26 25/17/26 
f 27/2/26 25/17/26 28/19/26 
s 1
f 31/17/23 32/18/23 33/2/23 
f 34/19/23 33/2/23 32/18/23 
f 35/17/24 36/18/24 37/2/24 
f 38/19/24 37/2/24 36/18/24 
s 2
f 38/18/25 32/19/25 37/17/25 
f 31/2/25 37/17/25 32/19/25 
f 34/18/26 36/19/26 33/17/26 
f 35/2/26 33/17/26 36/19/26 
f 39/20/27 40/21/28 41/22/29 
s 1
f 42/23/30 41/24/31 43/25/31 
f 41/26/31 44/24/30 45/22/31 
s 2
f 43/27/32 45/22/33 46/21/32 
f 45/28/33 47/22/34 48/24/35 
f 49/26/36 39/21/27 42/25/36 
s 1
f 50/26/37 51/29/38 52/25/37 
s 2
f 52/27/39 53/30/40 54/21/41 
s 1
f 51/23/38 55/24/38 53/25/38 
s 2
f 53/27/40 56/22/42 57/21/43 
f 58/23/44 59/24/45 51/25/46 
f 60/26/47 58/24/44 50/25/48 
f 41/22/29 40/24/28 44/28/49 
s 1
f 45/22/31 44/24/30 47/28/30 
s 2
f 48/21/35 47/25/34 61/20/50 
s 1
f 43/25/31 41/21/31 45/28/31 
s 2
f 46/21/32 45/22/33 48/26/35 
f 42/25/36 39/21/27 41/28/29 
s 1
f 52/25/37 51/29/38 53/31/38 
s 2
f 54/32/41 53/22/40 57/33/43 
f 50/25/48 58/24/44 51/31/46 
s 1
f 53/25/38 55/24/38 56/28/37 
s 2
f 57/21/43 56/22/42 62/26/42 
f 51/25/46 59/21/45 55/28/45 
f 63/34/51 64/35/51 65/34/51 
f 66/35/51 65/34/51 64/35/51 
s 4
f 67/36/52 68/36/52 69/37/52 
f 70/37/52 69/37/52 68/36/52 
s 8
f 66/35/53 67/38/53 65/34/53 
f 69/39/53 65/34/53 67/38/53 
s 16
f 64/40/54 68/41/54 66/42/54 
f 67/43/54 66/42/54 68/41/54 
s 32
f 63/34/55 70/39/55 64/35/55 
f 68/38/55 64/35/55 70/39/55 
s 64
f 65/44/56 69/45/56 63/46/56 
f 70/47/56 63/46/56 69/45/56 
s 2
f 71/48/51 72/49/51 73/48/51 
f 74/49/51 73/48/51 72/49/51 
s 4
f 75/50/52 76/50/52 77/51/52 
f 78/51/52 77/51/52 76/50/52 
s 8
f 74/49/53 75/52/53 73/48/53 
f 77/53/53 73/48/53 75/52/53 
s 16
f 72/46/54 76/47/54 74/44/54 
f 75/45/54 74/44/54 76/47/54 
s 32
f 71/48/55 78/53/55 72/49/55 
f 76/52/55 72/49/55 78/53/55 
s 64
f 73/54/56 77/51/56 71/54/56 
f 78/51/56 71/54/56 77/51/56 
s off
f 43/25/57 46/21/57 42/23/57 
f 49/26/58 42/23/58 46/21/58 
f 55/24/59 59/24/59 56/22/59 
f 62/26/60 56/22/60 59/24/60 
# 90 faces

