# 3ds Max Wavefront OBJ Exporter v0.97b - (c)2007 guruware
# File Created: 28.09.2015 19:13:54

#
# object Plane01_0
#

v  5.00000 -0.00000 0.00000
v  -5.00000 -0.00000 0.00000
v  5.00000 -0.00000 16.00000
v  -5.00000 -0.00000 -16.00000
v  -5.00000 -0.00000 16.00000
v  5.00000 -0.00000 32.00000
v  -5.00000 -0.00000 32.00000
v  5.00000 -0.00000 -16.00000
v  -5.00000 -0.00000 -32.00000
v  5.00000 -0.00000 -32.00000
v  5.00000 -2.25000 0.00000
v  5.00000 -2.25000 15.99999
v  5.00000 -2.25000 32.00000
v  5.00000 -2.25000 -16.00000
v  5.00000 -2.25000 -32.00000
v  5.00000 -2.25000 16.00000
v  -5.00000 -2.25000 0.00000
v  -5.00000 -2.25000 -16.00000
v  -5.00000 -2.25000 16.00000
v  -5.00000 -2.25000 32.00000
v  -5.00000 -2.25000 -31.99999
v  5.00000 -2.25001 -31.99999
v  -5.00000 -2.25000 15.99999
v  -5.00000 -2.25000 -32.00000
# 24 vertices

vn 0.00000 1.00000 -0.00000
vn 1.00000 -0.00000 -0.00000
vn 0.00000 -1.00000 -0.00000
vn -1.00000 -0.00000 -0.00000
# 4 vertex normals

vt 0.23635 0.50000 0.00000
vt 0.58947 0.50000 0.00000
vt 0.23635 0.25000 0.00000
vt 0.58947 0.75000 0.00000
vt 0.58947 0.25000 0.00000
vt 0.23635 0.00000 0.00000
vt 0.58947 0.00000 0.00000
vt 0.23635 0.75000 0.00000
vt 0.58947 1.00000 0.00000
vt 0.23635 1.00000 0.00000
vt 0.07620 0.50000 0.00000
vt 0.18477 0.50000 0.00000
vt 0.07620 0.25000 0.00000
vt 0.18477 0.75000 0.00000
vt 0.18477 0.25000 0.00000
vt 0.07620 0.00000 0.00000
vt 0.18477 0.00000 0.00000
vt 0.07620 0.75000 0.00000
vt 0.18477 1.00000 0.00000
vt 0.07620 1.00000 0.00000
vt 0.82305 0.50000 0.00000
vt 0.82305 0.25000 0.00000
vt 1.00000 0.50000 0.00000
vt 1.00000 0.75000 0.00000
vt 1.00000 0.25000 0.00000
vt 0.82305 0.00000 0.00000
vt 1.00000 0.00000 0.00000
vt 0.82305 0.75000 0.00000
vt 1.00000 1.00000 0.00000
vt 0.82305 1.00000 0.00000
vt 0.63829 0.50000 0.00000
vt 0.63829 0.25000 0.00000
vt 0.75045 0.50000 0.00000
vt 0.75045 0.75000 0.00000
vt 0.75045 0.25000 0.00000
vt 0.63829 0.00000 0.00000
vt 0.75045 0.00000 0.00000
vt 0.63829 0.75000 0.00000
vt 0.75045 1.00000 0.00000
vt 0.63829 1.00000 0.00000
# 40 texture coords

g Plane01_0
f 1/1/1 2/2/1 3/3/1 
f 2/2/1 1/1/1 4/4/1 
f 3/3/1 2/2/1 5/5/1 
f 3/3/1 5/5/1 6/6/1 
f 7/7/1 6/6/1 5/5/1 
f 8/8/1 4/4/1 1/1/1 
f 8/8/1 9/9/1 4/4/1 
f 10/10/1 9/9/1 8/8/1 
f 11/11/2 1/12/2 12/13/2 
f 1/12/2 11/11/2 8/14/2 
f 12/13/2 1/12/2 3/15/2 
f 12/13/2 3/15/2 13/16/2 
f 6/17/2 13/16/2 3/15/2 
f 14/18/2 8/14/2 11/11/2 
f 14/18/2 10/19/2 8/14/2 
f 15/20/2 10/19/2 14/18/2 
f 11/21/3 16/22/3 17/23/3 
f 17/23/3 18/24/3 11/21/3 
f 16/22/3 19/25/3 17/23/3 
f 16/22/3 13/26/3 19/25/3 
f 20/27/3 19/25/3 13/26/3 
f 14/28/3 11/21/3 18/24/3 
f 14/28/3 18/24/3 21/29/3 
f 22/30/3 14/28/3 21/29/3 
f 17/31/4 23/32/4 2/33/4 
f 2/33/4 4/34/4 17/31/4 
f 23/32/4 5/35/4 2/33/4 
f 23/32/4 20/36/4 5/35/4 
f 7/37/4 5/35/4 20/36/4 
f 18/38/4 17/31/4 4/34/4 
f 18/38/4 4/34/4 9/39/4 
f 24/40/4 18/38/4 9/39/4 
# 32 faces

