# 3ds Max Wavefront OBJ Exporter v0.97b - (c)2007 guruware
# File Created: 28.09.2015 19:21:39

#
# object Plane01n_0
#

v  5.00000 -2.25000 -36.23972
v  4.99999 -0.00000 -36.23972
v  5.00000 -2.25000 -4.23972
v  4.99999 -0.00000 -4.23971
v  5.00000 -2.25000 27.76028
v  5.00000 -0.00000 27.76028
v  5.00000 -2.25000 -36.23970
v  5.00000 -2.25000 -4.23971
v  -5.00000 -2.25000 -36.23970
v  -5.00000 -2.25000 -4.23971
v  -5.00000 -2.25000 27.76028
v  -5.00000 -2.25000 -36.23972
v  -5.00000 -2.25000 -4.23972
v  -5.00001 -0.00000 -36.23972
v  -5.00001 -0.00000 -4.23971
v  -5.00000 0.00000 27.76028
v  0.00000 -0.00000 -4.23972
v  5.00000 0.00000 -36.23970
v  -5.00000 0.00000 -36.23970
v  -3.75000 0.00000 -4.23971
v  3.75000 0.00000 -4.23971
v  5.00000 0.00000 -4.23971
v  -5.00000 0.00000 -4.23971
v  3.75000 -0.00000 27.76028
v  -0.00000 -0.00000 27.76028
v  -3.75000 -0.00000 27.76028
v  -5.00000 -0.00000 27.76028
# 27 vertices

vn 1.00000 0.00000 -0.00000
vn 0.00000 -1.00000 -0.00000
vn -1.00000 0.00000 -0.00000
vn 0.00000 1.00000 -0.00000
# 4 vertex normals

vt 0.07620 1.00000 0.00000
vt 0.18477 1.00000 0.00000
vt 0.07620 0.50000 0.00000
vt 0.18477 0.50000 0.00000
vt 0.07620 0.00000 0.00000
vt 0.18477 0.00000 0.00000
vt 0.82305 1.00000 0.00000
vt 0.82305 0.50000 0.00000
vt 1.00000 1.00000 0.00000
vt 1.00000 0.50000 0.00000
vt 0.82305 0.00000 0.00000
vt 1.00000 0.00000 0.00000
vt 0.63829 1.00000 0.00000
vt 0.63829 0.50000 0.00000
vt 0.75045 1.00000 0.00000
vt 0.75045 0.50000 0.00000
vt 0.63829 0.00000 0.00000
vt 0.75045 0.00000 0.00000
vt 0.41426 0.50000 0.00000
vt 0.23635 1.00000 0.00000
vt 0.58947 1.00000 0.00000
vt 0.55313 0.50000 0.00000
vt 0.27305 0.50000 0.00000
vt 0.23635 0.50000 0.00000
vt 0.58947 0.50000 0.00000
vt 0.27305 0.00000 0.00000
vt 0.23635 0.00000 0.00000
vt 0.41425 0.00000 0.00000
vt 0.55313 0.00000 0.00000
vt 0.58947 0.00000 0.00000
# 30 texture coords

g Plane01n_0
f 1/1/1 2/2/1 3/3/1 
f 3/3/1 2/2/1 4/4/1 
f 3/3/1 4/4/1 5/5/1 
f 6/6/1 5/5/1 4/4/1 
f 7/7/2 8/8/2 9/9/2 
f 8/8/2 10/10/2 9/9/2 
f 8/8/2 5/11/2 10/10/2 
f 11/12/2 10/10/2 5/11/2 
f 12/13/3 13/14/3 14/15/3 
f 13/14/3 15/16/3 14/15/3 
f 13/14/3 11/17/3 15/16/3 
f 16/18/3 15/16/3 11/17/3 
f 17/19/4 18/20/4 19/21/4 
f 19/21/4 20/22/4 17/19/4 
f 17/19/4 21/23/4 18/20/4 
f 18/20/4 21/23/4 22/24/4 
f 23/25/4 20/22/4 19/21/4 
f 21/23/4 24/26/4 22/24/4 
f 22/24/4 24/26/4 6/27/4 
f 25/28/4 24/26/4 21/23/4 
f 25/28/4 21/23/4 17/19/4 
f 17/19/4 26/29/4 25/28/4 
f 20/22/4 26/29/4 17/19/4 
f 27/30/4 26/29/4 20/22/4 
f 27/30/4 20/22/4 23/25/4 
# 25 faces

